# Blender 4.0.2
# www.blender.org
o runner_body.001
v -0.000000 0.239270 -0.120756 0.2902 0.2902 0.2902
v 0.142378 0.153949 -0.114410 0.2902 0.2902 0.2902
v 0.208250 0.070487 -0.094211 0.2902 0.2902 0.2902
v 0.208250 -0.052116 -0.061496 0.2902 0.2902 0.2902
v 0.135207 -0.207125 -0.027455 0.2902 0.2902 0.2902
v 0.142378 0.199002 0.026303 0.2902 0.2902 0.2902
v 0.208250 0.087905 0.070804 0.2902 0.2902 0.2902
v 0.208250 -0.048330 0.080649 0.2902 0.2902 0.2902
v 0.098338 -0.207704 0.060173 0.2902 0.2902 0.2902
v 0.079544 0.222156 0.051898 0.2902 0.2902 0.2902
v 0.128705 0.110985 0.146680 0.2902 0.2902 0.2902
v 0.128705 -0.046058 0.162051 0.2902 0.2902 0.2902
v 0.060776 -0.200760 0.077733 0.2902 0.2902 0.2902
v -0.000000 0.240943 0.069648 0.2902 0.2902 0.2902
v -0.000000 0.118537 0.168182 0.2902 0.2902 0.2902
v -0.000000 -0.048330 0.199387 0.2902 0.2902 0.2902
v -0.000000 -0.200760 0.087456 0.2902 0.2902 0.2902
v -0.079544 0.222156 0.051898 0.2902 0.2902 0.2902
v -0.128705 0.110985 0.146680 0.2902 0.2902 0.2902
v -0.128705 -0.046058 0.162051 0.2902 0.2902 0.2902
v -0.060776 -0.200760 0.077733 0.2902 0.2902 0.2902
v -0.142378 0.199002 0.026303 0.2902 0.2902 0.2902
v -0.208250 0.087905 0.070804 0.2902 0.2902 0.2902
v -0.208250 -0.048330 0.080649 0.2902 0.2902 0.2902
v -0.098338 -0.207704 0.060173 0.2902 0.2902 0.2902
v -0.142378 0.153949 -0.114410 0.2902 0.2902 0.2902
v -0.208250 0.070487 -0.094211 0.2902 0.2902 0.2902
v -0.208250 -0.052116 -0.061496 0.2902 0.2902 0.2902
v -0.135207 -0.207125 -0.027455 0.2902 0.2902 0.2902
v -0.000000 0.209781 -0.106470 0.2902 0.2902 0.2902
v 0.123157 0.134619 -0.099735 0.2902 0.2902 0.2902
v 0.180397 0.062845 -0.082059 0.2902 0.2902 0.2902
v 0.180342 -0.043128 -0.052602 0.2902 0.2902 0.2902
v 0.112043 -0.181615 -0.021596 0.2902 0.2902 0.2902
v -0.123157 0.134619 -0.099735 0.2902 0.2902 0.2902
v -0.180397 0.062845 -0.082059 0.2902 0.2902 0.2902
v -0.180342 -0.043128 -0.052602 0.2902 0.2902 0.2902
v -0.112043 -0.181615 -0.021596 0.2902 0.2902 0.2902
vn 0.5262 -0.5220 0.6713
vn 1.0000 -0.0000 -0.0000
vn 0.7066 0.0606 0.7050
vn 0.5045 0.8223 -0.2633
vn 0.2062 -0.5588 0.8032
vn 0.8395 0.5323 -0.1088
vn 0.2234 0.1387 0.9648
vn 0.3250 0.9440 -0.0562
vn -0.2062 -0.5588 0.8032
vn 0.5768 0.6268 0.5238
vn 0.8579 -0.4930 0.1445
vn 0.2280 0.9736 -0.0086
vn -0.5262 -0.5220 0.6713
vn 0.2194 0.6490 0.7284
vn -0.7066 0.0606 0.7050
vn -0.2280 0.9736 -0.0086
vn -0.8579 -0.4930 0.1445
vn -0.2194 0.6490 0.7284
vn -1.0000 -0.0000 -0.0000
vn -0.3250 0.9440 -0.0562
vn -0.3136 -0.0590 -0.9477
vn -0.5769 0.6268 0.5238
vn -0.5045 0.8223 -0.2633
vn -0.2185 -0.4328 -0.8746
vn -0.2577 -0.4170 -0.8716
vn -0.3475 -0.2460 -0.9048
vn 0.3474 -0.2460 -0.9048
vn 0.3136 -0.0590 -0.9477
vn -0.2234 0.1387 0.9648
vn 0.2185 -0.4328 -0.8746
vn 0.2577 -0.4170 -0.8716
vn -0.0000 0.2238 -0.9746
vn -0.0000 -0.9992 0.0406
vn -0.8395 0.5323 -0.1088
s 0
f 12//1 13//1 9//1 8//1
f 4//2 3//2 7//2 8//2
f 8//3 7//3 11//3 12//3
f 2//4 1//4 6//4
f 16//5 17//5 13//5 12//5
f 3//6 2//6 6//6 7//6
f 12//7 11//7 15//7 16//7
f 6//8 1//8 10//8
f 20//9 21//9 17//9 16//9
f 7//10 6//10 10//10 11//10
f 8//11 9//11 5//11 4//11
f 10//12 1//12 14//12
f 24//13 25//13 21//13 20//13
f 11//14 10//14 14//14 15//14
f 20//15 19//15 23//15 24//15
f 14//16 1//16 18//16
f 28//17 29//17 25//17 24//17
f 15//18 14//18 18//18 19//18
f 24//19 23//19 27//19 28//19
f 18//20 1//20 22//20
f 34//21 33//21 4//21 5//21
f 19//22 18//22 22//22 23//22
f 22//23 1//23 26//23
f 31//24 30//24 1//24 2//24
f 32//25 31//25 2//25 3//25
f 33//26 32//26 3//26 4//26
f 36//27 37//27 28//27 27//27
f 37//28 38//28 29//28 28//28
f 16//29 15//29 19//29 20//29
f 30//30 35//30 26//30 1//30
f 35//31 36//31 27//31 26//31
f 5//32 29//32 38//32 34//32
f 5//33 9//33 13//33 17//33 21//33 25//33 29//33
f 23//34 22//34 26//34 27//34
