# Blender 4.0.2
# www.blender.org
o runner_body.002
v -0.001546 0.239460 -0.082142 0.2902 0.2902 0.2902
v -0.001546 0.236647 0.085449 0.2902 0.2902 0.2902
v 0.053676 0.240432 0.048551 0.2902 0.2902 0.2902
v 0.057464 0.237626 -0.048551 0.2902 0.2902 0.2902
v -0.002891 -0.189578 -0.079517 0.2902 0.2902 0.2902
v -0.066116 -0.189578 -0.043015 0.2902 0.2902 0.2902
v -0.072400 0.238178 -0.048551 0.2902 0.2902 0.2902
v -0.066116 -0.189330 0.029991 0.2902 0.2902 0.2902
v -0.072400 0.235365 0.048551 0.2902 0.2902 0.2902
v -0.002891 -0.189330 0.066494 0.2902 0.2902 0.2902
v 0.060334 -0.189330 0.029991 0.2902 0.2902 0.2902
v 0.060334 -0.189578 -0.043015 0.2902 0.2902 0.2902
v -0.066116 -0.189578 -0.043015 1.0000 0.0000 0.0000
v -0.002891 -0.189578 -0.079517 1.0000 0.0000 0.0000
v -0.066116 -0.189330 0.029991 1.0000 0.0000 0.0000
v -0.001546 0.239460 -0.082142 1.0000 0.0000 0.0000
v -0.001546 0.236647 0.085449 1.0000 0.0000 0.0000
v 0.053676 0.240432 0.048551 1.0000 0.0000 0.0000
v 0.057464 0.237626 -0.048551 1.0000 0.0000 0.0000
v -0.072400 0.238178 -0.048551 1.0000 0.0000 0.0000
v -0.072400 0.235365 0.048551 1.0000 0.0000 0.0000
v -0.002891 -0.189330 0.066494 1.0000 0.0000 0.0000
v 0.060334 -0.189330 0.029991 1.0000 0.0000 0.0000
v 0.060334 -0.189578 -0.043015 1.0000 0.0000 0.0000
v -0.040323 0.231573 0.001615 1.0000 1.0000 1.0000
v -0.040323 0.277493 0.001615 1.0000 1.0000 1.0000
v -0.007853 0.231573 -0.030855 1.0000 1.0000 1.0000
v -0.007853 0.277493 -0.030855 1.0000 1.0000 1.0000
v -0.007853 0.231573 0.034086 1.0000 1.0000 1.0000
v -0.007853 0.277493 0.034086 1.0000 1.0000 1.0000
v 0.024617 0.231573 0.001615 1.0000 1.0000 1.0000
v 0.024617 0.277493 0.001615 1.0000 1.0000 1.0000
v -0.040323 -0.226618 0.001615 1.0000 1.0000 1.0000
v -0.040323 -0.180698 0.001615 1.0000 1.0000 1.0000
v -0.007853 -0.226618 -0.030855 1.0000 1.0000 1.0000
v -0.007853 -0.180698 -0.030855 1.0000 1.0000 1.0000
v -0.007853 -0.226618 0.034086 1.0000 1.0000 1.0000
v -0.007853 -0.180698 0.034086 1.0000 1.0000 1.0000
v 0.024617 -0.226618 0.001615 1.0000 1.0000 1.0000
v 0.024617 -0.180698 0.001615 1.0000 1.0000 1.0000
vn -0.4632 -0.0111 -0.8862
vn -0.9999 -0.0147 -0.0002
vn -0.4795 -0.0414 0.8766
vn 0.5272 -0.0339 0.8490
vn 0.9997 0.0108 0.0221
vn 0.4973 -0.0074 -0.8675
vn -0.0000 -1.0000 0.0023
vn -0.0179 0.9998 0.0117
vn -0.7071 -0.0000 -0.7071
vn 0.7071 -0.0000 -0.7071
vn 0.7071 -0.0000 0.7071
vn -0.7071 -0.0000 0.7071
vn -0.0000 -1.0000 -0.0000
vn -0.0000 1.0000 -0.0000
s 0
f 5//1 6//1 7//1 1//1
f 6//2 8//2 9//2 7//2
f 8//3 10//3 2//3 9//3
f 10//4 11//4 3//4 2//4
f 11//5 12//5 4//5 3//5
f 12//6 5//6 1//6 4//6
f 14//7 24//7 23//7 22//7 15//7 13//7
f 17//8 18//8 19//8 16//8 20//8 21//8
f 25//9 26//9 28//9 27//9
f 27//10 28//10 32//10 31//10
f 31//11 32//11 30//11 29//11
f 29//12 30//12 26//12 25//12
f 27//13 31//13 29//13 25//13
f 32//14 28//14 26//14 30//14
f 33//9 34//9 36//9 35//9
f 35//10 36//10 40//10 39//10
f 39//11 40//11 38//11 37//11
f 37//12 38//12 34//12 33//12
f 35//13 39//13 37//13 33//13
f 40//14 36//14 34//14 38//14
