# Blender 4.0.2
# www.blender.org
o runner_body.002
v -0.118002 -0.397126 -0.087802 0.2902 0.2902 0.2902
v -0.118002 -0.399939 0.079788 0.2902 0.2902 0.2902
v -0.173224 -0.396154 0.042890 0.2902 0.2902 0.2902
v -0.177012 -0.398959 -0.054212 0.2902 0.2902 0.2902
v 0.110454 -0.397126 -0.087802 0.2902 0.2902 0.2902
v 0.110454 -0.399939 0.079788 0.2902 0.2902 0.2902
v 0.165676 -0.396154 0.042890 0.2902 0.2902 0.2902
v 0.169464 -0.398959 -0.054212 0.2902 0.2902 0.2902
v -0.184152 -0.226188 -0.047622 0.2902 0.2902 0.2902
v -0.184152 -0.226188 0.036301 0.2902 0.2902 0.2902
v -0.119533 -0.226188 0.078262 0.2902 0.2902 0.2902
v -0.119533 -0.226188 -0.089584 0.2902 0.2902 0.2902
v 0.111985 -0.226188 -0.089584 0.2902 0.2902 0.2902
v 0.111985 -0.226188 0.078262 0.2902 0.2902 0.2902
v 0.176605 -0.226188 0.036301 0.2902 0.2902 0.2902
v 0.176605 -0.226188 -0.047622 0.2902 0.2902 0.2902
v -0.203392 0.215384 -0.049332 0.2902 0.2902 0.2902
v -0.201058 0.215133 0.041722 0.2902 0.2902 0.2902
v -0.130560 0.242706 0.084382 0.2902 0.2902 0.2902
v -0.131495 0.242770 -0.097273 0.2902 0.2902 0.2902
v 0.123925 0.242770 -0.097273 0.2902 0.2902 0.2902
v 0.122989 0.242706 0.084382 0.2902 0.2902 0.2902
v 0.193355 0.215133 0.041722 0.2902 0.2902 0.2902
v 0.195689 0.215384 -0.049332 0.2902 0.2902 0.2902
v -0.194203 0.292667 -0.085919 0.2902 0.2902 0.2902
v -0.201058 0.293403 0.093174 0.2902 0.2902 0.2902
v 0.193355 0.293403 0.093174 0.2902 0.2902 0.2902
v 0.186500 0.292667 -0.085919 0.2902 0.2902 0.2902
v -0.205826 0.365836 -0.054912 0.2902 0.2902 0.2902
v -0.201058 0.365325 0.048446 0.2902 0.2902 0.2902
v 0.195143 0.365055 0.045821 0.2902 0.2902 0.2902
v 0.110159 0.348403 -0.093541 0.2902 0.2902 0.2902
v -0.132933 0.345958 0.081877 0.2902 0.2902 0.2902
v -0.117730 0.348403 -0.093541 0.2902 0.2902 0.2902
v 0.126599 0.345958 0.081877 0.2902 0.2902 0.2902
v -0.039802 0.373800 -0.076062 0.2902 0.2902 0.2902
v -0.097014 0.373800 -0.030180 0.2902 0.2902 0.2902
v -0.097014 0.373800 0.034707 0.2902 0.2902 0.2902
v -0.039802 0.373800 0.080589 0.2902 0.2902 0.2902
v 0.041108 0.373800 0.080589 0.2902 0.2902 0.2902
v 0.098320 0.373800 0.034707 0.2902 0.2902 0.2902
v 0.098320 0.373800 -0.030180 0.2902 0.2902 0.2902
v 0.041108 0.373800 -0.076062 0.2902 0.2902 0.2902
v 0.207574 0.365003 -0.037189 0.2902 0.2902 0.2902
v 0.191116 0.127804 -0.056529 0.2902 0.2902 0.2902
v 0.120738 0.139864 -0.097056 0.2902 0.2902 0.2902
v -0.128308 0.139864 -0.097056 0.2902 0.2902 0.2902
v -0.198686 0.127804 -0.056529 0.2902 0.2902 0.2902
v -0.196850 0.127635 0.041116 0.2902 0.2902 0.2902
v -0.127575 0.139812 0.084486 0.2902 0.2902 0.2902
v 0.189279 0.127635 0.041116 0.2902 0.2902 0.2902
v 0.120004 0.139812 0.084486 0.2902 0.2902 0.2902
v 0.184853 -0.008449 -0.050699 0.2902 0.2902 0.2902
v -0.124463 -0.000307 -0.093339 0.2902 0.2902 0.2902
v -0.191200 -0.008563 0.036495 0.2902 0.2902 0.2902
v 0.183652 -0.008563 0.036495 0.2902 0.2902 0.2902
v 0.116435 -0.000342 0.081160 0.2902 0.2902 0.2902
v 0.116915 -0.000307 -0.093339 0.2902 0.2902 0.2902
v -0.192401 -0.008449 -0.050699 0.2902 0.2902 0.2902
v -0.123983 -0.000342 0.081160 0.2902 0.2902 0.2902
v 0.122263 0.202271 -0.097165 0.2902 0.2902 0.2902
v -0.201180 0.188748 -0.060600 0.2902 0.2902 0.2902
v -0.129000 0.202213 0.084434 0.2902 0.2902 0.2902
v 0.193610 0.188748 -0.060600 0.2902 0.2902 0.2902
v -0.129834 0.202271 -0.097165 0.2902 0.2902 0.2902
v -0.199095 0.188559 0.044612 0.2902 0.2902 0.2902
v 0.191525 0.188559 0.044612 0.2902 0.2902 0.2902
v 0.121430 0.202213 0.084434 0.2902 0.2902 0.2902
v -0.118002 -0.397126 -0.087802 0.2902 0.2902 0.2902
v -0.118002 -0.399939 0.079788 0.2902 0.2902 0.2902
v -0.173224 -0.396154 0.042890 0.2902 0.2902 0.2902
v -0.177012 -0.398959 -0.054212 0.2902 0.2902 0.2902
v 0.110454 -0.397126 -0.087802 0.2902 0.2902 0.2902
v 0.110454 -0.399939 0.079788 0.2902 0.2902 0.2902
v 0.165676 -0.396154 0.042890 0.2902 0.2902 0.2902
v 0.169464 -0.398959 -0.054212 0.2902 0.2902 0.2902
v -0.039802 0.373800 -0.076062 1.0000 0.0000 0.0000
v -0.097014 0.373800 -0.030180 1.0000 0.0000 0.0000
v -0.097014 0.373800 0.034707 1.0000 0.0000 0.0000
v -0.039802 0.373800 0.080589 1.0000 0.0000 0.0000
v 0.041108 0.373800 0.080589 1.0000 0.0000 0.0000
v 0.098320 0.373800 0.034707 1.0000 0.0000 0.0000
v 0.098320 0.373800 -0.030180 1.0000 0.0000 0.0000
v 0.041108 0.373800 -0.076062 1.0000 0.0000 0.0000
v -0.203392 0.215384 -0.049332 1.0000 0.0000 0.0000
v -0.201058 0.215133 0.041722 1.0000 0.0000 0.0000
v -0.194203 0.292667 -0.085919 1.0000 0.0000 0.0000
v -0.201058 0.293403 0.093174 1.0000 0.0000 0.0000
v -0.205826 0.365836 -0.054912 1.0000 0.0000 0.0000
v -0.201058 0.365325 0.048446 1.0000 0.0000 0.0000
v 0.193355 0.215133 0.041722 1.0000 0.0000 0.0000
v 0.195689 0.215384 -0.049332 1.0000 0.0000 0.0000
v 0.193355 0.293403 0.093174 1.0000 0.0000 0.0000
v 0.186500 0.292667 -0.085919 1.0000 0.0000 0.0000
v 0.195143 0.365055 0.045821 1.0000 0.0000 0.0000
v 0.207574 0.365003 -0.037189 1.0000 0.0000 0.0000
v -0.033731 0.368912 -0.001869 1.0000 1.0000 1.0000
v -0.033731 0.413423 -0.001869 1.0000 1.0000 1.0000
v -0.002257 0.368912 -0.033343 1.0000 1.0000 1.0000
v -0.002257 0.413423 -0.033343 1.0000 1.0000 1.0000
v -0.002257 0.368912 0.029605 1.0000 1.0000 1.0000
v -0.002257 0.413423 0.029605 1.0000 1.0000 1.0000
v 0.029217 0.368912 -0.001869 1.0000 1.0000 1.0000
v 0.029217 0.413423 -0.001869 1.0000 1.0000 1.0000
v -0.185078 0.260492 -0.001869 1.0000 1.0000 1.0000
v -0.230894 0.260492 -0.001869 1.0000 1.0000 1.0000
v -0.185078 0.292889 -0.034266 1.0000 1.0000 1.0000
v -0.230894 0.292889 -0.034266 1.0000 1.0000 1.0000
v -0.185078 0.292889 0.030528 1.0000 1.0000 1.0000
v -0.230894 0.292889 0.030528 1.0000 1.0000 1.0000
v -0.185078 0.325286 -0.001869 1.0000 1.0000 1.0000
v -0.230894 0.325286 -0.001869 1.0000 1.0000 1.0000
v 0.239702 0.260492 -0.001869 1.0000 1.0000 1.0000
v 0.193886 0.260492 -0.001869 1.0000 1.0000 1.0000
v 0.239702 0.292889 -0.034266 1.0000 1.0000 1.0000
v 0.193886 0.292889 -0.034266 1.0000 1.0000 1.0000
v 0.239702 0.292889 0.030528 1.0000 1.0000 1.0000
v 0.193886 0.292889 0.030528 1.0000 1.0000 1.0000
v 0.239702 0.325286 -0.001869 1.0000 1.0000 1.0000
v 0.193886 0.325286 -0.001869 1.0000 1.0000 1.0000
vn -0.9984 -0.0526 0.0217
vn -0.0000 -0.0104 -0.9999
vn 0.5214 -0.0012 -0.8533
vn -0.5214 -0.0012 -0.8533
vn 0.5497 -0.0002 0.8354
vn -0.5497 -0.0002 0.8354
vn 0.9984 -0.0526 0.0217
vn 0.5286 0.1105 -0.8417
vn -0.0000 -0.0027 -1.0000
vn -0.5281 0.1095 -0.8421
vn -0.5084 0.0111 0.8611
vn 0.9968 -0.0767 0.0223
vn -0.0000 0.0088 1.0000
vn -0.9964 -0.0817 0.0223
vn 0.5090 0.0120 0.8607
vn 0.4268 -0.3450 -0.8360
vn 0.1373 0.0528 -0.9891
vn -0.4261 -0.3452 -0.8362
vn -0.1371 0.0528 -0.9892
vn -0.3252 0.3247 -0.8882
vn -0.2792 -0.5275 0.8024
vn 0.2797 -0.5274 0.8023
vn -0.1445 0.0290 0.9891
vn 0.1430 0.0273 0.9893
vn -0.2576 0.5103 0.8205
vn 0.2771 0.5249 0.8048
vn -0.0000 0.0353 -0.9994
vn -0.0000 0.5669 -0.8238
vn -0.2359 0.9262 -0.2941
vn 0.0179 0.9260 -0.3770
vn -0.0730 0.9973 -0.0000
vn -0.0801 0.9968 0.0086
vn -0.0034 0.8623 0.5064
vn -0.2660 0.9051 0.3317
vn -0.0000 -0.0128 0.9999
vn 0.2847 0.8905 0.3550
vn 0.0210 0.8664 0.4988
vn 0.0516 0.9303 -0.3632
vn 0.0885 0.9960 0.0126
vn 0.2552 0.9130 -0.3183
vn 0.0803 0.9968 -0.0000
vn 0.3957 0.4310 -0.8110
vn 0.5371 -0.0421 0.8425
vn -0.9989 -0.0437 0.0163
vn -0.0000 0.0013 1.0000
vn 0.9989 -0.0435 0.0164
vn -0.5371 -0.0422 0.8425
vn -0.5095 -0.0483 -0.8591
vn -0.0000 -0.0265 -0.9996
vn 0.5095 -0.0483 -0.8591
vn 0.5365 -0.0289 -0.8434
vn -0.0000 -0.0166 -0.9999
vn -0.5365 -0.0289 -0.8434
vn -0.5482 -0.0200 0.8361
vn 0.9994 -0.0351 0.0070
vn -0.9994 -0.0351 0.0070
vn 0.5482 -0.0200 0.8361
vn -0.0000 0.0462 0.9989
vn -0.0000 -0.0237 0.9997
vn -0.0000 0.0243 0.9997
vn 0.5068 -0.0391 0.8612
vn -0.9991 -0.0388 0.0192
vn -0.0000 0.0008 1.0000
vn 0.9991 -0.0388 0.0192
vn -0.5068 -0.0391 0.8612
vn -0.4710 -0.0452 -0.8810
vn -0.0000 -0.0017 -1.0000
vn 0.4710 -0.0452 -0.8810
vn -0.0000 -0.9999 -0.0120
vn -0.0000 1.0000 -0.0000
vn -0.9999 -0.0092 -0.0121
vn 0.9991 -0.0432 0.0014
vn -0.7071 -0.0000 -0.7071
vn 0.7071 -0.0000 -0.7071
vn 0.7071 -0.0000 0.7071
vn -0.7071 -0.0000 0.7071
vn -0.0000 -0.7071 -0.7071
vn -0.0000 0.7071 -0.7071
vn -0.0000 0.7071 0.7071
vn -0.0000 -0.7071 0.7071
vn 1.0000 -0.0000 -0.0000
vn -1.0000 -0.0000 -0.0000
s 0
f 4//1 3//1 10//1 9//1
f 1//2 12//2 13//2 5//2
f 8//3 5//3 13//3 16//3
f 1//4 4//4 9//4 12//4
f 6//5 7//5 15//5 14//5
f 3//6 2//6 11//6 10//6
f 7//7 8//7 16//7 15//7
f 64//8 61//8 21//8 24//8
f 65//9 20//9 21//9 61//9
f 65//10 62//10 17//10 20//10
f 66//11 63//11 19//11 18//11
f 67//12 64//12 24//12 23//12
f 14//13 11//13 2//13 6//13
f 62//14 66//14 18//14 17//14
f 68//15 67//15 23//15 22//15
f 24//16 21//16 28//16
f 28//17 21//17 32//17
f 17//18 25//18 20//18
f 34//19 20//19 25//19
f 25//20 29//20 34//20
f 19//21 26//21 18//21
f 23//22 27//22 22//22
f 35//23 22//23 27//23
f 19//24 33//24 26//24
f 26//25 33//25 30//25
f 27//26 31//26 35//26
f 20//27 34//27 32//27 21//27
f 32//28 34//28 36//28 43//28
f 36//29 34//29 37//29
f 34//30 29//30 37//30
f 37//31 29//31 38//31
f 29//32 30//32 38//32
f 33//33 38//33 30//33
f 38//34 33//34 39//34
f 57//35 60//35 11//35 14//35
f 40//36 35//36 41//36
f 35//37 31//37 41//37
f 32//38 42//38 44//38
f 44//39 41//39 31//39
f 43//40 42//40 32//40
f 44//41 42//41 41//41
f 28//42 32//42 44//42
f 57//43 56//43 51//43 52//43
f 59//44 55//44 49//44 48//44
f 63//45 68//45 22//45 19//45
f 56//46 53//46 45//46 51//46
f 55//47 60//47 50//47 49//47
f 54//48 59//48 48//48 47//48
f 54//49 47//49 46//49 58//49
f 53//50 58//50 46//50 45//50
f 16//51 13//51 58//51 53//51
f 12//52 54//52 58//52 13//52
f 12//53 9//53 59//53 54//53
f 10//54 11//54 60//54 55//54
f 15//55 16//55 53//55 56//55
f 9//56 10//56 55//56 59//56
f 14//57 15//57 56//57 57//57
f 39//58 33//58 35//58 40//58
f 60//59 57//59 52//59 50//59
f 35//60 33//60 19//60 22//60
f 52//61 51//61 67//61 68//61
f 48//62 49//62 66//62 62//62
f 68//63 63//63 50//63 52//63
f 51//64 45//64 64//64 67//64
f 49//65 50//65 63//65 66//65
f 47//66 48//66 62//66 65//66
f 47//67 65//67 61//67 46//67
f 45//68 46//68 61//68 64//68
f 70//69 71//69 72//69 69//69 73//69 76//69 75//69 74//69
f 77//70 78//70 79//70 80//70 81//70 82//70 83//70 84//70
f 85//71 86//71 88//71 90//71 89//71 87//71
f 91//72 92//72 94//72 96//72 95//72 93//72
f 97//73 98//73 100//73 99//73
f 99//74 100//74 104//74 103//74
f 103//75 104//75 102//75 101//75
f 101//76 102//76 98//76 97//76
f 104//70 100//70 98//70 102//70
f 105//77 106//77 108//77 107//77
f 107//78 108//78 112//78 111//78
f 111//79 112//79 110//79 109//79
f 109//80 110//80 106//80 105//80
f 107//81 111//81 109//81 105//81
f 112//82 108//82 106//82 110//82
f 113//77 114//77 116//77 115//77
f 115//78 116//78 120//78 119//78
f 119//79 120//79 118//79 117//79
f 117//80 118//80 114//80 113//80
f 115//81 119//81 117//81 113//81
f 120//82 116//82 114//82 118//82
