# Blender 4.0.2
# www.blender.org
o runner_body.002
v 0.180789 -0.069922 -0.043672 0.2902 0.2902 0.2902
v 0.183123 -0.070173 0.047383 0.2902 0.2902 0.2902
v 0.189978 0.007362 -0.080258 0.2902 0.2902 0.2902
v 0.183123 0.008098 0.098835 0.2902 0.2902 0.2902
v 0.178355 0.080531 -0.049251 0.2902 0.2902 0.2902
v 0.183123 0.080020 0.054107 0.2902 0.2902 0.2902
v -0.177662 -0.041907 -0.022789 0.2902 0.2902 0.2902
v -0.176860 -0.042009 0.027359 0.2902 0.2902 0.2902
v -0.177662 0.006684 -0.050091 0.2902 0.2902 0.2902
v -0.176860 0.006670 0.054371 0.2902 0.2902 0.2902
v -0.177662 0.055269 -0.015683 0.2902 0.2902 0.2902
v -0.176860 0.055343 0.028586 0.2902 0.2902 0.2902
v -0.177662 -0.041907 -0.022789 1.0000 0.0000 0.0000
v -0.176860 -0.042009 0.027359 1.0000 0.0000 0.0000
v -0.177662 0.006684 -0.050091 1.0000 0.0000 0.0000
v 0.037494 0.061959 -0.022331 0.2902 0.2902 0.2902
v 0.044409 0.006988 -0.052207 0.2902 0.2902 0.2902
v 0.053225 -0.047290 0.038836 0.2902 0.2902 0.2902
v 0.053225 0.061950 0.045927 0.2902 0.2902 0.2902
v 0.053225 0.007334 0.074861 0.2902 0.2902 0.2902
v 0.038942 -0.046974 -0.025847 0.2902 0.2902 0.2902
v 0.180789 -0.069922 -0.043672 1.0000 0.0000 0.0000
v 0.183123 -0.070173 0.047383 1.0000 0.0000 0.0000
v 0.189978 0.007362 -0.080258 1.0000 0.0000 0.0000
v 0.183123 0.008098 0.098835 1.0000 0.0000 0.0000
v 0.178355 0.080531 -0.049251 1.0000 0.0000 0.0000
v 0.183123 0.080020 0.054107 1.0000 0.0000 0.0000
v -0.176860 0.006670 0.054371 1.0000 0.0000 0.0000
v -0.177662 0.055269 -0.015683 1.0000 0.0000 0.0000
v -0.176860 0.055343 0.028586 1.0000 0.0000 0.0000
v 0.177496 0.005298 0.038650 1.0000 1.0000 1.0000
v 0.177496 0.037122 0.006825 1.0000 1.0000 1.0000
v 0.177496 -0.026527 0.006825 1.0000 1.0000 1.0000
v 0.177496 0.005298 -0.025000 1.0000 1.0000 1.0000
v 0.222503 0.005298 0.038650 1.0000 1.0000 1.0000
v 0.222503 0.037122 0.006825 1.0000 1.0000 1.0000
v 0.222503 -0.026527 0.006825 1.0000 1.0000 1.0000
v 0.222503 0.005298 -0.025000 1.0000 1.0000 1.0000
v -0.208785 0.005298 0.027499 1.0000 1.0000 1.0000
v -0.208785 0.025972 0.006825 1.0000 1.0000 1.0000
v -0.208785 -0.015376 0.006825 1.0000 1.0000 1.0000
v -0.208785 0.005298 -0.013849 1.0000 1.0000 1.0000
v -0.170608 0.005298 0.027499 1.0000 1.0000 1.0000
v -0.170608 0.025972 0.006825 1.0000 1.0000 1.0000
v -0.170608 -0.015376 0.006825 1.0000 1.0000 1.0000
v -0.170608 0.005298 -0.013849 1.0000 1.0000 1.0000
vn -0.0255 0.5260 -0.8501
vn -0.0798 0.4666 0.8808
vn -0.0299 0.9995 0.0038
vn -0.0231 -0.9997 -0.0006
vn -0.0644 -0.5198 0.8519
vn -0.0155 -0.4629 -0.8863
vn -0.9999 -0.0005 0.0106
vn -0.1751 -0.4098 -0.8952
vn -0.1497 -0.5436 0.8259
vn -0.1658 -0.9861 0.0141
vn -0.1328 0.9910 0.0189
vn -0.1420 0.4980 0.8555
vn -0.1982 0.3971 -0.8961
vn 0.9999 0.0092 0.0121
vn -1.0000 -0.0000 -0.0000
vn -0.0000 -0.7071 -0.7071
vn 1.0000 -0.0000 -0.0000
vn -0.0000 0.7071 0.7071
vn -0.0000 -0.7071 0.7071
vn -0.0000 0.7071 -0.7071
s 0
f 16//1 17//1 9//1 11//1
f 20//2 19//2 12//2 10//2
f 19//3 16//3 11//3 12//3
f 21//4 18//4 8//4 7//4
f 18//5 20//5 10//5 8//5
f 17//6 21//6 7//6 9//6
f 28//7 30//7 29//7 15//7 13//7 14//7
f 3//8 1//8 21//8 17//8
f 2//9 4//9 20//9 18//9
f 1//10 2//10 18//10 21//10
f 6//11 5//11 16//11 19//11
f 4//12 6//12 19//12 20//12
f 5//13 3//13 17//13 16//13
f 25//14 23//14 22//14 24//14 26//14 27//14
f 31//15 32//15 34//15 33//15
f 33//16 34//16 38//16 37//16
f 37//17 38//17 36//17 35//17
f 35//18 36//18 32//18 31//18
f 33//19 37//19 35//19 31//19
f 38//20 34//20 32//20 36//20
f 39//15 40//15 42//15 41//15
f 41//16 42//16 46//16 45//16
f 45//17 46//17 44//17 43//17
f 43//18 44//18 40//18 39//18
f 41//19 45//19 43//19 39//19
f 46//20 42//20 40//20 44//20
