# Blender 4.1.1
# www.blender.org
o room
v -2.000000 0.000000 7.000000 0.8235 0.8235 0.8235
v 2.000000 0.000000 3.000000 0.8235 0.8235 0.8235
v -2.000000 0.000000 -5.000000 0.8235 0.8235 0.8235
v 2.000000 0.000000 -5.000000 0.8235 0.8235 0.8235
v -2.000000 0.000000 -25.000000 0.8235 0.8235 0.8235
v 2.000000 0.000000 -25.000000 0.8235 0.8235 0.8235
v -10.000000 0.000000 -5.000000 0.8235 0.8235 0.8235
v -10.000000 0.000000 -25.000000 0.8235 0.8235 0.8235
v 10.000000 0.000000 -5.000000 0.8235 0.8235 0.8235
v 10.000000 0.000000 -25.000000 0.8235 0.8235 0.8235
v 2.000000 0.000000 -37.000000 0.8235 0.8235 0.8235
v -2.000000 0.000000 -33.000000 0.8235 0.8235 0.8235
v 12.000000 0.000000 3.000000 0.8235 0.8235 0.8235
v 12.000000 0.000000 7.000000 0.8235 0.8235 0.8235
v -12.000000 0.000000 -33.000000 0.8235 0.8235 0.8235
v -12.000000 0.000000 -37.000000 0.8235 0.8235 0.8235
v -16.000000 0.000000 -33.000000 0.0000 0.0000 0.0000
v -16.000000 0.000000 -37.000000 0.0000 0.0000 0.0000
v 16.000000 0.000000 3.000000 0.0000 0.0000 0.0000
v 16.000000 0.000000 7.000000 0.0000 0.0000 0.0000
v -2.000000 4.000000 7.000000 0.8235 0.8235 0.8235
v 2.000000 4.000000 3.000000 0.8235 0.8235 0.8235
v -2.000000 4.000000 -5.000000 0.8235 0.8235 0.8235
v 2.000000 4.000000 -5.000000 0.8235 0.8235 0.8235
v -2.000000 4.000000 -25.000000 0.8235 0.8235 0.8235
v 2.000000 4.000000 -25.000000 0.8235 0.8235 0.8235
v 2.000000 4.000000 -37.000000 0.8235 0.8235 0.8235
v -2.000000 4.000000 -33.000000 0.8235 0.8235 0.8235
v 12.000000 4.000000 3.000000 0.8235 0.8235 0.8235
v 12.000000 4.000000 7.000000 0.8235 0.8235 0.8235
v -12.000000 4.000000 -33.000000 0.8235 0.8235 0.8235
v -12.000000 4.000000 -37.000000 0.8235 0.8235 0.8235
v -16.000000 4.000000 -33.000000 0.0000 0.0000 0.0000
v -16.000000 4.000000 -37.000000 0.0000 0.0000 0.0000
v 16.000000 4.000000 3.000000 0.0000 0.0000 0.0000
v 16.000000 4.000000 7.000000 0.0000 0.0000 0.0000
v -6.000000 0.000000 -21.000000 0.8235 0.8235 0.8235
v -6.000000 0.000000 -9.000000 0.8235 0.8235 0.8235
v -9.999956 6.970490 -5.000000 0.8235 0.8235 0.8235
v -9.999956 6.970490 -25.000000 0.8235 0.8235 0.8235
v 9.999956 7.029510 -25.000000 0.8235 0.8235 0.8235
v 9.999956 7.029510 -5.000000 0.8235 0.8235 0.8235
v 1.999991 7.005902 -5.000000 0.8235 0.8235 0.8235
v -1.999991 6.994098 -5.000000 0.8235 0.8235 0.8235
v -1.999991 6.994098 -25.000000 0.8235 0.8235 0.8235
v 1.999991 7.005902 -25.000000 0.8235 0.8235 0.8235
v 6.000000 0.000000 -9.000000 0.8235 0.8235 0.8235
v 6.000000 0.000000 -21.000000 0.8235 0.8235 0.8235
v -6.000000 -11.000000 -21.000000 0.8235 0.8235 0.8235
v -6.000000 -11.000000 -9.000000 0.8235 0.8235 0.8235
v 6.000000 -11.000000 -9.000000 0.8235 0.8235 0.8235
v 6.000000 -11.000000 -21.000000 0.8235 0.8235 0.8235
v -2.000000 0.000000 7.000000 0.6197 0.6197 0.6197
v 2.000000 0.000000 3.000000 0.6197 0.6197 0.6197
v -2.000000 0.000000 -5.000000 0.6197 0.6197 0.6197
v 2.000000 0.000000 -5.000000 0.6197 0.6197 0.6197
v -2.000000 0.000000 -25.000000 0.6197 0.6197 0.6197
v 2.000000 0.000000 -25.000000 0.6197 0.6197 0.6197
v -10.000000 0.000000 -5.000000 0.6197 0.6197 0.6197
v -10.000000 0.000000 -25.000000 0.6197 0.6197 0.6197
v 10.000000 0.000000 -5.000000 0.6197 0.6197 0.6197
v 10.000000 0.000000 -25.000000 0.6197 0.6197 0.6197
v 2.000000 0.000000 -37.000000 0.6197 0.6197 0.6197
v -2.000000 0.000000 -33.000000 0.6197 0.6197 0.6197
v 12.000000 0.000000 3.000000 0.6197 0.6197 0.6197
v 12.000000 0.000000 7.000000 0.6197 0.6197 0.6197
v -12.000000 0.000000 -33.000000 0.6197 0.6197 0.6197
v -12.000000 0.000000 -37.000000 0.6197 0.6197 0.6197
v -16.000000 0.000000 -33.000000 0.0000 0.0000 0.0000
v -16.000000 0.000000 -37.000000 0.0000 0.0000 0.0000
v 16.000000 0.000000 3.000000 0.0000 0.0000 0.0000
v 16.000000 0.000000 7.000000 0.0000 0.0000 0.0000
v -6.000000 0.000000 -21.000000 0.6197 0.6197 0.6197
v -6.000000 0.000000 -9.000000 0.6197 0.6197 0.6197
v 6.000000 0.000000 -9.000000 0.6197 0.6197 0.6197
v 6.000000 0.000000 -21.000000 0.6197 0.6197 0.6197
v -6.000000 -11.000000 -21.000000 0.6197 0.6197 0.6197
v -6.000000 -11.000000 -9.000000 0.6197 0.6197 0.6197
v 6.000000 -11.000000 -9.000000 0.6197 0.6197 0.6197
v 6.000000 -11.000000 -21.000000 0.6197 0.6197 0.6197
v -2.000000 4.000000 7.000000 0.6197 0.6197 0.6197
v 2.000000 4.000000 3.000000 0.6197 0.6197 0.6197
v -2.000000 4.000000 -5.000000 0.6197 0.6197 0.6197
v 2.000000 4.000000 -5.000000 0.6197 0.6197 0.6197
v -2.000000 4.000000 -25.000000 0.6197 0.6197 0.6197
v 2.000000 4.000000 -25.000000 0.6197 0.6197 0.6197
v 2.000000 4.000000 -37.000000 0.6197 0.6197 0.6197
v -2.000000 4.000000 -33.000000 0.6197 0.6197 0.6197
v 12.000000 4.000000 3.000000 0.6197 0.6197 0.6197
v 12.000000 4.000000 7.000000 0.6197 0.6197 0.6197
v -12.000000 4.000000 -33.000000 0.6197 0.6197 0.6197
v -12.000000 4.000000 -37.000000 0.6197 0.6197 0.6197
v -16.000000 4.000000 -33.000000 0.0000 0.0000 0.0000
v -16.000000 4.000000 -37.000000 0.0000 0.0000 0.0000
v 16.000000 4.000000 3.000000 0.0000 0.0000 0.0000
v 16.000000 4.000000 7.000000 0.0000 0.0000 0.0000
v -9.999956 6.970490 -5.000000 0.6197 0.6197 0.6197
v -9.999956 6.970490 -25.000000 0.6197 0.6197 0.6197
v 9.999956 7.029510 -25.000000 0.6197 0.6197 0.6197
v 9.999956 7.029510 -5.000000 0.6197 0.6197 0.6197
vn -0.0000 -0.0000 -1.0000
vn 1.0000 -0.0000 -0.0000
vn -1.0000 -0.0000 -0.0000
vn -0.0000 -0.0000 1.0000
vn -0.0000 1.0000 -0.0000
vn -0.0000 -1.0000 -0.0000
vn 0.0030 -1.0000 -0.0000
s 0
f 14//1 1//1 21//1 30//1
f 5//2 12//2 28//2 25//2
f 19//3 20//3 36//3 35//3
f 16//4 11//4 27//4 32//4
f 1//2 3//2 23//2 21//2
f 20//1 14//1 30//1 36//1
f 12//1 15//1 31//1 28//1
f 11//3 6//3 26//3 27//3
f 13//4 19//4 35//4 29//4
f 17//2 18//2 34//2 33//2
f 4//3 2//3 22//3 24//3
f 2//4 13//4 29//4 22//4
f 18//4 16//4 32//4 34//4
f 15//1 17//1 33//1 31//1
f 25//4 26//4 46//4 45//4
f 42//3 41//3 10//3 9//3
f 43//1 42//1 9//1 4//1
f 24//1 23//1 44//1 43//1
f 3//1 7//1 39//1 44//1
f 8//4 5//4 45//4 40//4
f 10//4 41//4 46//4 6//4
f 8//2 40//2 39//2 7//2
f 38//1 47//1 51//1 50//1
f 47//3 48//3 52//3 51//3
f 48//4 37//4 49//4 52//4
f 37//2 38//2 50//2 49//2
f 53//5 54//5 56//5 55//5
f 76//5 75//5 61//5 62//5
f 73//5 76//5 62//5 60//5
f 74//5 73//5 60//5 59//5
f 57//5 58//5 63//5 64//5
f 54//5 53//5 66//5 65//5
f 64//5 63//5 68//5 67//5
f 67//5 68//5 70//5 69//5
f 65//5 66//5 72//5 71//5
f 75//5 74//5 59//5 61//5
f 79//5 80//5 77//5 78//5
f 93//6 94//6 92//6 91//6
f 87//6 88//6 91//6 92//6
f 88//6 87//6 86//6 85//6
f 83//6 84//6 82//6 81//6
f 81//6 82//6 89//6 90//6
f 95//6 96//6 90//6 89//6
f 97//7 98//7 99//7 100//7
