# Blender 4.1.1
# www.blender.org
o runner_body.002
v -0.047123 0.029192 0.110079 0.4000 0.0118 0.0039
v -0.027395 -0.051658 -0.124171 0.0000 0.0000 0.0000
v -0.027395 -0.014096 -0.130713 0.0000 0.0000 0.0000
v -0.027395 -0.051658 -0.153160 0.0000 0.0000 0.0000
v -0.027395 -0.014096 -0.153160 0.0000 0.0000 0.0000
v 0.028649 -0.051658 -0.124171 0.0000 0.0000 0.0000
v 0.028649 -0.014096 -0.130713 0.0000 0.0000 0.0000
v 0.028649 -0.051658 -0.153160 0.0000 0.0000 0.0000
v 0.028649 -0.014096 -0.153160 0.0000 0.0000 0.0000
v -0.073665 -0.060803 -0.146102 0.0000 0.0000 0.0000
v -0.073665 -0.060803 -0.123446 0.0000 0.0000 0.0000
v -0.073665 -0.037339 -0.129988 0.0000 0.0000 0.0000
v -0.073665 -0.037339 -0.146102 0.0000 0.0000 0.0000
v 0.074919 -0.037339 -0.146102 0.0000 0.0000 0.0000
v 0.074919 -0.060803 -0.146102 0.0000 0.0000 0.0000
v 0.074919 -0.060803 -0.123446 0.0000 0.0000 0.0000
v 0.074919 -0.037339 -0.129988 0.0000 0.0000 0.0000
v -0.126673 -0.020016 -0.131262 0.0000 0.0000 0.0000
v 0.127927 -0.020016 -0.131262 0.0000 0.0000 0.0000
v 0.034333 0.022770 -0.142582 1.0000 0.0000 0.0000
v 0.079887 0.022770 -0.142582 1.0000 0.0000 0.0000
v 0.034333 0.068017 -0.128248 1.0000 0.0000 0.0000
v 0.079887 0.068017 -0.128248 1.0000 0.0000 0.0000
v 0.065293 0.085925 -0.122574 1.0000 0.0000 0.0000
v 0.057110 0.006537 -0.147725 1.0000 0.0000 0.0000
v -0.033122 0.022770 -0.142582 1.0000 0.0000 0.0000
v -0.078676 0.022770 -0.142582 1.0000 0.0000 0.0000
v -0.033122 0.068017 -0.128248 1.0000 0.0000 0.0000
v -0.078676 0.068017 -0.128248 1.0000 0.0000 0.0000
v -0.065860 0.085925 -0.122574 1.0000 0.0000 0.0000
v -0.055899 0.006537 -0.147725 1.0000 0.0000 0.0000
v -0.083025 -0.199679 -0.026406 0.0118 0.4980 0.0118
v 0.084278 -0.199680 0.039606 0.0118 0.4980 0.0118
v -0.055302 -0.099340 -0.115843 0.0118 0.4980 0.0118
v -0.134398 -0.099340 -0.044252 0.0118 0.4980 0.0118
v -0.134398 -0.099340 0.056994 0.0118 0.4980 0.0118
v -0.055302 -0.099340 0.128585 0.0118 0.4980 0.0118
v 0.056556 -0.099340 0.128585 0.0118 0.4980 0.0118
v 0.135651 -0.099339 0.056994 0.0118 0.4980 0.0118
v 0.135651 -0.099340 -0.044252 0.0118 0.4980 0.0118
v 0.056556 -0.099340 -0.115843 0.0118 0.4980 0.0118
v -0.064370 0.028952 -0.135657 0.0118 0.4980 0.0118
v -0.064370 0.028952 0.148398 0.0118 0.4980 0.0118
v 0.065623 0.028952 0.148398 0.0118 0.4980 0.0118
v 0.157542 0.028952 0.065201 0.0118 0.4980 0.0118
v 0.157542 0.028952 -0.052459 0.0118 0.4980 0.0118
v 0.065623 0.028952 -0.135657 0.0118 0.4980 0.0118
v -0.041533 0.181773 -0.085754 0.0118 0.4980 0.0118
v -0.041533 0.181773 0.098496 0.0118 0.4980 0.0118
v 0.042786 0.181773 0.098496 0.0118 0.4980 0.0118
v 0.102409 0.181773 0.044530 0.0118 0.4980 0.0118
v 0.102409 0.181773 -0.031789 0.0118 0.4980 0.0118
v 0.042786 0.181773 -0.085754 0.0118 0.4980 0.0118
v 0.000627 0.235692 0.006371 0.0118 0.4980 0.0118
v -0.156288 0.028951 -0.052459 0.0118 0.4980 0.0118
v -0.156288 0.028952 0.065201 0.0118 0.4980 0.0118
v -0.101155 0.181773 -0.031789 0.0118 0.4980 0.0118
v -0.034023 -0.199680 -0.073083 0.0118 0.4980 0.0118
v -0.083025 -0.199680 0.039606 0.0118 0.4980 0.0118
v -0.034023 -0.199680 0.086284 0.0118 0.4980 0.0118
v 0.035276 -0.199680 0.086284 0.0118 0.4980 0.0118
v 0.084278 -0.199680 -0.026406 0.0118 0.4980 0.0118
v 0.035276 -0.199680 -0.073083 0.0118 0.4980 0.0118
v -0.083025 -0.199679 -0.026406 0.0118 0.4980 0.0118
v 0.084278 -0.199680 0.039606 0.0118 0.4980 0.0118
v -0.034023 -0.199680 -0.073083 0.0118 0.4980 0.0118
v -0.083025 -0.199680 0.039606 0.0118 0.4980 0.0118
v -0.034023 -0.199680 0.086284 0.0118 0.4980 0.0118
v 0.035276 -0.199680 0.086284 0.0118 0.4980 0.0118
v 0.084278 -0.199680 -0.026406 0.0118 0.4980 0.0118
v 0.035276 -0.199680 -0.073083 0.0118 0.4980 0.0118
v -0.025668 -0.231779 0.000000 1.0000 1.0000 1.0000
v -0.025668 -0.196155 0.000000 1.0000 1.0000 1.0000
v 0.000000 -0.231779 -0.025668 1.0000 1.0000 1.0000
v 0.000000 -0.196155 -0.025668 1.0000 1.0000 1.0000
v 0.000000 -0.231779 0.025668 1.0000 1.0000 1.0000
v 0.000000 -0.196155 0.025668 1.0000 1.0000 1.0000
v 0.025668 -0.231779 0.000000 1.0000 1.0000 1.0000
v 0.025668 -0.196155 0.000000 1.0000 1.0000 1.0000
v -0.068672 0.147018 0.032213 1.0000 0.4628 0.9411
v -0.047123 0.029192 0.110079 1.0000 0.4628 0.9411
v -0.029558 0.139852 0.072963 1.0000 0.4628 0.9411
v 0.000627 0.179312 0.006371 1.0000 0.4628 0.9411
v -0.114543 0.029344 -0.036392 1.0000 0.4628 0.9411
v -0.111977 0.028308 0.048723 1.0000 0.4628 0.9411
v -0.072356 0.139700 -0.021407 1.0000 0.4628 0.9411
v -0.029558 0.139852 0.072963 0.4000 0.0118 0.0039
v 0.000627 0.179312 0.006371 0.4000 0.0118 0.0039
v -0.064370 0.028952 0.148398 0.4000 0.0118 0.0039
v -0.041533 0.181773 0.098496 0.4000 0.0118 0.0039
v 0.000627 0.235692 0.006371 0.4000 0.0118 0.0039
v -0.156288 0.028951 -0.052459 0.4000 0.0118 0.0039
v -0.156288 0.028952 0.065201 0.4000 0.0118 0.0039
v -0.101155 0.181773 -0.031789 0.4000 0.0118 0.0039
v -0.114543 0.029344 -0.036392 0.4000 0.0118 0.0039
v -0.111977 0.028308 0.048723 0.4000 0.0118 0.0039
v -0.072356 0.139700 -0.021407 0.4000 0.0118 0.0039
vn -0.0000 0.3020 -0.9533
vn 0.1508 -0.0000 -0.9886
vn -0.0000 0.1716 0.9852
vn 0.6349 0.3239 -0.7014
vn -0.9084 0.0015 -0.4180
vn -0.9097 -0.0011 -0.4152
vn -0.9089 0.0016 -0.4170
vn 0.0004 1.0000 -0.0064
vn 0.0006 1.0000 -0.0067
vn 0.0026 1.0000 0.0049
vn 0.1939 -0.9810 -0.0000
vn 0.2696 -0.0000 -0.9630
vn -0.3106 0.9505 -0.0000
vn -0.1508 -0.0000 -0.9886
vn -0.1939 -0.9810 -0.0000
vn -0.4489 0.8936 -0.0000
vn 0.3106 0.9505 -0.0000
vn -0.6098 -0.7925 -0.0000
vn -0.0645 0.2680 0.9613
vn 0.6098 -0.7925 -0.0000
vn -0.2696 -0.0000 -0.9630
vn 0.0645 0.2680 0.9613
vn -0.0000 1.0000 -0.0000
vn -0.0000 -0.1526 0.9883
vn -0.6624 -0.1599 -0.7319
vn 0.9407 0.3394 -0.0000
vn -0.9858 -0.1682 -0.0000
vn -0.0000 -0.0000 -1.0000
vn -0.0000 -1.0000 -0.0000
vn 0.6153 -0.4210 0.6664
vn -0.0000 -0.3920 -0.9199
vn -0.0000 -0.3885 0.9215
vn -0.6153 -0.4210 0.6665
vn -0.8901 -0.4557 -0.0000
vn 0.6624 -0.1598 0.7319
vn 0.9858 -0.1682 -0.0000
vn 0.4489 0.8936 -0.0000
vn -0.0000 -0.1526 -0.9883
vn 0.6624 -0.1599 -0.7319
vn -0.0000 0.3104 0.9506
vn -0.6349 0.3239 -0.7014
vn -0.3484 0.0024 0.9374
vn -0.3498 0.0024 0.9368
vn -0.3525 -0.0019 0.9358
vn 0.3271 0.8732 -0.3614
vn 0.3271 0.8732 0.3614
vn -0.3271 0.8732 -0.3614
vn -0.0000 0.8630 -0.5051
vn 0.4681 0.8837 -0.0000
vn -0.0000 0.8630 0.5051
vn -0.0580 0.2093 0.9761
vn 0.0029 1.0000 0.0051
vn 0.6349 0.3239 0.7014
vn 0.0580 0.2093 0.9761
vn 0.6145 -0.4235 -0.6656
vn 0.8901 -0.4557 -0.0000
vn -0.6145 -0.4235 -0.6656
vn -0.6624 -0.1598 0.7319
vn -0.0000 0.3104 -0.9506
vn -0.7071 -0.0000 -0.7071
vn 0.7071 -0.0000 -0.7071
vn 0.7071 -0.0000 0.7071
vn -0.7071 -0.0000 0.7071
vn -0.2589 0.8779 0.4029
vn -0.4482 0.8893 -0.0906
vn -0.9365 0.3497 0.0264
vn -0.6506 0.3323 0.6829
vn -0.3511 -0.0040 0.9363
vn -0.9093 -0.0027 -0.4161
s 0
f 26//1 27//1 29//1 28//1
f 8//2 9//2 14//2 15//2
f 20//1 22//1 23//1 21//1
f 6//3 7//3 3//3 2//3
f 46//4 47//4 53//4 52//4
s 1
f 90//5 87//6 1//7 89//7
f 93//8 89//9 1//9 96//10
s 0
f 4//11 2//11 11//11 10//11
f 15//12 14//12 19//12
f 14//13 17//13 19//13
f 5//14 4//14 10//14 13//14
f 6//15 8//15 15//15 16//15
f 3//16 5//16 13//16 12//16
f 12//17 13//17 18//17
f 10//18 11//18 18//18
f 17//19 16//19 19//19
f 16//20 15//20 19//20
f 13//21 10//21 18//21
f 11//22 12//22 18//22
f 9//23 5//23 3//23 7//23
f 22//1 24//1 23//1
f 20//1 21//1 25//1
f 28//1 29//1 30//1
f 26//1 31//1 27//1
f 37//24 38//24 44//24 43//24
f 34//25 35//25 55//25 42//25
f 45//26 46//26 52//26 51//26
f 35//27 36//27 56//27 55//27
f 4//28 5//28 9//28 8//28
f 4//29 8//29 6//29 2//29
s 1
f 61//30 33//30 39//30 38//30
s 0
f 63//31 58//31 34//31 41//31
f 60//32 61//32 38//32 37//32
s 1
f 59//33 60//33 37//33 36//33
s 0
f 32//34 59//34 36//34 35//34
s 1
f 38//35 39//35 45//35 44//35
s 0
f 39//36 40//36 46//36 45//36
f 9//37 7//37 17//37 14//37
f 41//38 34//38 42//38 47//38
f 40//39 41//39 47//39 46//39
f 43//40 44//40 50//40 49//40
f 42//41 55//41 57//41 48//41
s 1
f 94//42 92//43 95//43 97//44
s 0
f 52//45 53//45 54//45
f 50//46 51//46 54//46
f 48//47 57//47 54//47
f 53//48 48//48 54//48
f 51//49 52//49 54//49
f 49//50 50//50 54//50
s 1
f 2//51 3//51 12//51 11//51
f 92//52 93//8 96//10 95//52
s 0
f 44//53 45//53 51//53 50//53
s 1
f 7//54 6//54 16//54 17//54
f 62//55 63//55 41//55 40//55
s 0
f 33//56 62//56 40//56 39//56
s 1
f 58//57 32//57 35//57 34//57
s 0
f 36//58 37//58 43//58 56//58
f 47//59 42//59 48//59 53//59
f 65//29 69//29 68//29 67//29 64//29 66//29 71//29 70//29
f 72//60 73//60 75//60 74//60
f 74//61 75//61 79//61 78//61
f 78//62 79//62 77//62 76//62
f 76//63 77//63 73//63 72//63
f 74//29 78//29 76//29 72//29
f 83//64 80//64 82//64
f 86//65 80//65 83//65
s 1
f 86//66 84//66 85//66 80//66
s 0
f 85//67 81//67 82//67 80//67
s 1
f 94//42 97//44 88//68 91//68
f 91//69 88//69 87//6 90//5
