# Blender 4.1.1
# www.blender.org
o runner_body.001
v -0.176430 -0.419136 -0.100850 0.0039 0.3490 0.6980
v -0.176430 -0.422280 0.112679 0.0039 0.3490 0.6980
v -0.246789 -0.418050 0.065667 0.0039 0.3490 0.6980
v 0.174647 -0.422280 0.112679 0.0039 0.3490 0.6980
v 0.245006 -0.418050 0.065667 0.0039 0.3490 0.6980
v -0.251572 0.369959 0.066141 0.0039 0.3490 0.6980
v -0.083245 0.379271 -0.026406 0.0039 0.3490 0.6980
v 0.084059 0.379271 0.039606 0.0039 0.3490 0.6980
v -0.251616 -0.421185 -0.058052 0.0039 0.3490 0.6980
v 0.174647 -0.419136 -0.100850 0.0039 0.3490 0.6980
v 0.249833 -0.421185 -0.058052 0.0039 0.3490 0.6980
v -0.253543 -0.228092 -0.049656 0.0039 0.3490 0.6980
v -0.253543 -0.228092 0.057271 0.0039 0.3490 0.6980
v -0.173780 -0.228092 0.110735 0.0039 0.3490 0.6980
v -0.173780 -0.228092 -0.103119 0.0039 0.3490 0.6980
v 0.171997 -0.228092 -0.103119 0.0039 0.3490 0.6980
v 0.171997 -0.228092 0.110735 0.0039 0.3490 0.6980
v 0.251760 -0.228092 0.057271 0.0039 0.3490 0.6980
v 0.251760 -0.228092 -0.049656 0.0039 0.3490 0.6980
v -0.254184 0.208804 -0.082208 0.0039 0.3490 0.6980
v -0.251572 0.208535 0.084019 0.0039 0.3490 0.6980
v -0.172357 0.236401 0.110103 0.0039 0.3490 0.6980
v -0.173400 0.236473 -0.104434 0.0039 0.3490 0.6980
v 0.171618 0.236473 -0.104434 0.0039 0.3490 0.6980
v 0.170574 0.236401 0.110102 0.0039 0.3490 0.6980
v 0.249789 0.208535 0.084019 0.0039 0.3490 0.6980
v 0.252401 0.208805 -0.082208 0.0039 0.3490 0.6980
v -0.243901 0.291867 -0.086463 0.0039 0.3490 0.6980
v -0.251572 0.292658 0.116939 0.0039 0.3490 0.6980
v 0.249789 0.292659 0.116939 0.0039 0.3490 0.6980
v 0.242118 0.291868 -0.086463 0.0039 0.3490 0.6980
v -0.256907 0.370509 -0.071922 0.0039 0.3490 0.6980
v 0.251790 0.369669 0.063159 0.0039 0.3490 0.6980
v 0.169253 0.354531 -0.100026 0.0039 0.3490 0.6980
v -0.189735 0.351798 0.107145 0.0039 0.3490 0.6980
v -0.171036 0.354531 -0.100026 0.0039 0.3490 0.6980
v 0.189473 0.351798 0.107145 0.0039 0.3490 0.6980
v -0.034243 0.379271 -0.073083 0.0039 0.3490 0.6980
v -0.083245 0.379271 0.039606 0.0039 0.3490 0.6980
v -0.034243 0.379271 0.086283 0.0039 0.3490 0.6980
v 0.035057 0.379271 0.086283 0.0039 0.3490 0.6980
v 0.084059 0.379271 -0.026406 0.0039 0.3490 0.6980
v 0.035057 0.379271 -0.073083 0.0039 0.3490 0.6980
v 0.265700 0.369613 -0.051794 0.0039 0.3490 0.6980
v 0.252276 0.132391 -0.056315 0.0039 0.3490 0.6980
v 0.171692 0.145871 -0.104177 0.0039 0.3490 0.6980
v -0.173474 0.145871 -0.104177 0.0039 0.3490 0.6980
v -0.254059 0.132392 -0.056315 0.0039 0.3490 0.6980
v -0.251956 0.132202 0.059005 0.0039 0.3490 0.6980
v -0.172634 0.145813 0.110226 0.0039 0.3490 0.6980
v 0.250173 0.132202 0.059005 0.0039 0.3490 0.6980
v 0.170851 0.145813 0.110226 0.0039 0.3490 0.6980
v 0.252108 0.015260 -0.051487 0.0039 0.3490 0.6980
v -0.173574 0.024359 -0.103834 0.0039 0.3490 0.6980
v -0.252472 0.015132 0.055558 0.0039 0.3490 0.6980
v 0.250689 0.015133 0.055558 0.0039 0.3490 0.6980
v 0.171223 0.024320 0.110391 0.0039 0.3490 0.6980
v 0.171791 0.024359 -0.103834 0.0039 0.3490 0.6980
v -0.253891 0.015260 -0.051487 0.0039 0.3490 0.6980
v -0.173006 0.024320 0.110391 0.0039 0.3490 0.6980
v 0.171655 0.191209 -0.104305 0.0039 0.3490 0.6980
v -0.254122 0.176096 -0.063973 0.0039 0.3490 0.6980
v -0.172495 0.191144 0.110164 0.0039 0.3490 0.6980
v 0.252339 0.176096 -0.063973 0.0039 0.3490 0.6980
v -0.173437 0.191209 -0.104305 0.0039 0.3490 0.6980
v -0.251764 0.175884 0.065985 0.0039 0.3490 0.6980
v 0.249981 0.175884 0.065985 0.0039 0.3490 0.6980
v 0.170712 0.191145 0.110164 0.0039 0.3490 0.6980
v -0.083245 0.379271 -0.026406 1.0000 0.0000 0.0000
v 0.084059 0.379271 0.039606 1.0000 0.0000 0.0000
v -0.034243 0.379271 -0.073083 1.0000 0.0000 0.0000
v -0.083245 0.379271 0.039606 1.0000 0.0000 0.0000
v -0.034243 0.379271 0.086283 1.0000 0.0000 0.0000
v 0.035057 0.379271 0.086283 1.0000 0.0000 0.0000
v 0.084059 0.379271 -0.026406 1.0000 0.0000 0.0000
v 0.035057 0.379271 -0.073083 1.0000 0.0000 0.0000
v -0.251572 0.369959 0.066141 1.0000 0.0000 0.0000
v -0.254184 0.208804 -0.082208 1.0000 0.0000 0.0000
v -0.251572 0.208535 0.084019 1.0000 0.0000 0.0000
v -0.243901 0.291867 -0.086463 1.0000 0.0000 0.0000
v -0.251572 0.292658 0.116939 1.0000 0.0000 0.0000
v -0.256907 0.370509 -0.071922 1.0000 0.0000 0.0000
v 0.249789 0.208535 0.084019 1.0000 0.0000 0.0000
v 0.252401 0.208805 -0.082208 1.0000 0.0000 0.0000
v 0.249789 0.292659 0.116939 1.0000 0.0000 0.0000
v 0.242118 0.291868 -0.086463 1.0000 0.0000 0.0000
v 0.251790 0.369669 0.063159 1.0000 0.0000 0.0000
v 0.265700 0.369613 -0.051794 1.0000 0.0000 0.0000
v -0.176430 -0.419136 -0.100850 1.0000 0.0000 0.0000
v -0.176430 -0.422280 0.112679 1.0000 0.0000 0.0000
v -0.246789 -0.418050 0.065667 1.0000 0.0000 0.0000
v 0.174647 -0.422280 0.112679 1.0000 0.0000 0.0000
v 0.245006 -0.418050 0.065667 1.0000 0.0000 0.0000
v -0.251616 -0.421185 -0.058052 1.0000 0.0000 0.0000
v 0.174647 -0.419136 -0.100850 1.0000 0.0000 0.0000
v 0.249833 -0.421185 -0.058052 1.0000 0.0000 0.0000
v -0.024813 0.374231 0.000000 1.0000 1.0000 1.0000
v -0.024813 0.409321 0.000000 1.0000 1.0000 1.0000
v 0.000000 0.374231 -0.024813 1.0000 1.0000 1.0000
v 0.000000 0.409321 -0.024813 1.0000 1.0000 1.0000
v 0.000000 0.374231 0.024813 1.0000 1.0000 1.0000
v 0.000000 0.409321 0.024813 1.0000 1.0000 1.0000
v 0.024813 0.374231 0.000000 1.0000 1.0000 1.0000
v 0.024813 0.409321 0.000000 1.0000 1.0000 1.0000
v 0.241496 0.324856 0.009797 1.0000 1.0000 1.0000
v 0.301114 0.324856 0.009797 1.0000 1.0000 1.0000
v 0.241496 0.293824 -0.021235 1.0000 1.0000 1.0000
v 0.301114 0.293824 -0.021235 1.0000 1.0000 1.0000
v 0.241496 0.293824 0.040830 1.0000 1.0000 1.0000
v 0.301114 0.293824 0.040830 1.0000 1.0000 1.0000
v 0.241496 0.262792 0.009797 1.0000 1.0000 1.0000
v 0.301114 0.262792 0.009797 1.0000 1.0000 1.0000
v -0.242155 0.260838 0.009797 1.0000 1.0000 1.0000
v -0.301761 0.259646 0.009797 1.0000 1.0000 1.0000
v -0.242775 0.291864 -0.021235 1.0000 1.0000 1.0000
v -0.302382 0.290672 -0.021235 1.0000 1.0000 1.0000
v -0.242775 0.291864 0.040830 1.0000 1.0000 1.0000
v -0.302382 0.290672 0.040830 1.0000 1.0000 1.0000
v -0.243395 0.322890 0.009797 1.0000 1.0000 1.0000
v -0.303002 0.321698 0.009797 1.0000 1.0000 1.0000
vn 0.5626 0.0055 0.8267
vn -0.0000 0.0014 1.0000
vn 0.2382 -0.2921 -0.9263
vn 0.3975 -0.0951 -0.9126
vn 0.3388 -0.1696 -0.9254
vn 0.1419 -0.4053 -0.9031
vn -0.9999 0.0016 0.0158
vn -0.0000 0.0256 0.9997
vn 0.5558 0.0164 0.8311
vn 0.5278 0.0145 -0.8493
vn -0.2836 -0.2847 0.9157
vn -0.4438 -0.0833 0.8922
vn -0.3854 -0.1594 0.9089
vn -0.1817 -0.4039 0.8966
vn -0.0000 -0.0028 -1.0000
vn 0.9998 0.0082 0.0182
vn 0.9999 -0.0028 0.0157
vn -0.9998 -0.0041 0.0181
vn -0.9999 0.0069 0.0157
vn -0.9999 0.0062 0.0161
vn -0.4678 -0.0771 -0.8804
vn 0.9999 0.0016 0.0158
vn -0.0000 0.0100 0.9999
vn -0.5626 0.0055 0.8267
vn -0.5654 0.0114 0.8248
vn -1.0000 0.0015 0.0066
vn -0.0000 -0.0119 -0.9999
vn 0.9995 -0.0226 0.0212
vn 0.2597 -0.0173 -0.9655
vn 0.2166 0.0408 -0.9754
vn -0.2597 -0.0173 -0.9655
vn -0.2166 0.0408 -0.9754
vn -0.2869 0.1281 -0.9494
vn -0.1757 -0.3588 0.9168
vn 0.1757 -0.3588 0.9168
vn -0.1173 0.0446 0.9921
vn 0.1161 0.0429 0.9923
vn -0.3657 0.5112 0.7778
vn 0.3874 0.5211 0.7605
vn -0.0000 0.7366 -0.6764
vn -0.1464 0.9772 -0.1538
vn 0.0507 0.9269 -0.3720
vn -0.0504 0.9987 -0.0000
vn -0.0543 0.9985 0.0061
vn 0.0108 0.9202 0.3913
vn -0.1511 0.9757 0.1586
vn 0.1520 0.9754 0.1596
vn 0.0002 0.9264 0.3766
vn 0.0070 0.9503 -0.3112
vn 0.0563 0.9984 0.0063
vn 0.1487 0.9765 -0.1561
vn 0.4678 -0.0771 -0.8804
vn -0.9995 -0.0226 0.0212
vn 0.3413 -0.1524 0.9275
vn 0.3598 -0.3681 0.8573
vn 0.3604 -0.2926 0.8857
vn 0.3287 -0.0879 0.9403
vn -0.2947 -0.1628 -0.9416
vn -0.3152 -0.3752 -0.8717
vn -0.3146 -0.3005 -0.9004
vn -0.2824 -0.0998 -0.9541
vn 0.5545 -0.0094 0.8322
vn -0.5512 -0.0044 -0.8343
vn 0.5267 -0.0186 -0.8499
vn -0.5545 -0.0094 0.8322
vn 0.5057 -0.0650 0.8603
vn -0.0000 0.0373 -0.9993
vn 0.0531 0.9986 -0.0000
vn 0.3963 0.2710 -0.8772
vn -0.5558 0.0164 0.8311
vn -0.5607 0.0130 0.8279
vn -0.5267 -0.0186 -0.8499
vn -0.5278 0.0145 -0.8493
vn 1.0000 0.0015 0.0066
vn 0.5512 -0.0044 -0.8343
vn -0.0000 0.6048 0.7964
vn -0.0000 0.6047 0.7964
vn -0.9998 0.0015 0.0182
vn -0.9998 0.0007 0.0183
vn -0.9998 0.0002 0.0184
vn -0.9998 0.0002 0.0186
vn 0.9998 0.0018 0.0182
vn 0.9998 0.0015 0.0181
vn -0.5057 -0.0650 0.8603
vn -0.0000 1.0000 -0.0000
vn -0.9999 -0.0050 -0.0105
vn -0.9999 -0.0051 -0.0099
vn 0.9993 -0.0367 0.0012
vn -0.0000 -0.9999 -0.0110
vn -0.7071 -0.0000 -0.7071
vn 0.7071 -0.0000 -0.7071
vn 0.7071 -0.0000 0.7071
vn -0.7071 -0.0000 0.7071
vn -0.0000 0.7071 -0.7071
vn -0.0000 -0.7071 -0.7071
vn -0.0000 -0.7071 0.7071
vn -0.0000 0.7071 0.7071
vn 1.0000 -0.0000 -0.0000
vn 0.0141 -0.7070 -0.7071
vn -0.0141 0.7070 -0.7071
vn -0.0141 0.7070 0.7071
vn 0.0141 -0.7070 0.7071
vn -0.9998 -0.0200 -0.0000
s 1
f 17//1 18//1 56//1 57//1
s 0
f 57//2 60//2 14//2 17//2
s 1
f 64//3 61//4 24//5 27//6
f 59//7 55//7 49//7 48//7
s 0
f 60//2 57//2 52//2 50//2
f 37//8 35//8 22//8 25//8
s 1
f 4//9 5//9 18//9 17//9
f 11//10 10//10 16//10 19//10
f 66//11 63//12 22//13 21//14
s 0
f 65//15 23//15 24//15 61//15
f 67//16 64//16 27//16
f 67//17 27//17 26//17
f 62//18 66//18 21//18
s 1
f 62//19 21//19 20//20
f 47//21 48//21 62//21 65//21
f 56//22 53//22 45//22 51//22
s 0
f 17//23 14//23 2//23 4//23
s 1
f 13//24 14//25 60//24 55//24
f 12//26 13//26 55//26 59//26
s 0
f 1//27 15//27 16//27 10//27
s 1
f 5//28 11//28 19//28 18//28
s 0
f 27//29 24//29 31//29
f 31//30 24//30 34//30
f 20//31 28//31 23//31
f 36//32 23//32 28//32
f 28//33 32//33 36//33
f 22//34 29//34 21//34
f 26//35 30//35 25//35
f 37//36 25//36 30//36
f 22//37 35//37 29//37
f 29//38 35//38 6//38
f 30//39 33//39 37//39
f 34//40 36//40 38//40
f 34//40 38//40 43//40
f 38//41 36//41 7//41
s 1
f 36//42 32//42 7//42
s 0
f 7//43 32//43 39//43
f 32//44 6//44 39//44
f 35//45 39//45 6//45
f 39//46 35//46 40//46
f 63//2 68//2 25//2 22//2
f 41//47 37//47 8//47
f 37//48 33//48 8//48
f 34//49 42//49 44//49
f 44//50 8//50 33//50
f 43//51 42//51 34//51
s 1
f 45//52 46//52 61//52 64//52
f 9//53 3//53 13//53 12//53
f 68//54 67//55 26//56 25//57
f 65//58 62//59 20//60 23//61
s 0
f 15//15 54//15 58//15 16//15
s 1
f 57//62 56//62 51//62 52//62
f 15//63 12//63 59//63 54//63
f 53//64 58//64 46//64 45//64
f 55//65 60//65 50//65 49//65
f 52//66 51//66 67//66 68//66
s 0
f 23//67 36//67 34//67 24//67
f 44//68 42//68 8//68
f 31//69 34//69 44//69
s 1
f 3//70 2//70 14//71 13//70
f 54//72 59//72 48//72 47//72
s 0
f 47//15 65//15 61//15 46//15
s 1
f 1//73 9//73 12//73 15//73
f 18//74 19//74 53//74 56//74
f 19//75 16//75 58//75 53//75
s 0
f 40//76 35//76 37//76
f 40//77 37//77 41//77
f 68//2 63//2 50//2 52//2
f 48//78 49//78 66//78
s 1
f 48//79 66//80 62//81
s 0
f 51//82 45//82 64//82
f 51//83 64//83 67//83
s 1
f 49//84 50//84 63//84 66//84
s 0
f 54//15 47//15 46//15 58//15
f 70//85 75//85 76//85 71//85 69//85 72//85 73//85 74//85
f 82//86 80//86 78//87 79//86 81//86 77//86
f 85//88 83//88 84//88 86//88 88//88 87//88
s 1
f 92//89 90//89 91//89 94//89 89//89 95//89 96//89 93//89
s 0
f 97//90 98//90 100//90 99//90
f 99//91 100//91 104//91 103//91
f 103//92 104//92 102//92 101//92
f 101//93 102//93 98//93 97//93
f 104//85 100//85 98//85 102//85
f 105//94 106//94 108//94 107//94
f 107//95 108//95 112//95 111//95
f 111//96 112//96 110//96 109//96
f 109//97 110//97 106//97 105//97
f 112//98 108//98 106//98 110//98
f 113//99 114//99 116//99 115//99
f 115//100 116//100 120//100 119//100
f 119//101 120//101 118//101 117//101
f 117//102 118//102 114//102 113//102
f 120//103 116//103 114//103 118//103
