# Blender 4.1.1
# www.blender.org
o runner_body.002
v 0.215977 0.082319 0.067625 0.0039 0.3490 0.6980
v -0.189357 -0.049412 -0.047307 0.0039 0.3490 0.6980
v -0.188431 -0.049524 0.053403 0.0039 0.3490 0.6980
v -0.189357 0.003841 -0.056235 0.0039 0.3490 0.6980
v -0.188431 0.003826 0.074280 0.0039 0.3490 0.6980
v -0.189357 0.057088 -0.035989 0.0039 0.3490 0.6980
v -0.188431 0.057168 0.042065 0.0039 0.3490 0.6980
v 0.215977 0.005018 0.118423 0.0039 0.3490 0.6980
v 0.215977 -0.079105 0.085503 0.0039 0.3490 0.6980
v 0.060121 0.070285 -0.052730 0.0039 0.3490 0.6980
v 0.067383 0.004052 -0.068760 0.0039 0.3490 0.6980
v 0.076642 -0.061347 0.065032 0.0039 0.3490 0.6980
v 0.076642 0.070275 0.051045 0.0039 0.3490 0.6980
v 0.076642 0.004468 0.090788 0.0039 0.3490 0.6980
v 0.061642 -0.060966 -0.062791 0.0039 0.3490 0.6980
v 0.213365 -0.078836 -0.080724 0.0039 0.3490 0.6980
v 0.223648 0.004227 -0.084979 0.0039 0.3490 0.6980
v 0.210642 0.082868 -0.070438 0.0039 0.3490 0.6980
v 0.215977 0.082319 0.067625 1.0000 0.0000 0.0000
v 0.215977 0.005018 0.118423 1.0000 0.0000 0.0000
v 0.215977 -0.079105 0.085503 1.0000 0.0000 0.0000
v 0.213365 -0.078836 -0.080724 1.0000 0.0000 0.0000
v 0.223648 0.004227 -0.084979 1.0000 0.0000 0.0000
v 0.210642 0.082868 -0.070438 1.0000 0.0000 0.0000
v -0.189357 -0.049412 -0.047307 1.0000 0.0000 0.0000
v -0.188431 -0.049524 0.053403 1.0000 0.0000 0.0000
v -0.189357 0.003841 -0.056235 1.0000 0.0000 0.0000
v -0.188431 0.003826 0.074280 1.0000 0.0000 0.0000
v -0.189357 0.057088 -0.035989 1.0000 0.0000 0.0000
v -0.188431 0.057168 0.042065 1.0000 0.0000 0.0000
v -0.187480 -0.014917 0.002208 1.0000 1.0000 1.0000
v -0.212393 -0.014917 0.002208 1.0000 1.0000 1.0000
v -0.187480 0.002944 -0.015653 1.0000 1.0000 1.0000
v -0.212393 0.002944 -0.015654 1.0000 1.0000 1.0000
v -0.187480 0.002944 0.020070 1.0000 1.0000 1.0000
v -0.212393 0.002944 0.020070 1.0000 1.0000 1.0000
v -0.187480 0.020806 0.002208 1.0000 1.0000 1.0000
v -0.212393 0.020806 0.002208 1.0000 1.0000 1.0000
v 0.210641 0.004239 0.034489 1.0000 1.0000 1.0000
v 0.210641 -0.019989 0.010261 1.0000 1.0000 1.0000
v 0.210641 0.028466 0.010261 1.0000 1.0000 1.0000
v 0.210641 0.004239 -0.013966 1.0000 1.0000 1.0000
v 0.244903 0.004239 0.034489 1.0000 1.0000 1.0000
v 0.244903 -0.019989 0.010261 1.0000 1.0000 1.0000
v 0.244903 0.028466 0.010261 1.0000 1.0000 1.0000
v 0.244903 0.004239 -0.013966 1.0000 1.0000 1.0000
vn -0.0323 -0.3642 0.9307
vn -0.0323 -0.3643 0.9307
vn -0.1130 -0.0574 -0.9919
vn -0.1132 -0.0562 -0.9920
vn -0.1133 -0.0552 -0.9920
vn -0.1123 -0.0563 -0.9921
vn -0.0600 0.5160 0.8545
vn -0.0599 0.5160 0.8545
vn -0.0599 0.5161 0.8545
vn -0.0622 0.2883 -0.9555
vn -0.0609 0.2867 -0.9561
vn -0.0636 0.2845 -0.9566
vn -0.0645 0.2865 -0.9559
vn -0.0629 -0.3637 0.9294
vn -0.0628 -0.3637 0.9294
vn -0.0475 -0.9989 0.0063
vn -0.0474 -0.9989 0.0062
vn -0.0533 0.9985 0.0117
vn -0.0616 0.9976 0.0306
vn -0.0690 0.9970 0.0364
vn -0.0640 0.9974 0.0328
vn -0.0522 0.9983 0.0241
vn -0.1160 0.1913 -0.9746
vn -0.1143 0.1903 -0.9751
vn -0.1158 0.1880 -0.9753
vn -0.1174 0.1895 -0.9748
vn -0.0858 -0.9956 0.0387
vn -0.0701 -0.9962 0.0510
vn -0.0794 -0.9958 0.0450
vn -0.0920 -0.9951 0.0353
vn -0.0575 -0.1230 -0.9907
vn -0.0574 -0.1220 -0.9909
vn -0.0546 -0.1195 -0.9913
vn -0.0584 -0.1192 -0.9911
vn -0.0331 0.5168 0.8555
vn 0.9999 0.0057 0.0105
vn 0.9998 -0.0178 -0.0069
vn 0.9915 0.1259 -0.0323
vn 0.9872 0.1126 0.1132
vn 0.9973 -0.0476 0.0554
vn 0.9999 0.0050 0.0105
vn -0.9999 -0.0030 0.0130
vn -1.0000 0.0054 0.0075
vn -1.0000 -0.0060 0.0037
vn -1.0000 0.0008 0.0067
vn -0.9999 0.0030 0.0108
vn -0.9999 -0.0054 0.0097
vn -0.0000 -0.7071 -0.7071
vn -0.0000 0.7071 -0.7071
vn -0.0000 0.7071 0.7071
vn -0.0000 -0.7071 0.7071
vn -1.0000 -0.0000 -0.0000
vn 1.0000 -0.0000 -0.0000
s 0
f 9//1 8//1 14//2 12//2
s 1
f 17//3 16//4 15//5 11//6
s 0
f 14//7 13//7 7//8 5//9
s 1
f 10//10 11//11 4//12 6//13
s 0
f 12//14 14//15 5//14 3//15
s 1
f 15//16 12//17 3//16 2//17
f 13//18 10//18 6//18 7//18
f 1//19 18//20 10//21 13//22
f 18//23 17//24 11//25 10//26
f 16//27 9//28 12//29 15//30
f 11//31 15//32 2//33 4//34
s 0
f 8//35 1//35 13//35 14//35
s 1
f 23//36 24//37 19//38 20//39 21//40 22//41
s 0
f 28//42 30//43 29//44 27//45 25//46 26//47
f 31//48 32//48 34//48 33//48
f 33//49 34//49 38//49 37//49
f 37//50 38//50 36//50 35//50
f 35//51 36//51 32//51 31//51
f 38//52 34//52 32//52 36//52
f 41//49 45//49 46//49 42//49
f 45//53 43//53 44//53 46//53
f 43//51 39//51 40//51 44//51
f 41//50 39//50 43//50 45//50
f 46//48 44//48 40//48 42//48
