# Blender 4.1.1
# www.blender.org
o landscape_no_shadow
v 3.376433 -5.957696 -23.857948 0.6863 0.6863 0.6863
v 0.283094 -5.969331 -28.090027 0.6863 0.6863 0.6863
v -5.041454 -5.969320 -28.970484 0.6863 0.6863 0.6863
v -10.257334 -5.948386 -26.191360 0.6863 0.6863 0.6863
v -10.823986 -5.960027 -18.808233 0.6863 0.6863 0.6863
v -6.316552 -5.962355 -15.330847 0.6863 0.6863 0.6863
v -1.153089 -5.945093 -15.342867 0.6863 0.6863 0.6863
v 3.182768 -5.949522 -18.587894 0.6863 0.6863 0.6863
v 3.376433 -18.388330 -23.857946 0.6863 0.6863 0.6863
v 0.283094 -17.679968 -28.090025 0.6863 0.6863 0.6863
v -5.041454 -17.810987 -28.970482 0.6863 0.6863 0.6863
v -10.257334 -18.503490 -26.191359 0.6863 0.6863 0.6863
v -10.823986 -19.144802 -18.808231 0.6863 0.6863 0.6863
v -6.316422 -19.146893 -15.275036 0.6863 0.6863 0.6863
v -1.152960 -19.129631 -15.287054 0.6863 0.6863 0.6863
v 3.182768 -18.993900 -18.587893 0.6863 0.6863 0.6863
v -5.724292 -16.695469 -15.286782 0.6863 0.6863 0.6863
v -1.827802 -16.752405 -15.295557 0.6863 0.6863 0.6863
v -4.553406 -14.666398 -15.298079 0.6863 0.6863 0.6863
v -3.228884 -14.661969 -15.301164 0.6863 0.6863 0.6863
v -7.126692 -19.595131 -8.884080 0.6863 0.6863 0.6863
v -3.631540 -19.847668 -4.499906 0.6863 0.6863 0.6863
v -6.791508 -16.971233 -8.164756 0.6863 0.6863 0.6863
v -4.152097 -17.237581 -4.862525 0.6863 0.6863 0.6863
v -6.053195 -14.835170 -6.991537 0.6863 0.6863 0.6863
v -5.156625 -14.899948 -5.866916 0.6863 0.6863 0.6863
v -19.407478 -19.344025 -6.189335 0.6863 0.6863 0.6863
v -15.227297 -19.827530 2.223548 0.6863 0.6863 0.6863
v -18.237450 -14.991539 -5.297683 0.6863 0.6863 0.6863
v -15.102695 -15.482313 1.052993 0.6863 0.6863 0.6863
v -16.718508 -11.456783 -3.450393 0.6863 0.6863 0.6863
v -15.646214 -11.580812 -1.292335 0.6863 0.6863 0.6863
v -11.618341 -15.382912 -3.540891 0.6863 0.6863 0.6863
v -12.128012 -15.323959 -4.566636 0.6863 0.6863 0.6863
v -11.360001 -17.237329 -2.426137 0.6863 0.6863 0.6863
v -12.849977 -17.004061 -5.444666 0.6863 0.6863 0.6863
v -11.419226 -19.302650 -1.869761 0.6863 0.6863 0.6863
v -13.406105 -19.072838 -5.868480 0.6863 0.6863 0.6863
v -26.160160 -18.755352 -5.758210 0.6863 0.6863 0.6863
v -19.353624 -19.614006 7.738428 0.6863 0.6863 0.6863
v -25.330376 -12.825933 -3.702609 0.6863 0.6863 0.6863
v -20.195387 -13.646077 6.467814 0.6863 0.6863 0.6863
v -23.746199 -8.036905 -0.222180 0.6863 0.6863 0.6863
v -22.000198 -8.257167 3.239959 0.6863 0.6863 0.6863
v -32.567776 -18.730705 -0.922582 0.6863 0.6863 0.6863
v -22.761871 -19.551693 10.583737 0.6863 0.6863 0.6863
v -31.280369 -12.795618 0.863284 0.6863 0.6863 0.6863
v -23.885218 -13.587376 9.532943 0.6863 0.6863 0.6863
v -28.922068 -7.996930 3.858079 0.6863 0.6863 0.6863
v -26.406673 -8.207528 6.809657 0.6863 0.6863 0.6863
v -34.746208 -19.081469 8.312748 0.6863 0.6863 0.6863
v -27.845715 -19.607586 13.785046 0.6863 0.6863 0.6863
v -33.780907 -15.629306 9.183562 0.6863 0.6863 0.6863
v -28.578577 -16.126661 13.306159 0.6863 0.6863 0.6863
v -32.072292 -12.844548 10.625613 0.6863 0.6863 0.6863
v -30.302189 -12.979508 12.029353 0.6863 0.6863 0.6863
v -35.645012 -18.822466 19.186207 0.6863 0.6863 0.6863
v -29.377188 -19.419132 20.431931 0.6863 0.6863 0.6863
v -34.641033 -16.343451 19.404690 0.6863 0.6863 0.6863
v -29.919312 -16.866476 20.342594 0.6863 0.6863 0.6863
v -32.983917 -14.372578 19.749706 0.6863 0.6863 0.6863
v -31.376108 -14.525635 20.069260 0.6863 0.6863 0.6863
v -40.911602 -17.831680 24.427635 0.6863 0.6863 0.6863
v -36.772324 -17.989750 29.330162 0.6863 0.6863 0.6863
v -40.147766 -15.303219 24.901619 0.6863 0.6863 0.6863
v -37.032413 -15.495243 28.603722 0.6863 0.6863 0.6863
v -38.970062 -13.233591 25.940392 0.6863 0.6863 0.6863
v -37.908264 -13.274139 27.197987 0.6863 0.6863 0.6863
v -48.907387 -16.016964 24.236965 0.6863 0.6863 0.6863
v -49.830734 -15.304044 35.692154 0.6863 0.6863 0.6863
v -48.865685 -11.340088 25.378191 0.6863 0.6863 0.6863
v -49.566700 -10.933351 34.027519 0.6863 0.6863 0.6863
v -48.953060 -7.379259 27.833258 0.6863 0.6863 0.6863
v -49.189915 -7.196383 30.771723 0.6863 0.6863 0.6863
v -62.267326 -15.730631 28.077835 0.6863 0.6863 0.6863
v -57.800510 -15.510684 41.133553 0.6863 0.6863 0.6863
v -61.370556 -10.205544 29.478937 0.6863 0.6863 0.6863
v -58.010784 -10.196660 39.333893 0.6863 0.6863 0.6863
v -60.039745 -5.608478 32.360069 0.6863 0.6863 0.6863
v -58.893929 -5.552059 35.709106 0.6863 0.6863 0.6863
v -73.392639 -15.116689 31.822189 0.6863 0.6863 0.6863
v -72.174889 -14.978009 38.797409 0.6863 0.6863 0.6863
v -73.099876 -12.275275 32.602333 0.6863 0.6863 0.6863
v -72.185318 -12.251330 37.866600 0.6863 0.6863 0.6863
v -72.697159 -9.907747 34.167740 0.6863 0.6863 0.6863
v -72.384781 -9.872174 35.957016 0.6863 0.6863 0.6863
v -85.417282 -14.635823 32.736298 0.6863 0.6863 0.6863
v -84.199532 -14.497144 39.711517 0.6863 0.6863 0.6863
v -85.124519 -11.794410 33.516449 0.6863 0.6863 0.6863
v -84.209961 -11.770465 38.780708 0.6863 0.6863 0.6863
v -84.721802 -9.426882 35.081856 0.6863 0.6863 0.6863
v -84.409424 -9.391309 36.871124 0.6863 0.6863 0.6863
v -98.799950 -11.778442 26.035257 0.6863 0.6863 0.6863
v -99.706863 -11.656426 31.619959 0.6863 0.6863 0.6863
v -98.565880 -9.529390 26.732141 0.6863 0.6863 0.6863
v -99.259926 -9.501153 30.944891 0.6863 0.6863 0.6863
v -98.492035 -7.653813 28.045210 0.6863 0.6863 0.6863
v -98.724663 -7.622514 29.477789 0.6863 0.6863 0.6863
v -108.758186 -10.770898 26.846567 0.6863 0.6863 0.6863
v -107.068741 -10.621648 33.722557 0.6863 0.6863 0.6863
v -108.192673 -7.949971 27.546957 0.6863 0.6863 0.6863
v -106.928413 -7.917428 32.738289 0.6863 0.6863 0.6863
v -107.502213 -5.597985 29.033319 0.6863 0.6863 0.6863
v -107.068840 -5.559699 30.797132 0.6863 0.6863 0.6863
v -122.669853 -7.816857 37.416954 0.6863 0.6863 0.6863
v -117.626228 -8.060227 42.382668 0.6863 0.6863 0.6863
v -121.479149 -5.111082 37.587189 0.6863 0.6863 0.6863
v -117.690598 -5.372816 41.345871 0.6863 0.6863 0.6863
v -119.829201 -2.906105 38.383171 0.6863 0.6863 0.6863
v -118.535423 -2.968534 39.656975 0.6863 0.6863 0.6863
v -141.125885 -5.205624 51.950562 0.6863 0.6863 0.6863
v -135.683945 -5.459609 56.432564 0.6863 0.6863 0.6863
v -140.309677 -2.487312 52.567680 0.6863 0.6863 0.6863
v -136.201981 -2.760082 55.947121 0.6863 0.6863 0.6863
v -138.916443 -0.269145 53.670376 0.6863 0.6863 0.6863
v -137.508499 -0.343459 54.819481 0.6863 0.6863 0.6863
v -62.012386 -16.038696 32.525543 0.6863 0.6863 0.6863
v -63.331978 -16.038696 32.871643 0.6863 0.6863 0.6863
v -63.245312 -16.038696 34.488266 0.6863 0.6863 0.6863
v -62.185711 -16.038696 34.978813 0.6863 0.6863 0.6863
v -61.154995 -16.038696 34.517159 0.6863 0.6863 0.6863
v -61.010559 -16.038696 33.276077 0.6863 0.6863 0.6863
v -62.070869 -13.038991 32.977112 0.6863 0.6863 0.6863
v -62.904675 -13.038991 33.195808 0.6863 0.6863 0.6863
v -62.849918 -13.038991 34.217285 0.6863 0.6863 0.6863
v -62.180397 -13.038991 34.527237 0.6863 0.6863 0.6863
v -61.529125 -13.038991 34.235542 0.6863 0.6863 0.6863
v -61.437862 -13.038991 33.451347 0.6863 0.6863 0.6863
v -61.979237 -10.645928 33.170525 0.6863 0.6863 0.6863
v -62.605030 -10.645928 33.334656 0.6863 0.6863 0.6863
v -62.563934 -10.645928 34.101303 0.6863 0.6863 0.6863
v -62.061440 -10.645928 34.333931 0.6863 0.6863 0.6863
v -61.572651 -10.645928 34.115005 0.6863 0.6863 0.6863
v -61.504150 -10.645928 33.526451 0.6863 0.6863 0.6863
v -62.039757 -8.003751 33.148170 0.6863 0.6863 0.6863
v -62.736721 -8.003751 33.330971 0.6863 0.6863 0.6863
v -62.690956 -8.003751 34.184799 0.6863 0.6863 0.6863
v -62.131313 -8.003751 34.443886 0.6863 0.6863 0.6863
v -61.586933 -8.003751 34.200058 0.6863 0.6863 0.6863
v -61.510651 -8.003751 33.544571 0.6863 0.6863 0.6863
v -61.985985 -5.124765 32.803902 0.6863 0.6863 0.6863
v -63.127644 -5.124765 33.103333 0.6863 0.6863 0.6863
v -63.052673 -5.124765 34.501961 0.6863 0.6863 0.6863
v -62.135960 -5.124765 34.926353 0.6863 0.6863 0.6863
v -61.244228 -5.124765 34.526955 0.6863 0.6863 0.6863
v -61.119274 -5.124765 33.453224 0.6863 0.6863 0.6863
v -18.662045 -19.841396 1.147368 0.6863 0.6863 0.6863
v -19.863358 -19.841396 1.462448 0.6863 0.6863 0.6863
v -19.784466 -19.841396 2.934175 0.6863 0.6863 0.6863
v -18.819832 -19.841396 3.380750 0.6863 0.6863 0.6863
v -17.881498 -19.841396 2.960477 0.6863 0.6863 0.6863
v -17.750011 -19.841396 1.830633 0.6863 0.6863 0.6863
v -18.715284 -17.110554 1.558465 0.6863 0.6863 0.6863
v -19.474356 -17.110554 1.757556 0.6863 0.6863 0.6863
v -19.424509 -17.110554 2.687480 0.6863 0.6863 0.6863
v -18.814995 -17.110554 2.969653 0.6863 0.6863 0.6863
v -18.222099 -17.110554 2.704099 0.6863 0.6863 0.6863
v -18.139015 -17.110554 1.990193 0.6863 0.6863 0.6863
v -18.631866 -14.931980 1.734538 0.6863 0.6863 0.6863
v -19.201569 -14.931980 1.883958 0.6863 0.6863 0.6863
v -19.164160 -14.931980 2.581893 0.6863 0.6863 0.6863
v -18.706699 -14.931980 2.793674 0.6863 0.6863 0.6863
v -18.261721 -14.931980 2.594367 0.6863 0.6863 0.6863
v -18.199360 -14.931980 2.058566 0.6863 0.6863 0.6863
v -18.686962 -12.526619 1.714189 0.6863 0.6863 0.6863
v -19.321455 -12.526619 1.880601 0.6863 0.6863 0.6863
v -19.279791 -12.526619 2.657907 0.6863 0.6863 0.6863
v -18.770309 -12.526619 2.893769 0.6863 0.6863 0.6863
v -18.274725 -12.526619 2.671798 0.6863 0.6863 0.6863
v -18.205278 -12.526619 2.075063 0.6863 0.6863 0.6863
v -18.638010 -9.905676 1.400779 0.6863 0.6863 0.6863
v -19.677341 -9.905676 1.673368 0.6863 0.6863 0.6863
v -19.609089 -9.905676 2.946635 0.6863 0.6863 0.6863
v -18.774540 -9.905676 3.332995 0.6863 0.6863 0.6863
v -17.962734 -9.905676 2.969392 0.6863 0.6863 0.6863
v -17.848982 -9.905676 1.991902 0.6863 0.6863 0.6863
v -29.902143 -21.102367 2.545092 0.6863 0.6863 0.6863
v -31.558142 -21.102367 2.979426 0.6863 0.6863 0.6863
v -31.449389 -21.102367 5.008185 0.6863 0.6863 0.6863
v -30.119652 -21.102367 5.623785 0.6863 0.6863 0.6863
v -28.826170 -21.102367 5.044443 0.6863 0.6863 0.6863
v -28.644915 -21.102367 3.486967 0.6863 0.6863 0.6863
v -29.975534 -17.337931 3.111783 0.6863 0.6863 0.6863
v -31.021906 -17.337931 3.386228 0.6863 0.6863 0.6863
v -30.953194 -17.337931 4.668119 0.6863 0.6863 0.6863
v -30.112984 -17.337931 5.057090 0.6863 0.6863 0.6863
v -29.295681 -17.337931 4.691029 0.6863 0.6863 0.6863
v -29.181150 -17.337931 3.706916 0.6863 0.6863 0.6863
v -29.860542 -14.334791 3.354501 0.6863 0.6863 0.6863
v -30.645872 -14.334791 3.560473 0.6863 0.6863 0.6863
v -30.594303 -14.334791 4.522567 0.6863 0.6863 0.6863
v -29.963699 -14.334791 4.814504 0.6863 0.6863 0.6863
v -29.350302 -14.334791 4.539763 0.6863 0.6863 0.6863
v -29.264338 -14.334791 3.801168 0.6863 0.6863 0.6863
v -29.936491 -11.019029 3.326448 0.6863 0.6863 0.6863
v -30.811134 -11.019029 3.555846 0.6863 0.6863 0.6863
v -30.753702 -11.019029 4.627351 0.6863 0.6863 0.6863
v -30.051386 -11.019029 4.952487 0.6863 0.6863 0.6863
v -29.368227 -11.019029 4.646501 0.6863 0.6863 0.6863
v -29.272497 -11.019029 3.823907 0.6863 0.6863 0.6863
v -29.869011 -7.406086 2.894413 0.6863 0.6863 0.6863
v -31.301720 -7.406085 3.270176 0.6863 0.6863 0.6863
v -31.207634 -7.406085 5.025362 0.6863 0.6863 0.6863
v -30.057217 -7.406085 5.557955 0.6863 0.6863 0.6863
v -28.938152 -7.406085 5.056733 0.6863 0.6863 0.6863
v -28.781345 -7.406085 3.709272 0.6863 0.6863 0.6863
vn 0.4702 -0.0000 0.8825
vn -0.8073 -0.0000 0.5901
vn -0.9993 -0.0000 -0.0367
vn 0.9971 -0.0000 0.0765
vn -0.1631 -0.0000 0.9866
vn -0.5992 -0.0000 -0.8006
vn 0.6108 -0.0000 -0.7918
vn 0.0121 0.9956 0.0925
vn -0.0023 -0.0042 -1.0000
vn -0.8415 -0.5024 -0.1984
vn 0.9728 -0.1951 0.1247
vn -0.0087 0.9979 0.0644
vn -0.0142 -0.9996 -0.0257
vn 0.3944 -0.2875 0.8728
vn 0.8860 -0.4437 0.1346
vn 0.0820 -0.2893 0.9537
vn -0.9431 -0.2429 -0.2272
vn 0.0444 -0.9953 -0.0863
vn -0.7117 -0.1636 -0.6831
vn -0.2696 -0.4979 -0.8243
vn -0.0494 0.9954 0.0817
vn -0.1303 -0.4147 0.9006
vn -0.0439 -0.1892 0.9810
vn -0.3197 -0.2130 -0.9233
vn -0.3820 -0.9141 0.1356
vn 0.0703 0.9975 0.0014
vn 0.3474 -0.5436 0.7641
vn 0.4800 -0.6179 0.6227
vn -0.0411 -0.9984 -0.0398
vn 0.0814 0.9964 0.0223
vn -0.7145 -0.4309 -0.5512
vn 0.0639 -0.5548 0.8295
vn -0.7673 -0.1978 -0.6101
vn 0.5677 -0.3435 0.7482
vn -0.9526 -0.2210 -0.2089
vn -0.5882 -0.7698 0.2480
vn 0.0454 0.9984 0.0325
vn -0.5282 -0.5633 -0.6354
vn -0.6865 -0.4938 -0.5338
vn 0.0276 0.9977 0.0612
vn -0.3499 -0.5349 -0.7690
vn -0.6225 -0.2470 -0.7426
vn 0.3763 -0.8179 -0.4352
vn 0.0057 -0.9844 -0.1757
vn 0.8623 -0.5019 0.0674
vn -0.8184 -0.5342 -0.2121
vn 0.8149 -0.5795 0.0075
vn 0.0960 0.9954 -0.0061
vn -0.5222 -0.2354 -0.8197
vn 0.9387 -0.2816 0.1991
vn -0.6762 -0.5330 -0.5087
vn -0.4997 -0.5593 -0.6614
vn 0.6373 -0.3218 0.7002
vn -0.1183 -0.9907 0.0679
vn 0.9426 -0.3261 0.0716
vn 0.1082 0.9917 -0.0694
vn 0.2300 -0.5388 0.8104
vn 0.1794 0.9827 -0.0467
vn -0.7624 -0.2196 -0.6088
vn -0.4620 -0.8786 0.1206
vn -0.0567 -0.2123 0.9755
vn -0.1406 -0.4772 0.8675
vn 0.5237 -0.5808 0.6232
vn 0.2708 -0.2562 0.9279
vn -0.1374 -0.9892 0.0505
vn 0.2926 -0.2800 0.9143
vn -0.0303 0.9995 -0.0065
vn -0.4566 -0.5808 -0.6739
vn 0.0421 0.9986 -0.0312
vn -0.5318 -0.2826 -0.7983
vn 0.1418 -0.3148 -0.9385
vn 0.0409 -0.5559 0.8302
vn 0.3167 -0.9478 -0.0365
vn 0.3028 -0.5653 0.7673
vn 0.0622 -0.2702 0.9608
vn 0.1714 -0.5933 -0.7865
vn -0.4549 -0.4644 0.7599
vn 0.0379 0.9989 -0.0265
vn -0.0839 -0.6280 -0.7737
vn -0.0379 -0.9989 0.0265
vn 0.2080 0.9765 -0.0557
vn -0.0846 -0.3222 -0.9429
vn 0.3957 -0.3187 -0.8613
vn -0.4704 -0.2007 0.8594
vn 0.2983 -0.6074 -0.7362
vn -0.0262 -0.5486 0.8357
vn 0.0439 -0.2719 0.9613
vn -0.1372 -0.9903 0.0239
vn 0.5364 -0.2950 0.7907
vn 0.1244 0.9909 -0.0521
vn -0.2811 -0.5855 -0.7603
vn -0.2263 -0.9734 0.0354
vn 0.1516 0.9828 -0.1058
vn -0.2862 -0.2785 -0.9168
vn -0.6446 -0.2604 -0.7188
vn 0.4493 -0.5951 0.6663
vn -0.5868 -0.5642 -0.5808
vn 0.4148 -0.5688 0.7102
vn 0.5605 -0.3184 0.7645
vn -0.1565 -0.9843 0.0811
vn -0.6169 -0.2751 -0.7374
vn 0.1011 0.9934 -0.0540
vn -0.5509 -0.5904 -0.5899
vn -0.0964 -0.9940 0.0513
vn 0.5944 0.1310 -0.7934
vn 0.4050 0.1354 0.9042
vn -0.9894 0.1352 0.0530
vn 0.9844 0.1335 0.1146
vn -0.4162 0.1361 0.8990
vn -0.2512 0.1393 -0.9579
vn 0.9930 0.0239 0.1156
vn -0.4183 0.0938 0.9035
vn -0.2527 0.0876 -0.9636
vn 0.5991 0.0417 -0.7996
vn 0.4082 0.0533 0.9113
vn -0.9912 0.1210 0.0531
vn 0.5996 0.0070 -0.8003
vn 0.4086 -0.0272 0.9123
vn -0.9973 -0.0496 0.0535
vn 0.9933 0.0017 0.1156
vn -0.4196 -0.0488 0.9064
vn -0.2537 -0.0140 -0.9672
vn 0.9848 -0.1302 0.1146
vn -0.4153 -0.1510 0.8971
vn -0.2522 -0.1103 -0.9614
vn 0.5962 -0.1063 -0.7958
vn 0.4041 -0.1505 0.9022
vn -0.9901 -0.1302 0.0531
vn -0.2521 -0.1103 -0.9614
vn -0.6057 -0.0034 -0.7957
vn 0.6169 -0.0033 -0.7870
vn -0.0581 0.9768 0.2060
vn -0.0844 0.9925 0.0890
vn -0.0634 0.9946 0.0815
vn -0.0031 0.9953 0.0968
vn 0.0573 0.9916 0.1160
vn -0.0032 0.9976 0.0696
vn 0.0891 0.9959 0.0130
vn 0.0877 0.9961 0.0137
vn 0.0375 0.9983 0.0446
vn 0.0306 0.9985 0.0451
vn 0.0889 0.9959 -0.0164
vn -0.1091 -0.9913 0.0741
vn 0.1185 0.9906 -0.0681
vn 0.2222 0.9624 -0.1565
vn -0.1355 -0.9888 0.0630
vn 0.0036 0.9981 -0.0618
vn 0.0457 0.9986 -0.0278
vn 0.3023 -0.9492 -0.0875
vn 0.2032 0.9791 0.0116
vn 0.1002 0.9950 -0.0055
vn 0.1625 0.9848 -0.0613
vn 0.0946 0.9938 -0.0585
vn 0.9933 0.0016 0.1156
vn -0.4669 -0.2906 -0.8352
s 0
f 4//1 11//1 3//1
f 10//2 1//2 2//2
f 9//3 8//3 1//3
f 5//4 12//4 4//4
f 3//5 10//5 2//5
f 16//6 7//6 8//6
f 6//7 13//7 5//7
f 9//8 11//8 15//8
f 7//9 15//9 18//9
f 18//9 20//9 7//9
f 7//9 20//9 6//9
f 20//9 19//9 6//9
f 19//9 17//9 6//9
f 6//9 17//9 14//9
f 26//10 20//10 18//10 24//10
f 21//11 14//11 17//11 23//11
f 15//12 21//12 22//12
f 25//13 19//13 20//13 26//13
f 36//14 38//14 21//14 23//14
f 23//15 17//15 19//15 25//15
f 39//16 27//16 29//16 41//16
f 24//17 18//17 15//17 22//17
f 33//18 34//18 25//18 26//18
f 30//19 35//19 37//19 28//19
f 35//20 33//20 26//20 24//20
f 38//21 28//21 37//21
f 29//22 36//22 34//22 31//22
f 29//23 27//23 38//23 36//23
f 37//24 35//24 24//24 22//24
f 43//25 31//25 32//25 44//25
f 21//26 37//26 22//26
f 34//27 36//27 23//27 25//27
f 47//28 41//28 43//28 49//28
f 49//29 43//29 44//29 50//29
f 28//30 39//30 40//30
f 30//31 32//31 33//31 35//31
f 41//32 29//32 31//32 43//32
f 40//33 42//33 30//33 28//33
f 45//34 39//34 41//34 47//34
f 60//35 54//35 52//35 58//35
f 32//36 31//36 34//36 33//36
f 40//37 45//37 46//37
f 50//38 44//38 42//38 48//38
f 42//39 44//39 32//39 30//39
f 46//40 51//40 52//40
f 56//41 50//41 48//41 54//41
f 46//42 48//42 42//42 40//42
f 55//43 49//43 50//43 56//43
f 61//44 55//44 56//44 62//44
f 55//45 53//45 47//45 49//45
f 62//46 56//46 54//46 60//46
f 59//47 53//47 55//47 61//47
f 52//48 57//48 58//48
f 54//49 48//49 46//49 52//49
f 51//50 45//50 47//50 53//50
f 66//51 68//51 62//51 60//51
f 72//52 74//52 68//52 66//52
f 65//53 63//53 57//53 59//53
f 61//54 68//54 67//54
f 57//55 51//55 53//55 59//55
f 57//56 64//56 58//56
f 77//57 71//57 73//57 79//57
f 64//58 69//58 70//58
f 64//59 66//59 60//59 58//59
f 73//60 67//60 68//60 74//60
f 69//61 63//61 65//61 71//61
f 71//62 65//62 67//62 73//62
f 67//63 65//63 59//63 61//63
f 75//64 69//64 71//64 77//64
f 74//65 79//65 73//65
f 83//66 81//66 75//66 77//66
f 70//67 75//67 76//67
f 80//68 74//68 72//68 78//68
f 75//69 82//69 76//69
f 78//70 72//70 70//70 76//70
f 82//71 84//71 78//71 76//71
f 91//72 89//72 83//72 85//72
f 79//73 86//73 85//73
f 85//74 83//74 77//74 79//74
f 89//75 87//75 81//75 83//75
f 86//76 80//76 78//76 84//76
f 97//77 95//77 89//77 91//77
f 81//78 88//78 82//78
f 90//79 92//79 86//79 84//79
f 92//80 91//80 85//80 86//80
f 87//81 94//81 88//81
f 88//82 90//82 84//82 82//82
f 94//83 96//83 90//83 88//83
f 95//84 93//84 87//84 89//84
f 96//85 98//85 92//85 90//85
f 101//86 95//86 97//86 103//86
f 101//87 99//87 93//87 95//87
f 98//88 97//88 91//88 92//88
f 105//89 99//89 101//89 107//89
f 94//90 99//90 100//90
f 104//91 98//91 96//91 102//91
f 103//92 97//92 98//92 104//92
f 100//93 105//93 106//93
f 102//94 96//94 94//94 100//94
f 108//95 102//95 100//95 106//95
f 115//96 113//96 107//96 109//96
f 110//97 104//97 102//97 108//97
f 107//98 101//98 103//98 109//98
f 113//99 111//99 105//99 107//99
f 109//100 103//100 104//100 110//100
f 112//101 114//101 108//101 106//101
f 105//102 112//102 106//102
f 114//103 116//103 110//103 108//103
f 116//104 115//104 109//104 110//104
f 117//105 128//105 122//105
f 127//106 120//106 121//106
f 119//107 124//107 118//107
f 122//108 127//108 121//108
f 120//109 125//109 119//109
f 124//110 117//110 118//110
f 128//111 133//111 127//111
f 126//112 131//112 125//112
f 130//113 123//113 124//113
f 129//114 128//114 123//114
f 127//115 132//115 126//115
f 125//116 130//116 124//116
f 129//117 140//117 134//117
f 139//118 132//118 133//118
f 131//119 136//119 130//119
f 140//120 133//120 134//120
f 138//121 131//121 132//121
f 130//122 135//122 129//122
f 146//123 139//123 140//123
f 138//124 143//124 137//124
f 136//125 141//125 135//125
f 141//126 140//126 135//126
f 145//127 138//127 139//127
f 137//128 142//128 136//128
f 147//105 158//105 152//105
f 157//106 150//106 151//106
f 149//107 154//107 148//107
f 152//108 157//108 151//108
f 150//109 155//109 149//109
f 154//110 147//110 148//110
f 158//111 163//111 157//111
f 156//112 161//112 155//112
f 160//113 153//113 154//113
f 159//114 158//114 153//114
f 157//115 162//115 156//115
f 155//116 160//116 154//116
f 159//117 170//117 164//117
f 169//118 162//118 163//118
f 161//119 166//119 160//119
f 170//120 163//120 164//120
f 168//121 161//121 162//121
f 160//122 165//122 159//122
f 176//123 169//123 170//123
f 168//124 173//124 167//124
f 166//129 171//129 165//129
f 171//126 170//126 165//126
f 175//127 168//127 169//127
f 167//128 172//128 166//128
f 177//105 188//105 182//105
f 187//106 180//106 181//106
f 179//107 184//107 178//107
f 182//108 187//108 181//108
f 180//109 185//109 179//109
f 184//110 177//110 178//110
f 188//111 193//111 187//111
f 186//112 191//112 185//112
f 190//113 183//113 184//113
f 189//114 188//114 183//114
f 187//115 192//115 186//115
f 185//116 190//116 184//116
f 189//117 200//117 194//117
f 199//118 192//118 193//118
f 191//119 196//119 190//119
f 200//120 193//120 194//120
f 198//121 191//121 192//121
f 190//122 195//122 189//122
f 206//123 199//123 200//123
f 198//124 203//124 197//124
f 196//129 201//129 195//129
f 201//126 200//126 195//126
f 205//127 198//127 199//127
f 197//128 202//128 196//128
f 4//1 12//1 11//1
f 10//2 9//2 1//2
f 9//3 16//3 8//3
f 5//4 13//4 12//4
f 3//5 11//5 10//5
f 16//130 15//130 7//130
f 6//131 14//131 13//131
f 9//132 10//132 11//132
f 11//133 12//133 14//133
f 12//134 13//134 14//134
f 14//135 15//135 11//135
f 15//136 16//136 9//136
f 15//137 14//137 21//137
f 38//21 27//21 28//21
f 21//138 38//138 37//138
f 28//139 27//139 39//139
f 40//140 39//140 45//140
f 46//141 45//141 51//141
f 52//142 51//142 57//142
f 61//143 62//143 68//143
f 57//144 63//144 64//144
f 64//145 63//145 69//145
f 74//146 80//146 79//146
f 70//147 69//147 75//147
f 75//148 81//148 82//148
f 79//149 80//149 86//149
f 81//78 87//78 88//78
f 87//150 93//150 94//150
f 94//151 93//151 99//151
f 100//152 99//152 105//152
f 105//153 111//153 112//153
f 117//105 123//105 128//105
f 127//106 126//106 120//106
f 119//107 125//107 124//107
f 122//108 128//108 127//108
f 120//109 126//109 125//109
f 124//110 123//110 117//110
f 128//111 134//111 133//111
f 126//112 132//112 131//112
f 130//113 129//113 123//113
f 129//114 134//114 128//114
f 127//115 133//115 132//115
f 125//116 131//116 130//116
f 129//117 135//117 140//117
f 139//118 138//118 132//118
f 131//119 137//119 136//119
f 140//154 139//154 133//154
f 138//121 137//121 131//121
f 130//122 136//122 135//122
f 146//123 145//123 139//123
f 138//124 144//124 143//124
f 136//125 142//125 141//125
f 141//126 146//126 140//126
f 145//127 144//127 138//127
f 137//128 143//128 142//128
f 147//105 153//105 158//105
f 157//106 156//106 150//106
f 149//107 155//107 154//107
f 152//108 158//108 157//108
f 150//109 156//109 155//109
f 154//110 153//110 147//110
f 158//111 164//111 163//111
f 156//112 162//112 161//112
f 160//113 159//113 153//113
f 159//114 164//114 158//114
f 157//115 163//115 162//115
f 155//116 161//116 160//116
f 159//117 165//117 170//117
f 169//118 168//118 162//118
f 161//119 167//119 166//119
f 170//154 169//154 163//154
f 168//121 167//121 161//121
f 160//122 166//122 165//122
f 176//123 175//123 169//123
f 168//124 174//124 173//124
f 166//129 172//129 171//129
f 171//126 176//126 170//126
f 175//127 174//127 168//127
f 167//128 173//128 172//128
f 177//105 183//105 188//105
f 187//106 186//106 180//106
f 179//107 185//107 184//107
f 182//108 188//108 187//108
f 180//109 186//109 185//109
f 184//110 183//110 177//110
f 188//111 194//111 193//111
f 186//112 192//112 191//112
f 190//113 189//113 183//113
f 189//114 194//114 188//114
f 187//115 193//115 192//115
f 185//116 191//116 190//116
f 189//117 195//117 200//117
f 199//118 198//118 192//118
f 191//119 197//119 196//119
f 200//154 199//154 193//154
f 198//121 197//121 191//121
f 190//122 196//122 195//122
f 206//123 205//123 199//123
f 198//124 204//124 203//124
f 196//129 202//129 201//129
f 201//126 206//126 200//126
f 205//127 204//127 198//127
f 197//128 203//128 202//128
f 70//155 72//155 66//155 64//155
