# Blender 4.0.1
# www.blender.org
o runner_body.001
v -0.000182 -0.176918 -0.079517 0.4000 0.2039 0.0039
v -0.063406 -0.176918 -0.043015 0.4000 0.2039 0.0039
v -0.063406 -0.176918 0.029991 0.4000 0.2039 0.0039
v -0.000182 -0.176918 0.066494 0.4000 0.2039 0.0039
v 0.063043 -0.176918 0.029991 0.4000 0.2039 0.0039
v 0.063043 -0.176918 -0.043015 0.4000 0.2039 0.0039
v -0.000180 -0.176512 -0.097600 0.4000 0.2039 0.0039
v -0.078784 -0.176918 -0.051893 0.4000 0.2039 0.0039
v -0.078784 -0.176918 0.038869 0.4000 0.2039 0.0039
v -0.000182 -0.176918 0.084250 0.4000 0.2039 0.0039
v 0.078421 -0.176918 0.038869 0.4000 0.2039 0.0039
v 0.078421 -0.176918 -0.051893 0.4000 0.2039 0.0039
v -0.078783 -0.188710 -0.118846 0.4000 0.2039 0.0039
v -0.078784 -0.241460 0.038869 0.4000 0.2039 0.0039
v -0.000182 -0.241460 0.084250 0.4000 0.2039 0.0039
v 0.078421 -0.241460 0.038869 0.4000 0.2039 0.0039
v 0.078421 -0.189052 -0.118570 0.4000 0.2039 0.0039
v -0.078784 -0.241460 -0.118628 0.4000 0.2039 0.0039
v 0.078421 -0.241460 -0.118628 0.4000 0.2039 0.0039
v -0.039797 -0.241359 -0.208480 0.4000 0.2039 0.0039
v 0.039434 -0.241532 -0.208342 0.4000 0.2039 0.0039
v -0.000184 -0.226009 -0.182067 0.4000 0.2039 0.0039
v -0.078784 -0.255851 0.038869 0.4000 0.2039 0.0039
v -0.000182 -0.255851 0.084250 0.4000 0.2039 0.0039
v 0.078421 -0.255851 0.038869 0.4000 0.2039 0.0039
v -0.078784 -0.255851 -0.118628 0.4000 0.2039 0.0039
v 0.078421 -0.255851 -0.118628 0.4000 0.2039 0.0039
v -0.039797 -0.255750 -0.208480 0.4000 0.2039 0.0039
v 0.039434 -0.255923 -0.208342 0.4000 0.2039 0.0039
v -0.063406 0.215453 0.029991 0.2902 0.0980 0.0000
v -0.000181 0.215453 0.066494 0.2902 0.0980 0.0000
v 0.063043 0.215453 0.029991 0.2902 0.0980 0.0000
v -0.000181 0.215206 -0.079517 0.2902 0.0980 0.0000
v -0.063406 0.215206 -0.043015 0.2902 0.0980 0.0000
v 0.063043 0.215206 -0.043015 0.2902 0.0980 0.0000
v -0.000182 -0.176918 -0.079517 0.2902 0.0980 0.0000
v -0.063406 -0.176918 -0.043015 0.2902 0.0980 0.0000
v -0.063406 -0.176918 0.029991 0.2902 0.0980 0.0000
v -0.000182 -0.176918 0.066494 0.2902 0.0980 0.0000
v 0.063043 -0.176918 0.029991 0.2902 0.0980 0.0000
v 0.063043 -0.176918 -0.043015 0.2902 0.0980 0.0000
v -0.063406 0.215453 0.029991 1.0000 0.0000 0.0000
v -0.000181 0.215453 0.066494 1.0000 0.0000 0.0000
v 0.063043 0.215453 0.029991 1.0000 0.0000 0.0000
v -0.000181 0.215206 -0.079517 1.0000 0.0000 0.0000
v -0.063406 0.215206 -0.043015 1.0000 0.0000 0.0000
v 0.063043 0.215206 -0.043015 1.0000 0.0000 0.0000
v -0.030959 0.205853 -0.006614 1.0000 1.0000 1.0000
v -0.030959 0.248520 -0.006614 1.0000 1.0000 1.0000
v -0.000789 0.205853 -0.036784 1.0000 1.0000 1.0000
v -0.000789 0.248520 -0.036784 1.0000 1.0000 1.0000
v -0.000789 0.205853 0.023557 1.0000 1.0000 1.0000
v -0.000789 0.248520 0.023557 1.0000 1.0000 1.0000
v 0.029382 0.205853 -0.006614 1.0000 1.0000 1.0000
v 0.029382 0.248520 -0.006614 1.0000 1.0000 1.0000
vn -0.0044 0.9999 0.0125
vn -0.0000 1.0000 -0.0000
vn 0.0044 0.9999 0.0125
vn 0.5000 -0.0000 0.8660
vn -0.5000 -0.0000 0.8660
vn -1.0000 -0.0000 -0.0000
vn 1.0000 -0.0000 -0.0000
vn 0.1085 0.9780 -0.1780
vn -1.0000 -0.0001 -0.0000
vn -0.1054 0.9794 -0.1725
vn 0.0028 0.8628 -0.5056
vn -0.9174 -0.0016 -0.3980
vn 0.9171 0.0004 -0.3986
vn 0.0018 -0.0000 -1.0000
vn -0.0002 -1.0000 -0.0000
vn 0.9171 -0.0000 -0.3986
vn -0.9174 -0.0000 -0.3980
vn -0.5000 -0.0000 -0.8660
vn 0.5000 -0.0000 -0.8660
vn -0.0000 1.0000 -0.0023
vn -0.7071 -0.0000 -0.7071
vn 0.7071 -0.0000 -0.7071
vn 0.7071 -0.0000 0.7071
vn -0.7071 -0.0000 0.7071
vn -0.0000 -1.0000 -0.0000
s 0
f 6//1 12//1 7//1 1//1
f 4//2 10//2 11//2 5//2
f 2//2 8//2 9//2 3//2
f 5//2 11//2 12//2 6//2
f 3//2 9//2 10//2 4//2
f 1//3 7//3 8//3 2//3
f 10//4 15//4 16//4 11//4
f 9//5 14//5 15//5 10//5
f 9//6 13//6 18//6 14//6
f 16//7 19//7 17//7 11//7
f 17//8 7//8 12//8
f 17//7 12//7 11//7
f 9//9 8//9 13//9
f 13//10 8//10 7//10
f 22//11 21//11 20//11
f 13//12 20//12 18//12
f 13//11 7//11 20//11
f 20//11 7//11 22//11
f 22//11 7//11 21//11
f 17//13 19//13 21//13
f 7//11 17//11 21//11
f 21//14 29//14 28//14 20//14
f 24//15 23//15 26//15 28//15 29//15 27//15 25//15
f 18//6 26//6 23//6 14//6
f 19//16 27//16 29//16 21//16
f 14//5 23//5 24//5 15//5
f 16//7 25//7 27//7 19//7
f 20//17 28//17 26//17 18//17
f 15//4 24//4 25//4 16//4
f 34//6 37//6 38//6 30//6
f 32//7 40//7 41//7 35//7
f 30//5 38//5 39//5 31//5
f 33//18 36//18 37//18 34//18
f 35//19 41//19 36//19 33//19
f 31//4 39//4 40//4 32//4
f 42//20 43//20 44//20 47//20 45//20 46//20
f 48//21 49//21 51//21 50//21
f 50//22 51//22 55//22 54//22
f 54//23 55//23 53//23 52//23
f 52//24 53//24 49//24 48//24
f 50//25 54//25 52//25 48//25
f 55//2 51//2 49//2 53//2
