# Blender 4.1.1
# www.blender.org
o path_no_receive_shadow
v 26.000008 195.079926 -116.000031 0.6199 0.4745 0.2392
v 26.000008 195.079926 -120.000031 0.6199 0.4745 0.2392
v 26.000008 181.079926 -116.000031 0.6199 0.4745 0.2392
v 26.000008 181.079926 -120.000031 0.6199 0.4745 0.2392
v 26.000008 176.079926 -116.000031 0.6278 0.4784 0.2392
v 26.000008 176.079926 -120.000031 0.6278 0.4784 0.2392
v 56.000008 195.079926 -116.000031 0.6199 0.4745 0.2392
v 56.000008 195.079926 -120.000031 0.6199 0.4745 0.2392
v 56.000008 181.079926 -116.000031 0.6199 0.4745 0.2392
v 56.000008 181.079926 -120.000031 0.6199 0.4745 0.2392
v 56.000008 176.079926 -116.000031 0.6278 0.4784 0.2392
v 56.000008 176.079926 -120.000031 0.6278 0.4784 0.2392
v 74.000008 181.079926 -116.000031 0.6278 0.4784 0.2392
v 74.000008 181.079926 -120.000031 0.6278 0.4784 0.2392
v 74.000008 176.079926 -116.000031 0.6278 0.4784 0.2392
v 74.000008 176.079926 -120.000031 0.6278 0.4784 0.2392
v 93.000008 176.079926 -120.000031 0.6278 0.4784 0.2392
v 93.000008 176.079926 -116.000031 0.6278 0.4784 0.2392
v 93.000008 181.079926 -120.000031 0.6278 0.4784 0.2392
v 93.000008 181.079926 -116.000031 0.6278 0.4784 0.2392
v 74.000008 189.079926 -120.000031 0.6278 0.4784 0.2392
v 93.000008 189.079926 -120.000031 0.6278 0.4784 0.2392
v 74.000008 183.079926 -140.000031 0.6278 0.4784 0.2392
v 74.000008 176.079926 -140.000031 0.6278 0.4784 0.2392
v 93.000008 176.079926 -140.000031 0.6278 0.4784 0.2392
v 93.000008 183.079926 -140.000031 0.6278 0.4784 0.2392
v 74.000008 189.079926 -140.000031 0.6278 0.4784 0.2392
v 93.000008 189.079926 -140.000031 0.6278 0.4784 0.2392
v 74.000008 183.079926 -149.000031 0.6278 0.4784 0.2392
v 74.000008 176.079926 -149.000031 0.6278 0.4784 0.2392
v 93.000008 176.079926 -149.000031 0.6278 0.4784 0.2392
v 93.000008 183.079926 -149.000031 0.6278 0.4784 0.2392
v 74.000008 183.079926 -154.000031 0.6278 0.4784 0.2392
v 74.000008 176.079926 -154.000031 0.6278 0.4784 0.2392
v 93.000008 176.079926 -154.000031 0.6278 0.4784 0.2392
v 93.000008 183.079926 -154.000031 0.6278 0.4784 0.2392
v 107.000008 179.079926 -149.000031 0.6278 0.4784 0.2392
v 107.000008 186.079926 -149.000031 0.6278 0.4784 0.2392
v 107.000008 179.079926 -154.000031 0.6278 0.4784 0.2392
v 107.000008 186.079926 -154.000031 0.6278 0.4784 0.2392
v 122.000008 179.079926 -149.000031 0.6278 0.4784 0.2392
v 122.000008 186.079926 -149.000031 0.6278 0.4784 0.2392
v 122.000008 179.079926 -154.000031 0.6278 0.4784 0.2392
v 122.000008 186.079926 -154.000031 0.6278 0.4784 0.2392
v 107.000008 187.079956 -101.000031 0.6278 0.4784 0.2392
v 107.000008 194.079956 -101.000031 0.6278 0.4784 0.2392
v 122.000008 187.079956 -101.000031 0.6278 0.4784 0.2392
v 122.000008 194.079956 -101.000031 0.6278 0.4784 0.2392
v 107.000008 187.079956 -94.000031 0.6278 0.4784 0.2392
v 107.000008 194.079956 -94.000031 0.6278 0.4784 0.2392
v 122.000008 187.079956 -94.000031 0.6278 0.4784 0.2392
v 122.000008 194.079956 -94.000031 0.6278 0.4784 0.2392
v 94.000008 190.079956 -101.000031 0.6278 0.4784 0.2392
v 94.000008 197.079956 -101.000031 0.6278 0.4784 0.2392
v 94.000008 190.079956 -94.000031 0.6278 0.4784 0.2392
v 94.000008 197.079956 -94.000031 0.6278 0.4784 0.2392
v 94.000008 190.079956 -73.000031 0.6278 0.4784 0.2392
v 94.000008 197.079956 -73.000031 0.6278 0.4784 0.2392
v 94.000008 204.079956 -101.000031 0.6278 0.4784 0.2392
v 94.000008 204.079956 -94.000031 0.6278 0.4784 0.2392
v 94.000008 204.079956 -73.000031 0.6278 0.4784 0.2392
v 68.000008 190.079956 -101.000031 0.6278 0.4784 0.2392
v 68.000008 197.000000 -101.000031 0.6278 0.4784 0.2392
v 68.000008 204.079956 -101.000031 0.6278 0.4784 0.2392
v 68.000008 190.079956 -73.000031 0.6278 0.4784 0.2392
v 68.000008 197.079956 -73.000031 0.6278 0.4784 0.2392
v 68.000008 204.079956 -73.000031 0.6278 0.4784 0.2392
v 94.000008 190.079956 -101.000031 0.6278 0.4784 0.2392
v 94.000008 197.000000 -101.000031 0.6278 0.4784 0.2392
v 80.000008 190.079956 -101.000031 0.6278 0.4784 0.2392
v 80.000008 197.000000 -101.000031 0.6278 0.4784 0.2392
v 75.000008 190.079956 -101.000031 0.6278 0.4784 0.2392
v 75.000008 197.000000 -101.000031 0.6278 0.4784 0.2392
v 77.562210 175.948502 -122.786362 0.6278 0.4784 0.2392
v 77.562210 189.347748 -122.786362 0.6278 0.4784 0.2392
v 77.562210 175.948502 -125.027359 0.6278 0.4784 0.2392
v 77.562210 189.347748 -125.027359 0.6278 0.4784 0.2392
v 79.803207 175.948502 -122.786362 0.6278 0.4784 0.2392
v 79.803207 189.347748 -122.786362 0.6278 0.4784 0.2392
v 79.803207 175.948502 -125.027359 0.6278 0.4784 0.2392
v 79.803207 189.347748 -125.027359 0.6278 0.4784 0.2392
v 87.203606 175.948502 -122.786362 0.6278 0.4784 0.2392
v 87.203606 189.347748 -122.786362 0.6278 0.4784 0.2392
v 87.203606 175.948502 -125.027359 0.6278 0.4784 0.2392
v 87.203606 189.347748 -125.027359 0.6278 0.4784 0.2392
v 89.444603 175.948502 -122.786362 0.6278 0.4784 0.2392
v 89.444603 189.347748 -122.786362 0.6278 0.4784 0.2392
v 89.444603 175.948502 -125.027359 0.6278 0.4784 0.2392
v 89.444603 189.347748 -125.027359 0.6278 0.4784 0.2392
v 77.562210 175.948502 -133.924606 0.6278 0.4784 0.2392
v 77.562210 189.347748 -133.924606 0.6278 0.4784 0.2392
v 77.562210 175.948502 -136.165604 0.6278 0.4784 0.2392
v 77.562210 189.347748 -136.165604 0.6278 0.4784 0.2392
v 79.803207 175.948502 -133.924606 0.6278 0.4784 0.2392
v 79.803207 189.347748 -133.924606 0.6278 0.4784 0.2392
v 79.803207 175.948502 -136.165604 0.6278 0.4784 0.2392
v 79.803207 189.347748 -136.165604 0.6278 0.4784 0.2392
v 87.203606 175.948502 -133.924606 0.6278 0.4784 0.2392
v 87.203606 189.347748 -133.924606 0.6278 0.4784 0.2392
v 87.203606 175.948502 -136.165604 0.6278 0.4784 0.2392
v 87.203606 189.347748 -136.165604 0.6278 0.4784 0.2392
v 89.444603 175.948502 -133.924606 0.6278 0.4784 0.2392
v 89.444603 189.347748 -133.924606 0.6278 0.4784 0.2392
v 89.444603 175.948502 -136.165604 0.6278 0.4784 0.2392
v 89.444603 189.347748 -136.165604 0.6278 0.4784 0.2392
v 113.373276 185.428391 -106.734619 0.6278 0.4784 0.2392
v 113.373276 193.437698 -106.734619 0.6278 0.4784 0.2392
v 113.373276 185.428391 -108.975616 0.6278 0.4784 0.2392
v 113.373276 193.437698 -108.975616 0.6278 0.4784 0.2392
v 115.614273 185.428391 -106.734619 0.6278 0.4784 0.2392
v 115.614273 193.437698 -106.734619 0.6278 0.4784 0.2392
v 115.614273 185.428391 -108.975616 0.6278 0.4784 0.2392
v 115.614273 193.437698 -108.975616 0.6278 0.4784 0.2392
v 113.373276 182.757935 -121.543304 0.6278 0.4784 0.2392
v 113.373276 190.767227 -121.543304 0.6278 0.4784 0.2392
v 113.373276 182.757935 -123.784302 0.6278 0.4784 0.2392
v 113.373276 190.767227 -123.784302 0.6278 0.4784 0.2392
v 115.614273 182.757935 -121.543304 0.6278 0.4784 0.2392
v 115.614273 190.767227 -121.543304 0.6278 0.4784 0.2392
v 115.614273 182.757935 -123.784302 0.6278 0.4784 0.2392
v 115.614273 190.767227 -123.784302 0.6278 0.4784 0.2392
v 113.373276 180.297668 -138.284286 0.6278 0.4784 0.2392
v 113.373276 188.306961 -138.284286 0.6278 0.4784 0.2392
v 113.373276 180.297668 -140.525284 0.6278 0.4784 0.2392
v 113.373276 188.306961 -140.525284 0.6278 0.4784 0.2392
v 115.614273 180.297668 -138.284286 0.6278 0.4784 0.2392
v 115.614273 188.306961 -138.284286 0.6278 0.4784 0.2392
v 115.614273 180.297668 -140.525284 0.6278 0.4784 0.2392
v 115.614273 188.306961 -140.525284 0.6278 0.4784 0.2392
v 93.351685 204.159729 -74.123528 0.4659 0.3674 0.2273
v 94.017319 204.159729 -74.123528 0.4659 0.3674 0.2273
v 93.351685 190.046585 -74.123528 0.4659 0.3674 0.2273
v 94.017319 190.046585 -74.123528 0.4659 0.3674 0.2273
v 92.803207 204.159729 -73.583237 0.4659 0.3674 0.2273
v 92.803207 190.046585 -73.583237 0.4659 0.3674 0.2273
v 92.803207 204.159729 -72.989296 0.4659 0.3674 0.2273
v 92.803207 190.046585 -72.989296 0.4659 0.3674 0.2273
v 69.122963 190.046585 -72.984222 0.4659 0.3674 0.2273
v 69.122963 190.046585 -73.649857 0.4659 0.3674 0.2273
v 69.122963 204.159729 -72.984222 0.4659 0.3674 0.2273
v 69.122963 204.159729 -73.649857 0.4659 0.3674 0.2273
v 68.582664 204.159729 -74.198334 0.4659 0.3674 0.2273
v 68.582664 190.046585 -74.198334 0.4659 0.3674 0.2273
v 67.988724 204.159729 -74.198334 0.4659 0.3674 0.2273
v 67.988724 190.046585 -74.198334 0.4659 0.3674 0.2273
v 67.958771 190.046585 -99.901566 0.4659 0.3674 0.2273
v 68.624405 190.046585 -99.901566 0.4659 0.3674 0.2273
v 67.958771 204.159729 -99.901566 0.4659 0.3674 0.2273
v 68.624405 204.159729 -99.901566 0.4659 0.3674 0.2273
v 69.172882 204.159729 -100.441864 0.4659 0.3674 0.2273
v 69.172882 190.046585 -100.441864 0.4659 0.3674 0.2273
v 69.172882 204.159729 -101.035805 0.4659 0.3674 0.2273
v 69.172882 190.046585 -101.035805 0.4659 0.3674 0.2273
v 120.846390 187.026779 -93.950386 0.4659 0.3674 0.2273
v 120.846390 194.178726 -93.950386 0.4659 0.3674 0.2273
v 120.846390 187.026779 -94.544327 0.4659 0.3674 0.2273
v 120.846390 194.178726 -94.544327 0.4659 0.3674 0.2273
v 122.060509 187.026779 -95.084618 0.4659 0.3674 0.2273
v 121.394875 187.026779 -95.084618 0.4659 0.3674 0.2273
v 122.060509 194.178726 -95.084618 0.4659 0.3674 0.2273
v 121.394875 194.178726 -95.084618 0.4659 0.3674 0.2273
v 122.046455 179.007584 -152.830551 0.4659 0.3674 0.2273
v 122.046455 186.159515 -152.830551 0.4659 0.3674 0.2273
v 121.452515 179.007584 -152.830551 0.4659 0.3674 0.2273
v 121.452515 186.159515 -152.830551 0.4659 0.3674 0.2273
v 120.912224 179.007584 -154.044662 0.4659 0.3674 0.2273
v 120.912224 179.007584 -153.379044 0.4659 0.3674 0.2273
v 120.912224 186.159515 -154.044662 0.4659 0.3674 0.2273
v 120.912224 186.159515 -153.379044 0.4659 0.3674 0.2273
v 75.170479 176.005692 -154.036911 0.4659 0.3674 0.2273
v 75.170479 183.157639 -154.036926 0.4659 0.3674 0.2273
v 75.170479 176.005692 -153.442978 0.4659 0.3674 0.2273
v 75.170479 183.157639 -153.442978 0.4659 0.3674 0.2273
v 73.956367 176.005692 -152.902695 0.4659 0.3674 0.2273
v 74.622002 176.005692 -152.902695 0.4659 0.3674 0.2273
v 73.956367 183.157639 -152.902695 0.4659 0.3674 0.2273
v 74.622002 183.157639 -152.902695 0.4659 0.3674 0.2273
v 80.000008 190.079956 -101.020256 0.6278 0.4784 0.2392
v 80.000008 197.000000 -101.020256 0.6278 0.4784 0.2392
v 75.000008 190.079956 -101.020256 0.6278 0.4784 0.2392
v 75.000008 197.000000 -101.020256 0.6278 0.4784 0.2392
vn 1.0000 -0.0000 -0.0000
vn -1.0000 -0.0000 -0.0000
vn -0.0000 -0.0000 -1.0000
vn -0.0000 -0.0000 1.0000
vn -0.0000 1.0000 -0.0000
vn -0.0000 -1.0000 -0.0000
vn 0.2095 -0.9778 -0.0000
vn -0.2095 0.9778 -0.0000
vn -0.0000 0.9864 -0.1644
vn -0.0000 -0.9864 0.1644
vn 0.2249 0.9744 -0.0000
vn -0.2249 -0.9744 -0.0000
vn -0.7018 -0.0000 -0.7124
vn 0.7124 -0.0000 -0.7018
vn 0.6827 -0.0000 0.7307
vn -0.7124 -0.0000 0.7018
vn 0.7018 -0.0000 0.7124
s 0
f 1//1 4//1 2//1
f 3//1 6//1 4//1
f 8//2 9//2 7//2
f 7//3 3//3 1//3
f 10//4 2//4 4//4
f 5//5 12//5 6//5
f 3//3 11//3 5//3
f 12//4 4//4 6//4
f 11//5 16//5 12//5
f 9//3 15//3 11//3
f 10//6 13//6 9//6
f 12//4 14//4 10//4
f 13//3 18//3 15//3
f 14//6 20//6 13//6
f 26//2 31//2 25//2
f 15//5 17//5 16//5
f 21//3 19//3 14//3
f 21//1 23//1 27//1
f 17//5 24//5 16//5
f 19//2 25//2 17//2
f 22//2 26//2 19//2
f 21//6 28//6 22//6
f 24//1 14//1 16//1
f 18//2 19//2 17//2
f 24//1 29//1 23//1
f 25//5 30//5 24//5
f 27//4 26//4 28//4
f 23//6 32//6 26//6
f 29//6 36//6 32//6
f 31//5 34//5 30//5
f 30//1 33//1 29//1
f 35//4 33//4 34//4
f 36//4 39//4 40//4
f 36//7 38//7 32//7
f 31//8 39//8 35//8
f 32//3 37//3 31//3
f 40//6 42//6 38//6
f 38//1 45//1 37//1
f 37//5 43//5 39//5
f 39//4 44//4 40//4
f 42//2 43//2 41//2
f 37//9 47//9 41//9
f 42//10 46//10 38//10
f 42//2 47//2 48//2
f 48//6 50//6 46//6
f 46//4 53//4 45//4
f 45//5 51//5 47//5
f 47//2 52//2 48//2
f 50//3 51//3 49//3
f 45//11 55//11 49//11
f 50//12 54//12 46//12
f 50//3 55//3 56//3
f 55//2 58//2 56//2
f 58//2 60//2 56//2
f 56//2 59//2 54//2
f 63//4 59//4 64//4
f 64//1 66//1 63//1
f 63//1 65//1 62//1
f 65//3 58//3 57//3
f 66//3 61//3 58//3
f 65//5 53//5 62//5
f 59//6 67//6 64//6
f 69//4 70//4 68//4
f 62//4 73//4 63//4
f 75//2 76//2 74//2
f 77//3 80//3 76//3
f 81//1 78//1 80//1
f 79//4 74//4 78//4
f 83//2 84//2 82//2
f 85//3 88//3 84//3
f 89//1 86//1 88//1
f 87//4 82//4 86//4
f 91//2 92//2 90//2
f 93//3 96//3 92//3
f 97//1 94//1 96//1
f 95//4 90//4 94//4
f 99//2 100//2 98//2
f 101//3 104//3 100//3
f 105//1 102//1 104//1
f 103//4 98//4 102//4
f 107//2 108//2 106//2
f 109//3 112//3 108//3
f 113//1 110//1 112//1
f 111//4 106//4 110//4
f 115//2 116//2 114//2
f 117//3 120//3 116//3
f 121//1 118//1 120//1
f 119//4 114//4 118//4
f 123//2 124//2 122//2
f 125//3 128//3 124//3
f 129//1 126//1 128//1
f 127//4 122//4 126//4
f 1//1 3//1 4//1
f 3//1 5//1 6//1
f 8//2 10//2 9//2
f 7//3 9//3 3//3
f 10//4 8//4 2//4
f 5//5 11//5 12//5
f 3//3 9//3 11//3
f 12//4 10//4 4//4
f 11//5 15//5 16//5
f 9//3 13//3 15//3
f 10//6 14//6 13//6
f 12//4 16//4 14//4
f 13//3 20//3 18//3
f 14//6 19//6 20//6
f 26//2 32//2 31//2
f 15//5 18//5 17//5
f 21//3 22//3 19//3
f 21//1 14//1 23//1
f 17//5 25//5 24//5
f 19//2 26//2 25//2
f 22//2 28//2 26//2
f 21//6 27//6 28//6
f 24//1 23//1 14//1
f 18//2 20//2 19//2
f 24//1 30//1 29//1
f 25//5 31//5 30//5
f 27//4 23//4 26//4
f 23//6 29//6 32//6
f 29//6 33//6 36//6
f 31//5 35//5 34//5
f 30//1 34//1 33//1
f 35//4 36//4 33//4
f 36//4 35//4 39//4
f 36//7 40//7 38//7
f 31//8 37//8 39//8
f 32//3 38//3 37//3
f 40//6 44//6 42//6
f 38//1 46//1 45//1
f 37//5 41//5 43//5
f 39//4 43//4 44//4
f 42//2 44//2 43//2
f 37//9 45//9 47//9
f 42//10 48//10 46//10
f 42//2 41//2 47//2
f 48//6 52//6 50//6
f 46//4 54//4 53//4
f 45//5 49//5 51//5
f 47//2 51//2 52//2
f 50//3 52//3 51//3
f 45//11 53//11 55//11
f 50//12 56//12 54//12
f 50//3 49//3 55//3
f 55//2 57//2 58//2
f 58//2 61//2 60//2
f 56//2 60//2 59//2
f 63//4 69//4 59//4
f 64//1 67//1 66//1
f 63//1 66//1 65//1
f 65//3 66//3 58//3
f 66//3 67//3 61//3
f 65//5 57//5 53//5
f 59//6 61//6 67//6
f 69//4 71//4 70//4
f 62//4 72//4 73//4
f 75//2 77//2 76//2
f 77//3 81//3 80//3
f 81//1 79//1 78//1
f 79//4 75//4 74//4
f 83//2 85//2 84//2
f 85//3 89//3 88//3
f 89//1 87//1 86//1
f 87//4 83//4 82//4
f 91//2 93//2 92//2
f 93//3 97//3 96//3
f 97//1 95//1 94//1
f 95//4 91//4 90//4
f 99//2 101//2 100//2
f 101//3 105//3 104//3
f 105//1 103//1 102//1
f 103//4 99//4 98//4
f 107//2 109//2 108//2
f 109//3 113//3 112//3
f 113//1 111//1 110//1
f 111//4 107//4 106//4
f 115//2 117//2 116//2
f 117//3 121//3 120//3
f 121//1 119//1 118//1
f 119//4 115//4 114//4
f 123//2 125//2 124//2
f 125//3 129//3 128//3
f 129//1 127//1 126//1
f 127//4 123//4 122//4
f 130//3 131//3 133//3 132//3
f 130//13 132//13 135//13 134//13
f 134//2 135//2 137//2 136//2
f 141//1 140//1 138//1 139//1
f 141//14 139//14 143//14 142//14
f 142//3 143//3 145//3 144//3
f 149//15 148//15 146//15 147//15 151//15 153//15 152//15 150//15
f 161//3 160//3 158//3 159//3
f 161//13 159//13 156//13 157//13
f 157//2 156//2 154//2 155//2
f 169//2 168//2 166//2 167//2
f 169//16 167//16 164//16 165//16
f 165//4 164//4 162//4 163//4
f 177//4 176//4 174//4 175//4
f 177//17 175//17 172//17 173//17
f 173//1 172//1 170//1 171//1
f 71//6 73//6 181//6 179//6
f 73//1 72//1 180//1 181//1
f 70//2 71//2 179//2 178//2
