# Blender 4.0.2
# www.blender.org
o mask
v -0.000000 1.045678 -0.107016
v 0.124937 0.969429 -0.100183
v 0.183003 0.896618 -0.082252
v 0.182948 0.789114 -0.052370
v 0.113662 0.648626 -0.020915
v -0.124937 0.969429 -0.100183
v -0.183003 0.896618 -0.082252
v -0.182948 0.789114 -0.052369
v -0.113662 0.648626 -0.020915
v -0.000000 0.977867 -0.145753
v 0.080432 0.928584 -0.146002
v 0.117815 0.880829 -0.138930
v 0.117779 0.810114 -0.126304
v 0.073174 0.718164 -0.114673
v -0.080432 0.928584 -0.146002
v -0.117815 0.880829 -0.138930
v -0.117779 0.810114 -0.126304
v -0.073174 0.718164 -0.114673
vn 0.6945 -0.1673 -0.6998
vn -0.6398 -0.4314 -0.6360
vn 0.3273 0.4932 -0.8060
vn -0.5688 0.2907 -0.7694
vn 0.6398 -0.4314 -0.6360
vn -0.6945 -0.1673 -0.6998
vn -0.3273 0.4932 -0.8060
vn 0.5688 0.2907 -0.7694
vn -0.0000 -0.8032 -0.5957
vn -0.0000 -0.1367 -0.9906
vt 0.199390 0.680579
vt 0.199482 0.409824
vt 0.306531 0.462715
vt 0.306472 0.640815
vt 0.686706 0.055997
vt 0.800519 0.409824
vt 0.693469 0.462715
vt 0.620198 0.231133
vt 0.500000 1.055996
vt 0.294773 0.863959
vt 0.367878 0.761088
vt 0.500000 0.885212
vt 0.800610 0.680579
vt 0.705227 0.863960
vt 0.632122 0.761088
vt 0.693528 0.640815
vt 0.313294 0.055997
vt 0.379802 0.231133
s 0
f 3/1/1 4/2/1 13/3/1 12/4/1
f 9/5/2 8/6/2 17/7/2 18/8/2
f 1/9/3 2/10/3 11/11/3 10/12/3
f 7/13/4 6/14/4 15/15/4 16/16/4
f 4/2/5 5/17/5 14/18/5 13/3/5
f 8/6/6 7/13/6 16/16/6 17/7/6
f 6/14/7 1/9/7 10/12/7 15/15/7
f 2/10/8 3/1/8 12/4/8 11/11/8
f 5/17/9 9/5/9 18/8/9 14/18/9
f 13/3/10 14/18/10 18/8/10 17/7/10 16/16/10 15/15/10 10/12/10 11/11/10 12/4/10
