# Blender 4.0.1
# www.blender.org
o Cylinder.002
v -0.806641 2.644204 -1.947393 0.4157 0.4157 0.4157
v -0.806641 4.086380 -1.947393 0.4157 0.4157 0.4157
v 0.806643 2.644204 -1.947393 0.4157 0.4157 0.4157
v 0.806643 4.086380 -1.947393 0.4157 0.4157 0.4157
v 1.947408 2.644204 -0.806629 0.4157 0.4157 0.4157
v 1.947408 4.086380 -0.806629 0.4157 0.4157 0.4157
v 1.947408 2.644204 0.806655 0.4157 0.4157 0.4157
v 1.947408 4.086380 0.806655 0.4157 0.4157 0.4157
v 0.806643 2.644204 1.947420 0.4157 0.4157 0.4157
v 0.806643 4.086380 1.947420 0.4157 0.4157 0.4157
v -0.806641 2.644204 1.947420 0.4157 0.4157 0.4157
v -0.806641 4.086380 1.947420 0.4157 0.4157 0.4157
v -1.947405 2.644204 0.806655 0.4157 0.4157 0.4157
v -1.947405 4.086380 0.806655 0.4157 0.4157 0.4157
v -1.947405 2.644204 -0.806629 0.4157 0.4157 0.4157
v -1.947405 4.086380 -0.806629 0.4157 0.4157 0.4157
v 0.000002 3.621774 3.862409 0.3451 0.3451 0.3451
v 0.164860 3.526593 3.862409 0.3451 0.3451 0.3451
v 0.000001 3.657174 1.890111 0.3451 0.3451 0.3451
v 0.000001 3.657174 3.730168 0.3451 0.3451 0.3451
v 0.195517 3.544293 1.890111 0.3451 0.3451 0.3451
v 0.195516 3.544293 3.730167 0.3451 0.3451 0.3451
v 0.195517 3.318531 1.890111 0.3451 0.3451 0.3451
v 0.195516 3.318531 3.730167 0.3451 0.3451 0.3451
v 0.000001 3.205650 1.890111 0.3451 0.3451 0.3451
v 0.000001 3.205650 3.730168 0.3451 0.3451 0.3451
v -0.195514 3.318531 1.890111 0.3451 0.3451 0.3451
v -0.195515 3.318531 3.730167 0.3451 0.3451 0.3451
v -0.195514 3.544293 1.890111 0.3451 0.3451 0.3451
v -0.195515 3.544293 3.730167 0.3451 0.3451 0.3451
v 0.164860 3.336230 3.862409 0.3451 0.3451 0.3451
v 0.000002 3.241049 3.862409 0.3451 0.3451 0.3451
v -0.164858 3.336230 3.862409 0.3451 0.3451 0.3451
v -0.164858 3.526593 3.862409 0.3451 0.3451 0.3451
v -0.286959 3.265734 3.862409 0.3451 0.3451 0.3451
v -0.286960 3.265735 3.730167 0.3451 0.3451 0.3451
v 0.000002 3.100058 3.862409 0.3451 0.3451 0.3451
v 0.000001 3.100058 3.730168 0.3451 0.3451 0.3451
v 0.000002 3.762765 3.862409 0.3451 0.3451 0.3451
v -0.286959 3.597088 3.862409 0.3451 0.3451 0.3451
v 0.286961 3.597089 3.730167 0.3451 0.3451 0.3451
v 0.000001 3.762765 3.730168 0.3451 0.3451 0.3451
v 0.286961 3.265735 3.730167 0.3451 0.3451 0.3451
v 0.286961 3.265735 3.862409 0.3451 0.3451 0.3451
v 0.286961 3.597088 3.862409 0.3451 0.3451 0.3451
v -0.286960 3.597089 3.730167 0.3451 0.3451 0.3451
v 0.000001 3.621774 3.201203 0.0000 0.0000 0.0000
v -0.164858 3.526593 3.201202 0.0000 0.0000 0.0000
v -0.164858 3.336230 3.201202 0.0000 0.0000 0.0000
v 0.000001 3.241049 3.201203 0.0000 0.0000 0.0000
v 0.164860 3.336230 3.201203 0.0000 0.0000 0.0000
v 0.164860 3.526593 3.201203 0.0000 0.0000 0.0000
v 0.000001 3.621774 -3.869932 0.3451 0.3451 0.3451
v -0.164858 3.526593 -3.869932 0.3451 0.3451 0.3451
v 0.000001 3.657174 -1.897634 0.3451 0.3451 0.3451
v 0.000002 3.657174 -3.737691 0.3451 0.3451 0.3451
v -0.195514 3.544293 -1.897634 0.3451 0.3451 0.3451
v -0.195514 3.544293 -3.737690 0.3451 0.3451 0.3451
v -0.195514 3.318531 -1.897634 0.3451 0.3451 0.3451
v -0.195514 3.318531 -3.737690 0.3451 0.3451 0.3451
v 0.000001 3.205650 -1.897634 0.3451 0.3451 0.3451
v 0.000002 3.205650 -3.737691 0.3451 0.3451 0.3451
v 0.195517 3.318531 -1.897634 0.3451 0.3451 0.3451
v 0.195517 3.318531 -3.737690 0.3451 0.3451 0.3451
v 0.195517 3.544293 -1.897634 0.3451 0.3451 0.3451
v 0.195517 3.544293 -3.737690 0.3451 0.3451 0.3451
v -0.164857 3.336230 -3.869932 0.3451 0.3451 0.3451
v 0.000001 3.241049 -3.869932 0.3451 0.3451 0.3451
v 0.164860 3.336230 -3.869932 0.3451 0.3451 0.3451
v 0.164860 3.526593 -3.869932 0.3451 0.3451 0.3451
v 0.286962 3.265734 -3.869932 0.3451 0.3451 0.3451
v 0.286962 3.265735 -3.737690 0.3451 0.3451 0.3451
v 0.000001 3.100058 -3.869932 0.3451 0.3451 0.3451
v 0.000002 3.100058 -3.737691 0.3451 0.3451 0.3451
v 0.000001 3.762765 -3.869932 0.3451 0.3451 0.3451
v 0.286962 3.597088 -3.869932 0.3451 0.3451 0.3451
v -0.286958 3.597089 -3.737690 0.3451 0.3451 0.3451
v 0.000002 3.762765 -3.737691 0.3451 0.3451 0.3451
v -0.286958 3.265735 -3.737690 0.3451 0.3451 0.3451
v -0.286959 3.265734 -3.869932 0.3451 0.3451 0.3451
v -0.286959 3.597088 -3.869932 0.3451 0.3451 0.3451
v 0.286962 3.597089 -3.737690 0.3451 0.3451 0.3451
v 0.000001 3.621774 -3.208726 0.0000 0.0000 0.0000
v 0.164860 3.526593 -3.208725 0.0000 0.0000 0.0000
v 0.164860 3.336230 -3.208725 0.0000 0.0000 0.0000
v 0.000001 3.241049 -3.208726 0.0000 0.0000 0.0000
v -0.164857 3.336230 -3.208725 0.0000 0.0000 0.0000
v -0.164858 3.526593 -3.208725 0.0000 0.0000 0.0000
v -3.866171 3.621774 -0.003762 0.3451 0.3451 0.3451
v -3.866170 3.526593 0.161097 0.3451 0.3451 0.3451
v -1.893872 3.657174 -0.003762 0.3451 0.3451 0.3451
v -3.733929 3.657174 -0.003762 0.3451 0.3451 0.3451
v -1.893872 3.544293 0.191753 0.3451 0.3451 0.3451
v -3.733929 3.544293 0.191753 0.3451 0.3451 0.3451
v -1.893872 3.318531 0.191753 0.3451 0.3451 0.3451
v -3.733929 3.318531 0.191753 0.3451 0.3451 0.3451
v -1.893872 3.205650 -0.003762 0.3451 0.3451 0.3451
v -3.733929 3.205650 -0.003762 0.3451 0.3451 0.3451
v -1.893872 3.318531 -0.199278 0.3451 0.3451 0.3451
v -3.733929 3.318531 -0.199278 0.3451 0.3451 0.3451
v -1.893872 3.544293 -0.199278 0.3451 0.3451 0.3451
v -3.733929 3.544293 -0.199278 0.3451 0.3451 0.3451
v -3.866170 3.336230 0.161097 0.3451 0.3451 0.3451
v -3.866171 3.241049 -0.003762 0.3451 0.3451 0.3451
v -3.866170 3.336230 -0.168621 0.3451 0.3451 0.3451
v -3.866170 3.526593 -0.168621 0.3451 0.3451 0.3451
v -3.866170 3.265734 -0.290723 0.3451 0.3451 0.3451
v -3.733928 3.265735 -0.290723 0.3451 0.3451 0.3451
v -3.866171 3.100058 -0.003762 0.3451 0.3451 0.3451
v -3.733929 3.100058 -0.003762 0.3451 0.3451 0.3451
v -3.866171 3.762765 -0.003762 0.3451 0.3451 0.3451
v -3.866170 3.597088 -0.290723 0.3451 0.3451 0.3451
v -3.733928 3.597089 0.283198 0.3451 0.3451 0.3451
v -3.733929 3.762765 -0.003762 0.3451 0.3451 0.3451
v -3.733928 3.265735 0.283197 0.3451 0.3451 0.3451
v -3.866170 3.265734 0.283198 0.3451 0.3451 0.3451
v -3.866170 3.597088 0.283198 0.3451 0.3451 0.3451
v -3.733928 3.597089 -0.290723 0.3451 0.3451 0.3451
v -3.204964 3.621774 -0.003762 0.0000 0.0000 0.0000
v -3.204963 3.526593 -0.168621 0.0000 0.0000 0.0000
v -3.204963 3.336230 -0.168621 0.0000 0.0000 0.0000
v -3.204964 3.241049 -0.003762 0.0000 0.0000 0.0000
v -3.204964 3.336230 0.161097 0.0000 0.0000 0.0000
v -3.204964 3.526593 0.161097 0.0000 0.0000 0.0000
v 3.866172 3.621774 -0.003763 0.3451 0.3451 0.3451
v 3.866172 3.526593 -0.168621 0.3451 0.3451 0.3451
v 1.893873 3.657174 -0.003762 0.3451 0.3451 0.3451
v 3.733931 3.657174 -0.003762 0.3451 0.3451 0.3451
v 1.893873 3.544293 -0.199278 0.3451 0.3451 0.3451
v 3.733930 3.544293 -0.199277 0.3451 0.3451 0.3451
v 1.893873 3.318531 -0.199278 0.3451 0.3451 0.3451
v 3.733930 3.318531 -0.199277 0.3451 0.3451 0.3451
v 1.893873 3.205650 -0.003762 0.3451 0.3451 0.3451
v 3.733931 3.205650 -0.003762 0.3451 0.3451 0.3451
v 1.893873 3.318531 0.191753 0.3451 0.3451 0.3451
v 3.733930 3.318531 0.191753 0.3451 0.3451 0.3451
v 1.893873 3.544293 0.191753 0.3451 0.3451 0.3451
v 3.733930 3.544293 0.191753 0.3451 0.3451 0.3451
v 3.866172 3.336230 -0.168621 0.3451 0.3451 0.3451
v 3.866172 3.241049 -0.003763 0.3451 0.3451 0.3451
v 3.866172 3.336230 0.161097 0.3451 0.3451 0.3451
v 3.866172 3.526593 0.161097 0.3451 0.3451 0.3451
v 3.866172 3.265734 0.283198 0.3451 0.3451 0.3451
v 3.733930 3.265735 0.283198 0.3451 0.3451 0.3451
v 3.866172 3.100058 -0.003763 0.3451 0.3451 0.3451
v 3.733931 3.100058 -0.003762 0.3451 0.3451 0.3451
v 3.866172 3.762765 -0.003763 0.3451 0.3451 0.3451
v 3.866172 3.597088 0.283198 0.3451 0.3451 0.3451
v 3.733930 3.597089 -0.290721 0.3451 0.3451 0.3451
v 3.733931 3.762765 -0.003762 0.3451 0.3451 0.3451
v 3.733930 3.265735 -0.290721 0.3451 0.3451 0.3451
v 3.866171 3.265734 -0.290722 0.3451 0.3451 0.3451
v 3.866171 3.597088 -0.290722 0.3451 0.3451 0.3451
v 3.733930 3.597089 0.283198 0.3451 0.3451 0.3451
v 3.204965 3.621774 -0.003762 0.0000 0.0000 0.0000
v 3.204964 3.526593 0.161097 0.0000 0.0000 0.0000
v 3.204964 3.336230 0.161097 0.0000 0.0000 0.0000
v 3.204965 3.241049 -0.003762 0.0000 0.0000 0.0000
v 3.204965 3.336230 -0.168621 0.0000 0.0000 0.0000
v 3.204964 3.526593 -0.168621 0.0000 0.0000 0.0000
vn -0.0000 -0.0000 -1.0000
vn 0.7071 -0.0000 -0.7071
vn 1.0000 -0.0000 -0.0000
vn 0.7071 -0.0000 0.7071
vn -0.0000 -0.0000 1.0000
vn -0.7071 -0.0000 0.7071
vn -0.0000 1.0000 -0.0000
vn -1.0000 -0.0000 -0.0000
vn -0.7071 -0.0000 -0.7071
vn -0.0000 -1.0000 -0.0000
vn 0.5000 0.8660 -0.0000
vn 0.5000 -0.8660 -0.0000
vn -0.5000 -0.8660 -0.0000
vn -0.5000 0.8660 -0.0000
vn -0.0000 0.8660 0.5000
vn -0.0000 -0.8660 0.5000
vn -0.0000 -0.8660 -0.5000
vn -0.0000 0.8660 -0.5000
s 0
f 1//1 2//1 4//1 3//1
f 3//2 4//2 6//2 5//2
f 5//3 6//3 8//3 7//3
f 7//4 8//4 10//4 9//4
f 9//5 10//5 12//5 11//5
f 11//6 12//6 14//6 13//6
f 4//7 2//7 16//7 14//7 12//7 10//7 8//7 6//7
f 13//8 14//8 16//8 15//8
f 15//9 16//9 2//9 1//9
f 1//10 3//10 5//10 7//10 9//10 11//10 13//10 15//10
f 26//1 24//1 43//1 38//1
f 19//11 20//11 22//11 21//11
f 30//1 28//1 36//1 46//1
f 21//3 22//3 24//3 23//3
f 20//1 30//1 46//1 42//1
f 23//12 24//12 26//12 25//12
f 22//1 20//1 42//1 41//1
f 25//13 26//13 28//13 27//13
f 31//5 32//5 37//5 44//5
f 17//5 18//5 45//5 39//5
f 27//8 28//8 30//8 29//8
f 29//14 30//14 20//14 19//14
f 31//8 18//8 52//8 51//8
f 43//3 41//3 45//3 44//3
f 46//8 36//8 35//8 40//8
f 36//13 38//13 37//13 35//13
f 38//12 43//12 44//12 37//12
f 42//14 46//14 40//14 39//14
f 41//11 42//11 39//11 45//11
f 34//5 17//5 39//5 40//5
f 18//5 31//5 44//5 45//5
f 32//5 33//5 35//5 37//5
f 33//5 34//5 40//5 35//5
f 28//1 26//1 38//1 36//1
f 24//1 22//1 41//1 43//1
f 52//5 47//5 48//5 49//5 50//5 51//5
f 18//13 17//13 47//13 52//13
f 17//12 34//12 48//12 47//12
f 33//11 32//11 50//11 49//11
f 34//3 33//3 49//3 48//3
f 32//14 31//14 51//14 50//14
f 62//5 60//5 79//5 74//5
f 55//14 56//14 58//14 57//14
f 66//5 64//5 72//5 82//5
f 57//8 58//8 60//8 59//8
f 56//5 66//5 82//5 78//5
f 59//13 60//13 62//13 61//13
f 58//5 56//5 78//5 77//5
f 61//12 62//12 64//12 63//12
f 67//1 68//1 73//1 80//1
f 53//1 54//1 81//1 75//1
f 63//3 64//3 66//3 65//3
f 65//11 66//11 56//11 55//11
f 67//3 54//3 88//3 87//3
f 79//8 77//8 81//8 80//8
f 82//3 72//3 71//3 76//3
f 72//12 74//12 73//12 71//12
f 74//13 79//13 80//13 73//13
f 78//11 82//11 76//11 75//11
f 77//14 78//14 75//14 81//14
f 70//1 53//1 75//1 76//1
f 54//1 67//1 80//1 81//1
f 68//1 69//1 71//1 73//1
f 69//1 70//1 76//1 71//1
f 64//5 62//5 74//5 72//5
f 60//5 58//5 77//5 79//5
f 88//1 83//1 84//1 85//1 86//1 87//1
f 54//12 53//12 83//12 88//12
f 53//13 70//13 84//13 83//13
f 69//14 68//14 86//14 85//14
f 70//8 69//8 85//8 84//8
f 68//11 67//11 87//11 86//11
f 98//3 96//3 115//3 110//3
f 91//15 92//15 94//15 93//15
f 102//3 100//3 108//3 118//3
f 93//5 94//5 96//5 95//5
f 92//3 102//3 118//3 114//3
f 95//16 96//16 98//16 97//16
f 94//3 92//3 114//3 113//3
f 97//17 98//17 100//17 99//17
f 103//8 104//8 109//8 116//8
f 89//8 90//8 117//8 111//8
f 99//1 100//1 102//1 101//1
f 101//18 102//18 92//18 91//18
f 103//1 90//1 124//1 123//1
f 115//5 113//5 117//5 116//5
f 118//1 108//1 107//1 112//1
f 108//17 110//17 109//17 107//17
f 110//16 115//16 116//16 109//16
f 114//18 118//18 112//18 111//18
f 113//15 114//15 111//15 117//15
f 106//8 89//8 111//8 112//8
f 90//8 103//8 116//8 117//8
f 104//8 105//8 107//8 109//8
f 105//8 106//8 112//8 107//8
f 100//3 98//3 110//3 108//3
f 96//3 94//3 113//3 115//3
f 90//17 89//17 119//17 124//17
f 89//16 106//16 120//16 119//16
f 105//15 104//15 122//15 121//15
f 106//5 105//5 121//5 120//5
f 104//18 103//18 123//18 122//18
f 134//8 132//8 151//8 146//8
f 127//18 128//18 130//18 129//18
f 138//8 136//8 144//8 154//8
f 129//1 130//1 132//1 131//1
f 128//8 138//8 154//8 150//8
f 131//17 132//17 134//17 133//17
f 130//8 128//8 150//8 149//8
f 133//16 134//16 136//16 135//16
f 139//3 140//3 145//3 152//3
f 125//3 126//3 153//3 147//3
f 135//5 136//5 138//5 137//5
f 137//15 138//15 128//15 127//15
f 139//5 126//5 160//5 159//5
f 151//1 149//1 153//1 152//1
f 154//5 144//5 143//5 148//5
f 144//16 146//16 145//16 143//16
f 146//17 151//17 152//17 145//17
f 150//15 154//15 148//15 147//15
f 149//18 150//18 147//18 153//18
f 142//3 125//3 147//3 148//3
f 126//3 139//3 152//3 153//3
f 140//3 141//3 143//3 145//3
f 141//3 142//3 148//3 143//3
f 136//8 134//8 146//8 144//8
f 132//8 130//8 149//8 151//8
f 160//3 155//3 156//3 157//3 158//3 159//3
f 126//16 125//16 155//16 160//16
f 125//17 142//17 156//17 155//17
f 141//18 140//18 158//18 157//18
f 142//1 141//1 157//1 156//1
f 140//15 139//15 159//15 158//15
f 119//8 120//8 121//8 122//8 123//8 124//8
