# Blender 3.6.2
# www.blender.org
o Cylinder
v 0.191342 0.461940 -0.100000
v 0.191342 0.461940 0.100000
v 0.461940 0.191342 -0.100000
v 0.461940 0.191342 0.100000
v 0.461940 -0.191342 -0.100000
v 0.461940 -0.191342 0.100000
v 0.191342 -0.461940 -0.100000
v 0.191342 -0.461940 0.100000
v -0.191342 -0.461940 -0.100000
v -0.191342 -0.461940 0.100000
v -0.461940 -0.191342 -0.100000
v -0.461940 -0.191342 0.100000
v -0.461940 0.191342 -0.100000
v -0.461940 0.191342 0.100000
v -0.191342 0.461940 -0.100000
v -0.191342 0.461940 0.100000
v 1.711940 0.191342 -0.100000
v 1.711940 0.191342 0.100000
v 1.711940 -0.191342 -0.100000
v 1.711940 -0.191342 0.100000
v 1.507650 -0.191342 -0.100000
v 1.507650 -0.191342 0.100000
v 1.507650 0.191342 -0.100000
v 1.507650 0.191342 0.100000
v 1.315110 -0.191342 0.100000
v 1.315110 0.191342 0.100000
v 1.315110 -0.191342 -0.100000
v 1.315110 0.191342 -0.100000
v 1.116272 -0.191342 0.100000
v 1.116272 0.191342 0.100000
v 1.116272 -0.191342 -0.100000
v 1.116272 0.191342 -0.100000
v 1.275343 -0.491342 0.060000
v 1.275343 -0.491342 -0.060000
v 1.156040 -0.491342 0.060000
v 1.156040 -0.491342 -0.060000
v 1.671082 -0.491342 -0.060000
v 1.671082 -0.491342 0.060000
v 1.548508 -0.491342 -0.060000
v 1.548508 -0.491342 0.060000
vn 0.2971 0.7173 -0.6303
vn 0.2971 0.7173 0.6303
vn 0.2275 0.5491 0.8042
vn 0.2275 0.5491 -0.8042
vn 0.2275 -0.5491 -0.8042
vn 0.2275 -0.5491 0.8042
vn 0.2971 -0.7173 0.6303
vn 0.2971 -0.7173 -0.6303
vn -0.2971 -0.7173 0.6303
vn -0.2971 -0.7173 -0.6303
vn -0.7173 -0.2971 0.6303
vn -0.7173 -0.2971 -0.6303
vn -0.7173 0.2971 0.6303
vn -0.7173 0.2971 -0.6303
vn -0.2971 0.7173 0.6303
vn -0.2971 0.7173 -0.6303
vn -0.2760 -0.3783 -0.8836
vn -0.0000 0.7071 -0.7071
vn 0.5774 0.5774 -0.5774
vn 0.7045 -0.0903 -0.7040
vn -0.0000 0.7071 0.7071
vn -0.2760 -0.3783 0.8836
vn 0.7045 -0.0903 0.7040
vn 0.5774 0.5774 0.5774
vn 0.2761 -0.3773 0.8840
vn 0.2761 -0.3773 -0.8840
vn -0.2761 -0.3773 -0.8840
vn -0.2761 -0.3773 0.8840
vn -0.5399 -0.6461 0.5396
vn 0.5399 -0.6461 0.5396
vn 0.5399 -0.6461 -0.5396
vn -0.5399 -0.6461 -0.5396
vn -0.5386 -0.6470 0.5397
vn 0.5386 -0.6470 0.5397
vn 0.5386 -0.6470 -0.5397
vn -0.5386 -0.6470 -0.5397
s 1
f 1//1 2//2 4//3 3//4
f 5//5 6//6 8//7 7//8
f 7//8 8//7 10//9 9//10
f 9//10 10//9 12//11 11//12
f 11//12 12//11 14//13 13//14
f 4//3 2//2 16//15 14//13 12//11 10//9 8//7 6//6
f 13//14 14//13 16//15 15//16
f 15//16 16//15 2//2 1//1
f 1//1 3//4 5//5 7//8 9//10 11//12 13//14 15//16
f 21//17 23//18 17//19 19//20
f 24//21 22//22 20//23 18//24
f 23//18 24//21 18//24 17//19
f 17//19 18//24 20//23 19//20
f 28//18 26//21 24//21 23//18
f 26//21 25//25 22//22 24//21
f 27//26 28//18 23//18 21//17
f 25//25 27//26 21//17 22//22
f 31//27 32//18 28//18 27//26
f 30//21 29//28 25//25 26//21
f 32//18 30//21 26//21 28//18
f 3//4 4//3 30//21 32//18
f 4//3 6//6 29//28 30//21
f 5//5 3//4 32//18 31//27
f 6//6 5//5 31//27 29//28
f 25//25 29//28 35//29 33//30
f 27//26 25//25 33//30 34//31
f 29//28 31//27 36//32 35//29
f 31//27 27//26 34//31 36//32
f 20//23 22//22 40//33 38//34
f 19//20 20//23 38//34 37//35
f 21//17 19//20 37//35 39//36
f 22//22 21//17 39//36 40//33
f 38//34 40//33 39//36 37//35
f 36//32 34//31 33//30 35//29
