# Blender 3.6.2
# www.blender.org
o Cylinder
v 0.084897 -0.204960 0.221847 0.4392 0.4392 0.4392
v 0.084897 -0.204960 -0.221847 0.4392 0.4392 0.4392
v 0.204960 -0.084897 0.221847 0.4392 0.4392 0.4392
v 0.204960 -0.084897 -0.221847 0.4392 0.4392 0.4392
v 0.204960 0.084897 0.221847 0.4392 0.4392 0.4392
v 0.204960 0.084897 -0.221847 0.4392 0.4392 0.4392
v 0.084897 0.204960 0.221847 0.4392 0.4392 0.4392
v 0.084897 0.204960 -0.221847 0.4392 0.4392 0.4392
v -0.084897 0.204960 0.221847 0.4392 0.4392 0.4392
v -0.084897 0.204960 -0.221847 0.4392 0.4392 0.4392
v -0.204960 0.084897 0.221847 0.4392 0.4392 0.4392
v -0.204960 0.084897 -0.221847 0.4392 0.4392 0.4392
v -0.204960 -0.084897 0.221847 0.4392 0.4392 0.4392
v -0.204960 -0.084897 -0.221847 0.4392 0.4392 0.4392
v -0.084897 -0.204960 0.221847 0.4392 0.4392 0.4392
v -0.084897 -0.204960 -0.221847 0.4392 0.4392 0.4392
vn 0.7071 -0.7071 -0.0000
vn 1.0000 -0.0000 -0.0000
vn 0.7071 0.7071 -0.0000
vn -0.0000 1.0000 -0.0000
vn -0.7071 0.7071 -0.0000
vn -1.0000 -0.0000 -0.0000
vn -0.0000 -0.0000 -1.0000
vn -0.7071 -0.7071 -0.0000
vn -0.0000 -1.0000 -0.0000
s 0
f 1//1 2//1 4//1 3//1
f 3//2 4//2 6//2 5//2
f 5//3 6//3 8//3 7//3
f 7//4 8//4 10//4 9//4
f 9//5 10//5 12//5 11//5
f 11//6 12//6 14//6 13//6
f 4//7 2//7 16//7 14//7 12//7 10//7 8//7 6//7
f 13//8 14//8 16//8 15//8
f 15//9 16//9 2//9 1//9
