# Blender 3.6.2
# www.blender.org
o Cube
v 0.018568 -0.166152 0.363273 0.8313 0.7804 0.5216
v 0.025659 0.207888 0.360960 0.8313 0.7804 0.5216
v 0.044181 -0.164749 -0.191834 0.8313 0.7804 0.5216
v 0.057238 0.209129 -0.183962 0.8313 0.7804 0.5216
v -0.118156 -0.162695 0.390248 0.8313 0.7804 0.5216
v -0.110164 0.211374 0.387758 0.8313 0.7804 0.5216
v -0.087174 -0.159016 -0.233065 0.8313 0.7804 0.5216
v -0.074979 0.214832 -0.224971 0.8313 0.7804 0.5216
v 0.005591 0.298652 0.290838 0.8313 0.7804 0.5216
v 0.028672 0.299469 -0.115688 0.8313 0.7804 0.5216
v -0.129968 0.302315 0.312229 0.8313 0.7804 0.5216
v -0.100727 0.305081 -0.151403 0.8313 0.7804 0.5216
v -0.006813 -0.259457 0.293058 0.8313 0.7804 0.5216
v 0.010203 -0.258410 -0.125921 0.8313 0.7804 0.5216
v -0.142576 -0.255808 0.314699 0.8313 0.7804 0.5216
v -0.119269 -0.252783 -0.162172 0.8313 0.7804 0.5216
v -0.039253 -0.167189 0.081956 0.8313 0.7804 0.5216
v -0.028768 0.206782 0.084707 0.8313 0.7804 0.5216
v -0.174065 -0.162619 0.074960 0.8313 0.7804 0.5216
v -0.163581 0.211353 0.077684 0.8313 0.7804 0.5216
v -0.026206 0.297990 0.085405 0.8313 0.7804 0.5216
v -0.161058 0.302553 0.078609 0.8313 0.7804 0.5216
v -0.041861 -0.260007 0.081283 0.8313 0.7804 0.5216
v -0.176664 -0.255447 0.074640 0.8313 0.7804 0.5216
v -0.146636 0.210933 0.238282 0.8313 0.7804 0.5216
v -0.152688 0.302133 0.198994 0.8313 0.7804 0.5216
v -0.166246 -0.255954 0.199544 0.8313 0.7804 0.5216
v -0.155272 -0.163113 0.239501 0.8313 0.7804 0.5216
v -0.139998 -0.160821 -0.086805 0.8313 0.7804 0.5216
v -0.127955 0.213069 -0.080170 0.8313 0.7804 0.5216
v -0.139523 0.303684 -0.039384 0.8313 0.7804 0.5216
v -0.156962 -0.254233 -0.047571 0.8313 0.7804 0.5216
vn 0.9540 -0.0343 0.2977
vn 0.2983 0.0103 -0.9544
vn -0.9710 0.0228 0.2379
vn 0.1936 0.0024 0.9811
vn 0.1202 -0.6312 0.7662
vn 0.9840 0.0274 -0.1762
vn 0.0261 0.9996 -0.0071
vn 0.1509 0.6382 0.7549
vn 0.2410 0.6433 -0.7267
vn -0.9416 0.0183 -0.3362
vn -0.0259 -0.9996 0.0068
vn 0.1978 -0.6225 -0.7572
vn -0.9435 0.0551 -0.3267
vn 0.9798 -0.0772 -0.1843
vn -0.9936 0.0508 0.1005
vn -0.0331 -0.9993 -0.0153
vn -0.9960 -0.0004 0.0897
vn 0.0330 0.9993 0.0156
vn -0.9766 0.0321 -0.2126
vn 0.9801 -0.0229 -0.1972
vn -0.9755 0.0001 0.2198
vn -0.9738 0.0471 0.2225
vn -0.0337 -0.9994 -0.0012
vn 0.0338 0.9994 0.0011
vn -0.9937 0.0252 0.1093
vn -0.9393 0.0372 -0.3410
vn 0.9574 0.0280 0.2874
vn 0.0338 0.9992 0.0193
vn -0.0338 -0.9992 -0.0189
vn 0.9585 -0.0939 0.2692
vn -0.9806 0.0644 -0.1850
vn -0.9792 -0.0022 -0.2029
s 0
f 17//1 3//1 4//1 18//1
f 3//2 7//2 8//2 4//2
f 28//3 5//3 6//3 25//3
f 5//4 1//4 2//4 6//4
f 1//5 5//5 15//5 13//5
f 18//6 21//6 9//6 2//6
f 26//7 11//7 9//7 21//7
f 2//8 9//8 11//8 6//8
f 8//9 12//9 10//9 4//9
f 30//10 31//10 12//10 8//10
f 27//11 23//11 13//11 15//11
f 7//12 3//12 14//12 16//12
f 29//13 7//13 16//13 32//13
f 17//14 1//14 13//14 23//14
f 28//15 19//15 24//15 27//15
f 32//16 23//16 24//16
f 25//17 26//17 22//17 20//17
f 31//18 22//18 21//18
f 29//19 19//19 20//19 30//19
f 1//20 17//20 18//20 2//20
f 6//21 11//21 26//21 25//21
f 5//22 28//22 27//22 15//22
f 24//23 23//23 27//23
f 22//24 26//24 21//24
f 19//25 28//25 25//25 20//25
f 7//26 29//26 30//26 8//26
f 4//27 10//27 21//27 18//27
f 12//28 31//28 21//28 10//28
f 16//29 14//29 23//29 32//29
f 3//30 17//30 23//30 14//30
f 19//31 29//31 32//31 24//31
f 20//32 22//32 31//32 30//32
o Cube.001
v -0.116067 0.235394 0.325258 0.3882 0.3725 0.2980
v -0.116067 0.142076 0.325258 0.3882 0.3725 0.2980
v 0.034029 0.235394 0.433824 0.3882 0.3725 0.2980
v 0.034898 0.142076 0.434177 0.3882 0.3725 0.2980
v -0.060326 0.235394 0.254063 0.3882 0.3725 0.2980
v -0.060374 0.142076 0.254435 0.3882 0.3725 0.2980
v 0.096151 0.235394 0.368928 0.3882 0.3725 0.2980
v 0.096150 0.142076 0.368928 0.3882 0.3725 0.2980
v 0.138314 0.235394 0.446967 0.3882 0.3725 0.2980
v 0.141419 0.142076 0.446495 0.3882 0.3725 0.2980
v 0.306647 0.235394 0.370660 0.3882 0.3725 0.2980
v 0.307723 0.142076 0.369466 0.3882 0.3725 0.2980
v 0.283623 0.235394 0.287945 0.3882 0.3725 0.2980
v 0.283623 0.142076 0.287945 0.3882 0.3725 0.2980
v 0.360569 0.235394 0.254716 0.3882 0.3725 0.2980
v 0.360993 0.142076 0.251159 0.3882 0.3725 0.2980
v 0.323718 0.235394 0.109662 0.3882 0.3725 0.2980
v 0.323718 0.142076 0.109662 0.3882 0.3725 0.2980
v 0.262188 0.235394 0.130430 0.3882 0.3725 0.2980
v 0.261051 0.142076 0.129675 0.3882 0.3725 0.2980
vn -0.5856 -0.0012 0.8106
vn 0.5911 -0.0018 -0.8066
vn -0.0000 1.0000 -0.0000
vn -0.0000 -1.0000 -0.0000
vn -0.3966 -0.0000 -0.9180
vn -0.1199 -0.0032 0.9928
vn 0.4166 0.0012 0.9091
vn 0.9093 -0.0033 0.4161
vn -0.3120 0.0057 -0.9501
vn 0.9681 0.0070 -0.2504
vn -0.9904 0.0055 0.1380
s 0
f 33//33 34//33 36//33 35//33
f 39//34 40//34 38//34 37//34
f 35//35 39//35 37//35 33//35
f 40//36 36//36 34//36 38//36
f 40//37 39//37 45//37 46//37
f 39//35 35//35 41//35
f 36//36 40//36 42//36
f 35//38 36//38 42//38 41//38
f 44//36 46//36 48//36
f 39//35 41//35 43//35 45//35
f 42//36 40//36 46//36 44//36
f 41//39 42//39 44//39 43//39
f 48//36 46//36 52//36 50//36
f 43//40 44//40 48//40 47//40
f 45//35 43//35 47//35
f 49//41 50//41 52//41 51//41
f 47//42 48//42 50//42 49//42
f 46//43 45//43 51//43 52//43
f 45//35 47//35 49//35 51//35
o Cube.002
v -0.003587 0.223089 -0.051674 0.3882 0.3725 0.2980
v 0.186255 0.227404 -0.095256 0.3882 0.3725 0.2980
v -0.003114 0.121990 -0.057400 0.3882 0.3725 0.2980
v 0.192273 0.126306 -0.099345 0.3882 0.3725 0.2980
v -0.020305 0.230549 -0.147242 0.3882 0.3725 0.2980
v 0.195176 0.234241 -0.182685 0.3882 0.3725 0.2980
v -0.019702 0.129451 -0.154898 0.3882 0.3725 0.2980
v 0.194651 0.133143 -0.189033 0.3882 0.3725 0.2980
v 0.247862 0.234865 -0.169260 0.3882 0.3725 0.2980
v 0.253213 0.133767 -0.173862 0.3882 0.3725 0.2980
v 0.301969 0.232672 -0.023407 0.3882 0.3725 0.2980
v 0.308678 0.131573 -0.027146 0.3882 0.3725 0.2980
v 0.347823 0.237290 -0.066022 0.3882 0.3725 0.2980
v 0.354531 0.136192 -0.069761 0.3882 0.3725 0.2980
vn 0.2174 -0.0404 0.9752
vn 0.0053 -0.9971 -0.0766
vn -0.1606 0.0681 -0.9847
vn -0.0045 0.9969 0.0781
vn 0.2479 0.0583 -0.9670
vn -0.5240 -0.0659 0.8492
vn -0.0309 0.9967 0.0748
vn 0.0301 -0.9967 -0.0752
vn 0.6797 0.0180 0.7333
vn -0.0683 0.9968 0.0403
vn 0.0682 -0.9968 -0.0407
vn 0.7149 0.0713 -0.6956
s 0
f 53//44 55//44 56//44 54//44
f 55//45 59//45 60//45 56//45
f 59//46 57//46 58//46 60//46
f 57//47 53//47 54//47 58//47
f 58//48 61//48 62//48 60//48
f 56//49 64//49 63//49 54//49
f 54//50 61//50 58//50
f 60//51 62//51 56//51
f 66//52 65//52 63//52 64//52
f 54//53 63//53 65//53 61//53
f 62//54 66//54 64//54 56//54
f 61//55 65//55 66//55 62//55
o Cube.003
v -0.076216 0.116545 0.304107 0.3882 0.3725 0.2980
v -0.076216 0.023228 0.304107 0.3882 0.3725 0.2980
v 0.104103 0.116545 0.343342 0.3882 0.3725 0.2980
v 0.106464 0.023228 0.343286 0.3882 0.3725 0.2980
v -0.053852 0.116545 0.216238 0.3882 0.3725 0.2980
v -0.053541 0.023228 0.217317 0.3882 0.3725 0.2980
v 0.135682 0.116545 0.258880 0.3882 0.3725 0.2980
v 0.135681 0.023228 0.258880 0.3882 0.3725 0.2980
v 0.206051 0.116545 0.313550 0.3882 0.3725 0.2980
v 0.207382 0.023228 0.312716 0.3882 0.3725 0.2980
v 0.330575 0.116545 0.182430 0.3882 0.3725 0.2980
v 0.331923 0.023228 0.179924 0.3882 0.3725 0.2980
v 0.275957 0.116545 0.110340 0.3882 0.3725 0.2980
v 0.275957 0.023228 0.110340 0.3882 0.3725 0.2980
v 0.353425 0.116545 0.066054 0.3882 0.3725 0.2980
v 0.353263 0.023228 0.064728 0.3882 0.3725 0.2980
v 0.302867 0.116545 -0.070633 0.3882 0.3725 0.2980
v 0.302867 0.023228 -0.070633 0.3882 0.3725 0.2980
v 0.241872 0.116545 -0.045991 0.3882 0.3725 0.2980
v 0.241872 0.023228 -0.045991 0.3882 0.3725 0.2980
vn -0.2111 -0.0030 0.9775
vn 0.2170 -0.0053 -0.9762
vn -0.0000 1.0000 -0.0000
vn -0.0000 -1.0000 -0.0000
vn -0.7270 -0.0000 -0.6866
vn 0.2852 0.0011 0.9585
vn 0.7273 -0.0018 0.6864
vn 0.9823 0.0024 0.1874
vn -0.3746 -0.0000 -0.9272
vn 0.9375 0.0017 -0.3479
vn -0.9770 -0.0000 0.2130
s 0
f 67//56 68//56 70//56 69//56
f 73//57 74//57 72//57 71//57
f 69//58 73//58 71//58 67//58
f 74//59 70//59 68//59 72//59
f 74//60 73//60 79//60 80//60
f 73//58 69//58 75//58
f 70//59 74//59 76//59
f 69//61 70//61 76//61 75//61
f 78//59 80//59 82//59
f 73//58 75//58 77//58 79//58
f 76//59 74//59 80//59 78//59
f 75//62 76//62 78//62 77//62
f 82//59 80//59 86//59 84//59
f 77//63 78//63 82//63 81//63
f 79//58 77//58 81//58
f 83//64 84//64 86//64 85//64
f 81//65 82//65 84//65 83//65
f 80//66 79//66 85//66 86//66
f 79//58 81//58 83//58 85//58
o Cube.004
v -0.076216 -0.019299 0.304107 0.3882 0.3725 0.2980
v -0.076216 -0.112617 0.304107 0.3882 0.3725 0.2980
v 0.104904 -0.019299 0.343323 0.3882 0.3725 0.2980
v 0.105476 -0.112617 0.343309 0.3882 0.3725 0.2980
v -0.053754 -0.019299 0.216575 0.3882 0.3725 0.2980
v -0.053703 -0.112617 0.216752 0.3882 0.3725 0.2980
v 0.135682 -0.019299 0.258880 0.3882 0.3725 0.2980
v 0.135681 -0.112617 0.258880 0.3882 0.3725 0.2980
v 0.205138 -0.019299 0.314122 0.3882 0.3725 0.2980
v 0.208107 -0.112617 0.312261 0.3882 0.3725 0.2980
v 0.330989 -0.019299 0.181661 0.3882 0.3725 0.2980
v 0.331417 -0.112617 0.180865 0.3882 0.3725 0.2980
v 0.275957 -0.019299 0.110340 0.3882 0.3725 0.2980
v 0.275957 -0.112617 0.110340 0.3882 0.3725 0.2980
v 0.353555 -0.019299 0.067122 0.3882 0.3725 0.2980
v 0.353160 -0.112617 0.063877 0.3882 0.3725 0.2980
v 0.302867 -0.019299 -0.070633 0.3882 0.3725 0.2980
v 0.302867 -0.112617 -0.070633 0.3882 0.3725 0.2980
v 0.243166 -0.019299 -0.045524 0.3882 0.3725 0.2980
v 0.241872 -0.112617 -0.045991 0.3882 0.3725 0.2980
vn -0.2113 -0.0007 0.9774
vn 0.2175 -0.0009 -0.9761
vn -0.0000 1.0000 -0.0000
vn -0.0000 -1.0000 -0.0000
vn -0.7270 -0.0000 -0.6866
vn 0.2847 -0.0042 0.9586
vn 0.7271 0.0035 0.6866
vn 0.9822 -0.0039 0.1880
vn -0.3811 0.0050 -0.9245
vn 0.9376 0.0041 -0.3477
vn -0.9778 0.0063 0.2095
s 0
f 87//67 88//67 90//67 89//67
f 93//68 94//68 92//68 91//68
f 89//69 93//69 91//69 87//69
f 94//70 90//70 88//70 92//70
f 94//71 93//71 99//71 100//71
f 93//69 89//69 95//69
f 90//70 94//70 96//70
f 89//72 90//72 96//72 95//72
f 98//70 100//70 102//70
f 93//69 95//69 97//69 99//69
f 96//70 94//70 100//70 98//70
f 95//73 96//73 98//73 97//73
f 102//70 100//70 106//70 104//70
f 97//74 98//74 102//74 101//74
f 99//69 97//69 101//69
f 103//75 104//75 106//75 105//75
f 101//76 102//76 104//76 103//76
f 100//77 99//77 105//77 106//77
f 99//69 101//69 103//69 105//69
o Cube.005
v -0.076216 -0.152091 0.304107 0.3882 0.3725 0.2980
v -0.076216 -0.245409 0.304107 0.3882 0.3725 0.2980
v 0.104560 -0.152091 0.343331 0.3882 0.3725 0.2980
v 0.105892 -0.245409 0.343300 0.3882 0.3725 0.2980
v -0.053798 -0.152091 0.216423 0.3882 0.3725 0.2980
v -0.053637 -0.245409 0.216984 0.3882 0.3725 0.2980
v 0.135682 -0.152091 0.258880 0.3882 0.3725 0.2980
v 0.135681 -0.245409 0.258880 0.3882 0.3725 0.2980
v 0.205529 -0.152091 0.313877 0.3882 0.3725 0.2980
v 0.207804 -0.245409 0.312451 0.3882 0.3725 0.2980
v 0.330810 -0.152091 0.181992 0.3882 0.3725 0.2980
v 0.331629 -0.245409 0.180470 0.3882 0.3725 0.2980
v 0.275957 -0.152091 0.110340 0.3882 0.3725 0.2980
v 0.275957 -0.245409 0.110340 0.3882 0.3725 0.2980
v 0.353499 -0.152091 0.066665 0.3882 0.3725 0.2980
v 0.353203 -0.245409 0.064233 0.3882 0.3725 0.2980
v 0.302867 -0.152091 -0.070633 0.3882 0.3725 0.2980
v 0.302867 -0.245409 -0.070633 0.3882 0.3725 0.2980
v 0.242614 -0.152091 -0.045724 0.3882 0.3725 0.2980
v 0.241872 -0.245409 -0.045991 0.3882 0.3725 0.2980
vn -0.2112 -0.0017 0.9774
vn 0.2174 -0.0027 -0.9761
vn -0.0000 1.0000 -0.0000
vn -0.0000 -1.0000 -0.0000
vn -0.7270 -0.0000 -0.6866
vn 0.2849 -0.0020 0.9586
vn 0.7272 0.0012 0.6865
vn 0.9822 -0.0012 0.1877
vn -0.3783 0.0028 -0.9257
vn 0.9376 0.0030 -0.3478
vn -0.9775 0.0036 0.2110
s 0
f 107//78 108//78 110//78 109//78
f 113//79 114//79 112//79 111//79
f 109//80 113//80 111//80 107//80
f 114//81 110//81 108//81 112//81
f 114//82 113//82 119//82 120//82
f 113//80 109//80 115//80
f 110//81 114//81 116//81
f 109//83 110//83 116//83 115//83
f 118//81 120//81 122//81
f 113//80 115//80 117//80 119//80
f 116//81 114//81 120//81 118//81
f 115//84 116//84 118//84 117//84
f 122//81 120//81 126//81 124//81
f 117//85 118//85 122//85 121//85
f 119//80 117//80 121//80
f 123//86 124//86 126//86 125//86
f 121//87 122//87 124//87 123//87
f 120//88 119//88 125//88 126//88
f 119//80 121//80 123//80 125//80
o Cube.006
v 0.028097 -0.120268 -0.172936 0.3882 0.3725 0.2980
v 0.028097 0.199893 -0.172936 0.3882 0.3725 0.2980
v 0.028097 -0.120268 -2.306630 0.3882 0.3725 0.2980
v 0.028097 0.199893 -2.306630 0.3882 0.3725 0.2980
v -0.064151 -0.120268 -0.172936 0.3882 0.3725 0.2980
v -0.064151 0.199893 -0.172936 0.3882 0.3725 0.2980
v -0.064151 -0.120268 -2.306630 0.3882 0.3725 0.2980
v -0.064151 0.199893 -2.306630 0.3882 0.3725 0.2980
vn 1.0000 -0.0000 -0.0000
vn -1.0000 -0.0000 -0.0000
vn -0.0000 -1.0000 -0.0000
vn -0.0000 1.0000 -0.0000
s 0
f 127//89 129//89 130//89 128//89
f 133//90 131//90 132//90 134//90
f 129//91 127//91 131//91 133//91
f 134//92 132//92 128//92 130//92
o Cube.007
v 0.248978 -0.238828 0.160819 0.6589 0.6589 0.6589
v 0.238847 0.351511 0.348110 0.6589 0.6589 0.6589
v 0.248978 -0.238828 -0.209431 0.6589 0.6589 0.6589
v 0.238847 0.351511 -0.022140 0.6589 0.6589 0.6589
v 0.039506 -0.238828 0.160819 0.6589 0.6589 0.6589
v 0.029375 0.351511 0.348110 0.6589 0.6589 0.6589
v 0.039506 -0.238828 -0.209431 0.6589 0.6589 0.6589
v 0.029375 0.351511 -0.022140 0.6589 0.6589 0.6589
v 0.238847 0.724273 0.600375 0.6589 0.6589 0.6589
v 0.238847 0.724273 0.230125 0.6589 0.6589 0.6589
v 0.029375 0.724273 0.600375 0.6589 0.6589 0.6589
v 0.029375 0.724273 0.230125 0.6589 0.6589 0.6589
v 0.238847 0.660834 0.557443 0.6589 0.6589 0.6589
v 0.238847 0.660834 0.187193 0.6589 0.6589 0.6589
v 0.029375 0.660834 0.557443 0.6589 0.6589 0.6589
v 0.029375 0.660834 0.187193 0.6589 0.6589 0.6589
v 0.238847 0.724273 1.218047 0.6589 0.6589 0.6589
v 0.029375 0.724273 1.218047 0.6589 0.6589 0.6589
v 0.238847 0.660834 1.060278 0.6589 0.6589 0.6589
v 0.029375 0.660834 1.060278 0.6589 0.6589 0.6589
v 0.238847 0.287049 0.328231 0.6589 0.6589 0.6589
v 0.238847 0.287049 -0.042019 0.6589 0.6589 0.6589
v 0.029375 0.287049 -0.042019 0.6589 0.6589 0.6589
v 0.029375 0.287049 0.328231 0.6589 0.6589 0.6589
v 0.238847 0.351511 0.975900 0.6589 0.6589 0.6589
v 0.029375 0.351511 0.975900 0.6589 0.6589 0.6589
v 0.238847 0.287049 1.065776 0.6589 0.6589 0.6589
v 0.029375 0.287049 1.065776 0.6589 0.6589 0.6589
v 0.205517 0.510267 1.949233 0.4392 0.4392 0.4392
v 0.205517 0.650839 1.949233 0.4392 0.4392 0.4392
v 0.205517 0.510267 1.113995 0.4392 0.4392 0.4392
v 0.205517 0.650839 1.163707 0.4392 0.4392 0.4392
v 0.064946 0.510267 1.949233 0.4392 0.4392 0.4392
v 0.064946 0.650839 1.949233 0.4392 0.4392 0.4392
v 0.064946 0.510267 1.113995 0.4392 0.4392 0.4392
v 0.064946 0.650839 1.163707 0.4392 0.4392 0.4392
v 0.205517 0.510267 1.823768 0.4392 0.4392 0.4392
v 0.205517 0.650839 1.831236 0.4392 0.4392 0.4392
v 0.064946 0.510267 1.823768 0.4392 0.4392 0.4392
v 0.064946 0.650839 1.831236 0.4392 0.4392 0.4392
v 0.205517 0.740083 1.949233 0.4392 0.4392 0.4392
v 0.064946 0.740083 1.949233 0.4392 0.4392 0.4392
v 0.080209 0.693600 0.014618 0.4392 0.4392 0.4392
v 0.080209 0.693600 0.234000 0.4392 0.4392 0.4392
v 0.186566 0.693600 0.014618 0.4392 0.4392 0.4392
v 0.186566 0.693600 0.234000 0.4392 0.4392 0.4392
v 0.080209 0.653185 0.014618 0.4392 0.4392 0.4392
v 0.186566 0.653185 0.014618 0.4392 0.4392 0.4392
v 0.080209 0.528587 0.130127 0.4392 0.4392 0.4392
v 0.186566 0.528587 0.130127 0.4392 0.4392 0.4392
v 0.148338 0.063589 0.523492 0.6589 0.6589 0.6589
v 0.148338 0.063589 0.430852 0.6589 0.6589 0.6589
v 0.095927 0.063589 0.523492 0.6589 0.6589 0.6589
v 0.095927 0.063589 0.430852 0.6589 0.6589 0.6589
v 0.148338 0.308903 0.608539 0.6589 0.6589 0.6589
v 0.148338 0.308903 0.515900 0.6589 0.6589 0.6589
v 0.095927 0.308903 0.515900 0.6589 0.6589 0.6589
v 0.095927 0.308903 0.608539 0.6589 0.6589 0.6589
v 0.148338 0.127881 0.453142 0.6589 0.6589 0.6589
v 0.095927 0.127881 0.453142 0.6589 0.6589 0.6589
v 0.095927 0.127881 0.545781 0.6589 0.6589 0.6589
v 0.148338 0.127881 0.545781 0.6589 0.6589 0.6589
v 0.148338 0.063589 0.238512 0.6589 0.6589 0.6589
v 0.095927 0.063589 0.238512 0.6589 0.6589 0.6589
v 0.148338 0.127881 0.260801 0.6589 0.6589 0.6589
v 0.095927 0.127881 0.260801 0.6589 0.6589 0.6589
vn 1.0000 -0.0000 -0.0000
vn -0.0000 0.2947 -0.9556
vn -1.0000 -0.0000 -0.0000
vn -0.0000 -1.0000 -0.0000
vn -0.0000 0.5605 -0.8282
vn -0.0000 1.0000 -0.0000
vn -0.0000 0.2632 -0.9648
vn -0.9998 -0.0193 -0.0000
vn -0.0000 0.3033 -0.9529
vn 0.9998 0.0193 -0.0000
vn -0.0000 0.7976 -0.6032
vn -0.0000 -0.0000 -1.0000
vn -0.0000 -0.6799 -0.7333
vn -0.0000 0.3276 -0.9448
s 0
f 155//93 156//93 138//93 136//93
f 156//94 157//94 142//94 138//94
f 157//95 158//95 140//95 142//95
f 155//96 161//96 162//96 158//96
f 137//96 135//96 139//96 141//96
f 148//93 144//93 143//93 147//93
f 149//95 154//95 152//95 145//95
f 150//97 146//97 144//97 148//97
f 149//95 145//95 146//95 150//95
f 143//98 144//98 146//98 145//98
f 140//95 149//95 150//95 142//95
f 142//97 150//97 148//97 138//97
f 138//93 148//93 147//93 136//93
f 153//99 159//99 160//99 154//99
f 143//93 151//93 153//93 147//93
f 145//98 152//98 151//98 143//98
f 147//96 153//96 154//96 149//96
f 141//100 139//100 158//100 157//100
f 137//101 141//101 157//101 156//101
f 135//102 137//102 156//102 155//102
f 153//93 151//93 161//93 159//93
f 136//93 159//93 161//93 155//93
f 158//95 162//95 160//95 140//95
f 140//98 160//98 159//98 136//98
f 152//95 154//95 160//95 162//95
f 171//93 165//93 166//93 172//93
f 173//95 167//95 168//95 174//95
f 171//96 163//96 167//96 173//96
f 170//98 174//98 172//98 166//98
f 165//96 171//96 173//96 169//96
f 169//95 173//95 174//95 170//95
f 163//93 171//93 172//93 164//93
f 168//95 176//95 174//95
f 164//93 172//93 175//93
f 175//103 172//103 174//103 176//103
f 177//98 178//98 180//98 179//98
f 179//104 182//104 181//104 177//104
f 182//105 184//105 183//105 181//105
f 178//95 177//95 181//95 183//95
f 179//93 180//93 184//93 182//93
f 186//96 185//96 187//96 188//96
f 194//95 195//95 192//95 191//95
f 193//106 194//106 191//106 190//106
f 196//93 193//93 190//93 189//93
f 185//93 186//93 193//93 196//93
f 193//98 199//98 200//98 194//98
f 188//95 187//95 195//95 194//95
f 194//95 200//95 198//95 188//95
f 186//93 197//93 199//93 193//93
f 188//96 198//96 197//96 186//96
