# Blender 3.6.2
# www.blender.org
o Cube.008
v 0.262318 0.375462 2.932898 0.4392 0.4392 0.4392
v 0.005283 0.375461 2.932898 0.4392 0.4392 0.4392
v 0.262318 0.375462 1.877640 0.4392 0.4392 0.4392
v 0.005283 0.375461 1.877640 0.4392 0.4392 0.4392
v 0.187034 0.213127 2.932898 0.4392 0.4392 0.4392
v 0.262318 0.288411 2.932898 0.4392 0.4392 0.4392
v 0.005283 0.288411 2.932898 0.4392 0.4392 0.4392
v 0.080567 0.213127 2.932898 0.4392 0.4392 0.4392
v 0.187034 0.213127 1.877640 0.4392 0.4392 0.4392
v 0.262318 0.288411 1.877640 0.4392 0.4392 0.4392
v 0.005283 0.288411 1.877640 0.4392 0.4392 0.4392
v 0.080567 0.213127 1.877640 0.4392 0.4392 0.4392
vn -0.7071 -0.7071 -0.0000
vn -0.0000 -1.0000 -0.0000
vn 0.7071 -0.7071 -0.0000
vn 1.0000 -0.0000 -0.0000
vn -1.0000 -0.0000 -0.0000
vn -0.0000 -0.0000 -1.0000
vn -0.0000 1.0000 -0.0000
s 0
f 7//1 11//1 12//1 8//1
f 8//2 12//2 9//2 5//2
f 5//3 9//3 10//3 6//3
f 3//4 1//4 6//4 10//4
f 2//5 4//5 11//5 7//5
f 9//6 12//6 11//6 4//6 3//6 10//6
f 4//7 2//7 1//7 3//7
o Cube.009
v 0.008310 0.288718 2.677658 0.8313 0.7804 0.5216
v -0.093815 0.362482 2.333819 0.8313 0.7804 0.5216
v 0.328318 0.366968 2.434522 0.8313 0.7804 0.5216
v 0.241595 0.258406 2.095672 0.8313 0.7804 0.5216
v -0.075817 0.195410 2.682802 0.8313 0.7804 0.5216
v -0.177470 0.271710 2.338914 0.8313 0.7804 0.5216
v 0.412647 0.279229 2.444211 0.8313 0.7804 0.5216
v 0.325569 0.167130 2.105439 0.8313 0.7804 0.5216
v -0.076488 0.310099 2.221863 0.8313 0.7804 0.5216
v 0.177063 0.184565 2.044038 0.8313 0.7804 0.5216
v -0.146907 0.219879 2.227312 0.8313 0.7804 0.5216
v 0.249396 0.095517 2.053426 0.8313 0.7804 0.5216
v 0.073728 0.220249 2.734334 0.8313 0.7804 0.5216
v 0.308583 0.320689 2.550337 0.8313 0.7804 0.5216
v 0.003051 0.127646 2.739835 0.8313 0.7804 0.5216
v 0.380111 0.241938 2.559446 0.8313 0.7804 0.5216
v 0.166155 0.170189 2.559973 0.8313 0.7804 0.5216
v 0.071893 0.153569 2.218613 0.8313 0.7804 0.5216
v 0.165929 0.077345 2.567438 0.8313 0.7804 0.5216
v 0.071715 0.060820 2.226078 0.8313 0.7804 0.5216
v 0.048882 0.149300 2.135363 0.8313 0.7804 0.5216
v 0.047929 0.057536 2.142782 0.8313 0.7804 0.5216
v 0.189483 0.174502 2.644689 0.8313 0.7804 0.5216
v 0.188608 0.080645 2.652162 0.8313 0.7804 0.5216
v -0.070544 0.157115 2.282233 0.8313 0.7804 0.5216
v -0.061887 0.135295 2.184788 0.8313 0.7804 0.5216
v 0.085232 0.077643 2.696367 0.8313 0.7804 0.5216
v 0.029028 0.104676 2.625468 0.8313 0.7804 0.5216
v 0.304484 0.168315 2.506496 0.8313 0.7804 0.5216
v 0.215706 0.081937 2.167034 0.8313 0.7804 0.5216
v 0.156187 0.049169 2.098997 0.8313 0.7804 0.5216
v 0.290709 0.148597 2.606298 0.8313 0.7804 0.5216
vn -0.6571 0.7529 0.0363
vn 0.6948 0.6122 -0.3775
vn -0.6776 -0.7328 0.0611
vn -0.6846 0.6431 0.3432
vn -0.3565 0.3466 0.8676
vn 0.7063 0.6741 -0.2162
vn -0.3707 0.1630 -0.9144
vn -0.7035 0.5745 -0.4185
vn 0.3949 0.2483 -0.8845
vn 0.5683 -0.8198 0.0705
vn 0.4836 -0.1885 0.8547
vn 0.6520 0.6538 0.3840
vn 0.7092 -0.7041 -0.0339
vn 0.5385 0.8415 0.0438
vn -0.1349 -0.9874 -0.0822
vn 0.3694 0.0703 0.9266
vn -0.5179 -0.8403 0.1601
vn -0.3787 -0.0707 -0.9228
vn 0.3820 -0.9234 0.0369
vn 0.6589 0.7414 -0.1270
vn -0.6823 -0.7202 0.1257
vn -0.5916 -0.8058 0.0275
vn 0.3905 0.0694 0.9180
vn -0.3991 -0.0698 -0.9142
vn -0.3835 -0.9216 0.0602
vn 0.6801 -0.7321 0.0379
vn -0.5109 0.8450 -0.1578
vn -0.4269 -0.2828 -0.8589
vn 0.3144 0.2639 0.9119
vn -0.7124 0.6842 0.1560
vn 0.5168 -0.8502 -0.1006
vn 0.1180 -0.9787 0.1682
s 0
f 29//8 15//8 16//8 30//8
f 15//9 19//9 20//9 16//9
f 40//10 17//10 18//10 37//10
f 17//11 13//11 14//11 18//11
f 13//12 17//12 27//12 25//12
f 30//13 33//13 21//13 14//13
f 38//14 23//14 21//14 33//14
f 14//15 21//15 23//15 18//15
f 20//16 24//16 22//16 16//16
f 42//17 43//17 24//17 20//17
f 39//18 35//18 25//18 27//18
f 19//19 15//19 26//19 28//19
f 41//20 19//20 28//20 44//20
f 29//21 13//21 25//21 35//21
f 40//22 31//22 36//22 39//22
f 44//23 35//23 36//23
f 37//24 38//24 34//24 32//24
f 43//25 34//25 33//25
f 41//26 31//26 32//26 42//26
f 13//27 29//27 30//27 14//27
f 18//28 23//28 38//28 37//28
f 17//29 40//29 39//29 27//29
f 36//30 35//30 39//30
f 34//31 38//31 33//31
f 31//32 40//32 37//32 32//32
f 19//33 41//33 42//33 20//33
f 16//34 22//34 33//34 30//34
f 24//35 43//35 33//35 22//35
f 28//36 26//36 35//36 44//36
f 15//37 29//37 35//37 26//37
f 31//38 41//38 44//38 36//38
f 32//39 34//39 43//39 42//39
o Cube.011
v 0.290283 0.308842 2.540648 0.3882 0.3725 0.2980
v 0.286972 0.322832 2.774267 0.3882 0.3725 0.2980
v 0.225822 0.230378 2.543299 0.3882 0.3725 0.2980
v 0.219498 0.247565 2.767223 0.3882 0.3725 0.2980
v 0.367811 0.245475 2.546094 0.3882 0.3725 0.2980
v 0.363791 0.255472 2.755692 0.3882 0.3725 0.2980
v 0.303901 0.166814 2.548887 0.3882 0.3725 0.2980
v 0.298870 0.177844 2.755400 0.3882 0.3725 0.2980
v 0.358743 0.256598 2.798946 0.3882 0.3725 0.2980
v 0.291775 0.180846 2.793311 0.3882 0.3725 0.2980
v 0.279065 0.315668 2.913632 0.3882 0.3725 0.2980
v 0.211270 0.240687 2.905781 0.3882 0.3725 0.2980
v 0.322779 0.274282 2.931412 0.3882 0.3725 0.2980
v 0.254984 0.199301 2.923561 0.3882 0.3725 0.2980
vn -0.7566 0.6511 -0.0603
vn -0.6450 -0.7635 0.0330
vn 0.7711 -0.6348 0.0489
vn 0.6445 0.7640 -0.0307
vn 0.7475 -0.6483 0.1448
vn -0.7427 0.6696 -0.0093
vn 0.6661 0.7436 0.0584
vn -0.6640 -0.7449 -0.0653
vn -0.2605 0.1355 0.9559
vn 0.6641 0.7435 0.0784
vn -0.6635 -0.7440 -0.0791
vn 0.7020 -0.6530 0.2842
s 0
f 45//40 47//40 48//40 46//40
f 47//41 51//41 52//41 48//41
f 51//42 49//42 50//42 52//42
f 49//43 45//43 46//43 50//43
f 50//44 53//44 54//44 52//44
f 48//45 56//45 55//45 46//45
f 46//46 53//46 50//46
f 52//47 54//47 48//47
f 58//48 57//48 55//48 56//48
f 46//49 55//49 57//49 53//49
f 54//50 58//50 56//50 48//50
f 53//51 57//51 58//51 54//51
o Cube.010
v 0.357426 0.266611 2.468796 0.3882 0.3725 0.2980
v 0.189970 0.211445 2.151066 0.3882 0.3725 0.2980
v 1.488625 0.082213 0.651286 0.3882 0.3725 0.2980
v 1.147531 -0.134737 0.451753 0.3882 0.3725 0.2980
v 0.349692 0.189637 2.458972 0.3882 0.3725 0.2980
v 0.213481 0.129024 2.185179 0.3882 0.3725 0.2980
v 1.523474 -0.048541 0.668249 0.3882 0.3725 0.2980
v 1.225807 -0.219904 0.498868 0.3882 0.3725 0.2980
v 3.926376 0.484678 -3.183379 0.3882 0.3725 0.2980
v 3.452525 0.090458 -3.531387 0.3882 0.3725 0.2980
v 3.980460 0.278081 -3.170542 0.3882 0.3725 0.2980
v 3.554740 -0.078227 -3.479480 0.3882 0.3725 0.2980
vn -0.2226 0.9358 -0.2734
vn 0.2063 -0.9353 0.2876
vn 0.8425 0.1280 0.5232
vn -0.7398 -0.5984 -0.3076
vn 0.8029 0.2591 0.5368
vn -0.6587 -0.6293 -0.4124
vn -0.4832 0.8461 -0.2252
vn 0.4668 -0.8527 0.2347
s 0
f 59//52 61//52 62//52 60//52
f 65//53 63//53 64//53 66//53
f 61//54 59//54 63//54 65//54
f 66//55 64//55 60//55 62//55
f 65//56 69//56 67//56 61//56
f 62//57 68//57 70//57 66//57
f 61//58 67//58 68//58 62//58
f 66//59 70//59 69//59 65//59
