# Blender 4.0.1
# www.blender.org
o gunner_body.005
v 0.051946 -0.275787 -0.050561 0.0118 0.4980 0.0118
v 0.004193 -0.273734 -0.083349 0.0118 0.4980 0.0118
v -0.052744 -0.271486 -0.072737 0.0118 0.4980 0.0118
v -0.084730 -0.270392 -0.024776 0.0118 0.4980 0.0118
v -0.074919 -0.271015 0.032040 0.0118 0.4980 0.0118
v 0.029771 -0.275316 0.054215 0.0118 0.4980 0.0118
v 0.062540 -0.276443 0.006420 0.0118 0.4980 0.0118
v -0.026067 -0.215672 0.065226 0.0118 0.4980 0.0118
v 0.054216 -0.219357 -0.050335 0.0118 0.4980 0.0118
v 0.006464 -0.217304 -0.083122 0.0118 0.4980 0.0118
v -0.050473 -0.215056 -0.072510 0.0118 0.4980 0.0118
v -0.082459 -0.213961 -0.024549 0.0118 0.4980 0.0118
v -0.072648 -0.214585 0.032267 0.0118 0.4980 0.0118
v 0.032041 -0.218886 0.054442 0.0118 0.4980 0.0118
v 0.064811 -0.220013 0.006646 0.0118 0.4980 0.0118
v -0.019226 -0.172974 0.046226 0.0118 0.4980 0.0118
v 0.027462 -0.175134 -0.026385 0.0118 0.4980 0.0118
v 0.000669 -0.173982 -0.044782 0.0118 0.4980 0.0118
v -0.031278 -0.172720 -0.038827 0.0118 0.4980 0.0118
v -0.043699 -0.172334 -0.010746 0.0118 0.4980 0.0118
v -0.043720 -0.172456 0.019962 0.0118 0.4980 0.0118
v 0.015020 -0.174870 0.032404 0.0118 0.4980 0.0118
v 0.033406 -0.175502 0.005587 0.0118 0.4980 0.0118
v 0.076801 0.208940 0.032747 0.5686 0.1882 0.0039
v 0.044563 0.209572 0.068592 0.5686 0.1882 0.0039
v -0.062142 0.208434 0.035234 0.5686 0.1882 0.0039
v -0.061100 0.209773 -0.013293 0.5686 0.1882 0.0039
v -0.037650 0.210186 -0.042436 0.5686 0.1882 0.0039
v 0.020452 0.209534 -0.053278 0.5686 0.1882 0.0039
v 0.069987 0.210009 -0.019792 0.5686 0.1882 0.0039
v -0.061100 0.209773 -0.013293 1.0000 0.0000 0.0000
v 0.020452 0.209534 -0.053278 1.0000 0.0000 0.0000
v -0.027357 0.206174 0.073123 1.0000 0.0000 0.0000
v -0.062142 0.208434 0.035234 1.0000 0.0000 0.0000
v -0.037650 0.210186 -0.042436 1.0000 0.0000 0.0000
v 0.069987 0.210009 -0.019792 1.0000 0.0000 0.0000
v 0.033406 -0.175502 0.005587 0.5686 0.1882 0.0039
v 0.015020 -0.174870 0.032404 0.5686 0.1882 0.0039
v -0.043720 -0.172456 0.019962 0.5686 0.1882 0.0039
v -0.043699 -0.172334 -0.010746 0.5686 0.1882 0.0039
v -0.031278 -0.172720 -0.038827 0.5686 0.1882 0.0039
v 0.000669 -0.173982 -0.044782 0.5686 0.1882 0.0039
v 0.027462 -0.175134 -0.026385 0.5686 0.1882 0.0039
v -0.027357 0.206174 0.073123 0.5686 0.1882 0.0039
v 0.044563 0.209572 0.068592 1.0000 0.0000 0.0000
v 0.076801 0.208940 0.032747 1.0000 0.0000 0.0000
v -0.019226 -0.172974 0.046226 0.5686 0.1882 0.0039
v -0.028338 -0.272103 0.064999 0.0118 0.4980 0.0118
v 0.026816 -0.317189 0.001143 0.0118 0.4980 0.0118
v 0.009164 -0.316582 0.026889 0.0118 0.4980 0.0118
v -0.047227 -0.314265 0.014944 0.0118 0.4980 0.0118
v -0.051777 -0.313959 -0.015504 0.0118 0.4980 0.0118
v -0.035283 -0.314519 -0.041495 0.0118 0.4980 0.0118
v -0.004613 -0.315730 -0.047211 0.0118 0.4980 0.0118
v 0.021109 -0.316836 -0.029550 0.0118 0.4980 0.0118
v -0.022356 -0.314846 0.033735 0.0118 0.4980 0.0118
v -0.022403 0.203481 0.010284 1.0000 1.0000 1.0000
v -0.022403 0.241928 0.010284 1.0000 1.0000 1.0000
v 0.004783 0.203481 -0.016903 1.0000 1.0000 1.0000
v 0.004783 0.241928 -0.016903 1.0000 1.0000 1.0000
v 0.004783 0.203481 0.037470 1.0000 1.0000 1.0000
v 0.004783 0.241928 0.037470 1.0000 1.0000 1.0000
v 0.031970 0.203481 0.010284 1.0000 1.0000 1.0000
v 0.031970 0.241928 0.010284 1.0000 1.0000 1.0000
vn -0.0402 -0.9992 -0.0040
vn -0.8150 -0.5677 0.1161
vn -0.1671 -0.6227 -0.7644
vn 0.7531 -0.6412 -0.1474
vn 0.1393 -0.5942 0.7922
vn 0.6402 -0.6200 0.4535
vn -0.6794 -0.6029 -0.4182
vn 0.4151 -0.6419 -0.6447
vn -0.5104 -0.5531 0.6585
vn 0.5654 -0.0194 -0.8246
vn -0.5772 0.0199 0.8164
vn -0.9846 0.0389 0.1704
vn -0.1828 0.0113 -0.9831
vn 0.9823 -0.0388 -0.1831
vn 0.1819 -0.0113 0.9833
vn 0.8239 -0.0354 0.5657
vn -0.8311 0.0357 -0.5550
vn -0.8241 0.5664 0.0017
vn -0.1144 0.6498 -0.7515
vn 0.8102 0.5682 -0.1441
vn 0.1849 0.4962 0.8483
vn 0.7129 0.5143 0.4767
vn -0.6480 0.7016 -0.2963
vn 0.4613 0.6218 -0.6329
vn -0.6700 0.3888 0.6325
vn 0.9775 -0.1048 -0.1830
vn -0.1836 -0.0123 -0.9829
vn -0.9986 -0.0474 -0.0228
vn 0.5640 -0.0474 -0.8244
vn -0.7782 -0.0396 -0.6267
vn 0.8161 -0.1319 0.5626
vn -0.7305 -0.0639 0.6800
vn 0.3709 -0.0578 0.9269
vn 0.0196 0.9992 0.0340
vn -0.7071 -0.0000 -0.7071
vn 0.7071 -0.0000 -0.7071
vn 0.7071 -0.0000 0.7071
vn -0.7071 -0.0000 0.7071
vn -0.0000 -1.0000 -0.0000
vn -0.0000 1.0000 -0.0000
vn -0.0479 -0.9983 0.0325
vn -0.8039 -0.5798 0.1325
vn 0.1184 -0.5754 0.8093
vn -0.6765 -0.5923 -0.4377
vn -0.4829 -0.5714 0.6636
vn -0.9846 0.0389 0.1705
vn -0.7472 0.6505 0.1362
vn 0.3691 0.3278 0.8696
vn -0.6350 0.6364 -0.4380
vn -0.4803 0.5332 0.6964
vn 0.9862 -0.1021 -0.1300
vn -0.1837 -0.0123 -0.9829
vn -0.9990 -0.0455 -0.0009
vn 0.5597 -0.0476 -0.8273
vn -0.9145 -0.0190 -0.4042
vn 0.7372 -0.1193 0.6651
vn -0.7371 -0.0626 0.6729
vn 0.0672 -0.0986 0.9929
vn -0.0511 0.9967 -0.0635
vn -0.0256 0.9994 0.0237
vn 0.0163 0.9995 0.0273
vn 0.0341 0.9990 0.0283
vn -0.0190 0.9996 0.0194
s 0
f 51//1 53//1 55//1
f 5//2 52//2 51//2
f 3//3 54//3 53//3
f 7//4 55//4 1//4
f 6//5 56//5 50//5
f 6//6 49//6 7//6
f 4//7 53//7 52//7
f 1//8 54//8 2//8
f 48//9 51//9 56//9
f 10//10 1//10 2//10
f 13//11 48//11 8//11
f 12//12 5//12 13//12
f 11//13 2//13 3//13
f 15//14 1//14 9//14
f 14//15 48//15 6//15
f 15//16 6//16 7//16
f 11//17 4//17 12//17
f 20//18 13//18 21//18
f 18//19 11//19 19//19
f 17//20 15//20 9//20
f 22//21 8//21 14//21
f 23//22 14//22 15//22
f 19//23 12//23 20//23
f 18//24 9//24 10//24
f 21//25 8//25 16//25
f 30//26 37//26 43//26
f 29//27 41//27 28//27
f 27//28 39//28 26//28
f 29//29 43//29 42//29
f 28//30 40//30 27//30
f 24//31 38//31 37//31
f 44//32 39//32 47//32
f 38//33 44//33 47//33
f 32//34 31//34 33//34
f 58//35 59//35 57//35
f 60//36 63//36 59//36
f 64//37 61//37 63//37
f 62//38 57//38 61//38
f 63//39 57//39 59//39
f 60//40 62//40 64//40
f 55//1 49//1 50//1
f 50//41 56//41 51//41
f 51//1 52//1 53//1
f 53//1 54//1 55//1
f 55//1 50//1 51//1
f 5//42 4//42 52//42
f 3//3 2//3 54//3
f 7//4 49//4 55//4
f 6//43 48//43 56//43
f 6//6 50//6 49//6
f 4//44 3//44 53//44
f 1//8 55//8 54//8
f 48//45 5//45 51//45
f 10//10 9//10 1//10
f 13//11 5//11 48//11
f 12//46 4//46 5//46
f 11//13 10//13 2//13
f 15//14 7//14 1//14
f 14//15 8//15 48//15
f 15//16 14//16 6//16
f 11//17 3//17 4//17
f 20//47 12//47 13//47
f 18//19 10//19 11//19
f 17//20 23//20 15//20
f 22//48 16//48 8//48
f 23//22 22//22 14//22
f 19//49 11//49 12//49
f 18//24 17//24 9//24
f 21//50 13//50 8//50
f 30//51 24//51 37//51
f 29//52 42//52 41//52
f 27//53 40//53 39//53
f 29//54 30//54 43//54
f 28//55 41//55 40//55
f 24//56 25//56 38//56
f 44//57 26//57 39//57
f 38//58 25//58 44//58
f 33//59 45//59 46//59
f 46//60 36//60 32//60
f 32//61 35//61 31//61
f 31//62 34//62 33//62
f 33//63 46//63 32//63
f 58//35 60//35 59//35
f 60//36 64//36 63//36
f 64//37 62//37 61//37
f 62//38 58//38 57//38
f 63//39 61//39 57//39
f 60//40 58//40 62//40
