# Blender 4.0.1
# www.blender.org
o gunner_body.005
v -0.012206 0.189144 -0.117663 0.3529 0.1176 0.0000
v -0.005022 0.180688 0.098774 0.3529 0.1176 0.0000
v -0.081919 0.187352 0.063951 0.3529 0.1176 0.0000
v -0.086948 0.182412 -0.075190 0.3529 0.1176 0.0000
v -0.000098 -0.166561 -0.106276 0.3529 0.1176 0.0000
v 0.061836 -0.166561 -0.079140 0.3529 0.1176 0.0000
v 0.096909 0.179475 -0.077698 0.3529 0.1176 0.0000
v 0.061836 -0.166283 0.039423 0.3529 0.1176 0.0000
v 0.091471 0.178376 0.046966 0.3529 0.1176 0.0000
v -0.018050 -0.167518 0.069361 0.3529 0.1176 0.0000
v -0.062170 -0.162650 0.030421 0.3529 0.1176 0.0000
v -0.063222 -0.166561 -0.052948 0.3529 0.1176 0.0000
v -0.012206 0.189144 -0.117663 1.0000 0.0000 0.0000
v -0.005022 0.180688 0.098774 1.0000 0.0000 0.0000
v -0.081919 0.187352 0.063951 1.0000 0.0000 0.0000
v -0.086948 0.182412 -0.075190 1.0000 0.0000 0.0000
v 0.096909 0.179475 -0.077698 1.0000 0.0000 0.0000
v 0.091471 0.178376 0.046966 1.0000 0.0000 0.0000
v -0.000098 -0.166561 -0.106276 1.0000 0.0000 0.0000
v 0.061836 -0.166561 -0.079140 1.0000 0.0000 0.0000
v 0.061836 -0.166283 0.039423 1.0000 0.0000 0.0000
v -0.018050 -0.167518 0.069361 1.0000 0.0000 0.0000
v -0.062170 -0.162650 0.030421 1.0000 0.0000 0.0000
v -0.063222 -0.166561 -0.052948 1.0000 0.0000 0.0000
v 0.003075 0.169412 0.022234 1.0000 1.0000 1.0000
v 0.003075 0.218342 0.022234 1.0000 1.0000 1.0000
v -0.031524 0.169412 -0.012365 1.0000 1.0000 1.0000
v -0.031524 0.218342 -0.012365 1.0000 1.0000 1.0000
v 0.037674 0.169412 -0.012365 1.0000 1.0000 1.0000
v 0.037674 0.218342 -0.012365 1.0000 1.0000 1.0000
v 0.003075 0.169412 -0.046964 1.0000 1.0000 1.0000
v 0.003075 0.218342 -0.046964 1.0000 1.0000 1.0000
v 0.001525 -0.201266 0.013646 1.0000 1.0000 1.0000
v 0.001525 -0.159733 0.013646 1.0000 1.0000 1.0000
v -0.027843 -0.201266 -0.015723 1.0000 1.0000 1.0000
v -0.027843 -0.159733 -0.015723 1.0000 1.0000 1.0000
v 0.030894 -0.201266 -0.015723 1.0000 1.0000 1.0000
v 0.030894 -0.159733 -0.015723 1.0000 1.0000 1.0000
v 0.001525 -0.201266 -0.045091 1.0000 1.0000 1.0000
v 0.001525 -0.159733 -0.045091 1.0000 1.0000 1.0000
vn 0.4010 -0.0368 -0.9153
vn 0.9949 -0.1008 0.0002
vn 0.3507 -0.0918 0.9320
vn -0.6636 -0.0383 0.7471
vn -0.9976 -0.0668 0.0157
vn -0.6426 -0.0922 -0.7606
vn 0.0160 0.9999 0.0024
vn -0.0015 -1.0000 -0.0073
vn -0.7071 -0.0000 0.7071
vn -0.7071 -0.0000 -0.7071
vn 0.7071 -0.0000 -0.7071
vn 0.7071 -0.0000 0.7071
vn -0.0000 -1.0000 -0.0000
vn -0.0000 1.0000 -0.0000
vn 0.3424 -0.0184 -0.9394
vn 0.9953 -0.0865 0.0427
vn 0.4711 -0.0598 0.8801
vn -0.4179 -0.1100 0.9018
vn -0.9975 -0.0599 0.0382
vn -0.4905 -0.0446 -0.8703
vn 0.1038 0.9938 -0.0390
vn 0.0294 0.9995 0.0101
vn 0.0182 0.9820 0.1878
vn 0.0163 -0.9999 0.0023
vn -0.1515 -0.9873 0.0482
s 0
f 5//1 7//1 6//1
f 7//2 8//2 6//2
f 8//3 2//3 10//3
f 2//4 11//4 10//4
f 11//5 4//5 12//5
f 4//6 5//6 12//6
f 14//7 17//7 16//7
f 20//8 22//8 24//8
f 26//9 27//9 25//9
f 28//10 31//10 27//10
f 32//11 29//11 31//11
f 30//12 25//12 29//12
f 31//13 25//13 27//13
f 32//14 26//14 30//14
f 34//9 35//9 33//9
f 36//10 39//10 35//10
f 40//11 37//11 39//11
f 38//12 33//12 37//12
f 39//13 33//13 35//13
f 36//14 38//14 40//14
f 5//15 1//15 7//15
f 7//16 9//16 8//16
f 8//17 9//17 2//17
f 2//18 3//18 11//18
f 11//19 3//19 4//19
f 4//20 1//20 5//20
f 16//21 15//21 14//21
f 14//22 18//22 17//22
f 17//23 13//23 16//23
f 24//13 19//13 20//13
f 20//24 21//24 22//24
f 22//25 23//25 24//25
f 26//9 28//9 27//9
f 28//10 32//10 31//10
f 32//11 30//11 29//11
f 30//12 26//12 25//12
f 31//13 29//13 25//13
f 32//14 28//14 26//14
f 34//9 36//9 35//9
f 36//10 40//10 39//10
f 40//11 38//11 37//11
f 38//12 34//12 33//12
f 39//13 37//13 33//13
f 36//14 34//14 38//14
