# Blender 4.0.1
# www.blender.org
o gunner_body.005
v -0.187727 -0.394763 -0.129333 0.5686 0.1882 0.0000
v -0.187727 -0.399717 0.122585 0.5686 0.1882 0.0000
v -0.261052 -0.393052 0.063951 0.5686 0.1882 0.0000
v -0.266081 -0.397992 -0.075190 0.5686 0.1882 0.0000
v 0.179109 -0.394763 -0.138101 0.5686 0.1882 0.0000
v 0.179109 -0.399717 0.131051 0.5686 0.1882 0.0000
v 0.252434 -0.393052 0.071793 0.5686 0.1882 0.0000
v 0.257464 -0.397992 -0.084154 0.5686 0.1882 0.0000
v -0.266580 -0.249348 -0.071358 0.5686 0.1882 0.0000
v -0.266580 -0.249348 0.073499 0.5686 0.1882 0.0000
v -0.182332 -0.249348 0.128225 0.5686 0.1882 0.0000
v -0.182332 -0.249348 -0.143786 0.5686 0.1882 0.0000
v 0.179455 -0.249348 -0.143786 0.5686 0.1882 0.0000
v 0.179455 -0.249348 0.128225 0.5686 0.1882 0.0000
v 0.263702 -0.249348 0.073499 0.5686 0.1882 0.0000
v 0.263702 -0.249348 -0.071358 0.5686 0.1882 0.0000
v -0.167249 0.225420 -0.138128 0.5686 0.1882 0.0000
v 0.167127 0.225420 -0.145942 0.5686 0.1882 0.0039
v 0.145409 0.358709 -0.110478 0.5686 0.1882 0.0039
v -0.164654 0.336859 0.130608 0.5686 0.1882 0.0039
v -0.145262 0.358709 -0.110478 0.5686 0.1882 0.0000
v 0.184898 0.336859 0.130608 0.5686 0.1882 0.0039
v -0.047118 0.373902 -0.073598 0.5686 0.1882 0.0000
v -0.114788 0.373902 -0.027124 0.5686 0.1882 0.0039
v -0.114788 0.373902 0.038602 0.5686 0.1882 0.0039
v 0.048582 0.373902 0.085077 0.5686 0.1882 0.0000
v -0.047118 0.373902 0.085077 0.5686 0.1882 0.0000
v 0.116252 0.373902 0.038602 0.5686 0.1882 0.0039
v 0.116252 0.373902 -0.027124 0.5686 0.1882 0.0039
v 0.048582 0.373902 -0.073598 0.5686 0.1882 0.0000
v 0.322774 0.075540 -0.097897 0.5686 0.1882 0.0039
v 0.201088 0.099067 -0.143242 0.5686 0.1882 0.0039
v -0.189860 0.098599 -0.148975 0.5686 0.1882 0.0000
v -0.304271 0.079614 -0.082350 0.5686 0.1882 0.0039
v -0.301285 0.079348 0.069280 0.5686 0.1882 0.0039
v -0.188667 0.098517 0.123151 0.5686 0.1882 0.0039
v 0.314677 0.079348 0.069280 0.5686 0.1882 0.0000
v 0.202059 0.098517 0.130566 0.5686 0.1882 0.0000
v 0.295495 -0.085418 -0.077141 0.5686 0.1882 0.0000
v -0.189258 -0.070946 -0.151774 0.5686 0.1882 0.0000
v -0.288382 -0.085620 0.075479 0.5686 0.1882 0.0000
v 0.293614 -0.085620 0.075479 0.5686 0.1882 0.0000
v 0.188273 -0.071008 0.131649 0.5686 0.1882 0.0000
v 0.189025 -0.070946 -0.151774 0.5686 0.1882 0.0000
v -0.290264 -0.085418 -0.077141 0.5686 0.1882 0.0000
v -0.188506 -0.071008 0.124946 0.5686 0.1882 0.0000
v 0.179363 0.163436 -0.149536 0.5686 0.1882 0.0039
v -0.307362 0.143905 -0.105216 0.5686 0.1882 0.0039
v -0.182799 0.164250 0.125351 0.5686 0.1882 0.0039
v 0.331386 0.140354 -0.115156 0.5686 0.1882 0.0039
v -0.184065 0.164314 -0.141617 0.5686 0.1882 0.0000
v -0.312480 0.168844 0.074575 0.5686 0.1882 0.0039
v 0.329446 0.144199 0.079819 0.5686 0.1882 0.0039
v 0.200811 0.164250 0.130457 0.5686 0.1882 0.0039
v -0.331030 0.312874 -0.086199 0.5686 0.1882 0.0039
v -0.317223 0.231571 -0.104815 0.5686 0.1882 0.0039
v -0.346115 0.291949 0.076094 0.5686 0.1882 0.0039
v -0.357652 0.327439 -0.008968 0.5686 0.1882 0.0039
v 0.328142 0.186354 -0.129373 0.5686 0.1882 0.0039
v 0.356320 0.220903 0.079912 0.5686 0.1882 0.0039
v 0.378541 0.284904 0.069579 0.5686 0.1882 0.0039
v 0.385425 0.310730 0.022034 0.5686 0.1882 0.0039
v 0.378003 0.317642 -0.056399 0.5686 0.1882 0.0039
v 0.346876 0.307690 -0.102810 0.5686 0.1882 0.0039
v -0.187727 -0.394763 -0.129333 1.0000 0.0000 0.0000
v -0.187727 -0.399717 0.122585 1.0000 0.0000 0.0000
v -0.261052 -0.393052 0.063951 1.0000 0.0000 0.0000
v -0.266081 -0.397992 -0.075190 1.0000 0.0000 0.0000
v 0.179109 -0.394763 -0.138101 1.0000 0.0000 0.0000
v 0.179109 -0.399717 0.131051 1.0000 0.0000 0.0000
v 0.252434 -0.393052 0.071793 1.0000 0.0000 0.0000
v 0.257464 -0.397992 -0.084154 1.0000 0.0000 0.0000
v 0.329446 0.144199 0.079819 1.0000 0.0000 0.0000
v 0.328142 0.186354 -0.129373 1.0000 0.0000 0.0000
v 0.356320 0.220903 0.079912 1.0000 0.0000 0.0000
v 0.378541 0.284904 0.069579 1.0000 0.0000 0.0000
v 0.385425 0.310730 0.022034 1.0000 0.0000 0.0000
v 0.378003 0.317642 -0.056399 1.0000 0.0000 0.0000
v 0.346876 0.307690 -0.102810 1.0000 0.0000 0.0000
v -0.047118 0.373902 -0.073598 1.0000 0.0000 0.0000
v -0.114788 0.373902 -0.027124 1.0000 0.0000 0.0000
v -0.114788 0.373902 0.038602 1.0000 0.0000 0.0000
v 0.048582 0.373902 0.085077 1.0000 0.0000 0.0000
v -0.047118 0.373902 0.085077 1.0000 0.0000 0.0000
v 0.116252 0.373902 0.038602 1.0000 0.0000 0.0000
v 0.116252 0.373902 -0.027124 1.0000 0.0000 0.0000
v 0.048582 0.373902 -0.073598 1.0000 0.0000 0.0000
v -0.307362 0.143905 -0.105216 1.0000 0.0000 0.0000
v -0.312480 0.168844 0.074575 1.0000 0.0000 0.0000
v -0.331030 0.312874 -0.086199 1.0000 0.0000 0.0000
v -0.317223 0.231571 -0.104815 1.0000 0.0000 0.0000
v -0.346115 0.291949 0.076094 1.0000 0.0000 0.0000
v -0.357652 0.327439 -0.008968 1.0000 0.0000 0.0000
v -0.034643 0.368576 -0.000636 1.0000 1.0000 1.0000
v -0.034643 0.418053 -0.000636 1.0000 1.0000 1.0000
v 0.000342 0.368576 -0.035621 1.0000 1.0000 1.0000
v 0.000342 0.418053 -0.035621 1.0000 1.0000 1.0000
v 0.000342 0.368576 0.034350 1.0000 1.0000 1.0000
v 0.000342 0.418053 0.034350 1.0000 1.0000 1.0000
v 0.035327 0.368576 -0.000636 1.0000 1.0000 1.0000
v 0.035327 0.418053 -0.000636 1.0000 1.0000 1.0000
v 0.342709 0.270269 -0.016395 1.0000 1.0000 1.0000
v 0.391997 0.265957 -0.016395 1.0000 1.0000 1.0000
v 0.339660 0.235418 -0.051380 1.0000 1.0000 1.0000
v 0.388948 0.231105 -0.051380 1.0000 1.0000 1.0000
v 0.339660 0.235418 0.018590 1.0000 1.0000 1.0000
v 0.388948 0.231105 0.018590 1.0000 1.0000 1.0000
v 0.336611 0.200566 -0.016395 1.0000 1.0000 1.0000
v 0.385899 0.196254 -0.016395 1.0000 1.0000 1.0000
v -0.369047 0.270072 -0.016395 1.0000 1.0000 1.0000
v -0.319759 0.274384 -0.016395 1.0000 1.0000 1.0000
v -0.365997 0.235220 -0.051380 1.0000 1.0000 1.0000
v -0.316709 0.239532 -0.051380 1.0000 1.0000 1.0000
v -0.365997 0.235220 0.018590 1.0000 1.0000 1.0000
v -0.316709 0.239532 0.018590 1.0000 1.0000 1.0000
v -0.362948 0.200368 -0.016395 1.0000 1.0000 1.0000
v -0.313660 0.204680 -0.016395 1.0000 1.0000 1.0000
vn -0.9993 -0.0043 0.0363
vn -0.0238 -0.0980 -0.9949
vn 0.6514 0.0379 -0.7577
vn -0.6511 -0.0511 -0.7573
vn 0.6278 0.0132 0.7783
vn -0.5431 -0.0765 0.8361
vn 0.9969 -0.0782 -0.0000
vn -0.0216 0.0629 -0.9978
vn -0.0000 0.0188 0.9998
vn -0.0226 0.2536 -0.9670
vn -0.0000 0.9246 -0.3809
vn -0.0985 0.9847 -0.1435
vn -0.1898 0.9421 0.2764
vn -0.0178 -0.0183 0.9997
vn 0.1740 0.9516 0.2533
vn 0.0994 0.9845 -0.1447
vn 0.4734 -0.0329 0.8802
vn -0.9963 -0.0839 0.0195
vn 0.9919 -0.1262 0.0121
vn -0.4437 -0.0010 0.8962
vn -0.5047 0.0125 -0.8632
vn -0.0000 0.0165 -0.9999
vn 0.5446 -0.1974 -0.8152
vn 0.5561 -0.1368 -0.8198
vn -0.0000 -0.0447 -0.9990
vn -0.5878 -0.0589 -0.8069
vn -0.4347 -0.0687 0.8980
vn 0.9837 -0.1797 -0.0000
vn -0.9897 -0.1426 0.0120
vn 0.5442 -0.0430 0.8378
vn -0.0000 0.7757 0.6311
vn -0.0178 0.0106 0.9998
vn -0.9983 -0.0554 -0.0207
vn -0.0133 0.0014 0.9999
vn 0.9718 -0.2298 0.0523
vn -0.4145 -0.1053 0.9039
vn -0.3007 0.1323 -0.9445
vn 0.0147 -0.0924 -0.9956
vn 0.2867 -0.2819 -0.9156
vn -0.2110 0.1135 -0.9709
vn -0.1814 0.2283 -0.9565
vn -0.2635 0.9273 -0.2657
vn -0.1945 0.9751 -0.1066
vn -0.1879 0.9822 -0.0000
vn -0.2295 0.9396 0.2539
vn -0.3318 0.8538 0.4012
vn -0.2673 -0.0849 0.9599
vn -0.3643 0.0099 0.9312
vn -0.0133 -0.0290 0.9995
vn 0.3001 0.0268 0.9535
vn 0.3469 -0.1227 0.9298
vn 0.9973 0.0729 0.0085
vn 0.3113 0.0452 0.9492
vn 0.3659 0.7946 0.4846
vn 0.1665 0.9835 0.0709
vn 0.2688 0.9462 0.1804
vn 0.2101 0.9777 -0.0000
vn 0.1662 0.9354 -0.3120
vn 0.2477 0.9647 -0.0892
vn 0.1052 0.2717 -0.9566
vn 0.1711 -0.2799 -0.9447
vn 0.4323 -0.2397 0.8693
vn -0.0062 -0.9999 -0.0103
vn 0.9453 -0.3174 -0.0749
vn -0.0000 1.0000 -0.0000
vn -0.9861 -0.1260 -0.1079
vn -0.7071 -0.0000 -0.7071
vn 0.7071 -0.0000 -0.7071
vn 0.7071 -0.0000 0.7071
vn -0.7071 -0.0000 0.7071
vn -0.0000 -1.0000 -0.0000
vn 0.0616 0.7044 -0.7071
vn -0.0616 -0.7044 -0.7071
vn -0.0616 -0.7044 0.7071
vn 0.0616 0.7044 0.7071
vn -0.9962 0.0872 -0.0000
vn 0.9962 -0.0872 -0.0000
vn -0.0616 0.7044 -0.7071
vn 0.0616 -0.7044 -0.7071
vn 0.0616 -0.7044 0.7071
vn -0.0616 0.7044 0.7071
vn -0.9962 -0.0872 -0.0000
vn 0.9962 0.0872 -0.0000
vn -0.9993 -0.0384 -0.0000
vn -0.0000 -0.0391 -0.9992
vn 0.5658 -0.0336 -0.8238
vn -0.5689 0.0193 -0.8222
vn 0.5440 -0.0526 0.8374
vn -0.6249 -0.0069 0.7807
vn 0.9984 -0.0448 0.0336
vn -0.0233 0.0533 -0.9983
vn -0.0231 -0.0366 0.9991
vn -0.0000 0.2031 -0.9792
vn -0.0000 0.0184 0.9998
vn 0.4675 -0.0265 0.8836
vn -0.9969 -0.0775 0.0122
vn 0.9857 -0.1604 0.0514
vn -0.4328 0.0091 0.9015
vn -0.5856 -0.0752 -0.8071
vn 0.0146 0.0491 -0.9987
vn 0.3528 0.0219 -0.9354
vn 0.6504 -0.0688 -0.7565
vn -0.6472 -0.1201 -0.7528
vn -0.5447 -0.0034 0.8386
vn 0.9817 -0.1900 0.0119
vn -0.9912 -0.1320 -0.0000
vn 0.4582 -0.0944 0.8838
vn -0.0190 0.0079 0.9998
vn -0.9919 -0.1252 0.0193
vn -0.0190 -0.0318 0.9993
vn 0.9916 -0.1285 0.0124
vn -0.3646 0.0014 0.9312
vn -0.4365 -0.3200 -0.8408
vn -0.0214 0.1131 -0.9934
vn 0.2173 -0.0221 -0.9758
vn -0.2789 -0.0270 -0.9599
vn -0.2059 0.1851 -0.9609
vn -0.0000 -0.0009 1.0000
vn 0.1460 0.1900 -0.9709
vn 0.1215 0.0814 -0.9892
vn 0.3674 0.0085 0.9300
vn 0.0027 -0.9932 -0.1162
vn 0.0640 -0.9974 0.0331
vn -0.0014 -0.9983 -0.0578
vn 0.1187 -0.9923 0.0353
vn -0.0156 -0.9999 0.0029
vn 0.9414 -0.3342 -0.0452
vn 0.9413 -0.3297 -0.0723
vn 0.8311 -0.0066 -0.5560
vn 0.9192 -0.3752 -0.1200
vn -0.9646 -0.2637 0.0091
vn -0.7746 -0.6141 -0.1512
vn -0.9633 -0.1072 -0.2462
s 0
f 3//1 9//1 4//1
f 12//2 5//2 1//2
f 8//3 13//3 16//3
f 1//4 9//4 12//4
f 7//5 14//5 6//5
f 3//6 11//6 10//6
f 7//7 16//7 15//7
f 17//8 47//8 51//8
f 11//9 6//9 14//9
f 17//10 19//10 18//10
f 19//11 23//11 30//11
f 23//12 21//12 24//12
f 25//13 20//13 27//13
f 46//14 14//14 43//14
f 26//15 22//15 28//15
f 30//16 29//16 19//16
f 43//17 37//17 38//17
f 45//18 35//18 34//18
f 39//19 37//19 42//19
f 46//20 35//20 41//20
f 40//21 34//21 33//21
f 33//22 44//22 40//22
f 44//23 31//23 39//23
f 16//24 44//24 39//24
f 40//25 13//25 12//25
f 12//26 45//26 40//26
f 10//27 46//27 41//27
f 16//28 42//28 15//28
f 9//29 41//29 45//29
f 15//30 43//30 14//30
f 20//31 26//31 27//31
f 43//32 36//32 46//32
f 34//33 52//33 48//33
f 49//34 38//34 54//34
f 31//35 53//35 37//35
f 36//36 52//36 35//36
f 33//37 48//37 51//37
f 33//38 47//38 32//38
f 32//39 50//39 31//39
f 51//40 56//40 17//40
f 17//41 55//41 21//41
f 58//42 21//42 55//42
f 21//43 58//43 24//43
f 24//44 58//44 25//44
f 25//45 58//45 20//45
f 58//46 57//46 20//46
f 52//47 20//47 57//47
f 52//48 49//48 20//48
f 54//49 20//49 49//49
f 22//50 54//50 60//50
f 54//51 53//51 60//51
f 53//52 50//52 59//52
f 60//53 61//53 22//53
f 61//54 62//54 22//54
f 62//55 63//55 22//55
f 22//56 63//56 28//56
f 28//57 63//57 29//57
f 63//58 64//58 29//58
f 29//59 64//59 19//59
f 64//60 18//60 19//60
f 47//61 59//61 50//61
f 53//62 38//62 37//62
f 65//63 72//63 70//63
f 75//64 74//64 78//64
f 83//65 86//65 80//65
f 92//66 90//66 88//66
f 95//67 96//67 94//67
f 97//68 100//68 96//68
f 101//69 98//69 100//69
f 99//70 94//70 98//70
f 100//71 94//71 96//71
f 101//65 95//65 99//65
f 103//72 104//72 102//72
f 105//73 108//73 104//73
f 108//74 107//74 106//74
f 106//75 103//75 102//75
f 108//76 102//76 104//76
f 109//77 103//77 107//77
f 111//78 112//78 110//78
f 112//79 117//79 116//79
f 117//80 114//80 116//80
f 115//81 110//81 114//81
f 116//82 110//82 112//82
f 117//83 111//83 115//83
f 3//84 10//84 9//84
f 12//85 13//85 5//85
f 8//86 5//86 13//86
f 1//87 4//87 9//87
f 7//88 15//88 14//88
f 3//89 2//89 11//89
f 7//90 8//90 16//90
f 17//91 18//91 47//91
f 11//92 2//92 6//92
f 17//93 21//93 19//93
f 19//11 21//11 23//11
f 46//94 11//94 14//94
f 43//95 42//95 37//95
f 45//96 41//96 35//96
f 39//97 31//97 37//97
f 46//98 36//98 35//98
f 40//99 45//99 34//99
f 33//100 32//100 44//100
f 44//101 32//101 31//101
f 16//102 13//102 44//102
f 40//25 44//25 13//25
f 12//103 9//103 45//103
f 10//104 11//104 46//104
f 16//105 39//105 42//105
f 9//106 10//106 41//106
f 15//107 42//107 43//107
f 20//31 22//31 26//31
f 43//108 38//108 36//108
f 34//109 35//109 52//109
f 49//110 36//110 38//110
f 31//111 50//111 53//111
f 36//112 49//112 52//112
f 33//113 34//113 48//113
f 33//114 51//114 47//114
f 32//115 47//115 50//115
f 51//116 48//116 56//116
f 17//117 56//117 55//117
f 54//118 22//118 20//118
f 64//119 59//119 18//119
f 47//120 18//120 59//120
f 53//121 54//121 38//121
f 70//122 66//122 67//122
f 67//123 68//123 65//123
f 65//124 69//124 72//124
f 72//125 71//125 70//125
f 70//126 67//126 65//126
f 77//127 76//127 75//127
f 75//128 73//128 74//128
f 74//129 79//129 78//129
f 78//130 77//130 75//130
f 80//65 81//65 82//65
f 82//65 84//65 83//65
f 83//65 85//65 86//65
f 86//65 87//65 80//65
f 80//65 82//65 83//65
f 88//131 89//131 92//131
f 92//132 93//132 90//132
f 90//133 91//133 88//133
f 95//67 97//67 96//67
f 97//68 101//68 100//68
f 101//69 99//69 98//69
f 99//70 95//70 94//70
f 100//71 98//71 94//71
f 101//65 97//65 95//65
f 103//72 105//72 104//72
f 105//73 109//73 108//73
f 108//74 109//74 107//74
f 106//75 107//75 103//75
f 108//76 106//76 102//76
f 109//77 105//77 103//77
f 111//78 113//78 112//78
f 112//79 113//79 117//79
f 117//80 115//80 114//80
f 115//81 111//81 110//81
f 116//82 114//82 110//82
f 117//83 113//83 111//83
