# Blender 4.0.1
# www.blender.org
o runner_body.001
v 0.061118 -0.175694 -0.043015 0.2000 0.2000 0.2000
v -0.002107 -0.175694 0.066494 0.2000 0.2000 0.2000
v -0.065331 -0.175694 -0.043015 0.2000 0.2000 0.2000
v -0.002108 -0.175288 -0.097600 0.4000 0.2039 0.0039
v 0.076496 -0.175694 -0.051893 0.4000 0.2039 0.0039
v 0.076496 -0.175694 0.038869 0.4000 0.2039 0.0039
v -0.002107 -0.175694 0.084250 0.4000 0.2039 0.0039
v -0.080709 -0.175694 0.038869 0.4000 0.2039 0.0039
v -0.080709 -0.175694 -0.051893 0.4000 0.2039 0.0039
v 0.076495 -0.187486 -0.118846 0.4000 0.2039 0.0039
v 0.076496 -0.240236 0.038869 0.4000 0.2039 0.0039
v -0.002107 -0.240236 0.084250 0.4000 0.2039 0.0039
v -0.080709 -0.240236 0.038869 0.4000 0.2039 0.0039
v -0.080709 -0.187828 -0.118570 0.4000 0.2039 0.0039
v 0.076496 -0.240236 -0.118628 0.4000 0.2039 0.0039
v -0.080709 -0.240236 -0.118628 0.4000 0.2039 0.0039
v 0.037509 -0.240135 -0.208480 0.4000 0.2039 0.0039
v -0.041722 -0.240307 -0.208342 0.4000 0.2039 0.0039
v -0.002104 -0.224785 -0.182067 0.4000 0.2039 0.0039
v 0.076496 -0.254627 0.038869 0.4000 0.2039 0.0039
v -0.002107 -0.254627 0.084250 0.4000 0.2039 0.0039
v -0.080709 -0.254627 0.038869 0.4000 0.2039 0.0039
v 0.076496 -0.254627 -0.118628 0.4000 0.2039 0.0039
v -0.080709 -0.254627 -0.118628 0.4000 0.2039 0.0039
v 0.037509 -0.254526 -0.208480 0.4000 0.2039 0.0039
v -0.041722 -0.254698 -0.208342 0.4000 0.2039 0.0039
v 0.061118 0.216677 0.029991 0.0039 0.2000 0.4000
v -0.002107 0.216677 0.066494 0.0039 0.2000 0.4000
v -0.065331 0.216677 0.029991 0.0039 0.2000 0.4000
v -0.002107 0.216430 -0.079517 0.0039 0.2000 0.4000
v 0.061118 0.216430 -0.043015 0.0039 0.2000 0.4000
v -0.065331 0.216430 -0.043015 0.0039 0.2000 0.4000
v -0.002107 0.216677 0.066494 1.0000 0.0000 0.0000
v -0.065331 0.216677 0.029991 1.0000 0.0000 0.0000
v 0.061118 0.216677 0.029991 1.0000 0.0000 0.0000
v -0.002107 -0.175694 -0.079517 0.2000 0.2000 0.2000
v 0.061118 -0.175694 0.029991 0.2000 0.2000 0.2000
v -0.065331 -0.175694 0.029991 0.2000 0.2000 0.2000
v -0.002107 0.216430 -0.079517 1.0000 0.0000 0.0000
v 0.061118 0.216430 -0.043015 1.0000 0.0000 0.0000
v -0.065331 0.216430 -0.043015 1.0000 0.0000 0.0000
v -0.026981 0.214399 -0.005153 1.0000 1.0000 1.0000
v -0.026981 0.251515 -0.005153 1.0000 1.0000 1.0000
v -0.000736 0.214399 -0.031398 1.0000 1.0000 1.0000
v -0.000736 0.251515 -0.031398 1.0000 1.0000 1.0000
v -0.000736 0.214399 0.021093 1.0000 1.0000 1.0000
v -0.000736 0.251515 0.021093 1.0000 1.0000 1.0000
v 0.025509 0.214399 -0.005153 1.0000 1.0000 1.0000
v 0.025509 0.251515 -0.005153 1.0000 1.0000 1.0000
vn 0.0130 0.9997 0.0224
vn -0.0026 1.0000 0.0045
vn -0.0000 1.0000 -0.0000
vn -0.0079 0.9997 0.0224
vn -0.5000 -0.0000 0.8660
vn 0.5000 -0.0000 0.8660
vn 1.0000 -0.0000 -0.0000
vn -1.0000 -0.0000 -0.0000
vn -0.1085 0.9780 -0.1780
vn 1.0000 -0.0001 -0.0000
vn 0.1054 0.9794 -0.1725
vn -0.0028 0.8628 -0.5056
vn 0.9174 -0.0016 -0.3980
vn -0.9171 0.0004 -0.3986
vn -0.0018 -0.0000 -1.0000
vn -0.0000 -1.0000 -0.0000
vn -0.0018 -1.0000 -0.0000
vn 0.0022 -1.0000 -0.0021
vn 0.0003 -1.0000 0.0003
vn -0.9171 -0.0000 -0.3986
vn 0.9174 -0.0000 -0.3980
vn 0.9174 -0.0000 -0.3981
vn -0.0000 1.0000 -0.0023
vn 0.5000 -0.0000 -0.8660
vn -0.5000 -0.0000 -0.8660
vn -0.7071 -0.0000 -0.7071
vn 0.7071 -0.0000 -0.7071
vn 0.7071 -0.0000 0.7071
vn -0.7071 -0.0000 0.7071
vn 0.0020 1.0000 -0.0034
vn -0.0020 1.0000 -0.0034
s 0
f 3//1 36//1 4//1
f 3//2 4//2 9//2
f 2//3 38//3 8//3
f 2//3 8//3 7//3
f 1//3 37//3 6//3
f 1//3 6//3 5//3
f 38//3 3//3 9//3
f 38//3 9//3 8//3
f 37//3 2//3 7//3
f 37//3 7//3 6//3
f 36//3 1//3 5//3
f 36//4 5//4 4//4
f 7//5 8//5 13//5
f 7//5 13//5 12//5
f 6//6 7//6 12//6
f 6//6 12//6 11//6
f 6//7 11//7 15//7
f 6//7 15//7 10//7
f 13//8 8//8 14//8
f 13//8 14//8 16//8
f 14//9 9//9 4//9
f 14//8 8//8 9//8
f 6//10 10//10 5//10
f 10//11 4//11 5//11
f 19//12 17//12 18//12
f 10//13 15//13 17//13
f 10//12 17//12 4//12
f 17//12 19//12 4//12
f 19//12 18//12 4//12
f 14//14 18//14 16//14
f 4//12 18//12 14//12
f 18//15 17//15 25//15
f 18//15 25//15 26//15
f 20//16 21//16 22//16
f 22//17 24//17 26//17
f 26//18 25//18 23//18
f 23//16 20//16 22//16
f 22//19 26//19 23//19
f 15//7 11//7 20//7
f 15//7 20//7 23//7
f 16//20 18//20 26//20
f 16//20 26//20 24//20
f 11//6 12//6 21//6
f 11//6 21//6 20//6
f 13//8 16//8 24//8
f 13//8 24//8 22//8
f 17//21 15//21 23//21
f 17//22 23//22 25//22
f 12//5 13//5 22//5
f 12//5 22//5 21//5
f 31//7 27//7 37//7
f 31//7 37//7 1//7
f 39//23 34//23 35//23
f 29//8 32//8 3//8
f 29//8 3//8 38//8
f 27//6 28//6 2//6
f 27//6 2//6 37//6
f 30//24 31//24 1//24
f 30//24 1//24 36//24
f 32//25 30//25 36//25
f 32//25 36//25 3//25
f 28//5 29//5 38//5
f 28//5 38//5 2//5
f 43//26 44//26 42//26
f 45//27 48//27 44//27
f 49//28 46//28 48//28
f 47//29 42//29 46//29
f 48//16 42//16 44//16
f 49//3 43//3 47//3
f 35//30 40//30 39//30
f 39//31 41//31 34//31
f 34//3 33//3 35//3
f 43//26 45//26 44//26
f 45//27 49//27 48//27
f 49//28 47//28 46//28
f 47//29 43//29 42//29
f 48//16 46//16 42//16
f 49//3 45//3 43//3
