# Blender 4.0.1
# www.blender.org
o runner_body.001
v 0.206813 -0.042881 -0.022789 0.0118 0.3490 0.6980
v 0.206813 0.005711 -0.050091 0.0118 0.3490 0.6980
v 0.206813 0.054295 -0.015683 0.0118 0.3490 0.6980
v 0.207615 -0.042983 0.027359 0.0118 0.3490 0.6980
v 0.207615 0.005696 0.054371 0.0118 0.3490 0.6980
v 0.207615 0.054369 0.028586 0.0118 0.3490 0.6980
v -0.123751 0.004069 -0.029413 0.0118 0.3490 0.6980
v -0.123751 0.004069 0.038410 0.0118 0.3490 0.6980
v -0.123751 -0.028705 -0.012968 0.0118 0.3490 0.6980
v -0.123751 -0.028705 0.020825 0.0118 0.3490 0.6980
v -0.123751 0.036839 -0.002845 0.0118 0.3490 0.6980
v -0.123751 0.036839 0.021050 0.0118 0.3490 0.6980
v -0.123751 0.004069 -0.029413 0.0039 0.4980 0.0039
v -0.123751 0.004069 0.038410 0.0039 0.4980 0.0039
v -0.123751 -0.028705 -0.012968 0.0039 0.4980 0.0039
v -0.123751 -0.028705 0.020825 0.0039 0.4980 0.0039
v -0.123751 0.036839 -0.002845 0.0039 0.4980 0.0039
v -0.123751 0.036839 0.021050 0.0039 0.4980 0.0039
v -0.146798 -0.045431 -0.041021 0.0039 0.4980 0.0039
v -0.146798 -0.045431 0.041021 0.0039 0.4980 0.0039
v -0.146798 0.004070 -0.058013 0.0039 0.4980 0.0039
v -0.146798 0.004070 0.058013 0.0039 0.4980 0.0039
v -0.146798 0.053564 -0.031793 0.0039 0.4980 0.0039
v -0.146798 0.053564 0.031793 0.0039 0.4980 0.0039
v -0.193957 -0.045431 -0.041021 0.0039 0.4980 0.0039
v -0.193957 -0.045431 0.041021 0.0039 0.4980 0.0039
v -0.193957 0.004070 -0.058013 0.0039 0.4980 0.0039
v -0.193957 0.004070 0.058013 0.0039 0.4980 0.0039
v -0.193957 0.053564 -0.031793 0.0039 0.4980 0.0039
v -0.193957 0.053564 0.031793 0.0039 0.4980 0.0039
v -0.217334 -0.025053 -0.024133 0.0039 0.4980 0.0039
v -0.217334 -0.025053 0.024133 0.0039 0.4980 0.0039
v -0.217334 0.004069 -0.034130 0.0039 0.4980 0.0039
v -0.217334 0.004069 0.034130 0.0039 0.4980 0.0039
v -0.217334 0.033187 -0.018704 0.0039 0.4980 0.0039
v -0.217334 0.033187 0.018704 0.0039 0.4980 0.0039
v 0.200034 0.006582 0.026247 1.0000 1.0000 1.0000
v 0.200034 0.030080 0.002749 1.0000 1.0000 1.0000
v 0.200034 -0.016917 0.002749 1.0000 1.0000 1.0000
v 0.200034 0.006582 -0.020749 1.0000 1.0000 1.0000
v 0.233266 0.006582 0.026247 1.0000 1.0000 1.0000
v 0.233266 0.030080 0.002749 1.0000 1.0000 1.0000
v 0.233266 -0.016917 0.002749 1.0000 1.0000 1.0000
v 0.233266 0.006582 -0.020749 1.0000 1.0000 1.0000
v 0.207615 -0.042983 0.027359 1.0000 0.0000 0.0000
v 0.207615 0.005696 0.054371 1.0000 0.0000 0.0000
v 0.207615 0.054369 0.028586 1.0000 0.0000 0.0000
v 0.206813 -0.042881 -0.022789 1.0000 0.0000 0.0000
v 0.206813 0.005711 -0.050091 1.0000 0.0000 0.0000
v 0.206813 0.054295 -0.015683 1.0000 0.0000 0.0000
vn -0.0528 0.9986 -0.0007
vn -0.0528 0.9986 -0.0000
vn -0.0469 -0.4893 -0.8709
vn -0.0536 -0.4478 -0.8925
vn -0.0448 0.4677 0.8828
vn -0.0538 0.5771 -0.8149
vn -0.0633 0.6285 -0.7752
vn -0.0397 -0.4848 0.8737
vn -0.0377 -0.4725 0.8805
vn -0.0430 -0.9991 -0.0013
vn -0.0428 -0.9991 -0.0000
vn 0.6008 0.3742 0.7064
vn 0.5874 -0.8093 -0.0000
vn 0.6940 0.4534 -0.5593
vn 0.8231 0.2658 -0.5018
vn 0.5997 -0.3783 0.7051
vn 0.7288 -0.2223 0.6476
vn 0.8163 -0.2590 -0.5162
vn 0.7612 -0.2106 -0.6134
vn 0.5873 0.8093 -0.0000
vn -0.0000 0.4681 0.8837
vn -0.0000 -1.0000 -0.0000
vn -0.0000 0.4681 -0.8837
vn -0.0000 -0.3247 0.9458
vn -0.0000 -0.3247 -0.9458
vn -0.0000 1.0000 -0.0000
vn -0.6571 0.7538 -0.0000
vn -0.6701 0.3475 0.6559
vn -0.6571 -0.7538 -0.0000
vn -0.6701 0.3475 -0.6559
vn -0.6949 -0.2335 0.6802
vn -0.6949 -0.2335 -0.6802
vn -1.0000 -0.0000 -0.0000
vn -0.0000 -0.7071 -0.7071
vn 1.0000 -0.0000 -0.0000
vn -0.0000 0.7071 0.7071
vn -0.0000 -0.7071 0.7071
vn -0.0000 0.7071 -0.7071
vn 0.9999 0.0001 -0.0103
vn 0.9998 0.0128 -0.0181
vn 0.9998 -0.0090 -0.0160
s 0
f 6//1 3//1 11//1
f 6//2 11//2 12//2
f 2//3 1//3 9//3
f 2//4 9//4 7//4
f 5//5 6//5 12//5
f 5//5 12//5 8//5
f 3//6 2//6 7//6
f 3//7 7//7 11//7
f 4//8 5//8 8//8
f 4//9 8//9 10//9
f 1//10 4//10 10//10
f 1//11 10//11 9//11
f 14//12 18//12 24//12
f 14//12 24//12 22//12
f 15//13 16//13 20//13
f 15//13 20//13 19//13
f 17//14 13//14 21//14
f 17//15 21//15 23//15
f 16//16 14//16 22//16
f 16//17 22//17 20//17
f 13//18 15//18 19//18
f 13//19 19//19 21//19
f 18//20 17//20 23//20
f 18//20 23//20 24//20
f 22//21 24//21 30//21
f 22//21 30//21 28//21
f 19//22 20//22 26//22
f 19//22 26//22 25//22
f 23//23 21//23 27//23
f 23//23 27//23 29//23
f 20//24 22//24 28//24
f 20//24 28//24 26//24
f 21//25 19//25 25//25
f 21//25 25//25 27//25
f 24//26 23//26 29//26
f 24//26 29//26 30//26
f 30//27 29//27 35//27
f 30//27 35//27 36//27
f 28//28 30//28 36//28
f 28//28 36//28 34//28
f 25//29 26//29 32//29
f 25//29 32//29 31//29
f 29//30 27//30 33//30
f 29//30 33//30 35//30
f 26//31 28//31 34//31
f 26//31 34//31 32//31
f 27//32 25//32 31//32
f 27//32 31//32 33//32
f 31//33 32//33 34//33
f 34//33 36//33 35//33
f 35//33 33//33 31//33
f 34//33 35//33 31//33
f 38//33 39//33 37//33
f 40//34 43//34 39//34
f 43//35 42//35 41//35
f 42//36 37//36 41//36
f 43//37 37//37 39//37
f 40//38 42//38 44//38
f 38//33 40//33 39//33
f 40//34 44//34 43//34
f 43//35 44//35 42//35
f 42//36 38//36 37//36
f 43//37 41//37 37//37
f 40//38 38//38 42//38
f 47//39 45//39 49//39
f 49//40 50//40 47//40
f 47//35 46//35 45//35
f 45//41 48//41 49//41
