# Blender 4.0.1
# www.blender.org
o runner_body.001
v -0.023915 -0.041905 0.030142 0.5451 0.5451 0.5451
v -0.024208 0.010153 0.024145 0.5451 0.5451 0.5451
v 0.025019 -0.041905 0.030142 0.5451 0.5451 0.5451
v 0.025313 0.010153 0.024145 0.5451 0.5451 0.5451
v -0.028555 -0.041905 0.082201 0.5451 0.5451 0.5451
v 0.029660 -0.041905 0.082201 0.5451 0.5451 0.5451
v 0.021590 0.033678 0.067188 0.5451 0.5451 0.5451
v -0.025512 0.060136 0.017679 0.5451 0.5451 0.5451
v 0.026616 0.060136 0.017679 0.5451 0.5451 0.5451
v -0.016968 0.054502 0.058984 0.5451 0.5451 0.5451
v -0.024795 0.010153 -0.059426 0.5451 0.5451 0.5451
v 0.025899 0.010153 -0.059426 0.5451 0.5451 0.5451
v -0.024795 0.060136 -0.065892 0.5451 0.5451 0.5451
v 0.025899 0.060136 -0.065892 0.5451 0.5451 0.5451
v 0.018647 0.056418 -0.111171 0.5451 0.5451 0.5451
v -0.017542 0.056418 -0.111171 0.5451 0.5451 0.5451
v 0.018647 0.027311 -0.107406 0.5451 0.5451 0.5451
v -0.017542 0.027311 -0.107406 0.5451 0.5451 0.5451
v 0.029659 0.010153 0.076203 0.5451 0.5451 0.5451
v -0.028555 0.010153 0.076203 0.5451 0.5451 0.5451
v 0.025273 0.060136 0.056510 0.5451 0.5451 0.5451
v -0.024169 0.060136 0.056510 0.5451 0.5451 0.5451
v -0.020486 0.033678 0.067189 0.5451 0.5451 0.5451
v 0.018072 0.054502 0.058984 0.5451 0.5451 0.5451
v 0.021590 0.033678 0.067188 0.3568 0.3568 0.3568
v -0.016968 0.054502 0.058984 0.3568 0.3568 0.3568
v -0.020486 0.033678 0.067189 0.3568 0.3568 0.3568
v 0.018072 0.054502 0.058984 0.3568 0.3568 0.3568
v -0.008835 0.045810 0.086245 0.3568 0.3568 0.3568
v 0.009939 0.045810 0.086245 0.3568 0.3568 0.3568
v 0.008370 0.058629 0.081195 0.3568 0.3568 0.3568
v -0.007265 0.058629 0.081195 0.3568 0.3568 0.3568
vn -0.0000 -0.1144 -0.9934
vn 0.9964 -0.0152 -0.0832
vn 0.9960 -0.0102 -0.0888
vn -0.0000 0.1144 0.9934
vn -0.9965 -0.0096 -0.0832
vn -0.9959 -0.0158 -0.0888
vn -0.0000 -1.0000 -0.0000
vn 0.9997 -0.0252 0.0070
vn 1.0000 -0.0011 -0.0086
vn -0.0000 1.0000 -0.0000
vn -0.9950 0.0546 -0.0831
vn -0.9992 -0.0216 0.0346
vn 0.9959 -0.0367 -0.0831
vn 0.9943 0.1008 0.0344
vn -0.0000 0.9966 -0.0818
vn -0.9996 -0.0272 -0.0086
vn -1.0000 0.0009 0.0070
vn -0.0000 -0.1283 -0.9917
vn -0.9875 -0.0202 -0.1565
vn -0.0000 -0.9416 -0.3367
vn 0.9875 -0.0202 -0.1565
vn -0.0000 0.3578 0.9338
vn -0.0000 0.4021 0.9156
vn -0.0289 0.3707 0.9283
vn -0.0393 0.3693 0.9285
vn 0.0574 0.3744 0.9255
vn 0.0307 0.3687 0.9290
vn -0.8875 0.2908 0.3575
vn -0.9038 0.2481 0.3487
vn -0.0000 0.3666 0.9304
vn -0.0000 -0.8436 0.5370
vn 0.8967 0.2850 0.3387
vn 0.8887 0.2581 0.3790
vn -0.0000 0.9832 -0.1827
s 0
f 1//1 2//1 4//1
f 1//1 4//1 3//1
f 3//2 4//2 19//2
f 3//3 19//3 6//3
f 6//4 19//4 20//4
f 6//4 20//4 5//4
f 5//5 20//5 2//5
f 5//6 2//6 1//6
f 3//7 6//7 5//7
f 3//7 5//7 1//7
f 9//8 4//8 12//8
f 9//9 12//9 14//9
f 21//10 9//10 8//10
f 21//10 8//10 22//10
f 2//11 20//11 22//11
f 2//12 22//12 8//12
f 19//13 4//13 9//13
f 19//14 9//14 21//14
f 13//15 14//15 15//15
f 13//15 15//15 16//15
f 4//7 2//7 11//7
f 4//7 11//7 12//7
f 2//16 8//16 13//16
f 2//17 13//17 11//17
f 8//10 9//10 14//10
f 8//10 14//10 13//10
f 17//18 18//18 16//18
f 17//18 16//18 15//18
f 11//19 13//19 16//19
f 11//19 16//19 18//19
f 12//20 11//20 18//20
f 12//20 18//20 17//20
f 14//21 12//21 17//21
f 14//21 17//21 15//21
f 7//22 23//22 20//22
f 7//22 20//22 19//22
f 10//23 24//23 21//23
f 10//23 21//23 22//23
f 23//24 10//24 22//24
f 23//25 22//25 20//25
f 24//26 7//26 19//26
f 24//27 19//27 21//27
f 26//28 27//28 29//28
f 26//29 29//29 32//29
f 29//30 30//30 31//30
f 29//30 31//30 32//30
f 27//31 25//31 30//31
f 27//31 30//31 29//31
f 25//32 28//32 31//32
f 25//33 31//33 30//33
f 28//34 26//34 32//34
f 28//34 32//34 31//34
