# Blender 4.1.1
# www.blender.org
o Cube
v -10.000000 0.000000 10.000000
v -10.000000 10.000000 10.000000
v -10.000000 0.000000 -20.000000
v -10.000000 10.000000 -20.000000
v 20.000000 0.000000 10.000000
v 20.000000 10.000000 10.000000
v 20.000000 0.000000 -20.000000
v 20.000000 10.000000 -20.000000
v -20.000000 10.000000 20.000000
v -20.000000 10.000000 -30.000000
v 30.000000 10.000000 20.000000
v 30.000000 10.000000 -30.000000
v -20.000000 22.000000 20.000000
v -20.000000 22.000000 -30.000000
v 30.000000 22.000000 20.000000
v 30.000000 22.000000 -30.000000
vn 1.0000 -0.0000 -0.0000
vn -0.0000 -0.0000 1.0000
vn -1.0000 -0.0000 -0.0000
vn -0.0000 -0.0000 -1.0000
vn -0.0000 1.0000 -0.0000
vn -0.0000 -1.0000 -0.0000
s 0
f 1//1 3//1 4//1 2//1
f 3//2 7//2 8//2 4//2
f 7//3 5//3 6//3 8//3
f 5//4 1//4 2//4 6//4
f 3//5 1//5 5//5 7//5
f 8//5 12//5 10//5 4//5
f 6//5 11//5 12//5 8//5
f 4//5 10//5 9//5 2//5
f 2//5 9//5 11//5 6//5
f 11//4 9//4 13//4 15//4
f 10//2 12//2 16//2 14//2
f 12//3 11//3 15//3 16//3
f 9//1 10//1 14//1 13//1
f 13//6 14//6 16//6 15//6
