# Blender 4.1.1
# www.blender.org
o pyramid.002
v -8.747180 47.459244 -8.761134 0.6745 0.5176 0.2588
v -8.761154 47.459244 8.747147 0.6745 0.5176 0.2588
v 8.761093 47.459236 -8.747157 0.6745 0.5176 0.2588
v 8.747118 47.459244 8.761123 0.6745 0.5176 0.2588
v -8.747179 52.624107 -8.761135 0.6745 0.5176 0.2588
v -8.761154 52.624107 8.747146 0.6745 0.5176 0.2588
v 8.761093 52.624100 -8.747159 0.6745 0.5176 0.2588
v 8.747119 52.624107 8.761122 0.6745 0.5176 0.2588
v -5.073182 52.624107 -5.081265 0.6745 0.5176 0.2588
v -5.081286 52.624107 5.073147 0.6745 0.5176 0.2588
v 5.081225 52.624107 -5.073157 0.6745 0.5176 0.2588
v 5.073121 52.624107 5.081251 0.6745 0.5176 0.2588
v -5.073182 57.089462 -5.081265 0.6745 0.5176 0.2588
v -5.081286 57.089462 5.073147 0.6745 0.5176 0.2588
v 5.081225 57.089462 -5.073157 0.6745 0.5176 0.2588
v 5.073121 57.089462 5.081250 0.6745 0.5176 0.2588
v -1.790637 57.089462 -1.793477 0.6745 0.5176 0.2588
v -1.793496 57.089462 1.790603 0.6745 0.5176 0.2588
v 1.793436 57.089462 -1.790621 0.6745 0.5176 0.2588
v 1.790576 57.089462 1.793463 0.6745 0.5176 0.2588
v -1.790637 60.826233 -1.793478 0.6745 0.5176 0.2588
v -1.793495 60.826233 1.790602 0.6745 0.5176 0.2588
v 1.793436 60.826233 -1.790621 0.6745 0.5176 0.2588
v 1.790576 60.826233 1.793463 0.6745 0.5176 0.2588
v -12.390826 47.459236 -12.410600 0.6745 0.5176 0.2588
v -12.410622 47.459244 12.390785 0.6745 0.5176 0.2588
v 12.410561 47.459236 -12.390796 0.6745 0.5176 0.2588
v 12.390764 47.459244 12.410588 0.6745 0.5176 0.2588
v -12.390826 42.224426 -12.410600 0.6745 0.5176 0.2588
v -12.410622 42.224434 12.390785 0.6745 0.5176 0.2588
v 12.410561 42.224426 -12.390796 0.6745 0.5176 0.2588
v 12.390764 42.224434 12.410588 0.6745 0.5176 0.2588
v -16.290329 42.224426 -16.316332 0.6745 0.5176 0.2588
v -16.316357 42.224438 16.290295 0.6745 0.5176 0.2588
v 16.316294 42.224422 -16.290298 0.6745 0.5176 0.2588
v 16.290266 42.224434 16.316322 0.6745 0.5176 0.2588
v -16.290329 36.445206 -16.316330 0.6745 0.5176 0.2588
v -16.316357 36.445217 16.290295 0.6745 0.5176 0.2588
v 16.316294 36.445202 -16.290298 0.6745 0.5176 0.2588
v 16.290266 36.445213 16.316322 0.6745 0.5176 0.2588
v -19.892199 36.445206 -19.923965 0.6745 0.5176 0.2588
v -19.923998 36.445217 19.892172 0.6745 0.5176 0.2588
v 19.923935 36.445202 -19.892176 0.6745 0.5176 0.2588
v 19.892136 36.445213 19.923964 0.6745 0.5176 0.2588
v -19.892200 31.079266 -19.923962 0.6745 0.5176 0.2588
v -19.923998 31.079281 19.892174 0.6745 0.5176 0.2588
v 19.923935 31.079266 -19.892172 0.6745 0.5176 0.2588
v 19.892136 31.079279 19.923964 0.6745 0.5176 0.2588
v -23.520027 31.079266 -23.557579 0.6745 0.5176 0.2588
v -23.557613 31.079281 23.519993 0.6745 0.5176 0.2588
v 23.557549 31.079266 -23.519997 0.6745 0.5176 0.2588
v 23.519964 31.079279 23.557579 0.6745 0.5176 0.2588
v -23.520027 25.310879 -23.557579 0.6745 0.5176 0.2588
v -23.557613 25.310894 23.519993 0.6745 0.5176 0.2588
v 23.557549 25.310879 -23.519995 0.6745 0.5176 0.2588
v 23.519964 25.310894 23.557579 0.6745 0.5176 0.2588
v -27.260107 25.310879 -27.303644 0.6745 0.5176 0.2588
v -27.303677 25.310894 27.260073 0.6745 0.5176 0.2588
v 27.303614 25.310879 -27.260078 0.6745 0.5176 0.2588
v 27.260044 25.310894 27.303642 0.6745 0.5176 0.2588
v -27.260107 19.515671 -27.303642 0.6745 0.5176 0.2588
v -27.303677 19.515682 27.260073 0.6745 0.5176 0.2588
v 27.303614 19.515667 -27.260078 0.6745 0.5176 0.2588
v 27.260044 19.515682 27.303644 0.6745 0.5176 0.2588
v -31.173176 19.515671 -31.222958 0.6745 0.5176 0.2588
v -31.222980 19.515682 31.173145 0.6745 0.5176 0.2588
v 31.222916 19.515667 -31.173141 0.6745 0.5176 0.2588
v 31.173111 19.515682 31.222956 0.6745 0.5176 0.2588
v -31.173176 13.720459 -31.222956 0.6745 0.5176 0.2588
v -31.222980 13.720472 31.173147 0.6745 0.5176 0.2588
v 31.222916 13.720453 -31.173140 0.6745 0.5176 0.2588
v 31.173111 13.720470 31.222958 0.6745 0.5176 0.2588
v -35.388512 13.720459 -35.445030 0.6745 0.5176 0.2588
v -35.445065 13.720472 35.388477 0.6745 0.5176 0.2588
v 35.445000 13.720453 -35.388477 0.6745 0.5176 0.2588
v 35.388451 13.720470 35.445034 0.6745 0.5176 0.2588
v -35.388512 7.461628 -35.445030 0.6745 0.5176 0.2588
v -35.445068 7.461641 35.388485 0.6745 0.5176 0.2588
v 35.445000 7.461622 -35.388477 0.6745 0.5176 0.2588
v 35.388447 7.461639 35.445038 0.6745 0.5176 0.2588
v -39.432854 7.461626 -39.495834 0.6745 0.5176 0.2588
v -39.495861 7.461643 39.432831 0.6745 0.5176 0.2588
v 39.495796 7.461620 -39.432816 0.6745 0.5176 0.2588
v 39.432785 7.461641 39.495842 0.6745 0.5176 0.2588
v -39.432854 0.970980 -39.495831 0.6745 0.5176 0.2588
v -39.495861 0.970997 39.432835 0.6745 0.5176 0.2588
v 39.495796 0.970974 -39.432812 0.6745 0.5176 0.2588
v 39.432785 0.970995 39.495846 0.6745 0.5176 0.2588
v -43.814873 0.970980 -43.884853 0.6745 0.5176 0.2588
v -43.884895 0.970997 43.814846 0.6745 0.5176 0.2588
v 43.884834 0.970974 -43.814835 0.6745 0.5176 0.2588
v 43.814812 0.970995 43.884861 0.6745 0.5176 0.2588
v -43.814873 -8.628853 -43.884850 0.6745 0.5176 0.2588
v -43.884895 -8.628834 43.814846 0.6745 0.5176 0.2588
v 43.884834 -8.628857 -43.814835 0.6745 0.5176 0.2588
v 43.814812 -8.628838 43.884865 0.6745 0.5176 0.2588
vn 1.0000 -0.0000 0.0008
vn -1.0000 -0.0000 -0.0008
vn 0.0008 -0.0000 -1.0000
vn -0.0000 1.0000 -0.0000
s 0
f 3//1 8//1 4//1
f 2//2 5//2 1//2
f 1//3 7//3 3//3
f 5//4 10//4 9//4
f 8//4 10//4 6//4
f 7//4 9//4 11//4
f 7//4 12//4 8//4
f 9//3 15//3 11//3
f 11//1 16//1 12//1
f 10//2 13//2 9//2
f 15//4 20//4 16//4
f 14//4 17//4 13//4
f 16//4 18//4 14//4
f 13//4 19//4 15//4
f 17//3 23//3 19//3
f 19//1 24//1 20//1
f 18//2 21//2 17//2
f 4//4 27//4 3//4
f 1//4 26//4 2//4
f 2//4 28//4 4//4
f 3//4 25//4 1//4
f 28//1 31//1 27//1
f 25//2 30//2 26//2
f 27//3 29//3 25//3
f 30//4 36//4 32//4
f 31//4 33//4 29//4
f 32//4 35//4 31//4
f 29//4 34//4 30//4
f 35//3 37//3 33//3
f 36//1 39//1 35//1
f 33//2 38//2 34//2
f 37//4 42//4 38//4
f 38//4 44//4 40//4
f 39//4 41//4 37//4
f 40//4 43//4 39//4
f 43//3 45//3 41//3
f 44//1 47//1 43//1
f 41//2 46//2 42//2
f 48//4 51//4 47//4
f 45//4 50//4 46//4
f 46//4 52//4 48//4
f 47//4 49//4 45//4
f 51//3 53//3 49//3
f 52//1 55//1 51//1
f 49//2 54//2 50//2
f 56//4 59//4 55//4
f 53//4 58//4 54//4
f 56//4 58//4 60//4
f 55//4 57//4 53//4
f 59//3 61//3 57//3
f 60//1 63//1 59//1
f 57//2 62//2 58//2
f 63//4 65//4 61//4
f 64//4 67//4 63//4
f 61//4 66//4 62//4
f 62//4 68//4 64//4
f 68//1 71//1 67//1
f 65//2 70//2 66//2
f 67//3 69//3 65//3
f 70//4 76//4 72//4
f 71//4 73//4 69//4
f 71//4 76//4 75//4
f 69//4 74//4 70//4
f 76//1 79//1 75//1
f 73//2 78//2 74//2
f 75//3 77//3 73//3
f 77//4 82//4 78//4
f 78//4 84//4 80//4
f 79//4 81//4 77//4
f 80//4 83//4 79//4
f 83//3 85//3 81//3
f 84//1 87//1 83//1
f 81//2 86//2 82//2
f 21//4 24//4 23//4
f 87//4 92//4 91//4
f 85//4 90//4 86//4
f 86//4 92//4 88//4
f 87//4 89//4 85//4
f 91//3 93//3 89//3
f 92//1 95//1 91//1
f 89//2 94//2 90//2
f 3//1 7//1 8//1
f 2//2 6//2 5//2
f 1//3 5//3 7//3
f 5//4 6//4 10//4
f 8//4 12//4 10//4
f 7//4 5//4 9//4
f 7//4 11//4 12//4
f 9//3 13//3 15//3
f 11//1 15//1 16//1
f 10//2 14//2 13//2
f 15//4 19//4 20//4
f 14//4 18//4 17//4
f 16//4 20//4 18//4
f 13//4 17//4 19//4
f 17//3 21//3 23//3
f 19//1 23//1 24//1
f 18//2 22//2 21//2
f 4//4 28//4 27//4
f 1//4 25//4 26//4
f 2//4 26//4 28//4
f 3//4 27//4 25//4
f 28//1 32//1 31//1
f 25//2 29//2 30//2
f 27//3 31//3 29//3
f 30//4 34//4 36//4
f 31//4 35//4 33//4
f 32//4 36//4 35//4
f 29//4 33//4 34//4
f 35//3 39//3 37//3
f 36//1 40//1 39//1
f 33//2 37//2 38//2
f 37//4 41//4 42//4
f 38//4 42//4 44//4
f 39//4 43//4 41//4
f 40//4 44//4 43//4
f 43//3 47//3 45//3
f 44//1 48//1 47//1
f 41//2 45//2 46//2
f 48//4 52//4 51//4
f 45//4 49//4 50//4
f 46//4 50//4 52//4
f 47//4 51//4 49//4
f 51//3 55//3 53//3
f 52//1 56//1 55//1
f 49//2 53//2 54//2
f 56//4 60//4 59//4
f 53//4 57//4 58//4
f 56//4 54//4 58//4
f 55//4 59//4 57//4
f 59//3 63//3 61//3
f 60//1 64//1 63//1
f 57//2 61//2 62//2
f 63//4 67//4 65//4
f 64//4 68//4 67//4
f 61//4 65//4 66//4
f 62//4 66//4 68//4
f 68//1 72//1 71//1
f 65//2 69//2 70//2
f 67//3 71//3 69//3
f 70//4 74//4 76//4
f 71//4 75//4 73//4
f 71//4 72//4 76//4
f 69//4 73//4 74//4
f 76//1 80//1 79//1
f 73//2 77//2 78//2
f 75//3 79//3 77//3
f 77//4 81//4 82//4
f 78//4 82//4 84//4
f 79//4 83//4 81//4
f 80//4 84//4 83//4
f 83//3 87//3 85//3
f 84//1 88//1 87//1
f 81//2 85//2 86//2
f 21//4 22//4 24//4
f 87//4 88//4 92//4
f 85//4 89//4 90//4
f 86//4 90//4 92//4
f 87//4 91//4 89//4
f 91//3 95//3 93//3
f 92//1 96//1 95//1
f 89//2 93//2 94//2
