# Blender 4.1.1
# www.blender.org
o Cube
v 9.000000 0.000000 10.000000 0.6589 0.5098 0.2667
v 9.000000 10.000000 10.000000 0.6589 0.5098 0.2667
v 9.000000 10.000000 -20.000000 0.6589 0.5098 0.2667
v 10.000000 0.000000 10.000000 0.6589 0.5098 0.2667
v 10.000000 10.000000 10.000000 0.6589 0.5098 0.2667
v 10.000000 0.000000 -20.000000 0.6589 0.5098 0.2667
v 10.000000 10.000000 -20.000000 0.6589 0.5098 0.2667
v -10.000000 0.000000 10.000000 0.6589 0.5098 0.2667
v -10.000000 10.000000 10.000000 0.6589 0.5098 0.2667
v -10.000000 10.000000 9.000000 0.6589 0.5098 0.2667
v 9.000000 0.000000 10.000000 0.6589 0.5098 0.2667
v 9.000000 10.000000 10.000000 0.6589 0.5098 0.2667
v 9.000000 10.000000 9.000000 0.6589 0.5098 0.2667
v 4.000000 10.000000 10.000000 0.6589 0.5098 0.2667
v 4.000000 13.000000 10.000000 0.6589 0.5098 0.2667
v 9.000000 10.000000 10.000000 0.6589 0.5098 0.2667
v 9.000000 13.000000 10.000000 0.6589 0.5098 0.2667
v -10.000000 10.000000 10.000000 0.6589 0.5098 0.2667
v -10.000000 13.000000 10.000000 0.6589 0.5098 0.2667
v 1.000000 10.000000 10.000000 0.6589 0.5098 0.2667
v 1.000000 13.000000 10.000000 0.6589 0.5098 0.2667
v 1.000000 10.000000 9.000000 0.6589 0.5098 0.2667
v 1.000000 13.000000 9.000000 0.6589 0.5098 0.2667
v -10.000000 13.000000 10.000000 0.6589 0.5098 0.2667
v -10.000000 15.000000 10.000000 0.6589 0.5098 0.2667
v -10.000000 13.000000 9.000000 0.6589 0.5098 0.2667
v -10.000000 15.000000 9.000000 0.6589 0.5098 0.2667
v 9.000000 13.000000 10.000000 0.6589 0.5098 0.2667
v 9.000000 15.000000 10.000000 0.6589 0.5098 0.2667
v 9.000000 13.000000 9.000000 0.6589 0.5098 0.2667
v 9.000000 15.000000 9.000000 0.6589 0.5098 0.2667
v -10.000000 15.000000 10.000000 0.6589 0.5098 0.2667
v -10.000000 18.000000 10.000000 0.6589 0.5098 0.2667
v -9.000000 15.000000 10.000000 0.6589 0.5098 0.2667
v -9.000000 18.000000 10.000000 0.6589 0.5098 0.2667
v -9.000000 15.000000 9.000000 0.6589 0.5098 0.2667
v -9.000000 18.000000 9.000000 0.6589 0.5098 0.2667
v -6.000000 15.000000 10.000000 0.6589 0.5098 0.2667
v -6.000000 18.000000 10.000000 0.6589 0.5098 0.2667
v 9.000000 15.000000 10.000000 0.6589 0.5098 0.2667
v 9.000000 18.000000 10.000000 0.6589 0.5098 0.2667
v -10.000000 18.000000 10.000000 0.6589 0.5098 0.2667
v -10.000000 23.000000 10.000000 0.6589 0.5098 0.2667
v -10.000000 18.000000 9.000000 0.6589 0.5098 0.2667
v -10.000000 23.000000 9.000000 0.6589 0.5098 0.2667
v 9.000000 18.000000 10.000000 0.6589 0.5098 0.2667
v 9.000000 23.000000 10.000000 0.6589 0.5098 0.2667
v 9.000000 18.000000 9.000000 0.6589 0.5098 0.2667
v 9.000000 23.000000 9.000000 0.6589 0.5098 0.2667
v 7.000000 23.000000 10.000000 0.6589 0.5098 0.2667
v 7.000000 26.000000 10.000000 0.6589 0.5098 0.2667
v 9.000000 23.000000 10.000000 0.6589 0.5098 0.2667
v 9.000000 26.000000 10.000000 0.6589 0.5098 0.2667
v -10.000000 23.000000 10.000000 0.6589 0.5098 0.2667
v -10.000000 26.000000 10.000000 0.6589 0.5098 0.2667
v 4.000000 23.000000 10.000000 0.6589 0.5098 0.2667
v 4.000000 26.000000 10.000000 0.6589 0.5098 0.2667
v 4.000000 23.000000 9.000000 0.6589 0.5098 0.2667
v 4.000000 26.000000 9.000000 0.6589 0.5098 0.2667
v -10.000000 26.000000 10.000000 0.6589 0.5098 0.2667
v -10.000000 29.000000 10.000000 0.6589 0.5098 0.2667
v -10.000000 26.000000 9.000000 0.6589 0.5098 0.2667
v -10.000000 29.000000 9.000000 0.6589 0.5098 0.2667
v 9.000000 26.000000 10.000000 0.6589 0.5098 0.2667
v 9.000000 29.000000 10.000000 0.6589 0.5098 0.2667
v 9.000000 26.000000 9.000000 0.6589 0.5098 0.2667
v 9.000000 29.000000 9.000000 0.6589 0.5098 0.2667
v 9.000000 10.000000 10.000000 0.6589 0.5098 0.2667
v 9.000000 13.000000 10.000000 0.6589 0.5098 0.2667
v 10.000000 10.000000 10.000000 0.6589 0.5098 0.2667
v 10.000000 13.000000 10.000000 0.6589 0.5098 0.2667
v 10.000000 10.000000 4.000000 0.6589 0.5098 0.2667
v 10.000000 13.000000 4.000000 0.6589 0.5098 0.2667
v 9.000000 10.000000 1.000000 0.6589 0.5098 0.2667
v 9.000000 12.000000 1.000000 0.6589 0.5098 0.2667
v 9.000000 12.000000 -20.000000 0.6589 0.5098 0.2667
v 10.000000 10.000000 1.000000 0.6589 0.5098 0.2667
v 10.000000 12.000000 1.000000 0.6589 0.5098 0.2667
v 10.000000 10.000000 -20.000000 0.6589 0.5098 0.2667
v 10.000000 12.000000 -20.000000 0.6589 0.5098 0.2667
v 9.000000 12.000000 1.000000 0.6589 0.5098 0.2667
v 10.000000 12.000000 1.000000 0.6589 0.5098 0.2667
v 10.000000 12.000000 -9.000000 0.6589 0.5098 0.2667
v 9.000000 13.000000 1.000000 0.6589 0.5098 0.2667
v 10.000000 13.000000 1.000000 0.6589 0.5098 0.2667
v 10.000000 13.000000 -9.000000 0.6589 0.5098 0.2667
v 10.000000 13.000000 -12.000000 0.6589 0.5098 0.2667
v 9.000000 13.000000 -12.000000 0.6589 0.5098 0.2667
v 10.000000 12.000000 -12.000000 0.6589 0.5098 0.2667
v 9.000000 12.000000 -12.000000 0.6589 0.5098 0.2667
v 10.000000 13.000000 -20.000000 0.6589 0.5098 0.2667
v 10.000000 12.000000 -20.000000 0.6589 0.5098 0.2667
v 9.000000 13.000000 10.000000 0.6589 0.5098 0.2667
v 9.000000 21.000000 10.000000 0.6589 0.5098 0.2667
v 9.000000 13.000000 -9.000000 0.6589 0.5098 0.2667
v 9.000000 21.000000 -9.000000 0.6589 0.5098 0.2667
v 10.000000 13.000000 10.000000 0.6589 0.5098 0.2667
v 10.000000 21.000000 10.000000 0.6589 0.5098 0.2667
v 10.000000 13.000000 -9.000000 0.6589 0.5098 0.2667
v 10.000000 21.000000 -9.000000 0.6589 0.5098 0.2667
v 9.000000 13.000000 -12.000000 0.6589 0.5098 0.2667
v 9.000000 21.000000 -12.000000 0.6589 0.5098 0.2667
v 10.000000 13.000000 -12.000000 0.6589 0.5098 0.2667
v 10.000000 21.000000 -12.000000 0.6589 0.5098 0.2667
v 10.000000 13.000000 -20.000000 0.6589 0.5098 0.2667
v 10.000000 21.000000 -20.000000 0.6589 0.5098 0.2667
v 10.000000 15.000000 -12.000000 0.6589 0.5098 0.2667
v 10.000000 15.000000 -9.000000 0.6589 0.5098 0.2667
v 9.000000 15.000000 -12.000000 0.6589 0.5098 0.2667
v 9.000000 15.000000 -9.000000 0.6589 0.5098 0.2667
v 10.000000 21.000000 -12.000000 0.6589 0.5098 0.2667
v 10.000000 21.000000 -9.000000 0.6589 0.5098 0.2667
v 9.000000 21.000000 -12.000000 0.6589 0.5098 0.2667
v 9.000000 21.000000 10.000000 0.6589 0.5098 0.2667
v 9.000000 24.000000 10.000000 0.6589 0.5098 0.2667
v 10.000000 21.000000 10.000000 0.6589 0.5098 0.2667
v 10.000000 24.000000 10.000000 0.6589 0.5098 0.2667
v 10.000000 21.000000 0.000000 0.6589 0.5098 0.2667
v 10.000000 24.000000 0.000000 0.6589 0.5098 0.2667
v 9.000000 21.000000 -3.000000 0.6589 0.5098 0.2667
v 9.000000 24.000000 -3.000000 0.6589 0.5098 0.2667
v 9.000000 21.000000 -20.000000 0.6589 0.5098 0.2667
v 10.000000 21.000000 -3.000000 0.6589 0.5098 0.2667
v 10.000000 24.000000 -3.000000 0.6589 0.5098 0.2667
v 10.000000 21.000000 -20.000000 0.6589 0.5098 0.2667
v 10.000000 24.000000 -20.000000 0.6589 0.5098 0.2667
v 9.000000 24.000000 10.000000 0.6589 0.5098 0.2667
v 9.000000 29.000000 10.000000 0.6589 0.5098 0.2667
v 9.000000 24.000000 -20.000000 0.6589 0.5098 0.2667
v 9.000000 29.000000 -20.000000 0.6589 0.5098 0.2667
v 10.000000 24.000000 10.000000 0.6589 0.5098 0.2667
v 10.000000 29.000000 10.000000 0.6589 0.5098 0.2667
v 10.000000 24.000000 -20.000000 0.6589 0.5098 0.2667
v 10.000000 29.000000 -20.000000 0.6589 0.5098 0.2667
v -11.000000 0.000000 10.000000 0.6589 0.5098 0.2667
v -11.000000 28.000000 10.000000 0.6589 0.5098 0.2667
v -11.000000 28.000000 9.000000 0.6589 0.5098 0.2667
v -10.000000 0.000000 10.000000 0.6589 0.5098 0.2667
v -10.000000 28.000000 10.000000 0.6589 0.5098 0.2667
v -10.000000 28.000000 9.000000 0.6589 0.5098 0.2667
v -12.000000 0.000000 10.000000 0.6589 0.5098 0.2667
v -12.000000 26.000000 10.000000 0.6589 0.5098 0.2667
v 10.000000 30.000000 -19.000000 0.6589 0.5098 0.2667
v -12.000000 26.000000 9.000000 0.6589 0.5098 0.2667
v -11.000000 0.000000 10.000000 0.6589 0.5098 0.2667
v -11.000000 26.000000 10.000000 0.6589 0.5098 0.2667
v 10.000000 29.000000 -19.000000 0.6589 0.5098 0.2667
v -11.000000 26.000000 9.000000 0.6589 0.5098 0.2667
v -13.000000 0.000000 10.000000 0.6589 0.5098 0.2667
v -13.000000 22.000000 10.000000 0.6589 0.5098 0.2667
v 10.000000 30.000000 -18.000000 0.6589 0.5098 0.2667
v -13.000000 22.000000 9.000000 0.6589 0.5098 0.2667
v -12.000000 0.000000 10.000000 0.6589 0.5098 0.2667
v -12.000000 22.000000 10.000000 0.6589 0.5098 0.2667
v 10.000000 29.000000 -18.000000 0.6589 0.5098 0.2667
v -12.000000 22.000000 9.000000 0.6589 0.5098 0.2667
v -14.000000 0.000000 10.000000 0.6589 0.5098 0.2667
v -14.000000 21.000000 10.000000 0.6589 0.5098 0.2667
v 9.000000 30.000000 -19.000000 0.6589 0.5098 0.2667
v -14.000000 21.000000 9.000000 0.6589 0.5098 0.2667
v -13.000000 0.000000 10.000000 0.6589 0.5098 0.2667
v -13.000000 21.000000 10.000000 0.6589 0.5098 0.2667
v -13.000000 21.000000 9.000000 0.6589 0.5098 0.2667
v -15.000000 0.000000 10.000000 0.6589 0.5098 0.2667
v -15.000000 17.000000 10.000000 0.6589 0.5098 0.2667
v 9.000000 30.000000 -18.000000 0.6589 0.5098 0.2667
v -15.000000 17.000000 9.000000 0.6589 0.5098 0.2667
v -14.000000 0.000000 10.000000 0.6589 0.5098 0.2667
v -14.000000 17.000000 10.000000 0.6589 0.5098 0.2667
v 9.000000 29.000000 -18.000000 0.6589 0.5098 0.2667
v -14.000000 17.000000 9.000000 0.6589 0.5098 0.2667
v 10.000000 29.000000 -15.000000 0.6589 0.5098 0.2667
v 9.000000 17.000000 -20.000000 0.6589 0.5098 0.2667
v 9.000000 17.000000 -23.000000 0.6589 0.5098 0.2667
v 10.000000 0.000000 -20.000000 0.6589 0.5098 0.2667
v 10.000000 17.000000 -20.000000 0.6589 0.5098 0.2667
v 10.000000 0.000000 -23.000000 0.6589 0.5098 0.2667
v 10.000000 17.000000 -23.000000 0.6589 0.5098 0.2667
v 9.000000 20.000000 -20.000000 0.6589 0.5098 0.2667
v 9.000000 28.000000 -20.000000 0.6589 0.5098 0.2667
v 9.000000 20.000000 -21.000000 0.6589 0.5098 0.2667
v 9.000000 28.000000 -21.000000 0.6589 0.5098 0.2667
v 10.000000 20.000000 -20.000000 0.6589 0.5098 0.2667
v 10.000000 28.000000 -20.000000 0.6589 0.5098 0.2667
v 10.000000 20.000000 -21.000000 0.6589 0.5098 0.2667
v 10.000000 28.000000 -21.000000 0.6589 0.5098 0.2667
v 10.000000 20.000000 -22.000000 0.6589 0.5098 0.2667
v 10.000000 26.000000 -22.000000 0.6589 0.5098 0.2667
v 10.000000 20.000000 -21.000000 0.6589 0.5098 0.2667
v 10.000000 26.000000 -21.000000 0.6589 0.5098 0.2667
v 9.000000 20.000000 -22.000000 0.6589 0.5098 0.2667
v 9.000000 26.000000 -22.000000 0.6589 0.5098 0.2667
v 9.000000 20.000000 -21.000000 0.6589 0.5098 0.2667
v 9.000000 26.000000 -21.000000 0.6589 0.5098 0.2667
v 9.000000 20.000000 -22.000000 0.6589 0.5098 0.2667
v 9.000000 20.000000 -23.000000 0.6589 0.5098 0.2667
v 10.000000 20.000000 -22.000000 0.6589 0.5098 0.2667
v 10.000000 20.000000 -23.000000 0.6589 0.5098 0.2667
v 9.000000 25.000000 -22.000000 0.6589 0.5098 0.2667
v 9.000000 25.000000 -23.000000 0.6589 0.5098 0.2667
v 10.000000 25.000000 -22.000000 0.6589 0.5098 0.2667
v 10.000000 25.000000 -23.000000 0.6589 0.5098 0.2667
v 10.000000 30.000000 -15.000000 0.6589 0.5098 0.2667
v 9.000000 22.000000 -23.000000 0.6589 0.5098 0.2667
v 10.000000 29.000000 -13.000000 0.6589 0.5098 0.2667
v 9.000000 22.000000 -24.000000 0.6589 0.5098 0.2667
v 10.000000 0.000000 -23.000000 0.6589 0.5098 0.2667
v 10.000000 22.000000 -23.000000 0.6589 0.5098 0.2667
v 10.000000 0.000000 -24.000000 0.6589 0.5098 0.2667
v 10.000000 22.000000 -24.000000 0.6589 0.5098 0.2667
v 10.000000 30.000000 -12.000000 0.6589 0.5098 0.2667
v 9.000000 20.000000 -24.000000 0.6589 0.5098 0.2667
v 9.000000 20.000000 -25.000000 0.6589 0.5098 0.2667
v 10.000000 0.000000 -24.000000 0.6589 0.5098 0.2667
v 10.000000 20.000000 -24.000000 0.6589 0.5098 0.2667
v 10.000000 0.000000 -25.000000 0.6589 0.5098 0.2667
v 10.000000 20.000000 -25.000000 0.6589 0.5098 0.2667
v 9.000000 19.000000 -25.000000 0.6589 0.5098 0.2667
v 9.000000 19.000000 -26.000000 0.6589 0.5098 0.2667
v 10.000000 0.000000 -25.000000 0.6589 0.5098 0.2667
v 10.000000 19.000000 -25.000000 0.6589 0.5098 0.2667
v 10.000000 0.000000 -26.000000 0.6589 0.5098 0.2667
v 10.000000 19.000000 -26.000000 0.6589 0.5098 0.2667
v 10.000000 30.000000 -14.000000 0.6589 0.5098 0.2667
v 10.000000 29.000000 -14.000000 0.6589 0.5098 0.2667
v 9.000000 30.000000 -15.000000 0.6589 0.5098 0.2667
v 10.000000 30.000000 -13.000000 0.6589 0.5098 0.2667
v 9.000000 30.000000 -14.000000 0.6589 0.5098 0.2667
v 9.000000 29.000000 -14.000000 0.6589 0.5098 0.2667
v 9.000000 30.000000 -13.000000 0.6589 0.5098 0.2667
v 9.000000 29.000000 -12.000000 0.6589 0.5098 0.2667
v 10.000000 29.000000 -12.000000 0.6589 0.5098 0.2667
v 9.000000 30.000000 -12.000000 0.6589 0.5098 0.2667
v 10.000000 29.000000 -11.000000 0.6589 0.5098 0.2667
v 10.000000 30.000000 -11.000000 0.6589 0.5098 0.2667
v 10.000000 30.000000 -10.000000 0.6589 0.5098 0.2667
v 10.000000 29.000000 -10.000000 0.6589 0.5098 0.2667
v 9.000000 30.000000 -11.000000 0.6589 0.5098 0.2667
v 9.000000 30.000000 -10.000000 0.6589 0.5098 0.2667
v 9.000000 29.000000 -10.000000 0.6589 0.5098 0.2667
v 10.000000 30.000000 -4.000000 0.6589 0.5098 0.2667
v 10.000000 29.000000 -5.000000 0.6589 0.5098 0.2667
v 10.000000 30.000000 -7.000000 0.6589 0.5098 0.2667
v 10.000000 29.000000 -7.000000 0.6589 0.5098 0.2667
v 10.000000 30.000000 -6.000000 0.6589 0.5098 0.2667
v 10.000000 29.000000 -6.000000 0.6589 0.5098 0.2667
v 9.000000 30.000000 -7.000000 0.6589 0.5098 0.2667
v 10.000000 30.000000 -5.000000 0.6589 0.5098 0.2667
v 9.000000 30.000000 -6.000000 0.6589 0.5098 0.2667
v 9.000000 29.000000 -6.000000 0.6589 0.5098 0.2667
v 10.000000 29.000000 -3.000000 0.6589 0.5098 0.2667
v 9.000000 30.000000 -5.000000 0.6589 0.5098 0.2667
v 10.000000 30.000000 -3.000000 0.6589 0.5098 0.2667
v 10.000000 29.000000 -1.000000 0.6589 0.5098 0.2667
v 10.000000 30.000000 0.000000 0.6589 0.5098 0.2667
v 9.000000 29.000000 -4.000000 0.6589 0.5098 0.2667
v 10.000000 29.000000 -4.000000 0.6589 0.5098 0.2667
v 9.000000 30.000000 -4.000000 0.6589 0.5098 0.2667
v 10.000000 30.000000 -2.000000 0.6589 0.5098 0.2667
v 10.000000 29.000000 -2.000000 0.6589 0.5098 0.2667
v 9.000000 30.000000 -3.000000 0.6589 0.5098 0.2667
v 10.000000 30.000000 -1.000000 0.6589 0.5098 0.2667
v 9.000000 30.000000 -2.000000 0.6589 0.5098 0.2667
v 9.000000 29.000000 -2.000000 0.6589 0.5098 0.2667
v 9.000000 30.000000 -1.000000 0.6589 0.5098 0.2667
v 9.000000 29.000000 0.000000 0.6589 0.5098 0.2667
v 10.000000 29.000000 0.000000 0.6589 0.5098 0.2667
v 9.000000 30.000000 0.000000 0.6589 0.5098 0.2667
v 10.000000 29.000000 1.000000 0.6589 0.5098 0.2667
v 10.000000 30.000000 1.000000 0.6589 0.5098 0.2667
v 10.000000 30.000000 2.000000 0.6589 0.5098 0.2667
v 10.000000 29.000000 2.000000 0.6589 0.5098 0.2667
v 9.000000 30.000000 1.000000 0.6589 0.5098 0.2667
v 9.000000 30.000000 2.000000 0.6589 0.5098 0.2667
v 9.000000 29.000000 2.000000 0.6589 0.5098 0.2667
v 10.000000 29.000000 5.000000 0.6589 0.5098 0.2667
v 10.000000 30.000000 5.000000 0.6589 0.5098 0.2667
v 10.000000 29.000000 7.000000 0.6589 0.5098 0.2667
v 10.000000 30.000000 8.000000 0.6589 0.5098 0.2667
v 10.000000 30.000000 6.000000 0.6589 0.5098 0.2667
v 10.000000 29.000000 6.000000 0.6589 0.5098 0.2667
v 9.000000 30.000000 5.000000 0.6589 0.5098 0.2667
v 10.000000 30.000000 7.000000 0.6589 0.5098 0.2667
v 9.000000 30.000000 6.000000 0.6589 0.5098 0.2667
v 9.000000 29.000000 6.000000 0.6589 0.5098 0.2667
v 9.000000 30.000000 7.000000 0.6589 0.5098 0.2667
v 9.000000 29.000000 8.000000 0.6589 0.5098 0.2667
v 10.000000 29.000000 8.000000 0.6589 0.5098 0.2667
v 9.000000 30.000000 8.000000 0.6589 0.5098 0.2667
v 10.000000 29.000000 9.000000 0.6589 0.5098 0.2667
v 10.000000 30.000000 9.000000 0.6589 0.5098 0.2667
v 8.000000 29.000000 9.000000 0.6589 0.5098 0.2667
v 8.000000 30.000000 10.000000 0.6589 0.5098 0.2667
v 10.000000 30.000000 10.000000 0.6589 0.5098 0.2667
v 10.000000 29.000000 10.000000 0.6589 0.5098 0.2667
v 9.000000 30.000000 9.000000 0.6589 0.5098 0.2667
v 8.000000 30.000000 9.000000 0.6589 0.5098 0.2667
v 9.000000 30.000000 10.000000 0.6589 0.5098 0.2667
v 9.000000 29.000000 10.000000 0.6589 0.5098 0.2667
v 7.000000 30.000000 9.000000 0.6589 0.5098 0.2667
v 7.000000 29.000000 10.000000 0.6589 0.5098 0.2667
v 8.000000 29.000000 10.000000 0.6589 0.5098 0.2667
v 7.000000 30.000000 10.000000 0.6589 0.5098 0.2667
v 4.000000 29.000000 9.000000 0.6589 0.5098 0.2667
v 4.000000 30.000000 10.000000 0.6589 0.5098 0.2667
v 4.000000 30.000000 9.000000 0.6589 0.5098 0.2667
v 3.000000 30.000000 9.000000 0.6589 0.5098 0.2667
v 3.000000 29.000000 10.000000 0.6589 0.5098 0.2667
v 4.000000 29.000000 10.000000 0.6589 0.5098 0.2667
v 3.000000 30.000000 10.000000 0.6589 0.5098 0.2667
v 1.000000 30.000000 10.000000 0.6589 0.5098 0.2667
v 2.000000 29.000000 10.000000 0.6589 0.5098 0.2667
v 1.000000 29.000000 10.000000 0.6589 0.5098 0.2667
v 1.000000 30.000000 9.000000 0.6589 0.5098 0.2667
v 2.000000 30.000000 9.000000 0.6589 0.5098 0.2667
v 2.000000 30.000000 10.000000 0.6589 0.5098 0.2667
v 2.000000 29.000000 9.000000 0.6589 0.5098 0.2667
v -1.000000 30.000000 10.000000 0.6589 0.5098 0.2667
v 0.000000 29.000000 10.000000 0.6589 0.5098 0.2667
v -1.000000 29.000000 10.000000 0.6589 0.5098 0.2667
v -1.000000 30.000000 9.000000 0.6589 0.5098 0.2667
v 0.000000 30.000000 9.000000 0.6589 0.5098 0.2667
v 0.000000 30.000000 10.000000 0.6589 0.5098 0.2667
v 0.000000 29.000000 9.000000 0.6589 0.5098 0.2667
v -3.000000 30.000000 10.000000 0.6589 0.5098 0.2667
v -2.000000 29.000000 10.000000 0.6589 0.5098 0.2667
v -3.000000 29.000000 10.000000 0.6589 0.5098 0.2667
v -3.000000 30.000000 9.000000 0.6589 0.5098 0.2667
v -2.000000 30.000000 9.000000 0.6589 0.5098 0.2667
v -2.000000 30.000000 10.000000 0.6589 0.5098 0.2667
v -2.000000 29.000000 9.000000 0.6589 0.5098 0.2667
v -7.000000 30.000000 10.000000 0.6589 0.5098 0.2667
v -6.000000 29.000000 10.000000 0.6589 0.5098 0.2667
v -7.000000 29.000000 10.000000 0.6589 0.5098 0.2667
v -7.000000 30.000000 9.000000 0.6589 0.5098 0.2667
v -6.000000 30.000000 9.000000 0.6589 0.5098 0.2667
v -6.000000 30.000000 10.000000 0.6589 0.5098 0.2667
v -6.000000 29.000000 9.000000 0.6589 0.5098 0.2667
v -9.000000 30.000000 10.000000 0.6589 0.5098 0.2667
v -8.000000 29.000000 10.000000 0.6589 0.5098 0.2667
v -9.000000 29.000000 10.000000 0.6589 0.5098 0.2667
v -9.000000 30.000000 9.000000 0.6589 0.5098 0.2667
v -8.000000 30.000000 9.000000 0.6589 0.5098 0.2667
v -8.000000 30.000000 10.000000 0.6589 0.5098 0.2667
v -8.000000 29.000000 9.000000 0.6589 0.5098 0.2667
vn 1.0000 -0.0000 -0.0000
vn -0.0000 -0.0000 1.0000
vn -0.0000 1.0000 -0.0000
vn -0.0000 -1.0000 -0.0000
vn -0.0000 -0.0000 -1.0000
s 0
f 6//1 7//1 5//1 4//1
f 4//2 5//2 2//2 1//2
f 7//3 3//3 2//3 5//3
f 11//2 12//2 9//2 8//2
f 13//3 10//3 9//3 12//3
f 16//2 17//2 15//2 14//2
f 22//1 23//1 21//1 20//1
f 20//2 21//2 19//2 18//2
f 28//2 29//2 25//2 24//2
f 26//4 30//4 28//4 24//4
f 31//3 27//3 25//3 29//3
f 36//1 37//1 35//1 34//1
f 34//2 35//2 33//2 32//2
f 40//2 41//2 39//2 38//2
f 46//2 47//2 43//2 42//2
f 44//4 48//4 46//4 42//4
f 49//3 45//3 43//3 47//3
f 52//2 53//2 51//2 50//2
f 58//1 59//1 57//1 56//1
f 56//2 57//2 55//2 54//2
f 64//2 65//2 61//2 60//2
f 62//4 66//4 64//4 60//4
f 67//3 63//3 61//3 65//3
f 72//1 73//1 71//1 70//1
f 70//2 71//2 69//2 68//2
f 79//1 80//1 78//1 77//1
f 77//2 78//2 75//2 74//2
f 80//3 76//3 75//3 78//3
f 82//1 83//1 86//1 85//1
f 82//2 85//2 84//2 81//2
f 87//2 88//2 90//2 89//2
f 89//1 92//1 91//1 87//1
f 99//1 100//1 98//1 97//1
f 97//2 98//2 94//2 93//2
f 95//4 99//4 97//4 93//4
f 100//3 96//3 94//3 98//3
f 105//1 106//1 104//1 103//1
f 103//2 104//2 102//2 101//2
f 107//4 108//4 110//4 109//4
f 111//1 112//1 108//1 107//1
f 109//5 113//5 111//5 107//5
f 118//1 119//1 117//1 116//1
f 116//2 117//2 115//2 114//2
f 125//1 126//1 124//1 123//1
f 123//2 124//2 121//2 120//2
f 122//4 125//4 123//4 120//4
f 133//1 134//1 132//1 131//1
f 131//2 132//2 128//2 127//2
f 129//4 133//4 131//4 127//4
f 134//3 130//3 128//3 132//3
f 172//1 203//1 224//1 225//1
f 291//3 296//3 298//3 294//3
f 281//2 280//2 284//2 285//2
f 138//2 139//2 136//2 135//2
f 225//2 224//2 228//2 229//2
f 140//3 137//3 136//3 139//3
f 205//1 227//1 211//1 232//1
f 292//1 297//1 293//1 302//1
f 278//1 283//1 279//1 288//1
f 145//2 146//2 142//2 141//2
f 203//3 226//3 228//3 224//3
f 148//3 144//3 142//3 146//3
f 143//3 159//3 166//3 151//3
f 288//2 279//2 289//2 287//2
f 302//2 293//2 303//2 301//2
f 153//2 154//2 150//2 149//2
f 156//3 152//3 150//3 154//3
f 155//2 151//2 166//2 170//2
f 295//2 294//2 298//2 299//2
f 277//3 282//3 284//3 280//3
f 161//2 162//2 158//2 157//2
f 147//1 143//1 151//1 155//1
f 163//3 160//3 158//3 162//3
f 272//2 271//2 274//2 275//2
f 297//3 300//3 303//3 293//3
f 168//2 169//2 165//2 164//2
f 171//3 167//3 165//3 169//3
f 267//2 255//2 268//2 266//2
f 234//1 235//1 236//1 237//1
f 177//1 178//1 176//1 175//1
f 248//3 252//3 258//3 241//3
f 257//2 241//2 258//2 256//2
f 178//3 174//3 173//3 176//3
f 244//1 243//1 245//1 246//1
f 185//1 186//1 184//1 183//1
f 246//2 245//2 249//2 250//2
f 181//4 185//4 183//4 179//4
f 186//3 182//3 180//3 184//3
f 227//3 230//3 233//3 211//3
f 190//3 188//3 192//3 194//3
f 189//1 187//1 188//1 190//1
f 242//1 248//1 241//1 257//1
f 193//4 191//4 187//4 189//4
f 270//3 273//3 274//3 271//3
f 195//4 196//4 198//4 197//4
f 197//1 198//1 202//1 201//1
f 201//3 202//3 200//3 199//3
f 243//3 247//3 249//3 245//3
f 253//3 261//3 263//3 259//3
f 254//1 262//1 255//1 267//1
f 209//1 210//1 208//1 207//1
f 260//2 259//2 263//2 264//2
f 251//1 253//1 259//1 260//1
f 210//3 206//3 204//3 208//3
f 262//3 265//3 268//3 255//3
f 216//1 217//1 215//1 214//1
f 235//3 238//3 239//3 236//3
f 217//3 213//3 212//3 215//3
f 269//1 270//1 271//1 272//1
f 222//1 223//1 221//1 220//1
f 232//2 211//2 233//2 231//2
f 237//2 236//2 239//2 240//2
f 223//3 219//3 218//3 221//3
f 276//1 277//1 280//1 281//1
f 283//3 286//3 289//3 279//3
f 290//1 291//1 294//1 295//1
f 304//1 306//1 305//1 309//1
f 309//2 305//2 310//2 308//2
f 306//3 307//3 310//3 305//3
f 315//3 314//3 311//3 316//3
f 312//2 316//2 311//2 313//2
f 317//1 315//1 316//1 312//1
f 322//3 321//3 318//3 323//3
f 319//2 323//2 318//2 320//2
f 324//1 322//1 323//1 319//1
f 329//3 328//3 325//3 330//3
f 326//2 330//2 325//2 327//2
f 331//1 329//1 330//1 326//1
f 336//3 335//3 332//3 337//3
f 333//2 337//2 332//2 334//2
f 338//1 336//1 337//1 333//1
f 343//3 342//3 339//3 344//3
f 340//2 344//2 339//2 341//2
f 345//1 343//1 344//1 340//1
