# Blender 4.1.1
# www.blender.org
o visualandcollision.002
v -1.591918 -1.053055 1.591939 0.6589 0.5098 0.2667
v -1.591918 -1.053055 -1.591918 0.6589 0.5098 0.2667
v 1.591942 -1.053055 1.591939 0.6589 0.5098 0.2667
v 1.591942 -1.053055 -1.591918 0.6589 0.5098 0.2667
v -1.024282 11.781572 1.024305 0.6589 0.5098 0.2667
v -1.024282 11.781572 -1.024288 0.6589 0.5098 0.2667
v 1.024308 11.781572 1.024305 0.6589 0.5098 0.2667
v 1.024308 11.781572 -1.024288 0.6589 0.5098 0.2667
v 0.000013 14.023396 0.000007 0.6589 0.5098 0.2667
vn -0.0000 0.0442 0.9990
vn -0.0000 0.0442 -0.9990
vn 0.9990 0.0442 -0.0000
vn -0.9990 0.0442 -0.0000
vn -0.0000 0.4156 -0.9096
vn 0.9096 0.4156 -0.0000
vn -0.9096 0.4156 -0.0000
vn -0.0000 0.4156 0.9096
s 0
f 3//1 5//1 1//1
f 2//2 8//2 4//2
f 4//3 7//3 3//3
f 1//4 6//4 2//4
f 8//5 6//5 9//5
f 7//6 8//6 9//6
f 6//7 5//7 9//7
f 5//8 7//8 9//8
f 3//1 7//1 5//1
f 2//2 6//2 8//2
f 4//3 8//3 7//3
f 1//4 5//4 6//4
