# Blender 4.1.1
# www.blender.org
o spawn_pyramid
v -8.293198 6.038085 9.361486 0.6745 0.5176 0.2588
v 8.293200 6.038085 9.361486 0.6745 0.5176 0.2588
v -8.293198 6.038083 -7.224914 0.6745 0.5176 0.2588
v 8.293200 6.038083 -7.224914 0.6745 0.5176 0.2588
v -8.293198 9.120420 9.361484 0.6745 0.5176 0.2588
v 8.293200 9.120420 9.361484 0.6745 0.5176 0.2588
v -8.293198 9.120416 -7.224914 0.6745 0.5176 0.2588
v 8.293200 9.120416 -7.224914 0.6745 0.5176 0.2588
v -6.058794 9.120420 7.127079 0.6745 0.5176 0.2588
v 6.058794 9.120420 7.127079 0.6745 0.5176 0.2588
v -6.058794 9.120418 -4.990508 0.6745 0.5176 0.2588
v 6.058794 9.120418 -4.990508 0.6745 0.5176 0.2588
v -6.058794 11.821855 7.127078 0.6745 0.5176 0.2588
v 6.058794 11.821855 7.127078 0.6745 0.5176 0.2588
v -6.058794 11.821853 -4.990509 0.6745 0.5176 0.2588
v 6.058794 11.821853 -4.990509 0.6745 0.5176 0.2588
v -4.029528 11.821853 5.097812 0.6745 0.5176 0.2588
v 4.029528 11.821853 5.097812 0.6745 0.5176 0.2588
v -4.029528 11.821853 -2.961242 0.6745 0.5176 0.2588
v 4.029528 11.821853 -2.961242 0.6745 0.5176 0.2588
v -4.029528 14.384749 5.097812 0.6745 0.5176 0.2588
v 4.029528 14.384749 5.097812 0.6745 0.5176 0.2588
v -4.029528 14.384749 -2.961242 0.6745 0.5176 0.2588
v 4.029528 14.384749 -2.961242 0.6745 0.5176 0.2588
v -1.891356 16.778637 2.959643 0.6745 0.5176 0.2588
v 1.891358 16.778637 2.959643 0.6745 0.5176 0.2588
v -1.891356 16.778637 -0.823072 0.6745 0.5176 0.2588
v 1.891358 16.778637 -0.823072 0.6745 0.5176 0.2588
v 1.891358 14.384749 -0.823072 0.6745 0.5176 0.2588
v -1.891356 14.384749 -0.823072 0.6745 0.5176 0.2588
v 1.891358 14.384749 2.959643 0.6745 0.5176 0.2588
v -1.891356 14.384749 2.959643 0.6745 0.5176 0.2588
v -10.470064 6.038085 11.538351 0.6745 0.5176 0.2588
v 10.470064 6.038085 11.538351 0.6745 0.5176 0.2588
v -10.470064 6.038083 -9.401777 0.6745 0.5176 0.2588
v 10.470064 6.038083 -9.401777 0.6745 0.5176 0.2588
v -10.470064 2.896110 11.538351 0.6745 0.5176 0.2588
v 10.470064 2.896110 11.538351 0.6745 0.5176 0.2588
v -10.470064 2.896106 -9.401777 0.6745 0.5176 0.2588
v 10.470064 2.896106 -9.401777 0.6745 0.5176 0.2588
v -12.954502 2.896110 14.022791 0.6745 0.5176 0.2588
v 12.954502 2.896110 14.022791 0.6745 0.5176 0.2588
v -12.954502 2.896106 -11.886214 0.6745 0.5176 0.2588
v 12.954502 2.896106 -11.886214 0.6745 0.5176 0.2588
v -12.954502 -3.711687 14.022791 0.6745 0.5176 0.2588
v 12.954502 -3.711687 14.022791 0.6745 0.5176 0.2588
v -12.954502 -3.711691 -11.886214 0.6745 0.5176 0.2588
v 12.954502 -3.711691 -11.886214 0.6745 0.5176 0.2588
v -1.583835 5.726793 -9.401777 0.6745 0.5176 0.2588
v 1.583835 5.726793 -9.401777 0.6745 0.5176 0.2588
v -1.583835 3.195451 -9.401777 0.6745 0.5176 0.2588
v 1.583835 3.195451 -9.401777 0.6745 0.5176 0.2588
v -1.583835 5.726793 -3.417655 0.0000 0.0000 0.0000
v 1.583835 5.726793 -3.417655 0.0000 0.0000 0.0000
v -1.583835 3.195452 -3.417655 0.0000 0.0000 0.0000
v 1.583835 3.195452 -3.417655 0.0000 0.0000 0.0000
vn 1.0000 -0.0000 -0.0000
vn -1.0000 -0.0000 -0.0000
vn -0.0000 -0.0000 -1.0000
vn -0.0000 -0.0000 1.0000
vn -0.0000 1.0000 -0.0000
vn -0.0000 -1.0000 -0.0000
s 0
f 4//1 6//1 2//1
f 1//2 7//2 3//2
f 3//3 8//3 4//3
f 2//4 5//4 1//4
f 7//5 12//5 8//5
f 6//5 9//5 5//5
f 8//5 10//5 6//5
f 5//5 11//5 7//5
f 10//4 13//4 9//4
f 12//1 14//1 10//1
f 9//2 15//2 11//2
f 11//3 16//3 12//3
f 16//5 18//5 14//5
f 13//5 19//5 15//5
f 15//5 20//5 16//5
f 14//5 17//5 13//5
f 19//3 24//3 20//3
f 18//4 21//4 17//4
f 20//1 22//1 18//1
f 17//2 23//2 19//2
f 23//5 32//5 30//5
f 31//4 25//4 32//4
f 22//5 32//5 21//5
f 32//2 27//2 30//2
f 30//3 28//3 29//3
f 2//5 36//5 4//5
f 24//5 31//5 22//5
f 29//1 26//1 31//1
f 23//5 29//5 24//5
f 3//5 33//5 1//5
f 4//5 35//5 3//5
f 1//5 34//5 2//5
f 33//4 38//4 34//4
f 34//1 40//1 36//1
f 35//2 37//2 33//2
f 38//5 44//5 40//5
f 39//5 41//5 37//5
f 40//5 43//5 39//5
f 37//5 42//5 38//5
f 44//3 47//3 43//3
f 41//4 46//4 42//4
f 42//1 48//1 44//1
f 43//2 45//2 41//2
f 25//5 28//5 27//5
f 49//3 39//3 35//3
f 51//3 40//3 39//3
f 40//3 50//3 36//3
f 50//3 35//3 36//3
f 49//1 55//1 51//1
f 51//5 56//5 52//5
f 52//2 54//2 50//2
f 50//6 53//6 49//6
f 54//3 55//3 53//3
f 4//1 8//1 6//1
f 1//2 5//2 7//2
f 3//3 7//3 8//3
f 2//4 6//4 5//4
f 7//5 11//5 12//5
f 6//5 10//5 9//5
f 8//5 12//5 10//5
f 5//5 9//5 11//5
f 10//4 14//4 13//4
f 12//1 16//1 14//1
f 9//2 13//2 15//2
f 11//3 15//3 16//3
f 16//5 20//5 18//5
f 13//5 17//5 19//5
f 15//5 19//5 20//5
f 14//5 18//5 17//5
f 19//3 23//3 24//3
f 18//4 22//4 21//4
f 20//1 24//1 22//1
f 17//2 21//2 23//2
f 23//5 21//5 32//5
f 31//4 26//4 25//4
f 22//5 31//5 32//5
f 32//2 25//2 27//2
f 30//3 27//3 28//3
f 2//5 34//5 36//5
f 24//5 29//5 31//5
f 29//1 28//1 26//1
f 23//5 30//5 29//5
f 3//5 35//5 33//5
f 4//5 36//5 35//5
f 1//5 33//5 34//5
f 33//4 37//4 38//4
f 34//1 38//1 40//1
f 35//2 39//2 37//2
f 38//5 42//5 44//5
f 39//5 43//5 41//5
f 40//5 44//5 43//5
f 37//5 41//5 42//5
f 44//3 48//3 47//3
f 41//4 45//4 46//4
f 42//1 46//1 48//1
f 43//2 47//2 45//2
f 25//5 26//5 28//5
f 49//3 51//3 39//3
f 51//3 52//3 40//3
f 40//3 52//3 50//3
f 50//3 49//3 35//3
f 49//1 53//1 55//1
f 51//5 55//5 56//5
f 52//2 56//2 54//2
f 50//6 54//6 53//6
f 54//3 56//3 55//3
