# Blender 4.0.1
# www.blender.org
o gunner_body.001
v -0.002785 -0.128213 -0.095170 0.1608 0.0745 0.0039
v 0.085716 -0.128213 -0.047263 0.1608 0.0745 0.0039
v -0.002785 -0.128213 0.096457 0.1608 0.0745 0.0039
v 0.085716 0.239637 0.064316 0.1608 0.0745 0.0039
v -0.002786 0.239637 0.121683 0.1608 0.0745 0.0039
v -0.091287 0.239637 0.064316 0.1608 0.0745 0.0039
v -0.002785 0.239389 -0.107783 0.1608 0.0745 0.0039
v 0.085716 0.239389 -0.050416 0.1608 0.0745 0.0039
v -0.091287 0.239389 -0.050416 0.1608 0.0745 0.0039
v -0.002786 0.239637 0.121683 1.0000 0.0000 0.0000
v -0.091287 0.239637 0.064316 1.0000 0.0000 0.0000
v 0.085716 0.239637 0.064316 1.0000 0.0000 0.0000
v 0.085716 -0.128213 0.048550 0.1608 0.0745 0.0039
v -0.091287 -0.128213 0.048550 0.1608 0.0745 0.0039
v -0.091287 -0.128213 -0.047263 0.1608 0.0745 0.0039
v -0.002785 -0.128213 -0.095170 0.4000 0.2039 0.0039
v 0.085716 -0.128213 -0.047263 0.4000 0.2039 0.0039
v -0.002785 -0.128213 0.096457 0.4000 0.2039 0.0039
v -0.002788 -0.127808 -0.118902 0.4000 0.2039 0.0039
v 0.107241 -0.128213 -0.058915 0.4000 0.2039 0.0039
v 0.107241 -0.128213 0.060202 0.4000 0.2039 0.0039
v -0.002785 -0.128213 0.119760 0.4000 0.2039 0.0039
v -0.112812 -0.128213 0.060202 0.4000 0.2039 0.0039
v -0.112812 -0.128213 -0.058915 0.4000 0.2039 0.0039
v 0.107240 -0.140005 -0.146784 0.4000 0.2039 0.0039
v 0.107241 -0.192756 0.060202 0.4000 0.2039 0.0039
v -0.002785 -0.192756 0.119760 0.4000 0.2039 0.0039
v -0.112812 -0.192756 0.060202 0.4000 0.2039 0.0039
v -0.112811 -0.140347 -0.146423 0.4000 0.2039 0.0039
v 0.107241 -0.192756 -0.146499 0.4000 0.2039 0.0039
v -0.112812 -0.192756 -0.146499 0.4000 0.2039 0.0039
v 0.052667 -0.192655 -0.264421 0.4000 0.2039 0.0039
v -0.058238 -0.192827 -0.264239 0.4000 0.2039 0.0039
v -0.002781 -0.177304 -0.229757 0.4000 0.2039 0.0039
v 0.107241 -0.207147 0.060202 0.4000 0.2039 0.0039
v -0.002785 -0.207147 0.119760 0.4000 0.2039 0.0039
v -0.112812 -0.207147 0.060202 0.4000 0.2039 0.0039
v 0.107241 -0.207147 -0.146499 0.4000 0.2039 0.0039
v -0.112812 -0.207147 -0.146499 0.4000 0.2039 0.0039
v 0.052667 -0.207046 -0.264421 0.4000 0.2039 0.0039
v -0.058238 -0.207218 -0.264239 0.4000 0.2039 0.0039
v 0.085716 -0.128213 0.048550 0.4000 0.2039 0.0039
v -0.091287 -0.128213 0.048550 0.4000 0.2039 0.0039
v -0.091287 -0.128213 -0.047263 0.4000 0.2039 0.0039
v -0.002785 0.239389 -0.107783 1.0000 0.0000 0.0000
v 0.085716 0.239389 -0.050416 1.0000 0.0000 0.0000
v -0.091287 0.239389 -0.050416 1.0000 0.0000 0.0000
v -0.001030 0.231288 0.050276 1.0000 1.0000 1.0000
v -0.001030 0.290592 0.050276 1.0000 1.0000 1.0000
v -0.042964 0.231288 0.008341 1.0000 1.0000 1.0000
v -0.042964 0.290592 0.008341 1.0000 1.0000 1.0000
v 0.040905 0.231288 0.008341 1.0000 1.0000 1.0000
v 0.040905 0.290592 0.008341 1.0000 1.0000 1.0000
v -0.001030 0.231288 -0.033593 1.0000 1.0000 1.0000
v -0.001030 0.290592 -0.033593 1.0000 1.0000 1.0000
vn 1.0000 -0.0000 -0.0000
vn -0.0000 1.0000 -0.0014
vn -1.0000 -0.0000 -0.0000
vn 0.5430 -0.0575 0.8377
vn 0.4757 -0.0377 0.8788
vn 0.5439 -0.0072 -0.8391
vn 0.4758 -0.0302 -0.8790
vn -0.5437 -0.0288 -0.8388
vn -0.4760 -0.0075 -0.8794
vn -0.5436 -0.0359 0.8386
vn -0.4752 -0.0602 0.8778
vn 0.0092 0.9998 0.0171
vn -0.0018 1.0000 0.0034
vn -0.0000 1.0000 -0.0000
vn -0.0056 0.9998 0.0171
vn -0.4760 -0.0000 0.8794
vn 0.4760 -0.0000 0.8794
vn -0.0783 0.9875 -0.1369
vn 1.0000 -0.0001 -0.0000
vn 0.0759 0.9883 -0.1326
vn -0.0021 0.9131 -0.4077
vn 0.9075 -0.0022 -0.4200
vn -0.9073 0.0006 -0.4205
vn -0.0016 -0.0000 -1.0000
vn -0.0000 -1.0000 -0.0000
vn -0.0013 -1.0000 -0.0000
vn 0.0016 -1.0000 -0.0016
vn 0.0002 -1.0000 0.0003
vn -0.9073 -0.0000 -0.4205
vn 0.9075 -0.0000 -0.4200
vn -0.7071 -0.0000 0.7071
vn -0.7071 -0.0000 -0.7071
vn 0.7071 -0.0000 -0.7071
vn 0.7071 -0.0000 0.7071
vn 0.0014 1.0000 -0.0022
vn -0.0014 1.0000 -0.0022
s 0
f 8//1 4//1 13//1
f 8//1 13//1 2//1
f 45//2 11//2 12//2
f 6//3 9//3 15//3
f 6//3 15//3 14//3
f 4//4 5//4 3//4
f 4//5 3//5 13//5
f 7//6 8//6 2//6
f 7//7 2//7 1//7
f 9//8 7//8 1//8
f 9//9 1//9 15//9
f 5//10 6//10 14//10
f 5//11 14//11 3//11
f 44//12 16//12 19//12
f 44//13 19//13 24//13
f 18//14 43//14 23//14
f 18//14 23//14 22//14
f 17//14 42//14 21//14
f 17//14 21//14 20//14
f 43//14 44//14 24//14
f 43//14 24//14 23//14
f 42//14 18//14 22//14
f 42//14 22//14 21//14
f 16//14 17//14 20//14
f 16//15 20//15 19//15
f 22//16 23//16 28//16
f 22//16 28//16 27//16
f 21//17 22//17 27//17
f 21//17 27//17 26//17
f 21//1 26//1 30//1
f 21//1 30//1 25//1
f 28//3 23//3 29//3
f 28//3 29//3 31//3
f 29//18 24//18 19//18
f 29//3 23//3 24//3
f 21//19 25//19 20//19
f 25//20 19//20 20//20
f 34//21 32//21 33//21
f 25//22 30//22 32//22
f 25//21 32//21 19//21
f 32//21 34//21 19//21
f 34//21 33//21 19//21
f 29//23 33//23 31//23
f 19//21 33//21 29//21
f 33//24 32//24 40//24
f 33//24 40//24 41//24
f 35//25 36//25 37//25
f 37//26 39//26 41//26
f 41//27 40//27 38//27
f 38//25 35//25 37//25
f 37//28 41//28 38//28
f 30//1 26//1 35//1
f 30//1 35//1 38//1
f 31//29 33//29 41//29
f 31//29 41//29 39//29
f 26//17 27//17 36//17
f 26//17 36//17 35//17
f 28//3 31//3 39//3
f 28//3 39//3 37//3
f 32//30 30//30 38//30
f 32//30 38//30 40//30
f 27//16 28//16 37//16
f 27//16 37//16 36//16
f 49//31 50//31 48//31
f 51//32 54//32 50//32
f 55//33 52//33 54//33
f 53//34 48//34 52//34
f 54//25 48//25 50//25
f 51//14 53//14 55//14
f 12//35 46//35 45//35
f 45//36 47//36 11//36
f 11//14 10//14 12//14
f 49//31 51//31 50//31
f 51//32 55//32 54//32
f 55//33 53//33 52//33
f 53//34 49//34 48//34
f 54//25 52//25 48//25
f 51//14 49//14 53//14
