# Blender 3.6.2
# www.blender.org
o gunner_body.002
v -0.178482 0.000318 -0.060598 0.2353 0.1059 0.0039
v -0.178482 -0.058354 -0.001925 0.2353 0.1059 0.0039
v -0.178482 0.000318 0.056747 0.2353 0.1059 0.0039
v -0.178482 0.058991 -0.001925 0.2353 0.1059 0.0039
v 0.181741 0.000318 -0.060598 0.2353 0.1059 0.0039
v 0.181741 -0.058354 -0.001925 0.2353 0.1059 0.0039
v 0.181741 0.000318 0.056747 0.2353 0.1059 0.0039
v 0.181741 0.058991 -0.001925 0.2353 0.1059 0.0039
v -0.255656 0.000299 -0.071791 0.0000 0.4980 0.0000
v -0.172971 -0.071309 -0.000183 0.0000 0.4980 0.0000
v -0.255656 -0.071309 -0.000183 0.0000 0.4980 0.0000
v -0.172971 0.000299 0.071424 0.0000 0.4980 0.0000
v -0.255656 0.000299 0.071424 0.0000 0.4980 0.0000
v -0.131629 0.000299 -0.000183 0.0000 0.4980 0.0000
v -0.172971 0.071906 -0.000183 0.0000 0.4980 0.0000
v -0.255656 0.071906 -0.000183 0.0000 0.4980 0.0000
v -0.172971 0.000299 -0.071791 0.0000 0.4980 0.0000
v -0.296999 0.000299 -0.000183 0.0000 0.4980 0.0000
v 0.181741 0.000318 -0.060598 1.0000 0.0000 0.0000
v 0.181741 -0.058354 -0.001925 1.0000 0.0000 0.0000
v 0.181741 0.000318 0.056747 1.0000 0.0000 0.0000
v 0.181741 0.058991 -0.001925 1.0000 0.0000 0.0000
v 0.178921 0.000026 -0.025061 1.0000 1.0000 1.0000
v 0.228325 0.000026 -0.025061 1.0000 1.0000 1.0000
v 0.178921 -0.024676 -0.000358 1.0000 1.0000 1.0000
v 0.228325 -0.024676 -0.000358 1.0000 1.0000 1.0000
v 0.178921 0.000026 0.024344 1.0000 1.0000 1.0000
v 0.228325 0.000026 0.024344 1.0000 1.0000 1.0000
v 0.178921 0.024729 -0.000358 1.0000 1.0000 1.0000
v 0.228325 0.024729 -0.000358 1.0000 1.0000 1.0000
vn -1.0000 -0.0000 -0.0000
vn -0.0000 -0.7071 -0.7071
vn -0.0000 -0.7071 0.7071
vn -0.0000 0.7071 0.7071
vn -0.0000 0.7071 -0.7071
vn -0.7746 -0.4472 -0.4472
vn 0.7746 -0.4472 -0.4472
vn -0.7746 -0.4472 0.4472
vn 0.7746 -0.4472 0.4472
vn -0.7746 0.4472 0.4472
vn 0.7746 0.4472 0.4472
vn -0.7746 0.4472 -0.4472
vn 0.7746 0.4472 -0.4472
vn 1.0000 -0.0000 -0.0000
s 0
f 1//1 2//1 3//1 4//1
f 1//2 5//2 6//2 2//2
f 2//3 6//3 7//3 3//3
f 3//4 7//4 8//4 4//4
f 4//5 8//5 5//5 1//5
f 18//6 9//6 11//6
f 9//2 17//2 10//2 11//2
f 17//7 14//7 10//7
f 18//8 11//8 13//8
f 11//3 10//3 12//3 13//3
f 10//9 14//9 12//9
f 18//10 13//10 16//10
f 13//4 12//4 15//4 16//4
f 12//11 14//11 15//11
f 18//12 16//12 9//12
f 16//5 15//5 17//5 9//5
f 15//13 14//13 17//13
f 19//14 22//14 21//14 20//14
f 23//2 24//2 26//2 25//2
f 25//3 26//3 28//3 27//3
f 26//14 24//14 30//14 28//14
f 27//4 28//4 30//4 29//4
f 29//5 30//5 24//5 23//5
f 23//1 25//1 27//1 29//1
