# Blender 4.0.1
# www.blender.org
o gunner_body.001
v -0.025072 -0.018164 -0.117162 0.0000 0.0000 0.0000
v -0.025072 0.017498 -0.123372 0.0000 0.0000 0.0000
v -0.025072 -0.018164 -0.144684 0.0000 0.0000 0.0000
v -0.025072 0.017498 -0.144684 0.0000 0.0000 0.0000
v 0.028137 -0.018164 -0.117162 0.0000 0.0000 0.0000
v 0.028137 0.017498 -0.123372 0.0000 0.0000 0.0000
v 0.028137 -0.018164 -0.144684 0.0000 0.0000 0.0000
v 0.028137 0.017498 -0.144684 0.0000 0.0000 0.0000
v -0.069001 -0.026847 -0.137983 0.0000 0.0000 0.0000
v -0.069001 -0.026847 -0.116473 0.0000 0.0000 0.0000
v -0.069001 -0.004570 -0.122684 0.0000 0.0000 0.0000
v -0.069001 -0.004570 -0.137983 0.0000 0.0000 0.0000
v 0.072066 -0.004570 -0.137983 0.0000 0.0000 0.0000
v 0.072066 -0.026847 -0.137983 0.0000 0.0000 0.0000
v 0.072066 -0.026847 -0.116473 0.0000 0.0000 0.0000
v 0.072066 -0.004570 -0.122684 0.0000 0.0000 0.0000
v -0.119327 0.011877 -0.123893 0.0000 0.0000 0.0000
v 0.122392 0.011877 -0.123893 0.0000 0.0000 0.0000
v 0.032910 0.050892 -0.135151 0.0000 0.0000 0.0000
v 0.079354 0.050892 -0.135151 0.0000 0.0000 0.0000
v 0.032910 0.097024 -0.120535 0.0000 0.0000 0.0000
v 0.079354 0.097024 -0.120535 0.0000 0.0000 0.0000
v 0.064475 0.115282 -0.114751 0.0000 0.0000 0.0000
v 0.056132 0.034341 -0.140394 0.0000 0.0000 0.0000
v -0.029865 0.050892 -0.135151 0.0000 0.0000 0.0000
v -0.076309 0.050892 -0.135151 0.0000 0.0000 0.0000
v -0.029865 0.097024 -0.120535 0.0000 0.0000 0.0000
v -0.076309 0.097024 -0.120535 0.0000 0.0000 0.0000
v -0.063243 0.115282 -0.114751 0.0000 0.0000 0.0000
v -0.053087 0.034341 -0.140394 0.0000 0.0000 0.0000
v -0.098034 -0.155836 -0.027124 0.0039 0.4980 0.0039
v -0.098034 -0.155836 0.038602 0.0039 0.4980 0.0039
v -0.040102 -0.155836 0.085077 0.0039 0.4980 0.0039
v 0.099758 -0.155836 0.038602 0.0039 0.4980 0.0039
v 0.041826 -0.155836 -0.073598 0.0039 0.4980 0.0039
v -0.040102 -0.155836 -0.073598 0.0039 0.4980 0.0039
v 0.041826 -0.155836 0.085077 0.0039 0.4980 0.0039
v 0.099759 -0.155836 -0.027124 0.0039 0.4980 0.0039
v -0.054599 -0.063434 -0.115879 0.0039 0.4980 0.0039
v -0.133980 -0.063434 -0.044029 0.0039 0.4980 0.0039
v -0.133980 -0.063434 0.057582 0.0039 0.4980 0.0039
v -0.054599 -0.063434 0.129431 0.0039 0.4980 0.0039
v 0.057663 -0.063434 0.129431 0.0039 0.4980 0.0039
v 0.137044 -0.063434 0.057582 0.0039 0.4980 0.0039
v 0.137044 -0.063434 -0.044029 0.0039 0.4980 0.0039
v 0.057663 -0.063434 -0.115879 0.0039 0.4980 0.0039
v -0.060176 0.058367 -0.128066 0.0039 0.4980 0.0039
v -0.147444 0.058367 -0.049077 0.0039 0.4980 0.0039
v -0.147444 0.058367 0.062630 0.0039 0.4980 0.0039
v -0.060176 0.058367 0.141618 0.0039 0.4980 0.0039
v 0.063240 0.058367 0.141618 0.0039 0.4980 0.0039
v 0.150509 0.058367 0.062630 0.0039 0.4980 0.0039
v 0.150509 0.058367 -0.049077 0.0039 0.4980 0.0039
v 0.063240 0.058367 -0.128066 0.0039 0.4980 0.0039
v -0.038494 0.203457 -0.080688 0.0039 0.4980 0.0039
v -0.095100 0.203457 -0.029453 0.0039 0.4980 0.0039
v -0.038494 0.203457 0.094241 0.0039 0.4980 0.0039
v 0.041559 0.203457 0.094241 0.0039 0.4980 0.0039
v 0.098165 0.203457 0.043005 0.0039 0.4980 0.0039
v 0.098165 0.203457 -0.029453 0.0039 0.4980 0.0039
v 0.041559 0.203457 -0.080688 0.0039 0.4980 0.0039
v -0.093614 0.203457 0.043005 0.0039 0.4980 0.0039
v 0.032910 0.082762 -0.125054 0.0000 0.0000 0.0000
v 0.079354 0.082762 -0.125054 0.0000 0.0000 0.0000
v -0.029865 0.082762 -0.125054 0.0000 0.0000 0.0000
v -0.076309 0.082762 -0.125054 0.0000 0.0000 0.0000
v -0.141388 0.099608 -0.057409 0.0000 0.0000 0.0000
v -0.141388 0.085346 -0.061927 0.0000 0.0000 0.0000
v -0.157911 0.082453 -0.019414 0.0000 0.0000 0.0000
v -0.157911 0.068191 -0.023933 0.0000 0.0000 0.0000
v 0.144437 0.099608 -0.057409 0.0000 0.0000 0.0000
v 0.144437 0.085346 -0.061927 0.0000 0.0000 0.0000
v 0.160960 0.082453 -0.019414 0.0000 0.0000 0.0000
v 0.160960 0.068191 -0.023933 0.0000 0.0000 0.0000
v 0.000033 0.265333 0.083402 0.2353 0.1059 0.0118
v 0.000033 0.156173 0.132396 0.2353 0.1059 0.0118
v -0.064177 0.265333 0.060421 0.2353 0.1059 0.0118
v -0.104272 0.156173 0.095065 0.2353 0.1059 0.0118
v -0.090774 0.265333 0.004940 0.2353 0.1059 0.0118
v -0.147476 0.156173 0.004940 0.2353 0.1059 0.0118
v -0.064177 0.265333 -0.050542 0.2353 0.1059 0.0118
v -0.104272 0.156173 -0.085186 0.2353 0.1059 0.0118
v 0.000033 0.265333 -0.073523 0.2353 0.1059 0.0118
v 0.000033 0.156173 -0.122517 0.2353 0.1059 0.0118
v 0.064244 0.265333 -0.050542 0.2353 0.1059 0.0118
v 0.104338 0.156173 -0.085186 0.2353 0.1059 0.0118
v 0.090841 0.265333 0.004940 0.2353 0.1059 0.0118
v 0.147543 0.156173 0.004940 0.2353 0.1059 0.0118
v 0.064244 0.265333 0.060421 0.2353 0.1059 0.0118
v 0.104338 0.156173 0.095065 0.2353 0.1059 0.0118
v -0.147476 0.156173 -0.144221 0.2353 0.1059 0.0118
v -0.104272 0.156173 -0.234346 0.2353 0.1059 0.0118
v 0.000033 0.156173 -0.271677 0.2353 0.1059 0.0118
v 0.104338 0.156173 -0.234346 0.2353 0.1059 0.0118
v 0.147543 0.156173 -0.144221 0.2353 0.1059 0.0118
v 0.000923 0.146751 0.132866 0.2353 0.1059 0.0118
v -0.103382 0.146751 0.095535 0.2353 0.1059 0.0118
v -0.146586 0.146751 0.005410 0.2353 0.1059 0.0118
v -0.103382 0.146751 -0.084716 0.2353 0.1059 0.0118
v 0.000923 0.146751 -0.122047 0.2353 0.1059 0.0118
v 0.105228 0.146751 -0.084716 0.2353 0.1059 0.0118
v 0.148433 0.146751 0.005410 0.2353 0.1059 0.0118
v 0.105228 0.146751 0.095535 0.2353 0.1059 0.0118
v -0.146586 0.146751 -0.143751 0.2353 0.1059 0.0118
v -0.103382 0.146751 -0.233876 0.2353 0.1059 0.0118
v 0.000923 0.146751 -0.271207 0.2353 0.1059 0.0118
v 0.105228 0.146751 -0.233876 0.2353 0.1059 0.0118
v 0.148433 0.146751 -0.143751 0.2353 0.1059 0.0118
v -0.098034 -0.155836 -0.027124 1.0000 0.0000 0.0000
v -0.098034 -0.155836 0.038602 1.0000 0.0000 0.0000
v -0.040102 -0.155836 0.085077 1.0000 0.0000 0.0000
v 0.099758 -0.155836 0.038602 1.0000 0.0000 0.0000
v 0.041826 -0.155836 -0.073598 1.0000 0.0000 0.0000
v -0.040102 -0.155836 -0.073598 1.0000 0.0000 0.0000
v 0.041826 -0.155836 0.085077 1.0000 0.0000 0.0000
v 0.099759 -0.155836 -0.027124 1.0000 0.0000 0.0000
v -0.037771 -0.187645 0.000000 1.0000 1.0000 1.0000
v -0.037771 -0.134230 0.000000 1.0000 1.0000 1.0000
v -0.000000 -0.187645 -0.037771 1.0000 1.0000 1.0000
v -0.000000 -0.134230 -0.037771 1.0000 1.0000 1.0000
v 0.000000 -0.187645 0.037771 1.0000 1.0000 1.0000
v 0.000000 -0.134230 0.037771 1.0000 1.0000 1.0000
v 0.037771 -0.187645 0.000000 1.0000 1.0000 1.0000
v 0.037771 -0.134230 0.000000 1.0000 1.0000 1.0000
vn 0.0185 0.1715 0.9850
vn 0.1190 0.2666 0.9564
vn -0.0000 -0.0000 -1.0000
vn 0.1939 -0.9810 -0.0000
vn -0.0000 0.1716 0.9852
vn -0.0000 -1.0000 -0.0000
vn -0.0000 1.0000 -0.0000
vn 0.2696 -0.0000 -0.9630
vn -0.3106 0.9505 -0.0000
vn -0.1939 -0.9810 -0.0000
vn -0.1508 -0.0000 -0.9886
vn -0.0706 0.1711 0.9827
vn -0.0380 0.2684 0.9626
vn 0.4489 0.8936 -0.0000
vn 0.1508 -0.0000 -0.9886
vn -0.4489 0.8936 -0.0000
vn 0.3106 0.9505 -0.0000
vn -0.6098 -0.7925 -0.0000
vn -0.0645 0.2680 0.9613
vn 0.6098 -0.7925 -0.0000
vn -0.2696 -0.0000 -0.9630
vn 0.0645 0.2680 0.9613
vn -0.0000 0.3020 -0.9533
vn 0.5676 -0.4210 -0.7075
vn 0.6217 -0.3765 -0.6868
vn 0.5784 -0.3815 0.7210
vn 0.6071 -0.4260 0.6708
vn -0.5658 -0.4273 0.7052
vn -0.6202 -0.3820 0.6852
vn -0.5837 -0.3602 -0.7277
vn -0.6132 -0.4062 -0.6775
vn -0.0000 -0.4161 -0.9093
vn 0.9273 -0.3742 -0.0000
vn -0.0000 -0.4327 0.9015
vn -0.9320 -0.3625 -0.0000
vn -0.6674 -0.1043 -0.7374
vn -0.0000 -0.0996 -0.9950
vn 0.9939 -0.1099 -0.0000
vn -0.0000 -0.0996 0.9950
vn -0.9939 -0.1099 -0.0000
vn 0.6674 -0.1043 -0.7374
vn 0.6674 -0.1043 0.7374
vn -0.6674 -0.1043 0.7374
vn 0.6349 0.3239 -0.7014
vn 0.6349 0.3239 0.7014
vn -0.6349 0.3239 -0.7014
vn -0.0000 0.3104 -0.9506
vn 0.9407 0.3394 -0.0000
vn -0.0000 0.3104 0.9506
vn -0.6349 0.3239 0.7014
vn -0.6423 0.3317 0.6910
vn -0.9376 0.3478 -0.0000
vn -0.9413 0.3370 0.0193
vn -0.6741 0.2231 -0.7041
vn -0.9288 0.1119 -0.3534
vn -0.9288 0.1119 -0.3533
vn 0.6741 0.2231 -0.7041
vn 0.9288 0.1119 -0.3533
vn 0.9288 0.1119 -0.3534
vn -0.3104 0.3892 0.8673
vn -0.8166 0.4242 0.3915
vn -0.8166 0.4242 -0.3915
vn -0.3104 0.3892 -0.8673
vn 0.3104 0.3892 -0.8673
vn 0.8166 0.4242 -0.3915
vn 0.8166 0.4242 0.3915
vn 0.3104 0.3892 0.8673
vn 0.8966 0.1061 0.4298
vn -0.8999 -0.0635 0.4314
vn 0.8999 0.0635 -0.4314
vn 0.3369 -0.0151 -0.9414
vn -0.9956 -0.0940 -0.0000
vn 0.3359 0.0786 0.9386
vn -0.3369 0.0151 0.9414
vn -0.8966 -0.1061 -0.4298
vn 0.9956 0.0940 -0.0000
vn -0.3359 -0.0786 -0.9386
vn -0.7071 -0.0000 -0.7071
vn 0.7071 -0.0000 -0.7071
vn 0.7071 -0.0000 0.7071
vn -0.7071 -0.0000 0.7071
s 0
f 6//1 5//1 15//1
f 6//2 15//2 16//2
f 3//3 4//3 8//3
f 3//3 8//3 7//3
f 3//4 1//4 10//4
f 3//4 10//4 9//4
f 5//5 6//5 2//5
f 5//5 2//5 1//5
f 3//6 7//6 5//6
f 3//6 5//6 1//6
f 8//7 4//7 2//7
f 8//7 2//7 6//7
f 14//8 13//8 18//8
f 13//9 16//9 18//9
f 5//10 7//10 14//10
f 5//10 14//10 15//10
f 4//11 3//11 9//11
f 4//11 9//11 12//11
f 1//12 2//12 11//12
f 1//13 11//13 10//13
f 8//14 6//14 16//14
f 8//14 16//14 13//14
f 7//15 8//15 13//15
f 7//15 13//15 14//15
f 2//16 4//16 12//16
f 2//16 12//16 11//16
f 11//17 12//17 17//17
f 9//18 10//18 17//18
f 16//19 15//19 18//19
f 15//20 14//20 18//20
f 12//21 9//21 17//21
f 10//22 11//22 17//22
f 63//23 21//23 22//23
f 63//23 22//23 64//23
f 21//23 23//23 22//23
f 19//23 20//23 24//23
f 65//23 66//23 28//23
f 65//23 28//23 27//23
f 27//23 28//23 29//23
f 25//23 30//23 26//23
f 38//24 35//24 46//24
f 38//25 46//25 45//25
f 37//26 34//26 44//26
f 37//27 44//27 43//27
f 32//28 33//28 42//28
f 32//29 42//29 41//29
f 36//30 31//30 40//30
f 36//31 40//31 39//31
f 35//32 36//32 39//32
f 35//32 39//32 46//32
f 34//33 38//33 45//33
f 34//33 45//33 44//33
f 33//34 37//34 43//34
f 33//34 43//34 42//34
f 31//35 32//35 41//35
f 31//35 41//35 40//35
f 39//36 40//36 48//36
f 39//36 48//36 47//36
f 46//37 39//37 47//37
f 46//37 47//37 54//37
f 44//38 45//38 53//38
f 44//38 53//38 52//38
f 42//39 43//39 51//39
f 42//39 51//39 50//39
f 40//40 41//40 49//40
f 40//40 49//40 48//40
f 45//41 46//41 54//41
f 45//41 54//41 53//41
f 43//42 44//42 52//42
f 43//42 52//42 51//42
f 41//43 42//43 50//43
f 41//43 50//43 49//43
f 53//44 54//44 61//44
f 53//44 61//44 60//44
f 51//45 52//45 59//45
f 51//45 59//45 58//45
f 47//46 48//46 56//46
f 47//46 56//46 55//46
f 54//47 47//47 55//47
f 54//47 55//47 61//47
f 52//48 53//48 60//48
f 52//48 60//48 59//48
f 50//49 51//49 58//49
f 50//49 58//49 57//49
f 49//50 50//50 57//50
f 49//51 57//51 62//51
f 48//52 49//52 62//52
f 48//53 62//53 56//53
f 19//23 63//23 64//23
f 19//23 64//23 20//23
f 25//23 26//23 66//23
f 25//23 66//23 65//23
f 63//23 65//23 27//23
f 63//23 27//23 21//23
f 28//54 66//54 68//54
f 28//54 68//54 67//54
f 67//55 68//55 70//55
f 67//56 70//56 69//56
f 22//57 71//57 72//57
f 22//57 72//57 64//57
f 71//58 73//58 74//58
f 71//59 74//59 72//59
f 75//60 77//60 78//60
f 75//60 78//60 76//60
f 77//61 79//61 80//61
f 77//61 80//61 78//61
f 79//62 81//62 82//62
f 79//62 82//62 80//62
f 81//63 83//63 84//63
f 81//63 84//63 82//63
f 83//64 85//64 86//64
f 83//64 86//64 84//64
f 85//65 87//65 88//65
f 85//65 88//65 86//65
f 87//66 89//66 90//66
f 87//66 90//66 88//66
f 89//67 75//67 76//67
f 89//67 76//67 90//67
f 77//7 75//7 89//7
f 89//7 87//7 85//7
f 85//7 83//7 81//7
f 81//7 79//7 77//7
f 77//7 89//7 85//7
f 85//7 81//7 77//7
f 90//68 103//68 102//68
f 90//68 102//68 88//68
f 80//69 98//69 97//69
f 80//69 97//69 78//69
f 94//70 95//70 108//70
f 94//70 108//70 107//70
f 93//71 94//71 107//71
f 93//71 107//71 106//71
f 101//6 100//6 106//6
f 101//6 106//6 107//6
f 99//6 98//6 104//6
f 99//6 104//6 105//6
f 102//6 101//6 107//6
f 102//6 107//6 108//6
f 100//6 99//6 105//6
f 100//6 105//6 106//6
f 80//72 91//72 104//72
f 80//72 104//72 98//72
f 76//73 96//73 103//73
f 76//73 103//73 90//73
f 78//74 97//74 96//74
f 78//74 96//74 76//74
f 91//75 92//75 105//75
f 91//75 105//75 104//75
f 95//76 88//76 102//76
f 95//76 102//76 108//76
f 92//77 93//77 106//77
f 92//77 106//77 105//77
f 88//7 95//7 94//7
f 88//7 94//7 86//7
f 86//7 94//7 93//7
f 86//7 93//7 84//7
f 84//7 93//7 92//7
f 84//7 92//7 82//7
f 82//7 92//7 91//7
f 82//7 91//7 80//7
f 96//6 97//6 98//6
f 98//6 99//6 100//6
f 100//6 101//6 102//6
f 102//6 103//6 96//6
f 96//6 98//6 100//6
f 100//6 102//6 96//6
f 110//6 114//6 116//6
f 118//78 119//78 117//78
f 120//79 123//79 119//79
f 124//80 121//80 123//80
f 122//81 117//81 121//81
f 119//6 121//6 117//6
f 120//7 122//7 124//7
f 116//6 112//6 115//6
f 115//6 111//6 110//6
f 110//6 109//6 114//6
f 114//6 113//6 116//6
f 116//6 115//6 110//6
f 118//78 120//78 119//78
f 120//79 124//79 123//79
f 124//80 122//80 121//80
f 122//81 118//81 117//81
f 119//6 123//6 121//6
f 120//7 118//7 122//7
