# Blender 3.6.2
# www.blender.org
o gunner_body.002
v 0.079320 0.170055 -0.072681 0.0000 0.4980 0.0000
v 0.127597 0.004678 -0.120957 0.0000 0.4980 0.0000
v 0.111404 -0.154114 -0.104764 0.0000 0.4980 0.0000
v 0.112176 0.170055 0.006640 0.0000 0.4980 0.0000
v 0.180449 0.004678 0.006640 0.0000 0.4980 0.0000
v 0.157549 -0.154114 0.006640 0.0000 0.4980 0.0000
v 0.079320 0.170055 0.085960 0.0000 0.4980 0.0000
v 0.127597 0.004678 0.134236 0.0000 0.4980 0.0000
v 0.111404 -0.154114 0.118043 0.0000 0.4980 0.0000
v 0.000000 0.170055 0.118816 0.0000 0.4980 0.0000
v 0.000000 0.004678 0.166591 0.0000 0.4980 0.0000
v 0.000000 -0.154114 0.144516 0.0000 0.4980 0.0000
v -0.079320 0.170055 0.085960 0.0000 0.4980 0.0000
v -0.127597 0.004678 0.134236 0.0000 0.4980 0.0000
v -0.111404 -0.154114 0.118043 0.0000 0.4980 0.0000
v 0.000000 -0.253539 -0.089854 0.0000 0.4980 0.0000
v -0.112176 0.170055 0.006640 0.0000 0.4980 0.0000
v -0.180449 0.004678 0.006640 0.0000 0.4980 0.0000
v -0.157548 -0.154114 0.006640 0.0000 0.4980 0.0000
v -0.079320 0.170055 -0.072681 0.0000 0.4980 0.0000
v -0.127597 0.004678 -0.120957 0.0000 0.4980 0.0000
v -0.111404 -0.154114 -0.104764 0.0000 0.4980 0.0000
v 0.000000 0.236927 0.006640 0.0000 0.4980 0.0000
v 0.000000 0.170055 -0.105536 0.0000 0.4980 0.0000
v 0.000000 0.004678 -0.158750 0.0000 0.4980 0.0000
v 0.000000 -0.154114 -0.137634 0.0000 0.4980 0.0000
v -0.068232 -0.253539 -0.061592 0.0000 0.4980 0.0000
v -0.096494 -0.253539 0.006640 0.0000 0.4980 0.0000
v -0.068232 -0.253539 0.074872 0.0000 0.4980 0.0000
v 0.000000 -0.253539 0.103134 0.0000 0.4980 0.0000
v 0.068232 -0.253539 0.074872 0.0000 0.4980 0.0000
v 0.096494 -0.253539 0.006640 0.0000 0.4980 0.0000
v 0.068232 -0.253539 -0.061592 0.0000 0.4980 0.0000
v 0.082631 0.006182 -0.161229 0.0000 0.0000 0.0000
v 0.027180 0.006182 -0.161229 0.0000 0.0000 0.0000
v 0.082631 0.047920 -0.150273 0.0000 0.0000 0.0000
v 0.027180 0.047920 -0.150273 0.0000 0.0000 0.0000
v 0.060396 0.068790 -0.144794 0.0000 0.0000 0.0000
v 0.054906 -0.014687 -0.166708 0.0000 0.0000 0.0000
v -0.027180 0.006182 -0.161229 0.0000 0.0000 0.0000
v -0.082631 0.006182 -0.161229 0.0000 0.0000 0.0000
v -0.027180 0.047920 -0.150273 0.0000 0.0000 0.0000
v -0.082631 0.047920 -0.150273 0.0000 0.0000 0.0000
v -0.060396 0.068790 -0.144794 0.0000 0.0000 0.0000
v -0.054906 -0.014687 -0.166708 0.0000 0.0000 0.0000
v -0.035921 -0.083360 -0.127857 0.0000 0.0000 0.0000
v -0.035921 -0.041833 -0.127857 0.0000 0.0000 0.0000
v -0.035921 -0.083360 -0.161214 0.0000 0.0000 0.0000
v -0.035921 -0.041833 -0.161214 0.0000 0.0000 0.0000
v -0.091635 -0.068233 -0.161214 0.0000 0.0000 0.0000
v -0.091635 -0.092615 -0.161214 0.0000 0.0000 0.0000
v -0.091635 -0.068233 -0.127857 0.0000 0.0000 0.0000
v -0.091635 -0.092615 -0.127857 0.0000 0.0000 0.0000
v -0.129854 -0.043032 -0.144535 0.0000 0.0000 0.0000
v 0.035921 -0.083360 -0.161214 0.0000 0.0000 0.0000
v 0.035921 -0.041833 -0.161214 0.0000 0.0000 0.0000
v 0.035921 -0.083360 -0.127857 0.0000 0.0000 0.0000
v 0.035921 -0.041833 -0.127857 0.0000 0.0000 0.0000
v 0.091635 -0.068233 -0.127857 0.0000 0.0000 0.0000
v 0.091635 -0.092615 -0.127857 0.0000 0.0000 0.0000
v 0.091635 -0.068233 -0.161214 0.0000 0.0000 0.0000
v 0.091635 -0.092615 -0.161214 0.0000 0.0000 0.0000
v 0.129854 -0.043032 -0.144535 0.0000 0.0000 0.0000
v 0.082631 0.027051 -0.155751 0.0000 0.0000 0.0000
v 0.027180 0.027051 -0.155751 0.0000 0.0000 0.0000
v -0.027180 0.027051 -0.155751 0.0000 0.0000 0.0000
v -0.082631 0.027051 -0.155751 0.0000 0.0000 0.0000
v -0.130875 0.047920 -0.126310 0.0000 0.0000 0.0000
v -0.130875 0.027051 -0.131788 0.0000 0.0000 0.0000
v -0.164584 0.027051 -0.055745 0.0000 0.0000 0.0000
v -0.159469 0.047920 -0.053783 0.0000 0.0000 0.0000
v -0.172543 0.001908 -0.025431 0.0000 0.0000 0.0000
v -0.172214 0.020015 -0.013703 0.0000 0.0000 0.0000
v 0.131008 0.047920 -0.126310 0.0000 0.0000 0.0000
v 0.131008 0.027051 -0.131788 0.0000 0.0000 0.0000
v 0.164717 0.027051 -0.055745 0.0000 0.0000 0.0000
v 0.159603 0.047920 -0.053783 0.0000 0.0000 0.0000
v 0.172677 0.001908 -0.025431 0.0000 0.0000 0.0000
v 0.172347 0.020015 -0.013703 0.0000 0.0000 0.0000
v -0.000000 0.236485 0.101400 0.4667 0.0980 0.0000
v -0.000000 0.114592 0.164716 0.4667 0.0980 0.0000
v -0.071701 0.236485 0.071701 0.4667 0.0980 0.0000
v -0.116472 0.114592 0.116472 0.4667 0.0980 0.0000
v -0.101400 0.236485 0.000000 0.4667 0.0980 0.0000
v -0.164716 0.114592 0.000000 0.4667 0.0980 0.0000
v -0.071701 0.236485 -0.071701 0.4667 0.0980 0.0000
v -0.116472 0.114592 -0.116472 0.4667 0.0980 0.0000
v -0.000000 0.236485 -0.101400 0.4667 0.0980 0.0000
v -0.000000 0.114592 -0.164716 0.4667 0.0980 0.0000
v 0.071701 0.236485 -0.071701 0.4667 0.0980 0.0000
v 0.116472 0.114592 -0.116472 0.4667 0.0980 0.0000
v 0.101400 0.236485 0.000000 0.4667 0.0980 0.0000
v 0.164716 0.114592 0.000000 0.4667 0.0980 0.0000
v 0.071701 0.236485 0.071701 0.4667 0.0980 0.0000
v 0.116472 0.114592 0.116472 0.4667 0.0980 0.0000
v -0.164716 0.114592 -0.192765 0.4667 0.0980 0.0000
v -0.116472 0.114592 -0.309237 0.4667 0.0980 0.0000
v -0.000000 0.114592 -0.357481 0.4667 0.0980 0.0000
v 0.116472 0.114592 -0.309237 0.4667 0.0980 0.0000
v 0.164716 0.114592 -0.192765 0.4667 0.0980 0.0000
v 0.000994 0.104070 0.165324 0.4667 0.0980 0.0000
v -0.115478 0.104070 0.117079 0.4667 0.0980 0.0000
v -0.163722 0.104070 0.000607 0.4667 0.0980 0.0000
v -0.115478 0.104070 -0.115864 0.4667 0.0980 0.0000
v 0.000994 0.104070 -0.164109 0.4667 0.0980 0.0000
v 0.117466 0.104070 -0.115864 0.4667 0.0980 0.0000
v 0.165710 0.104070 0.000607 0.4667 0.0980 0.0000
v 0.117466 0.104070 0.117079 0.4667 0.0980 0.0000
v -0.163722 0.104070 -0.192158 0.4667 0.0980 0.0000
v -0.115478 0.104070 -0.308630 0.4667 0.0980 0.0000
v 0.000994 0.104070 -0.356874 0.4667 0.0980 0.0000
v 0.117466 0.104070 -0.308630 0.4667 0.0980 0.0000
v 0.165710 0.104070 -0.192158 0.4667 0.0980 0.0000
v 0.000000 -0.253539 -0.089854 1.0000 0.0000 0.0000
v -0.068232 -0.253539 -0.061592 1.0000 0.0000 0.0000
v -0.096494 -0.253539 0.006640 1.0000 0.0000 0.0000
v -0.068232 -0.253539 0.074872 1.0000 0.0000 0.0000
v 0.000000 -0.253539 0.103134 1.0000 0.0000 0.0000
v 0.068232 -0.253539 0.074872 1.0000 0.0000 0.0000
v 0.096494 -0.253539 0.006640 1.0000 0.0000 0.0000
v 0.068232 -0.253539 -0.061592 1.0000 0.0000 0.0000
v -0.000783 -0.241103 0.051993 1.0000 1.0000 1.0000
v -0.000783 -0.332566 0.051993 1.0000 1.0000 1.0000
v -0.046515 -0.241103 0.006261 1.0000 1.0000 1.0000
v -0.046515 -0.332566 0.006261 1.0000 1.0000 1.0000
v -0.000783 -0.241103 -0.039471 1.0000 1.0000 1.0000
v -0.000783 -0.332566 -0.039471 1.0000 1.0000 1.0000
v 0.044949 -0.241103 0.006261 1.0000 1.0000 1.0000
v 0.044949 -0.332566 0.006261 1.0000 1.0000 1.0000
vn 0.2638 -0.4254 0.8657
vn 0.3061 0.3198 -0.8967
vn 0.2813 -0.1261 -0.9513
vn 0.2075 0.8403 -0.5009
vn -0.2878 -0.4493 -0.8457
vn 0.8632 0.3564 -0.3576
vn 0.9158 -0.1321 -0.3793
vn 0.5009 0.8403 -0.2075
vn -0.2638 -0.4254 0.8657
vn 0.8632 0.3564 0.3576
vn 0.9158 -0.1321 0.3793
vn 0.5009 0.8403 0.2075
vn 0.8036 -0.4935 0.3328
vn 0.2862 0.3055 0.9082
vn 0.2370 -0.1281 0.9630
vn 0.2075 0.8403 0.5009
vn -0.8036 -0.4935 0.3328
vn -0.2862 0.3055 0.9082
vn -0.2370 -0.1281 0.9630
vn -0.2075 0.8403 0.5009
vn -0.5009 0.8403 0.2075
vn 0.8036 -0.4935 -0.3328
vn -0.8632 0.3564 0.3576
vn -0.9158 -0.1321 0.3793
vn -0.9158 -0.1321 -0.3793
vn -0.5009 0.8403 -0.2075
vn 0.2878 -0.4493 -0.8457
vn -0.8632 0.3564 -0.3576
vn -0.2813 -0.1261 -0.9513
vn -0.2075 0.8403 -0.5009
vn -0.8036 -0.4935 -0.3328
vn -0.3061 0.3198 -0.8967
vn -0.0000 0.2539 -0.9672
vn -0.0000 -0.0000 -1.0000
vn -0.7920 -0.6105 -0.0000
vn -0.4282 0.9037 -0.0000
vn -0.0000 -0.0000 1.0000
vn 0.1639 -0.9865 -0.0000
vn -0.4000 -0.0000 0.9165
vn 0.5505 0.8349 -0.0000
vn -0.4000 -0.0000 -0.9165
vn 0.7920 -0.6105 -0.0000
vn 0.4282 0.9037 -0.0000
vn -0.1639 -0.9865 -0.0000
vn 0.4000 -0.0000 -0.9165
vn -0.5505 0.8349 -0.0000
vn 0.4000 -0.0000 0.9165
vn -0.0000 -1.0000 -0.0000
vn -0.0000 1.0000 -0.0000
vn -0.4330 0.2289 -0.8718
vn -0.9073 0.1790 -0.3805
vn -0.9716 0.1867 -0.1451
vn 0.9073 0.1790 -0.3805
vn 0.9716 0.1867 -0.1451
vn 0.4321 0.2290 -0.8723
vn -0.3450 0.4327 0.8329
vn -0.8329 0.4327 0.3450
vn -0.8329 0.4327 -0.3450
vn -0.3450 0.4327 -0.8329
vn 0.3450 0.4327 -0.8329
vn 0.8329 0.4327 -0.3450
vn 0.8329 0.4327 0.3450
vn 0.3450 0.4327 0.8329
vn 0.9184 0.1087 0.3804
vn -0.9219 -0.0650 0.3819
vn 0.9219 0.0650 -0.3819
vn 0.3826 -0.0172 -0.9237
vn -0.9956 -0.0940 -0.0000
vn 0.3812 0.0891 0.9202
vn -0.3826 0.0172 0.9237
vn -0.9184 -0.1087 -0.3804
vn 0.9956 0.0940 -0.0000
vn -0.3812 -0.0891 -0.9202
vn -0.7071 -0.0000 0.7071
vn -0.7071 -0.0000 -0.7071
vn 0.7071 -0.0000 -0.7071
vn 0.7071 -0.0000 0.7071
s 0
f 9//1 12//1 30//1 31//1
f 25//2 24//2 1//2 2//2
f 26//3 25//3 2//3 3//3
f 24//4 23//4 1//4
f 22//5 26//5 16//5 27//5
f 2//6 1//6 4//6 5//6
f 3//7 2//7 5//7 6//7
f 1//8 23//8 4//8
f 12//9 15//9 29//9 30//9
f 5//10 4//10 7//10 8//10
f 6//11 5//11 8//11 9//11
f 4//12 23//12 7//12
f 6//13 9//13 31//13 32//13
f 8//14 7//14 10//14 11//14
f 9//15 8//15 11//15 12//15
f 7//16 23//16 10//16
f 15//17 19//17 28//17 29//17
f 11//18 10//18 13//18 14//18
f 12//19 11//19 14//19 15//19
f 10//20 23//20 13//20
f 13//21 23//21 17//21
f 3//22 6//22 32//22 33//22
f 14//23 13//23 17//23 18//23
f 15//24 14//24 18//24 19//24
f 19//25 18//25 21//25 22//25
f 17//26 23//26 20//26
f 26//27 3//27 33//27 16//27
f 18//28 17//28 20//28 21//28
f 22//29 21//29 25//29 26//29
f 20//30 23//30 24//30
f 19//31 22//31 27//31 28//31
f 21//32 20//32 24//32 25//32
f 64//33 65//33 37//33 36//33
f 36//33 37//33 38//33
f 35//33 34//33 39//33
f 66//33 67//33 43//33 42//33
f 42//33 43//33 44//33
f 41//33 40//33 45//33
f 49//34 56//34 55//34 48//34
f 51//35 53//35 54//35
f 47//36 49//36 50//36 52//36
f 46//37 47//37 52//37 53//37
f 48//38 46//38 53//38 51//38
f 49//34 48//34 51//34 50//34
f 53//39 52//39 54//39
f 52//40 50//40 54//40
f 50//41 51//41 54//41
f 60//42 62//42 63//42
f 56//43 58//43 59//43 61//43
f 55//34 56//34 61//34 62//34
f 57//44 55//44 62//44 60//44
f 58//37 57//37 60//37 59//37
f 62//45 61//45 63//45
f 61//46 59//46 63//46
f 59//47 60//47 63//47
f 48//48 55//48 57//48 46//48
f 47//49 58//49 56//49 49//49
f 34//33 35//33 65//33 64//33
f 40//33 41//33 67//33 66//33
f 37//33 65//33 66//33 42//33
f 43//50 67//50 69//50 68//50
f 68//51 69//51 70//51 71//51
f 71//52 70//52 72//52 73//52
f 74//53 77//53 76//53 75//53
f 77//54 79//54 78//54 76//54
f 64//55 36//55 74//55 75//55
f 80//56 82//56 83//56 81//56
f 82//57 84//57 85//57 83//57
f 84//58 86//58 87//58 85//58
f 86//59 88//59 89//59 87//59
f 88//60 90//60 91//60 89//60
f 90//61 92//61 93//61 91//61
f 92//62 94//62 95//62 93//62
f 94//63 80//63 81//63 95//63
f 80//49 94//49 92//49 90//49 88//49 86//49 84//49 82//49
f 95//64 108//64 107//64 93//64
f 85//65 103//65 102//65 83//65
f 99//66 100//66 113//66 112//66
f 98//67 99//67 112//67 111//67
f 106//48 105//48 111//48 112//48
f 104//48 103//48 109//48 110//48
f 107//48 106//48 112//48 113//48
f 105//48 104//48 110//48 111//48
f 85//68 96//68 109//68 103//68
f 81//69 101//69 108//69 95//69
f 83//70 102//70 101//70 81//70
f 96//71 97//71 110//71 109//71
f 100//72 93//72 107//72 113//72
f 97//73 98//73 111//73 110//73
f 93//49 100//49 99//49 91//49
f 91//49 99//49 98//49 89//49
f 89//49 98//49 97//49 87//49
f 87//49 97//49 96//49 85//49
f 102//48 103//48 104//48 105//48 106//48 107//48 108//48 101//48
f 115//48 114//48 121//48 120//48 119//48 118//48 117//48 116//48
f 122//74 124//74 125//74 123//74
f 124//75 126//75 127//75 125//75
f 125//48 127//48 129//48 123//48
f 126//76 128//76 129//76 127//76
f 128//77 122//77 123//77 129//77
f 122//49 128//49 126//49 124//49
