# Blender 3.6.2
# www.blender.org
o gunner_body.002
v 0.000203 0.129860 -0.077019 0.1608 0.0745 0.0000
v 0.077222 0.129860 -0.000000 0.1608 0.0745 0.0000
v 0.000203 0.129860 0.077019 0.1608 0.0745 0.0000
v -0.076815 0.129860 -0.000000 0.1608 0.0745 0.0000
v 0.000203 -0.132200 -0.077019 0.1608 0.0745 0.0000
v 0.077222 -0.132200 -0.000000 0.1608 0.0745 0.0000
v 0.000203 -0.132200 0.077019 0.1608 0.0745 0.0000
v -0.076816 -0.132200 -0.000000 0.1608 0.0745 0.0000
v 0.000203 0.129860 -0.077019 1.0000 0.0000 0.0000
v 0.077222 0.129860 -0.000000 1.0000 0.0000 0.0000
v 0.000203 0.129860 0.077019 1.0000 0.0000 0.0000
v -0.076815 0.129860 -0.000000 1.0000 0.0000 0.0000
v 0.000203 -0.132200 -0.077019 1.0000 0.0000 0.0000
v 0.077222 -0.132200 -0.000000 1.0000 0.0000 0.0000
v 0.000203 -0.132200 0.077019 1.0000 0.0000 0.0000
v -0.076816 -0.132200 -0.000000 1.0000 0.0000 0.0000
v 0.000000 -0.179632 -0.033465 1.0000 1.0000 1.0000
v 0.000000 0.179632 -0.033465 1.0000 1.0000 1.0000
v 0.033465 -0.179632 0.000000 1.0000 1.0000 1.0000
v 0.033465 0.179632 0.000000 1.0000 1.0000 1.0000
v 0.000000 -0.179632 0.033465 1.0000 1.0000 1.0000
v 0.000000 0.179632 0.033465 1.0000 1.0000 1.0000
v -0.033465 -0.179632 0.000000 1.0000 1.0000 1.0000
v -0.033465 0.179632 0.000000 1.0000 1.0000 1.0000
vn 0.7071 -0.0000 -0.7071
vn 0.7071 -0.0000 0.7071
vn -0.7071 -0.0000 0.7071
vn -0.7071 -0.0000 -0.7071
vn -0.0000 1.0000 -0.0000
vn -0.0000 -1.0000 -0.0000
s 0
f 5//1 1//1 2//1 6//1
f 6//2 2//2 3//2 7//2
f 7//3 3//3 4//3 8//3
f 8//4 4//4 1//4 5//4
f 10//5 9//5 12//5 11//5
f 16//6 13//6 14//6 15//6
f 17//1 18//1 20//1 19//1
f 19//2 20//2 22//2 21//2
f 20//5 18//5 24//5 22//5
f 21//3 22//3 24//3 23//3
f 23//4 24//4 18//4 17//4
f 17//6 19//6 21//6 23//6
