# Blender 4.0.1
# www.blender.org
o gunner_body.001
v -0.294099 -0.388564 -0.176321 0.2353 0.1059 0.0118
v -0.294099 -0.393518 0.184090 0.2353 0.1059 0.0118
v -0.409507 -0.386853 0.104739 0.2353 0.1059 0.0118
v -0.417423 -0.391793 -0.104084 0.2353 0.1059 0.0118
v 0.283274 -0.388564 -0.176321 0.2353 0.1059 0.0118
v 0.283274 -0.393518 0.184090 0.2353 0.1059 0.0118
v 0.398682 -0.386853 0.104739 0.2353 0.1059 0.0118
v 0.406598 -0.391793 -0.104084 0.2353 0.1059 0.0118
v -0.402596 -0.243149 -0.098894 0.2353 0.1059 0.0118
v -0.402596 -0.243149 0.101431 0.2353 0.1059 0.0118
v -0.275060 -0.243149 0.201593 0.2353 0.1059 0.0118
v -0.275060 -0.243149 -0.199056 0.2353 0.1059 0.0118
v 0.272625 -0.243149 -0.199056 0.2353 0.1059 0.0118
v 0.272625 -0.243149 0.201593 0.2353 0.1059 0.0118
v 0.400162 -0.243149 0.101431 0.2353 0.1059 0.0118
v 0.400162 -0.243149 -0.098894 0.2353 0.1059 0.0118
v -0.250940 0.245294 -0.083750 0.2353 0.1059 0.0118
v -0.248231 0.245029 0.075574 0.2353 0.1059 0.0118
v -0.146631 0.275595 0.117785 0.2353 0.1059 0.0118
v -0.147714 0.264199 -0.100176 0.2353 0.1059 0.0118
v 0.147862 0.264199 -0.108270 0.2353 0.1059 0.0118
v 0.146779 0.275595 0.117785 0.2353 0.1059 0.0118
v 0.248378 0.245029 0.075574 0.2353 0.1059 0.0118
v 0.251087 0.245294 -0.083750 0.2353 0.1059 0.0118
v -0.240276 0.326856 -0.087828 0.2353 0.1059 0.0118
v -0.248231 0.327633 0.107128 0.2353 0.1059 0.0118
v 0.248378 0.327633 0.107128 0.2353 0.1059 0.0118
v 0.240423 0.326856 -0.087828 0.2353 0.1059 0.0118
v -0.253764 0.404076 -0.073891 0.2353 0.1059 0.0118
v -0.248231 0.403537 0.058439 0.2353 0.1059 0.0118
v 0.250454 0.403251 0.055581 0.2353 0.1059 0.0118
v 0.145409 0.397488 -0.085029 0.2353 0.1059 0.0118
v -0.164654 0.375638 0.102967 0.2353 0.1059 0.0118
v -0.145262 0.397488 -0.085029 0.2353 0.1059 0.0118
v 0.166378 0.375638 0.102967 0.2353 0.1059 0.0118
v -0.098034 0.404674 -0.027124 0.2353 0.1059 0.0118
v -0.098034 0.404674 0.038602 0.2353 0.1059 0.0118
v -0.040102 0.404674 0.085077 0.2353 0.1059 0.0118
v 0.099758 0.404674 0.038602 0.2353 0.1059 0.0118
v 0.041826 0.404674 -0.073598 0.2353 0.1059 0.0118
v -0.040102 0.404674 -0.073598 0.2353 0.1059 0.0118
v 0.041826 0.404674 0.085077 0.2353 0.1059 0.0118
v 0.099759 0.404674 -0.027124 0.2353 0.1059 0.0118
v 0.264879 0.403196 -0.054598 0.2353 0.1059 0.0118
v 0.289379 0.154092 -0.080792 0.2353 0.1059 0.0118
v 0.184936 0.169625 -0.146117 0.2353 0.1059 0.0118
v -0.184658 0.169625 -0.146117 0.2353 0.1059 0.0118
v -0.289101 0.154092 -0.080792 0.2353 0.1059 0.0118
v -0.286376 0.153874 0.067880 0.2353 0.1059 0.0118
v -0.183569 0.169559 0.149130 0.2353 0.1059 0.0118
v 0.286654 0.153874 0.067880 0.2353 0.1059 0.0118
v 0.183847 0.169559 0.149130 0.2353 0.1059 0.0118
v 0.352521 -0.012649 -0.097558 0.2353 0.1059 0.0118
v -0.225378 0.001822 -0.191930 0.2353 0.1059 0.0118
v -0.350063 -0.012852 0.095427 0.2353 0.1059 0.0118
v 0.350278 -0.012852 0.095427 0.2353 0.1059 0.0118
v 0.224696 0.001760 0.194283 0.2353 0.1059 0.0118
v 0.225593 0.001822 -0.191930 0.2353 0.1059 0.0118
v -0.352306 -0.012649 -0.097558 0.2353 0.1059 0.0118
v -0.224481 0.001760 0.194283 0.2353 0.1059 0.0118
v 0.162562 0.237082 -0.118633 0.2353 0.1059 0.0118
v -0.254386 0.222218 -0.079506 0.2353 0.1059 0.0118
v -0.161340 0.237018 0.130406 0.2353 0.1059 0.0118
v 0.254534 0.222218 -0.084674 0.2353 0.1059 0.0118
v -0.162414 0.237082 -0.109311 0.2353 0.1059 0.0118
v -0.251699 0.222010 0.061983 0.2353 0.1059 0.0118
v 0.251846 0.222010 0.061983 0.2353 0.1059 0.0118
v 0.161488 0.237018 0.130407 0.2353 0.1059 0.0118
v -0.294099 -0.388564 -0.176321 1.0000 0.0000 0.0000
v -0.294099 -0.393518 0.184090 1.0000 0.0000 0.0000
v -0.409507 -0.386853 0.104739 1.0000 0.0000 0.0000
v -0.417423 -0.391793 -0.104084 1.0000 0.0000 0.0000
v 0.283274 -0.388564 -0.176321 1.0000 0.0000 0.0000
v 0.283274 -0.393518 0.184090 1.0000 0.0000 0.0000
v 0.398682 -0.386853 0.104739 1.0000 0.0000 0.0000
v 0.406598 -0.391793 -0.104084 1.0000 0.0000 0.0000
v 0.248378 0.245029 0.075574 1.0000 0.0000 0.0000
v 0.251087 0.245294 -0.083750 1.0000 0.0000 0.0000
v 0.248378 0.327633 0.107128 1.0000 0.0000 0.0000
v 0.240423 0.326856 -0.087828 1.0000 0.0000 0.0000
v 0.250454 0.403251 0.055581 1.0000 0.0000 0.0000
v 0.264879 0.403196 -0.054598 1.0000 0.0000 0.0000
v -0.250940 0.245294 -0.083750 1.0000 0.0000 0.0000
v -0.248231 0.245029 0.075574 1.0000 0.0000 0.0000
v -0.240276 0.326856 -0.087828 1.0000 0.0000 0.0000
v -0.248231 0.327633 0.107128 1.0000 0.0000 0.0000
v -0.253764 0.404076 -0.073891 1.0000 0.0000 0.0000
v -0.248231 0.403537 0.058439 1.0000 0.0000 0.0000
v -0.098034 0.404674 -0.027124 1.0000 0.0000 0.0000
v -0.098034 0.404674 0.038602 1.0000 0.0000 0.0000
v -0.040102 0.404674 0.085077 1.0000 0.0000 0.0000
v 0.099758 0.404674 0.038602 1.0000 0.0000 0.0000
v 0.041826 0.404674 -0.073598 1.0000 0.0000 0.0000
v -0.040102 0.404674 -0.073598 1.0000 0.0000 0.0000
v 0.041826 0.404674 0.085077 1.0000 0.0000 0.0000
v 0.099759 0.404674 -0.027124 1.0000 0.0000 0.0000
v -0.288778 0.322204 0.037323 1.0000 1.0000 1.0000
v -0.288778 0.361160 -0.001633 1.0000 1.0000 1.0000
v -0.288778 0.283248 -0.001633 1.0000 1.0000 1.0000
v -0.288778 0.322204 -0.040590 1.0000 1.0000 1.0000
v -0.233685 0.322204 0.037323 1.0000 1.0000 1.0000
v -0.233685 0.361160 -0.001633 1.0000 1.0000 1.0000
v -0.233685 0.283248 -0.001633 1.0000 1.0000 1.0000
v -0.233685 0.322204 -0.040590 1.0000 1.0000 1.0000
v 0.229252 0.322204 0.037323 1.0000 1.0000 1.0000
v 0.229252 0.361160 -0.001633 1.0000 1.0000 1.0000
v 0.229252 0.283248 -0.001633 1.0000 1.0000 1.0000
v 0.229252 0.322204 -0.040590 1.0000 1.0000 1.0000
v 0.284345 0.322204 0.037323 1.0000 1.0000 1.0000
v 0.284345 0.361160 -0.001633 1.0000 1.0000 1.0000
v 0.284345 0.283248 -0.001633 1.0000 1.0000 1.0000
v 0.284345 0.322204 -0.040590 1.0000 1.0000 1.0000
v 0.001056 0.384701 0.045367 1.0000 1.0000 1.0000
v -0.037900 0.384701 0.006411 1.0000 1.0000 1.0000
v 0.040013 0.384701 0.006411 1.0000 1.0000 1.0000
v 0.001056 0.384701 -0.032546 1.0000 1.0000 1.0000
v 0.001056 0.439794 0.045367 1.0000 1.0000 1.0000
v -0.037900 0.439794 0.006411 1.0000 1.0000 1.0000
v 0.040013 0.439794 0.006411 1.0000 1.0000 1.0000
v 0.001056 0.439794 -0.032546 1.0000 1.0000 1.0000
vn -0.9981 0.0488 0.0367
vn -0.9951 0.0993 -0.0000
vn -0.0000 -0.1545 -0.9880
vn 0.5011 -0.0977 -0.8599
vn 0.6167 0.0541 -0.7853
vn -0.5054 0.0804 -0.8592
vn -0.6171 -0.0421 -0.7858
vn 0.5660 0.0131 0.8243
vn 0.6169 -0.0478 0.7856
vn -0.5673 -0.0240 0.8231
vn -0.6169 0.0478 0.7856
vn 0.9984 0.0419 0.0369
vn 0.9999 -0.0103 -0.0000
vn 0.3699 0.4998 -0.7831
vn 0.2435 0.0751 -0.9670
vn -0.0258 0.3317 -0.9430
vn -0.0269 0.3441 -0.9386
vn -0.2863 -0.1318 -0.9490
vn -0.2166 0.4151 -0.8836
vn -0.5864 0.4450 0.6768
vn -0.2130 -0.4728 0.8551
vn 0.9890 0.1470 0.0183
vn 0.9901 0.1391 0.0171
vn -0.0000 -0.1156 0.9933
vn -0.9903 0.1380 0.0190
vn -0.9884 0.1508 0.0171
vn 0.5192 -0.3752 0.7679
vn 0.4536 0.4286 0.7814
vn 0.2278 -0.0189 -0.9735
vn 0.0995 0.1727 -0.9799
vn -0.1518 -0.0295 -0.9880
vn -0.0553 0.1137 -0.9920
vn -0.0911 0.1614 -0.9827
vn -0.2703 -0.3436 0.8994
vn 0.2703 -0.3436 0.8994
vn 0.0319 0.1403 0.9896
vn -0.0317 0.1409 0.9895
vn -0.2591 0.5215 0.8130
vn 0.2736 0.5366 0.7982
vn -0.0000 0.1129 -0.9936
vn -0.0270 0.1712 -0.9849
vn -0.0000 0.8466 -0.5322
vn -0.0599 0.9954 -0.0747
vn 0.0437 0.9865 -0.1580
vn -0.0038 1.0000 -0.0000
vn -0.0070 1.0000 0.0044
vn 0.0535 0.8883 0.4561
vn -0.1885 0.9535 0.2350
vn -0.0000 0.0298 0.9996
vn 0.1885 0.9535 0.2350
vn -0.0419 0.8938 0.4465
vn -0.0133 0.9910 -0.1335
vn 0.0094 1.0000 0.0007
vn 0.0607 0.9953 -0.0757
vn 0.0089 1.0000 -0.0000
vn 0.2182 0.3299 -0.9185
vn 0.6044 0.3490 0.7162
vn 0.6144 0.3410 0.7115
vn -0.9335 0.3584 0.0112
vn -0.9355 0.3528 0.0177
vn -0.0000 0.3110 0.9504
vn 0.9355 0.3531 0.0112
vn 0.9332 0.3590 0.0176
vn -0.6056 0.3411 0.7189
vn -0.6130 0.3511 0.7078
vn -0.5910 0.2994 -0.7490
vn -0.5344 0.3408 -0.7734
vn -0.0000 0.2634 -0.9647
vn 0.5854 0.3425 -0.7349
vn 0.5385 0.2837 -0.7935
vn 0.6116 0.1401 -0.7787
vn 0.6011 0.1288 -0.7887
vn -0.0000 0.0291 -0.9996
vn -0.6117 0.1380 -0.7789
vn -0.6010 0.1447 -0.7861
vn -0.6107 0.1493 0.7776
vn -0.6219 0.1618 0.7662
vn 0.9793 0.2024 -0.0000
vn 0.9772 0.2120 0.0116
vn -0.9750 0.2224 -0.0000
vn -0.9770 0.2131 0.0116
vn 0.6104 0.1525 0.7773
vn 0.6224 0.1448 0.7692
vn -0.0000 0.5246 0.8514
vn -0.0000 0.2598 0.9657
vn -0.0000 0.1465 0.9892
vn 0.6098 0.3721 0.6998
vn 0.5959 0.3920 0.7009
vn -0.8905 0.4547 0.0170
vn -0.8910 0.4537 0.0176
vn -0.0000 0.2674 0.9636
vn 0.8898 0.4561 0.0170
vn 0.8898 0.4560 0.0170
vn -0.6065 0.3919 0.6918
vn -0.5996 0.3667 0.7114
vn -0.5382 0.2892 -0.7917
vn -0.3375 0.5342 -0.7751
vn -0.0251 0.4852 -0.8741
vn -0.0000 0.3773 -0.9261
vn 0.5182 0.4645 -0.7181
vn 0.3621 0.1326 -0.9226
vn 0.0038 -1.0000 -0.0076
vn 0.9981 -0.0205 -0.0589
vn -0.9987 -0.0056 -0.0514
vn -0.0000 1.0000 -0.0000
vn -1.0000 -0.0000 -0.0000
vn -0.0000 -0.7071 -0.7071
vn 1.0000 -0.0000 -0.0000
vn -0.0000 0.7071 0.7071
vn -0.0000 -0.7071 0.7071
vn -0.0000 0.7071 -0.7071
vn -0.0000 -1.0000 -0.0000
vn 0.7071 -0.0000 -0.7071
vn -0.7071 -0.0000 0.7071
vn 0.7071 -0.0000 0.7071
vn -0.7071 -0.0000 -0.7071
vn -0.0391 -0.9990 0.0222
vn -0.0000 -0.9965 -0.0837
vn -0.0757 -0.9968 0.0265
vn -0.0000 -0.9990 -0.0447
vn 0.0099 -0.9999 0.0020
vn 0.9286 -0.3505 0.1218
vn 0.9996 -0.0099 0.0258
vn 0.9913 0.1305 0.0171
vn -0.9830 -0.1790 0.0404
vn -0.9913 0.1305 0.0171
s 0
f 4//1 3//1 10//1
f 4//2 10//2 9//2
f 1//3 12//3 13//3
f 1//3 13//3 5//3
f 8//4 5//4 13//4
f 8//5 13//5 16//5
f 1//6 4//6 9//6
f 1//7 9//7 12//7
f 6//8 7//8 15//8
f 6//9 15//9 14//9
f 3//10 2//10 11//10
f 3//11 11//11 10//11
f 7//12 8//12 16//12
f 7//13 16//13 15//13
f 64//14 61//14 21//14
f 64//15 21//15 24//15
f 65//16 20//16 21//16
f 65//17 21//17 61//17
f 65//18 62//18 17//18
f 65//19 17//19 20//19
f 66//20 63//20 19//20
f 66//21 19//21 18//21
f 67//22 64//22 24//22
f 67//23 24//23 23//23
f 14//24 11//24 2//24
f 14//24 2//24 6//24
f 62//25 66//25 18//25
f 62//26 18//26 17//26
f 68//27 67//27 23//27
f 68//28 23//28 22//28
f 24//29 21//29 28//29
f 28//30 21//30 32//30
f 17//31 25//31 20//31
f 34//32 20//32 25//32
f 25//33 29//33 34//33
f 19//34 26//34 18//34
f 23//35 27//35 22//35
f 35//36 22//36 27//36
f 19//37 33//37 26//37
f 26//38 33//38 30//38
f 27//39 31//39 35//39
f 20//40 34//40 32//40
f 20//41 32//41 21//41
f 32//42 34//42 41//42
f 32//42 41//42 40//42
f 41//43 34//43 36//43
f 34//44 29//44 36//44
f 36//45 29//45 37//45
f 29//46 30//46 37//46
f 33//47 37//47 30//47
f 37//48 33//48 38//48
f 57//49 60//49 11//49
f 57//49 11//49 14//49
f 42//50 35//50 39//50
f 35//51 31//51 39//51
f 32//52 43//52 44//52
f 44//53 39//53 31//53
f 40//54 43//54 32//54
f 44//55 43//55 39//55
f 28//56 32//56 44//56
f 57//57 56//57 51//57
f 57//58 51//58 52//58
f 59//59 55//59 49//59
f 59//60 49//60 48//60
f 63//61 68//61 22//61
f 63//61 22//61 19//61
f 56//62 53//62 45//62
f 56//63 45//63 51//63
f 55//64 60//64 50//64
f 55//65 50//65 49//65
f 54//66 59//66 48//66
f 54//67 48//67 47//67
f 54//68 47//68 46//68
f 54//68 46//68 58//68
f 53//69 58//69 46//69
f 53//70 46//70 45//70
f 16//71 13//71 58//71
f 16//72 58//72 53//72
f 12//73 54//73 58//73
f 12//73 58//73 13//73
f 12//74 9//74 59//74
f 12//75 59//75 54//75
f 10//76 11//76 60//76
f 10//77 60//77 55//77
f 15//78 16//78 53//78
f 15//79 53//79 56//79
f 9//80 10//80 55//80
f 9//81 55//81 59//81
f 14//82 15//82 56//82
f 14//83 56//83 57//83
f 38//84 33//84 35//84
f 38//84 35//84 42//84
f 60//85 57//85 52//85
f 60//85 52//85 50//85
f 35//86 33//86 19//86
f 35//86 19//86 22//86
f 52//87 51//87 67//87
f 52//88 67//88 68//88
f 48//89 49//89 66//89
f 48//90 66//90 62//90
f 68//91 63//91 50//91
f 68//91 50//91 52//91
f 51//92 45//92 64//92
f 51//93 64//93 67//93
f 49//94 50//94 63//94
f 49//95 63//95 66//95
f 47//96 48//96 62//96
f 47//97 62//97 65//97
f 47//98 65//98 61//98
f 47//99 61//99 46//99
f 45//100 46//100 61//100
f 45//101 61//101 64//101
f 70//102 72//102 73//102
f 81//103 77//103 80//103
f 88//104 85//104 84//104
f 94//105 90//105 95//105
f 98//106 99//106 97//106
f 100//107 103//107 99//107
f 103//108 102//108 101//108
f 102//109 97//109 101//109
f 103//110 97//110 99//110
f 100//111 102//111 104//111
f 106//106 107//106 105//106
f 108//107 111//107 107//107
f 111//108 110//108 109//108
f 110//109 105//109 109//109
f 111//110 105//110 107//110
f 108//111 110//111 112//111
f 114//112 115//112 113//112
f 116//113 119//113 115//113
f 119//105 118//105 117//105
f 118//114 113//114 117//114
f 119//115 113//115 115//115
f 116//116 118//116 120//116
f 73//117 76//117 75//117
f 75//118 74//118 70//118
f 70//119 71//119 72//119
f 72//120 69//120 73//120
f 73//121 75//121 70//121
f 80//122 82//122 81//122
f 81//123 79//123 77//123
f 77//124 78//124 80//124
f 84//106 86//106 88//106
f 88//125 87//125 85//125
f 85//126 83//126 84//126
f 95//105 92//105 96//105
f 96//105 93//105 94//105
f 94//105 89//105 90//105
f 90//105 91//105 95//105
f 95//105 96//105 94//105
f 98//106 100//106 99//106
f 100//107 104//107 103//107
f 103//108 104//108 102//108
f 102//109 98//109 97//109
f 103//110 101//110 97//110
f 100//111 98//111 102//111
f 106//106 108//106 107//106
f 108//107 112//107 111//107
f 111//108 112//108 110//108
f 110//109 106//109 105//109
f 111//110 109//110 105//110
f 108//111 106//111 110//111
f 114//112 116//112 115//112
f 116//113 120//113 119//113
f 119//105 120//105 118//105
f 118//114 114//114 113//114
f 119//115 117//115 113//115
f 116//116 114//116 118//116
