# Blender 3.6.2
# www.blender.org
o gunner_body.002
v -0.000000 -0.367177 -0.427632 0.2353 0.1059 0.0039
v -0.000000 0.534187 -0.158306 0.2353 0.1059 0.0039
v 0.398728 -0.367177 -0.302382 0.2353 0.1059 0.0039
v 0.181486 0.534187 -0.111939 0.2353 0.1059 0.0039
v 0.563887 -0.367177 -0.000000 0.2353 0.1059 0.0039
v 0.256660 0.534187 0.000000 0.2353 0.1059 0.0039
v 0.398728 -0.367177 0.302382 0.2353 0.1059 0.0039
v 0.181486 0.534187 0.111939 0.2353 0.1059 0.0039
v -0.000000 -0.367177 0.427632 0.2353 0.1059 0.0039
v -0.000000 0.534187 0.158306 0.2353 0.1059 0.0039
v -0.398728 -0.367177 0.302382 0.2353 0.1059 0.0039
v -0.181486 0.534187 0.111939 0.2353 0.1059 0.0039
v -0.563887 -0.367177 -0.000000 0.2353 0.1059 0.0039
v -0.256660 0.534187 0.000000 0.2353 0.1059 0.0039
v -0.398728 -0.367177 -0.302382 0.2353 0.1059 0.0039
v -0.181486 0.534187 -0.111939 0.2353 0.1059 0.0039
v -0.000000 0.131420 -0.351197 0.2353 0.1059 0.0039
v 0.327459 0.131420 -0.248334 0.2353 0.1059 0.0039
v 0.463097 0.131420 0.000000 0.2353 0.1059 0.0039
v 0.327459 0.131420 0.248334 0.2353 0.1059 0.0039
v -0.000000 0.131420 0.351197 0.2353 0.1059 0.0039
v -0.327459 0.131420 0.248334 0.2353 0.1059 0.0039
v -0.463097 0.131420 0.000000 0.2353 0.1059 0.0039
v -0.327459 0.131420 -0.248334 0.2353 0.1059 0.0039
vn 0.2572 0.4052 -0.8773
vn 0.7832 0.4202 -0.4583
vn 0.7832 0.4202 0.4583
vn 0.2572 0.4052 0.8773
vn -0.2572 0.4052 0.8773
vn -0.7832 0.4202 0.4583
vn -0.0000 1.0000 -0.0000
vn -0.7832 0.4202 -0.4583
vn -0.2572 0.4052 -0.8773
vn -0.0000 -1.0000 -0.0000
vn -0.2965 0.1447 -0.9440
vn -0.8641 0.1747 -0.4720
vn -0.8641 0.1747 0.4720
vn -0.2965 0.1447 0.9440
vn 0.2965 0.1447 0.9440
vn 0.8641 0.1747 0.4720
vn 0.8641 0.1747 -0.4720
vn 0.2965 0.1447 -0.9440
s 0
f 17//1 2//1 4//1 18//1
f 18//2 4//2 6//2 19//2
f 19//3 6//3 8//3 20//3
f 20//4 8//4 10//4 21//4
f 21//5 10//5 12//5 22//5
f 22//6 12//6 14//6 23//6
f 4//7 2//7 16//7 14//7 12//7 10//7 8//7 6//7
f 23//8 14//8 16//8 24//8
f 24//9 16//9 2//9 17//9
f 1//10 3//10 5//10 7//10 9//10 11//10 13//10 15//10
f 15//11 24//11 17//11 1//11
f 13//12 23//12 24//12 15//12
f 11//13 22//13 23//13 13//13
f 9//14 21//14 22//14 11//14
f 7//15 20//15 21//15 9//15
f 5//16 19//16 20//16 7//16
f 3//17 18//17 19//17 5//17
f 1//18 17//18 18//18 3//18
