# Blender 4.0.1
# www.blender.org
o gunner_body.001
v 0.193432 -0.075939 -0.083750 0.2353 0.1059 0.0118
v 0.196141 -0.076204 0.069382 0.2353 0.1059 0.0118
v 0.204096 0.005623 -0.087828 0.2353 0.1059 0.0118
v 0.196141 0.006400 0.083617 0.2353 0.1059 0.0118
v 0.190608 0.082843 -0.073891 0.2353 0.1059 0.0118
v 0.196141 0.082303 0.058439 0.2353 0.1059 0.0118
v -0.199708 -0.048844 -0.050343 0.2353 0.1059 0.0118
v -0.198756 -0.048957 0.049180 0.2353 0.1059 0.0118
v -0.199708 0.005071 -0.059165 0.2353 0.1059 0.0118
v -0.198756 0.005055 0.069811 0.2353 0.1059 0.0118
v -0.199708 0.058977 -0.039159 0.2353 0.1059 0.0118
v -0.198756 0.059059 0.037976 0.2353 0.1059 0.0118
v 0.196141 -0.076204 0.069382 1.0000 0.0000 0.0000
v 0.204096 0.005623 -0.087828 1.0000 0.0000 0.0000
v 0.193432 -0.075939 -0.083750 1.0000 0.0000 0.0000
v 0.190608 0.082843 -0.073891 1.0000 0.0000 0.0000
v 0.196141 0.082303 0.058439 1.0000 0.0000 0.0000
v 0.196141 0.006400 0.083617 1.0000 0.0000 0.0000
v 0.012835 0.072342 -0.055470 0.2353 0.1059 0.0118
v 0.021149 0.005469 -0.071269 0.2353 0.1059 0.0118
v 0.031747 -0.060560 0.060587 0.2353 0.1059 0.0118
v 0.031747 0.072331 0.046803 0.2353 0.1059 0.0118
v 0.031747 0.005890 0.085970 0.2353 0.1059 0.0118
v 0.014576 -0.060176 -0.065386 0.2353 0.1059 0.0118
v -0.199708 -0.048844 -0.050343 1.0000 0.0000 0.0000
v -0.199708 0.005071 -0.059165 1.0000 0.0000 0.0000
v -0.199708 0.058977 -0.039159 1.0000 0.0000 0.0000
v -0.198756 -0.048957 0.049180 1.0000 0.0000 0.0000
v -0.198756 0.005055 0.069811 1.0000 0.0000 0.0000
v -0.198756 0.059059 0.037976 1.0000 0.0000 0.0000
v 0.233798 0.033244 0.003756 1.0000 1.0000 1.0000
v 0.233798 0.004911 -0.024576 1.0000 1.0000 1.0000
v 0.233798 0.004911 0.032088 1.0000 1.0000 1.0000
v 0.233798 -0.023421 0.003756 1.0000 1.0000 1.0000
v 0.193730 0.033244 0.003756 1.0000 1.0000 1.0000
v 0.193730 0.004911 -0.024576 1.0000 1.0000 1.0000
v 0.193730 0.004911 0.032088 1.0000 1.0000 1.0000
v 0.193730 -0.023421 0.003756 1.0000 1.0000 1.0000
v -0.193372 0.029849 0.003756 1.0000 1.0000 1.0000
v -0.193372 0.004911 -0.021182 1.0000 1.0000 1.0000
v -0.193372 0.004911 0.028694 1.0000 1.0000 1.0000
v -0.193372 -0.020027 0.003756 1.0000 1.0000 1.0000
v -0.228640 0.029849 0.003756 1.0000 1.0000 1.0000
v -0.228640 0.004911 -0.021182 1.0000 1.0000 1.0000
v -0.228640 0.004911 0.028694 1.0000 1.0000 1.0000
v -0.228640 -0.020027 0.003756 1.0000 1.0000 1.0000
vn -0.0537 0.2233 -0.9733
vn -0.0934 0.3464 -0.9334
vn -0.0621 0.5069 0.8598
vn -0.0619 0.9980 0.0115
vn -0.0575 0.9983 -0.0003
vn 0.9986 0.0036 0.0524
vn -0.0505 -0.9987 0.0038
vn -0.0529 -0.9986 -0.0006
vn -0.0641 -0.3561 0.9322
vn -0.0741 -0.0816 -0.9939
vn -0.0537 -0.1613 -0.9854
vn -0.1052 -0.0359 -0.9938
vn -0.0898 -0.0800 -0.9927
vn 0.0146 -0.1698 0.9854
vn -0.0836 -0.3556 0.9309
vn -0.0947 -0.9955 -0.0000
vn -0.0869 -0.9962 0.0088
vn -0.0583 0.9983 0.0065
vn -0.0614 0.9981 0.0114
vn -0.0860 0.3137 0.9456
vn 0.0108 0.5078 0.8614
vn -0.0891 0.1618 -0.9828
vn -0.1132 0.2151 -0.9700
vn -1.0000 -0.0009 0.0083
vn 1.0000 -0.0000 -0.0000
vn -0.0000 -0.7071 0.7071
vn -1.0000 -0.0000 -0.0000
vn -0.0000 0.7071 -0.7071
vn -0.0000 0.7071 0.7071
vn -0.0000 -0.7071 -0.7071
vn 0.9913 -0.1305 -0.0178
vn 0.9830 0.1790 -0.0404
vn -0.9999 -0.0037 0.0096
vn -0.9999 0.0073 0.0123
s 0
f 19//1 20//1 9//1
f 19//2 9//2 11//2
f 23//3 22//3 12//3
f 23//3 12//3 10//3
f 22//4 19//4 11//4
f 22//5 11//5 12//5
f 13//6 14//6 17//6
f 24//7 21//7 8//7
f 24//8 8//8 7//8
f 21//9 23//9 10//9
f 21//9 10//9 8//9
f 20//10 24//10 7//10
f 20//11 7//11 9//11
f 3//12 1//12 24//12
f 3//13 24//13 20//13
f 2//14 4//14 23//14
f 2//15 23//15 21//15
f 1//16 2//16 21//16
f 1//17 21//17 24//17
f 6//18 5//18 19//18
f 6//19 19//19 22//19
f 4//20 6//20 22//20
f 4//21 22//21 23//21
f 5//22 3//22 20//22
f 5//23 20//23 19//23
f 29//24 27//24 25//24
f 31//25 34//25 32//25
f 37//26 34//26 33//26
f 35//27 38//27 37//27
f 31//28 36//28 35//28
f 31//29 37//29 33//29
f 36//30 34//30 38//30
f 39//25 42//25 40//25
f 45//26 42//26 41//26
f 43//27 46//27 45//27
f 39//28 44//28 43//28
f 39//29 45//29 41//29
f 44//30 42//30 46//30
f 17//25 18//25 13//25
f 13//31 15//31 14//31
f 14//32 16//32 17//32
f 25//33 28//33 29//33
f 29//34 30//34 27//34
f 27//27 26//27 25//27
f 31//25 33//25 34//25
f 37//26 38//26 34//26
f 35//27 36//27 38//27
f 31//28 32//28 36//28
f 31//29 35//29 37//29
f 36//30 32//30 34//30
f 39//25 41//25 42//25
f 45//26 46//26 42//26
f 43//27 44//27 46//27
f 39//28 40//28 44//28
f 39//29 43//29 45//29
f 44//30 40//30 42//30
