# Blender 4.0.1
# www.blender.org
o Cube
v 1.346709 -1.081974 -2.300728 0.3921 0.3921 0.3921
v 1.346709 0.240438 -2.300728 0.3921 0.3921 0.3921
v 0.985502 0.901645 -1.639521 0.3921 0.3921 0.3921
v 1.346709 -1.081974 2.849067 0.3921 0.3921 0.3921
v 1.346709 0.240438 2.849067 0.3921 0.3921 0.3921
v 0.985502 0.901645 2.258538 0.3921 0.3921 0.3921
v -1.568336 0.901645 -1.639521 0.3921 0.3921 0.3921
v -1.621700 -1.081974 -2.300728 0.3921 0.3921 0.3921
v -1.621700 0.240438 -2.300728 0.3921 0.3921 0.3921
v -1.314860 0.901645 1.983945 0.3921 0.3921 0.3921
v -1.231242 -1.081974 2.541339 0.3921 0.3921 0.3921
vn -0.0000 -0.0000 -1.0000
vn 0.8776 0.4794 -0.0000
vn -0.0000 -1.0000 -0.0000
vn 1.0000 -0.0000 -0.0000
vn -0.0000 1.0000 -0.0000
vn -0.0000 0.7071 -0.7071
vn -0.2416 0.2531 0.9368
vn -0.1185 -0.0000 0.9930
vn -0.0916 0.6350 0.7670
vn -0.9968 0.0001 0.0804
vn -0.9968 -0.0000 0.0804
vn -0.9973 -0.0224 0.0698
s 0
f 8//1 9//1 2//1 1//1
f 5//2 2//2 3//2 6//2
f 8//3 1//3 4//3 11//3
f 1//4 2//4 5//4 4//4
f 3//5 7//5 10//5 6//5
f 2//6 9//6 7//6 3//6
f 11//7 5//7 10//7
f 5//8 11//8 4//8
f 10//9 5//9 6//9
f 9//10 11//10 7//10
f 8//11 11//11 9//11
f 7//12 11//12 10//12
