# Blender 4.0.1
# www.blender.org
o Cylinder.002
v 0.264011 -0.721088 -1.750220 0.4157 0.4157 0.4157
v 0.264011 0.721088 -1.750220 0.4157 0.4157 0.4157
v 0.264011 -0.721088 2.144593 0.4157 0.4157 0.4157
v 0.264011 0.721089 2.144593 0.4157 0.4157 0.4157
v -0.876753 -0.721088 1.003828 0.4157 0.4157 0.4157
v -0.876753 0.721088 1.003828 0.4157 0.4157 0.4157
v -0.876753 -0.721088 -0.609456 0.4157 0.4157 0.4157
v -0.876753 0.721088 -0.609456 0.4157 0.4157 0.4157
v 1.225484 -0.721088 -0.788746 0.4157 0.4157 0.4157
v 1.225484 0.721088 -0.788747 0.4157 0.4157 0.4157
vn -0.7071 -0.0000 0.7071
vn -0.0000 1.0000 -0.0000
vn -1.0000 -0.0000 -0.0000
vn -0.7071 -0.0000 -0.7071
vn -0.0000 -1.0000 -0.0000
vn 0.7071 -0.0000 -0.7071
vn 0.9503 -0.0000 0.3115
s 0
f 3//1 4//1 6//1 5//1
f 2//2 8//2 6//2 4//2 10//2
f 5//3 6//3 8//3 7//3
f 7//4 8//4 2//4 1//4
f 1//5 9//5 3//5 5//5 7//5
f 2//6 10//6 9//6 1//6
f 3//7 9//7 10//7 4//7
