# Blender 4.0.1
# www.blender.org
o Cylinder.001
v -0.000012 0.190451 0.959155 0.3451 0.3451 0.3451
v 0.164846 0.095270 0.959155 0.3451 0.3451 0.3451
v -0.000013 0.225851 -1.013143 0.3451 0.3451 0.3451
v -0.000013 0.225851 0.826914 0.3451 0.3451 0.3451
v 0.195503 0.112970 -1.013143 0.3451 0.3451 0.3451
v 0.195502 0.112970 0.826913 0.3451 0.3451 0.3451
v 0.195503 -0.112792 -1.013143 0.3451 0.3451 0.3451
v 0.195502 -0.112792 0.826913 0.3451 0.3451 0.3451
v -0.000013 -0.225673 -1.013143 0.3451 0.3451 0.3451
v -0.000013 -0.225673 0.826914 0.3451 0.3451 0.3451
v -0.195528 -0.112792 -1.013143 0.3451 0.3451 0.3451
v -0.195529 -0.112792 0.826913 0.3451 0.3451 0.3451
v -0.195528 0.112970 -1.013143 0.3451 0.3451 0.3451
v -0.195529 0.112970 0.826913 0.3451 0.3451 0.3451
v 0.164846 -0.095093 0.959155 0.3451 0.3451 0.3451
v -0.000012 -0.190274 0.959155 0.3451 0.3451 0.3451
v -0.164872 -0.095093 0.959155 0.3451 0.3451 0.3451
v -0.164872 0.095270 0.959155 0.3451 0.3451 0.3451
v -0.286973 -0.165589 0.959155 0.3451 0.3451 0.3451
v -0.286974 -0.165588 0.826913 0.3451 0.3451 0.3451
v -0.000012 -0.331265 0.959155 0.3451 0.3451 0.3451
v -0.000013 -0.331265 0.826914 0.3451 0.3451 0.3451
v -0.000012 0.331442 0.959155 0.3451 0.3451 0.3451
v -0.286973 0.165765 0.959155 0.3451 0.3451 0.3451
v 0.286947 0.165766 0.826913 0.3451 0.3451 0.3451
v -0.000013 0.331442 0.826914 0.3451 0.3451 0.3451
v 0.286947 -0.165588 0.826913 0.3451 0.3451 0.3451
v 0.286947 -0.165588 0.959155 0.3451 0.3451 0.3451
v 0.286947 0.165765 0.959155 0.3451 0.3451 0.3451
v -0.286974 0.165766 0.826913 0.3451 0.3451 0.3451
v -0.000013 0.190451 0.297949 0.0000 0.0000 0.0000
v -0.164872 0.095270 0.297948 0.0000 0.0000 0.0000
v -0.164872 -0.095093 0.297948 0.0000 0.0000 0.0000
v -0.000013 -0.190274 0.297949 0.0000 0.0000 0.0000
v 0.164846 -0.095093 0.297949 0.0000 0.0000 0.0000
v 0.164846 0.095270 0.297949 0.0000 0.0000 0.0000
vn -0.0000 -0.0000 -1.0000
vn 0.5000 0.8660 -0.0000
vn 1.0000 -0.0000 -0.0000
vn 0.5000 -0.8660 -0.0000
vn -0.5000 -0.8660 -0.0000
vn -0.0000 -0.0000 1.0000
vn -1.0000 -0.0000 -0.0000
vn -0.5000 0.8660 -0.0000
s 0
f 10//1 8//1 27//1 22//1
f 3//2 4//2 6//2 5//2
f 14//1 12//1 20//1 30//1
f 5//3 6//3 8//3 7//3
f 4//1 14//1 30//1 26//1
f 7//4 8//4 10//4 9//4
f 6//1 4//1 26//1 25//1
f 9//5 10//5 12//5 11//5
f 15//6 16//6 21//6 28//6
f 1//6 2//6 29//6 23//6
f 11//7 12//7 14//7 13//7
f 13//8 14//8 4//8 3//8
f 15//7 2//7 36//7 35//7
f 27//3 25//3 29//3 28//3
f 30//7 20//7 19//7 24//7
f 20//5 22//5 21//5 19//5
f 22//4 27//4 28//4 21//4
f 26//8 30//8 24//8 23//8
f 25//2 26//2 23//2 29//2
f 18//6 1//6 23//6 24//6
f 2//6 15//6 28//6 29//6
f 16//6 17//6 19//6 21//6
f 17//6 18//6 24//6 19//6
f 12//1 10//1 22//1 20//1
f 8//1 6//1 25//1 27//1
f 36//6 31//6 32//6 33//6 34//6 35//6
f 2//5 1//5 31//5 36//5
f 1//4 18//4 32//4 31//4
f 17//2 16//2 34//2 33//2
f 18//3 17//3 33//3 32//3
f 16//8 15//8 35//8 34//8
f 3//1 5//1 7//1 9//1 11//1 13//1
