# Blender 4.0.1
# www.blender.org
o Cube.001
v 0.326789 -0.099368 0.055455 0.3529 0.3529 0.3529
v -0.334417 -0.099368 0.055455 0.3529 0.3529 0.3529
v 0.326789 0.475791 0.381624 0.3529 0.3529 0.3529
v -0.334417 0.475791 0.381624 0.3529 0.3529 0.3529
v 0.326789 0.480900 1.042811 0.3529 0.3529 0.3529
v -0.334417 0.480900 1.042811 0.3529 0.3529 0.3529
v 0.326789 -0.089150 1.377828 0.3529 0.3529 0.3529
v -0.334417 -0.089150 1.377828 0.3529 0.3529 0.3529
v 0.326789 -0.664310 1.051658 0.3529 0.3529 0.3529
v -0.334417 -0.664308 1.051658 0.3529 0.3529 0.3529
v 0.326789 -0.669418 0.390472 0.3529 0.3529 0.3529
v -0.334417 -0.669418 0.390472 0.3529 0.3529 0.3529
v 0.326789 0.611839 -3.713421 0.4196 0.4196 0.4196
v 0.326789 0.611839 -3.581180 0.4196 0.4196 0.4196
v -0.334417 0.611839 -3.713421 0.4196 0.4196 0.4196
v -0.334417 0.611839 -3.581180 0.4196 0.4196 0.4196
v 0.326789 -0.049368 -4.110145 0.4196 0.4196 0.4196
v 0.326789 -0.049368 -3.977903 0.4196 0.4196 0.4196
v -0.334417 -0.049368 -4.110145 0.4196 0.4196 0.4196
v -0.334417 -0.049368 -3.977903 0.4196 0.4196 0.4196
v 0.326789 -0.845815 -4.109145 0.4196 0.4196 0.4196
v 0.326789 -0.710574 -3.977903 0.4196 0.4196 0.4196
v -0.334417 -0.845815 -4.109145 0.4196 0.4196 0.4196
v -0.334417 -0.710574 -3.977903 0.4196 0.4196 0.4196
v -0.334417 -0.644452 3.780623 0.4196 0.4196 0.4196
v -0.334417 -0.836694 3.846744 0.4196 0.4196 0.4196
v 0.326789 -0.644452 3.780622 0.4196 0.4196 0.4196
v 0.326789 -0.836694 3.846743 0.4196 0.4196 0.4196
v 0.326789 0.677960 4.970794 0.4196 0.4196 0.4196
v 0.326789 0.677960 4.838552 0.4196 0.4196 0.4196
v -0.334417 0.677960 4.970794 0.4196 0.4196 0.4196
v -0.334417 0.677960 4.838552 0.4196 0.4196 0.4196
v 0.326789 -0.089150 1.377828 0.3529 0.3529 0.3529
v -0.334417 -0.089150 1.377828 0.3529 0.3529 0.3529
v 0.326789 0.486008 1.703998 0.3529 0.3529 0.3529
v -0.334417 0.486008 1.703997 0.3529 0.3529 0.3529
v 0.326789 0.491116 2.365184 0.3529 0.3529 0.3529
v -0.334417 0.491117 2.365184 0.3529 0.3529 0.3529
v 0.326789 -0.078934 2.700201 0.3529 0.3529 0.3529
v -0.334417 -0.078933 2.700201 0.3529 0.3529 0.3529
v 0.326789 -0.654092 2.374032 0.3529 0.3529 0.3529
v -0.334417 -0.654092 2.374032 0.3529 0.3529 0.3529
v 0.326789 -0.659200 1.712845 0.3529 0.3529 0.3529
v -0.334417 -0.659200 1.712845 0.3529 0.3529 0.3529
v 0.326789 -0.078934 2.700201 0.3529 0.3529 0.3529
v -0.334417 -0.078933 2.700201 0.3529 0.3529 0.3529
v 0.326789 0.496225 3.026370 0.3529 0.3529 0.3529
v -0.334417 0.496225 3.026370 0.3529 0.3529 0.3529
v 0.326789 0.501333 3.687557 0.3529 0.3529 0.3529
v -0.334417 0.501333 3.687557 0.3529 0.3529 0.3529
v 0.326789 -0.068717 4.022574 0.3529 0.3529 0.3529
v -0.334417 -0.068717 4.022574 0.3529 0.3529 0.3529
v 0.326789 -0.643876 3.696404 0.3529 0.3529 0.3529
v -0.334417 -0.643875 3.696404 0.3529 0.3529 0.3529
v 0.326789 -0.648984 3.035218 0.3529 0.3529 0.3529
v -0.334417 -0.648983 3.035218 0.3529 0.3529 0.3529
v 0.459030 0.413478 5.036915 0.3765 0.3765 0.3765
v 0.459030 0.347356 -3.911783 0.3765 0.3765 0.3765
v 0.459030 0.545719 5.036915 0.3765 0.3765 0.3765
v 0.459030 0.479597 -3.911783 0.3765 0.3765 0.3765
v -0.479924 0.413478 5.036915 0.3765 0.3765 0.3765
v -0.479924 0.545719 5.036915 0.3765 0.3765 0.3765
v -0.479924 0.347356 -3.911783 0.3765 0.3765 0.3765
v -0.479924 0.479597 -3.911783 0.3765 0.3765 0.3765
v 0.459030 1.206925 5.036915 0.3765 0.3765 0.3765
v 0.459030 1.140804 -3.250577 0.3765 0.3765 0.3765
v -0.479924 1.206925 5.036915 0.3765 0.3765 0.3765
v -0.479924 1.140804 -3.250577 0.3765 0.3765 0.3765
v 0.326789 -0.109584 -1.266918 0.3529 0.3529 0.3529
v -0.334417 -0.109584 -1.266918 0.3529 0.3529 0.3529
v 0.326789 0.465574 -0.940749 0.3529 0.3529 0.3529
v -0.334417 0.465574 -0.940749 0.3529 0.3529 0.3529
v 0.326789 0.470682 -0.279562 0.3529 0.3529 0.3529
v -0.334417 0.470683 -0.279562 0.3529 0.3529 0.3529
v 0.326789 -0.099368 0.055455 0.3529 0.3529 0.3529
v -0.334417 -0.099368 0.055455 0.3529 0.3529 0.3529
v 0.326789 -0.674526 -0.270714 0.3529 0.3529 0.3529
v -0.334417 -0.674526 -0.270714 0.3529 0.3529 0.3529
v 0.326789 -0.679635 -0.931901 0.3529 0.3529 0.3529
v -0.334417 -0.679634 -0.931901 0.3529 0.3529 0.3529
v 0.326789 -0.119801 -2.589291 0.3529 0.3529 0.3529
v -0.334417 -0.119801 -2.589291 0.3529 0.3529 0.3529
v 0.326789 0.455357 -2.263122 0.3529 0.3529 0.3529
v -0.334417 0.455358 -2.263122 0.3529 0.3529 0.3529
v 0.326789 0.460466 -1.601935 0.3529 0.3529 0.3529
v -0.334417 0.460466 -1.601935 0.3529 0.3529 0.3529
v 0.326789 -0.109584 -1.266918 0.3529 0.3529 0.3529
v -0.334417 -0.109584 -1.266918 0.3529 0.3529 0.3529
v 0.326789 -0.684743 -1.593088 0.3529 0.3529 0.3529
v -0.334417 -0.684743 -1.593088 0.3529 0.3529 0.3529
v 0.326789 -0.689851 -2.254274 0.3529 0.3529 0.3529
v -0.334417 -0.689851 -2.254274 0.3529 0.3529 0.3529
v 0.326789 -0.130017 -3.911664 0.3529 0.3529 0.3529
v -0.334417 -0.130017 -3.911664 0.3529 0.3529 0.3529
v 0.326789 0.445141 -3.585495 0.3529 0.3529 0.3529
v -0.334417 0.445141 -3.585495 0.3529 0.3529 0.3529
v 0.326789 0.450249 -2.924309 0.3529 0.3529 0.3529
v -0.334417 0.450249 -2.924309 0.3529 0.3529 0.3529
v 0.326789 -0.119801 -2.589291 0.3529 0.3529 0.3529
v -0.334417 -0.119801 -2.589291 0.3529 0.3529 0.3529
v 0.326789 -0.694959 -2.915462 0.3529 0.3529 0.3529
v -0.334417 -0.694959 -2.915462 0.3529 0.3529 0.3529
v 0.326789 -0.700068 -3.576647 0.3529 0.3529 0.3529
v -0.334417 -0.700067 -3.576647 0.3529 0.3529 0.3529
vn -0.0000 0.4933 -0.8699
vn -0.0000 1.0000 -0.0077
vn -0.0000 0.5067 0.8621
vn -0.0000 -0.4933 0.8699
vn -1.0000 -0.0000 -0.0000
vn -0.0000 -1.0000 0.0077
vn -0.0000 -0.5067 -0.8621
vn 1.0000 -0.0000 -0.0000
vn -0.0000 -0.0013 -1.0000
vn -0.0000 -0.5145 0.8575
vn -0.0000 0.5145 -0.8575
vn -0.0000 -0.0000 1.0000
vn -0.0000 -1.0000 0.0011
vn -0.0000 1.0000 -0.0085
vn -0.0000 -0.5959 0.8030
vn -0.0000 0.6247 -0.7809
vn -0.0000 -0.0000 -1.0000
vn -0.0000 0.7071 -0.7071
vn -0.0000 -1.0000 0.0074
vn -0.0000 1.0000 -0.0080
s 0
f 1//1 2//1 4//1 3//1
f 3//2 4//2 6//2 5//2
f 5//3 6//3 8//3 7//3
f 7//4 8//4 10//4 9//4
f 4//5 2//5 12//5 10//5 8//5 6//5
f 9//6 10//6 12//6 11//6
f 11//7 12//7 2//7 1//7
f 1//8 3//8 5//8 7//8 9//8 11//8
f 13//8 14//8 18//8 17//8
f 19//9 17//9 21//9 23//9
f 16//5 15//5 19//5 20//5
f 14//10 16//10 20//10 18//10
f 15//11 13//11 17//11 19//11
f 17//8 18//8 22//8 21//8
f 20//5 19//5 23//5 24//5
f 18//12 20//12 24//12 22//12
f 23//13 21//13 28//13 26//13
f 21//8 22//8 27//8 28//8
f 24//5 23//5 26//5 25//5
f 22//14 24//14 25//14 27//14
f 27//8 30//8 29//8 28//8
f 26//15 28//15 29//15 31//15
f 26//5 31//5 32//5 25//5
f 27//16 25//16 32//16 30//16
f 33//1 34//1 36//1 35//1
f 35//2 36//2 38//2 37//2
f 37//3 38//3 40//3 39//3
f 39//4 40//4 42//4 41//4
f 36//5 34//5 44//5 42//5 40//5 38//5
f 41//6 42//6 44//6 43//6
f 43//7 44//7 34//7 33//7
f 33//8 35//8 37//8 39//8 41//8 43//8
f 45//1 46//1 48//1 47//1
f 47//2 48//2 50//2 49//2
f 49//3 50//3 52//3 51//3
f 51//4 52//4 54//4 53//4
f 48//5 46//5 56//5 54//5 52//5 50//5
f 53//6 54//6 56//6 55//6
f 55//7 56//7 46//7 45//7
f 45//8 47//8 49//8 51//8 53//8 55//8
f 57//8 58//8 60//8 59//8
f 57//12 59//12 62//12 61//12
f 60//17 58//17 63//17 64//17
f 60//18 64//18 68//18 66//18
f 62//12 59//12 65//12 67//12
f 59//8 60//8 66//8 65//8
f 58//19 57//19 61//19 63//19
f 66//20 68//20 67//20 65//20
f 69//1 70//1 72//1 71//1
f 71//2 72//2 74//2 73//2
f 73//3 74//3 76//3 75//3
f 75//4 76//4 78//4 77//4
f 72//5 70//5 80//5 78//5 76//5 74//5
f 77//6 78//6 80//6 79//6
f 79//7 80//7 70//7 69//7
f 69//8 71//8 73//8 75//8 77//8 79//8
f 81//1 82//1 84//1 83//1
f 83//2 84//2 86//2 85//2
f 85//3 86//3 88//3 87//3
f 87//4 88//4 90//4 89//4
f 84//5 82//5 92//5 90//5 88//5 86//5
f 89//6 90//6 92//6 91//6
f 91//7 92//7 82//7 81//7
f 81//8 83//8 85//8 87//8 89//8 91//8
f 93//1 94//1 96//1 95//1
f 95//2 96//2 98//2 97//2
f 97//3 98//3 100//3 99//3
f 99//4 100//4 102//4 101//4
f 96//5 94//5 104//5 102//5 100//5 98//5
f 101//6 102//6 104//6 103//6
f 103//7 104//7 94//7 93//7
f 93//8 95//8 97//8 99//8 101//8 103//8
f 62//5 67//5 68//5 64//5 63//5 61//5
