# Blender 4.0.1
# www.blender.org
o Cube.001
v 1.158637 -1.081973 2.714658 0.3921 0.3921 0.3921
v 1.158637 0.240439 2.714658 0.3921 0.3921 0.3921
v 0.797431 0.901645 -0.018701 0.3921 0.3921 0.3921
v 1.158637 -1.081974 -1.811571 0.3921 0.3921 0.3921
v 1.158637 0.240438 -1.811571 0.3921 0.3921 0.3921
v 0.797431 0.901645 -2.402101 0.3921 0.3921 0.3921
v -1.028856 -1.081973 2.714658 0.3921 0.3921 0.3921
v -1.249455 0.901645 -0.018701 0.3921 0.3921 0.3921
v -1.028856 0.240439 2.714658 0.3921 0.3921 0.3921
v -1.502931 0.901645 -2.676694 0.3921 0.3921 0.3921
v -1.419314 -1.081974 -2.119300 0.3921 0.3921 0.3921
vn 1.0000 -0.0000 -0.0000
vn -0.0000 0.9720 0.2351
vn 0.8776 0.4794 -0.0000
vn -0.0000 1.0000 -0.0000
vn -0.0000 -0.0000 1.0000
vn 0.0916 -0.6350 -0.7670
vn 0.1185 -0.0000 -0.9930
vn 0.2416 -0.2531 -0.9368
vn -0.9954 -0.0153 0.0949
vn -0.9968 -0.0000 0.0805
vn -0.9968 0.0001 0.0805
vn -0.0000 -1.0000 -0.0000
s 0
f 4//1 5//1 2//1 1//1
f 9//2 2//2 3//2 8//2
f 2//3 5//3 6//3 3//3
f 6//4 10//4 8//4 3//4
f 1//5 2//5 9//5 7//5
f 6//6 5//6 10//6
f 4//7 11//7 5//7
f 5//8 11//8 10//8
f 8//9 10//9 11//9
f 11//10 7//10 9//10
f 9//11 8//11 11//11
f 7//12 11//12 4//12 1//12
