# Blender 4.1.1
# www.blender.org
o bed
v -1.425868 -0.304890 2.847846 0.4980 0.3333 0.1804
v -1.425868 -0.304890 -1.292843 0.4980 0.3333 0.1804
v 1.226165 0.148670 2.662791 1.0000 0.7882 0.5843
v 1.426251 -0.304890 2.847846 0.4980 0.3333 0.1804
v 1.426251 -0.304890 -1.292843 0.4980 0.3333 0.1804
v -1.225783 0.148670 2.662791 1.0000 0.7882 0.5843
v -1.425868 0.017743 -1.483384 0.4980 0.3333 0.1804
v -1.425868 -0.304890 -1.483384 0.4980 0.3333 0.1804
v 1.426251 -0.304890 -1.483384 0.4980 0.3333 0.1804
v 1.426251 0.017743 -1.483384 0.4980 0.3333 0.1804
v -0.871504 1.076157 -1.292843 0.4980 0.3333 0.1804
v 0.871886 1.076157 -1.292843 0.4980 0.3333 0.1804
v -0.871504 1.076157 -1.483384 0.4980 0.3333 0.1804
v 0.871886 1.076157 -1.483384 0.4980 0.3333 0.1804
v 1.426251 0.583032 -1.483384 0.4980 0.3333 0.1804
v -1.425868 0.583032 -1.483384 0.4980 0.3333 0.1804
v 1.426251 0.583032 -1.292843 0.4980 0.3333 0.1804
v -1.425868 0.583032 -1.292843 0.4980 0.3333 0.1804
v 1.018398 -0.450642 -1.188192 1.0000 0.9137 0.4432
v 1.018398 -0.302288 -1.188192 1.0000 0.9137 0.4432
v 1.018398 -0.450642 -1.453530 1.0000 0.9137 0.4432
v 1.018398 -0.302288 -1.453530 1.0000 0.9137 0.4432
v 1.283738 -0.450642 -1.188192 1.0000 0.9137 0.4432
v 1.283738 -0.302288 -1.188192 1.0000 0.9137 0.4432
v 1.283738 -0.450642 -1.453530 1.0000 0.9137 0.4432
v 1.283738 -0.302288 -1.453530 1.0000 0.9137 0.4432
v 1.065081 -0.534754 -1.406848 1.0000 0.9137 0.4432
v 1.065081 -0.534754 -1.234875 1.0000 0.9137 0.4432
v 1.237055 -0.534754 -1.406848 1.0000 0.9137 0.4432
v 1.237055 -0.534754 -1.234875 1.0000 0.9137 0.4432
v -1.298151 -0.450642 -1.188192 1.0000 0.9137 0.4432
v -1.298151 -0.302288 -1.188192 1.0000 0.9137 0.4432
v -1.298151 -0.450642 -1.453530 1.0000 0.9137 0.4432
v -1.298151 -0.302288 -1.453530 1.0000 0.9137 0.4432
v -1.032812 -0.450642 -1.188192 1.0000 0.9137 0.4432
v -1.032812 -0.302288 -1.188192 1.0000 0.9137 0.4432
v -1.032812 -0.450642 -1.453530 1.0000 0.9137 0.4432
v -1.032812 -0.302288 -1.453530 1.0000 0.9137 0.4432
v -1.251468 -0.534754 -1.406848 1.0000 0.9137 0.4432
v -1.251468 -0.534754 -1.234875 1.0000 0.9137 0.4432
v -1.079494 -0.534754 -1.406848 1.0000 0.9137 0.4432
v -1.079494 -0.534754 -1.234875 1.0000 0.9137 0.4432
v 1.018398 -0.450642 2.749487 1.0000 0.9137 0.4432
v 1.018398 -0.302288 2.749487 1.0000 0.9137 0.4432
v 1.018398 -0.450642 2.484149 1.0000 0.9137 0.4432
v 1.018398 -0.302288 2.484149 1.0000 0.9137 0.4432
v 1.283738 -0.450642 2.749487 1.0000 0.9137 0.4432
v 1.283738 -0.302288 2.749487 1.0000 0.9137 0.4432
v 1.283738 -0.450642 2.484149 1.0000 0.9137 0.4432
v 1.283738 -0.302288 2.484149 1.0000 0.9137 0.4432
v 1.065081 -0.534754 2.530832 1.0000 0.9137 0.4432
v 1.065081 -0.534754 2.702805 1.0000 0.9137 0.4432
v 1.237055 -0.534754 2.530832 1.0000 0.9137 0.4432
v 1.237055 -0.534754 2.702805 1.0000 0.9137 0.4432
v -1.298151 -0.450642 2.749487 1.0000 0.9137 0.4432
v -1.298151 -0.302288 2.749487 1.0000 0.9137 0.4432
v -1.298151 -0.450642 2.484149 1.0000 0.9137 0.4432
v -1.298151 -0.302288 2.484149 1.0000 0.9137 0.4432
v -1.032812 -0.450642 2.749487 1.0000 0.9137 0.4432
v -1.032812 -0.302288 2.749487 1.0000 0.9137 0.4432
v -1.032812 -0.450642 2.484149 1.0000 0.9137 0.4432
v -1.032812 -0.302288 2.484149 1.0000 0.9137 0.4432
v -1.251468 -0.534754 2.530832 1.0000 0.9137 0.4432
v -1.251468 -0.534754 2.702805 1.0000 0.9137 0.4432
v -1.079494 -0.534754 2.530832 1.0000 0.9137 0.4432
v -1.079494 -0.534754 2.702805 1.0000 0.9137 0.4432
v -1.425868 0.017743 2.847846 0.4980 0.3333 0.1804
v -1.425868 0.017743 -1.292843 0.4980 0.3333 0.1804
v 1.426251 0.017743 -1.292843 0.4980 0.3333 0.1804
v 1.426251 0.017743 2.847846 0.4980 0.3333 0.1804
v -1.294492 0.017743 2.716470 0.4980 0.3333 0.1804
v -1.294492 0.017743 -1.161467 0.4980 0.3333 0.1804
v 1.294874 0.017743 -1.161467 0.4980 0.3333 0.1804
v 1.294874 0.017743 2.716470 0.4980 0.3333 0.1804
v -0.837354 0.153555 -1.017057 1.0000 0.7882 0.5843
v -0.298389 0.151481 -1.014975 1.0000 0.7882 0.5843
v -0.818691 0.153339 -0.490455 1.0000 0.7882 0.5843
v -0.294977 0.151328 -0.503073 1.0000 0.7882 0.5843
v -0.836552 0.361989 -1.017000 1.0000 0.7882 0.5843
v -0.297588 0.359915 -1.014918 1.0000 0.7882 0.5843
v -0.817889 0.361773 -0.490398 1.0000 0.7882 0.5843
v -0.294176 0.359762 -0.503016 1.0000 0.7882 0.5843
v -0.929913 0.257955 -0.382255 1.0000 0.7882 0.5843
v -0.945123 0.258219 -1.128653 1.0000 0.7882 0.5843
v -0.186502 0.255301 -1.130606 1.0000 0.7882 0.5843
v -0.178963 0.255070 -0.394054 1.0000 0.7882 0.5843
v -0.570206 0.152517 -0.980019 1.0000 0.7882 0.5843
v -0.561849 0.152361 -0.525136 1.0000 0.7882 0.5843
v -0.561048 0.360794 -0.525079 1.0000 0.7882 0.5843
v -0.569404 0.360951 -0.979962 1.0000 0.7882 0.5843
v -0.572258 0.256780 -1.113532 1.0000 0.7882 0.5843
v -0.558995 0.256531 -0.391566 1.0000 0.7882 0.5843
v -0.793468 0.153313 -0.748399 1.0000 0.7882 0.5843
v -0.338588 0.151565 -0.756756 1.0000 0.7882 0.5843
v -0.792666 0.361746 -0.748342 1.0000 0.7882 0.5843
v -0.337786 0.359999 -0.756699 1.0000 0.7882 0.5843
v -0.926607 0.258042 -0.745917 1.0000 0.7882 0.5843
v -0.204647 0.255269 -0.759181 1.0000 0.7882 0.5843
v -0.565226 0.360873 -0.752520 1.0000 0.7882 0.5843
v -0.566028 0.152439 -0.752577 1.0000 0.7882 0.5843
v 0.343901 0.153555 -1.004091 1.0000 0.7882 0.5843
v 0.876845 0.151481 -0.923730 1.0000 0.7882 0.5843
v 0.285861 0.153339 -0.480365 1.0000 0.7882 0.5843
v 0.805851 0.151328 -0.416763 1.0000 0.7882 0.5843
v 0.344686 0.361989 -1.003918 1.0000 0.7882 0.5843
v 0.877630 0.359915 -0.923557 1.0000 0.7882 0.5843
v 0.286646 0.361773 -0.480191 1.0000 0.7882 0.5843
v 0.806636 0.359762 -0.416590 1.0000 0.7882 0.5843
v 0.160099 0.257955 -0.389470 1.0000 0.7882 0.5843
v 0.253488 0.258219 -1.130160 1.0000 0.7882 0.5843
v 1.004344 0.255301 -1.021879 1.0000 0.7882 0.5843
v 0.904796 0.255070 -0.292046 1.0000 0.7882 0.5843
v 0.602834 0.152517 -0.928635 1.0000 0.7882 0.5843
v 0.545016 0.152361 -0.477363 1.0000 0.7882 0.5843
v 0.545801 0.360794 -0.477190 1.0000 0.7882 0.5843
v 0.603618 0.360951 -0.928461 1.0000 0.7882 0.5843
v 0.620200 0.256780 -1.061029 1.0000 0.7882 0.5843
v 0.528435 0.256531 -0.344796 1.0000 0.7882 0.5843
v 0.348291 0.153313 -0.731907 1.0000 0.7882 0.5843
v 0.799558 0.151565 -0.674091 1.0000 0.7882 0.5843
v 0.349075 0.361746 -0.731734 1.0000 0.7882 0.5843
v 0.800343 0.359999 -0.673917 1.0000 0.7882 0.5843
v 0.216203 0.258042 -0.748794 1.0000 0.7882 0.5843
v 0.932431 0.255269 -0.657031 1.0000 0.7882 0.5843
v 0.574710 0.360873 -0.702826 1.0000 0.7882 0.5843
v 0.573925 0.152439 -0.702999 1.0000 0.7882 0.5843
v 1.294874 0.017743 -0.173384 0.4980 0.3333 0.1804
v -1.294492 0.017743 -0.173386 0.4980 0.3333 0.1804
v -1.225783 0.148670 -1.107788 0.8902 0.8902 0.8902
v 1.226165 0.148670 -1.107788 0.8902 0.8902 0.8902
v -1.294492 0.017743 -1.161467 0.8902 0.8902 0.8902
v 1.294874 0.017743 -1.161467 0.8902 0.8902 0.8902
v -1.225783 0.148670 -0.173387 0.8902 0.8902 0.8902
v 1.294874 0.017743 -0.173384 0.8902 0.8902 0.8902
v -1.294492 0.017743 -0.173386 0.8902 0.8902 0.8902
v 1.226165 0.148670 -0.173387 0.8902 0.8902 0.8902
v -1.294492 0.017743 2.716470 1.0000 0.7882 0.5843
v 1.294874 0.017743 2.716470 1.0000 0.7882 0.5843
v -1.225783 0.148670 -0.173387 1.0000 0.7882 0.5843
v 1.294874 0.017743 -0.173384 1.0000 0.7882 0.5843
v -1.294492 0.017743 -0.173386 1.0000 0.7882 0.5843
v 1.226165 0.148670 -0.173387 1.0000 0.7882 0.5843
v -1.294492 0.047734 2.716470 1.0000 0.7882 0.5843
v -1.225783 0.178660 2.662791 1.0000 0.7882 0.5843
v 1.226165 0.178660 2.662791 1.0000 0.7882 0.5843
v 1.226165 0.178660 -0.173387 1.0000 0.7882 0.5843
v 1.294874 0.047734 2.716470 1.0000 0.7882 0.5843
v 1.294874 0.047734 -0.173384 1.0000 0.7882 0.5843
v -1.225783 0.178660 -0.173387 1.0000 0.7882 0.5843
v -1.294492 0.047734 -0.173386 1.0000 0.7882 0.5843
vn -1.0000 -0.0000 -0.0000
vn 1.0000 -0.0000 -0.0000
vn -0.0000 -0.0000 1.0000
vn -0.0000 -1.0000 -0.0000
vn -0.8855 -0.4647 -0.0000
vn -0.0000 -0.0000 -1.0000
vn -0.6646 0.7472 -0.0000
vn -0.0000 1.0000 -0.0000
vn 0.6646 0.7472 -0.0000
vn -0.8744 -0.4853 -0.0000
vn 0.8744 -0.4853 -0.0000
vn -0.0000 -0.4853 0.8744
vn -0.0000 -0.4853 -0.8744
vn -0.0000 -0.3793 -0.9253
vn -0.0038 -1.0000 -0.0003
vn 0.0494 0.7456 0.6645
vn 0.0038 1.0000 0.0003
vn 0.6611 0.7467 -0.0735
vn 0.0510 -0.7487 -0.6610
vn -0.0228 -0.7535 0.6570
vn 0.6609 -0.7480 0.0613
vn -0.6582 -0.7523 -0.0303
vn -0.0488 0.7551 -0.6537
vn -0.6653 0.7438 0.0642
vn 0.0567 0.7486 -0.6606
vn 0.0437 -0.7464 0.6641
vn -0.0546 -0.7544 -0.6541
vn -0.0170 0.7533 0.6574
vn -0.6524 0.7573 -0.0299
vn -0.6710 -0.7387 0.0638
vn 0.6554 -0.7517 -0.0739
vn 0.6666 0.7428 0.0617
vn -0.0038 -1.0000 -0.0008
vn -0.0476 0.7456 0.6647
vn 0.0038 1.0000 0.0008
vn 0.6648 0.7467 0.0233
vn 0.1465 -0.7487 -0.6466
vn -0.1180 -0.7535 0.6467
vn 0.6450 -0.7480 0.1567
vn -0.6468 -0.7523 -0.1256
vn 0.0467 0.7551 -0.6539
vn -0.6675 0.7438 -0.0331
vn 0.1521 0.7486 -0.6453
vn -0.0533 -0.7464 0.6634
vn 0.0410 -0.7544 -0.6551
vn -0.1123 0.7533 0.6480
vn -0.6411 0.7573 -0.1243
vn -0.6731 -0.7387 -0.0344
vn 0.6592 -0.7517 0.0221
vn 0.6506 0.7428 0.1579
vn 0.8855 -0.4647 -0.0000
vn -0.0000 0.3793 -0.9253
vn 0.8855 0.4647 -0.0000
vn -0.8855 0.4647 -0.0000
vn -0.0000 0.3793 0.9253
vn 0.0001 -0.0000 -1.0000
s 0
f 1//1 67//1 68//1 2//1
f 69//2 5//2 9//2 10//2
f 5//2 69//2 70//2 4//2
f 4//3 70//3 67//3 1//3
f 2//4 5//4 4//4 1//4
f 140//5 138//5 3//5 142//5
f 8//6 7//6 10//6 9//6
f 5//4 2//4 8//4 9//4
f 16//7 18//7 11//7 13//7
f 2//1 68//1 7//1 8//1
f 10//6 7//6 16//6 15//6
f 15//6 16//6 13//6 14//6
f 18//3 17//3 12//3 11//3
f 69//2 10//2 15//2 17//2
f 7//1 68//1 18//1 16//1
f 11//8 12//8 14//8 13//8
f 17//9 15//9 14//9 12//9
f 68//3 69//3 17//3 18//3
f 19//1 20//1 22//1 21//1
f 21//6 22//6 26//6 25//6
f 25//2 26//2 24//2 23//2
f 23//3 24//3 20//3 19//3
f 19//10 21//10 27//10 28//10
f 26//8 22//8 20//8 24//8
f 25//11 23//11 30//11 29//11
f 23//12 19//12 28//12 30//12
f 21//13 25//13 29//13 27//13
f 31//1 32//1 34//1 33//1
f 33//6 34//6 38//6 37//6
f 37//2 38//2 36//2 35//2
f 35//3 36//3 32//3 31//3
f 31//10 33//10 39//10 40//10
f 38//8 34//8 32//8 36//8
f 37//11 35//11 42//11 41//11
f 35//12 31//12 40//12 42//12
f 33//13 37//13 41//13 39//13
f 43//1 44//1 46//1 45//1
f 45//6 46//6 50//6 49//6
f 49//2 50//2 48//2 47//2
f 47//3 48//3 44//3 43//3
f 43//10 45//10 51//10 52//10
f 50//8 46//8 44//8 48//8
f 49//11 47//11 54//11 53//11
f 47//12 43//12 52//12 54//12
f 45//13 49//13 53//13 51//13
f 55//1 56//1 58//1 57//1
f 57//6 58//6 62//6 61//6
f 61//2 62//2 60//2 59//2
f 59//3 60//3 56//3 55//3
f 55//10 57//10 63//10 64//10
f 62//8 58//8 56//8 60//8
f 61//11 59//11 66//11 65//11
f 59//12 55//12 64//12 66//12
f 57//13 61//13 65//13 63//13
f 71//8 128//8 72//8 68//8 67//8
f 72//8 73//8 69//8 68//8
f 73//8 127//8 74//8 70//8 69//8
f 74//8 71//8 67//8 70//8
f 142//4 3//4 6//4 139//4
f 3//14 138//14 137//14 6//14
f 100//15 94//15 78//15 88//15
f 89//16 81//16 83//16 92//16
f 99//17 96//17 80//17 90//17
f 96//18 82//18 86//18 98//18
f 87//19 75//19 84//19 91//19
f 88//20 78//20 86//20 92//20
f 94//21 76//21 85//21 98//21
f 93//22 77//22 83//22 97//22
f 90//23 80//23 85//23 91//23
f 95//24 79//24 84//24 97//24
f 79//25 90//25 91//25 84//25
f 77//26 88//26 92//26 83//26
f 76//27 87//27 91//27 85//27
f 95//17 99//17 90//17 79//17
f 82//28 89//28 92//28 86//28
f 93//15 100//15 88//15 77//15
f 75//15 87//15 100//15 93//15
f 81//17 89//17 99//17 95//17
f 81//29 95//29 97//29 83//29
f 75//30 93//30 97//30 84//30
f 78//31 94//31 98//31 86//31
f 80//32 96//32 98//32 85//32
f 89//17 82//17 96//17 99//17
f 87//15 76//15 94//15 100//15
f 126//33 120//33 104//33 114//33
f 115//34 107//34 109//34 118//34
f 125//35 122//35 106//35 116//35
f 122//36 108//36 112//36 124//36
f 113//37 101//37 110//37 117//37
f 114//38 104//38 112//38 118//38
f 120//39 102//39 111//39 124//39
f 119//40 103//40 109//40 123//40
f 116//41 106//41 111//41 117//41
f 121//42 105//42 110//42 123//42
f 105//43 116//43 117//43 110//43
f 103//44 114//44 118//44 109//44
f 102//45 113//45 117//45 111//45
f 121//35 125//35 116//35 105//35
f 108//46 115//46 118//46 112//46
f 119//33 126//33 114//33 103//33
f 101//33 113//33 126//33 119//33
f 107//35 115//35 125//35 121//35
f 107//47 121//47 123//47 109//47
f 101//48 119//48 123//48 110//48
f 104//49 120//49 124//49 112//49
f 106//50 122//50 124//50 111//50
f 115//35 108//35 122//35 125//35
f 113//33 102//33 120//33 126//33
f 130//8 129//8 133//8 136//8
f 6//51 137//51 141//51 139//51
f 129//52 130//52 132//52 131//52
f 130//53 136//53 134//53 132//53
f 135//54 133//54 129//54 131//54
f 148//53 146//53 145//53 147//53
f 146//8 149//8 144//8 145//8
f 145//55 144//55 143//55 147//55
f 144//54 149//54 150//54 143//54
f 142//6 139//6 149//6 146//6
f 137//3 138//3 147//3 143//3
f 138//2 140//2 148//2 147//2
f 140//56 142//56 146//56 148//56
f 141//1 137//1 143//1 150//1
f 139//6 141//6 150//6 149//6
