# Blender 4.1.1
# www.blender.org
o bedside
v -0.419120 -0.277567 0.156506 0.7686 0.5843 0.3647
v -0.419120 0.509635 0.156506 0.7686 0.5843 0.3647
v -0.419120 -0.277567 -0.530653 0.7686 0.5843 0.3647
v -0.419120 0.509635 -0.530653 0.7686 0.5843 0.3647
v 0.417442 -0.277567 0.156506 0.7686 0.5843 0.3647
v 0.417442 0.509635 0.156506 0.7686 0.5843 0.3647
v 0.417442 -0.277567 -0.530653 0.7686 0.5843 0.3647
v 0.417442 0.509635 -0.530653 0.7686 0.5843 0.3647
v -0.419120 -0.277567 0.156506 0.7686 0.5843 0.3647
v -0.419120 0.509635 0.156506 0.7686 0.5843 0.3647
v 0.417442 -0.277567 0.156506 0.7686 0.5843 0.3647
v 0.417442 0.509635 0.156506 0.7686 0.5843 0.3647
v -0.419120 0.141887 0.156506 0.7686 0.5843 0.3647
v 0.417442 0.141887 0.156506 0.7686 0.5843 0.3647
v -0.372417 0.157034 0.156506 0.7686 0.5843 0.3647
v -0.372417 0.462932 0.156506 0.7686 0.5843 0.3647
v 0.370739 0.462932 0.156506 0.7686 0.5843 0.3647
v 0.370739 0.157034 0.156506 0.7686 0.5843 0.3647
v 0.370739 0.127433 0.156506 0.7686 0.5843 0.3647
v 0.370739 -0.185916 0.156506 0.7686 0.5843 0.3647
v -0.372417 -0.185916 0.156506 0.7686 0.5843 0.3647
v -0.372417 0.127433 0.156506 0.7686 0.5843 0.3647
v -0.403738 -0.316903 0.142592 1.0000 0.9137 0.4432
v -0.403738 -0.275493 0.142592 1.0000 0.9137 0.4432
v -0.403738 -0.316903 0.021839 1.0000 0.9137 0.4432
v -0.403738 -0.275493 0.021839 1.0000 0.9137 0.4432
v -0.282985 -0.316903 0.142592 1.0000 0.9137 0.4432
v -0.282985 -0.275493 0.142592 1.0000 0.9137 0.4432
v -0.282985 -0.316903 0.021839 1.0000 0.9137 0.4432
v -0.282985 -0.275493 0.021839 1.0000 0.9137 0.4432
v -0.382493 -0.355182 0.043084 1.0000 0.9137 0.4432
v -0.382493 -0.355182 0.121347 1.0000 0.9137 0.4432
v -0.304230 -0.355182 0.043084 1.0000 0.9137 0.4432
v -0.304230 -0.355182 0.121347 1.0000 0.9137 0.4432
v 0.285139 -0.316903 0.142592 1.0000 0.9137 0.4432
v 0.285139 -0.275493 0.142592 1.0000 0.9137 0.4432
v 0.285139 -0.316903 0.021839 1.0000 0.9137 0.4432
v 0.285139 -0.275493 0.021839 1.0000 0.9137 0.4432
v 0.405892 -0.316903 0.142592 1.0000 0.9137 0.4432
v 0.405892 -0.275493 0.142592 1.0000 0.9137 0.4432
v 0.405892 -0.316903 0.021839 1.0000 0.9137 0.4432
v 0.405892 -0.275493 0.021839 1.0000 0.9137 0.4432
v 0.306384 -0.355182 0.043084 1.0000 0.9137 0.4432
v 0.306384 -0.355182 0.121347 1.0000 0.9137 0.4432
v 0.384647 -0.355182 0.043084 1.0000 0.9137 0.4432
v 0.384647 -0.355182 0.121347 1.0000 0.9137 0.4432
v -0.403738 -0.316903 -0.396607 1.0000 0.9137 0.4432
v -0.403738 -0.275493 -0.396607 1.0000 0.9137 0.4432
v -0.403738 -0.316903 -0.517361 1.0000 0.9137 0.4432
v -0.403738 -0.275493 -0.517361 1.0000 0.9137 0.4432
v -0.282985 -0.316903 -0.396607 1.0000 0.9137 0.4432
v -0.282985 -0.275493 -0.396607 1.0000 0.9137 0.4432
v -0.282985 -0.316903 -0.517361 1.0000 0.9137 0.4432
v -0.282985 -0.275493 -0.517361 1.0000 0.9137 0.4432
v -0.382493 -0.355182 -0.496116 1.0000 0.9137 0.4432
v -0.382493 -0.355182 -0.417852 1.0000 0.9137 0.4432
v -0.304230 -0.355182 -0.496116 1.0000 0.9137 0.4432
v -0.304230 -0.355182 -0.417852 1.0000 0.9137 0.4432
v 0.285139 -0.316903 -0.396607 1.0000 0.9137 0.4432
v 0.285139 -0.275493 -0.396607 1.0000 0.9137 0.4432
v 0.285139 -0.316903 -0.517361 1.0000 0.9137 0.4432
v 0.285139 -0.275493 -0.517361 1.0000 0.9137 0.4432
v 0.405892 -0.316903 -0.396607 1.0000 0.9137 0.4432
v 0.405892 -0.275493 -0.396607 1.0000 0.9137 0.4432
v 0.405892 -0.316903 -0.517361 1.0000 0.9137 0.4432
v 0.405892 -0.275493 -0.517361 1.0000 0.9137 0.4432
v 0.306384 -0.355182 -0.496116 1.0000 0.9137 0.4432
v 0.306384 -0.355182 -0.417852 1.0000 0.9137 0.4432
v 0.384647 -0.355182 -0.496116 1.0000 0.9137 0.4432
v 0.384647 -0.355182 -0.417852 1.0000 0.9137 0.4432
v 0.033335 0.339793 0.180982 0.4980 0.3333 0.1804
v 0.047283 0.306121 0.180982 0.4980 0.3333 0.1804
v 0.033335 0.272450 0.180982 0.4980 0.3333 0.1804
v 0.023473 0.339793 0.204791 0.4980 0.3333 0.1804
v 0.033335 0.306121 0.214654 0.4980 0.3333 0.1804
v 0.023473 0.272450 0.204791 0.4980 0.3333 0.1804
v -0.000336 0.339793 0.214654 0.4980 0.3333 0.1804
v -0.000336 0.306121 0.228601 0.4980 0.3333 0.1804
v -0.000336 0.272450 0.214654 0.4980 0.3333 0.1804
v -0.024146 0.339793 0.204791 0.4980 0.3333 0.1804
v -0.034008 0.306121 0.214654 0.4980 0.3333 0.1804
v -0.024146 0.272450 0.204791 0.4980 0.3333 0.1804
v -0.000336 0.258502 0.180982 0.4980 0.3333 0.1804
v -0.034008 0.339793 0.180982 0.4980 0.3333 0.1804
v -0.047955 0.306121 0.180982 0.4980 0.3333 0.1804
v -0.034008 0.272450 0.180982 0.4980 0.3333 0.1804
v -0.000336 0.353740 0.180982 0.4980 0.3333 0.1804
v 0.033335 0.013387 0.180982 0.4980 0.3333 0.1804
v 0.047283 -0.020284 0.180982 0.4980 0.3333 0.1804
v 0.033335 -0.053956 0.180982 0.4980 0.3333 0.1804
v 0.023473 0.013387 0.204791 0.4980 0.3333 0.1804
v 0.033335 -0.020284 0.214654 0.4980 0.3333 0.1804
v 0.023473 -0.053956 0.204791 0.4980 0.3333 0.1804
v -0.000336 0.013387 0.214654 0.4980 0.3333 0.1804
v -0.000336 -0.020284 0.228601 0.4980 0.3333 0.1804
v -0.000336 -0.053956 0.214654 0.4980 0.3333 0.1804
v -0.024146 0.013387 0.204791 0.4980 0.3333 0.1804
v -0.034008 -0.020284 0.214654 0.4980 0.3333 0.1804
v -0.024146 -0.053956 0.204791 0.4980 0.3333 0.1804
v -0.000336 -0.067903 0.180982 0.4980 0.3333 0.1804
v -0.034008 0.013387 0.180982 0.4980 0.3333 0.1804
v -0.047955 -0.020284 0.180982 0.4980 0.3333 0.1804
v -0.034008 -0.053956 0.180982 0.4980 0.3333 0.1804
v -0.000336 0.027335 0.180982 0.4980 0.3333 0.1804
v -0.419120 0.509635 0.156506 0.4980 0.3333 0.1804
v -0.419120 0.509635 -0.530653 0.4980 0.3333 0.1804
v 0.417442 0.509635 0.156506 0.4980 0.3333 0.1804
v 0.417442 0.509635 -0.530653 0.4980 0.3333 0.1804
v -0.419120 0.509635 0.156506 0.0000 0.0000 0.0000
v 0.417442 0.509635 0.156506 0.0000 0.0000 0.0000
v -0.463063 0.549788 0.192602 0.4980 0.3333 0.1804
v -0.463063 0.549788 -0.566749 0.4980 0.3333 0.1804
v 0.461386 0.549788 -0.566749 0.4980 0.3333 0.1804
v 0.461386 0.549788 0.192602 0.4980 0.3333 0.1804
v -0.372417 0.157034 0.156506 0.6980 0.5294 0.3333
v -0.372417 0.462932 0.156506 0.6980 0.5294 0.3333
v 0.370739 0.462932 0.156506 0.6980 0.5294 0.3333
v 0.370739 0.157034 0.156506 0.6980 0.5294 0.3333
v 0.370739 0.127433 0.156506 0.6980 0.5294 0.3333
v 0.370739 -0.185916 0.156506 0.6980 0.5294 0.3333
v -0.372417 -0.185916 0.156506 0.6980 0.5294 0.3333
v -0.372417 0.127433 0.156506 0.6980 0.5294 0.3333
v -0.372417 0.157034 0.190373 0.6980 0.5294 0.3333
v -0.372417 0.462932 0.190373 0.6980 0.5294 0.3333
v 0.370739 0.127433 0.190373 0.6980 0.5294 0.3333
v 0.370739 -0.185916 0.190373 0.6980 0.5294 0.3333
v -0.372417 -0.185916 0.190373 0.6980 0.5294 0.3333
v 0.370739 0.462932 0.190373 0.6980 0.5294 0.3333
v -0.372417 0.127433 0.190373 0.6980 0.5294 0.3333
v 0.370739 0.157034 0.190373 0.6980 0.5294 0.3333
vn -1.0000 -0.0000 -0.0000
vn -0.0000 -0.0000 -1.0000
vn 1.0000 -0.0000 -0.0000
vn -0.0000 -1.0000 -0.0000
vn -0.0000 -0.0000 1.0000
vn -0.8744 -0.4853 -0.0000
vn 0.8744 -0.4853 -0.0000
vn -0.0000 -0.4853 0.8744
vn -0.0000 -0.4853 -0.8744
vn 0.8629 -0.3574 0.3574
vn 0.3780 0.9125 0.1566
vn 0.3780 -0.9125 0.1566
vn 0.8629 0.3574 0.3574
vn 0.3574 -0.3574 0.8629
vn 0.1566 0.9125 0.3780
vn 0.1566 -0.9125 0.3780
vn 0.3574 0.3574 0.8629
vn -0.3574 0.3574 0.8629
vn -0.3574 -0.3574 0.8629
vn -0.1566 0.9125 0.3780
vn -0.1566 -0.9125 0.3780
vn -0.3780 -0.9125 0.1566
vn -0.8629 0.3574 0.3574
vn -0.8629 -0.3574 0.3574
vn -0.3780 0.9125 0.1566
vn -0.0000 -0.6685 -0.7437
vn -0.0000 1.0000 -0.0000
vn 0.6746 -0.7382 -0.0000
vn -0.6746 -0.7382 -0.0000
vn -0.0000 -0.6685 0.7437
s 0
f 1//1 2//1 4//1 3//1
f 3//2 4//2 8//2 7//2
f 7//3 8//3 6//3 5//3
f 3//4 7//4 5//4 1//4
f 15//5 16//5 10//5 13//5
f 16//5 17//5 12//5 10//5
f 17//5 18//5 14//5 12//5
f 18//5 15//5 13//5 14//5
f 19//5 20//5 11//5 14//5
f 20//5 21//5 9//5 11//5
f 21//5 22//5 13//5 9//5
f 22//5 19//5 14//5 13//5
f 23//1 24//1 26//1 25//1
f 25//2 26//2 30//2 29//2
f 29//3 30//3 28//3 27//3
f 27//5 28//5 24//5 23//5
f 23//6 25//6 31//6 32//6
f 29//7 27//7 34//7 33//7
f 27//8 23//8 32//8 34//8
f 25//9 29//9 33//9 31//9
f 35//1 36//1 38//1 37//1
f 37//2 38//2 42//2 41//2
f 41//3 42//3 40//3 39//3
f 39//5 40//5 36//5 35//5
f 35//6 37//6 43//6 44//6
f 41//7 39//7 46//7 45//7
f 39//8 35//8 44//8 46//8
f 37//9 41//9 45//9 43//9
f 47//1 48//1 50//1 49//1
f 49//2 50//2 54//2 53//2
f 53//3 54//3 52//3 51//3
f 51//5 52//5 48//5 47//5
f 47//6 49//6 55//6 56//6
f 53//7 51//7 58//7 57//7
f 51//8 47//8 56//8 58//8
f 49//9 53//9 57//9 55//9
f 59//1 60//1 62//1 61//1
f 61//2 62//2 66//2 65//2
f 65//3 66//3 64//3 63//3
f 63//5 64//5 60//5 59//5
f 59//6 61//6 67//6 68//6
f 65//7 63//7 70//7 69//7
f 63//8 59//8 68//8 70//8
f 61//9 65//9 69//9 67//9
f 73//10 72//10 75//10 76//10
f 71//11 87//11 74//11
f 83//12 73//12 76//12
f 72//13 71//13 74//13 75//13
f 76//14 75//14 78//14 79//14
f 74//15 87//15 77//15
f 83//16 76//16 79//16
f 75//17 74//17 77//17 78//17
f 78//18 77//18 80//18 81//18
f 79//19 78//19 81//19 82//19
f 77//20 87//20 80//20
f 83//21 79//21 82//21
f 83//22 82//22 86//22
f 81//23 80//23 84//23 85//23
f 82//24 81//24 85//24 86//24
f 80//25 87//25 84//25
f 90//10 89//10 92//10 93//10
f 88//11 104//11 91//11
f 100//12 90//12 93//12
f 89//13 88//13 91//13 92//13
f 93//14 92//14 95//14 96//14
f 91//15 104//15 94//15
f 100//16 93//16 96//16
f 92//17 91//17 94//17 95//17
f 95//18 94//18 97//18 98//18
f 96//19 95//19 98//19 99//19
f 94//20 104//20 97//20
f 100//21 96//21 99//21
f 100//22 99//22 103//22
f 98//23 97//23 101//23 102//23
f 99//24 98//24 102//24 103//24
f 97//25 104//25 101//25
f 108//26 106//26 112//26 113//26
f 113//27 112//27 111//27 114//27
f 107//28 108//28 113//28 114//28
f 106//29 105//29 111//29 112//29
f 105//30 107//30 114//30 111//30
f 121//4 120//4 126//4 127//4
f 122//1 121//1 127//1 129//1
f 126//5 125//5 129//5 127//5
f 130//5 128//5 124//5 123//5
f 116//1 115//1 123//1 124//1
f 119//27 122//27 129//27 125//27
f 118//3 117//3 128//3 130//3
f 117//27 116//27 124//27 128//27
f 120//3 119//3 125//3 126//3
f 115//4 118//4 130//4 123//4
l 110 109
