# Blender 4.1.1
# www.blender.org
o Cone.003
v -0.750638 -0.783994 0.046291 1.0000 0.1530 0.0000
v -0.713791 -0.783994 -0.091222 1.0000 0.1530 0.0000
v -0.576278 -0.783994 -0.054376 1.0000 0.1530 0.0000
v -0.613124 -0.783994 0.083138 1.0000 0.1530 0.0000
v -0.663458 -0.582660 -0.004042 1.0000 0.1530 0.0000
v -0.714212 -0.757297 0.025261 1.0000 0.5882 0.0000
v -0.692761 -0.757297 -0.054797 1.0000 0.5882 0.0000
v -0.612703 -0.757297 -0.033345 1.0000 0.5882 0.0000
v -0.634155 -0.757297 0.046712 1.0000 0.5882 0.0000
v -0.663458 -0.640085 -0.004042 1.0000 0.5882 0.0000
v 0.335230 -0.783994 -0.673217 1.0000 0.1530 0.0000
v 0.435897 -0.783994 -0.572550 1.0000 0.1530 0.0000
v 0.335230 -0.783994 -0.471883 1.0000 0.1530 0.0000
v 0.234563 -0.783994 -0.572550 1.0000 0.1530 0.0000
v 0.335230 -0.582660 -0.572550 1.0000 0.1530 0.0000
v 0.335230 -0.757297 -0.631156 1.0000 0.5882 0.0000
v 0.393836 -0.757297 -0.572550 1.0000 0.5882 0.0000
v 0.335230 -0.757297 -0.513944 1.0000 0.5882 0.0000
v 0.276624 -0.757297 -0.572550 1.0000 0.5882 0.0000
v 0.335230 -0.640085 -0.572550 1.0000 0.5882 0.0000
v -0.335230 -0.783994 0.673217 1.0000 0.1530 0.0000
v -0.435897 -0.783994 0.572550 1.0000 0.1530 0.0000
v -0.335230 -0.783994 0.471883 1.0000 0.1530 0.0000
v -0.234563 -0.783994 0.572550 1.0000 0.1530 0.0000
v -0.335230 -0.582660 0.572550 1.0000 0.1530 0.0000
v -0.335230 -0.757297 0.631156 1.0000 0.5882 0.0000
v -0.393836 -0.757297 0.572550 1.0000 0.5882 0.0000
v -0.335230 -0.757297 0.513944 1.0000 0.5882 0.0000
v -0.276624 -0.757297 0.572550 1.0000 0.5882 0.0000
v -0.335230 -0.640085 0.572550 1.0000 0.5882 0.0000
v 0.750638 -0.783994 -0.046291 1.0000 0.1530 0.0000
v 0.713791 -0.783994 0.091223 1.0000 0.1530 0.0000
v 0.576278 -0.783994 0.054376 1.0000 0.1530 0.0000
v 0.613124 -0.783994 -0.083138 1.0000 0.1530 0.0000
v 0.663458 -0.582660 0.004042 1.0000 0.1530 0.0000
v 0.714212 -0.757297 -0.025261 1.0000 0.5882 0.0000
v 0.692761 -0.757297 0.054797 1.0000 0.5882 0.0000
v 0.612704 -0.757297 0.033345 1.0000 0.5882 0.0000
v 0.634155 -0.757297 -0.046712 1.0000 0.5882 0.0000
v 0.663458 -0.640085 0.004042 1.0000 0.5882 0.0000
v 0.415408 -0.783994 0.626926 1.0000 0.1530 0.0000
v 0.277895 -0.783994 0.663773 1.0000 0.1530 0.0000
v 0.241048 -0.783994 0.526259 1.0000 0.1530 0.0000
v 0.378562 -0.783994 0.489412 1.0000 0.1530 0.0000
v 0.328228 -0.582660 0.576593 1.0000 0.1530 0.0000
v 0.378982 -0.757297 0.605896 1.0000 0.5882 0.0000
v 0.298925 -0.757297 0.627347 1.0000 0.5882 0.0000
v 0.277474 -0.757297 0.547290 1.0000 0.5882 0.0000
v 0.357531 -0.757297 0.525838 1.0000 0.5882 0.0000
v 0.328228 -0.640085 0.576593 1.0000 0.5882 0.0000
v -0.415408 -0.783994 -0.626926 1.0000 0.1530 0.0000
v -0.277895 -0.783994 -0.663773 1.0000 0.1530 0.0000
v -0.241048 -0.783994 -0.526259 1.0000 0.1530 0.0000
v -0.378562 -0.783994 -0.489412 1.0000 0.1530 0.0000
v -0.328228 -0.582660 -0.576593 1.0000 0.1530 0.0000
v -0.378982 -0.757297 -0.605896 1.0000 0.5882 0.0000
v -0.298925 -0.757297 -0.627347 1.0000 0.5882 0.0000
v -0.277474 -0.757297 -0.547289 1.0000 0.5882 0.0000
v -0.357531 -0.757297 -0.525838 1.0000 0.5882 0.0000
v -0.328228 -0.640085 -0.576593 1.0000 0.5882 0.0000
vn 0.9107 -0.3333 0.2440
vn -0.2440 -0.3333 0.9107
vn -0.0000 1.0000 -0.0000
vn -0.9107 -0.3333 -0.2440
vn 0.2440 -0.3333 -0.9107
vn -0.9107 0.3333 -0.2440
vn 0.2440 0.3333 -0.9107
vn -0.0000 -1.0000 -0.0000
vn 0.9107 0.3333 0.2440
vn -0.2440 0.3333 0.9107
vn -0.6667 -0.3333 0.6667
vn -0.6667 -0.3333 -0.6667
vn 0.6667 -0.3333 -0.6667
vn 0.6667 -0.3333 0.6667
vn 0.6667 0.3333 -0.6667
vn 0.6667 0.3333 0.6667
vn -0.6667 0.3333 0.6667
vn -0.6667 0.3333 -0.6667
vn -0.2440 -0.3333 -0.9107
vn 0.9107 -0.3333 -0.2440
vn 0.2440 -0.3333 0.9107
vn -0.9107 -0.3333 0.2440
vn 0.2440 0.3333 0.9107
vn -0.9107 0.3333 0.2440
vn -0.2440 0.3333 -0.9107
vn 0.9107 0.3333 -0.2440
s 0
f 1//1 2//1 5//1
f 2//2 3//2 5//2
f 1//3 4//3 3//3 2//3
f 3//4 4//4 5//4
f 4//5 1//5 5//5
f 6//6 10//6 7//6
f 7//7 10//7 8//7
f 6//8 7//8 8//8 9//8
f 8//9 10//9 9//9
f 9//10 10//10 6//10
f 11//11 12//11 15//11
f 12//12 13//12 15//12
f 11//3 14//3 13//3 12//3
f 13//13 14//13 15//13
f 14//14 11//14 15//14
f 16//15 20//15 17//15
f 17//16 20//16 18//16
f 16//8 17//8 18//8 19//8
f 18//17 20//17 19//17
f 19//18 20//18 16//18
f 21//13 22//13 25//13
f 22//14 23//14 25//14
f 21//3 24//3 23//3 22//3
f 23//11 24//11 25//11
f 24//12 21//12 25//12
f 26//17 30//17 27//17
f 27//18 30//18 28//18
f 26//8 27//8 28//8 29//8
f 28//15 30//15 29//15
f 29//16 30//16 26//16
f 31//4 32//4 35//4
f 32//5 33//5 35//5
f 31//3 34//3 33//3 32//3
f 33//1 34//1 35//1
f 34//2 31//2 35//2
f 36//9 40//9 37//9
f 37//10 40//10 38//10
f 36//8 37//8 38//8 39//8
f 38//6 40//6 39//6
f 39//7 40//7 36//7
f 41//19 42//19 45//19
f 42//20 43//20 45//20
f 41//3 44//3 43//3 42//3
f 43//21 44//21 45//21
f 44//22 41//22 45//22
f 46//23 50//23 47//23
f 47//24 50//24 48//24
f 46//8 47//8 48//8 49//8
f 48//25 50//25 49//25
f 49//26 50//26 46//26
f 51//21 52//21 55//21
f 52//22 53//22 55//22
f 51//3 54//3 53//3 52//3
f 53//19 54//19 55//19
f 54//20 51//20 55//20
f 56//25 60//25 57//25
f 57//26 60//26 58//26
f 56//8 57//8 58//8 59//8
f 58//23 60//23 59//23
f 59//24 60//24 56//24
