# Blender 4.1.1
# www.blender.org
o Cylinder
v 0.000000 -0.037418 -2.035730 0.7255 0.7255 0.7255
v 0.000000 0.877908 -1.808844 0.7255 0.7255 0.7255
v 1.439478 -0.037418 -1.439478 0.7255 0.7255 0.7255
v 1.279046 0.877908 -1.279046 0.7255 0.7255 0.7255
v 2.035730 -0.037418 -0.000000 0.7255 0.7255 0.7255
v 1.808844 0.877908 -0.000000 0.7255 0.7255 0.7255
v 1.439478 -0.037418 1.439478 0.7255 0.7255 0.7255
v 1.279046 0.877908 1.279046 0.7255 0.7255 0.7255
v 0.000000 -0.037418 2.035730 0.7255 0.7255 0.7255
v 0.000000 0.877908 1.808844 0.7255 0.7255 0.7255
v -1.439478 -0.037418 1.439478 0.7255 0.7255 0.7255
v -1.279046 0.877908 1.279046 0.7255 0.7255 0.7255
v -2.035730 -0.037418 -0.000000 0.7255 0.7255 0.7255
v -1.808844 0.877908 -0.000000 0.7255 0.7255 0.7255
v -1.439478 -0.037418 -1.439478 0.7255 0.7255 0.7255
v -1.279046 0.877908 -1.279046 0.7255 0.7255 0.7255
v 1.439478 0.877908 -1.439478 0.7255 0.7255 0.7255
v 0.000000 0.877908 -2.035730 0.7255 0.7255 0.7255
v 2.035730 0.877908 -0.000000 0.7255 0.7255 0.7255
v 1.439478 0.877908 1.439478 0.7255 0.7255 0.7255
v 0.000000 0.877908 2.035730 0.7255 0.7255 0.7255
v -1.439478 0.877908 1.439478 0.7255 0.7255 0.7255
v -2.035730 0.877908 -0.000000 0.7255 0.7255 0.7255
v -1.439478 0.877908 -1.439478 0.7255 0.7255 0.7255
v 0.000000 0.237570 -0.331457 0.7255 0.7255 0.7255
v 0.234376 0.237570 -0.234376 0.7255 0.7255 0.7255
v 0.331457 0.237570 0.000000 0.7255 0.7255 0.7255
v 0.234376 0.237570 0.234376 0.7255 0.7255 0.7255
v 0.000000 0.237570 0.331457 0.7255 0.7255 0.7255
v -0.234376 0.237570 0.234376 0.7255 0.7255 0.7255
v -0.331457 0.237570 0.000000 0.7255 0.7255 0.7255
v -0.234376 0.237570 -0.234376 0.7255 0.7255 0.7255
v 1.279046 0.237570 -1.279046 0.7255 0.7255 0.7255
v 0.000000 0.237570 -1.808844 0.7255 0.7255 0.7255
v 1.808844 0.237570 -0.000000 0.7255 0.7255 0.7255
v 1.279046 0.237570 1.279046 0.7255 0.7255 0.7255
v 0.000000 0.237570 1.808844 0.7255 0.7255 0.7255
v -1.279046 0.237570 1.279046 0.7255 0.7255 0.7255
v -1.808844 0.237570 -0.000000 0.7255 0.7255 0.7255
v -1.279046 0.237570 -1.279046 0.7255 0.7255 0.7255
v 0.000000 1.231379 -0.331457 0.7255 0.7255 0.7255
v 0.234376 1.231379 -0.234376 0.7255 0.7255 0.7255
v 0.331457 1.231379 0.000000 0.7255 0.7255 0.7255
v 0.234376 1.231379 0.234376 0.7255 0.7255 0.7255
v 0.000000 1.231379 0.331457 0.7255 0.7255 0.7255
v -0.234376 1.231379 0.234376 0.7255 0.7255 0.7255
v -0.331457 1.231379 0.000000 0.7255 0.7255 0.7255
v -0.234376 1.231379 -0.234376 0.7255 0.7255 0.7255
v 0.000000 1.805559 -1.337094 0.7255 0.7255 0.7255
v 0.945468 1.805559 -0.945468 0.7255 0.7255 0.7255
v 1.337094 1.805559 0.000000 0.7255 0.7255 0.7255
v 0.945468 1.805559 0.945468 0.7255 0.7255 0.7255
v 0.000000 1.805559 1.337094 0.7255 0.7255 0.7255
v -0.945468 1.805559 0.945468 0.7255 0.7255 0.7255
v -1.337094 1.805559 0.000000 0.7255 0.7255 0.7255
v -0.945468 1.805559 -0.945468 0.7255 0.7255 0.7255
v 0.000000 1.805559 -1.124230 0.7255 0.7255 0.7255
v 0.794951 1.805559 -0.794951 0.7255 0.7255 0.7255
v 1.124230 1.805559 0.000000 0.7255 0.7255 0.7255
v 0.794951 1.805559 0.794951 0.7255 0.7255 0.7255
v 0.000000 1.805559 1.124230 0.7255 0.7255 0.7255
v -0.794951 1.805559 0.794951 0.7255 0.7255 0.7255
v -1.124230 1.805559 0.000000 0.7255 0.7255 0.7255
v -0.794951 1.805559 -0.794951 0.7255 0.7255 0.7255
v 0.000000 1.346062 -0.211750 0.7255 0.7255 0.7255
v 0.149730 1.346062 -0.149730 0.7255 0.7255 0.7255
v 0.211750 1.346062 -0.000000 0.7255 0.7255 0.7255
v 0.149730 1.346062 0.149730 0.7255 0.7255 0.7255
v 0.000000 1.346062 0.211750 0.7255 0.7255 0.7255
v -0.149730 1.346062 0.149730 0.7255 0.7255 0.7255
v -0.211750 1.346062 -0.000000 0.7255 0.7255 0.7255
v -0.149730 1.346062 -0.149730 0.7255 0.7255 0.7255
v 0.165268 2.271698 -0.165268 0.7255 0.7255 0.7255
v 0.000000 2.271698 -0.233724 0.7255 0.7255 0.7255
v 0.233724 2.271698 0.000000 0.7255 0.7255 0.7255
v 0.165268 2.271698 0.165268 0.7255 0.7255 0.7255
v 0.000000 2.271698 0.233724 0.7255 0.7255 0.7255
v -0.165268 2.271698 0.165268 0.7255 0.7255 0.7255
v -0.233724 2.271698 0.000000 0.7255 0.7255 0.7255
v -0.165268 2.271698 -0.165268 0.7255 0.7255 0.7255
v 0.429926 2.619529 -0.429926 0.7255 0.7255 0.7255
v 0.000000 2.619529 -0.608007 0.7255 0.7255 0.7255
v 0.608007 2.619529 0.000000 0.7255 0.7255 0.7255
v 0.429926 2.619529 0.429926 0.7255 0.7255 0.7255
v 0.000000 2.619529 0.608007 0.7255 0.7255 0.7255
v -0.429926 2.619529 0.429926 0.7255 0.7255 0.7255
v -0.608007 2.619529 0.000000 0.7255 0.7255 0.7255
v -0.429926 2.619529 -0.429926 0.7255 0.7255 0.7255
v 0.581925 2.619529 -0.581925 0.7255 0.7255 0.7255
v 0.000000 2.619529 -0.822966 0.7255 0.7255 0.7255
v 0.822966 2.619529 0.000000 0.7255 0.7255 0.7255
v 0.581925 2.619529 0.581925 0.7255 0.7255 0.7255
v 0.000000 2.619529 0.822966 0.7255 0.7255 0.7255
v -0.581925 2.619529 0.581925 0.7255 0.7255 0.7255
v -0.822966 2.619529 0.000000 0.7255 0.7255 0.7255
v -0.581925 2.619529 -0.581925 0.7255 0.7255 0.7255
v 0.115059 2.346071 -0.115059 0.7255 0.7255 0.7255
v 0.000000 2.346071 -0.162718 0.7255 0.7255 0.7255
v 0.162718 2.346071 -0.000000 0.7255 0.7255 0.7255
v 0.115059 2.346071 0.115059 0.7255 0.7255 0.7255
v 0.000000 2.346071 0.162718 0.7255 0.7255 0.7255
v -0.115059 2.346071 0.115059 0.7255 0.7255 0.7255
v -0.162718 2.346071 -0.000000 0.7255 0.7255 0.7255
v -0.115059 2.346071 -0.115059 0.7255 0.7255 0.7255
v 0.115059 3.019711 -0.115059 0.7255 0.7255 0.7255
v 0.000000 3.019711 -0.162718 0.7255 0.7255 0.7255
v 0.162718 3.019711 -0.000000 0.7255 0.7255 0.7255
v 0.115059 3.019711 0.115059 0.7255 0.7255 0.7255
v 0.000000 3.019711 0.162718 0.7255 0.7255 0.7255
v -0.115059 3.019711 0.115059 0.7255 0.7255 0.7255
v -0.162718 3.019711 -0.000000 0.7255 0.7255 0.7255
v -0.115059 3.019711 -0.115059 0.7255 0.7255 0.7255
v 0.244030 3.187655 -0.244030 0.7255 0.7255 0.7255
v 0.000000 3.187655 -0.345111 0.7255 0.7255 0.7255
v 0.345111 3.187655 -0.000000 0.7255 0.7255 0.7255
v 0.244030 3.187655 0.244030 0.7255 0.7255 0.7255
v 0.000000 3.187655 0.345111 0.7255 0.7255 0.7255
v -0.244030 3.187655 0.244030 0.7255 0.7255 0.7255
v -0.345111 3.187655 -0.000000 0.7255 0.7255 0.7255
v -0.244030 3.187655 -0.244030 0.7255 0.7255 0.7255
v -0.000000 3.370838 0.000000 0.7255 0.7255 0.7255
vn 0.3827 -0.0000 -0.9239
vn 0.9239 -0.0000 -0.3827
vn 0.9239 -0.0000 0.3827
vn 0.3827 -0.0000 0.9239
vn -0.3827 -0.0000 0.9239
vn -0.9239 -0.0000 0.3827
vn -0.3827 -0.0000 -0.9239
vn -0.9239 -0.0000 -0.3827
vn -0.0000 -1.0000 -0.0000
vn -0.0000 1.0000 -0.0000
vn -0.4857 -0.8507 0.2012
vn 0.2012 -0.8507 0.4857
vn 0.4857 -0.8507 -0.2012
vn -0.4857 -0.8507 -0.2012
vn -0.2012 -0.8507 0.4857
vn 0.4857 -0.8507 0.2012
vn 0.2012 -0.8507 -0.4857
vn -0.2012 -0.8507 -0.4857
vn 0.4422 0.8780 0.1831
vn 0.1831 0.8780 -0.4422
vn -0.4422 0.8780 -0.1831
vn -0.1831 0.8780 0.4422
vn 0.1831 0.8780 0.4422
vn 0.4422 0.8780 -0.1831
vn -0.1831 0.8780 -0.4422
vn -0.4422 0.8780 0.1831
vn -0.9237 -0.0219 0.3826
vn 0.2060 -0.8427 -0.4974
vn 0.3826 -0.0219 0.9237
vn 0.9237 -0.0219 -0.3826
vn -0.9237 -0.0219 -0.3826
vn -0.3826 -0.0219 0.9237
vn 0.9237 -0.0219 0.3826
vn 0.3826 -0.0219 -0.9237
vn -0.3826 -0.0219 -0.9237
vn 0.5114 0.8328 -0.2118
vn -0.2060 -0.8427 -0.4974
vn -0.4974 -0.8427 0.2060
vn 0.2060 -0.8427 0.4974
vn 0.4974 -0.8427 -0.2060
vn -0.4974 -0.8427 -0.2060
vn -0.2060 -0.8427 0.4974
vn 0.4974 -0.8427 0.2060
vn -0.2118 0.8328 -0.5114
vn -0.5114 0.8328 0.2118
vn 0.5114 0.8328 0.2118
vn 0.2118 0.8328 -0.5114
vn -0.5114 0.8328 -0.2118
vn -0.2118 0.8328 0.5114
vn 0.2118 0.8328 0.5114
vn 0.2701 -0.7083 0.6522
vn 0.4602 0.8671 -0.1906
vn 0.6522 -0.7083 -0.2701
vn -0.6522 -0.7083 -0.2701
vn -0.2701 -0.7083 0.6522
vn 0.6522 -0.7083 0.2701
vn 0.2701 -0.7083 -0.6522
vn -0.2701 -0.7083 -0.6522
vn -0.6522 -0.7083 0.2701
vn -0.4602 0.8671 -0.1906
vn -0.1906 0.8671 0.4602
vn 0.4602 0.8671 0.1906
vn 0.1906 0.8671 -0.4602
vn -0.1906 0.8671 -0.4602
vn -0.4602 0.8671 0.1906
vn 0.1906 0.8671 0.4602
s 0
f 1//1 18//1 17//1 3//1
f 3//2 17//2 19//2 5//2
f 5//3 19//3 20//3 7//3
f 7//4 20//4 21//4 9//4
f 9//5 21//5 22//5 11//5
f 11//6 22//6 23//6 13//6
f 10//7 8//7 36//7 37//7
f 13//8 23//8 24//8 15//8
f 15//7 24//7 18//7 1//7
f 1//9 3//9 5//9 7//9 9//9 11//9 13//9 15//9
f 2//10 4//10 17//10 18//10
f 4//10 6//10 19//10 17//10
f 6//10 8//10 20//10 19//10
f 8//10 10//10 21//10 20//10
f 10//10 12//10 22//10 21//10
f 12//10 14//10 23//10 22//10
f 14//10 16//10 24//10 23//10
f 16//10 2//10 18//10 24//10
f 25//7 32//7 48//7 41//7
f 6//6 4//6 33//6 35//6
f 16//3 14//3 39//3 40//3
f 12//1 10//1 37//1 38//1
f 8//8 6//8 35//8 36//8
f 4//5 2//5 34//5 33//5
f 2//4 16//4 40//4 34//4
f 14//2 12//2 38//2 39//2
f 25//10 26//10 33//10 34//10
f 26//10 27//10 35//10 33//10
f 27//10 28//10 36//10 35//10
f 28//10 29//10 37//10 36//10
f 29//10 30//10 38//10 37//10
f 30//10 31//10 39//10 38//10
f 31//10 32//10 40//10 39//10
f 32//10 25//10 34//10 40//10
f 31//6 30//6 46//6 47//6
f 29//4 28//4 44//4 45//4
f 27//2 26//2 42//2 43//2
f 32//8 31//8 47//8 48//8
f 30//5 29//5 45//5 46//5
f 28//3 27//3 43//3 44//3
f 26//1 25//1 41//1 42//1
f 47//11 46//11 54//11 55//11
f 45//12 44//12 52//12 53//12
f 43//13 42//13 50//13 51//13
f 48//14 47//14 55//14 56//14
f 46//15 45//15 53//15 54//15
f 44//16 43//16 51//16 52//16
f 42//17 41//17 49//17 50//17
f 41//18 48//18 56//18 49//18
f 50//10 49//10 57//10 58//10
f 49//10 56//10 64//10 57//10
f 55//10 54//10 62//10 63//10
f 53//10 52//10 60//10 61//10
f 51//10 50//10 58//10 59//10
f 56//10 55//10 63//10 64//10
f 54//10 53//10 61//10 62//10
f 52//10 51//10 59//10 60//10
f 64//19 63//19 71//19 72//19
f 62//20 61//20 69//20 70//20
f 60//21 59//21 67//21 68//21
f 58//22 57//22 65//22 66//22
f 57//23 64//23 72//23 65//23
f 63//24 62//24 70//24 71//24
f 61//25 60//25 68//25 69//25
f 59//26 58//26 66//26 67//26
f 71//27 70//27 78//27 79//27
f 73//28 74//28 90//28 89//28
f 69//29 68//29 76//29 77//29
f 67//30 66//30 73//30 75//30
f 72//31 71//31 79//31 80//31
f 70//32 69//32 77//32 78//32
f 68//33 67//33 75//33 76//33
f 66//34 65//34 74//34 73//34
f 65//35 72//35 80//35 74//35
f 87//36 86//36 102//36 103//36
f 74//37 80//37 96//37 90//37
f 79//38 78//38 94//38 95//38
f 77//39 76//39 92//39 93//39
f 75//40 73//40 89//40 91//40
f 80//41 79//41 95//41 96//41
f 78//42 77//42 93//42 94//42
f 76//43 75//43 91//43 92//43
f 82//10 81//10 89//10 90//10
f 81//10 83//10 91//10 89//10
f 83//10 84//10 92//10 91//10
f 84//10 85//10 93//10 92//10
f 85//10 86//10 94//10 93//10
f 86//10 87//10 95//10 94//10
f 87//10 88//10 96//10 95//10
f 88//10 82//10 90//10 96//10
f 103//6 102//6 110//6 111//6
f 85//44 84//44 100//44 101//44
f 83//45 81//45 97//45 99//45
f 88//46 87//46 103//46 104//46
f 86//47 85//47 101//47 102//47
f 84//48 83//48 99//48 100//48
f 81//49 82//49 98//49 97//49
f 82//50 88//50 104//50 98//50
f 109//51 108//51 116//51 117//51
f 101//4 100//4 108//4 109//4
f 99//2 97//2 105//2 107//2
f 104//8 103//8 111//8 112//8
f 102//5 101//5 109//5 110//5
f 100//3 99//3 107//3 108//3
f 97//1 98//1 106//1 105//1
f 98//7 104//7 112//7 106//7
f 115//52 113//52 121//52
f 107//53 105//53 113//53 115//53
f 112//54 111//54 119//54 120//54
f 110//55 109//55 117//55 118//55
f 108//56 107//56 115//56 116//56
f 105//57 106//57 114//57 113//57
f 106//58 112//58 120//58 114//58
f 111//59 110//59 118//59 119//59
f 120//60 119//60 121//60
f 118//61 117//61 121//61
f 116//62 115//62 121//62
f 113//63 114//63 121//63
f 114//64 120//64 121//64
f 119//65 118//65 121//65
f 117//66 116//66 121//66
