# Blender 4.1.1
# www.blender.org
o lamp
v -0.000000 -0.205854 -0.104972 0.6980 0.5294 0.3333
v -0.000000 -0.181660 -0.104972 0.6980 0.5294 0.3333
v 0.090909 -0.205854 -0.052486 0.6980 0.5294 0.3333
v 0.090909 -0.181660 -0.052486 0.6980 0.5294 0.3333
v 0.090909 -0.205854 0.052486 0.6980 0.5294 0.3333
v 0.090909 -0.181660 0.052486 0.6980 0.5294 0.3333
v -0.000000 -0.205854 0.104972 0.6980 0.5294 0.3333
v -0.000000 -0.181660 0.104972 0.6980 0.5294 0.3333
v -0.090909 -0.205854 0.052486 0.6980 0.5294 0.3333
v -0.090909 -0.181660 0.052486 0.6980 0.5294 0.3333
v -0.090909 -0.205854 -0.052486 0.6980 0.5294 0.3333
v -0.090909 -0.181660 -0.052486 0.6980 0.5294 0.3333
v -0.000000 -0.182902 -0.019521 0.7686 0.5843 0.3647
v -0.000000 0.156630 -0.019521 0.7686 0.5843 0.3647
v 0.016906 -0.182902 -0.009761 0.7686 0.5843 0.3647
v 0.016906 0.156630 -0.009761 0.7686 0.5843 0.3647
v 0.016906 -0.182902 0.009761 0.7686 0.5843 0.3647
v 0.016906 0.156630 0.009761 0.7686 0.5843 0.3647
v -0.000000 -0.182902 0.019521 0.7686 0.5843 0.3647
v -0.000000 0.156630 0.019521 0.7686 0.5843 0.3647
v -0.016906 -0.182902 0.009761 0.7686 0.5843 0.3647
v -0.016906 0.156630 0.009761 0.7686 0.5843 0.3647
v -0.016906 -0.182902 -0.009761 0.7686 0.5843 0.3647
v -0.016906 0.156630 -0.009761 0.7686 0.5843 0.3647
v -0.000000 0.018603 -0.153127 1.0000 0.7882 0.5843
v 0.132612 0.018603 -0.076564 1.0000 0.7882 0.5843
v 0.132612 0.018603 0.076564 1.0000 0.7882 0.5843
v -0.000000 0.018603 0.153127 1.0000 0.7882 0.5843
v -0.132612 0.018603 0.076564 1.0000 0.7882 0.5843
v -0.132612 0.018603 -0.076564 1.0000 0.7882 0.5843
v -0.000000 0.192143 -0.071252 1.0000 0.7882 0.5843
v 0.061706 0.192143 -0.035626 1.0000 0.7882 0.5843
v 0.061706 0.192143 0.035626 1.0000 0.7882 0.5843
v -0.000000 0.192143 0.071252 1.0000 0.7882 0.5843
v -0.061706 0.192143 0.035626 1.0000 0.7882 0.5843
v -0.061706 0.192143 -0.035626 1.0000 0.7882 0.5843
v -0.000000 0.018603 -0.144104 1.0000 0.7882 0.5843
v 0.124798 0.018603 -0.072052 1.0000 0.7882 0.5843
v 0.124798 0.018603 0.072052 1.0000 0.7882 0.5843
v -0.000000 0.018603 0.144104 1.0000 0.7882 0.5843
v -0.124798 0.018603 0.072052 1.0000 0.7882 0.5843
v -0.124798 0.018603 -0.072052 1.0000 0.7882 0.5843
v -0.000000 0.184436 -0.064880 1.0000 0.7882 0.5843
v 0.056188 0.184436 -0.032440 1.0000 0.7882 0.5843
v 0.056188 0.184436 0.032440 1.0000 0.7882 0.5843
v -0.000000 0.184436 0.064880 1.0000 0.7882 0.5843
v -0.056188 0.184436 0.032440 1.0000 0.7882 0.5843
v -0.056188 0.184436 -0.032440 1.0000 0.7882 0.5843
vn 0.5000 -0.0000 -0.8660
vn 1.0000 -0.0000 -0.0000
vn 0.5000 -0.0000 0.8660
vn -0.5000 -0.0000 0.8660
vn -0.0000 1.0000 -0.0000
vn -1.0000 -0.0000 -0.0000
vn -0.5000 -0.0000 -0.8660
vn -0.9257 0.3782 -0.0000
vn 0.4629 0.3782 0.8017
vn 0.4629 0.3782 -0.8017
vn -0.4629 0.3782 -0.8017
vn -0.4629 0.3782 0.8017
vn 0.9257 0.3782 -0.0000
vn 0.9240 -0.3823 -0.0000
vn -0.4620 -0.3823 -0.8002
vn -0.4620 -0.3823 0.8002
vn 0.4620 -0.3823 0.8002
vn 0.4620 -0.3823 -0.8002
vn -0.9240 -0.3823 -0.0000
vn -0.0000 -1.0000 -0.0000
s 0
f 1//1 2//1 4//1 3//1
f 3//2 4//2 6//2 5//2
f 5//3 6//3 8//3 7//3
f 7//4 8//4 10//4 9//4
f 4//5 2//5 12//5 10//5 8//5 6//5
f 9//6 10//6 12//6 11//6
f 11//7 12//7 2//7 1//7
f 13//1 14//1 16//1 15//1
f 15//2 16//2 18//2 17//2
f 17//3 18//3 20//3 19//3
f 19//4 20//4 22//4 21//4
f 21//6 22//6 24//6 23//6
f 23//7 24//7 14//7 13//7
f 30//8 29//8 35//8 36//8
f 28//9 27//9 33//9 34//9
f 26//10 25//10 31//10 32//10
f 25//11 30//11 36//11 31//11
f 29//12 28//12 34//12 35//12
f 27//13 26//13 32//13 33//13
f 32//5 31//5 36//5 35//5 34//5 33//5
f 42//14 48//14 47//14 41//14
f 40//15 46//15 45//15 39//15
f 38//16 44//16 43//16 37//16
f 37//17 43//17 48//17 42//17
f 41//18 47//18 46//18 40//18
f 39//19 45//19 44//19 38//19
f 44//20 45//20 46//20 47//20 48//20 43//20
f 25//20 26//20 38//20 37//20
f 26//20 27//20 39//20 38//20
f 27//20 28//20 40//20 39//20
f 28//20 29//20 41//20 40//20
f 29//20 30//20 42//20 41//20
f 30//20 25//20 37//20 42//20
