# Blender 4.1.1
# www.blender.org
o Cube
v -0.536818 -0.573321 0.087449 0.4980 0.3333 0.1804
v -0.536818 0.820034 0.087449 0.4980 0.3333 0.1804
v -0.624207 -0.654023 0.000000 0.4980 0.3333 0.1804
v -0.624207 0.833236 -0.000000 0.4980 0.3333 0.1804
v 0.536818 -0.573321 0.087449 0.4980 0.3333 0.1804
v 0.624207 -0.654023 0.000000 0.4980 0.3333 0.1804
v 0.624207 0.833236 -0.000000 0.4980 0.3333 0.1804
v -0.536818 0.141009 0.087449 0.4980 0.3333 0.1804
v 0.536818 0.141009 0.087449 0.4980 0.3333 0.1804
v -0.043695 -0.573321 0.087449 0.4980 0.3333 0.1804
v -0.123145 1.351080 0.087449 0.4980 0.3333 0.1804
v -0.043695 0.141009 0.087449 0.4980 0.3333 0.1804
v -0.536818 0.053619 0.087449 0.4980 0.3333 0.1804
v -0.624207 0.833236 0.087449 0.4980 0.3333 0.1804
v -0.125182 1.262723 0.037031 0.4980 0.3333 0.1804
v 0.043695 0.141009 0.087449 0.4980 0.3333 0.1804
v 0.624207 0.833236 0.087449 0.4980 0.3333 0.1804
v 0.536818 0.053619 0.087449 0.4980 0.3333 0.1804
v -0.406662 1.086419 0.037031 0.4980 0.3333 0.1804
v -0.043695 0.053619 0.087449 0.4980 0.3333 0.1804
v -0.624207 -0.660710 0.087449 0.4980 0.3333 0.1804
v -0.624207 0.097314 0.087449 0.4980 0.3333 0.1804
v 0.043695 -0.573321 0.087449 0.4980 0.3333 0.1804
v 0.043695 0.053619 0.087449 0.4980 0.3333 0.1804
v 0.624207 0.097314 0.087449 0.4980 0.3333 0.1804
v 0.624207 -0.660710 0.087449 0.4980 0.3333 0.1804
v 0.000000 -0.660710 0.087449 0.4980 0.3333 0.1804
v 0.000000 0.097314 0.087449 0.4980 0.3333 0.1804
v -0.536818 0.141009 0.037031 0.4980 0.3333 0.1804
v -0.536818 0.820034 0.037031 0.4980 0.3333 0.1804
v -0.462701 1.154762 0.087449 0.4980 0.3333 0.1804
v -0.043695 0.141009 0.037031 0.4980 0.3333 0.1804
v 0.536818 0.141009 0.037031 0.4980 0.3333 0.1804
v -0.462701 1.154762 -0.000000 0.4980 0.3333 0.1804
v 0.043695 0.141009 0.037031 0.4980 0.3333 0.1804
v -0.536818 -0.573321 0.037031 0.4980 0.3333 0.1804
v -0.536818 0.053619 0.037031 0.4980 0.3333 0.1804
v -0.043695 -0.573321 0.037031 0.4980 0.3333 0.1804
v -0.043695 0.053619 0.037031 0.4980 0.3333 0.1804
v 0.536818 0.053619 0.037031 0.4980 0.3333 0.1804
v 0.536818 -0.573321 0.037031 0.4980 0.3333 0.1804
v 0.043695 -0.573321 0.037031 0.4980 0.3333 0.1804
v 0.043695 0.053619 0.037031 0.4980 0.3333 0.1804
v -0.406662 1.086419 0.087449 0.4980 0.3333 0.1804
v -0.123145 1.351080 0.000000 0.4980 0.3333 0.1804
v -0.125182 1.262723 0.087449 0.4980 0.3333 0.1804
v 0.536818 0.820034 0.087449 0.4980 0.3333 0.1804
v 0.624207 0.833236 -0.000000 0.4980 0.3333 0.1804
v 0.123145 1.351080 0.087449 0.4980 0.3333 0.1804
v 0.125182 1.262723 0.037031 0.4980 0.3333 0.1804
v 0.406662 1.086419 0.037031 0.4980 0.3333 0.1804
v 0.536818 0.820034 0.037031 0.4980 0.3333 0.1804
v 0.462701 1.154762 0.087449 0.4980 0.3333 0.1804
v 0.462701 1.154762 -0.000000 0.4980 0.3333 0.1804
v 0.406662 1.086419 0.087449 0.4980 0.3333 0.1804
v 0.123145 1.351080 0.000000 0.4980 0.3333 0.1804
v 0.125182 1.262723 0.087449 0.4980 0.3333 0.1804
v -0.043695 1.267230 0.087449 0.4980 0.3333 0.1804
v 0.043695 1.267230 0.087449 0.4980 0.3333 0.1804
v 0.000000 1.267230 0.087449 0.4980 0.3333 0.1804
v -0.043695 1.267230 0.037031 0.4980 0.3333 0.1804
v 0.043695 1.267230 0.037031 0.4980 0.3333 0.1804
v -0.536818 0.856389 0.087449 0.4980 0.3333 0.1804
v 0.536818 0.856389 0.087449 0.4980 0.3333 0.1804
v -0.043695 0.856389 0.087449 0.4980 0.3333 0.1804
v -0.536818 0.768999 0.087449 0.4980 0.3333 0.1804
v 0.043695 0.856389 0.087449 0.4980 0.3333 0.1804
v 0.536818 0.768999 0.087449 0.4980 0.3333 0.1804
v -0.043695 0.768999 0.087449 0.4980 0.3333 0.1804
v -0.624207 0.812694 0.087449 0.4980 0.3333 0.1804
v 0.043695 0.768999 0.087449 0.4980 0.3333 0.1804
v 0.624207 0.812694 0.087449 0.4980 0.3333 0.1804
v 0.000000 0.812694 0.087449 0.4980 0.3333 0.1804
v -0.536818 0.856389 0.037031 0.4980 0.3333 0.1804
v -0.043695 0.856389 0.037031 0.4980 0.3333 0.1804
v 0.536818 0.856389 0.037031 0.4980 0.3333 0.1804
v 0.043695 0.856389 0.037031 0.4980 0.3333 0.1804
v -0.536818 0.768999 0.037031 0.4980 0.3333 0.1804
v -0.043695 0.768999 0.037031 0.4980 0.3333 0.1804
v 0.536818 0.768999 0.037031 0.4980 0.3333 0.1804
v 0.043695 0.768999 0.037031 0.4980 0.3333 0.1804
vn -1.0000 -0.0000 -0.0000
vn 1.0000 -0.0000 -0.0000
vn -0.0000 -1.0000 -0.0000
vn -0.0000 -0.9971 -0.0762
vn -0.0000 -0.0000 1.0000
vn -0.0000 1.0000 -0.0000
vn -0.8936 0.4489 -0.0000
vn -0.5005 0.8657 -0.0000
vn 0.5308 -0.8475 -0.0000
vn 0.8985 -0.4390 -0.0000
vn 0.8936 0.4489 -0.0000
vn 0.5005 0.8657 -0.0000
vn -0.5308 -0.8475 -0.0000
vn -0.8985 -0.4390 -0.0000
s 0
f 21//1 22//1 14//1 4//1 3//1
f 6//2 7//2 17//2 25//2 26//2
f 20//3 13//3 37//3 39//3
f 3//4 6//4 26//4 27//4 21//4
f 14//5 2//5 44//5 31//5
f 23//6 5//6 41//6 42//6
f 16//6 9//6 33//6 35//6
f 8//5 2//5 14//5 22//5
f 12//5 8//5 22//5 28//5
f 25//5 17//5 47//5 9//5
f 31//5 44//5 46//5 11//5
f 9//5 16//5 28//5 25//5
f 4//7 14//7 31//7 34//7
f 1//5 13//5 22//5 21//5
f 10//5 1//5 21//5 27//5
f 13//5 20//5 28//5 22//5
f 20//5 10//5 27//5 28//5
f 18//5 5//5 26//5 25//5
f 5//5 23//5 27//5 26//5
f 24//5 18//5 25//5 28//5
f 23//5 24//5 28//5 27//5
f 34//8 31//8 11//8 45//8
f 18//3 24//3 43//3 40//3
f 10//1 20//1 39//1 38//1
f 24//2 23//2 42//2 43//2
f 2//2 8//2 29//2 30//2
f 13//2 1//2 36//2 37//2
f 44//9 19//9 15//9 46//9
f 5//1 18//1 40//1 41//1
f 8//6 12//6 32//6 29//6
f 1//6 10//6 38//6 36//6
f 2//10 30//10 19//10 44//10
f 17//5 53//5 55//5 47//5
f 53//5 49//5 57//5 55//5
f 48//11 54//11 53//11 17//11
f 54//12 56//12 49//12 53//12
f 55//13 57//13 50//13 51//13
f 46//5 57//5 49//5 11//5
f 11//6 49//6 56//6 45//6
f 15//3 50//3 57//3 46//3
f 9//1 47//1 52//1 33//1
f 55//14 51//14 52//14 47//14
f 16//2 35//2 62//2 59//2
f 12//5 28//5 60//5 58//5
f 28//5 16//5 59//5 60//5
f 32//1 12//1 58//1 61//1
f 69//3 66//3 78//3 79//3
f 67//6 64//6 76//6 77//6
f 65//5 63//5 70//5 73//5
f 64//5 67//5 73//5 72//5
f 66//5 69//5 73//5 70//5
f 71//5 68//5 72//5 73//5
f 68//3 71//3 81//3 80//3
f 63//6 65//6 75//6 74//6
o Cube.002
v -0.536818 0.141009 0.037031 0.0039 0.0078 0.0902
v -0.043695 0.141009 0.037031 0.0039 0.0078 0.0902
v -0.536818 0.768999 0.037031 0.0039 0.0078 0.0902
v -0.043695 0.768999 0.037031 0.0039 0.0078 0.0902
v 0.043182 0.141009 0.037031 0.0039 0.0078 0.0902
v 0.537075 0.141009 0.037031 0.0039 0.0078 0.0902
v 0.043182 0.768999 0.037031 0.0039 0.0078 0.0902
v 0.537075 0.768999 0.037031 0.0039 0.0078 0.0902
v -0.536818 -0.573991 0.037031 0.0039 0.0078 0.0902
v -0.043695 -0.573991 0.037031 0.0039 0.0078 0.0902
v -0.536818 0.053999 0.037031 0.0039 0.0078 0.0902
v -0.043695 0.053999 0.037031 0.0039 0.0078 0.0902
v 0.043182 -0.573991 0.037031 0.0039 0.0078 0.0902
v 0.537075 -0.573991 0.037031 0.0039 0.0078 0.0902
v 0.043182 0.053999 0.037031 0.0039 0.0078 0.0902
v 0.537075 0.053999 0.037031 0.0039 0.0078 0.0902
v -0.125182 1.262723 0.037031 0.0039 0.0078 0.0902
v -0.406662 1.086419 0.037031 0.0039 0.0078 0.0902
v -0.043695 1.267230 0.037031 0.0039 0.0078 0.0902
v -0.536818 0.856389 0.037031 0.0039 0.0078 0.0902
v -0.043695 0.856389 0.037031 0.0039 0.0078 0.0902
v 0.125182 1.262723 0.037031 0.0039 0.0078 0.0902
v 0.406662 1.086419 0.037031 0.0039 0.0078 0.0902
v 0.043695 1.267230 0.037031 0.0039 0.0078 0.0902
v 0.536818 0.856389 0.037031 0.0039 0.0078 0.0902
v 0.043695 0.856389 0.037031 0.0039 0.0078 0.0902
vn -0.0000 -0.0000 1.0000
s 0
f 86//15 87//15 89//15 88//15
f 82//15 83//15 85//15 84//15
f 94//15 95//15 97//15 96//15
f 90//15 91//15 93//15 92//15
f 98//15 99//15 101//15 102//15 100//15
f 104//15 103//15 105//15 107//15 106//15
