# Blender 4.1.1
# www.blender.org
o plate
v 0.061851 -0.018790 -0.101015 1.0000 1.0000 1.0000
v 0.061851 -0.005840 -0.101015 1.0000 1.0000 1.0000
v 0.118407 -0.018790 0.003056 1.0000 1.0000 1.0000
v 0.118407 -0.005840 0.003056 1.0000 1.0000 1.0000
v 0.056557 -0.018790 0.104072 1.0000 1.0000 1.0000
v 0.056557 -0.005840 0.104072 1.0000 1.0000 1.0000
v -0.061851 -0.018790 0.101015 1.0000 1.0000 1.0000
v -0.061851 -0.005840 0.101015 1.0000 1.0000 1.0000
v -0.118407 -0.018790 -0.003056 1.0000 1.0000 1.0000
v -0.118407 -0.005840 -0.003056 1.0000 1.0000 1.0000
v -0.056557 -0.018790 -0.104072 1.0000 1.0000 1.0000
v -0.056557 -0.005840 -0.104072 1.0000 1.0000 1.0000
v 0.094024 -0.004859 -0.153561 1.0000 1.0000 1.0000
v 0.179999 -0.004859 0.004646 1.0000 1.0000 1.0000
v 0.179999 0.014828 0.004646 1.0000 1.0000 1.0000
v 0.094024 0.014828 -0.153561 1.0000 1.0000 1.0000
v 0.085976 -0.004859 0.158207 1.0000 1.0000 1.0000
v 0.085976 0.014828 0.158207 1.0000 1.0000 1.0000
v -0.094024 -0.004859 0.153561 1.0000 1.0000 1.0000
v -0.094024 0.014828 0.153561 1.0000 1.0000 1.0000
v -0.179999 -0.004859 -0.004646 1.0000 1.0000 1.0000
v -0.179999 0.014828 -0.004646 1.0000 1.0000 1.0000
v -0.085976 -0.004859 -0.158207 1.0000 1.0000 1.0000
v -0.085976 0.014828 -0.158207 1.0000 1.0000 1.0000
vn -0.2220 -0.9676 0.1206
vn -0.2154 -0.9676 -0.1319
vn 0.0065 -0.9676 -0.2525
vn -0.3080 0.9325 -0.1886
vn -0.0000 1.0000 -0.0000
vn 0.0093 0.9325 -0.3611
vn -0.3173 0.9325 0.1725
vn -0.0000 -1.0000 -0.0000
vn 0.8786 -0.0000 -0.4775
vn 0.8528 -0.0000 0.5222
vn -0.0258 -0.0000 0.9997
vn -0.8786 -0.0000 0.4775
vn -0.8528 -0.0000 -0.5222
vn 0.0258 -0.0000 -0.9997
vn -0.0093 0.9325 0.3611
vn 0.2220 -0.9676 -0.1206
vn -0.0065 -0.9676 0.2525
vn 0.3080 0.9325 0.1886
vn 0.2154 -0.9676 0.1319
vn 0.3173 0.9325 -0.1725
s 0
f 9//1 7//1 19//1 21//1
f 11//2 9//2 21//2 23//2
f 1//3 11//3 23//3 13//3
f 4//4 6//4 18//4 15//4
f 4//5 2//5 12//5 10//5 8//5 6//5
f 6//6 8//6 20//6 18//6
f 2//7 4//7 15//7 16//7
f 1//8 3//8 5//8 7//8 9//8 11//8
f 13//9 16//9 15//9 14//9
f 14//10 15//10 18//10 17//10
f 17//11 18//11 20//11 19//11
f 19//12 20//12 22//12 21//12
f 21//13 22//13 24//13 23//13
f 23//14 24//14 16//14 13//14
f 12//15 2//15 16//15 24//15
f 3//16 1//16 13//16 14//16
f 7//17 5//17 17//17 19//17
f 10//18 12//18 24//18 22//18
f 5//19 3//19 14//19 17//19
f 8//20 10//20 22//20 20//20
