# Blender 4.1.1
# www.blender.org
o sofa
v -0.708038 0.015643 1.216622 1.0000 0.7176 0.3372
v -0.708038 1.006801 1.216622 1.0000 0.7176 0.3372
v -0.708038 0.015643 -1.226264 1.0000 0.7176 0.3372
v -0.708038 1.006801 -1.226264 1.0000 0.7176 0.3372
v -0.057989 0.015643 1.216622 1.0000 0.7176 0.3372
v -0.335501 1.006801 1.216622 1.0000 0.7176 0.3372
v -0.057989 0.015643 -1.226264 1.0000 0.7176 0.3372
v -0.335501 1.006801 -1.226264 1.0000 0.7176 0.3372
v -0.708038 -0.424156 -1.226264 1.0000 0.7176 0.3372
v -0.708038 -0.424156 1.216622 1.0000 0.7176 0.3372
v 0.625880 0.015643 1.216622 1.0000 0.7176 0.3372
v 0.625880 0.015643 -1.226264 1.0000 0.7176 0.3372
v 0.625880 -0.424156 1.216622 1.0000 0.7176 0.3372
v 0.625880 -0.424156 -1.226264 1.0000 0.7176 0.3372
v -0.708038 0.015643 1.615037 1.0000 0.7176 0.3372
v -0.708038 0.615669 1.615037 1.0000 0.7176 0.3372
v -0.708038 0.615669 -1.614702 1.0000 0.7176 0.3372
v -0.708038 0.015643 -1.614702 1.0000 0.7176 0.3372
v -0.057989 0.015643 -1.614702 1.0000 0.7176 0.3372
v -0.205809 0.615669 -1.614702 1.0000 0.7176 0.3372
v -0.205809 0.615669 1.615037 1.0000 0.7176 0.3372
v -0.057989 0.015643 1.615037 1.0000 0.7176 0.3372
v -0.057989 -0.424156 -1.614702 1.0000 0.7176 0.3372
v -0.708038 -0.424156 -1.614702 1.0000 0.7176 0.3372
v -0.708038 -0.424156 1.615037 1.0000 0.7176 0.3372
v -0.057989 -0.424156 1.615037 1.0000 0.7176 0.3372
v 0.625880 0.015643 -1.614702 1.0000 0.7176 0.3372
v 0.625880 -0.424156 -1.614702 1.0000 0.7176 0.3372
v 0.625880 0.015643 1.615037 1.0000 0.7176 0.3372
v 0.625880 -0.424156 1.615037 1.0000 0.7176 0.3372
v -0.171181 0.433579 1.216622 1.0000 0.7176 0.3372
v 0.352540 0.433579 1.216622 1.0000 0.7176 0.3372
v 0.352540 0.433579 -1.226264 1.0000 0.7176 0.3372
v -0.171181 0.433579 -1.226264 1.0000 0.7176 0.3372
v -0.171181 0.433579 1.615037 1.0000 0.7176 0.3372
v 0.352540 0.433579 1.615037 1.0000 0.7176 0.3372
v 0.352540 0.433579 -1.614702 1.0000 0.7176 0.3372
v -0.171181 0.433579 -1.614702 1.0000 0.7176 0.3372
v 0.404077 -0.501284 -1.411368 1.0000 0.9137 0.4432
v 0.404077 -0.403502 -1.411368 1.0000 0.9137 0.4432
v 0.404077 -0.501284 -1.586256 1.0000 0.9137 0.4432
v 0.404077 -0.403502 -1.586256 1.0000 0.9137 0.4432
v 0.578965 -0.501284 -1.411368 1.0000 0.9137 0.4432
v 0.578965 -0.403502 -1.411368 1.0000 0.9137 0.4432
v 0.578965 -0.501284 -1.586256 1.0000 0.9137 0.4432
v 0.578965 -0.403502 -1.586256 1.0000 0.9137 0.4432
v 0.434846 -0.556724 -1.555487 1.0000 0.9137 0.4432
v 0.434846 -0.556724 -1.442137 1.0000 0.9137 0.4432
v 0.548196 -0.556724 -1.555487 1.0000 0.9137 0.4432
v 0.548196 -0.556724 -1.442137 1.0000 0.9137 0.4432
v -0.655073 -0.501284 -1.411368 1.0000 0.9137 0.4432
v -0.655073 -0.403502 -1.411368 1.0000 0.9137 0.4432
v -0.655073 -0.501284 -1.586256 1.0000 0.9137 0.4432
v -0.655073 -0.403502 -1.586256 1.0000 0.9137 0.4432
v -0.480185 -0.501284 -1.411368 1.0000 0.9137 0.4432
v -0.480185 -0.403502 -1.411368 1.0000 0.9137 0.4432
v -0.480185 -0.501284 -1.586256 1.0000 0.9137 0.4432
v -0.480185 -0.403502 -1.586256 1.0000 0.9137 0.4432
v -0.624304 -0.556724 -1.555487 1.0000 0.9137 0.4432
v -0.624304 -0.556724 -1.442137 1.0000 0.9137 0.4432
v -0.510954 -0.556724 -1.555487 1.0000 0.9137 0.4432
v -0.510954 -0.556724 -1.442137 1.0000 0.9137 0.4432
v 0.404077 -0.501284 1.571286 1.0000 0.9137 0.4432
v 0.404077 -0.403502 1.571286 1.0000 0.9137 0.4432
v 0.404077 -0.501284 1.396398 1.0000 0.9137 0.4432
v 0.404077 -0.403502 1.396398 1.0000 0.9137 0.4432
v 0.578965 -0.501284 1.571286 1.0000 0.9137 0.4432
v 0.578965 -0.403502 1.571286 1.0000 0.9137 0.4432
v 0.578965 -0.501284 1.396398 1.0000 0.9137 0.4432
v 0.578965 -0.403502 1.396398 1.0000 0.9137 0.4432
v 0.434846 -0.556724 1.427167 1.0000 0.9137 0.4432
v 0.434846 -0.556724 1.540517 1.0000 0.9137 0.4432
v 0.548196 -0.556724 1.427167 1.0000 0.9137 0.4432
v 0.548196 -0.556724 1.540517 1.0000 0.9137 0.4432
v -0.655073 -0.501284 1.571286 1.0000 0.9137 0.4432
v -0.655073 -0.403502 1.571286 1.0000 0.9137 0.4432
v -0.655073 -0.501284 1.396398 1.0000 0.9137 0.4432
v -0.655073 -0.403502 1.396398 1.0000 0.9137 0.4432
v -0.480185 -0.501284 1.571286 1.0000 0.9137 0.4432
v -0.480185 -0.403502 1.571286 1.0000 0.9137 0.4432
v -0.480185 -0.501284 1.396398 1.0000 0.9137 0.4432
v -0.480185 -0.403502 1.396398 1.0000 0.9137 0.4432
v -0.624304 -0.556724 1.427167 1.0000 0.9137 0.4432
v -0.624304 -0.556724 1.540517 1.0000 0.9137 0.4432
v -0.510954 -0.556724 1.427167 1.0000 0.9137 0.4432
v -0.510954 -0.556724 1.540517 1.0000 0.9137 0.4432
v 0.382368 0.011821 0.780286 1.0000 0.8745 0.6510
v 0.345237 0.095127 1.151918 1.0000 0.8745 0.6510
v 0.008922 0.012488 0.757956 1.0000 0.8745 0.6510
v -0.016808 0.093499 1.120051 1.0000 0.8745 0.6510
v 0.384549 0.156253 0.748127 1.0000 0.8745 0.6510
v 0.347418 0.239560 1.119759 1.0000 0.8745 0.6510
v 0.011104 0.156921 0.725797 1.0000 0.8745 0.6510
v -0.014627 0.237931 1.087892 1.0000 0.8745 0.6510
v -0.059060 0.066994 0.657649 1.0000 0.8745 0.6510
v 0.469513 0.067785 0.697053 1.0000 0.8745 0.6510
v 0.420702 0.185064 1.220472 1.0000 0.8745 0.6510
v -0.100403 0.183128 1.176434 1.0000 0.8745 0.6510
v 0.338514 0.052961 0.962085 1.0000 0.8745 0.6510
v 0.016442 0.052338 0.937440 1.0000 0.8745 0.6510
v 0.018623 0.196770 0.905282 1.0000 0.8745 0.6510
v 0.340695 0.197394 0.929926 1.0000 0.8745 0.6510
v 0.434156 0.125361 0.953240 1.0000 0.8745 0.6510
v -0.077018 0.124371 0.914126 1.0000 0.8745 0.6510
v 0.189572 0.017473 0.792597 1.0000 0.8745 0.6510
v 0.165384 0.087826 1.106927 1.0000 0.8745 0.6510
v 0.191753 0.161906 0.760439 1.0000 0.8745 0.6510
v 0.167565 0.232258 1.074769 1.0000 0.8745 0.6510
v 0.197764 0.069036 0.684240 1.0000 0.8745 0.6510
v 0.159373 0.180696 1.183126 1.0000 0.8745 0.6510
v 0.179659 0.197082 0.917604 1.0000 0.8745 0.6510
v 0.177478 0.052650 0.949763 1.0000 0.8745 0.6510
v -0.126038 0.304301 -1.111830 1.0000 0.8745 0.6510
v 0.133698 0.023506 -1.100866 1.0000 0.8745 0.6510
v -0.133706 0.291779 -0.738006 1.0000 0.8745 0.6510
v 0.119143 0.019007 -0.737736 1.0000 0.8745 0.6510
v -0.017588 0.404835 -1.106238 1.0000 0.8745 0.6510
v 0.242147 0.124040 -1.095273 1.0000 0.8745 0.6510
v -0.025257 0.392313 -0.732413 1.0000 0.8745 0.6510
v 0.227593 0.119541 -0.732144 1.0000 0.8745 0.6510
v -0.136711 0.399623 -0.660453 1.0000 0.8745 0.6510
v -0.120423 0.411516 -1.190109 1.0000 0.8745 0.6510
v 0.245324 0.016307 -1.178140 1.0000 0.8745 0.6510
v 0.225649 0.008463 -0.655602 1.0000 0.8745 0.6510
v 0.001565 0.164928 -1.080858 1.0000 0.8745 0.6510
v -0.008801 0.158157 -0.758082 1.0000 0.8745 0.6510
v 0.099648 0.258691 -0.752489 1.0000 0.8745 0.6510
v 0.110015 0.265463 -1.075266 1.0000 0.8745 0.6510
v 0.058834 0.217184 -1.172820 1.0000 0.8745 0.6510
v 0.042380 0.206435 -0.660527 1.0000 0.8745 0.6510
v -0.113385 0.280010 -0.920510 1.0000 0.8745 0.6510
v 0.106149 0.043075 -0.918430 1.0000 0.8745 0.6510
v -0.004936 0.380544 -0.914917 1.0000 0.8745 0.6510
v 0.214599 0.143609 -0.912838 1.0000 0.8745 0.6510
v -0.123609 0.399834 -0.918324 1.0000 0.8745 0.6510
v 0.224823 0.023785 -0.915023 1.0000 0.8745 0.6510
v 0.104832 0.262077 -0.913877 1.0000 0.8745 0.6510
v -0.003618 0.161542 -0.919470 1.0000 0.8745 0.6510
vn -1.0000 -0.0000 -0.0000
vn 0.9630 0.2696 -0.0000
vn 1.0000 -0.0000 -0.0000
vn 0.9656 0.2581 0.0312
vn -0.0000 1.0000 -0.0000
vn -0.0000 0.7047 -0.7095
vn -0.0000 -0.0000 -1.0000
vn -0.0000 -0.0000 1.0000
vn 0.9656 0.2581 -0.0305
vn 0.8369 0.5474 -0.0000
vn -0.0000 0.7136 0.7006
vn -0.8744 -0.4853 -0.0000
vn 0.8744 -0.4853 -0.0000
vn -0.0000 -0.4853 0.8744
vn -0.0000 -0.4853 -0.8744
vn -0.0147 -0.9760 0.2173
vn -0.6547 0.7343 -0.1794
vn 0.0147 0.9760 -0.2173
vn 0.0231 0.8749 0.4837
vn 0.6418 -0.7150 0.2772
vn -0.6635 -0.7436 0.0825
vn -0.1341 -0.5834 0.8011
vn 0.0799 -0.8792 -0.4698
vn 0.6670 0.7293 -0.1527
vn 0.0095 0.5776 -0.8162
vn 0.6639 0.7463 -0.0481
vn -0.6767 -0.7219 0.1448
vn 0.6447 -0.7440 0.1753
vn -0.6413 0.7271 -0.2449
vn 0.1021 0.5942 -0.7978
vn -0.0124 -0.8693 -0.4941
vn 0.0010 -0.5874 0.8093
vn -0.1121 0.8717 0.4771
vn -0.7328 -0.6794 -0.0378
vn 0.5487 0.4677 0.6930
vn 0.7328 0.6794 0.0378
vn 0.9992 0.0265 -0.0290
vn -0.4826 -0.5432 -0.6871
vn -0.5950 -0.5022 0.6276
vn -0.0984 -0.9939 0.0497
vn -0.9967 -0.0317 -0.0748
vn 0.5471 0.5556 -0.6260
vn 0.0868 0.9934 0.0754
vn 0.6147 0.4740 -0.6305
vn -0.5447 -0.5459 0.6366
vn -0.5591 -0.4699 -0.6831
vn 0.5094 0.5215 0.6845
vn 0.1096 0.9938 -0.0178
vn -0.9997 -0.0138 0.0194
vn -0.0988 -0.9914 -0.0856
vn 0.9942 0.0189 0.1061
s 0
f 1//1 2//1 4//1 3//1
f 7//2 8//2 6//2 5//2
f 12//3 14//3 28//3 27//3
f 8//4 7//4 19//4 20//4
f 8//5 4//5 2//5 6//5
f 1//1 3//1 9//1 10//1
f 7//5 5//5 11//5 12//5
f 12//3 11//3 13//3 14//3
f 4//6 8//6 20//6 17//6
f 18//7 17//7 20//7 19//7
f 22//8 21//8 16//8 15//8
f 18//7 19//7 23//7 24//7
f 22//8 15//8 25//8 26//8
f 23//7 19//7 27//7 28//7
f 22//8 26//8 30//8 29//8
f 13//3 11//3 29//3 30//3
f 2//1 1//1 15//1 16//1
f 5//9 6//9 21//9 22//9
f 9//1 3//1 18//1 24//1
f 12//10 27//10 37//10 33//10
f 3//1 4//1 17//1 18//1
f 1//1 10//1 25//1 15//1
f 6//11 2//11 16//11 21//11
f 32//5 31//5 35//5 36//5
f 34//5 33//5 37//5 38//5
f 11//7 5//7 31//7 32//7
f 22//8 29//8 36//8 35//8
f 7//8 12//8 33//8 34//8
f 27//7 19//7 38//7 37//7
f 29//10 11//10 32//10 36//10
f 39//1 40//1 42//1 41//1
f 41//7 42//7 46//7 45//7
f 45//3 46//3 44//3 43//3
f 43//8 44//8 40//8 39//8
f 39//12 41//12 47//12 48//12
f 46//5 42//5 40//5 44//5
f 45//13 43//13 50//13 49//13
f 43//14 39//14 48//14 50//14
f 41//15 45//15 49//15 47//15
f 51//1 52//1 54//1 53//1
f 53//7 54//7 58//7 57//7
f 57//3 58//3 56//3 55//3
f 55//8 56//8 52//8 51//8
f 51//12 53//12 59//12 60//12
f 58//5 54//5 52//5 56//5
f 57//13 55//13 62//13 61//13
f 55//14 51//14 60//14 62//14
f 53//15 57//15 61//15 59//15
f 63//1 64//1 66//1 65//1
f 65//7 66//7 70//7 69//7
f 69//3 70//3 68//3 67//3
f 67//8 68//8 64//8 63//8
f 63//12 65//12 71//12 72//12
f 70//5 66//5 64//5 68//5
f 69//13 67//13 74//13 73//13
f 67//14 63//14 72//14 74//14
f 65//15 69//15 73//15 71//15
f 75//1 76//1 78//1 77//1
f 77//7 78//7 82//7 81//7
f 81//3 82//3 80//3 79//3
f 79//8 80//8 76//8 75//8
f 75//12 77//12 83//12 84//12
f 82//5 78//5 76//5 80//5
f 81//13 79//13 86//13 85//13
f 79//14 75//14 84//14 86//14
f 77//15 81//15 85//15 83//15
f 112//16 106//16 90//16 100//16
f 101//17 93//17 95//17 104//17
f 111//18 108//18 92//18 102//18
f 108//19 94//19 98//19 110//19
f 99//20 87//20 96//20 103//20
f 100//21 90//21 98//21 104//21
f 106//22 88//22 97//22 110//22
f 105//23 89//23 95//23 109//23
f 102//24 92//24 97//24 103//24
f 107//25 91//25 96//25 109//25
f 91//26 102//26 103//26 96//26
f 89//27 100//27 104//27 95//27
f 88//28 99//28 103//28 97//28
f 107//18 111//18 102//18 91//18
f 94//29 101//29 104//29 98//29
f 105//16 112//16 100//16 89//16
f 87//16 99//16 112//16 105//16
f 93//18 101//18 111//18 107//18
f 93//30 107//30 109//30 95//30
f 87//31 105//31 109//31 96//31
f 90//32 106//32 110//32 98//32
f 92//33 108//33 110//33 97//33
f 101//18 94//18 108//18 111//18
f 99//16 88//16 106//16 112//16
f 138//34 132//34 116//34 126//34
f 127//35 119//35 121//35 130//35
f 137//36 134//36 118//36 128//36
f 134//37 120//37 124//37 136//37
f 125//38 113//38 122//38 129//38
f 126//39 116//39 124//39 130//39
f 132//40 114//40 123//40 136//40
f 131//41 115//41 121//41 135//41
f 128//42 118//42 123//42 129//42
f 133//43 117//43 122//43 135//43
f 117//44 128//44 129//44 122//44
f 115//45 126//45 130//45 121//45
f 114//46 125//46 129//46 123//46
f 133//36 137//36 128//36 117//36
f 120//47 127//47 130//47 124//47
f 131//34 138//34 126//34 115//34
f 113//34 125//34 138//34 131//34
f 119//36 127//36 137//36 133//36
f 119//48 133//48 135//48 121//48
f 113//49 131//49 135//49 122//49
f 116//50 132//50 136//50 124//50
f 118//51 134//51 136//51 123//51
f 127//36 120//36 134//36 137//36
f 125//34 114//34 132//34 138//34
