# Blender 4.1.1
# www.blender.org
o Cube
v -0.536818 -0.536818 0.087449 0.4980 0.3333 0.1804
v -0.536818 0.536818 0.087449 0.4980 0.3333 0.1804
v -0.624207 -0.624207 0.000000 0.4980 0.3333 0.1804
v -0.624207 0.624207 0.000000 0.4980 0.3333 0.1804
v 0.536818 -0.536818 0.087449 0.4980 0.3333 0.1804
v 0.536818 0.536818 0.087449 0.4980 0.3333 0.1804
v 0.624207 -0.624207 0.000000 0.4980 0.3333 0.1804
v 0.624207 0.624207 0.000000 0.4980 0.3333 0.1804
v -0.536818 0.043695 0.087449 0.4980 0.3333 0.1804
v 0.536818 0.043695 0.087449 0.4980 0.3333 0.1804
v -0.043695 -0.536818 0.087449 0.4980 0.3333 0.1804
v -0.043695 0.536818 0.087449 0.4980 0.3333 0.1804
v -0.043695 0.043695 0.087449 0.4980 0.3333 0.1804
v -0.536818 -0.043695 0.087449 0.4980 0.3333 0.1804
v -0.624207 0.624207 0.087449 0.4980 0.3333 0.1804
v 0.043695 0.536818 0.087449 0.4980 0.3333 0.1804
v 0.043695 0.043695 0.087449 0.4980 0.3333 0.1804
v 0.624207 0.624207 0.087449 0.4980 0.3333 0.1804
v 0.536818 -0.043695 0.087449 0.4980 0.3333 0.1804
v 0.000000 0.624207 0.087449 0.4980 0.3333 0.1804
v -0.043695 -0.043695 0.087449 0.4980 0.3333 0.1804
v -0.624207 -0.624207 0.087449 0.4980 0.3333 0.1804
v -0.624207 0.000000 0.087449 0.4980 0.3333 0.1804
v 0.043695 -0.536818 0.087449 0.4980 0.3333 0.1804
v 0.043695 -0.043695 0.087449 0.4980 0.3333 0.1804
v 0.624207 0.000000 0.087449 0.4980 0.3333 0.1804
v 0.624207 -0.624207 0.087449 0.4980 0.3333 0.1804
v 0.000000 -0.624207 0.087449 0.4980 0.3333 0.1804
v 0.000000 0.000000 0.087449 0.4980 0.3333 0.1804
v -0.536818 0.043695 0.037031 0.4980 0.3333 0.1804
v -0.536818 0.536818 0.037031 0.4980 0.3333 0.1804
v -0.043695 0.536818 0.037031 0.4980 0.3333 0.1804
v -0.043695 0.043695 0.037031 0.4980 0.3333 0.1804
v 0.536818 0.536818 0.037031 0.4980 0.3333 0.1804
v 0.536818 0.043695 0.037031 0.4980 0.3333 0.1804
v 0.043695 0.536818 0.037031 0.4980 0.3333 0.1804
v 0.043695 0.043695 0.037031 0.4980 0.3333 0.1804
v -0.536818 -0.536818 0.037031 0.4980 0.3333 0.1804
v -0.536818 -0.043695 0.037031 0.4980 0.3333 0.1804
v -0.043695 -0.536818 0.037031 0.4980 0.3333 0.1804
v -0.043695 -0.043695 0.037031 0.4980 0.3333 0.1804
v 0.536818 -0.043695 0.037031 0.4980 0.3333 0.1804
v 0.536818 -0.536818 0.037031 0.4980 0.3333 0.1804
v 0.043695 -0.536818 0.037031 0.4980 0.3333 0.1804
v 0.043695 -0.043695 0.037031 0.4980 0.3333 0.1804
v -0.536818 0.043695 0.037031 0.0000 0.0157 0.3765
v -0.536818 0.536818 0.037031 0.0000 0.0157 0.3765
v -0.043695 0.536818 0.037031 0.0000 0.0157 0.3765
v -0.043695 0.043695 0.037031 0.0000 0.0157 0.3765
v 0.536818 0.536818 0.037031 0.0000 0.0157 0.3765
v 0.536818 0.043695 0.037031 0.0000 0.0157 0.3765
v 0.043695 0.536818 0.037031 0.0000 0.0157 0.3765
v 0.043695 0.043695 0.037031 0.0000 0.0157 0.3765
v -0.536818 -0.536818 0.037031 0.0000 0.0157 0.3765
v -0.536818 -0.043695 0.037031 0.0000 0.0157 0.3765
v -0.043695 -0.536818 0.037031 0.0000 0.0157 0.3765
v -0.043695 -0.043695 0.037031 0.0000 0.0157 0.3765
v 0.536818 -0.043695 0.037031 0.0000 0.0157 0.3765
v 0.536818 -0.536818 0.037031 0.0000 0.0157 0.3765
v 0.043695 -0.536818 0.037031 0.0000 0.0157 0.3765
v 0.043695 -0.043695 0.037031 0.0000 0.0157 0.3765
vn -1.0000 -0.0000 -0.0000
vn 1.0000 -0.0000 -0.0000
vn -0.0000 -1.0000 -0.0000
vn -0.0000 1.0000 -0.0000
vn -0.0000 -0.0000 1.0000
s 0
f 22//1 23//1 15//1 4//1 3//1
f 7//2 8//2 18//2 26//2 27//2
f 21//3 14//3 39//3 41//3
f 3//3 7//3 27//3 28//3 22//3
f 8//4 4//4 15//4 20//4 18//4
f 13//1 12//1 32//1 33//1
f 24//4 5//4 43//4 44//4
f 17//4 10//4 35//4 37//4
f 9//5 2//5 15//5 23//5
f 2//5 12//5 20//5 15//5
f 13//5 9//5 23//5 29//5
f 12//5 13//5 29//5 20//5
f 6//5 10//5 26//5 18//5
f 16//5 6//5 18//5 20//5
f 10//5 17//5 29//5 26//5
f 17//5 16//5 20//5 29//5
f 1//5 14//5 23//5 22//5
f 11//5 1//5 22//5 28//5
f 14//5 21//5 29//5 23//5
f 21//5 11//5 28//5 29//5
f 19//5 5//5 27//5 26//5
f 5//5 24//5 28//5 27//5
f 25//5 19//5 26//5 29//5
f 24//5 25//5 29//5 28//5
f 16//2 17//2 37//2 36//2
f 19//3 25//3 45//3 42//3
f 11//1 21//1 41//1 40//1
f 25//2 24//2 44//2 45//2
f 2//2 9//2 30//2 31//2
f 10//1 6//1 34//1 35//1
f 12//3 2//3 31//3 32//3
f 14//2 1//2 38//2 39//2
f 6//3 16//3 36//3 34//3
f 5//1 19//1 42//1 43//1
f 9//4 13//4 33//4 30//4
f 1//4 11//4 40//4 38//4
f 49//5 48//5 47//5 46//5
f 56//5 57//5 55//5 54//5
f 59//5 58//5 61//5 60//5
f 51//5 50//5 52//5 53//5
