# Blender 4.0.1
# www.blender.org
o runner_body.001
v -0.076482 0.124461 0.033101 1.0000 0.4628 0.9411
v -0.127043 0.024701 0.049330 1.0000 0.4628 0.9411
v -0.030815 0.118439 0.073157 1.0000 0.4628 0.9411
v 0.004427 0.151601 0.007699 1.0000 0.4628 0.9411
v -0.028290 -0.042501 -0.120619 0.0000 0.0000 0.0000
v -0.028290 -0.010935 -0.127049 0.0000 0.0000 0.0000
v -0.028290 -0.042501 -0.149113 0.0000 0.0000 0.0000
v -0.028290 -0.010935 -0.149113 0.0000 0.0000 0.0000
v 0.037144 -0.042501 -0.120619 0.0000 0.0000 0.0000
v 0.037144 -0.010935 -0.127049 0.0000 0.0000 0.0000
v 0.037144 -0.042501 -0.149113 0.0000 0.0000 0.0000
v 0.037144 -0.010935 -0.149113 0.0000 0.0000 0.0000
v -0.082312 -0.050187 -0.142176 0.0000 0.0000 0.0000
v -0.082312 -0.050187 -0.119906 0.0000 0.0000 0.0000
v -0.082312 -0.030468 -0.126336 0.0000 0.0000 0.0000
v -0.082312 -0.030468 -0.142176 0.0000 0.0000 0.0000
v 0.091167 -0.030468 -0.142176 0.0000 0.0000 0.0000
v 0.091167 -0.050187 -0.142176 0.0000 0.0000 0.0000
v 0.091167 -0.050187 -0.119906 0.0000 0.0000 0.0000
v 0.091167 -0.030468 -0.126336 0.0000 0.0000 0.0000
v -0.144202 -0.015910 -0.127588 0.0000 0.0000 0.0000
v 0.153056 -0.015910 -0.127588 0.0000 0.0000 0.0000
v 0.048009 0.020046 -0.138716 1.0000 0.0000 0.0000
v 0.093216 0.020046 -0.138716 1.0000 0.0000 0.0000
v 0.048009 0.058071 -0.124626 1.0000 0.0000 0.0000
v 0.093216 0.058071 -0.124626 1.0000 0.0000 0.0000
v 0.078733 0.073120 -0.119049 1.0000 0.0000 0.0000
v 0.070613 0.006405 -0.143771 1.0000 0.0000 0.0000
v -0.039256 0.020046 -0.138716 1.0000 0.0000 0.0000
v -0.084464 0.020046 -0.138716 1.0000 0.0000 0.0000
v -0.039256 0.058071 -0.124626 1.0000 0.0000 0.0000
v -0.084464 0.058071 -0.124626 1.0000 0.0000 0.0000
v -0.071745 0.073120 -0.119049 1.0000 0.0000 0.0000
v -0.061860 0.006405 -0.143771 1.0000 0.0000 0.0000
v 0.102094 -0.166896 0.040368 0.0039 0.4980 0.0039
v 0.102094 -0.166896 -0.024519 0.0039 0.4980 0.0039
v -0.036028 -0.166896 -0.070401 0.0039 0.4980 0.0039
v -0.093240 -0.166896 -0.024519 0.0039 0.4980 0.0039
v -0.093240 -0.166896 0.040368 0.0039 0.4980 0.0039
v -0.036028 -0.166896 0.086250 0.0039 0.4980 0.0039
v 0.044882 -0.166896 0.086250 0.0039 0.4980 0.0039
v 0.044882 -0.166896 -0.070401 0.0039 0.4980 0.0039
v -0.060872 -0.082572 -0.112432 0.0039 0.4980 0.0039
v -0.153220 -0.082572 -0.042061 0.0039 0.4980 0.0039
v -0.153220 -0.082572 0.057459 0.0039 0.4980 0.0039
v -0.060872 -0.082572 0.127831 0.0039 0.4980 0.0039
v 0.069727 -0.082572 0.127831 0.0039 0.4980 0.0039
v 0.162074 -0.082572 0.057459 0.0039 0.4980 0.0039
v 0.162074 -0.082572 -0.042061 0.0039 0.4980 0.0039
v 0.069727 -0.082572 -0.112432 0.0039 0.4980 0.0039
v -0.071459 0.025241 -0.131908 0.0039 0.4980 0.0039
v -0.071459 0.025241 0.147307 0.0039 0.4980 0.0039
v 0.080313 0.025241 0.147307 0.0039 0.4980 0.0039
v 0.187633 0.025241 0.065527 0.0039 0.4980 0.0039
v 0.187633 0.025241 -0.050128 0.0039 0.4980 0.0039
v 0.080313 0.025241 -0.131908 0.0039 0.4980 0.0039
v -0.044796 0.153668 -0.082856 0.0039 0.4980 0.0039
v -0.114408 0.153668 -0.029810 0.0039 0.4980 0.0039
v 0.053650 0.153668 0.098255 0.0039 0.4980 0.0039
v 0.123262 0.153668 0.045209 0.0039 0.4980 0.0039
v 0.123262 0.153668 -0.029810 0.0039 0.4980 0.0039
v 0.053650 0.153668 -0.082856 0.0039 0.4980 0.0039
v 0.004427 0.198981 0.007699 0.0039 0.4980 0.0039
v -0.178778 0.025241 -0.050128 0.0039 0.4980 0.0039
v -0.178778 0.025241 0.065527 0.0039 0.4980 0.0039
v -0.044796 0.153668 0.098255 0.0039 0.4980 0.0039
v -0.130038 0.025570 -0.034335 1.0000 0.4628 0.9411
v -0.051323 0.025443 0.109641 1.0000 0.4628 0.9411
v -0.080784 0.118312 -0.019605 1.0000 0.4628 0.9411
v -0.127043 0.024701 0.049330 0.4000 0.0039 0.0000
v -0.030815 0.118439 0.073157 0.4000 0.0039 0.0000
v 0.004427 0.151601 0.007699 0.4000 0.0039 0.0000
v -0.071459 0.025241 0.147307 0.4000 0.0039 0.0000
v -0.114408 0.153668 -0.029810 0.4000 0.0039 0.0000
v 0.004427 0.198981 0.007699 0.4000 0.0039 0.0000
v -0.178778 0.025241 -0.050128 0.4000 0.0039 0.0000
v -0.178778 0.025241 0.065527 0.4000 0.0039 0.0000
v -0.044796 0.153668 0.098255 0.4000 0.0039 0.0000
v -0.130038 0.025570 -0.034335 0.4000 0.0039 0.0000
v -0.051323 0.025443 0.109641 0.4000 0.0039 0.0000
v -0.080784 0.118312 -0.019605 0.4000 0.0039 0.0000
v 0.102094 -0.166896 0.040368 1.0000 0.0000 0.0000
v 0.102094 -0.166896 -0.024519 1.0000 0.0000 0.0000
v -0.036028 -0.166896 -0.070401 1.0000 0.0000 0.0000
v -0.093240 -0.166896 -0.024519 1.0000 0.0000 0.0000
v -0.093240 -0.166896 0.040368 1.0000 0.0000 0.0000
v -0.036028 -0.166896 0.086250 1.0000 0.0000 0.0000
v 0.044882 -0.166896 0.086250 1.0000 0.0000 0.0000
v 0.044882 -0.166896 -0.070401 1.0000 0.0000 0.0000
v 0.002650 -0.193586 0.043183 1.0000 1.0000 1.0000
v 0.002650 -0.160719 0.043183 1.0000 1.0000 1.0000
v -0.032583 -0.193586 0.007950 1.0000 1.0000 1.0000
v -0.032583 -0.160719 0.007950 1.0000 1.0000 1.0000
v 0.037883 -0.193586 0.007950 1.0000 1.0000 1.0000
v 0.037883 -0.160719 0.007950 1.0000 1.0000 1.0000
v 0.002650 -0.193586 -0.027283 1.0000 1.0000 1.0000
v 0.002650 -0.160719 -0.027283 1.0000 1.0000 1.0000
vn -0.8850 0.4642 0.0365
vn -0.8905 0.4545 0.0197
vn -0.5718 0.4058 0.7130
vn -0.1938 0.9133 0.3583
vn -0.3399 0.9369 -0.0816
vn 0.0155 0.1996 0.9798
vn 0.0991 0.3085 0.9461
vn -0.0000 -0.0000 -1.0000
vn 0.1409 -0.9900 -0.0000
vn -0.0000 0.1996 0.9799
vn -0.0000 -1.0000 -0.0000
vn -0.0000 1.0000 -0.0000
vn 0.2294 -0.0000 -0.9733
vn -0.2290 0.9734 -0.0000
vn -0.1409 -0.9900 -0.0000
vn -0.1274 -0.0000 -0.9919
vn -0.0591 0.1993 0.9782
vn -0.0315 0.3099 0.9503
vn 0.3400 0.9404 -0.0000
vn 0.1274 -0.0000 -0.9919
vn -0.3400 0.9404 -0.0000
vn 0.2290 0.9734 -0.0000
vn -0.4845 -0.8748 -0.0000
vn -0.0536 0.3096 0.9494
vn 0.4845 -0.8748 -0.0000
vn -0.2294 -0.0000 -0.9733
vn 0.0536 0.3096 0.9494
vn -0.0000 0.3475 -0.9377
vn 0.5428 -0.4973 -0.6768
vn 0.5205 -0.5123 -0.6831
vn 0.5357 -0.5165 0.6680
vn 0.5264 -0.4957 0.6908
vn -0.5438 -0.4946 0.6780
vn -0.5215 -0.5096 0.6843
vn -0.5347 -0.5191 -0.6668
vn -0.5254 -0.4985 -0.6895
vn -0.0000 -0.4461 -0.8950
vn 0.8149 -0.5796 -0.0000
vn -0.0000 -0.4423 0.8969
vn -0.8149 -0.5796 -0.0000
vn -0.5940 -0.1991 -0.7795
vn -0.0000 -0.1778 -0.9841
vn 0.9730 -0.2307 -0.0000
vn -0.0000 -0.1778 0.9841
vn -0.9730 -0.2307 -0.0000
vn 0.5940 -0.1991 -0.7795
vn 0.5940 -0.1991 0.7794
vn 0.5940 -0.1991 0.7795
vn -0.5940 -0.1991 0.7795
vn 0.5569 0.3947 -0.7308
vn 0.5569 0.3947 0.7308
vn -0.5569 0.3947 -0.7308
vn -0.0000 0.3568 -0.9342
vn 0.8940 0.4481 -0.0000
vn -0.0000 0.3568 0.9342
vn 0.2464 0.9137 -0.3233
vn 0.2463 0.9137 0.3233
vn -0.2464 0.9137 -0.3233
vn -0.0000 0.8943 -0.4475
vn 0.3563 0.9344 -0.0000
vn -0.0000 0.8943 0.4475
vn 0.0104 0.9999 -0.0000
vn -0.0102 0.9999 0.0108
vn -0.8729 0.0011 -0.4878
vn -0.8819 0.0030 -0.4714
vn -0.3083 0.0040 0.9513
vn -0.2890 0.0014 0.9573
vn -0.8805 -0.0000 -0.4741
vn -0.8773 -0.0062 -0.4800
vn -0.0029 1.0000 0.0038
vn 0.0047 0.9998 -0.0182
vn -0.3012 -0.0112 0.9535
vn -0.3010 -0.0000 0.9536
vn -0.7071 -0.0000 0.7071
vn -0.7071 -0.0000 -0.7071
vn 0.7071 -0.0000 -0.7071
vn 0.7071 -0.0000 0.7071
s 0
f 69//1 67//1 2//1
f 69//2 2//2 1//2
f 2//3 68//3 3//3
f 2//3 3//3 1//3
f 4//4 1//4 3//4
f 69//5 1//5 4//5
f 10//6 9//6 19//6
f 10//7 19//7 20//7
f 7//8 8//8 12//8
f 7//8 12//8 11//8
f 7//9 5//9 14//9
f 7//9 14//9 13//9
f 9//10 10//10 6//10
f 9//10 6//10 5//10
f 7//11 11//11 9//11
f 7//11 9//11 5//11
f 12//12 8//12 6//12
f 12//12 6//12 10//12
f 18//13 17//13 22//13
f 17//14 20//14 22//14
f 9//15 11//15 18//15
f 9//15 18//15 19//15
f 8//16 7//16 13//16
f 8//16 13//16 16//16
f 5//17 6//17 15//17
f 5//18 15//18 14//18
f 12//19 10//19 20//19
f 12//19 20//19 17//19
f 11//20 12//20 17//20
f 11//20 17//20 18//20
f 6//21 8//21 16//21
f 6//21 16//21 15//21
f 15//22 16//22 21//22
f 13//23 14//23 21//23
f 20//24 19//24 22//24
f 19//25 18//25 22//25
f 16//26 13//26 21//26
f 14//27 15//27 21//27
f 23//28 25//28 26//28
f 23//28 26//28 24//28
f 25//28 27//28 26//28
f 23//28 24//28 28//28
f 29//28 30//28 32//28
f 29//28 32//28 31//28
f 31//28 32//28 33//28
f 29//28 34//28 30//28
f 36//29 42//29 50//29
f 36//30 50//30 49//30
f 41//31 35//31 48//31
f 41//32 48//32 47//32
f 39//33 40//33 46//33
f 39//34 46//34 45//34
f 37//35 38//35 44//35
f 37//36 44//36 43//36
f 42//37 37//37 43//37
f 42//37 43//37 50//37
f 35//38 36//38 49//38
f 35//38 49//38 48//38
f 40//39 41//39 47//39
f 40//39 47//39 46//39
f 38//40 39//40 45//40
f 38//40 45//40 44//40
f 43//41 44//41 64//41
f 43//41 64//41 51//41
f 50//42 43//42 51//42
f 50//42 51//42 56//42
f 48//43 49//43 55//43
f 48//43 55//43 54//43
f 46//44 47//44 53//44
f 46//44 53//44 52//44
f 44//45 45//45 65//45
f 44//45 65//45 64//45
f 49//46 50//46 56//46
f 49//46 56//46 55//46
f 47//47 48//47 54//47
f 47//48 54//48 53//48
f 45//49 46//49 52//49
f 45//49 52//49 65//49
f 55//50 56//50 62//50
f 55//50 62//50 61//50
f 53//51 54//51 60//51
f 53//51 60//51 59//51
f 51//52 64//52 58//52
f 51//52 58//52 57//52
f 56//53 51//53 57//53
f 56//53 57//53 62//53
f 54//54 55//54 61//54
f 54//54 61//54 60//54
f 52//55 53//55 59//55
f 52//55 59//55 66//55
f 61//56 62//56 63//56
f 59//57 60//57 63//57
f 57//58 58//58 63//58
f 62//59 57//59 63//59
f 60//60 61//60 63//60
f 66//61 59//61 63//61
f 76//62 77//62 70//62
f 76//63 70//63 79//63
f 78//64 71//64 80//64
f 78//65 80//65 73//65
f 74//66 76//66 79//66
f 74//67 79//67 81//67
f 75//68 72//68 71//68
f 75//69 71//69 78//69
f 77//70 73//70 80//70
f 77//71 80//71 70//71
f 74//72 81//72 72//72
f 74//73 72//73 75//73
f 82//11 87//11 85//11
f 91//74 92//74 90//74
f 93//75 96//75 92//75
f 97//76 94//76 96//76
f 95//77 90//77 94//77
f 96//11 90//11 92//11
f 93//12 95//12 97//12
f 85//11 84//11 89//11
f 89//11 83//11 82//11
f 82//11 88//11 87//11
f 87//11 86//11 85//11
f 85//11 89//11 82//11
f 91//74 93//74 92//74
f 93//75 97//75 96//75
f 97//76 95//76 94//76
f 95//77 91//77 90//77
f 96//11 94//11 90//11
f 93//12 91//12 95//12
