# Blender 4.0.1
# www.blender.org
o Cube
v -1.550296 0.575242 0.624758 0.5961 0.5961 0.5961
v -1.550296 0.724758 0.624758 0.5961 0.5961 0.5961
v -1.550296 0.575242 0.375242 0.5961 0.5961 0.5961
v -1.550296 0.724758 0.375242 0.5961 0.5961 0.5961
v 1.550296 0.575242 0.624758 0.5961 0.5961 0.5961
v 1.550296 0.724758 0.624758 0.5961 0.5961 0.5961
v 1.550296 0.575242 0.375242 0.5961 0.5961 0.5961
v 1.550296 0.724758 0.375242 0.5961 0.5961 0.5961
v -1.550296 0.575242 0.224758 0.5961 0.5961 0.5961
v -1.550296 0.724758 0.224758 0.5961 0.5961 0.5961
v -1.550296 0.575242 -0.024758 0.5961 0.5961 0.5961
v -1.550296 0.724758 -0.024758 0.5961 0.5961 0.5961
v 1.550296 0.575242 0.224758 0.5961 0.5961 0.5961
v 1.550296 0.724758 0.224758 0.5961 0.5961 0.5961
v 1.550296 0.575242 -0.024758 0.5961 0.5961 0.5961
v 1.550296 0.724758 -0.024758 0.5961 0.5961 0.5961
v -1.550296 0.575242 -0.175242 0.5961 0.5961 0.5961
v -1.550296 0.724758 -0.175242 0.5961 0.5961 0.5961
v -1.550296 0.575242 -0.424758 0.5961 0.5961 0.5961
v -1.550296 0.724758 -0.424758 0.5961 0.5961 0.5961
v 1.550296 0.575242 -0.175242 0.5961 0.5961 0.5961
v 1.550296 0.724758 -0.175242 0.5961 0.5961 0.5961
v 1.550296 0.575242 -0.424758 0.5961 0.5961 0.5961
v 1.550296 0.724758 -0.424758 0.5961 0.5961 0.5961
v -1.550296 0.589669 -0.516744 0.5961 0.5961 0.5961
v -1.550296 0.837010 -0.549624 0.5961 0.5961 0.5961
v -1.550296 0.569967 -0.664956 0.5961 0.5961 0.5961
v -1.550296 0.817307 -0.697836 0.5961 0.5961 0.5961
v 1.550296 0.589669 -0.516744 0.5961 0.5961 0.5961
v 1.550296 0.837010 -0.549624 0.5961 0.5961 0.5961
v 1.550296 0.569967 -0.664956 0.5961 0.5961 0.5961
v 1.550296 0.817307 -0.697836 0.5961 0.5961 0.5961
v -1.550296 0.986181 -0.569454 0.5961 0.5961 0.5961
v -1.550296 1.233521 -0.602334 0.5961 0.5961 0.5961
v -1.550296 0.966479 -0.717666 0.5961 0.5961 0.5961
v -1.550296 1.213819 -0.750546 0.5961 0.5961 0.5961
v 1.550296 0.986181 -0.569454 0.5961 0.5961 0.5961
v 1.550296 1.233521 -0.602334 0.5961 0.5961 0.5961
v 1.550296 0.966479 -0.717666 0.5961 0.5961 0.5961
v 1.550296 1.213819 -0.750546 0.5961 0.5961 0.5961
v -1.550296 1.382693 -0.622164 0.5961 0.5961 0.5961
v -1.550296 1.630033 -0.655044 0.5961 0.5961 0.5961
v -1.550296 1.362990 -0.770376 0.5961 0.5961 0.5961
v -1.550296 1.610331 -0.803256 0.5961 0.5961 0.5961
v 1.550296 1.382693 -0.622164 0.5961 0.5961 0.5961
v 1.550296 1.630033 -0.655044 0.5961 0.5961 0.5961
v 1.550296 1.362990 -0.770376 0.5961 0.5961 0.5961
v 1.550296 1.610331 -0.803256 0.5961 0.5961 0.5961
v -0.080452 0.525242 0.418277 0.4706 0.4706 0.4706
v -0.080452 0.574758 0.418277 0.4706 0.4706 0.4706
v -0.080452 0.525242 -0.664758 0.4706 0.4706 0.4706
v -0.080452 0.574758 -0.664758 0.4706 0.4706 0.4706
v 0.080452 0.525242 0.418277 0.4706 0.4706 0.4706
v 0.080452 0.574758 0.418277 0.4706 0.4706 0.4706
v 0.080452 0.525242 -0.664758 0.4706 0.4706 0.4706
v 0.080452 0.574758 -0.664758 0.4706 0.4706 0.4706
v -0.080452 0.574592 -0.697619 0.4706 0.4706 0.4706
v -0.080452 0.525408 -0.691898 0.4706 0.4706 0.4706
v 0.080452 0.525408 -0.691898 0.4706 0.4706 0.4706
v 0.080452 0.574592 -0.697619 0.4706 0.4706 0.4706
v -0.080452 1.599805 -0.800992 0.4706 0.4706 0.4706
v 0.080452 1.599805 -0.800992 0.4706 0.4706 0.4706
v -0.080452 1.593711 -0.840525 0.4706 0.4706 0.4706
v 0.080452 1.593711 -0.840525 0.4706 0.4706 0.4706
v 1.402138 1.063454 0.609495 0.4706 0.4706 0.4706
v 1.402138 1.169865 0.609495 0.4706 0.4706 0.4706
v 1.402138 1.055395 -0.599020 0.4706 0.4706 0.4706
v 1.402138 1.161806 -0.599020 0.4706 0.4706 0.4706
v 1.514959 1.063454 0.609495 0.4706 0.4706 0.4706
v 1.514959 1.169865 0.609495 0.4706 0.4706 0.4706
v 1.514959 1.055395 -0.599020 0.4706 0.4706 0.4706
v 1.514959 1.161806 -0.599020 0.4706 0.4706 0.4706
v 1.421676 1.084869 0.556306 0.4706 0.4706 0.4706
v 1.421676 0.714673 0.556306 0.4706 0.4706 0.4706
v 1.421676 1.084189 0.489855 0.4706 0.4706 0.4706
v 1.421676 0.713992 0.489855 0.4706 0.4706 0.4706
v 1.495421 1.084869 0.556306 0.4706 0.4706 0.4706
v 1.495421 0.714673 0.556306 0.4706 0.4706 0.4706
v 1.495421 1.084189 0.489855 0.4706 0.4706 0.4706
v 1.495421 0.713992 0.489855 0.4706 0.4706 0.4706
v -1.514749 1.063454 0.609495 0.4706 0.4706 0.4706
v -1.514749 1.169865 0.609495 0.4706 0.4706 0.4706
v -1.514749 1.055395 -0.599020 0.4706 0.4706 0.4706
v -1.514749 1.161806 -0.599020 0.4706 0.4706 0.4706
v -1.401927 1.063454 0.609495 0.4706 0.4706 0.4706
v -1.401927 1.169865 0.609495 0.4706 0.4706 0.4706
v -1.401927 1.055395 -0.599020 0.4706 0.4706 0.4706
v -1.401927 1.161806 -0.599020 0.4706 0.4706 0.4706
v -1.495211 1.084869 0.556306 0.4706 0.4706 0.4706
v -1.495211 0.714673 0.556306 0.4706 0.4706 0.4706
v -1.495211 1.084189 0.489855 0.4706 0.4706 0.4706
v -1.495211 0.713992 0.489855 0.4706 0.4706 0.4706
v -1.421466 1.084869 0.556306 0.4706 0.4706 0.4706
v -1.421466 0.714673 0.556306 0.4706 0.4706 0.4706
v -1.421466 1.084189 0.489855 0.4706 0.4706 0.4706
v -1.421466 0.713992 0.489855 0.4706 0.4706 0.4706
v -1.507527 0.583072 0.567404 0.4706 0.4706 0.4706
v -1.507527 0.363255 0.567404 0.4706 0.4706 0.4706
v -1.507527 0.582392 0.478757 0.4706 0.4706 0.4706
v -1.507527 0.362574 0.478757 0.4706 0.4706 0.4706
v -1.409149 0.583072 0.567404 0.4706 0.4706 0.4706
v -1.409149 0.363255 0.567404 0.4706 0.4706 0.4706
v -1.409149 0.582392 0.478757 0.4706 0.4706 0.4706
v -1.409149 0.362574 0.478757 0.4706 0.4706 0.4706
v -1.507527 0.595894 -0.540783 0.4706 0.4706 0.4706
v -1.507527 0.363255 -0.540783 0.4706 0.4706 0.4706
v -1.507527 0.595213 -0.629430 0.4706 0.4706 0.4706
v -1.507527 0.362574 -0.629430 0.4706 0.4706 0.4706
v -1.409149 0.595894 -0.540783 0.4706 0.4706 0.4706
v -1.409149 0.363255 -0.540783 0.4706 0.4706 0.4706
v -1.409149 0.595213 -0.629430 0.4706 0.4706 0.4706
v -1.409149 0.362574 -0.629430 0.4706 0.4706 0.4706
v 1.402069 0.583072 0.567404 0.4706 0.4706 0.4706
v 1.402069 0.363255 0.567404 0.4706 0.4706 0.4706
v 1.402069 0.582392 0.478757 0.4706 0.4706 0.4706
v 1.402069 0.362574 0.478757 0.4706 0.4706 0.4706
v 1.500448 0.583072 0.567404 0.4706 0.4706 0.4706
v 1.500448 0.363255 0.567404 0.4706 0.4706 0.4706
v 1.500448 0.582392 0.478757 0.4706 0.4706 0.4706
v 1.500448 0.362574 0.478757 0.4706 0.4706 0.4706
v 1.402069 0.595894 -0.540783 0.4706 0.4706 0.4706
v 1.402069 0.363255 -0.540783 0.4706 0.4706 0.4706
v 1.402069 0.595213 -0.629430 0.4706 0.4706 0.4706
v 1.402069 0.362574 -0.629430 0.4706 0.4706 0.4706
v 1.500448 0.595894 -0.540783 0.4706 0.4706 0.4706
v 1.500448 0.363255 -0.540783 0.4706 0.4706 0.4706
v 1.500448 0.595213 -0.629430 0.4706 0.4706 0.4706
v 1.500448 0.362574 -0.629430 0.4706 0.4706 0.4706
v -1.507527 0.281931 0.567404 0.4706 0.4706 0.4706
v -1.507527 0.281251 0.478757 0.4706 0.4706 0.4706
v -1.409149 0.281931 0.567404 0.4706 0.4706 0.4706
v -1.409149 0.281251 0.478757 0.4706 0.4706 0.4706
v -1.507527 0.281931 -0.540783 0.4706 0.4706 0.4706
v -1.507527 0.281251 -0.629430 0.4706 0.4706 0.4706
v -1.409149 0.281931 -0.540783 0.4706 0.4706 0.4706
v -1.409149 0.281251 -0.629430 0.4706 0.4706 0.4706
v 1.402069 0.281931 0.567404 0.4706 0.4706 0.4706
v 1.402069 0.281251 0.478757 0.4706 0.4706 0.4706
v 1.500448 0.281931 0.567404 0.4706 0.4706 0.4706
v 1.500448 0.281251 0.478757 0.4706 0.4706 0.4706
v 1.402069 0.281931 -0.540783 0.4706 0.4706 0.4706
v 1.402069 0.281251 -0.629430 0.4706 0.4706 0.4706
v 1.500448 0.281931 -0.540783 0.4706 0.4706 0.4706
v 1.500448 0.281251 -0.629430 0.4706 0.4706 0.4706
v -1.507527 -0.015709 0.567404 0.4706 0.4706 0.4706
v -1.507527 -0.016390 0.478757 0.4706 0.4706 0.4706
v -1.409149 -0.015709 0.567404 0.4706 0.4706 0.4706
v -1.409149 -0.016390 0.478757 0.4706 0.4706 0.4706
v -1.507527 -0.015709 -0.540783 0.4706 0.4706 0.4706
v -1.507527 -0.016390 -0.629430 0.4706 0.4706 0.4706
v -1.409149 -0.015709 -0.540783 0.4706 0.4706 0.4706
v -1.409149 -0.016390 -0.629430 0.4706 0.4706 0.4706
v 1.402069 -0.015709 0.567404 0.4706 0.4706 0.4706
v 1.402069 -0.016390 0.478757 0.4706 0.4706 0.4706
v 1.500448 -0.015709 0.567404 0.4706 0.4706 0.4706
v 1.500448 -0.016390 0.478757 0.4706 0.4706 0.4706
v 1.402069 -0.015709 -0.540783 0.4706 0.4706 0.4706
v 1.402069 -0.016390 -0.629430 0.4706 0.4706 0.4706
v 1.500448 -0.015709 -0.540783 0.4706 0.4706 0.4706
v 1.500448 -0.016390 -0.629430 0.4706 0.4706 0.4706
vn -1.0000 -0.0000 -0.0000
vn -0.0000 -0.0000 -1.0000
vn 1.0000 -0.0000 -0.0000
vn -0.0000 -0.0000 1.0000
vn -0.0000 -1.0000 -0.0000
vn -0.0000 1.0000 -0.0000
vn -0.0000 -0.1318 -0.9913
vn -0.0000 0.1318 0.9913
vn -0.0000 -0.9913 0.1318
vn -0.0000 0.9913 -0.1318
vn -0.0000 0.1317 0.9913
vn -0.0000 -0.1155 -0.9933
vn -0.0000 -1.0000 -0.0061
vn -0.0000 0.9883 -0.1523
vn -0.0000 -0.1389 -0.9903
vn -0.0000 -1.0000 0.0067
vn -0.0000 1.0000 -0.0067
vn -0.0000 1.0000 0.0007
vn -0.0000 -1.0000 -0.0007
s 0
f 1//1 2//1 4//1 3//1
f 3//2 4//2 8//2 7//2
f 7//3 8//3 6//3 5//3
f 5//4 6//4 2//4 1//4
f 3//5 7//5 5//5 1//5
f 8//6 4//6 2//6 6//6
f 9//1 10//1 12//1 11//1
f 11//2 12//2 16//2 15//2
f 15//3 16//3 14//3 13//3
f 13//4 14//4 10//4 9//4
f 11//5 15//5 13//5 9//5
f 16//6 12//6 10//6 14//6
f 17//1 18//1 20//1 19//1
f 19//2 20//2 24//2 23//2
f 23//3 24//3 22//3 21//3
f 21//4 22//4 18//4 17//4
f 19//5 23//5 21//5 17//5
f 24//6 20//6 18//6 22//6
f 25//1 26//1 28//1 27//1
f 27//7 28//7 32//7 31//7
f 31//3 32//3 30//3 29//3
f 29//8 30//8 26//8 25//8
f 27//9 31//9 29//9 25//9
f 32//10 28//10 26//10 30//10
f 33//1 34//1 36//1 35//1
f 35//7 36//7 40//7 39//7
f 39//3 40//3 38//3 37//3
f 37//8 38//8 34//8 33//8
f 35//9 39//9 37//9 33//9
f 40//10 36//10 34//10 38//10
f 41//1 42//1 44//1 43//1
f 43//7 44//7 48//7 47//7
f 47//3 48//3 46//3 45//3
f 45//8 46//8 42//8 41//8
f 43//9 47//9 45//9 41//9
f 48//10 44//10 42//10 46//10
f 49//1 50//1 52//1 51//1
f 52//11 56//11 62//11 61//11
f 55//3 56//3 54//3 53//3
f 51//5 55//5 53//5 49//5
f 56//6 52//6 50//6 54//6
f 58//12 57//12 60//12 59//12
f 51//1 52//1 57//1 58//1
f 56//3 55//3 59//3 60//3
f 55//13 51//13 58//13 59//13
f 61//14 62//14 64//14 63//14
f 56//3 60//3 64//3 62//3
f 60//15 57//15 63//15 64//15
f 57//1 52//1 61//1 63//1
f 65//1 66//1 68//1 67//1
f 81//1 82//1 84//1 83//1
f 71//3 72//3 70//3 69//3
f 74//4 78//4 77//4 73//4
f 67//16 71//16 69//16 65//16
f 72//17 68//17 66//17 70//17
f 76//1 74//1 73//1 75//1
f 90//4 94//4 93//4 89//4
f 78//3 80//3 79//3 77//3
f 87//3 88//3 86//3 85//3
f 65//4 69//4 70//4 66//4
f 75//2 79//2 80//2 76//2
f 83//16 87//16 85//16 81//16
f 88//17 84//17 82//17 86//17
f 92//1 90//1 89//1 91//1
f 94//3 96//3 95//3 93//3
f 81//4 85//4 86//4 82//4
f 91//2 95//2 96//2 92//2
f 98//4 102//4 101//4 97//4
f 100//1 98//1 97//1 99//1
f 102//3 104//3 103//3 101//3
f 99//2 103//2 104//2 100//2
f 106//4 110//4 109//4 105//4
f 108//1 106//1 105//1 107//1
f 110//3 112//3 111//3 109//3
f 107//2 111//2 112//2 108//2
f 114//4 118//4 117//4 113//4
f 116//1 114//1 113//1 115//1
f 118//3 120//3 119//3 117//3
f 115//2 119//2 120//2 116//2
f 122//4 126//4 125//4 121//4
f 124//1 122//1 121//1 123//1
f 126//3 128//3 127//3 125//3
f 123//2 127//2 128//2 124//2
f 118//4 114//4 137//4 139//4
f 122//1 124//1 142//1 141//1
f 108//2 112//2 136//2 134//2
f 98//1 100//1 130//1 129//1
f 128//3 126//3 143//3 144//3
f 124//2 128//2 144//2 142//2
f 104//3 102//3 131//3 132//3
f 104//3 132//3 135//3 110//3
f 114//1 116//1 138//1 137//1
f 100//18 104//18 110//18 106//18
f 120//3 118//3 139//3 140//3
f 130//1 100//1 106//1 133//1
f 141//1 138//1 116//1 122//1
f 102//4 98//4 129//4 131//4
f 106//1 108//1 134//1 133//1
f 112//3 110//3 135//3 136//3
f 139//4 137//4 153//4 155//4
f 129//1 130//1 146//1 145//1
f 137//1 138//1 154//1 153//1
f 130//2 132//2 148//2 146//2
f 138//2 140//2 156//2 154//2
f 136//3 135//3 151//3 152//3
f 144//3 143//3 159//3 160//3
f 135//4 133//4 149//4 151//4
f 143//4 141//4 157//4 159//4
f 133//1 134//1 150//1 149//1
f 141//1 142//1 158//1 157//1
f 134//2 136//2 152//2 150//2
f 132//3 131//3 147//3 148//3
f 142//2 144//2 160//2 158//2
f 140//3 139//3 155//3 156//3
f 131//4 129//4 145//4 147//4
f 130//19 133//19 135//19 132//19
f 138//19 141//19 143//19 140//19
f 116//18 120//18 126//18 122//18
f 126//3 120//3 140//3 143//3
f 49//4 53//4 54//4 50//4
