# Blender 4.1.1
# www.blender.org
o Cylinder
v -0.000017 -0.266698 -0.016967 0.2823 0.2823 0.2823
v -0.000017 0.040920 -0.016967 0.2823 0.2823 0.2823
v 0.044128 -0.266698 0.015106 0.2823 0.2823 0.2823
v 0.044128 0.040920 0.015106 0.2823 0.2823 0.2823
v 0.027266 -0.266698 0.067001 0.2823 0.2823 0.2823
v 0.027266 0.040920 0.067001 0.2823 0.2823 0.2823
v -0.027300 -0.266698 0.067001 0.2823 0.2823 0.2823
v -0.027300 0.040920 0.067001 0.2823 0.2823 0.2823
v -0.044162 -0.266698 0.015106 0.2823 0.2823 0.2823
v -0.044162 0.040920 0.015106 0.2823 0.2823 0.2823
v -0.000017 -0.324435 -0.016967 0.2823 0.2823 0.2823
v 0.044128 -0.324435 0.015106 0.2823 0.2823 0.2823
v 0.027266 -0.324435 0.067001 0.2823 0.2823 0.2823
v -0.027300 -0.324435 0.067001 0.2823 0.2823 0.2823
v -0.044162 -0.324435 0.015106 0.2823 0.2823 0.2823
v 0.380064 -0.266698 0.124258 0.2823 0.2823 0.2823
v 0.363203 -0.266698 0.176153 0.2823 0.2823 0.2823
v 0.380064 -0.324435 0.124258 0.2823 0.2823 0.2823
v 0.363203 -0.324435 0.176153 0.2823 0.2823 0.2823
v 0.027266 -0.266698 0.420225 0.2823 0.2823 0.2823
v -0.027300 -0.266698 0.420225 0.2823 0.2823 0.2823
v 0.027266 -0.324435 0.420225 0.2823 0.2823 0.2823
v -0.027300 -0.324435 0.420225 0.2823 0.2823 0.2823
v -0.363236 -0.266698 0.176153 0.2823 0.2823 0.2823
v -0.380098 -0.266698 0.124258 0.2823 0.2823 0.2823
v -0.363236 -0.324435 0.176153 0.2823 0.2823 0.2823
v -0.380098 -0.324435 0.124258 0.2823 0.2823 0.2823
v -0.251782 -0.266698 -0.270659 0.2823 0.2823 0.2823
v -0.207637 -0.266698 -0.302732 0.2823 0.2823 0.2823
v -0.251782 -0.324435 -0.270659 0.2823 0.2823 0.2823
v -0.207637 -0.324435 -0.302732 0.2823 0.2823 0.2823
v 0.207603 -0.266698 -0.302732 0.2823 0.2823 0.2823
v 0.251748 -0.266698 -0.270659 0.2823 0.2823 0.2823
v 0.207603 -0.324435 -0.302732 0.2823 0.2823 0.2823
v 0.251748 -0.324435 -0.270659 0.2823 0.2823 0.2823
v -0.022777 -0.323081 0.361610 0.1412 0.1412 0.1412
v -0.022777 -0.323081 0.408361 0.1412 0.1412 0.1412
v 0.022743 -0.323081 0.361610 0.1412 0.1412 0.1412
v 0.022743 -0.323081 0.408361 0.1412 0.1412 0.1412
v 0.045504 -0.362503 0.361610 0.1412 0.1412 0.1412
v 0.045504 -0.362503 0.408361 0.1412 0.1412 0.1412
v 0.022743 -0.401925 0.361610 0.1412 0.1412 0.1412
v 0.022743 -0.401925 0.408361 0.1412 0.1412 0.1412
v -0.022777 -0.401925 0.361610 0.1412 0.1412 0.1412
v -0.022777 -0.401925 0.408361 0.1412 0.1412 0.1412
v -0.045537 -0.362503 0.361610 0.1412 0.1412 0.1412
v -0.045538 -0.362503 0.408361 0.1412 0.1412 0.1412
v 0.213636 -0.323081 -0.225896 0.1412 0.1412 0.1412
v 0.241115 -0.323081 -0.263719 0.1412 0.1412 0.1412
v 0.176809 -0.323081 -0.252653 0.1412 0.1412 0.1412
v 0.204288 -0.323081 -0.290475 0.1412 0.1412 0.1412
v 0.158395 -0.362503 -0.266031 0.1412 0.1412 0.1412
v 0.185875 -0.362503 -0.303853 0.1412 0.1412 0.1412
v 0.176809 -0.401925 -0.252653 0.1412 0.1412 0.1412
v 0.204288 -0.401925 -0.290475 0.1412 0.1412 0.1412
v 0.213636 -0.401925 -0.225896 0.1412 0.1412 0.1412
v 0.241115 -0.401925 -0.263719 0.1412 0.1412 0.1412
v 0.232049 -0.362503 -0.212518 0.1412 0.1412 0.1412
v 0.259529 -0.362503 -0.250341 0.1412 0.1412 0.1412
v 0.308853 -0.323081 0.153739 0.1412 0.1412 0.1412
v 0.353316 -0.323081 0.168186 0.1412 0.1412 0.1412
v 0.322920 -0.323081 0.110446 0.1412 0.1412 0.1412
v 0.367383 -0.323081 0.124893 0.1412 0.1412 0.1412
v 0.329953 -0.362503 0.088800 0.1412 0.1412 0.1412
v 0.374416 -0.362503 0.103247 0.1412 0.1412 0.1412
v 0.322920 -0.401925 0.110446 0.1412 0.1412 0.1412
v 0.367383 -0.401925 0.124893 0.1412 0.1412 0.1412
v 0.308853 -0.401925 0.153739 0.1412 0.1412 0.1412
v 0.353316 -0.401925 0.168186 0.1412 0.1412 0.1412
v 0.301820 -0.362503 0.175385 0.1412 0.1412 0.1412
v 0.346283 -0.362503 0.189832 0.1412 0.1412 0.1412
v -0.176843 -0.323081 -0.252653 0.1412 0.1412 0.1412
v -0.204322 -0.323081 -0.290475 0.1412 0.1412 0.1412
v -0.213670 -0.323081 -0.225896 0.1412 0.1412 0.1412
v -0.241149 -0.323081 -0.263719 0.1412 0.1412 0.1412
v -0.232083 -0.362503 -0.212518 0.1412 0.1412 0.1412
v -0.259563 -0.362503 -0.250341 0.1412 0.1412 0.1412
v -0.213670 -0.401925 -0.225896 0.1412 0.1412 0.1412
v -0.241149 -0.401925 -0.263719 0.1412 0.1412 0.1412
v -0.176843 -0.401925 -0.252653 0.1412 0.1412 0.1412
v -0.204322 -0.401925 -0.290475 0.1412 0.1412 0.1412
v -0.158429 -0.362503 -0.266031 0.1412 0.1412 0.1412
v -0.185909 -0.362503 -0.303853 0.1412 0.1412 0.1412
v -0.322954 -0.323081 0.110446 0.1412 0.1412 0.1412
v -0.367417 -0.323081 0.124893 0.1412 0.1412 0.1412
v -0.308887 -0.323081 0.153739 0.1412 0.1412 0.1412
v -0.353350 -0.323081 0.168186 0.1412 0.1412 0.1412
v -0.301854 -0.362503 0.175385 0.1412 0.1412 0.1412
v -0.346317 -0.362503 0.189832 0.1412 0.1412 0.1412
v -0.308887 -0.401925 0.153739 0.1412 0.1412 0.1412
v -0.353350 -0.401925 0.168186 0.1412 0.1412 0.1412
v -0.322954 -0.401925 0.110446 0.1412 0.1412 0.1412
v -0.367417 -0.401925 0.124893 0.1412 0.1412 0.1412
v -0.329987 -0.362503 0.088800 0.1412 0.1412 0.1412
v -0.374450 -0.362503 0.103247 0.1412 0.1412 0.1412
v -0.302270 0.031008 0.355322 0.4784 0.4784 0.4784
v -0.302270 0.113562 0.309377 0.4784 0.4784 0.4784
v -0.302270 0.031008 -0.299902 0.4784 0.4784 0.4784
v -0.302270 0.113562 -0.213988 0.4784 0.4784 0.4784
v 0.302236 0.031008 0.355322 0.4784 0.4784 0.4784
v 0.302236 0.113562 0.309377 0.4784 0.4784 0.4784
v 0.302236 0.031008 -0.299902 0.4784 0.4784 0.4784
v 0.302236 0.113562 -0.213988 0.4784 0.4784 0.4784
v -0.302270 0.798188 -0.213988 0.4784 0.4784 0.4784
v 0.302236 0.798188 -0.213988 0.4784 0.4784 0.4784
v -0.302270 0.854960 -0.299902 0.4784 0.4784 0.4784
v 0.302236 0.854960 -0.299902 0.4784 0.4784 0.4784
v -0.351815 0.042092 0.205756 0.3882 0.3882 0.3882
v -0.351815 0.333178 0.128410 0.3882 0.3882 0.3882
v -0.351815 0.092971 0.123668 0.3882 0.3882 0.3882
v -0.351815 0.282130 0.073393 0.3882 0.3882 0.3882
v -0.302054 0.042092 0.205756 0.3882 0.3882 0.3882
v -0.302054 0.333178 0.128410 0.3882 0.3882 0.3882
v -0.302054 0.092971 0.123668 0.3882 0.3882 0.3882
v -0.302054 0.282130 0.073393 0.3882 0.3882 0.3882
v -0.351815 0.333178 -0.287456 0.3882 0.3882 0.3882
v -0.351815 0.282130 -0.237096 0.3882 0.3882 0.3882
v -0.302054 0.333178 -0.287456 0.3882 0.3882 0.3882
v -0.302054 0.282130 -0.237096 0.3882 0.3882 0.3882
v 0.351929 0.042092 0.205756 0.3882 0.3882 0.3882
v 0.351929 0.333178 0.128410 0.3882 0.3882 0.3882
v 0.351929 0.092971 0.123668 0.3882 0.3882 0.3882
v 0.351929 0.282130 0.073393 0.3882 0.3882 0.3882
v 0.302167 0.042092 0.205756 0.3882 0.3882 0.3882
v 0.302167 0.333178 0.128410 0.3882 0.3882 0.3882
v 0.302167 0.092971 0.123668 0.3882 0.3882 0.3882
v 0.302167 0.282130 0.073393 0.3882 0.3882 0.3882
v 0.351929 0.333178 -0.287456 0.3882 0.3882 0.3882
v 0.351929 0.282130 -0.237096 0.3882 0.3882 0.3882
v 0.302167 0.333178 -0.287456 0.3882 0.3882 0.3882
v 0.302167 0.282130 -0.237096 0.3882 0.3882 0.3882
v -0.351815 0.092971 -0.237096 0.3882 0.3882 0.3882
v -0.302054 0.092971 -0.237096 0.3882 0.3882 0.3882
v 0.351929 0.092971 -0.237096 0.3882 0.3882 0.3882
v 0.302167 0.092971 -0.237096 0.3882 0.3882 0.3882
v -0.351815 0.042092 -0.287456 0.3882 0.3882 0.3882
v -0.302054 0.042092 -0.287456 0.3882 0.3882 0.3882
v 0.351929 0.042092 -0.287456 0.3882 0.3882 0.3882
v 0.302167 0.042092 -0.287456 0.3882 0.3882 0.3882
vn 0.5878 -0.0000 -0.8090
vn 0.9511 -0.0000 0.3090
vn -0.0000 -0.0000 1.0000
vn -0.9511 -0.0000 0.3090
vn -0.5878 -0.0000 -0.8090
vn -0.3090 -0.0000 -0.9511
vn -0.0000 -1.0000 -0.0000
vn -0.0000 1.0000 -0.0000
vn 0.3090 -0.0000 -0.9511
vn -0.3090 -0.0000 0.9511
vn -1.0000 -0.0000 -0.0000
vn 1.0000 -0.0000 -0.0000
vn 0.3090 -0.0000 0.9511
vn 0.8090 -0.0000 -0.5878
vn -0.8090 -0.0000 0.5878
vn -0.8090 -0.0000 -0.5878
vn 0.8090 -0.0000 0.5878
vn -0.7006 -0.5000 -0.5090
vn 0.8660 0.5000 -0.0000
vn 0.8660 -0.5000 -0.0000
vn -0.7006 0.5000 -0.5090
vn -0.8660 -0.5000 -0.0000
vn -0.8660 0.5000 -0.0000
vn -0.0000 -0.0000 -1.0000
vn 0.7006 -0.5000 0.5090
vn 0.7006 0.5000 0.5090
vn -0.5878 -0.0000 0.8090
vn 0.2676 -0.5000 -0.8236
vn 0.2676 0.5000 -0.8236
vn -0.2676 -0.5000 0.8236
vn -0.2676 0.5000 0.8236
vn -0.9511 -0.0000 -0.3090
vn -0.7006 -0.5000 0.5090
vn -0.7006 0.5000 0.5090
vn 0.7006 -0.5000 -0.5090
vn 0.7006 0.5000 -0.5090
vn 0.5878 -0.0000 0.8090
vn 0.2676 -0.5000 0.8236
vn 0.2676 0.5000 0.8236
vn -0.2676 -0.5000 -0.8236
vn -0.2676 0.5000 -0.8236
vn 0.9511 -0.0000 -0.3090
vn -0.0000 0.8343 0.5513
vn -0.0000 0.4863 0.8738
vn -0.0000 -0.2569 -0.9664
vn -0.0000 0.2568 0.9665
s 0
f 1//1 2//1 4//1 3//1
f 3//2 4//2 6//2 5//2
f 5//3 6//3 8//3 7//3
f 7//4 8//4 10//4 9//4
f 9//5 10//5 2//5 1//5
f 9//6 15//6 27//6 25//6
f 11//7 12//7 13//7 14//7 15//7
f 13//7 12//7 18//7 19//7
f 9//8 1//8 29//8 28//8
f 12//7 11//7 34//7 35//7
f 5//8 7//8 21//8 20//8
f 16//2 17//2 19//2 18//2
f 12//9 3//9 16//9 18//9
f 3//8 5//8 17//8 16//8
f 5//10 13//10 19//10 17//10
f 20//3 21//3 23//3 22//3
f 7//11 14//11 23//11 21//11
f 14//7 13//7 22//7 23//7
f 13//12 5//12 20//12 22//12
f 24//4 25//4 27//4 26//4
f 15//7 14//7 26//7 27//7
f 7//8 9//8 25//8 24//8
f 14//13 7//13 24//13 26//13
f 28//5 29//5 31//5 30//5
f 1//14 11//14 31//14 29//14
f 15//15 9//15 28//15 30//15
f 11//7 15//7 30//7 31//7
f 32//1 33//1 35//1 34//1
f 11//16 1//16 32//16 34//16
f 1//8 3//8 33//8 32//8
f 3//17 12//17 35//17 33//17
f 52//18 53//18 55//18 54//18
f 38//19 39//19 41//19 40//19
f 40//20 41//20 43//20 42//20
f 50//21 51//21 53//21 52//21
f 39//3 37//3 47//3 45//3 43//3 41//3
f 44//22 45//22 47//22 46//22
f 46//23 47//23 37//23 36//23
f 36//24 38//24 40//24 42//24 44//24 46//24
f 51//1 49//1 59//1 57//1 55//1 53//1
f 56//25 57//25 59//25 58//25
f 58//26 59//26 49//26 48//26
f 48//27 50//27 52//27 54//27 56//27 58//27
f 64//28 65//28 67//28 66//28
f 62//29 63//29 65//29 64//29
f 63//2 61//2 71//2 69//2 67//2 65//2
f 68//30 69//30 71//30 70//30
f 70//31 71//31 61//31 60//31
f 60//32 62//32 64//32 66//32 68//32 70//32
f 76//33 77//33 79//33 78//33
f 74//34 75//34 77//34 76//34
f 75//5 73//5 83//5 81//5 79//5 77//5
f 80//35 81//35 83//35 82//35
f 82//36 83//36 73//36 72//36
f 72//37 74//37 76//37 78//37 80//37 82//37
f 88//38 89//38 91//38 90//38
f 86//39 87//39 89//39 88//39
f 87//4 85//4 95//4 93//4 91//4 89//4
f 92//40 93//40 95//40 94//40
f 94//41 95//41 85//41 84//41
f 84//42 86//42 88//42 90//42 92//42 94//42
f 96//11 97//11 99//11 98//11
f 99//3 103//3 105//3 104//3
f 102//12 103//12 101//12 100//12
f 98//7 102//7 100//7 96//7
f 103//8 99//8 97//8 101//8
f 104//43 105//43 107//43 106//43
f 103//12 102//12 107//12 105//12
f 102//24 98//24 106//24 107//24
f 98//11 99//11 104//11 106//11
f 101//44 97//44 96//44 100//44
f 108//11 109//11 111//11 110//11
f 110//45 111//45 115//45 114//45
f 114//12 115//12 113//12 112//12
f 112//46 113//46 109//46 108//46
f 111//11 109//11 116//11 117//11
f 109//8 113//8 118//8 116//8
f 115//7 111//7 117//7 119//7
f 113//12 115//12 119//12 118//12
f 114//12 112//12 137//12 133//12
f 120//12 122//12 123//12 121//12
f 122//45 126//45 127//45 123//45
f 126//11 124//11 125//11 127//11
f 124//46 120//46 121//46 125//46
f 123//12 129//12 128//12 121//12
f 121//8 128//8 130//8 125//8
f 127//7 131//7 129//7 123//7
f 125//11 130//11 131//11 127//11
f 112//7 108//7 136//7 137//7
f 131//11 130//11 139//11 135//11
f 130//24 128//24 138//24 139//24
f 117//11 116//11 136//11 132//11
f 119//3 117//3 132//3 133//3
f 116//24 118//24 137//24 136//24
f 129//3 131//3 135//3 134//3
f 128//12 129//12 134//12 138//12
f 118//12 119//12 133//12 137//12
f 110//11 132//11 136//11 108//11
f 114//8 133//8 132//8 110//8
f 120//12 138//12 134//12 122//12
f 124//7 139//7 138//7 120//7
f 126//11 135//11 139//11 124//11
f 126//8 122//8 134//8 135//8
f 90//7 91//7 93//7 92//7
f 42//7 43//7 45//7 44//7
f 66//7 67//7 69//7 68//7
f 54//7 55//7 57//7 56//7
f 78//7 79//7 81//7 80//7
