# Blender 4.1.1
# www.blender.org
o grass_visual.017
v 0.244120 0.187502 -0.140631 0.3466 0.3466 0.3466
v 0.244120 0.313045 -0.140631 0.3466 0.3466 0.3466
v 0.243850 0.187502 0.141099 0.3466 0.3466 0.3466
v 0.243850 0.313045 0.141099 0.3466 0.3466 0.3466
v 0.477104 0.444687 0.090402 0.3466 0.3466 0.3466
v 0.477271 0.444687 -0.089490 0.3466 0.3466 0.3466
v 0.518102 0.360742 -0.089450 0.3466 0.3466 0.3466
v 0.517931 0.360742 0.090441 0.3466 0.3466 0.3466
v 0.787470 0.536369 0.046962 0.3466 0.3466 0.3466
v 0.808448 0.493242 0.046983 0.3466 0.3466 0.3466
v 0.787557 0.536369 -0.045459 0.3466 0.3466 0.3466
v 0.808535 0.493242 -0.045439 0.3466 0.3466 0.3466
v 1.014991 0.526779 0.000968 0.3466 0.3466 0.3466
v -0.000271 0.187502 0.281731 0.3466 0.3466 0.3466
v -0.000271 0.313045 0.281731 0.3466 0.3466 0.3466
v -0.244121 0.187502 0.140633 0.3466 0.3466 0.3466
v -0.244121 0.313045 0.140633 0.3466 0.3466 0.3466
v -0.316841 0.444687 0.367983 0.3466 0.3466 0.3466
v -0.161136 0.444687 0.458077 0.3466 0.3466 0.3466
v -0.181583 0.360742 0.493416 0.3466 0.3466 0.3466
v -0.337288 0.360742 0.403322 0.3466 0.3466 0.3466
v -0.434406 0.536369 0.658490 0.3466 0.3466 0.3466
v -0.444912 0.493242 0.676645 0.3466 0.3466 0.3466
v -0.354410 0.536369 0.704777 0.3466 0.3466 0.3466
v -0.364916 0.493242 0.722932 0.3466 0.3466 0.3466
v -0.508334 0.526779 0.878526 0.3466 0.3466 0.3466
v -0.243850 0.187502 -0.141097 0.3466 0.3466 0.3466
v -0.243850 0.313045 -0.141097 0.3466 0.3466 0.3466
v -0.477104 0.444687 -0.090401 0.3466 0.3466 0.3466
v -0.477272 0.444687 0.089492 0.3466 0.3466 0.3466
v -0.518102 0.360742 0.089452 0.3466 0.3466 0.3466
v -0.517931 0.360742 -0.090439 0.3466 0.3466 0.3466
v -0.787471 0.536369 -0.046960 0.3466 0.3466 0.3466
v -0.808448 0.493242 -0.046981 0.3466 0.3466 0.3466
v -0.787558 0.536369 0.045461 0.3466 0.3466 0.3466
v -0.808535 0.493242 0.045441 0.3466 0.3466 0.3466
v -1.014992 0.526779 -0.000966 0.3466 0.3466 0.3466
v 0.000270 0.187502 -0.281729 0.3466 0.3466 0.3466
v 0.000270 0.313045 -0.281729 0.3466 0.3466 0.3466
v 0.316841 0.444687 -0.367981 0.3466 0.3466 0.3466
v 0.161135 0.444687 -0.458075 0.3466 0.3466 0.3466
v 0.181582 0.360742 -0.493414 0.3466 0.3466 0.3466
v 0.337288 0.360742 -0.403320 0.3466 0.3466 0.3466
v 0.434405 0.536369 -0.658488 0.3466 0.3466 0.3466
v 0.444911 0.493242 -0.676644 0.3466 0.3466 0.3466
v 0.354410 0.536369 -0.704775 0.3466 0.3466 0.3466
v 0.364915 0.493242 -0.722929 0.3466 0.3466 0.3466
v 0.508333 0.526779 -0.878523 0.3466 0.3466 0.3466
v -0.160263 0.444687 -0.458383 0.3466 0.3466 0.3466
v -0.316140 0.444687 -0.368585 0.3466 0.3466 0.3466
v -0.336520 0.360742 -0.403962 0.3466 0.3466 0.3466
v -0.180644 0.360742 -0.493760 0.3466 0.3466 0.3466
v -0.353066 0.536369 -0.705449 0.3466 0.3466 0.3466
v -0.363537 0.493242 -0.723626 0.3466 0.3466 0.3466
v -0.433148 0.536369 -0.659315 0.3466 0.3466 0.3466
v -0.443619 0.493242 -0.677490 0.3466 0.3466 0.3466
v -0.506658 0.526779 -0.879491 0.3466 0.3466 0.3466
v 0.160263 0.444687 0.458384 0.3466 0.3466 0.3466
v 0.316139 0.444687 0.368587 0.3466 0.3466 0.3466
v 0.336519 0.360742 0.403964 0.3466 0.3466 0.3466
v 0.180643 0.360742 0.493762 0.3466 0.3466 0.3466
v 0.353065 0.536369 0.705451 0.3466 0.3466 0.3466
v 0.363536 0.493242 0.723628 0.3466 0.3466 0.3466
v 0.433147 0.536369 0.659317 0.3466 0.3466 0.3466
v 0.443619 0.493242 0.677492 0.3466 0.3466 0.3466
v 0.506658 0.526779 0.879492 0.3466 0.3466 0.3466
v 0.159095 -0.058842 -0.091651 0.3466 0.3466 0.3466
v 0.158919 -0.058842 0.091957 0.3466 0.3466 0.3466
v -0.000176 -0.058842 0.183608 0.3466 0.3466 0.3466
v -0.159096 -0.058842 0.091653 0.3466 0.3466 0.3466
v -0.158920 -0.058842 -0.091954 0.3466 0.3466 0.3466
v 0.000175 -0.058842 -0.183606 0.3466 0.3466 0.3466
vn 0.1836 -0.0000 -0.9830
vn 0.1673 0.0818 0.9825
vn 0.5344 -0.8453 0.0005
vn -0.4916 0.8708 -0.0005
vn 0.4150 -0.9098 0.0004
vn 0.0421 0.9991 -0.0000
vn -0.2833 0.9590 -0.0003
vn 0.1230 0.0594 -0.9906
vn 0.1211 0.0594 0.9909
vn 0.2030 0.0983 -0.9742
vn 0.2012 0.0983 0.9746
vn 0.1603 -0.9871 0.0002
vn 0.7595 -0.0000 0.6505
vn -0.9346 0.0815 -0.3463
vn -0.2676 -0.8453 0.4625
vn 0.2462 0.8708 -0.4255
vn -0.2078 -0.9098 0.3592
vn -0.0211 0.9991 0.0365
vn 0.1419 0.9590 -0.2452
vn 0.7964 0.0594 0.6019
vn -0.9187 0.0594 -0.3905
vn 0.7422 0.0983 0.6629
vn -0.9446 0.0983 -0.3131
vn -0.0803 -0.9871 0.1388
vn -0.1836 -0.0000 0.9830
vn -0.1673 0.0818 -0.9825
vn -0.5344 -0.8453 -0.0005
vn 0.4916 0.8708 0.0005
vn -0.4150 -0.9098 -0.0004
vn -0.0421 0.9991 -0.0000
vn 0.2833 0.9590 0.0003
vn -0.1230 0.0594 0.9906
vn -0.1211 0.0594 -0.9909
vn -0.2030 0.0983 0.9742
vn -0.2012 0.0983 -0.9746
vn -0.1603 -0.9871 -0.0002
vn -0.7595 -0.0000 -0.6505
vn 0.9345 0.0818 0.3463
vn 0.2676 -0.8453 -0.4625
vn -0.2462 0.8708 0.4255
vn 0.2078 -0.9098 -0.3592
vn 0.0211 0.9991 -0.0365
vn -0.1419 0.9590 0.2452
vn -0.7964 0.0594 -0.6019
vn 0.9187 0.0594 0.3905
vn -0.7422 0.0983 -0.6629
vn 0.9446 0.0983 0.3131
vn 0.0803 -0.9871 -0.1388
vn -0.9431 -0.0000 0.3325
vn 0.7672 0.0819 -0.6362
vn -0.2667 -0.8453 -0.4630
vn 0.2454 0.8708 0.4260
vn -0.2072 -0.9098 -0.3596
vn -0.0210 0.9991 -0.0365
vn 0.1414 0.9590 0.2455
vn -0.9194 0.0594 0.3888
vn 0.7975 0.0594 -0.6003
vn -0.9452 0.0983 0.3113
vn 0.7435 0.0983 -0.6615
vn -0.0800 -0.9871 -0.1389
vn 0.9431 -0.0000 -0.3325
vn -0.7672 0.0819 0.6362
vn 0.2667 -0.8453 0.4630
vn -0.2454 0.8708 -0.4260
vn 0.2072 -0.9098 0.3596
vn 0.0210 0.9991 0.0365
vn -0.1414 0.9590 -0.2455
vn 0.9194 0.0594 -0.3888
vn -0.7975 0.0594 0.6003
vn 0.9452 0.0983 -0.3113
vn -0.7435 0.0983 0.6615
vn 0.0800 -0.9871 0.1389
vn -0.0000 1.0000 -0.0000
vn -0.9453 -0.3261 -0.0009
vn 0.4719 -0.3261 0.8191
vn -0.4719 -0.3261 -0.8191
vn 0.4735 -0.3261 -0.8182
vn -0.4735 -0.3261 0.8182
vn 0.9453 -0.3261 0.0009
vn 0.1692 0.0818 -0.9822
vn 0.1817 -0.0000 0.9833
vn 0.7660 0.0819 0.6376
vn -0.9425 -0.0000 -0.3343
vn -0.1692 0.0818 0.9822
vn -0.1817 -0.0000 -0.9833
vn -0.7660 0.0819 -0.6376
vn 0.9425 -0.0000 0.3343
vn -0.9352 0.0819 0.3445
vn 0.7607 -0.0000 -0.6491
vn 0.9352 0.0818 -0.3445
vn -0.7607 -0.0000 0.6491
vn 0.4734 -0.3261 -0.8182
vn -0.4734 -0.3261 0.8182
s 0
f 2//1 7//1 1//1
f 4//2 8//2 5//2
f 1//3 8//3 3//3
f 2//4 5//4 6//4
f 8//5 12//5 10//5
f 11//6 9//6 13//6
f 5//7 11//7 6//7
f 7//8 11//8 12//8
f 8//9 9//9 5//9
f 12//10 11//10 13//10
f 9//11 10//11 13//11
f 10//12 12//12 13//12
f 15//13 20//13 14//13
f 17//14 21//14 18//14
f 14//15 21//15 16//15
f 15//16 18//16 19//16
f 21//17 25//17 23//17
f 24//18 22//18 26//18
f 18//19 24//19 19//19
f 20//20 24//20 25//20
f 21//21 22//21 18//21
f 25//22 24//22 26//22
f 22//23 23//23 26//23
f 23//24 25//24 26//24
f 17//25 31//25 16//25
f 28//26 32//26 29//26
f 16//27 32//27 27//27
f 28//28 30//28 17//28
f 32//29 36//29 34//29
f 35//30 33//30 37//30
f 29//31 35//31 30//31
f 31//32 35//32 36//32
f 32//33 33//33 29//33
f 36//34 35//34 37//34
f 33//35 34//35 37//35
f 34//36 36//36 37//36
f 39//37 42//37 38//37
f 2//38 43//38 40//38
f 38//39 43//39 1//39
f 39//40 40//40 41//40
f 43//41 47//41 45//41
f 46//42 44//42 48//42
f 40//43 46//43 41//43
f 42//44 46//44 47//44
f 43//45 44//45 40//45
f 47//46 46//46 48//46
f 44//47 45//47 48//47
f 45//48 47//48 48//48
f 28//49 51//49 27//49
f 39//50 52//50 49//50
f 27//51 52//51 38//51
f 39//52 50//52 28//52
f 52//53 56//53 54//53
f 55//54 53//54 57//54
f 49//55 55//55 50//55
f 51//56 55//56 56//56
f 52//57 53//57 49//57
f 56//58 55//58 57//58
f 53//59 54//59 57//59
f 54//60 56//60 57//60
f 4//61 60//61 3//61
f 15//62 61//62 58//62
f 3//63 61//63 14//63
f 15//64 59//64 4//64
f 61//65 65//65 63//65
f 64//66 62//66 66//66
f 58//67 64//67 59//67
f 60//68 64//68 65//68
f 61//69 62//69 58//69
f 65//70 64//70 66//70
f 62//71 63//71 66//71
f 63//72 65//72 66//72
f 39//73 17//73 4//73
f 27//74 70//74 16//74
f 14//75 68//75 3//75
f 38//76 71//76 27//76
f 1//77 72//77 38//77
f 16//78 69//78 14//78
f 3//79 67//79 1//79
f 2//80 6//80 7//80
f 4//81 3//81 8//81
f 1//3 7//3 8//3
f 2//4 4//4 5//4
f 8//5 7//5 12//5
f 5//7 9//7 11//7
f 7//8 6//8 11//8
f 8//9 10//9 9//9
f 15//82 19//82 20//82
f 17//83 16//83 21//83
f 14//15 20//15 21//15
f 15//16 17//16 18//16
f 21//17 20//17 25//17
f 18//19 22//19 24//19
f 20//20 19//20 24//20
f 21//21 23//21 22//21
f 17//84 30//84 31//84
f 28//85 27//85 32//85
f 16//27 31//27 32//27
f 28//28 29//28 30//28
f 32//29 31//29 36//29
f 29//31 33//31 35//31
f 31//32 30//32 35//32
f 32//33 34//33 33//33
f 39//86 41//86 42//86
f 2//87 1//87 43//87
f 38//39 42//39 43//39
f 39//40 2//40 40//40
f 43//41 42//41 47//41
f 40//43 44//43 46//43
f 42//44 41//44 46//44
f 43//45 45//45 44//45
f 28//88 50//88 51//88
f 39//89 38//89 52//89
f 27//51 51//51 52//51
f 39//52 49//52 50//52
f 52//53 51//53 56//53
f 49//55 53//55 55//55
f 51//56 50//56 55//56
f 52//57 54//57 53//57
f 4//90 59//90 60//90
f 15//91 14//91 61//91
f 3//63 60//63 61//63
f 15//64 58//64 59//64
f 61//65 60//65 65//65
f 58//67 62//67 64//67
f 60//68 59//68 64//68
f 61//69 63//69 62//69
f 4//73 2//73 39//73
f 39//73 28//73 17//73
f 17//73 15//73 4//73
f 27//74 71//74 70//74
f 14//75 69//75 68//75
f 38//76 72//76 71//76
f 1//92 67//92 72//92
f 16//93 70//93 69//93
f 3//79 68//79 67//79
