# Blender 4.0.1
# www.blender.org
o Cube
v -0.184261 -0.025727 0.484201
v -0.184261 1.027845 0.484201
v -0.184261 -0.025727 -0.484201
v -0.184261 1.027845 -0.484201
v 0.184261 -0.025727 0.484201
v 0.184261 1.027845 0.484201
v 0.184261 -0.025727 -0.484201
v 0.184261 1.027845 -0.484201
v -0.184261 1.363822 0.184261
v -0.184261 1.363822 -0.184261
v 0.184261 1.363822 0.184261
v 0.184261 1.363822 -0.184261
vn -1.0000 -0.0000 -0.0000
vn -0.0000 -0.0000 -1.0000
vn 1.0000 -0.0000 -0.0000
vn -0.0000 -0.0000 1.0000
vn -0.0000 0.6660 0.7460
vn -0.0000 0.6660 -0.7460
vn -0.0000 1.0000 -0.0000
s 0
f 1//1 2//1 4//1 3//1
f 3//2 4//2 8//2 7//2
f 7//3 8//3 6//3 5//3
f 5//4 6//4 2//4 1//4
f 6//3 8//3 12//3 11//3
f 4//1 2//1 9//1 10//1
f 2//5 6//5 11//5 9//5
f 8//6 4//6 10//6 12//6
f 9//7 11//7 12//7 10//7
