# Blender 4.0.1
# www.blender.org
o Cube
v -0.184261 -0.025727 0.184261
v -0.184261 0.720205 0.184261
v -0.184261 -0.025727 -0.184261
v -0.184261 0.720205 -0.184261
v 0.184261 -0.025727 0.184261
v 0.184261 0.720205 0.184261
v 0.184261 -0.025727 -0.184261
v 0.184261 0.720205 -0.184261
v -0.184261 1.056182 0.184261
v -0.184261 1.056182 -0.184261
v 0.184261 1.056182 0.184261
v 0.184261 1.056182 -0.184261
v -0.184261 0.720205 -0.482873
v 0.184261 0.720205 -0.482873
v -0.184261 1.056182 -0.482873
v 0.184261 1.056182 -0.482873
v -0.184261 0.720205 0.497755
v 0.184261 0.720205 0.497755
v -0.184261 1.056182 0.497755
v 0.184261 1.056182 0.497755
v -0.184261 1.377140 0.184261
v -0.184261 1.377140 -0.184261
v 0.184261 1.377140 0.184261
v 0.184261 1.377140 -0.184261
vn -1.0000 -0.0000 -0.0000
vn -0.0000 -0.0000 -1.0000
vn 1.0000 -0.0000 -0.0000
vn -0.0000 -0.0000 1.0000
vn -0.0000 1.0000 -0.0000
vn -0.0000 -1.0000 -0.0000
s 0
f 1//1 2//1 4//1 3//1
f 3//2 4//2 8//2 7//2
f 7//3 8//3 6//3 5//3
f 5//4 6//4 2//4 1//4
f 6//3 8//3 12//3 11//3
f 9//4 11//4 23//4 21//4
f 4//1 2//1 9//1 10//1
f 6//3 11//3 20//3 18//3
f 4//1 10//1 15//1 13//1
f 14//2 13//2 15//2 16//2
f 10//5 12//5 16//5 15//5
f 8//6 4//6 13//6 14//6
f 12//3 8//3 14//3 16//3
f 17//4 18//4 20//4 19//4
f 11//5 9//5 19//5 20//5
f 2//6 6//6 18//6 17//6
f 9//1 2//1 17//1 19//1
f 24//5 22//5 21//5 23//5
f 12//2 10//2 22//2 24//2
f 11//3 12//3 24//3 23//3
f 10//1 9//1 21//1 22//1
