# Blender 4.0.2
# www.blender.org
o Cube
v -1.563798 3.681208 0.124496 0.6079 0.6079 0.6079
v -1.563798 3.826234 0.124496 0.6079 0.6079 0.6079
v -1.563798 3.681208 -0.171879 0.6079 0.6079 0.6079
v -1.563798 3.826234 -0.171879 0.6079 0.6079 0.6079
v -0.937349 3.681208 0.124496 0.6079 0.6079 0.6079
v -0.937349 3.826234 0.124496 0.6079 0.6079 0.6079
v -0.937349 3.681208 -0.171879 0.6079 0.6079 0.6079
v -0.937349 3.826234 -0.171879 0.6079 0.6079 0.6079
v -1.492397 3.599375 0.067787 1.0000 1.0000 1.0000
v -1.492397 3.642891 0.111304 1.0000 1.0000 1.0000
v -1.535914 3.642891 0.067787 1.0000 1.0000 1.0000
v -1.492397 3.687973 0.111304 1.0000 1.0000 1.0000
v -1.535914 3.687973 0.067787 1.0000 1.0000 1.0000
v -1.492397 3.599375 -0.115170 1.0000 1.0000 1.0000
v -1.535914 3.642891 -0.115170 1.0000 1.0000 1.0000
v -1.492397 3.642891 -0.158687 1.0000 1.0000 1.0000
v -1.492397 3.687973 -0.158687 1.0000 1.0000 1.0000
v -1.535914 3.687973 -0.115170 1.0000 1.0000 1.0000
v -1.008750 3.599375 0.067787 1.0000 1.0000 1.0000
v -0.965234 3.642891 0.067787 1.0000 1.0000 1.0000
v -1.008750 3.642891 0.111304 1.0000 1.0000 1.0000
v -1.008750 3.687973 0.111304 1.0000 1.0000 1.0000
v -0.965234 3.687973 0.067787 1.0000 1.0000 1.0000
v -1.008750 3.599375 -0.115170 1.0000 1.0000 1.0000
v -1.008750 3.642891 -0.158687 1.0000 1.0000 1.0000
v -0.965234 3.642891 -0.115170 1.0000 1.0000 1.0000
v -0.965234 3.687973 -0.115170 1.0000 1.0000 1.0000
v -1.008750 3.687973 -0.158687 1.0000 1.0000 1.0000
v -0.948948 3.700199 0.033078 0.6079 0.6079 0.6079
v -0.948948 3.813384 0.033078 0.6079 0.6079 0.6079
v -0.948948 3.700199 -0.080107 0.6079 0.6079 0.6079
v -0.948948 3.813384 -0.080107 0.6079 0.6079 0.6079
v -0.420144 3.669942 0.056770 0.6079 0.6079 0.6079
v -0.362652 3.767439 0.056770 0.6079 0.6079 0.6079
v -0.420144 3.669942 -0.056416 0.6079 0.6079 0.6079
v -0.362652 3.767439 -0.056416 0.6079 0.6079 0.6079
v -0.131314 3.527129 0.053096 0.6079 0.6079 0.6079
v -0.036710 3.589257 0.054118 0.6079 0.6079 0.6079
v -0.131875 3.529844 -0.060055 0.6079 0.6079 0.6079
v -0.037271 3.591972 -0.059033 0.6079 0.6079 0.6079
v -0.037738 2.878721 0.056770 0.6079 0.6079 0.6079
v 0.075433 2.876910 0.056770 0.6079 0.6079 0.6079
v -0.037738 2.878721 -0.056416 0.6079 0.6079 0.6079
v 0.075433 2.876910 -0.056416 0.6079 0.6079 0.6079
v -0.037738 -0.069355 0.056770 0.6079 0.6079 0.6079
v 0.075433 -0.071166 0.056770 0.6079 0.6079 0.6079
v -0.037738 -0.069355 -0.056416 0.6079 0.6079 0.6079
v 0.075433 -0.071166 -0.056416 0.6079 0.6079 0.6079
vn -1.0000 -0.0000 -0.0000
vn -0.0000 -0.0000 -1.0000
vn 1.0000 -0.0000 -0.0000
vn -0.0000 -0.0000 1.0000
vn -0.0000 -1.0000 -0.0000
vn -0.0000 1.0000 -0.0000
vn -0.5774 -0.5774 0.5774
vn -0.5774 -0.5774 -0.5774
vn 0.5774 -0.5774 0.5774
vn 0.5774 -0.5773 -0.5773
vn -0.7071 -0.7071 -0.0000
vn -0.7071 -0.0000 0.7071
vn -0.7071 -0.0000 -0.7071
vn -0.0000 -0.7071 -0.7071
vn 0.7071 -0.0000 -0.7071
vn 0.7071 -0.7071 -0.0000
vn 0.7071 -0.0000 0.7071
vn -0.0000 -0.7071 0.7071
vn 0.9878 0.1556 -0.0006
vn 0.0417 -0.0114 -0.9991
vn 0.4772 0.8787 0.0094
vn -0.0417 0.0114 0.9991
vn -0.0571 -0.9984 -0.0000
vn 0.0781 0.9969 -0.0000
vn -0.0046 0.0108 -0.9999
vn 0.0046 -0.0108 0.9999
vn -0.4403 -0.8978 -0.0097
vn 0.0060 -0.0037 -1.0000
vn -0.0060 0.0037 1.0000
vn -0.9897 -0.1430 0.0007
vn -0.0160 -0.9999 -0.0000
s 0
f 1//1 2//1 4//1 3//1
f 3//2 4//2 8//2 7//2
f 7//3 8//3 6//3 5//3
f 5//4 6//4 2//4 1//4
f 3//5 7//5 5//5 1//5
f 8//6 4//6 2//6 6//6
f 21//4 22//4 12//4 10//4
f 26//3 27//3 23//3 20//3
f 11//1 13//1 18//1 15//1
f 16//2 17//2 28//2 25//2
f 9//7 10//7 11//7
f 14//8 15//8 16//8
f 19//9 20//9 21//9
f 24//10 25//10 26//10
f 14//11 9//11 11//11 15//11
f 10//12 12//12 13//12 11//12
f 17//13 16//13 15//13 18//13
f 24//14 14//14 16//14 25//14
f 27//15 26//15 25//15 28//15
f 19//16 24//16 26//16 20//16
f 22//17 21//17 20//17 23//17
f 9//18 19//18 21//18 10//18
f 14//5 24//5 19//5 9//5
f 40//19 38//19 42//19 44//19
f 31//20 32//20 36//20 35//20
f 36//21 34//21 38//21 40//21
f 33//22 34//22 30//22 29//22
f 31//23 35//23 33//23 29//23
f 36//24 32//24 30//24 34//24
f 35//25 36//25 40//25 39//25
f 34//26 33//26 37//26 38//26
f 33//27 35//27 39//27 37//27
f 42//4 41//4 45//4 46//4
f 39//28 40//28 44//28 43//28
f 38//29 37//29 41//29 42//29
f 37//30 39//30 43//30 41//30
f 47//31 48//31 46//31 45//31
f 41//1 43//1 47//1 45//1
f 44//3 42//3 46//3 48//3
f 43//2 44//2 48//2 47//2
