# Blender 4.0.2
# www.blender.org
o Cylinder
v 0.000000 0.200000 -0.449427 0.5882 0.5882 0.5882
v 0.000000 1.400000 -0.129429 0.5882 0.5882 0.5882
v 0.389215 0.200000 -0.224713 0.5882 0.5882 0.5882
v 0.112089 1.400000 -0.064715 0.5882 0.5882 0.5882
v 0.389215 0.200000 0.224713 0.5882 0.5882 0.5882
v 0.112089 1.400000 0.064715 0.5882 0.5882 0.5882
v 0.000000 0.200000 0.449427 0.5882 0.5882 0.5882
v 0.000000 1.400000 0.129429 0.5882 0.5882 0.5882
v -0.389215 0.200000 0.224713 0.5882 0.5882 0.5882
v -0.112089 1.400000 0.064715 0.5882 0.5882 0.5882
v -0.389215 0.200000 -0.224713 0.5882 0.5882 0.5882
v -0.112089 1.400000 -0.064715 0.5882 0.5882 0.5882
v 0.000000 0.200000 -0.580503 0.5882 0.5882 0.5882
v 0.502730 0.200000 -0.290251 0.5882 0.5882 0.5882
v 0.502730 0.200000 0.290251 0.5882 0.5882 0.5882
v 0.000000 0.200000 0.580503 0.5882 0.5882 0.5882
v -0.502730 0.200000 0.290251 0.5882 0.5882 0.5882
v -0.502730 0.200000 -0.290251 0.5882 0.5882 0.5882
v 0.000000 0.000000 -0.580503 0.5882 0.5882 0.5882
v 0.502730 0.000000 -0.290251 0.5882 0.5882 0.5882
v 0.502730 0.000000 0.290251 0.5882 0.5882 0.5882
v 0.000000 0.000000 0.580503 0.5882 0.5882 0.5882
v -0.502730 0.000000 0.290251 0.5882 0.5882 0.5882
v -0.502730 0.000000 -0.290251 0.5882 0.5882 0.5882
v 0.000000 0.440000 -0.385427 0.5882 0.5882 0.5882
v 0.333790 0.440000 -0.192714 0.5882 0.5882 0.5882
v 0.333790 0.440000 0.192714 0.5882 0.5882 0.5882
v 0.000000 0.440000 0.385427 0.5882 0.5882 0.5882
v -0.333790 0.440000 0.192714 0.5882 0.5882 0.5882
v -0.333790 0.440000 -0.192714 0.5882 0.5882 0.5882
v 0.000000 0.728000 -0.308628 0.5882 0.5882 0.5882
v 0.267279 0.728000 -0.154314 0.5882 0.5882 0.5882
v 0.267279 0.728000 0.154314 0.5882 0.5882 0.5882
v 0.000000 0.728000 0.308628 0.5882 0.5882 0.5882
v -0.267279 0.728000 0.154314 0.5882 0.5882 0.5882
v -0.267279 0.728000 -0.154314 0.5882 0.5882 0.5882
v 0.000000 0.963200 -0.245908 0.5882 0.5882 0.5882
v 0.212963 0.963200 -0.122954 0.5882 0.5882 0.5882
v 0.212963 0.963200 0.122954 0.5882 0.5882 0.5882
v 0.000000 0.963200 0.245908 0.5882 0.5882 0.5882
v -0.212963 0.963200 0.122954 0.5882 0.5882 0.5882
v -0.212963 0.963200 -0.122954 0.5882 0.5882 0.5882
v 0.000000 1.225280 -0.176021 0.5882 0.5882 0.5882
v 0.152438 1.225280 -0.088010 0.5882 0.5882 0.5882
v 0.152438 1.225280 0.088010 0.5882 0.5882 0.5882
v 0.000000 1.225280 0.176021 0.5882 0.5882 0.5882
v -0.152438 1.225280 0.088010 0.5882 0.5882 0.5882
v -0.152438 1.225280 -0.088010 0.5882 0.5882 0.5882
v 0.000000 0.440000 -0.385427 1.0000 1.0000 1.0000
v 0.333790 0.440000 -0.192714 1.0000 1.0000 1.0000
v 0.333790 0.440000 0.192714 1.0000 1.0000 1.0000
v 0.000000 0.440000 0.385427 1.0000 1.0000 1.0000
v -0.333790 0.440000 0.192714 1.0000 1.0000 1.0000
v -0.333790 0.440000 -0.192714 1.0000 1.0000 1.0000
v 0.000000 0.728000 -0.308628 1.0000 1.0000 1.0000
v 0.267279 0.728000 -0.154314 1.0000 1.0000 1.0000
v 0.267279 0.728000 0.154314 1.0000 1.0000 1.0000
v 0.000000 0.728000 0.308628 1.0000 1.0000 1.0000
v -0.267279 0.728000 0.154314 1.0000 1.0000 1.0000
v -0.267279 0.728000 -0.154314 1.0000 1.0000 1.0000
v 0.000000 0.963200 -0.245908 1.0000 1.0000 1.0000
v 0.212963 0.963200 -0.122954 1.0000 1.0000 1.0000
v 0.212963 0.963200 0.122954 1.0000 1.0000 1.0000
v 0.000000 0.963200 0.245908 1.0000 1.0000 1.0000
v -0.212963 0.963200 0.122954 1.0000 1.0000 1.0000
v -0.212963 0.963200 -0.122954 1.0000 1.0000 1.0000
v 0.000000 1.225280 -0.176021 1.0000 1.0000 1.0000
v 0.152438 1.225280 -0.088010 1.0000 1.0000 1.0000
v 0.152438 1.225280 0.088010 1.0000 1.0000 1.0000
v 0.000000 1.225280 0.176021 1.0000 1.0000 1.0000
v -0.152438 1.225280 0.088010 1.0000 1.0000 1.0000
v -0.152438 1.225280 -0.088010 1.0000 1.0000 1.0000
vn 0.4872 0.2250 -0.8438
vn 0.9744 0.2250 -0.0000
vn 0.4872 0.2250 0.8438
vn -0.4872 0.2250 0.8438
vn -0.0000 1.0000 -0.0000
vn -0.9744 0.2250 -0.0000
vn -0.4872 0.2250 -0.8438
vn -1.0000 -0.0000 -0.0000
vn 0.5000 -0.0000 0.8660
vn 0.5000 -0.0000 -0.8660
vn -0.5000 -0.0000 -0.8660
vn -0.5000 -0.0000 0.8660
vn 1.0000 -0.0000 -0.0000
s 0
f 43//1 2//1 4//1 44//1
f 44//2 4//2 6//2 45//2
f 45//3 6//3 8//3 46//3
f 46//4 8//4 10//4 47//4
f 4//5 2//5 12//5 10//5 8//5 6//5
f 47//6 10//6 12//6 48//6
f 48//7 12//7 2//7 43//7
f 1//5 3//5 14//5 13//5
f 17//8 18//8 24//8 23//8
f 5//5 7//5 16//5 15//5
f 11//5 1//5 13//5 18//5
f 7//5 9//5 17//5 16//5
f 3//5 5//5 15//5 14//5
f 9//5 11//5 18//5 17//5
f 15//9 16//9 22//9 21//9
f 13//10 14//10 20//10 19//10
f 18//11 13//11 19//11 24//11
f 16//12 17//12 23//12 22//12
f 14//13 15//13 21//13 20//13
f 11//7 30//7 25//7 1//7
f 9//6 29//6 30//6 11//6
f 7//4 28//4 29//4 9//4
f 5//3 27//3 28//3 7//3
f 3//2 26//2 27//2 5//2
f 1//1 25//1 26//1 3//1
f 36//7 42//7 37//7 31//7
f 35//6 41//6 42//6 36//6
f 34//4 40//4 41//4 35//4
f 33//3 39//3 40//3 34//3
f 32//2 38//2 39//2 33//2
f 31//1 37//1 38//1 32//1
f 54//7 60//7 55//7 49//7
f 53//6 59//6 60//6 54//6
f 52//4 58//4 59//4 53//4
f 51//3 57//3 58//3 52//3
f 50//2 56//2 57//2 51//2
f 49//1 55//1 56//1 50//1
f 66//7 72//7 67//7 61//7
f 65//6 71//6 72//6 66//6
f 64//4 70//4 71//4 65//4
f 63//3 69//3 70//3 64//3
f 62//2 68//2 69//2 63//2
f 61//1 67//1 68//1 62//1
