# Blender 4.0.1
# www.blender.org
o Cube
v 0.000000 0.000000 0.000000
v 0.000000 0.100000 -0.000000
v 0.000000 -0.000000 -0.500000
v 0.000000 0.100000 -0.500000
v 15.000000 0.000000 0.000000
v 15.000000 0.100000 -0.000000
v 15.000000 -0.000000 -0.500000
v 15.000000 0.100000 -0.500000
v 0.000000 -0.000000 -0.500000
v 0.000000 3.100000 -0.500000
v 0.000000 -0.000000 -0.600000
v 0.000000 3.100000 -0.600000
v 15.000000 -0.000000 -0.500000
v 15.000000 3.100000 -0.500000
v 15.000000 -0.000000 -0.600000
v 15.000000 3.100000 -0.600000
v 0.000000 0.500000 -0.000000
v 0.000000 0.600000 -0.000000
v 0.000000 0.500000 -0.500000
v 0.000000 0.600000 -0.500000
v 15.000000 0.500000 -0.000000
v 15.000000 0.600000 -0.000000
v 15.000000 0.500000 -0.500000
v 15.000000 0.600000 -0.500000
v 0.000000 1.000000 -0.000000
v 0.000000 1.100000 -0.000000
v 0.000000 1.000000 -0.500000
v 0.000000 1.100000 -0.500000
v 15.000000 1.000000 -0.000000
v 15.000000 1.100000 -0.000000
v 15.000000 1.000000 -0.500000
v 15.000000 1.100000 -0.500000
v 0.000000 1.500000 -0.000000
v 0.000000 1.600000 -0.000000
v 0.000000 1.500000 -0.500000
v 0.000000 1.600000 -0.500000
v 15.000000 1.500000 -0.000000
v 15.000000 1.600000 -0.000000
v 15.000000 1.500000 -0.500000
v 15.000000 1.600000 -0.500000
v 0.000000 2.000000 -0.000000
v 0.000000 2.100000 -0.000000
v 0.000000 2.000000 -0.500000
v 0.000000 2.100000 -0.500000
v 15.000000 2.000000 -0.000000
v 15.000000 2.100000 -0.000000
v 15.000000 2.000000 -0.500000
v 15.000000 2.100000 -0.500000
v 0.000000 2.500000 -0.000000
v 0.000000 2.600000 -0.000000
v 0.000000 2.500000 -0.500000
v 0.000000 2.600000 -0.500000
v 15.000000 2.500000 -0.000000
v 15.000000 2.600000 -0.000000
v 15.000000 2.500000 -0.500000
v 15.000000 2.600000 -0.500000
v 0.000000 3.000000 -0.000000
v 0.000000 3.100000 -0.000000
v 0.000000 3.000000 -0.500000
v 0.000000 3.100000 -0.500000
v 15.000000 3.000000 -0.000000
v 15.000000 3.100000 -0.000000
v 15.000000 3.000000 -0.500000
v 15.000000 3.100000 -0.500000
v -0.100000 0.000000 0.000000
v -0.100000 3.100000 -0.000000
v -0.100000 -0.000000 -1.100000
v -0.100000 3.100000 -1.100000
v 0.000000 0.000000 0.000000
v 0.000000 3.100000 -0.000000
v 0.000000 -0.000000 -1.100000
v 0.000000 3.100000 -1.100000
v 15.000000 0.000000 0.000000
v 15.000000 3.100000 -0.000000
v 15.000000 -0.000000 -1.100000
v 15.000000 3.100000 -1.100000
v 15.100000 0.000000 0.000000
v 15.100000 3.100000 -0.000000
v 15.100000 -0.000000 -1.100000
v 15.100000 3.100000 -1.100000
v 15.000000 -0.000000 -1.100000
v 15.000000 0.100000 -1.100000
v 15.000000 -0.000000 -0.600000
v 15.000000 0.100000 -0.600000
v 0.000000 -0.000000 -1.099999
v 0.000000 0.100000 -1.099999
v 0.000000 -0.000000 -0.599999
v 0.000000 0.100000 -0.599999
v 15.000000 0.500000 -1.100000
v 15.000000 0.600000 -1.100000
v 15.000000 0.500000 -0.600000
v 15.000000 0.600000 -0.600000
v 0.000000 0.500000 -1.099999
v 0.000000 0.600000 -1.099999
v 0.000000 0.500000 -0.599999
v 0.000000 0.600000 -0.599999
v 15.000000 1.000000 -1.100000
v 15.000000 1.100000 -1.100000
v 15.000000 1.000000 -0.600000
v 15.000000 1.100000 -0.600000
v 0.000000 1.000000 -1.099999
v 0.000000 1.100000 -1.099999
v 0.000000 1.000000 -0.599999
v 0.000000 1.100000 -0.599999
v 15.000000 1.500000 -1.100000
v 15.000000 1.600000 -1.100000
v 15.000000 1.500000 -0.600000
v 15.000000 1.600000 -0.600000
v 0.000000 1.500000 -1.099999
v 0.000000 1.600000 -1.099999
v 0.000000 1.500000 -0.599999
v 0.000000 1.600000 -0.599999
v 15.000000 2.000000 -1.100000
v 15.000000 2.100000 -1.100000
v 15.000000 2.000000 -0.600000
v 15.000000 2.100000 -0.600000
v 0.000000 2.000000 -1.099999
v 0.000000 2.100000 -1.099999
v 0.000000 2.000000 -0.599999
v 0.000000 2.100000 -0.599999
v 15.000000 2.500000 -1.100000
v 15.000000 2.600000 -1.100000
v 15.000000 2.500000 -0.600000
v 15.000000 2.600000 -0.600000
v 0.000000 2.500000 -1.099999
v 0.000000 2.600000 -1.099999
v 0.000000 2.500000 -0.599999
v 0.000000 2.600000 -0.599999
v 15.000000 3.000000 -1.100000
v 15.000000 3.100000 -1.100000
v 15.000000 3.000000 -0.600000
v 15.000000 3.100000 -0.600000
v 0.000000 3.000000 -1.099999
v 0.000000 3.100000 -1.099999
v 0.000000 3.000000 -0.599999
v 0.000000 3.100000 -0.599999
vn -0.0000 -0.0000 -1.0000
vn -0.0000 -0.0000 1.0000
vn -0.0000 -1.0000 -0.0000
vn -0.0000 1.0000 -0.0000
vn -1.0000 -0.0000 -0.0000
vn 1.0000 -0.0000 -0.0000
s 0
f 3//1 4//1 8//1 7//1
f 5//2 6//2 2//2 1//2
f 3//3 7//3 5//3 1//3
f 8//4 4//4 2//4 6//4
f 9//5 10//5 12//5 11//5
f 11//1 12//1 16//1 15//1
f 15//6 16//6 14//6 13//6
f 13//2 14//2 10//2 9//2
f 11//3 15//3 13//3 9//3
f 16//4 12//4 10//4 14//4
f 21//2 22//2 18//2 17//2
f 19//3 23//3 21//3 17//3
f 24//4 20//4 18//4 22//4
f 29//2 30//2 26//2 25//2
f 27//3 31//3 29//3 25//3
f 32//4 28//4 26//4 30//4
f 37//2 38//2 34//2 33//2
f 35//3 39//3 37//3 33//3
f 40//4 36//4 34//4 38//4
f 80//4 76//4 74//4 78//4
f 45//2 46//2 42//2 41//2
f 43//3 47//3 45//3 41//3
f 48//4 44//4 42//4 46//4
f 77//2 78//2 74//2 73//2
f 79//6 80//6 78//6 77//6
f 53//2 54//2 50//2 49//2
f 51//3 55//3 53//3 49//3
f 56//4 52//4 50//4 54//4
f 75//1 76//1 80//1 79//1
f 73//5 74//5 76//5 75//5
f 61//2 62//2 58//2 57//2
f 59//3 63//3 61//3 57//3
f 64//4 60//4 58//4 62//4
f 65//5 66//5 68//5 67//5
f 67//1 68//1 72//1 71//1
f 71//6 72//6 70//6 69//6
f 69//2 70//2 66//2 65//2
f 72//4 68//4 66//4 70//4
f 85//1 86//1 82//1 81//1
f 83//3 87//3 85//3 81//3
f 88//4 84//4 82//4 86//4
f 93//1 94//1 90//1 89//1
f 91//3 95//3 93//3 89//3
f 96//4 92//4 90//4 94//4
f 101//1 102//1 98//1 97//1
f 99//3 103//3 101//3 97//3
f 104//4 100//4 98//4 102//4
f 109//1 110//1 106//1 105//1
f 107//3 111//3 109//3 105//3
f 112//4 108//4 106//4 110//4
f 117//1 118//1 114//1 113//1
f 115//3 119//3 117//3 113//3
f 120//4 116//4 114//4 118//4
f 125//1 126//1 122//1 121//1
f 123//3 127//3 125//3 121//3
f 128//4 124//4 122//4 126//4
f 133//1 134//1 130//1 129//1
f 131//3 135//3 133//3 129//3
f 136//4 132//4 130//4 134//4
