# Blender 4.1.1
# www.blender.org
o Cylinder
v 0.000000 -0.000000 -0.338333 0.5569 0.5569 0.5569
v 0.000000 1.210938 -0.338333 0.5569 0.5569 0.5569
v 0.239237 -0.000000 -0.239237 0.5569 0.5569 0.5569
v 0.239237 1.210938 -0.239237 0.5569 0.5569 0.5569
v 0.338333 0.000000 0.000000 0.5569 0.5569 0.5569
v 0.338333 1.210938 -0.000000 0.5569 0.5569 0.5569
v 0.239237 0.000000 0.239237 0.5569 0.5569 0.5569
v 0.239237 1.210938 0.239237 0.5569 0.5569 0.5569
v 0.000000 0.000000 0.338333 0.5569 0.5569 0.5569
v 0.000000 1.210938 0.338333 0.5569 0.5569 0.5569
v -0.239237 0.000000 0.239237 0.5569 0.5569 0.5569
v -0.239237 1.210938 0.239237 0.5569 0.5569 0.5569
v -0.338333 0.000000 0.000000 0.5569 0.5569 0.5569
v -0.338333 1.210938 -0.000000 0.5569 0.5569 0.5569
v -0.239237 -0.000000 -0.239237 0.5569 0.5569 0.5569
v -0.239237 1.210938 -0.239237 0.5569 0.5569 0.5569
v -0.239237 0.956128 0.239237 0.5569 0.5569 0.5569
v 0.000000 1.070573 0.338333 0.5569 0.5569 0.5569
v 0.000000 0.835686 0.338333 0.5569 0.5569 0.5569
v 0.239237 0.955780 0.239237 0.5569 0.5569 0.5569
v 0.155173 0.852424 0.274058 0.5569 0.5569 0.5569
v 0.154815 1.060864 0.274206 0.5569 0.5569 0.5569
v -0.155681 0.851396 0.273848 0.5569 0.5569 0.5569
v -0.155274 1.059812 0.274016 0.5569 0.5569 0.5569
v 0.000000 0.026655 -0.312251 0.5569 0.5569 0.5569
v 0.220794 0.026655 -0.220794 0.5569 0.5569 0.5569
v 0.312251 0.026655 -0.000000 0.5569 0.5569 0.5569
v 0.220794 0.026655 0.220794 0.5569 0.5569 0.5569
v 0.000000 0.026655 0.312251 0.5569 0.5569 0.5569
v -0.220794 0.026655 0.220794 0.5569 0.5569 0.5569
v -0.312251 0.026655 -0.000000 0.5569 0.5569 0.5569
v -0.220794 0.026655 -0.220794 0.5569 0.5569 0.5569
v -0.212667 0.956128 0.218681 0.5569 0.5569 0.5569
v 0.000021 1.070573 0.304739 0.5569 0.5569 0.5569
v -0.000021 0.835686 0.304739 0.5569 0.5569 0.5569
v 0.212680 0.955780 0.218664 0.5569 0.5569 0.5569
v 0.142318 0.852424 0.243021 0.5569 0.5569 0.5569
v 0.141959 1.060864 0.243169 0.5569 0.5569 0.5569
v -0.142825 0.851396 0.242811 0.5569 0.5569 0.5569
v -0.142418 1.059812 0.242979 0.5569 0.5569 0.5569
v 0.000000 0.026655 -0.312251 0.2330 0.2330 0.2330
v 0.000000 1.184283 -0.312251 0.2330 0.2330 0.2330
v 0.220794 0.026655 -0.220794 0.2330 0.2330 0.2330
v 0.220794 1.184283 -0.220794 0.2330 0.2330 0.2330
v 0.312251 0.026655 -0.000000 0.2330 0.2330 0.2330
v 0.312251 1.184283 -0.000000 0.2330 0.2330 0.2330
v 0.220794 0.026655 0.220794 0.2330 0.2330 0.2330
v 0.220794 1.184283 0.220794 0.2330 0.2330 0.2330
v 0.000000 0.026655 0.312251 0.2330 0.2330 0.2330
v 0.000000 1.184283 0.312251 0.2330 0.2330 0.2330
v -0.220794 0.026655 0.220794 0.2330 0.2330 0.2330
v -0.220794 1.184283 0.220794 0.2330 0.2330 0.2330
v -0.312251 0.026655 -0.000000 0.2330 0.2330 0.2330
v -0.312251 1.184283 -0.000000 0.2330 0.2330 0.2330
v -0.220794 0.026655 -0.220794 0.2330 0.2330 0.2330
v -0.220794 1.184283 -0.220794 0.2330 0.2330 0.2330
v -0.212667 0.956128 0.218681 0.2330 0.2330 0.2330
v 0.000021 1.070573 0.304739 0.2330 0.2330 0.2330
v -0.000021 0.835686 0.304739 0.2330 0.2330 0.2330
v 0.212680 0.955780 0.218664 0.2330 0.2330 0.2330
v 0.142318 0.852424 0.243021 0.2330 0.2330 0.2330
v 0.141959 1.060864 0.243169 0.2330 0.2330 0.2330
v -0.142825 0.851396 0.242811 0.2330 0.2330 0.2330
v -0.142418 1.059812 0.242979 0.2330 0.2330 0.2330
vn 0.3827 -0.0000 -0.9239
vn 0.9239 -0.0000 -0.3827
vn 0.9239 -0.0000 0.3827
vn 0.3827 -0.0000 0.9239
vn -0.3827 -0.0000 0.9239
vn -0.9239 -0.0000 0.3827
vn -0.0000 1.0000 -0.0000
vn -0.9239 -0.0000 -0.3827
vn -0.3827 -0.0000 -0.9239
vn -0.1032 0.9944 0.0206
vn -0.6305 0.6088 0.4815
vn -0.6332 -0.6043 0.4836
vn -0.0602 -0.9981 0.0120
vn 0.6350 0.6011 0.4852
vn 0.0966 0.9951 0.0192
vn 0.0665 -0.9977 0.0133
vn 0.6314 -0.6070 0.4825
vn -0.9171 -0.0000 -0.3987
vn -0.3764 -0.0094 -0.9264
vn 0.3763 -0.0094 -0.9264
vn 0.9171 -0.0000 -0.3987
vn -0.3816 0.0767 -0.9212
vn 0.3932 0.0607 -0.9174
vn -0.3937 0.0605 -0.9172
vn -0.3012 0.0196 -0.9533
vn 0.3009 0.0195 -0.9534
vn 0.3816 0.0761 -0.9212
vn -0.3763 -0.0094 -0.9264
vn 0.3764 -0.0094 -0.9264
s 0
f 1//1 2//1 4//1 3//1
f 3//2 4//2 6//2 5//2
f 5//3 6//3 8//3 20//3 7//3
f 21//4 19//4 9//4
f 23//5 17//5 11//5
f 11//6 17//6 12//6 14//6 13//6
f 4//7 2//7 16//7 14//7 12//7 10//7 8//7 6//7
f 13//8 14//8 16//8 15//8
f 15//9 16//9 2//9 1//9
f 22//4 8//4 10//4
f 24//5 10//5 12//5
f 25//7 32//7 31//7 30//7 29//7 28//7 27//7 26//7
f 19//10 21//10 37//10 35//10
f 21//11 20//11 36//11 37//11
f 20//12 22//12 38//12 36//12
f 22//13 18//13 34//13 38//13
f 17//14 23//14 39//14 33//14
f 23//15 19//15 35//15 39//15
f 18//16 24//16 40//16 34//16
f 24//17 17//17 33//17 40//17
f 41//5 43//5 44//5 42//5
f 43//6 45//6 46//6 44//6
f 45//18 47//18 60//18 48//18 46//18
f 61//19 47//19 59//19
f 51//20 63//20 59//20
f 51//21 53//21 54//21 52//21 57//21
f 53//3 55//3 56//3 54//3
f 55//4 41//4 42//4 56//4
f 50//22 48//22 62//22
f 50//23 58//23 64//23
f 62//24 58//24 50//24
f 48//25 60//25 62//25
f 10//4 18//4 22//4
f 22//4 20//4 8//4
f 9//4 7//4 21//4
f 7//4 20//4 21//4
f 11//5 9//5 23//5
f 9//5 19//5 23//5
f 24//5 18//5 10//5
f 12//5 17//5 24//5
f 64//26 57//26 52//26
f 52//27 50//27 64//27
f 60//28 47//28 61//28
f 47//28 49//28 59//28
f 59//29 49//29 51//29
f 51//20 57//20 63//20
