# Blender 4.1.1
# www.blender.org
o dead_tree.001
v 0.226738 -0.375426 -1.119913 0.5255 0.2588 0.0000
v 0.226730 2.659924 -0.789492 0.5255 0.2588 0.0000
v 0.812168 -0.375426 -0.781913 0.5255 0.2588 0.0000
v 0.643024 2.659924 -0.549145 0.5255 0.2588 0.0000
v 0.812168 -0.375426 -0.105918 0.5255 0.2588 0.0000
v 0.643024 2.659924 -0.068449 0.5255 0.2588 0.0000
v 0.226738 -0.375426 0.232081 0.5255 0.2588 0.0000
v 0.226730 2.659924 0.171898 0.5255 0.2588 0.0000
v -0.358692 -0.375426 -0.105918 0.5255 0.2588 0.0000
v -0.189564 2.659924 -0.068449 0.5255 0.2588 0.0000
v -0.358692 -0.375426 -0.781913 0.5255 0.2588 0.0000
v -0.189564 2.659924 -0.549145 0.5255 0.2588 0.0000
v 0.053009 4.594641 -0.351900 0.5255 0.2588 0.0000
v 0.457153 4.594641 -0.118567 0.5255 0.2588 0.0000
v 0.457153 4.594641 0.348098 0.5255 0.2588 0.0000
v 0.053009 4.594641 0.581430 0.5255 0.2588 0.0000
v -0.351135 4.594641 0.348098 0.5255 0.2588 0.0000
v -0.351135 4.594641 -0.118567 0.5255 0.2588 0.0000
v -1.245861 7.004790 1.815114 0.5255 0.2588 0.0000
v -1.003292 6.993804 1.990322 0.5255 0.2588 0.0000
v -0.980900 6.783188 2.201976 0.5255 0.2588 0.0000
v -1.201077 6.583560 2.238423 0.5255 0.2588 0.0000
v -1.443645 6.594546 2.063215 0.5255 0.2588 0.0000
v -1.466038 6.805163 1.851562 0.5255 0.2588 0.0000
v -2.347664 8.093627 4.852948 0.5255 0.2588 0.0000
v 0.913517 6.478978 -1.499813 0.5255 0.2588 0.0000
v 1.221012 6.448718 -1.356779 0.5255 0.2588 0.0000
v 1.409435 6.171237 -1.415313 0.5255 0.2588 0.0000
v 1.290363 5.924012 -1.616879 0.5255 0.2588 0.0000
v 0.982872 5.954272 -1.759913 0.5255 0.2588 0.0000
v 0.794449 6.231753 -1.701380 0.5255 0.2588 0.0000
v 1.413002 7.450941 -4.684422 0.5255 0.2588 0.0000
v 1.726910 6.750464 0.462581 0.5255 0.2588 0.0000
v 1.893066 6.499514 0.522171 0.5255 0.2588 0.0000
v 1.897186 6.381976 0.805550 0.5255 0.2588 0.0000
v 1.735153 6.515391 1.029338 0.5255 0.2588 0.0000
v 1.569000 6.766345 0.969745 0.5255 0.2588 0.0000
v 1.564880 6.883881 0.686367 0.5255 0.2588 0.0000
v 4.047157 7.812026 1.933442 0.5255 0.2588 0.0000
v -1.845222 5.732016 -0.941938 0.5255 0.2588 0.0000
v -1.690716 5.980708 -0.826624 0.5255 0.2588 0.0000
v -1.741947 6.074358 -0.530612 0.5255 0.2588 0.0000
v -1.947687 5.919320 -0.349915 0.5255 0.2588 0.0000
v -2.102196 5.670628 -0.465228 0.5255 0.2588 0.0000
v -2.050964 5.576975 -0.761240 0.5255 0.2588 0.0000
v -4.429453 6.817391 -1.684961 0.5255 0.2588 0.0000
vn 0.4999 0.0172 0.8659
vn 0.1961 -0.7851 -0.5875
vn 0.3140 -0.7781 -0.5440
vn 0.9985 0.0556 -0.0000
vn -0.9985 0.0556 -0.0000
vn 0.9954 0.0956 -0.0000
vn 0.4978 0.0939 -0.8622
vn 0.3756 0.7268 -0.5751
vn 0.4953 -0.1371 0.8578
vn -0.4978 0.0939 -0.8622
vn -0.9965 -0.0832 -0.0000
vn 0.7985 -0.6019 -0.0000
vn 0.7845 -0.5687 -0.2473
vn -0.4875 -0.2225 0.8443
vn 0.2266 0.9401 -0.2548
vn 0.8771 -0.4759 0.0655
vn 0.8560 -0.5170 -0.0000
vn -0.9230 -0.3172 -0.2180
vn -0.8929 -0.4503 -0.0000
vn -0.4710 0.4390 -0.7651
vn -0.4999 0.0172 0.8659
vn -0.4944 0.1493 -0.8563
vn -0.3471 -0.7198 0.6012
vn -0.4324 -0.7114 0.5541
vn -0.6385 0.6213 -0.4543
vn -0.3077 -0.8761 0.3711
vn 0.8874 0.3702 0.2745
vn -0.9497 -0.2664 -0.1646
vn 0.5973 -0.5527 0.5812
vn -0.7702 0.6294 0.1029
vn -0.1208 -0.6813 -0.7220
vn -0.3072 -0.7889 -0.5322
vn -0.3073 -0.7889 -0.5322
vn -0.8597 0.4999 -0.1052
vn -0.8303 0.5573 -0.0000
vn -0.2925 0.0333 0.9557
vn -0.4908 0.1906 0.8502
vn 0.5528 0.4291 0.7143
vn -0.8987 0.4386 -0.0071
vn 0.9309 -0.3405 -0.1323
vn -0.0389 0.9574 0.2861
vn -0.8055 -0.4711 -0.3596
vn 0.1165 -0.8910 -0.4388
vn 0.8293 0.5200 0.2045
vn 0.8813 0.4588 0.1134
vn 0.3879 0.1783 -0.9043
vn 0.4745 0.3154 -0.8218
vn -0.5400 -0.8248 0.1675
vn -0.5235 -0.8520 -0.0000
vn -0.4186 0.5897 -0.6906
vn 0.4634 -0.3754 0.8027
vn 0.4693 -0.3715 0.8011
vn -0.4738 -0.1107 0.8736
vn -0.4947 -0.1447 0.8569
vn 0.1973 -0.7726 0.6035
vn 0.4915 0.1207 -0.8625
vn -0.0460 0.8430 -0.5359
vn -0.3570 -0.0146 0.9340
vn 0.6331 -0.7117 -0.3044
vn -0.4753 0.8102 0.3430
vn 0.4990 -0.0609 -0.8644
vn 0.3755 0.0286 -0.9264
vn -0.6459 -0.2897 -0.7063
vn -0.4495 -0.4381 -0.7785
vn 0.2318 0.7483 0.6216
vn 0.4774 -0.5583 0.6785
vn 0.4212 -0.5390 0.7295
vn -0.2744 0.7666 0.5806
vn -0.5086 -0.8423 0.1785
vn -0.0485 0.7847 0.6180
vn 0.3495 0.2066 -0.9139
vn -0.0916 -0.7018 -0.7065
vn -0.4972 -0.0912 0.8628
vn 0.3490 0.9092 -0.2272
vn 0.5653 0.8225 -0.0630
vn 0.4861 0.2341 -0.8420
s 0
f 6//1 8//1 7//1 5//1
f 30//2 29//2 14//3 13//3
f 4//4 6//4 5//4 3//4
f 12//5 11//5 9//5 10//5
f 6//6 4//6 14//6 15//6
f 2//7 4//7 3//7 1//7
f 20//8 14//8 13//8 19//8
f 8//9 6//9 15//9 16//9
f 11//10 12//10 2//10 1//10
f 10//11 17//11 18//11 12//11
f 15//12 14//12 34//13 35//13
f 8//14 16//14 17//14 10//14
f 20//15 19//15 25//15
f 14//16 29//16 28//17 15//17
f 17//18 23//18 24//19 18//19
f 19//20 13//20 18//20 24//20
f 10//21 9//21 7//21 8//21
f 12//22 18//22 13//22 2//22
f 17//23 16//23 22//24 23//24
f 19//25 24//25 25//25
f 23//26 22//26 25//26
f 21//27 20//27 25//27
f 24//28 23//28 25//28
f 22//29 21//29 25//29
f 38//30 18//30 17//30 37//30
f 18//31 45//31 40//32 13//33
f 26//34 31//34 18//35 17//35
f 16//36 36//36 37//37 17//37
f 27//38 16//38 15//38 28//38
f 26//39 32//39 31//39
f 29//40 32//40 28//40
f 27//41 32//41 26//41
f 31//42 32//42 30//42
f 30//43 32//43 29//43
f 28//44 32//44 27//44
f 20//45 21//45 15//45 14//45
f 13//46 40//46 41//47 14//47
f 44//48 45//48 18//49 17//49
f 38//50 33//50 13//50 18//50
f 16//51 15//51 21//52 22//52
f 43//53 44//53 17//54 16//54
f 36//55 35//55 39//55
f 34//56 33//56 39//56
f 33//57 38//57 39//57
f 37//58 36//58 39//58
f 35//59 34//59 39//59
f 38//60 37//60 39//60
f 14//61 13//61 33//62 34//62
f 31//63 30//63 13//64 18//64
f 16//65 15//65 42//65 43//65
f 15//66 35//66 36//67 16//67
f 26//68 17//68 16//68 27//68
f 44//69 46//69 45//69
f 42//70 46//70 43//70
f 40//71 46//71 41//71
f 45//72 46//72 40//72
f 43//73 46//73 44//73
f 41//74 46//74 42//74
f 42//75 15//75 14//75 41//75
f 4//76 2//76 13//76 14//76
