# Blender 4.1.1
# www.blender.org
o grass_visual.013
v 0.243985 0.146025 0.140863 0.0000 0.5255 0.0510
v 0.243985 0.271568 0.140863 0.0000 0.5255 0.0510
v -0.000001 0.146025 0.281729 0.0000 0.5255 0.0510
v -0.000001 0.271568 0.281729 0.0000 0.5255 0.0510
v 0.160697 0.403210 0.458229 0.0000 0.5255 0.0510
v 0.316488 0.403210 0.368282 0.0000 0.5255 0.0510
v 0.336903 0.319265 0.403641 0.0000 0.5255 0.0510
v 0.181111 0.319265 0.493586 0.0000 0.5255 0.0510
v 0.353736 0.494892 0.705112 0.0000 0.5255 0.0510
v 0.364224 0.451765 0.723278 0.0000 0.5255 0.0510
v 0.433776 0.494892 0.658901 0.0000 0.5255 0.0510
v 0.444263 0.451765 0.677067 0.0000 0.5255 0.0510
v 0.507494 0.485302 0.879007 0.0000 0.5255 0.0510
v -0.243986 0.146025 0.140863 0.0000 0.5255 0.0510
v -0.243986 0.271568 0.140863 0.0000 0.5255 0.0510
v -0.243985 0.146025 -0.140867 0.0000 0.5255 0.0510
v -0.243985 0.271568 -0.140867 0.0000 0.5255 0.0510
v -0.477188 0.403210 -0.089949 0.0000 0.5255 0.0510
v -0.477188 0.403210 0.089943 0.0000 0.5255 0.0510
v -0.518015 0.319265 0.089943 0.0000 0.5255 0.0510
v -0.518015 0.319265 -0.089949 0.0000 0.5255 0.0510
v -0.787516 0.494892 -0.046215 0.0000 0.5255 0.0510
v -0.808491 0.451765 -0.046215 0.0000 0.5255 0.0510
v -0.787516 0.494892 0.046207 0.0000 0.5255 0.0510
v -0.808491 0.451765 0.046207 0.0000 0.5255 0.0510
v -1.014992 0.485302 -0.000004 0.0000 0.5255 0.0510
v 0.000001 0.146025 -0.281733 0.0000 0.5255 0.0510
v 0.000001 0.271568 -0.281733 0.0000 0.5255 0.0510
v -0.160697 0.403210 -0.458233 0.0000 0.5255 0.0510
v -0.316488 0.403210 -0.368286 0.0000 0.5255 0.0510
v -0.336903 0.319265 -0.403645 0.0000 0.5255 0.0510
v -0.181111 0.319265 -0.493589 0.0000 0.5255 0.0510
v -0.353736 0.494892 -0.705116 0.0000 0.5255 0.0510
v -0.364224 0.451765 -0.723282 0.0000 0.5255 0.0510
v -0.433776 0.494892 -0.658905 0.0000 0.5255 0.0510
v -0.444263 0.451765 -0.677071 0.0000 0.5255 0.0510
v -0.507494 0.485302 -0.879011 0.0000 0.5255 0.0510
v 0.243986 0.146025 -0.140867 0.0000 0.5255 0.0510
v 0.243986 0.271568 -0.140867 0.0000 0.5255 0.0510
v 0.477188 0.403210 0.089945 0.0000 0.5255 0.0510
v 0.477188 0.403210 -0.089947 0.0000 0.5255 0.0510
v 0.518016 0.319265 -0.089947 0.0000 0.5255 0.0510
v 0.518016 0.319265 0.089945 0.0000 0.5255 0.0510
v 0.787516 0.494892 0.046211 0.0000 0.5255 0.0510
v 0.808491 0.451765 0.046211 0.0000 0.5255 0.0510
v 0.787516 0.494892 -0.046211 0.0000 0.5255 0.0510
v 0.808491 0.451765 -0.046211 0.0000 0.5255 0.0510
v 1.014992 0.485302 -0.000000 0.0000 0.5255 0.0510
v 0.316491 0.403210 -0.368284 0.0000 0.5255 0.0510
v 0.160700 0.403210 -0.458231 0.0000 0.5255 0.0510
v 0.181113 0.319265 -0.493589 0.0000 0.5255 0.0510
v 0.336904 0.319265 -0.403643 0.0000 0.5255 0.0510
v 0.433779 0.494892 -0.658903 0.0000 0.5255 0.0510
v 0.444267 0.451765 -0.677069 0.0000 0.5255 0.0510
v 0.353740 0.494892 -0.705114 0.0000 0.5255 0.0510
v 0.364227 0.451765 -0.723280 0.0000 0.5255 0.0510
v 0.507498 0.485302 -0.879009 0.0000 0.5255 0.0510
v -0.316491 0.403210 0.368280 0.0000 0.5255 0.0510
v -0.160700 0.403210 0.458227 0.0000 0.5255 0.0510
v -0.181113 0.319265 0.493586 0.0000 0.5255 0.0510
v -0.336905 0.319265 0.403639 0.0000 0.5255 0.0510
v -0.433779 0.494892 0.658899 0.0000 0.5255 0.0510
v -0.444267 0.451765 0.677065 0.0000 0.5255 0.0510
v -0.353740 0.494892 0.705110 0.0000 0.5255 0.0510
v -0.364227 0.451765 0.723276 0.0000 0.5255 0.0510
v -0.507498 0.485302 0.879005 0.0000 0.5255 0.0510
v 0.159008 -0.100319 0.091803 0.0000 0.5255 0.0510
v -0.000001 -0.100319 0.183605 0.0000 0.5255 0.0510
v -0.159008 -0.100319 0.091801 0.0000 0.5255 0.0510
v -0.159008 -0.100319 -0.091806 0.0000 0.5255 0.0510
v 0.000001 -0.100319 -0.183609 0.0000 0.5255 0.0510
v 0.159009 -0.100319 -0.091804 0.0000 0.5255 0.0510
vn 0.9428 -0.0000 -0.3334
vn -0.7666 0.0818 0.6369
vn 0.2672 -0.8453 0.4628
vn -0.2458 0.8708 -0.4257
vn 0.2075 -0.9098 0.3594
vn 0.0211 0.9991 0.0365
vn -0.1417 0.9590 -0.2454
vn 0.9191 0.0594 -0.3896
vn -0.7970 0.0594 0.6011
vn 0.9449 0.0983 -0.3122
vn -0.7428 0.0983 0.6622
vn 0.0802 -0.9871 0.1388
vn -0.1827 -0.0000 0.9832
vn -0.1683 0.0818 -0.9823
vn -0.5344 -0.8453 -0.0000
vn 0.4916 0.8708 -0.0000
vn -0.4150 -0.9098 -0.0000
vn -0.0421 0.9991 -0.0000
vn 0.2833 0.9590 -0.0000
vn -0.1221 0.0594 0.9907
vn -0.1221 0.0594 -0.9907
vn -0.2021 0.0983 0.9744
vn -0.2021 0.0983 -0.9744
vn -0.1603 -0.9871 -0.0000
vn -0.9428 -0.0000 0.3334
vn 0.7666 0.0818 -0.6369
vn -0.2672 -0.8453 -0.4628
vn 0.2458 0.8708 0.4257
vn -0.2075 -0.9098 -0.3594
vn -0.0211 0.9991 -0.0365
vn 0.1417 0.9590 0.2454
vn -0.9191 0.0594 0.3896
vn 0.7970 0.0594 -0.6011
vn -0.9449 0.0983 0.3122
vn 0.7428 0.0983 -0.6622
vn -0.0802 -0.9871 -0.1388
vn 0.1827 -0.0000 -0.9832
vn 0.1683 0.0818 0.9823
vn 0.5344 -0.8453 -0.0000
vn -0.4916 0.8708 -0.0000
vn 0.4150 -0.9098 -0.0000
vn 0.0421 0.9991 -0.0000
vn -0.2833 0.9590 -0.0000
vn 0.1221 0.0594 -0.9907
vn 0.1221 0.0594 0.9907
vn 0.2021 0.0983 -0.9744
vn 0.2021 0.0983 0.9744
vn 0.1603 -0.9871 -0.0000
vn -0.7601 -0.0000 -0.6498
vn 0.9349 0.0818 0.3454
vn 0.2672 -0.8453 -0.4628
vn -0.2458 0.8708 0.4257
vn 0.2075 -0.9098 -0.3594
vn 0.0211 0.9991 -0.0365
vn -0.1417 0.9590 0.2454
vn -0.7970 0.0594 -0.6011
vn 0.9191 0.0594 0.3896
vn -0.7428 0.0983 -0.6622
vn 0.9449 0.0983 0.3122
vn 0.0802 -0.9871 -0.1388
vn 0.7601 -0.0000 0.6498
vn -0.9349 0.0818 -0.3454
vn -0.2672 -0.8453 0.4628
vn 0.2458 0.8708 -0.4257
vn -0.2075 -0.9098 0.3594
vn -0.0211 0.9991 0.0365
vn 0.1417 0.9590 -0.2454
vn 0.7970 0.0594 0.6011
vn -0.9191 0.0594 -0.3896
vn 0.7428 0.0983 0.6622
vn -0.9449 0.0983 -0.3122
vn -0.0802 -0.9871 0.1388
vn -0.0000 1.0000 -0.0000
vn -0.4727 -0.3261 -0.8187
vn -0.4727 -0.3261 0.8187
vn 0.4727 -0.3261 -0.8187
vn 0.9453 -0.3261 -0.0000
vn -0.9453 -0.3261 -0.0000
vn 0.4727 -0.3261 0.8187
vn -0.0000 -1.0000 -0.0000
vn 0.9349 0.0819 -0.3454
vn -0.7601 -0.0000 0.6498
vn -0.1683 0.0818 0.9823
vn -0.1827 -0.0000 -0.9832
vn -0.9349 0.0819 0.3454
vn 0.7601 -0.0000 -0.6498
vn 0.1683 0.0819 -0.9823
vn 0.1827 -0.0000 0.9832
vn -0.7666 0.0819 -0.6369
vn 0.9428 -0.0000 0.3334
vn 0.9190 0.0594 0.3897
vn 0.7666 0.0819 0.6369
vn -0.9428 -0.0000 -0.3334
vn -0.9190 0.0594 -0.3896
s 0
f 2//1 7//1 1//1
f 4//2 8//2 5//2
f 1//3 8//3 3//3
f 2//4 5//4 6//4
f 8//5 12//5 10//5
f 11//6 9//6 13//6
f 5//7 11//7 6//7
f 7//8 11//8 12//8
f 8//9 9//9 5//9
f 12//10 11//10 13//10
f 9//11 10//11 13//11
f 10//12 12//12 13//12
f 15//13 20//13 14//13
f 17//14 21//14 18//14
f 14//15 21//15 16//15
f 15//16 18//16 19//16
f 21//17 25//17 23//17
f 24//18 22//18 26//18
f 18//19 24//19 19//19
f 20//20 24//20 25//20
f 21//21 22//21 18//21
f 25//22 24//22 26//22
f 22//23 23//23 26//23
f 23//24 25//24 26//24
f 17//25 31//25 16//25
f 28//26 32//26 29//26
f 16//27 32//27 27//27
f 28//28 30//28 17//28
f 32//29 36//29 34//29
f 35//30 33//30 37//30
f 29//31 35//31 30//31
f 31//32 35//32 36//32
f 32//33 33//33 29//33
f 36//34 35//34 37//34
f 33//35 34//35 37//35
f 34//36 36//36 37//36
f 39//37 42//37 38//37
f 2//38 43//38 40//38
f 38//39 43//39 1//39
f 39//40 40//40 41//40
f 43//41 47//41 45//41
f 46//42 44//42 48//42
f 40//43 46//43 41//43
f 42//44 46//44 47//44
f 43//45 44//45 40//45
f 47//46 46//46 48//46
f 44//47 45//47 48//47
f 45//48 47//48 48//48
f 28//49 51//49 27//49
f 39//50 52//50 49//50
f 27//51 52//51 38//51
f 39//52 50//52 28//52
f 52//53 56//53 54//53
f 55//54 53//54 57//54
f 49//55 55//55 50//55
f 51//56 55//56 56//56
f 52//57 53//57 49//57
f 56//58 55//58 57//58
f 53//59 54//59 57//59
f 54//60 56//60 57//60
f 4//61 60//61 3//61
f 15//62 61//62 58//62
f 3//63 61//63 14//63
f 15//64 59//64 4//64
f 61//65 65//65 63//65
f 64//66 62//66 66//66
f 58//67 64//67 59//67
f 60//68 64//68 65//68
f 61//69 62//69 58//69
f 65//70 64//70 66//70
f 62//71 63//71 66//71
f 63//72 65//72 66//72
f 39//73 17//73 4//73
f 27//74 70//74 16//74
f 14//75 68//75 3//75
f 38//76 71//76 27//76
f 1//77 72//77 38//77
f 16//78 69//78 14//78
f 3//79 67//79 1//79
f 69//80 71//80 67//80
f 2//81 6//81 7//81
f 4//82 3//82 8//82
f 1//3 7//3 8//3
f 2//4 4//4 5//4
f 8//5 7//5 12//5
f 5//7 9//7 11//7
f 7//8 6//8 11//8
f 8//9 10//9 9//9
f 15//83 19//83 20//83
f 17//84 16//84 21//84
f 14//15 20//15 21//15
f 15//16 17//16 18//16
f 21//17 20//17 25//17
f 18//19 22//19 24//19
f 20//20 19//20 24//20
f 21//21 23//21 22//21
f 17//85 30//85 31//85
f 28//86 27//86 32//86
f 16//27 31//27 32//27
f 28//28 29//28 30//28
f 32//29 31//29 36//29
f 29//31 33//31 35//31
f 31//32 30//32 35//32
f 32//33 34//33 33//33
f 39//87 41//87 42//87
f 2//88 1//88 43//88
f 38//39 42//39 43//39
f 39//40 2//40 40//40
f 43//41 42//41 47//41
f 40//43 44//43 46//43
f 42//44 41//44 46//44
f 43//45 45//45 44//45
f 28//89 50//89 51//89
f 39//90 38//90 52//90
f 27//51 51//51 52//51
f 39//52 49//52 50//52
f 52//53 51//53 56//53
f 49//55 53//55 55//55
f 51//56 50//56 55//56
f 52//91 54//91 53//91
f 4//92 59//92 60//92
f 15//93 14//93 61//93
f 3//63 60//63 61//63
f 15//64 58//64 59//64
f 61//65 60//65 65//65
f 58//67 62//67 64//67
f 60//68 59//68 64//68
f 61//94 63//94 62//94
f 4//73 2//73 39//73
f 39//73 28//73 17//73
f 17//73 15//73 4//73
f 27//74 71//74 70//74
f 14//75 69//75 68//75
f 38//76 72//76 71//76
f 1//77 67//77 72//77
f 16//78 70//78 69//78
f 3//79 68//79 67//79
f 67//80 68//80 69//80
f 69//80 70//80 71//80
f 71//80 72//80 67//80
