# Blender 3.6.2
# www.blender.org
o fence
v -1.199153 -0.331107 0.098912 0.1530 0.1294 0.3372
v -1.199152 5.079722 0.098912 0.1530 0.1294 0.3372
v -1.299141 -0.331107 -0.001096 0.1530 0.1294 0.3372
v -1.299141 5.079722 -0.001096 0.1530 0.1294 0.3372
v -1.199131 -0.331107 -0.101084 0.1530 0.1294 0.3372
v -1.199131 5.079722 -0.101085 0.1530 0.1294 0.3372
v -1.099143 -0.331107 -0.001077 0.1530 0.1294 0.3372
v -1.099142 5.079722 -0.001077 0.1530 0.1294 0.3372
v -1.199164 5.079722 0.220469 0.1530 0.1294 0.3372
v -1.420699 5.079722 -0.001113 0.1530 0.1294 0.3372
v -1.199119 5.079722 -0.222643 0.1530 0.1294 0.3372
v -0.977585 5.079722 -0.001060 0.1530 0.1294 0.3372
v -1.199142 5.317517 -0.001086 0.1530 0.1294 0.3372
v 1.200848 -0.331107 0.099164 0.1530 0.1294 0.3372
v 1.200848 5.079722 0.099164 0.1530 0.1294 0.3372
v 1.100857 -0.331107 -0.000851 0.1530 0.1294 0.3372
v 1.100857 5.079722 -0.000851 0.1530 0.1294 0.3372
v 1.200868 -0.331107 -0.100840 0.1530 0.1294 0.3372
v 1.200869 5.079722 -0.100840 0.1530 0.1294 0.3372
v 1.300858 -0.331107 -0.000825 0.1530 0.1294 0.3372
v 1.300859 5.079722 -0.000825 0.1530 0.1294 0.3372
v 1.200835 5.079722 0.220714 0.1530 0.1294 0.3372
v 0.979302 5.079722 -0.000861 0.1530 0.1294 0.3372
v 1.200880 5.079722 -0.222397 0.1530 0.1294 0.3372
v 1.422415 5.079722 -0.000815 0.1530 0.1294 0.3372
v 1.200858 5.317517 -0.000842 0.1530 0.1294 0.3372
v 0.600848 -0.331107 0.099100 0.1530 0.1294 0.3372
v 0.600848 5.079722 0.099100 0.1530 0.1294 0.3372
v 0.500857 -0.331107 -0.000914 0.1530 0.1294 0.3372
v 0.500857 5.079722 -0.000914 0.1530 0.1294 0.3372
v 0.600867 -0.331107 -0.100903 0.1530 0.1294 0.3372
v 0.600867 5.079722 -0.100903 0.1530 0.1294 0.3372
v 0.700858 -0.331107 -0.000888 0.1530 0.1294 0.3372
v 0.700859 5.079722 -0.000888 0.1530 0.1294 0.3372
v 0.600836 5.079722 0.220658 0.1530 0.1294 0.3372
v 0.379302 5.079722 -0.000924 0.1530 0.1294 0.3372
v 0.600879 5.079722 -0.222461 0.1530 0.1294 0.3372
v 0.822414 5.079722 -0.000879 0.1530 0.1294 0.3372
v 0.600859 5.317517 -0.000897 0.1530 0.1294 0.3372
v 0.000848 -0.331107 0.099038 0.1530 0.1294 0.3372
v 0.000848 5.079722 0.099038 0.1530 0.1294 0.3372
v -0.099142 -0.331107 -0.000970 0.1530 0.1294 0.3372
v -0.099142 5.079722 -0.000970 0.1530 0.1294 0.3372
v 0.000867 -0.331107 -0.100965 0.1530 0.1294 0.3372
v 0.000867 5.079722 -0.100965 0.1530 0.1294 0.3372
v 0.100858 -0.331107 -0.000951 0.1530 0.1294 0.3372
v 0.100858 5.079722 -0.000951 0.1530 0.1294 0.3372
v 0.000836 5.079722 0.220596 0.1530 0.1294 0.3372
v -0.220698 5.079722 -0.000987 0.1530 0.1294 0.3372
v 0.000881 5.079722 -0.222517 0.1530 0.1294 0.3372
v 0.222414 5.079722 -0.000941 0.1530 0.1294 0.3372
v 0.000859 5.317517 -0.000960 0.1530 0.1294 0.3372
v -0.599154 -0.331107 0.098975 0.1530 0.1294 0.3372
v -0.599153 5.079722 0.098975 0.1530 0.1294 0.3372
v -0.699141 -0.331107 -0.001033 0.1530 0.1294 0.3372
v -0.699141 5.079722 -0.001033 0.1530 0.1294 0.3372
v -0.599131 -0.331107 -0.101021 0.1530 0.1294 0.3372
v -0.599131 5.079722 -0.101021 0.1530 0.1294 0.3372
v -0.499142 -0.331107 -0.001014 0.1530 0.1294 0.3372
v -0.499142 5.079722 -0.001014 0.1530 0.1294 0.3372
v -0.599164 5.079722 0.220532 0.1530 0.1294 0.3372
v -0.820698 5.079722 -0.001050 0.1530 0.1294 0.3372
v -0.599119 5.079722 -0.222579 0.1530 0.1294 0.3372
v -0.377586 5.079722 -0.001005 0.1530 0.1294 0.3372
v -0.599142 5.317517 -0.001023 0.1530 0.1294 0.3372
v -1.499154 2.795659 -0.053474 0.1530 0.1294 0.3372
v -1.499154 2.900367 -0.053474 0.1530 0.1294 0.3372
v -1.499164 2.795659 0.051237 0.1530 0.1294 0.3372
v -1.499164 2.900367 0.051237 0.1530 0.1294 0.3372
v 1.499732 2.795659 -0.053167 0.1530 0.1294 0.3372
v 1.499732 2.900367 -0.053167 0.1530 0.1294 0.3372
v 1.499722 2.795659 0.051545 0.1530 0.1294 0.3372
v 1.499722 2.900367 0.051545 0.1530 0.1294 0.3372
v -1.499154 3.946447 -0.053474 0.1530 0.1294 0.3372
v -1.499154 4.051155 -0.053474 0.1530 0.1294 0.3372
v -1.499164 3.946447 0.051237 0.1530 0.1294 0.3372
v -1.499164 4.051155 0.051237 0.1530 0.1294 0.3372
v 1.499732 3.946447 -0.053167 0.1530 0.1294 0.3372
v 1.499732 4.051155 -0.053167 0.1530 0.1294 0.3372
v 1.499722 3.946447 0.051545 0.1530 0.1294 0.3372
v 1.499722 4.051155 0.051545 0.1530 0.1294 0.3372
vn -0.7072 -0.0000 0.7070
vn -0.7070 -0.0000 -0.7072
vn -0.0000 -1.0000 -0.0000
vn 0.7072 -0.0000 -0.7070
vn 0.7070 -0.0000 0.7072
vn 0.5905 0.5502 -0.5904
vn -0.5905 0.5502 0.5904
vn 0.5904 0.5502 0.5905
vn -0.5904 0.5502 -0.5905
vn 0.5904 0.5501 0.5905
vn -0.7071 -0.0000 -0.7072
vn -0.5905 0.5501 0.5904
vn -0.0001 -0.0000 1.0000
vn 0.0001 -0.0000 -1.0000
vn -0.0000 1.0000 -0.0000
vn -1.0000 -0.0000 -0.0001
vn 1.0000 -0.0000 0.0001
s 0
f 2//1 3//1 1//1
f 4//2 5//2 3//2
f 2//3 10//3 4//3
f 6//4 7//4 5//4
f 8//5 1//5 7//5
f 6//3 12//3 8//3
f 8//3 9//3 2//3
f 4//3 11//3 6//3
f 12//6 11//6 13//6
f 10//7 9//7 13//7
f 9//8 12//8 13//8
f 11//9 10//9 13//9
f 15//1 16//1 14//1
f 17//2 18//2 16//2
f 15//3 23//3 17//3
f 19//4 20//4 18//4
f 21//5 14//5 20//5
f 19//3 25//3 21//3
f 21//3 22//3 15//3
f 17//3 24//3 19//3
f 25//6 24//6 26//6
f 23//7 22//7 26//7
f 22//8 25//8 26//8
f 24//9 23//9 26//9
f 28//1 29//1 27//1
f 30//2 31//2 29//2
f 28//3 36//3 30//3
f 32//4 33//4 31//4
f 34//5 27//5 33//5
f 32//3 38//3 34//3
f 34//3 35//3 28//3
f 30//3 37//3 32//3
f 38//6 37//6 39//6
f 36//7 35//7 39//7
f 35//10 38//10 39//10
f 37//9 36//9 39//9
f 41//1 42//1 40//1
f 43//11 44//11 42//11
f 43//3 48//3 49//3
f 45//4 46//4 44//4
f 47//5 40//5 46//5
f 45//3 51//3 47//3
f 47//3 48//3 41//3
f 43//3 50//3 45//3
f 51//6 50//6 52//6
f 49//7 48//7 52//7
f 48//8 51//8 52//8
f 50//9 49//9 52//9
f 54//1 55//1 53//1
f 56//2 57//2 55//2
f 56//3 61//3 62//3
f 58//4 59//4 57//4
f 60//5 53//5 59//5
f 60//3 63//3 64//3
f 60//3 61//3 54//3
f 56//3 63//3 58//3
f 64//6 63//6 65//6
f 62//12 61//12 65//12
f 61//8 64//8 65//8
f 63//9 62//9 65//9
f 69//13 68//13 72//13
f 71//14 70//14 66//14
f 72//3 68//3 66//3
f 69//15 73//15 71//15
f 77//13 76//13 80//13
f 79//14 78//14 74//14
f 80//3 76//3 74//3
f 77//15 81//15 79//15
f 2//1 4//1 3//1
f 4//2 6//2 5//2
f 2//3 9//3 10//3
f 6//4 8//4 7//4
f 8//5 2//5 1//5
f 6//3 11//3 12//3
f 8//3 12//3 9//3
f 4//3 10//3 11//3
f 15//1 17//1 16//1
f 17//2 19//2 18//2
f 15//3 22//3 23//3
f 19//4 21//4 20//4
f 21//5 15//5 14//5
f 19//3 24//3 25//3
f 21//3 25//3 22//3
f 17//3 23//3 24//3
f 28//1 30//1 29//1
f 30//2 32//2 31//2
f 28//3 35//3 36//3
f 32//4 34//4 33//4
f 34//5 28//5 27//5
f 32//3 37//3 38//3
f 34//3 38//3 35//3
f 30//3 36//3 37//3
f 41//1 43//1 42//1
f 43//11 45//11 44//11
f 43//3 41//3 48//3
f 45//4 47//4 46//4
f 47//5 41//5 40//5
f 45//3 50//3 51//3
f 47//3 51//3 48//3
f 43//3 49//3 50//3
f 54//1 56//1 55//1
f 56//2 58//2 57//2
f 56//3 54//3 61//3
f 58//4 60//4 59//4
f 60//5 54//5 53//5
f 60//3 58//3 63//3
f 60//3 64//3 61//3
f 56//3 62//3 63//3
f 69//13 72//13 73//13
f 71//14 66//14 67//14
f 72//3 66//3 70//3
f 69//15 71//15 67//15
f 77//13 80//13 81//13
f 79//14 74//14 75//14
f 80//3 74//3 78//3
f 77//15 79//15 75//15
f 74//16 77//16 75//16
f 67//16 68//16 69//16
f 80//17 79//17 81//17
f 73//17 70//17 71//17
f 74//16 76//16 77//16
f 67//16 66//16 68//16
f 80//17 78//17 79//17
f 73//17 72//17 70//17
