# Blender 4.1.1
# www.blender.org
o Cylinder
v 0.261444 -0.068608 0.221845 0.6863 0.6863 0.6863
v 0.141477 0.113465 -0.176285 0.6863 0.6863 0.6863
v -0.387327 -0.068608 -0.187502 0.6863 0.6863 0.6863
v -0.206653 0.113465 0.112380 0.6863 0.6863 0.6863
v -0.254478 -0.068608 0.148936 0.6863 0.6863 0.6863
v 0.197158 -0.068608 -0.225555 0.6863 0.6863 0.6863
v -0.309056 0.113465 -0.146953 0.6863 0.6863 0.6863
v 0.191030 0.113465 0.168580 0.6863 0.6863 0.6863
v -0.110172 0.216600 -0.025664 0.6863 0.6863 0.6863
vn -0.5505 0.8060 0.2174
vn -0.0630 0.2427 -0.9681
vn -0.1362 0.2293 0.9638
vn -0.8864 0.3031 0.3500
vn 0.9368 0.3229 -0.1346
vn -0.0396 0.7924 -0.6088
vn 0.3526 0.9344 -0.0507
vn -0.0792 0.8243 0.5605
s 0
f 7//1 4//1 9//1
f 6//2 3//2 7//2 2//2
f 5//3 1//3 8//3 4//3
f 3//4 5//4 4//4 7//4
f 1//5 6//5 2//5 8//5
f 2//6 7//6 9//6
f 8//7 2//7 9//7
f 4//8 8//8 9//8
