# Blender 4.1.1
# www.blender.org
o Cylinder
v 0.000000 -0.296105 -0.206007 1.0000 0.4471 0.0431
v -0.000000 -0.181875 -0.372919 1.0000 0.4471 0.0431
v 0.145669 -0.296105 -0.145669 1.0000 0.4471 0.0431
v 0.263693 -0.181875 -0.263693 1.0000 0.4471 0.0431
v 0.206007 -0.296105 0.000000 1.0000 0.4471 0.0431
v 0.372919 -0.181875 0.000000 1.0000 0.4471 0.0431
v 0.145669 -0.296105 0.145669 1.0000 0.4471 0.0431
v 0.263693 -0.181875 0.263693 1.0000 0.4471 0.0431
v 0.000000 -0.296105 0.206007 1.0000 0.4471 0.0431
v -0.000000 -0.181875 0.372919 1.0000 0.4471 0.0431
v -0.145669 -0.296105 0.145669 1.0000 0.4471 0.0431
v -0.263693 -0.181875 0.263693 1.0000 0.4471 0.0431
v -0.206007 -0.296105 0.000000 1.0000 0.4471 0.0431
v -0.372919 -0.181875 0.000000 1.0000 0.4471 0.0431
v -0.145669 -0.296105 -0.145669 1.0000 0.4471 0.0431
v -0.263693 -0.181875 -0.263693 1.0000 0.4471 0.0431
v -0.000000 -0.012873 -0.407922 1.0000 0.4471 0.0431
v 0.288445 -0.012873 -0.288445 1.0000 0.4471 0.0431
v 0.407922 -0.012873 0.000000 1.0000 0.4471 0.0431
v 0.288445 -0.012873 0.288445 1.0000 0.4471 0.0431
v -0.000000 -0.012873 0.407922 1.0000 0.4471 0.0431
v -0.288445 -0.012873 0.288445 1.0000 0.4471 0.0431
v -0.407922 -0.012873 0.000000 1.0000 0.4471 0.0431
v -0.288445 -0.012873 -0.288445 1.0000 0.4471 0.0431
v -0.000000 0.148139 -0.330486 1.0000 0.4471 0.0431
v 0.233689 0.148139 -0.233689 1.0000 0.4471 0.0431
v 0.330486 0.148139 0.000000 1.0000 0.4471 0.0431
v 0.233689 0.148139 0.233689 1.0000 0.4471 0.0431
v -0.000000 0.148139 0.330486 1.0000 0.4471 0.0431
v -0.233689 0.148139 0.233689 1.0000 0.4471 0.0431
v -0.330486 0.148139 0.000000 1.0000 0.4471 0.0431
v -0.233689 0.148139 -0.233689 1.0000 0.4471 0.0431
v 0.000000 0.232253 -0.123003 1.0000 0.4471 0.0431
v 0.086976 0.232253 -0.086976 1.0000 0.4471 0.0431
v 0.123003 0.232253 0.000000 1.0000 0.4471 0.0431
v 0.086976 0.232253 0.086976 1.0000 0.4471 0.0431
v 0.000000 0.232253 0.123003 1.0000 0.4471 0.0431
v -0.086976 0.232253 0.086976 1.0000 0.4471 0.0431
v -0.123003 0.232253 0.000000 1.0000 0.4471 0.0431
v -0.086976 0.232253 -0.086976 1.0000 0.4471 0.0431
v 0.002225 0.227261 -0.063952 0.0000 1.0000 0.0157
v -0.004323 0.316950 -0.057032 0.0000 1.0000 0.0157
v 0.066552 0.227261 0.000375 0.0000 1.0000 0.0157
v 0.051066 0.327864 0.001795 0.0000 1.0000 0.0157
v 0.002225 0.227261 0.064701 0.0000 1.0000 0.0157
v -0.005669 0.311996 0.058159 0.0000 1.0000 0.0157
v -0.062102 0.227261 0.000375 0.0000 1.0000 0.0157
v -0.061058 0.301082 -0.000668 0.0000 1.0000 0.0157
v -0.045361 0.389889 -0.052323 0.0000 1.0000 0.0157
v -0.004795 0.410293 -0.010794 0.0000 1.0000 0.0157
v -0.044044 0.396218 0.034460 0.0000 1.0000 0.0157
v -0.084610 0.375813 -0.007068 0.0000 1.0000 0.0157
vn 0.2278 -0.8036 -0.5499
vn 0.5499 -0.8036 -0.2278
vn 0.5499 -0.8036 0.2278
vn 0.2278 -0.8036 0.5499
vn -0.2278 -0.8036 0.5499
vn -0.5499 -0.8036 0.2278
vn 0.3759 -0.1879 0.9074
vn -0.5499 -0.8036 -0.2278
vn -0.2278 -0.8036 -0.5499
vn -0.0000 -1.0000 -0.0000
vn -0.3497 0.4060 -0.8443
vn -0.9074 -0.1879 -0.3759
vn 0.9074 -0.1879 -0.3759
vn -0.3759 -0.1879 0.9074
vn -0.3759 -0.1879 -0.9074
vn 0.3759 -0.1879 -0.9074
vn 0.9074 -0.1879 0.3759
vn -0.9074 -0.1879 0.3759
vn -0.1538 0.9157 0.3712
vn -0.8443 0.4060 0.3497
vn 0.3497 0.4060 0.8443
vn 0.8443 0.4060 -0.3497
vn -0.8443 0.4060 -0.3497
vn -0.3497 0.4060 0.8443
vn 0.8443 0.4060 0.3497
vn 0.3497 0.4060 -0.8443
vn -0.0000 1.0000 -0.0000
vn 0.3712 0.9157 0.1538
vn 0.1538 0.9157 -0.3712
vn -0.1538 0.9157 -0.3712
vn -0.3712 0.9157 0.1538
vn 0.1538 0.9157 0.3712
vn 0.3712 0.9157 -0.1538
vn -0.3712 0.9157 -0.1538
vn 0.7075 0.1125 -0.6977
vn 0.6949 0.1073 0.7111
vn -0.6506 -0.2926 -0.7008
vn -0.7171 0.0024 0.6969
vn -0.7061 0.0017 -0.7081
vn -0.3982 0.9153 -0.0607
vn 0.5690 0.4689 0.6756
vn 0.6197 0.3509 -0.7020
vn -0.6943 -0.1367 0.7065
s 0
f 1//1 2//1 4//1 3//1
f 3//2 4//2 6//2 5//2
f 5//3 6//3 8//3 7//3
f 7//4 8//4 10//4 9//4
f 9//5 10//5 12//5 11//5
f 11//6 12//6 14//6 13//6
f 10//7 8//7 20//7 21//7
f 13//8 14//8 16//8 15//8
f 15//9 16//9 2//9 1//9
f 1//10 3//10 5//10 7//10 9//10 11//10 13//10 15//10
f 17//11 24//11 32//11 25//11
f 16//12 14//12 23//12 24//12
f 6//13 4//13 18//13 19//13
f 12//14 10//14 21//14 22//14
f 2//15 16//15 24//15 17//15
f 4//16 2//16 17//16 18//16
f 8//17 6//17 19//17 20//17
f 14//18 12//18 22//18 23//18
f 30//19 29//19 37//19 38//19
f 23//20 22//20 30//20 31//20
f 21//21 20//21 28//21 29//21
f 19//22 18//22 26//22 27//22
f 24//23 23//23 31//23 32//23
f 22//24 21//24 29//24 30//24
f 20//25 19//25 27//25 28//25
f 18//26 17//26 25//26 26//26
f 34//27 33//27 40//27 39//27 38//27 37//27 36//27 35//27
f 28//28 27//28 35//28 36//28
f 26//29 25//29 33//29 34//29
f 25//30 32//30 40//30 33//30
f 31//31 30//31 38//31 39//31
f 29//32 28//32 36//32 37//32
f 27//33 26//33 34//33 35//33
f 32//34 31//34 39//34 40//34
f 41//35 42//35 44//35 43//35
f 43//36 44//36 46//36 45//36
f 42//37 48//37 52//37 49//37
f 45//38 46//38 48//38 47//38
f 47//39 48//39 42//39 41//39
f 41//10 43//10 45//10 47//10
f 50//40 49//40 52//40 51//40
f 46//41 44//41 50//41 51//41
f 44//42 42//42 49//42 50//42
f 48//43 46//43 51//43 52//43
