# Blender 4.0.1
# www.blender.org
o runner_body.001
v 0.206041 -0.040278 -0.041283 1.0000 0.0000 0.0000
v 0.206041 0.007371 -0.048290 1.0000 0.0000 0.0000
v 0.206041 0.055013 -0.032400 1.0000 0.0000 0.0000
v 0.206844 -0.040378 0.037761 1.0000 0.0000 0.0000
v 0.206844 0.007357 0.044172 1.0000 0.0000 0.0000
v 0.206844 0.055085 0.028862 1.0000 0.0000 0.0000
v 0.235407 0.030580 -0.002701 1.0000 1.0000 1.0000
v 0.235407 0.005560 -0.027721 1.0000 1.0000 1.0000
v 0.235407 0.005560 0.022320 1.0000 1.0000 1.0000
v 0.235407 -0.019461 -0.002701 1.0000 1.0000 1.0000
v 0.200022 0.030580 -0.002701 1.0000 1.0000 1.0000
v 0.200022 0.005560 -0.027721 1.0000 1.0000 1.0000
v 0.200022 0.005560 0.022320 1.0000 1.0000 1.0000
v 0.200022 -0.019461 -0.002701 1.0000 1.0000 1.0000
v 0.206041 -0.040278 -0.041283 0.0118 0.3490 0.6980
v 0.206041 0.007371 -0.048290 0.0118 0.3490 0.6980
v 0.206041 0.055013 -0.032400 0.0118 0.3490 0.6980
v 0.206844 -0.040378 0.037761 0.0118 0.3490 0.6980
v 0.206844 0.007357 0.044172 0.0118 0.3490 0.6980
v 0.206844 0.055085 0.028862 0.0118 0.3490 0.6980
v -0.124523 -0.027045 -0.027159 0.0118 0.3490 0.6980
v -0.124523 0.005729 0.038410 0.0118 0.3490 0.6980
v -0.124523 -0.027045 0.027160 0.0118 0.3490 0.6980
v -0.124523 0.005729 -0.029413 0.0118 0.3490 0.6980
v -0.124523 0.038499 -0.021050 0.0118 0.3490 0.6980
v -0.124523 0.038499 0.021050 0.0118 0.3490 0.6980
v -0.124523 -0.027045 -0.027159 0.0118 0.4980 0.0118
v -0.124523 0.005729 0.038410 0.0118 0.4980 0.0118
v -0.124523 -0.027045 0.027160 0.0118 0.4980 0.0118
v -0.124523 0.005729 -0.029413 0.0118 0.4980 0.0118
v -0.124523 0.038499 -0.021050 0.0118 0.4980 0.0118
v -0.124523 0.038499 0.021050 0.0118 0.4980 0.0118
v -0.147570 -0.043770 -0.041021 0.0118 0.4980 0.0118
v -0.147570 -0.043770 0.041021 0.0118 0.4980 0.0118
v -0.147569 0.005730 -0.058013 0.0118 0.4980 0.0118
v -0.147569 0.005730 0.058013 0.0118 0.4980 0.0118
v -0.147569 0.055224 -0.031793 0.0118 0.4980 0.0118
v -0.147569 0.055224 0.031793 0.0118 0.4980 0.0118
v -0.194728 -0.043770 -0.041021 0.0118 0.4980 0.0118
v -0.194728 -0.043770 0.041021 0.0118 0.4980 0.0118
v -0.194728 0.005730 -0.058013 0.0118 0.4980 0.0118
v -0.194728 0.005730 0.058013 0.0118 0.4980 0.0118
v -0.194728 0.055224 -0.031793 0.0118 0.4980 0.0118
v -0.194728 0.055224 0.031793 0.0118 0.4980 0.0118
v -0.218105 -0.023393 -0.024133 0.0118 0.4980 0.0118
v -0.218105 -0.023393 0.024133 0.0118 0.4980 0.0118
v -0.218105 0.005729 -0.034130 0.0118 0.4980 0.0118
v -0.218105 0.005729 0.034130 0.0118 0.4980 0.0118
v -0.218105 0.034848 -0.018704 0.0118 0.4980 0.0118
v -0.218105 0.034848 0.018704 0.0118 0.4980 0.0118
vn 1.0000 -0.0009 -0.0098
vn 1.0000 -0.0000 -0.0000
vn -0.0000 -0.7071 0.7071
vn -1.0000 -0.0000 -0.0000
vn -0.0000 0.7071 -0.7071
vn -0.0000 0.7071 0.7071
vn -0.0000 -0.7071 -0.7071
vn 0.9999 0.0044 -0.0131
vn 0.9999 -0.0015 -0.0102
vn -0.0499 0.9988 -0.0005
vn -0.0500 0.9987 -0.0000
vn -0.0480 -0.1453 -0.9882
vn -0.0565 -0.0685 -0.9960
vn -0.0377 0.3052 0.9515
vn -0.0177 0.4681 0.8835
vn -0.0557 0.3159 -0.9472
vn -0.0456 0.2470 -0.9679
vn -0.0166 -0.1331 0.9910
vn -0.0433 -0.3244 0.9449
vn -0.0402 -0.9992 -0.0009
vn -0.0400 -0.9992 -0.0000
vn 0.6008 0.3742 0.7064
vn 0.6009 0.3742 0.7064
vn 0.5873 -0.8093 -0.0000
vn 0.7689 0.1581 -0.6196
vn 0.6008 0.3742 -0.7064
vn 0.6268 -0.2530 0.7369
vn 0.6268 -0.2530 0.7370
vn 0.5449 -0.0575 -0.8365
vn 0.7612 -0.2106 -0.6134
vn 0.5874 0.8093 -0.0000
vn -0.0000 0.4681 0.8837
vn -0.0000 -1.0000 -0.0000
vn -0.0000 0.4681 -0.8837
vn -0.0000 -0.3247 0.9458
vn -0.0000 -0.3247 -0.9458
vn -0.0000 1.0000 -0.0000
vn -0.6571 0.7538 -0.0000
vn -0.6701 0.3475 0.6559
vn -0.6571 -0.7538 -0.0000
vn -0.6701 0.3475 -0.6559
vn -0.6949 -0.2335 0.6802
vn -0.6949 -0.2335 -0.6802
s 0
f 6//1 4//1 2//1
f 9//2 8//2 7//2
f 13//3 10//3 9//3
f 13//4 12//4 14//4
f 7//5 12//5 11//5
f 7//6 13//6 9//6
f 12//7 10//7 14//7
f 2//8 3//8 6//8
f 6//2 5//2 4//2
f 4//9 1//9 2//9
f 9//2 10//2 8//2
f 13//3 14//3 10//3
f 13//4 11//4 12//4
f 7//5 8//5 12//5
f 7//6 11//6 13//6
f 12//7 8//7 10//7
f 20//10 17//10 25//10
f 20//11 25//11 26//11
f 16//12 15//12 21//12
f 16//13 21//13 24//13
f 19//14 20//14 26//14
f 19//15 26//15 22//15
f 17//16 16//16 24//16
f 17//17 24//17 25//17
f 18//18 19//18 22//18
f 18//19 22//19 23//19
f 15//20 18//20 23//20
f 15//21 23//21 21//21
f 28//22 32//22 38//22
f 28//23 38//23 36//23
f 27//24 29//24 34//24
f 27//24 34//24 33//24
f 31//25 30//25 35//25
f 31//26 35//26 37//26
f 29//27 28//27 36//27
f 29//28 36//28 34//28
f 30//29 27//29 33//29
f 30//30 33//30 35//30
f 32//31 31//31 37//31
f 32//31 37//31 38//31
f 36//32 38//32 44//32
f 36//32 44//32 42//32
f 33//33 34//33 40//33
f 33//33 40//33 39//33
f 37//34 35//34 41//34
f 37//34 41//34 43//34
f 34//35 36//35 42//35
f 34//35 42//35 40//35
f 35//36 33//36 39//36
f 35//36 39//36 41//36
f 38//37 37//37 43//37
f 38//37 43//37 44//37
f 44//38 43//38 49//38
f 44//38 49//38 50//38
f 42//39 44//39 50//39
f 42//39 50//39 48//39
f 39//40 40//40 46//40
f 39//40 46//40 45//40
f 43//41 41//41 47//41
f 43//41 47//41 49//41
f 40//42 42//42 48//42
f 40//42 48//42 46//42
f 41//43 39//43 45//43
f 41//43 45//43 47//43
f 45//4 46//4 48//4
f 48//4 50//4 49//4
f 49//4 47//4 45//4
f 48//4 49//4 45//4
