# Blender 4.0.1
# www.blender.org
o runner_body.001
v -0.061408 0.108202 0.027036 1.0000 0.4628 0.9411
v -0.102451 0.002913 -0.034349 1.0000 0.4628 0.9411
v -0.100156 0.001987 0.041809 1.0000 0.4628 0.9411
v 0.000597 0.137098 0.003914 1.0000 0.4628 0.9411
v -0.024476 -0.069563 -0.112889 0.0000 0.0000 0.0000
v -0.024476 -0.035954 -0.118743 0.0000 0.0000 0.0000
v -0.024476 -0.069563 -0.138827 0.0000 0.0000 0.0000
v -0.024476 -0.035954 -0.138827 0.0000 0.0000 0.0000
v 0.025670 -0.069563 -0.112889 0.0000 0.0000 0.0000
v 0.025670 -0.035954 -0.118743 0.0000 0.0000 0.0000
v 0.025670 -0.069563 -0.138827 0.0000 0.0000 0.0000
v 0.025670 -0.035954 -0.138827 0.0000 0.0000 0.0000
v -0.065876 -0.077746 -0.132513 0.0000 0.0000 0.0000
v -0.065876 -0.077746 -0.112241 0.0000 0.0000 0.0000
v -0.065876 -0.056751 -0.118094 0.0000 0.0000 0.0000
v -0.065876 -0.056751 -0.132513 0.0000 0.0000 0.0000
v 0.067070 -0.056751 -0.132513 0.0000 0.0000 0.0000
v 0.067070 -0.077746 -0.132513 0.0000 0.0000 0.0000
v 0.067070 -0.077746 -0.112241 0.0000 0.0000 0.0000
v 0.067070 -0.056751 -0.118094 0.0000 0.0000 0.0000
v -0.113306 -0.041251 -0.119234 0.0000 0.0000 0.0000
v 0.114499 -0.041251 -0.119234 0.0000 0.0000 0.0000
v 0.030756 -0.002969 -0.129363 1.0000 0.0000 0.0000
v 0.071515 -0.002969 -0.129363 1.0000 0.0000 0.0000
v 0.030756 0.037516 -0.116537 1.0000 0.0000 0.0000
v 0.071515 0.037516 -0.116537 1.0000 0.0000 0.0000
v 0.058457 0.053540 -0.111460 1.0000 0.0000 0.0000
v 0.051135 -0.017493 -0.133965 1.0000 0.0000 0.0000
v -0.029600 -0.002969 -0.129363 1.0000 0.0000 0.0000
v -0.070359 -0.002969 -0.129363 1.0000 0.0000 0.0000
v -0.029600 0.037516 -0.116537 1.0000 0.0000 0.0000
v -0.070359 0.037516 -0.116537 1.0000 0.0000 0.0000
v -0.058892 0.053540 -0.111460 1.0000 0.0000 0.0000
v -0.049980 -0.017493 -0.133965 1.0000 0.0000 0.0000
v -0.030406 -0.202006 -0.067178 0.0039 0.4980 0.0039
v -0.074251 -0.202006 -0.025413 0.0039 0.4980 0.0039
v -0.074251 -0.202006 0.033651 0.0039 0.4980 0.0039
v -0.030406 -0.202006 0.075416 0.0039 0.4980 0.0039
v 0.031600 -0.202006 0.075416 0.0039 0.4980 0.0039
v 0.075444 -0.202006 0.033651 0.0039 0.4980 0.0039
v 0.075444 -0.202006 -0.025413 0.0039 0.4980 0.0039
v 0.031600 -0.202006 -0.067178 0.0039 0.4980 0.0039
v -0.049446 -0.112227 -0.105438 0.0118 0.4980 0.0118
v -0.120217 -0.112227 -0.041381 0.0118 0.4980 0.0118
v -0.120217 -0.112227 0.049208 0.0118 0.4980 0.0118
v -0.049446 -0.112227 0.113265 0.0118 0.4980 0.0118
v 0.050639 -0.112227 0.113265 0.0118 0.4980 0.0118
v 0.121410 -0.112227 0.049208 0.0039 0.4980 0.0039
v 0.121410 -0.112227 -0.041381 0.0039 0.4980 0.0039
v 0.050639 -0.112227 -0.105438 0.0039 0.4980 0.0039
v -0.057559 0.002563 -0.123166 0.0118 0.4980 0.0118
v -0.057559 0.002562 0.130993 0.0118 0.4980 0.0118
v 0.058752 0.002562 0.130993 0.0118 0.4980 0.0118
v 0.140997 0.002562 0.056552 0.0039 0.4980 0.0039
v 0.140997 0.002562 -0.048725 0.0039 0.4980 0.0039
v 0.058752 0.002562 -0.123166 0.0039 0.4980 0.0039
v -0.037126 0.139300 -0.078516 0.0118 0.4980 0.0118
v 0.038319 0.139300 0.086343 0.0118 0.4980 0.0118
v 0.091666 0.139300 0.038057 0.0118 0.4980 0.0118
v 0.091666 0.139300 -0.030230 0.0118 0.4980 0.0118
v 0.038319 0.139300 -0.078516 0.0118 0.4980 0.0118
v 0.000597 0.187544 0.003914 0.0118 0.4980 0.0118
v -0.139804 0.002562 -0.048725 0.0118 0.4980 0.0118
v -0.139804 0.002562 0.056552 0.0118 0.4980 0.0118
v -0.090473 0.139300 -0.030230 0.0118 0.4980 0.0118
v -0.037126 0.139300 0.086343 0.0118 0.4980 0.0118
v 0.031600 -0.202006 -0.067178 1.0000 0.0000 0.0000
v 0.075444 -0.202006 -0.025413 1.0000 0.0000 0.0000
v 0.075444 -0.202006 0.033651 1.0000 0.0000 0.0000
v -0.042128 0.002778 0.096707 1.0000 0.4628 0.9411
v 0.031600 -0.202006 0.075416 1.0000 0.0000 0.0000
v -0.064705 0.101655 -0.020940 1.0000 0.4628 0.9411
v -0.030406 -0.202006 0.075416 1.0000 0.0000 0.0000
v -0.074251 -0.202006 0.033651 1.0000 0.0000 0.0000
v -0.026412 0.101791 0.063497 1.0000 0.4628 0.9411
v -0.074251 -0.202006 -0.025413 1.0000 0.0000 0.0000
v -0.030406 -0.202006 -0.067178 1.0000 0.0000 0.0000
v 0.000121 -0.200518 -0.034821 1.0000 1.0000 1.0000
v 0.000121 -0.229355 -0.034821 1.0000 1.0000 1.0000
v 0.035440 -0.200518 0.000498 1.0000 1.0000 1.0000
v 0.035440 -0.229355 0.000498 1.0000 1.0000 1.0000
v -0.035198 -0.200518 0.000498 1.0000 1.0000 1.0000
v -0.035198 -0.229355 0.000498 1.0000 1.0000 1.0000
v 0.000121 -0.200518 0.035817 1.0000 1.0000 1.0000
v 0.000121 -0.229355 0.035817 1.0000 1.0000 1.0000
v -0.102451 0.002913 -0.034349 0.4000 0.0118 0.0039
v -0.100156 0.001987 0.041809 0.4000 0.0118 0.0039
v 0.000597 0.137098 0.003914 0.4000 0.0118 0.0039
v -0.057559 0.002562 0.130993 0.4000 0.0118 0.0039
v 0.000597 0.187544 0.003914 0.4000 0.0118 0.0039
v -0.139804 0.002562 -0.048725 0.4000 0.0118 0.0039
v -0.139804 0.002562 0.056552 0.4000 0.0118 0.0039
v -0.090473 0.139300 -0.030230 0.4000 0.0118 0.0039
v -0.037126 0.139300 0.086343 0.4000 0.0118 0.0039
v -0.042128 0.002778 0.096707 0.4000 0.0118 0.0039
v -0.064705 0.101655 -0.020940 0.4000 0.0118 0.0039
v -0.026412 0.101791 0.063497 0.4000 0.0118 0.0039
vn -0.9212 0.3172 0.2252
vn -0.4903 -0.0331 0.8709
vn -0.7857 0.6171 0.0432
vn -0.9365 0.3497 0.0264
vn -0.6506 0.3323 0.6829
vn -0.2589 0.8779 0.4029
vn -0.4482 0.8893 -0.0906
vn 0.0580 0.2093 0.9761
vn -0.0000 -0.0000 -1.0000
vn 0.1939 -0.9810 -0.0000
vn -0.0000 0.1716 0.9852
vn -0.0000 -1.0000 -0.0000
vn -0.0000 1.0000 -0.0000
vn 0.2696 -0.0000 -0.9630
vn -0.3106 0.9505 -0.0000
vn -0.1939 -0.9810 -0.0000
vn -0.1508 -0.0000 -0.9886
vn -0.0580 0.2093 0.9761
vn 0.4489 0.8936 -0.0000
vn 0.1508 -0.0000 -0.9886
vn -0.4489 0.8936 -0.0000
vn 0.3106 0.9505 -0.0000
vn -0.6098 -0.7925 -0.0000
vn -0.0645 0.2680 0.9613
vn 0.6098 -0.7925 -0.0000
vn -0.2696 -0.0000 -0.9630
vn 0.0645 0.2680 0.9613
vn -0.0000 0.3020 -0.9533
vn -0.0000 0.3021 -0.9533
vn 0.3180 -0.8858 -0.3381
vn 0.3097 -0.8901 -0.3343
vn 0.6145 -0.4235 -0.6656
vn 0.3012 -0.8953 0.3282
vn 0.2975 -0.8937 0.3358
vn 0.6152 -0.4207 0.6668
vn 0.6153 -0.4210 0.6665
vn -0.3189 -0.8850 0.3392
vn -0.3012 -0.8894 0.3439
vn -0.6149 -0.4212 0.6667
vn -0.6153 -0.4210 0.6665
vn -0.3009 -0.8955 -0.3278
vn -0.2966 -0.8944 -0.3347
vn -0.6144 -0.4234 -0.6657
vn -0.6145 -0.4235 -0.6656
vn -0.0000 -0.3920 -0.9199
vn 0.8901 -0.4557 -0.0000
vn -0.0000 -0.3885 0.9215
vn -0.8901 -0.4557 -0.0000
vn -0.6624 -0.1599 -0.7319
vn -0.6624 -0.1598 -0.7319
vn -0.0000 -0.1526 -0.9883
vn 0.9858 -0.1682 -0.0000
vn -0.0000 -0.1526 0.9883
vn -0.9858 -0.1682 -0.0000
vn 0.6624 -0.1598 -0.7319
vn 0.6624 -0.1599 -0.7319
vn 0.6624 -0.1599 0.7319
vn 0.6624 -0.1598 0.7319
vn -0.6624 -0.1598 0.7319
vn -0.6624 -0.1599 0.7319
vn 0.6349 0.3239 -0.7014
vn 0.6349 0.3239 0.7014
vn -0.6349 0.3239 -0.7014
vn -0.0000 0.3104 -0.9506
vn 0.9407 0.3394 -0.0000
vn -0.0000 0.3104 0.9506
vn 0.3271 0.8732 -0.3614
vn 0.3271 0.8732 0.3614
vn -0.3271 0.8732 -0.3614
vn -0.0000 0.8630 -0.5051
vn 0.4681 0.8837 -0.0000
vn -0.0000 0.8630 0.5051
vn -0.3009 -0.8956 -0.3278
vn 0.7071 -0.0000 -0.7071
vn 0.7071 -0.0000 0.7071
vn -0.7071 -0.0000 0.7071
vn -0.7071 -0.0000 -0.7071
vn 0.0179 0.9998 0.0101
vn -0.0002 1.0000 -0.0021
vn -0.7857 0.6171 0.0433
vn -0.4902 -0.0331 0.8710
vn -0.9092 0.0004 -0.4164
vn -0.9093 -0.0013 -0.4161
vn 0.0494 0.8104 -0.5838
vn -0.6091 0.1400 -0.7806
vn -0.3514 -0.0000 0.9362
vn -0.9212 0.3171 0.2252
vn -0.9133 -0.0073 -0.4073
vn -0.3541 -0.0085 0.9352
s 1
f 72//1 2//2 3//3
f 72//1 3//3 1//4
s 0
f 3//5 70//5 75//5
f 3//5 75//5 1//5
f 4//6 1//6 75//6
f 72//7 1//7 4//7
s 1
f 10//8 9//8 19//8
f 10//8 19//8 20//8
s 0
f 7//9 8//9 12//9
f 7//9 12//9 11//9
f 7//10 5//10 14//10
f 7//10 14//10 13//10
f 9//11 10//11 6//11
f 9//11 6//11 5//11
f 7//12 11//12 9//12
f 7//12 9//12 5//12
f 12//13 8//13 6//13
f 12//13 6//13 10//13
f 18//14 17//14 22//14
f 17//15 20//15 22//15
f 9//16 11//16 18//16
f 9//16 18//16 19//16
f 8//17 7//17 13//17
f 8//17 13//17 16//17
s 1
f 5//18 6//18 15//18
f 5//18 15//18 14//18
s 0
f 12//19 10//19 20//19
f 12//19 20//19 17//19
f 11//20 12//20 17//20
f 11//20 17//20 18//20
f 6//21 8//21 16//21
f 6//21 16//21 15//21
f 15//22 16//22 21//22
f 13//23 14//23 21//23
f 20//24 19//24 22//24
f 19//25 18//25 22//25
f 16//26 13//26 21//26
f 14//27 15//27 21//27
f 23//28 25//28 26//28
f 23//28 26//28 24//28
f 25//28 27//28 26//28
f 23//29 24//29 28//29
f 29//28 30//28 32//28
f 29//28 32//28 31//28
f 31//28 32//28 33//28
f 29//29 34//29 30//29
s 1
f 41//30 42//31 50//32
f 41//30 50//32 49//32
f 39//33 40//34 48//35
f 39//33 48//35 47//36
f 37//37 38//38 46//39
f 37//37 46//39 45//40
f 35//41 36//42 44//43
f 35//41 44//43 43//44
s 0
f 42//45 35//45 43//45
f 42//45 43//45 50//45
f 40//46 41//46 49//46
f 40//46 49//46 48//46
f 38//47 39//47 47//47
f 38//47 47//47 46//47
f 36//48 37//48 45//48
f 36//48 45//48 44//48
f 43//49 44//49 63//49
f 43//50 63//50 51//50
f 50//51 43//51 51//51
f 50//51 51//51 56//51
f 48//52 49//52 55//52
f 48//52 55//52 54//52
f 46//53 47//53 53//53
f 46//53 53//53 52//53
f 44//54 45//54 64//54
f 44//54 64//54 63//54
f 49//55 50//55 56//55
f 49//56 56//56 55//56
f 47//57 48//57 54//57
f 47//58 54//58 53//58
f 45//59 46//59 52//59
f 45//60 52//60 64//60
f 55//61 56//61 61//61
f 55//61 61//61 60//61
f 53//62 54//62 59//62
f 53//62 59//62 58//62
f 51//63 63//63 65//63
f 51//63 65//63 57//63
f 56//64 51//64 57//64
f 56//64 57//64 61//64
f 54//65 55//65 60//65
f 54//65 60//65 59//65
f 52//66 53//66 58//66
f 52//66 58//66 66//66
f 60//67 61//67 62//67
f 58//68 59//68 62//68
f 57//69 65//69 62//69
f 61//70 57//70 62//70
f 59//71 60//71 62//71
f 66//72 58//72 62//72
s 1
f 71//33 74//37 77//73
s 0
f 80//74 79//74 78//74
f 84//75 81//75 80//75
f 82//76 85//76 84//76
f 78//77 83//77 82//77
f 80//13 82//13 84//13
f 83//12 81//12 85//12
s 1
f 77//73 67//31 68//30
f 68//30 69//34 71//33
f 71//33 73//38 74//37
f 74//37 76//42 77//73
f 77//73 68//30 71//33
s 0
f 80//74 81//74 79//74
f 84//75 85//75 81//75
f 82//76 83//76 85//76
f 78//77 79//77 83//77
f 80//13 78//13 82//13
f 83//12 79//12 81//12
s 1
f 91//78 92//79 87//80
f 91//78 87//80 86//81
f 94//82 97//83 95//84
f 94//82 95//84 89//85
f 93//86 91//78 86//81
f 93//86 86//81 96//87
f 90//88 88//89 97//83
f 90//88 97//83 94//82
f 92//79 89//85 95//84
f 92//79 95//84 87//80
f 93//86 96//87 88//89
f 93//86 88//89 90//88
