# Blender 4.0.1
# www.blender.org
o runner_body.001
v -0.001278 0.210424 -0.082142 0.0039 0.2000 0.4000
v -0.001278 0.207611 0.085449 0.0039 0.2000 0.4000
v -0.056500 0.211396 0.048551 0.0039 0.2000 0.4000
v -0.060289 0.208590 -0.048551 0.0039 0.2000 0.4000
v 0.000067 -0.218614 -0.079517 0.0039 0.2000 0.4000
v 0.063292 -0.218614 -0.043014 0.0039 0.2000 0.4000
v 0.069576 0.211316 -0.048551 0.0039 0.2000 0.4000
v 0.063292 -0.218366 0.029991 0.0039 0.2000 0.4000
v 0.069576 0.208503 0.048551 0.0039 0.2000 0.4000
v 0.000067 -0.218366 0.066494 0.0039 0.2000 0.4000
v -0.063158 -0.218366 0.029991 0.0039 0.2000 0.4000
v -0.063158 -0.218614 -0.043014 0.0039 0.2000 0.4000
v -0.001278 0.210424 -0.082142 1.0000 0.0000 0.0118
v -0.001278 0.207611 0.085449 1.0000 0.0000 0.0118
v -0.056500 0.211396 0.048551 1.0000 0.0000 0.0118
v -0.060289 0.208590 -0.048551 1.0000 0.0000 0.0118
v 0.069576 0.211316 -0.048551 1.0000 0.0000 0.0118
v 0.069576 0.208503 0.048551 1.0000 0.0000 0.0118
v -0.028879 0.207767 0.000841 1.0000 1.0000 1.0000
v -0.028879 0.253169 0.000841 1.0000 1.0000 1.0000
v 0.003224 0.207767 -0.031263 1.0000 1.0000 1.0000
v 0.003224 0.253169 -0.031263 1.0000 1.0000 1.0000
v 0.003224 0.207767 0.032944 1.0000 1.0000 1.0000
v 0.003224 0.253169 0.032944 1.0000 1.0000 1.0000
v 0.035328 0.207767 0.000841 1.0000 1.0000 1.0000
v 0.035328 0.253169 0.000841 1.0000 1.0000 1.0000
v -0.025519 -0.252738 -0.007911 1.0000 1.0000 1.0000
v -0.025519 -0.213153 -0.007911 1.0000 1.0000 1.0000
v 0.002472 -0.252738 -0.035901 1.0000 1.0000 1.0000
v 0.002472 -0.213153 -0.035901 1.0000 1.0000 1.0000
v 0.002472 -0.252738 0.020080 1.0000 1.0000 1.0000
v 0.002472 -0.213153 0.020080 1.0000 1.0000 1.0000
v 0.030462 -0.252738 -0.007911 1.0000 1.0000 1.0000
v 0.030462 -0.213153 -0.007911 1.0000 1.0000 1.0000
v 0.000067 -0.218614 -0.079517 1.0000 0.0000 0.0118
v 0.063292 -0.218614 -0.043014 1.0000 0.0000 0.0118
v -0.063158 -0.218614 -0.043014 1.0000 0.0000 0.0118
v 0.063292 -0.218366 0.029991 1.0000 0.0000 0.0118
v 0.000067 -0.218366 0.066494 1.0000 0.0000 0.0118
v -0.063158 -0.218366 0.029991 1.0000 0.0000 0.0118
vn 0.4284 -0.0042 -0.9036
vn 0.4999 -0.0185 -0.8659
vn 0.9999 -0.0146 -0.0004
vn 0.9999 -0.0147 0.0001
vn 0.4619 -0.0453 0.8858
vn 0.4997 -0.0369 0.8654
vn -0.5570 -0.0387 0.8296
vn -0.4998 -0.0296 0.8656
vn -0.9992 0.0138 0.0386
vn -1.0000 0.0067 -0.0000
vn -0.4945 -0.0079 -0.8691
vn -0.5000 -0.0069 -0.8660
vn 0.0229 0.9997 0.0023
vn -0.7071 -0.0000 -0.7071
vn 0.7071 -0.0000 -0.7071
vn 0.7071 -0.0000 0.7071
vn -0.7071 -0.0000 0.7071
vn -0.0000 -1.0000 -0.0000
vn -0.0000 1.0000 -0.0000
vn -0.0000 -1.0000 0.0023
vn 0.0229 0.9974 0.0681
vn -0.0263 0.9992 0.0289
vn -0.0464 0.9986 -0.0270
vn 0.0020 -1.0000 0.0034
vn -0.0020 -1.0000 0.0034
s 0
f 5//1 1//1 7//1
f 5//2 7//2 6//2
f 6//3 7//3 9//3
f 6//4 9//4 8//4
f 8//5 9//5 2//5
f 8//6 2//6 10//6
f 10//7 2//7 3//7
f 10//8 3//8 11//8
f 11//9 3//9 4//9
f 11//10 4//10 12//10
f 12//11 4//11 1//11
f 12//12 1//12 5//12
f 18//13 13//13 15//13
f 20//14 21//14 19//14
f 22//15 25//15 21//15
f 26//16 23//16 25//16
f 24//17 19//17 23//17
f 25//18 19//18 21//18
f 22//19 24//19 26//19
f 28//14 29//14 27//14
f 30//15 33//15 29//15
f 34//16 31//16 33//16
f 32//17 27//17 31//17
f 29//18 31//18 27//18
f 30//19 32//19 34//19
f 40//20 35//20 38//20
f 15//21 14//21 18//21
f 18//22 17//22 13//22
f 13//23 16//23 15//23
f 20//14 22//14 21//14
f 22//15 26//15 25//15
f 26//16 24//16 23//16
f 24//17 20//17 19//17
f 25//18 23//18 19//18
f 22//19 20//19 24//19
f 28//14 30//14 29//14
f 30//15 34//15 33//15
f 34//16 32//16 31//16
f 32//17 28//17 27//17
f 29//18 33//18 31//18
f 30//19 28//19 32//19
f 38//18 39//18 40//18
f 40//24 37//24 35//24
f 35//25 36//25 38//25
