# Blender 3.6.2
# www.blender.org
o landscape_no_shadow
v 145.940216 52.126377 -59.576263 0.6863 0.6863 0.6863
v 149.234222 52.077358 -75.889015 0.6863 0.6863 0.6863
v 150.340714 60.135830 -75.898483 0.6863 0.6863 0.6863
v 147.069550 60.356014 -59.582813 0.6863 0.6863 0.6863
v 150.782669 68.371506 -72.503754 0.6863 0.6863 0.6863
v 148.803223 68.504738 -62.630726 0.6863 0.6863 0.6863
v 150.145966 71.117111 -67.497162 0.6863 0.6863 0.6863
v 189.485519 40.175770 -37.516026 0.6863 0.6863 0.6863
v 199.020309 40.189560 -59.162064 0.6863 0.6863 0.6863
v 200.906662 51.586708 -58.641792 0.6863 0.6863 0.6863
v 191.299667 51.832600 -37.029095 0.6863 0.6863 0.6863
v 201.034775 63.186432 -53.508678 0.6863 0.6863 0.6863
v 195.221359 63.335220 -40.430290 0.6863 0.6863 0.6863
v 198.911453 67.017616 -46.611843 0.6863 0.6863 0.6863
v 212.597137 40.854767 -13.403168 0.6863 0.6863 0.6863
v 231.706024 40.810825 -25.711220 0.6863 0.6863 0.6863
v 232.990662 51.754639 -24.272118 0.6863 0.6863 0.6863
v 213.842606 52.048431 -12.028511 0.6863 0.6863 0.6863
v 230.423431 62.904045 -20.064793 0.6863 0.6863 0.6863
v 218.836456 63.081821 -12.655869 0.6863 0.6863 0.6863
v 225.084396 66.599670 -15.651119 0.6863 0.6863 0.6863
v 216.626343 37.107979 4.151672 0.6863 0.6863 0.6863
v 232.684235 35.776688 1.614067 0.6863 0.6863 0.6863
v 233.203644 44.035446 3.032974 0.6863 0.6863 0.6863
v 216.222916 44.407715 5.568077 0.6863 0.6863 0.6863
v 230.214005 52.479881 5.172722 0.6863 0.6863 0.6863
v 219.938538 52.705151 6.706795 0.6863 0.6863 0.6863
v 225.196350 55.314194 6.578987 0.6863 0.6863 0.6863
v 191.103928 34.420013 19.440300 0.6863 0.6863 0.6863
v 230.940155 31.379908 21.488869 0.6863 0.6863 0.6863
v 230.773819 46.452606 25.051727 0.6863 0.6863 0.6863
v 188.800568 47.772114 22.519493 0.6863 0.6863 0.6863
v 221.781311 61.983253 28.457054 0.6863 0.6863 0.6863
v 196.382217 62.781704 26.924736 0.6863 0.6863 0.6863
v 208.777374 67.339157 29.153221 0.6863 0.6863 0.6863
v 174.982330 31.278278 34.195702 0.6863 0.6863 0.6863
v 213.193024 26.844936 69.462234 0.6863 0.6863 0.6863
v 212.628723 51.092274 70.837616 0.6863 0.6863 0.6863
v 172.315323 52.755333 33.576897 0.6863 0.6863 0.6863
v 203.111099 76.081757 64.797653 0.6863 0.6863 0.6863
v 178.716431 77.088074 42.250275 0.6863 0.6863 0.6863
v 190.052200 84.650490 54.125793 0.6863 0.6863 0.6863
v 134.752869 30.949558 66.734756 0.6863 0.6863 0.6863
v 178.309906 25.895931 106.935638 0.6863 0.6863 0.6863
v 177.666595 53.535847 108.503448 0.6863 0.6863 0.6863
v 131.712738 55.431591 66.029373 0.6863 0.6863 0.6863
v 166.817322 82.021744 101.618408 0.6863 0.6863 0.6863
v 139.009445 83.168892 75.916306 0.6863 0.6863 0.6863
v 151.931244 91.789352 89.453400 0.6863 0.6863 0.6863
v 101.695663 23.102936 99.134857 0.6863 0.6863 0.6863
v 138.736374 23.214960 135.604248 0.6863 0.6863 0.6863
v 138.295380 42.163658 136.679077 0.6863 0.6863 0.6863
v 106.791443 43.463299 107.560730 0.6863 0.6863 0.6863
v 130.857605 61.692318 131.959000 0.6863 0.6863 0.6863
v 111.793732 62.478756 114.338806 0.6863 0.6863 0.6863
v 120.652344 68.388557 123.619186 0.6863 0.6863 0.6863
v 86.955421 22.612669 126.097809 0.6863 0.6863 0.6863
v 98.760880 22.625980 140.318314 0.6863 0.6863 0.6863
v 98.094528 31.202007 140.152969 0.6863 0.6863 0.6863
v 85.692123 30.123194 125.208389 0.6863 0.6863 0.6863
v 94.626892 39.689919 136.960205 0.6863 0.6863 0.6863
v 87.121872 39.037098 127.916870 0.6863 0.6863 0.6863
v 90.409653 42.206158 132.403122 0.6863 0.6863 0.6863
v 80.076088 21.506290 135.722321 0.6863 0.6863 0.6863
v 89.554451 21.516977 147.139694 0.6863 0.6863 0.6863
v 89.019447 28.402504 147.006958 0.6863 0.6863 0.6863
v 79.061813 27.536341 135.008240 0.6863 0.6863 0.6863
v 86.235352 35.217281 144.443527 0.6863 0.6863 0.6863
v 80.209732 34.693138 137.182816 0.6863 0.6863 0.6863
v 82.849419 37.237518 140.784760 0.6863 0.6863 0.6863
v 73.007721 21.441936 148.722702 0.6863 0.6863 0.6863
v 79.864502 21.449669 156.982193 0.6863 0.6863 0.6863
v 79.477470 26.430746 156.886139 0.6863 0.6863 0.6863
v 72.273987 25.804153 148.206146 0.6863 0.6863 0.6863
v 77.463417 31.360653 155.031738 0.6863 0.6863 0.6863
v 73.104401 30.981476 149.779266 0.6863 0.6863 0.6863
v 75.013985 32.822121 152.384964 0.6863 0.6863 0.6863
v 166.628067 27.701975 48.509659 0.6863 0.6863 0.6863
v 167.257324 35.692272 50.365723 0.6863 0.6863 0.6863
v 170.924591 27.385172 49.647217 0.6863 0.6863 0.6863
v 170.565521 35.448345 51.241592 0.6863 0.6863 0.6863
v 173.146683 27.007294 53.490784 0.6863 0.6863 0.6863
v 172.276459 35.157394 54.201035 0.6863 0.6863 0.6863
v 171.992737 26.789673 57.789139 0.6863 0.6863 0.6863
v 171.387955 34.989830 57.510651 0.6863 0.6863 0.6863
v 168.138641 26.859812 60.024063 0.6863 0.6863 0.6863
v 168.420425 35.043835 59.231476 0.6863 0.6863 0.6863
v 163.842133 27.176601 58.886703 0.6863 0.6863 0.6863
v 165.112244 35.287754 58.355743 0.6863 0.6863 0.6863
v 161.620026 27.554491 55.042969 0.6863 0.6863 0.6863
v 163.401276 35.578716 55.396179 0.6863 0.6863 0.6863
v 162.774017 27.772099 50.744797 0.6863 0.6863 0.6863
v 164.289825 35.746269 52.086700 0.6863 0.6863 0.6863
v 166.725708 49.103497 53.518005 0.6863 0.6863 0.6863
v 169.309875 48.912952 54.202194 0.6863 0.6863 0.6863
v 170.646362 48.685680 56.513931 0.6863 0.6863 0.6863
v 169.952332 48.554790 59.099228 0.6863 0.6863 0.6863
v 167.634247 48.596977 60.443420 0.6863 0.6863 0.6863
v 165.050110 48.787510 59.759354 0.6863 0.6863 0.6863
v 163.713593 49.014793 57.447510 0.6863 0.6863 0.6863
v 164.407669 49.145672 54.862350 0.6863 0.6863 0.6863
v 165.934265 62.705502 55.627792 0.6863 0.6863 0.6863
v 169.160492 62.467617 56.481979 0.6863 0.6863 0.6863
v 170.829041 62.183872 59.368073 0.6863 0.6863 0.6863
v 169.962540 62.020466 62.595688 0.6863 0.6863 0.6863
v 167.068542 62.073132 64.273880 0.6863 0.6863 0.6863
v 163.842346 62.311005 63.419846 0.6863 0.6863 0.6863
v 162.173767 62.594757 60.533615 0.6863 0.6863 0.6863
v 163.040283 62.758156 57.306122 0.6863 0.6863 0.6863
v 164.841110 76.667076 56.690079 0.6863 0.6863 0.6863
v 169.391632 76.331551 57.894882 0.6863 0.6863 0.6863
v 171.745087 75.931328 61.965683 0.6863 0.6863 0.6863
v 170.522919 75.700844 66.518158 0.6863 0.6863 0.6863
v 166.440979 75.775124 68.885223 0.6863 0.6863 0.6863
v 161.890472 76.110649 67.680634 0.6863 0.6863 0.6863
v 159.536987 76.510872 63.609650 0.6863 0.6863 0.6863
v 160.759201 76.741348 59.057343 0.6863 0.6863 0.6863
v 164.175781 91.534798 58.663467 0.6863 0.6863 0.6863
v 170.107605 91.097420 60.233994 0.6863 0.6863 0.6863
v 173.175430 90.575714 65.540436 0.6863 0.6863 0.6863
v 171.582260 90.275261 71.474777 0.6863 0.6863 0.6863
v 166.261292 90.372101 74.560349 0.6863 0.6863 0.6863
v 160.329514 90.809456 72.990097 0.6863 0.6863 0.6863
v 157.261642 91.331177 67.683395 0.6863 0.6863 0.6863
v 158.854843 91.631615 61.749313 0.6863 0.6863 0.6863
v 175.563812 21.914970 104.591873 0.6863 0.6863 0.6863
v 174.713043 30.094139 104.843353 0.6863 0.6863 0.6863
v 173.023621 21.817432 108.251450 0.6863 0.6863 0.6863
v 172.757172 30.019037 107.661102 0.6863 0.6863 0.6863
v 168.644989 22.011320 109.053635 0.6863 0.6863 0.6863
v 169.385757 30.168324 108.278778 0.6863 0.6863 0.6863
v 164.992584 22.383080 106.528458 0.6863 0.6863 0.6863
v 166.573486 30.454567 106.334473 0.6863 0.6863 0.6863
v 164.206177 22.714912 102.155212 0.6863 0.6863 0.6863
v 165.968018 30.710070 102.967224 0.6863 0.6863 0.6863
v 166.746185 22.812468 98.495621 0.6863 0.6863 0.6863
v 167.923737 30.785185 100.149399 0.6863 0.6863 0.6863
v 171.125000 22.618565 97.693481 0.6863 0.6863 0.6863
v 171.295273 30.635887 99.531784 0.6863 0.6863 0.6863
v 174.777252 22.246820 100.218582 0.6863 0.6863 0.6863
v 174.107422 30.349653 101.476044 0.6863 0.6863 0.6863
v 173.781281 43.806602 103.756836 0.6863 0.6863 0.6863
v 172.253448 43.747940 105.957886 0.6863 0.6863 0.6863
v 169.619904 43.864555 106.440369 0.6863 0.6863 0.6863
v 167.423126 44.088154 104.921570 0.6863 0.6863 0.6863
v 166.950165 44.287735 102.291245 0.6863 0.6863 0.6863
v 168.477844 44.346409 100.090164 0.6863 0.6863 0.6863
v 171.111511 44.229786 99.607742 0.6863 0.6863 0.6863
v 173.308182 44.006195 101.126495 0.6863 0.6863 0.6863
v 173.934601 57.558407 102.778885 0.6863 0.6863 0.6863
v 172.027191 57.485168 105.526840 0.6863 0.6863 0.6863
v 168.739319 57.630760 106.129181 0.6863 0.6863 0.6863
v 165.996735 57.909908 104.233047 0.6863 0.6863 0.6863
v 165.406250 58.159084 100.949203 0.6863 0.6863 0.6863
v 167.313507 58.232334 98.201233 0.6863 0.6863 0.6863
v 170.601517 58.086739 97.598907 0.6863 0.6863 0.6863
v 173.343964 57.807594 99.495010 0.6863 0.6863 0.6863
v 175.214661 71.515419 101.877548 0.6863 0.6863 0.6863
v 172.524307 71.412117 105.753479 0.6863 0.6863 0.6863
v 167.886810 71.617470 106.603073 0.6863 0.6863 0.6863
v 164.018463 72.011208 103.928604 0.6863 0.6863 0.6863
v 163.185608 72.362656 99.296829 0.6863 0.6863 0.6863
v 165.875763 72.465973 95.420868 0.6863 0.6863 0.6863
v 170.513412 72.260612 94.571289 0.6863 0.6863 0.6863
v 174.381607 71.866890 97.245712 0.6863 0.6863 0.6863
v 175.625763 86.502876 101.107590 0.6863 0.6863 0.6863
v 172.118759 86.368217 106.160004 0.6863 0.6863 0.6863
v 166.073578 86.635910 107.267487 0.6863 0.6863 0.6863
v 161.031006 87.149155 103.781250 0.6863 0.6863 0.6863
v 159.945358 87.607285 97.743515 0.6863 0.6863 0.6863
v 163.452072 87.741974 92.691025 0.6863 0.6863 0.6863
v 169.497482 87.474274 91.583572 0.6863 0.6863 0.6863
v 174.539810 86.961037 95.069809 0.6863 0.6863 0.6863
v 72.519524 26.733236 155.793900 0.6863 0.6863 0.6863
vn -0.3614 -0.3740 0.8541
vn -0.3159 0.0445 0.9477
vn 0.1192 -0.8827 -0.4547
vn 0.3625 -0.3758 -0.8529
vn 0.4447 -0.0318 -0.8951
vn 0.2189 0.9749 0.0413
vn -0.2495 -0.8771 0.4104
vn -0.3653 -0.8823 0.2969
vn -0.6938 -0.3886 0.6064
vn -0.7310 -0.0039 0.6824
vn 0.3511 -0.8847 -0.3066
vn 0.6787 -0.4113 -0.6084
vn 0.7206 -0.0834 -0.6883
vn -0.0135 0.9999 -0.0053
vn 0.8644 -0.4079 -0.2941
vn 0.9679 -0.0784 -0.2389
vn 0.1156 0.9776 0.1760
vn -0.5334 -0.7553 -0.3808
vn -0.9445 -0.3009 -0.1321
vn -0.9980 0.0586 0.0243
vn 0.3875 -0.8032 -0.4525
vn 0.1157 0.9677 0.2242
vn -0.3614 -0.9061 0.2198
vn -0.8703 -0.4776 -0.1203
vn -0.9937 0.0154 -0.1113
vn 0.1795 -0.7809 0.5984
vn 0.4299 -0.4473 0.7843
vn 0.5196 -0.1350 0.8437
vn 0.1094 -0.6606 0.7427
vn 0.4048 -0.4398 0.8017
vn 0.6797 -0.0515 0.7317
vn 0.0694 0.9904 0.1193
vn -0.6012 -0.7930 0.0989
vn -0.8687 -0.4011 -0.2907
vn -0.9297 -0.0007 -0.3684
vn -0.3884 -0.8899 -0.2393
vn -0.6826 -0.4067 -0.6072
vn -0.7321 0.0216 -0.6809
vn 0.1925 -0.9006 0.3897
vn 0.5544 -0.4050 0.7270
vn 0.6252 0.0999 0.7740
vn 0.0496 0.9962 0.0714
vn -0.5878 0.0322 -0.8084
vn 0.5769 -0.8162 -0.0309
vn 0.8412 -0.3639 0.3999
vn 0.6845 -0.4184 0.5970
vn -0.0402 0.9985 0.0378
vn -0.0444 -0.8048 -0.5919
vn -0.4669 -0.3717 -0.8024
vn 0.2648 -0.5674 -0.7797
vn 0.0069 -0.2324 -0.9726
vn -0.1006 0.0540 -0.9935
vn 0.6903 -0.7235 0.0052
vn 0.7171 -0.3054 0.6265
vn 0.8581 0.2003 0.4728
vn -0.0135 0.9999 0.0106
vn 0.6192 -0.7792 0.0966
vn 0.8277 -0.2804 0.4860
vn 0.7858 0.2014 0.5848
vn -0.0747 0.9953 0.0611
vn 0.0193 -0.8676 -0.4969
vn -0.4364 -0.4675 -0.7688
vn -0.5894 -0.0613 -0.8055
vn -0.5794 -0.4835 -0.6561
vn -0.7107 -0.0687 -0.7001
vn 0.6073 -0.7867 0.1107
vn 0.8711 -0.2653 0.4132
vn 0.8603 0.2002 0.4688
vn -0.0043 1.0000 0.0026
vn -0.0971 -0.9066 -0.4107
vn 0.9858 0.1597 -0.0515
vn 0.2645 0.1984 -0.9438
vn 0.8635 0.1346 -0.4860
vn 0.9617 0.0798 0.2622
vn 0.5014 0.0663 0.8626
vn -0.2475 0.1018 0.9635
vn -0.8466 0.1657 0.5057
vn -0.9448 0.2204 -0.2425
vn -0.4846 0.2340 -0.8429
vn 0.8585 0.1852 -0.4781
vn -0.2615 -0.1010 0.9599
vn -0.4909 0.1808 -0.8522
vn 0.2649 0.2306 -0.9363
vn 0.9624 0.0712 0.2620
vn -0.8668 -0.0555 0.4956
vn 0.5004 -0.0483 0.8644
vn -0.9647 0.0615 -0.2559
vn -0.8560 -0.2049 0.4747
vn 0.4864 -0.2199 0.8456
vn 0.8659 0.0922 -0.4916
vn -0.9640 -0.0499 -0.2613
vn -0.2649 -0.2739 0.9245
vn 0.9645 -0.0671 0.2555
vn 0.2637 0.1628 -0.9508
vn -0.4975 0.1046 -0.8611
vn 0.2613 0.0936 -0.9607
vn -0.5011 0.0266 -0.8650
vn -0.8463 -0.2628 0.4634
vn 0.4809 -0.2598 0.8374
vn 0.8667 0.0363 -0.4975
vn -0.9569 -0.1231 -0.2631
vn -0.2645 -0.3185 0.9103
vn 0.9612 -0.1117 0.2524
vn -0.9621 -0.0757 -0.2621
vn -0.2637 -0.3524 0.8980
vn 0.9562 -0.1541 0.2489
vn 0.2630 0.1385 -0.9548
vn -0.4983 0.0921 -0.8621
vn -0.8473 -0.2578 0.4645
vn 0.4719 -0.3144 0.8237
vn 0.8667 0.0368 -0.4975
vn 0.8188 0.0676 0.5701
vn 0.1830 0.0765 0.9801
vn -0.5551 0.1285 0.8218
vn -0.9630 0.1931 0.1878
vn -0.8019 0.2326 -0.5504
vn -0.1660 0.2237 -0.9604
vn 0.5720 0.1718 -0.8021
vn 0.9799 0.1071 -0.1681
vn 0.1842 0.1277 0.9746
vn -0.8215 0.0311 -0.5693
vn 0.9835 0.0531 -0.1729
vn 0.8161 0.1006 0.5691
vn -0.5563 0.1199 0.8223
vn -0.1801 0.0031 -0.9837
vn -0.9800 0.0800 0.1823
vn 0.5695 0.0123 -0.8219
vn -0.1845 -0.1477 -0.9717
vn -0.9812 -0.0928 0.1694
vn 0.1815 0.0338 0.9828
vn 0.5591 -0.0988 -0.8232
vn -0.8110 -0.1451 -0.5668
vn -0.5698 -0.0179 0.8216
vn 0.8207 0.0314 0.5705
vn 0.9836 -0.0237 -0.1787
vn 0.8214 -0.0386 0.5691
vn 0.9778 -0.1015 -0.1836
vn -0.1851 -0.2064 -0.9608
vn -0.9771 -0.1335 0.1656
vn 0.1792 -0.0224 0.9836
vn 0.5484 -0.1714 -0.8184
vn -0.8040 -0.1912 -0.5631
vn -0.5719 -0.0626 0.8179
vn 0.5557 -0.1243 -0.8220
vn -0.7973 -0.2265 -0.5594
vn -0.5727 -0.1051 0.8130
vn 0.8214 0.0068 0.5703
vn 0.9831 -0.0362 -0.1796
vn -0.1851 -0.2013 -0.9619
vn -0.9688 -0.1896 0.1598
vn 0.1792 -0.0219 0.9836
vn -0.3547 -0.3400 0.8710
vn -0.3165 0.0091 0.9485
vn 0.1158 -0.8881 -0.4448
vn 0.3607 -0.3931 -0.8458
vn 0.4440 -0.0616 -0.8939
vn 0.2177 0.9712 0.0965
vn -0.2551 -0.8611 0.4398
vn -0.4026 -0.8472 0.3467
vn -0.7006 -0.2823 0.6554
vn -0.7134 0.0863 0.6955
vn 0.3556 -0.8809 -0.3125
vn 0.7103 -0.3560 -0.6072
vn 0.7427 -0.0004 -0.6697
vn -0.0098 0.9998 -0.0188
vn 0.8964 -0.3674 -0.2479
vn 0.9920 0.0746 -0.1018
vn 0.1100 0.9769 0.1833
vn -0.6922 -0.6650 -0.2804
vn -0.9773 -0.2059 -0.0506
vn -0.9925 0.1092 0.0556
vn 0.2733 -0.8572 -0.4365
vn 0.0596 0.9614 0.2685
vn -0.4393 -0.8761 0.1985
vn -0.9458 -0.3172 -0.0695
vn -0.9947 0.0747 -0.0708
vn 0.3580 -0.6907 0.6283
vn 0.5237 -0.3416 0.7804
vn 0.5131 -0.1078 0.8515
vn -0.0275 -0.8311 0.5555
vn 0.3949 -0.3989 0.8276
vn 0.5741 0.0947 0.8133
vn -0.0395 0.9852 0.1666
vn -0.3679 -0.9149 0.1659
vn -0.8536 -0.4296 -0.2947
vn -0.9377 0.0701 -0.3403
vn 0.8358 0.1192 0.5359
vn -0.0544 0.9817 0.1823
vn 0.3176 -0.6745 -0.6664
vn 0.0136 -0.3472 -0.9377
vn -0.1167 -0.0282 -0.9928
vn 0.6312 -0.7672 -0.1139
vn 0.7019 -0.3957 0.5922
vn 0.7236 -0.4107 0.5547
vn -0.0139 0.9998 0.0106
vn 0.4232 -0.5684 -0.7055
vn 0.1352 -0.3000 -0.9443
vn 0.1548 -0.0070 -0.9879
vn 0.5644 0.6791 -0.4692
vn -0.4909 0.1809 -0.8522
vn -0.8473 -0.2577 0.4645
vn 0.8161 0.1005 0.5691
vn -0.1800 0.0031 -0.9837
vn 0.1816 0.0338 0.9828
vn -0.5719 -0.0626 0.8180
vn -0.5728 -0.1051 0.8130
vn 0.9879 -0.1545 -0.0131
vn 0.8315 -0.4886 -0.2642
s 0
f 5//1 10//1 12//1
f 2//2 10//2 3//2
f 6//3 14//3 13//3
f 4//4 13//4 11//4
f 1//5 11//5 8//5
f 1//6 9//6 2//6
f 7//7 12//7 14//7
f 14//8 19//8 21//8
f 12//9 17//9 19//9
f 10//10 16//10 17//10
f 13//11 21//11 20//11
f 13//12 18//12 11//12
f 11//13 15//13 8//13
f 8//14 16//14 9//14
f 20//15 25//15 18//15
f 18//16 22//16 15//16
f 15//17 23//17 16//17
f 21//18 26//18 28//18
f 19//19 24//19 26//19
f 17//20 23//20 24//20
f 20//21 28//21 27//21
f 22//22 30//22 23//22
f 28//23 33//23 35//23
f 26//24 31//24 33//24
f 24//25 30//25 31//25
f 27//26 35//26 34//26
f 25//27 34//27 32//27
f 25//28 29//28 22//28
f 35//29 41//29 34//29
f 34//30 39//30 32//30
f 32//31 36//31 29//31
f 29//32 37//32 30//32
f 35//33 40//33 42//33
f 33//34 38//34 40//34
f 31//35 37//35 38//35
f 42//36 47//36 49//36
f 40//37 45//37 47//37
f 38//38 44//38 45//38
f 42//39 48//39 41//39
f 41//40 46//40 39//40
f 39//41 43//41 36//41
f 36//42 44//42 37//42
f 44//43 52//43 45//43
f 48//44 56//44 55//44
f 46//45 55//45 53//45
f 43//46 53//46 50//46
f 44//47 50//47 51//47
f 47//48 56//48 49//48
f 45//49 54//49 47//49
f 54//50 63//50 56//50
f 52//51 61//51 54//51
f 51//52 59//52 52//52
f 55//53 63//53 62//53
f 53//54 62//54 60//54
f 50//55 60//55 57//55
f 50//56 58//56 51//56
f 63//57 69//57 62//57
f 62//58 67//58 60//58
f 57//59 67//59 64//59
f 58//60 64//60 65//60
f 61//61 70//61 63//61
f 59//62 68//62 61//62
f 59//63 65//63 66//63
f 66//64 75//64 68//64
f 66//65 72//65 73//65
f 70//66 76//66 69//66
f 69//67 74//67 67//67
f 64//68 74//68 71//68
f 65//69 71//69 72//69
f 68//70 77//70 70//70
f 74//71 174//71 71//71
f 79//72 80//72 78//72
f 80//73 83//73 82//73
f 82//74 85//74 84//74
f 85//75 86//75 84//75
f 86//76 89//76 88//76
f 89//77 90//77 88//77
f 91//78 92//78 90//78
f 92//79 79//79 78//79
f 83//80 95//80 96//80
f 89//81 98//81 99//81
f 93//82 94//82 79//82
f 79//83 95//83 81//83
f 85//84 96//84 97//84
f 89//85 100//85 91//85
f 87//86 97//86 98//86
f 91//87 101//87 93//87
f 99//88 108//88 100//88
f 98//89 105//89 106//89
f 96//90 103//90 104//90
f 100//91 109//91 101//91
f 99//92 106//92 107//92
f 97//93 104//93 105//93
f 94//94 103//94 95//94
f 101//95 102//95 94//95
f 102//96 111//96 103//96
f 109//97 110//97 102//97
f 107//98 116//98 108//98
f 106//99 113//99 114//99
f 104//100 111//100 112//100
f 108//101 117//101 109//101
f 107//102 114//102 115//102
f 105//103 112//103 113//103
f 116//104 125//104 117//104
f 115//105 122//105 123//105
f 113//106 120//106 121//106
f 110//107 119//107 111//107
f 117//108 118//108 110//108
f 115//109 124//109 116//109
f 114//110 121//110 122//110
f 112//111 119//111 120//111
f 127//112 128//112 126//112
f 128//113 131//113 130//113
f 130//114 133//114 132//114
f 133//115 134//115 132//115
f 134//116 137//116 136//116
f 137//117 138//117 136//117
f 139//118 140//118 138//118
f 140//119 127//119 126//119
f 131//120 143//120 144//120
f 137//121 146//121 147//121
f 141//122 142//122 127//122
f 127//123 143//123 129//123
f 133//124 144//124 145//124
f 137//125 148//125 139//125
f 135//126 145//126 146//126
f 139//127 149//127 141//127
f 147//128 156//128 148//128
f 146//129 153//129 154//129
f 144//130 151//130 152//130
f 148//131 157//131 149//131
f 147//132 154//132 155//132
f 145//133 152//133 153//133
f 142//134 151//134 143//134
f 149//135 150//135 142//135
f 150//136 159//136 151//136
f 157//137 158//137 150//137
f 155//138 164//138 156//138
f 154//139 161//139 162//139
f 152//140 159//140 160//140
f 156//141 165//141 157//141
f 155//142 162//142 163//142
f 153//143 160//143 161//143
f 164//144 173//144 165//144
f 163//145 170//145 171//145
f 161//146 168//146 169//146
f 158//147 167//147 159//147
f 165//148 166//148 158//148
f 163//149 172//149 164//149
f 162//150 169//150 170//150
f 160//151 167//151 168//151
f 5//152 3//152 10//152
f 2//153 9//153 10//153
f 6//154 7//154 14//154
f 4//155 6//155 13//155
f 1//156 4//156 11//156
f 1//157 8//157 9//157
f 7//158 5//158 12//158
f 14//159 12//159 19//159
f 12//160 10//160 17//160
f 10//161 9//161 16//161
f 13//162 14//162 21//162
f 13//163 20//163 18//163
f 11//164 18//164 15//164
f 8//165 15//165 16//165
f 20//166 27//166 25//166
f 18//167 25//167 22//167
f 15//168 22//168 23//168
f 21//169 19//169 26//169
f 19//170 17//170 24//170
f 17//171 16//171 23//171
f 20//172 21//172 28//172
f 22//173 29//173 30//173
f 28//174 26//174 33//174
f 26//175 24//175 31//175
f 24//176 23//176 30//176
f 27//177 28//177 35//177
f 25//178 27//178 34//178
f 25//179 32//179 29//179
f 35//180 42//180 41//180
f 34//181 41//181 39//181
f 32//182 39//182 36//182
f 29//183 36//183 37//183
f 35//184 33//184 40//184
f 33//185 31//185 38//185
f 31//186 30//186 37//186
f 42//36 40//36 47//36
f 40//37 38//37 45//37
f 38//38 37//38 44//38
f 42//39 49//39 48//39
f 41//40 48//40 46//40
f 39//41 46//41 43//41
f 36//42 43//42 44//42
f 44//43 51//43 52//43
f 48//44 49//44 56//44
f 46//45 48//45 55//45
f 43//187 46//187 53//187
f 44//188 43//188 50//188
f 47//48 54//48 56//48
f 45//49 52//49 54//49
f 54//189 61//189 63//189
f 52//190 59//190 61//190
f 51//191 58//191 59//191
f 55//192 56//192 63//192
f 53//193 55//193 62//193
f 50//194 53//194 60//194
f 50//195 57//195 58//195
f 63//57 70//57 69//57
f 62//58 69//58 67//58
f 57//59 60//59 67//59
f 58//60 57//60 64//60
f 61//61 68//61 70//61
f 59//62 66//62 68//62
f 59//63 58//63 65//63
f 66//64 73//64 75//64
f 66//65 65//65 72//65
f 70//66 77//66 76//66
f 69//67 76//67 74//67
f 64//68 67//68 74//68
f 65//69 64//69 71//69
f 68//70 75//70 77//70
f 75//196 174//196 77//196
f 73//197 174//197 75//197
f 72//198 174//198 73//198
f 72//199 71//199 174//199
f 79//72 81//72 80//72
f 80//73 81//73 83//73
f 82//74 83//74 85//74
f 85//75 87//75 86//75
f 86//76 87//76 89//76
f 89//77 91//77 90//77
f 91//78 93//78 92//78
f 92//79 93//79 79//79
f 83//80 81//80 95//80
f 89//81 87//81 98//81
f 93//200 101//200 94//200
f 79//83 94//83 95//83
f 85//84 83//84 96//84
f 89//85 99//85 100//85
f 87//86 85//86 97//86
f 91//87 100//87 101//87
f 99//88 107//88 108//88
f 98//89 97//89 105//89
f 96//90 95//90 103//90
f 100//91 108//91 109//91
f 99//92 98//92 106//92
f 97//93 96//93 104//93
f 94//94 102//94 103//94
f 101//95 109//95 102//95
f 102//96 110//96 111//96
f 109//97 117//97 110//97
f 107//98 115//98 116//98
f 106//99 105//99 113//99
f 104//100 103//100 111//100
f 108//101 116//101 117//101
f 107//102 106//102 114//102
f 105//103 104//103 112//103
f 116//104 124//104 125//104
f 115//105 114//105 122//105
f 113//106 112//106 120//106
f 110//107 118//107 119//107
f 117//108 125//108 118//108
f 115//201 123//201 124//201
f 114//110 113//110 121//110
f 112//111 111//111 119//111
f 127//112 129//112 128//112
f 128//113 129//113 131//113
f 130//114 131//114 133//114
f 133//115 135//115 134//115
f 134//116 135//116 137//116
f 137//117 139//117 138//117
f 139//118 141//118 140//118
f 140//119 141//119 127//119
f 131//120 129//120 143//120
f 137//121 135//121 146//121
f 141//122 149//122 142//122
f 127//202 142//202 143//202
f 133//124 131//124 144//124
f 137//203 147//203 148//203
f 135//126 133//126 145//126
f 139//127 148//127 149//127
f 147//128 155//128 156//128
f 146//129 145//129 153//129
f 144//204 143//204 151//204
f 148//131 156//131 157//131
f 147//132 146//132 154//132
f 145//133 144//133 152//133
f 142//134 150//134 151//134
f 149//135 157//135 150//135
f 150//136 158//136 159//136
f 157//137 165//137 158//137
f 155//138 163//138 164//138
f 154//139 153//139 161//139
f 152//140 151//140 159//140
f 156//141 164//141 165//141
f 155//142 154//142 162//142
f 153//205 152//205 160//205
f 164//144 172//144 173//144
f 163//145 162//145 170//145
f 161//206 160//206 168//206
f 158//147 166//147 167//147
f 165//148 173//148 166//148
f 163//149 171//149 172//149
f 162//150 161//150 169//150
f 160//151 159//151 167//151
f 76//207 174//207 74//207
f 77//208 174//208 76//208
