# Blender 4.1.1
# www.blender.org
o landscape_no_shadow
v 145.906235 52.131077 -59.543156 0.6863 0.6863 0.6863
v 149.216446 52.081490 -75.919556 0.6863 0.6863 0.6863
v 150.326019 60.095074 -75.950394 0.6863 0.6863 0.6863
v 147.050552 60.363560 -59.585003 0.6863 0.6863 0.6863
v 150.770767 68.382607 -72.534286 0.6863 0.6863 0.6863
v 148.778854 68.516678 -62.599098 0.6863 0.6863 0.6863
v 150.130066 71.145500 -67.496170 0.6863 0.6863 0.6863
v 189.485519 40.175766 -37.516029 0.6863 0.6863 0.6863
v 199.020309 40.189556 -59.162067 0.6863 0.6863 0.6863
v 200.906662 51.586704 -58.641796 0.6863 0.6863 0.6863
v 191.299667 51.832596 -37.029099 0.6863 0.6863 0.6863
v 201.034775 63.186428 -53.508682 0.6863 0.6863 0.6863
v 195.221359 63.335217 -40.430294 0.6863 0.6863 0.6863
v 198.911453 67.017616 -46.611847 0.6863 0.6863 0.6863
v 204.286224 35.166313 -15.959521 0.6863 0.6863 0.6863
v 220.283417 35.129517 -26.263300 0.6863 0.6863 0.6863
v 221.358826 44.291237 -25.058552 0.6863 0.6863 0.6863
v 205.328873 44.537189 -14.808712 0.6863 0.6863 0.6863
v 219.209656 53.625053 -21.536373 0.6863 0.6863 0.6863
v 209.509491 53.773888 -15.333920 0.6863 0.6863 0.6863
v 214.740021 56.718876 -17.841412 0.6863 0.6863 0.6863
v 207.659286 32.029652 -1.263331 0.6863 0.6863 0.6863
v 221.102325 30.915146 -3.387705 0.6863 0.6863 0.6863
v 221.537125 37.829037 -2.199855 0.6863 0.6863 0.6863
v 207.321579 38.140690 -0.077579 0.6863 0.6863 0.6863
v 219.034317 44.898373 -0.408550 0.6863 0.6863 0.6863
v 210.432129 45.086964 0.875710 0.6863 0.6863 0.6863
v 214.833755 47.271145 0.768719 0.6863 0.6863 0.6863
v 182.425690 28.325258 15.783946 0.6863 0.6863 0.6863
v 211.451355 26.110155 17.276575 0.6863 0.6863 0.6863
v 211.330154 37.092503 19.872561 0.6863 0.6863 0.6863
v 180.747437 38.053925 18.027515 0.6863 0.6863 0.6863
v 204.777985 48.408501 22.353752 0.6863 0.6863 0.6863
v 186.271576 48.990280 21.237278 0.6863 0.6863 0.6863
v 195.303009 52.310951 22.861008 0.6863 0.6863 0.6863
v 170.679123 26.036106 26.535089 0.6863 0.6863 0.6863
v 198.520355 22.805866 52.231155 0.6863 0.6863 0.6863
v 198.109192 40.473072 53.233280 0.6863 0.6863 0.6863
v 168.735840 41.684818 26.084209 0.6863 0.6863 0.6863
v 191.174423 58.681026 48.832417 0.6863 0.6863 0.6863
v 173.399857 59.414242 32.403839 0.6863 0.6863 0.6863
v 181.659378 64.924408 41.056637 0.6863 0.6863 0.6863
v 141.366943 25.796598 50.243835 0.6863 0.6863 0.6863
v 173.103638 22.114397 79.535194 0.6863 0.6863 0.6863
v 172.634933 42.253525 80.677528 0.6863 0.6863 0.6863
v 139.151840 43.634808 49.729881 0.6863 0.6863 0.6863
v 164.729889 63.009048 75.660919 0.6863 0.6863 0.6863
v 144.468369 63.844875 56.933739 0.6863 0.6863 0.6863
v 153.883530 70.125961 66.797188 0.6863 0.6863 0.6863
v 117.280640 20.079355 73.851334 0.6863 0.6863 0.6863
v 144.269409 20.160980 100.423820 0.6863 0.6863 0.6863
v 143.948090 33.967472 101.206985 0.6863 0.6863 0.6863
v 116.956085 34.654152 73.519035 0.6863 0.6863 0.6863
v 138.528748 48.196529 97.767815 0.6863 0.6863 0.6863
v 121.212769 50.315865 82.458618 0.6863 0.6863 0.6863
v 130.427109 54.287685 91.473099 0.6863 0.6863 0.6863
v 106.540543 19.722137 93.497223 0.6863 0.6863 0.6863
v 115.142296 19.731836 103.858620 0.6863 0.6863 0.6863
v 114.656784 25.980539 103.738152 0.6863 0.6863 0.6863
v 105.620087 25.194487 92.849159 0.6863 0.6863 0.6863
v 112.130157 32.165047 101.411819 0.6863 0.6863 0.6863
v 106.661842 31.689386 94.822617 0.6863 0.6863 0.6863
v 109.057373 33.998436 98.091408 0.6863 0.6863 0.6863
v 101.528091 18.916002 100.509865 0.6863 0.6863 0.6863
v 108.434265 18.923788 108.828827 0.6863 0.6863 0.6863
v 108.044449 23.940750 108.732124 0.6863 0.6863 0.6863
v 100.789062 23.309641 99.989571 0.6863 0.6863 0.6863
v 106.015884 28.906168 106.864357 0.6863 0.6863 0.6863
v 101.625473 28.524263 101.574013 0.6863 0.6863 0.6863
v 103.548813 30.378159 104.198471 0.6863 0.6863 0.6863
v 96.377914 18.869112 109.982262 0.6863 0.6863 0.6863
v 101.373932 18.874748 116.000320 0.6863 0.6863 0.6863
v 101.091934 22.504084 115.930321 0.6863 0.6863 0.6863
v 95.843292 22.047531 109.605888 0.6863 0.6863 0.6863
v 99.624435 26.096130 114.579185 0.6863 0.6863 0.6863
v 96.448341 25.819857 110.752083 0.6863 0.6863 0.6863
v 97.839722 27.160990 112.650658 0.6863 0.6863 0.6863
v 164.591980 23.430325 36.964584 0.6863 0.6863 0.6863
v 165.050476 29.252256 38.316952 0.6863 0.6863 0.6863
v 167.722534 23.199495 37.793434 0.6863 0.6863 0.6863
v 167.460938 29.074528 38.955135 0.6863 0.6863 0.6863
v 169.341599 22.924164 40.593964 0.6863 0.6863 0.6863
v 168.707550 28.862534 41.111458 0.6863 0.6863 0.6863
v 168.500809 22.765598 43.725845 0.6863 0.6863 0.6863
v 168.060135 28.740435 43.522930 0.6863 0.6863 0.6863
v 165.692642 22.816706 45.354271 0.6863 0.6863 0.6863
v 165.897934 28.779791 44.776764 0.6863 0.6863 0.6863
v 162.562088 23.047523 44.525558 0.6863 0.6863 0.6863
v 163.487503 28.957518 44.138683 0.6863 0.6863 0.6863
v 160.943008 23.322865 41.724922 0.6863 0.6863 0.6863
v 162.240875 29.169508 41.982273 0.6863 0.6863 0.6863
v 161.783829 23.481421 38.593166 0.6863 0.6863 0.6863
v 162.888275 29.291597 39.570904 0.6863 0.6863 0.6863
v 164.663132 39.024002 40.613781 0.6863 0.6863 0.6863
v 166.546021 38.885170 41.112309 0.6863 0.6863 0.6863
v 167.519821 38.719578 42.796696 0.6863 0.6863 0.6863
v 167.014114 38.624203 44.680401 0.6863 0.6863 0.6863
v 165.325119 38.654942 45.659817 0.6863 0.6863 0.6863
v 163.442230 38.793770 45.161388 0.6863 0.6863 0.6863
v 162.468414 38.959373 43.476921 0.6863 0.6863 0.6863
v 162.974136 39.054737 41.593315 0.6863 0.6863 0.6863
v 164.086487 48.934753 42.151028 0.6863 0.6863 0.6863
v 166.437164 48.761425 42.773422 0.6863 0.6863 0.6863
v 167.652924 48.554684 44.876293 0.6863 0.6863 0.6863
v 167.021561 48.435627 47.228008 0.6863 0.6863 0.6863
v 164.912933 48.474003 48.450787 0.6863 0.6863 0.6863
v 162.562241 48.647312 47.828510 0.6863 0.6863 0.6863
v 161.346481 48.854069 45.725536 0.6863 0.6863 0.6863
v 161.977844 48.973125 43.373905 0.6863 0.6863 0.6863
v 163.289963 59.107502 42.925041 0.6863 0.6863 0.6863
v 166.605576 58.863037 43.802891 0.6863 0.6863 0.6863
v 168.320374 58.571411 46.768970 0.6863 0.6863 0.6863
v 167.429871 58.403477 50.086025 0.6863 0.6863 0.6863
v 164.455673 58.457607 51.810719 0.6863 0.6863 0.6863
v 161.140076 58.702076 50.933029 0.6863 0.6863 0.6863
v 159.425247 58.993687 47.966808 0.6863 0.6863 0.6863
v 160.315796 59.161617 44.649879 0.6863 0.6863 0.6863
v 162.805206 69.940483 44.362904 0.6863 0.6863 0.6863
v 167.127258 69.621803 45.507221 0.6863 0.6863 0.6863
v 169.362534 69.241676 49.373631 0.6863 0.6863 0.6863
v 168.201706 69.022758 53.697525 0.6863 0.6863 0.6863
v 164.324738 69.093315 55.945759 0.6863 0.6863 0.6863
v 160.002701 69.411987 54.801624 0.6863 0.6863 0.6863
v 157.767395 69.792145 50.935032 0.6863 0.6863 0.6863
v 158.928207 70.011032 46.611317 0.6863 0.6863 0.6863
v 171.102798 19.213776 77.827461 0.6863 0.6863 0.6863
v 170.482895 25.173317 78.010696 0.6863 0.6863 0.6863
v 169.251938 19.142704 80.493912 0.6863 0.6863 0.6863
v 169.057816 25.118595 80.063774 0.6863 0.6863 0.6863
v 166.061569 19.283978 81.078407 0.6863 0.6863 0.6863
v 166.601303 25.227367 80.513817 0.6863 0.6863 0.6863
v 163.400330 19.554850 79.238503 0.6863 0.6863 0.6863
v 164.552216 25.435932 79.097160 0.6863 0.6863 0.6863
v 162.827362 19.796631 76.052040 0.6863 0.6863 0.6863
v 164.111069 25.622097 76.643692 0.6863 0.6863 0.6863
v 164.678024 19.867712 73.385582 0.6863 0.6863 0.6863
v 165.536057 25.676830 74.590561 0.6863 0.6863 0.6863
v 167.868546 19.726433 72.801109 0.6863 0.6863 0.6863
v 167.992615 25.568045 74.140549 0.6863 0.6863 0.6863
v 170.529694 19.455568 74.640968 0.6863 0.6863 0.6863
v 170.041626 25.359489 75.557190 0.6863 0.6863 0.6863
v 169.804001 35.164562 77.219032 0.6863 0.6863 0.6863
v 168.690781 35.121819 78.822777 0.6863 0.6863 0.6863
v 166.771896 35.206787 79.174309 0.6863 0.6863 0.6863
v 165.171280 35.369705 78.067688 0.6863 0.6863 0.6863
v 164.826660 35.515129 76.151176 0.6863 0.6863 0.6863
v 165.939774 35.557873 74.547401 0.6863 0.6863 0.6863
v 167.858749 35.472897 74.195900 0.6863 0.6863 0.6863
v 169.459290 35.309994 75.302498 0.6863 0.6863 0.6863
v 169.915726 45.184464 76.506462 0.6863 0.6863 0.6863
v 168.525940 45.131092 78.508698 0.6863 0.6863 0.6863
v 166.130280 45.237179 78.947578 0.6863 0.6863 0.6863
v 164.131989 45.440578 77.566017 0.6863 0.6863 0.6863
v 163.701752 45.622124 75.173317 0.6863 0.6863 0.6863
v 165.091431 45.675503 73.171074 0.6863 0.6863 0.6863
v 167.487152 45.569416 72.732208 0.6863 0.6863 0.6863
v 169.485336 45.366020 74.113747 0.6863 0.6863 0.6863
v 170.848373 55.353886 75.849724 0.6863 0.6863 0.6863
v 168.888123 55.278614 78.673828 0.6863 0.6863 0.6863
v 165.509125 55.428246 79.292854 0.6863 0.6863 0.6863
v 162.690567 55.715130 77.344177 0.6863 0.6863 0.6863
v 162.083725 55.971191 73.969353 0.6863 0.6863 0.6863
v 164.043839 56.046474 71.145226 0.6863 0.6863 0.6863
v 167.422958 55.896851 70.526199 0.6863 0.6863 0.6863
v 170.241394 55.609970 72.474861 0.6863 0.6863 0.6863
v 171.147934 66.274117 75.288712 0.6863 0.6863 0.6863
v 168.592621 66.176010 78.970032 0.6863 0.6863 0.6863
v 164.187973 66.371048 79.776962 0.6863 0.6863 0.6863
v 160.513840 66.744995 77.236801 0.6863 0.6863 0.6863
v 159.722794 67.078819 72.837563 0.6863 0.6863 0.6863
v 162.277878 67.176964 69.156197 0.6863 0.6863 0.6863
v 166.682724 66.981903 68.349289 0.6863 0.6863 0.6863
v 170.356674 66.607948 70.889442 0.6863 0.6863 0.6863
v 96.022209 22.724485 115.134506 0.6863 0.6863 0.6863
vn -0.2522 -0.8705 0.4226
vn -0.3592 -0.3598 0.8611
vn 0.3623 -0.3757 -0.8529
vn 0.4439 -0.0317 -0.8955
vn 0.2189 0.9749 0.0413
vn -0.6349 -0.7654 0.1052
vn 0.2163 -0.8706 -0.4419
vn -0.9655 -0.2463 -0.0850
vn 0.1173 -0.8849 -0.4507
vn 0.7037 -0.4112 -0.5793
vn 0.8089 -0.1017 -0.5790
vn 0.1393 0.9883 0.0620
vn 0.9827 -0.0169 -0.1846
vn 0.5636 -0.1056 0.8193
vn 0.1156 0.9776 0.1760
vn 0.3241 -0.8351 -0.4444
vn -0.9953 0.0872 0.0421
vn -0.8383 0.0755 0.5400
vn 0.8799 -0.3892 -0.2726
vn 0.1230 0.9524 0.2789
vn -0.8419 -0.3124 -0.4400
vn -0.9071 0.1022 -0.4083
vn -0.9335 0.0275 -0.3574
vn -0.4276 -0.8910 -0.1523
vn 0.8523 -0.3806 0.3589
vn 0.6215 0.0334 0.7827
vn 0.2881 -0.8332 0.4720
vn 0.5262 -0.4255 0.7363
vn 0.6252 0.0999 0.7740
vn 0.0694 0.9904 0.1193
vn 0.0224 -0.7766 0.6296
vn -0.8625 -0.4130 -0.2924
vn -0.5052 -0.8533 0.1290
vn -0.3884 -0.8899 -0.2393
vn -0.6826 -0.4067 -0.6072
vn 0.1925 -0.9006 0.3897
vn 0.3986 -0.4138 0.8185
vn 0.5068 -0.8614 -0.0323
vn 0.0496 0.9962 0.0714
vn -0.7321 0.0216 -0.6809
vn 0.7538 -0.4262 0.5002
vn 0.7020 0.0735 0.7083
vn 0.5544 -0.4050 0.7270
vn -0.0402 0.9985 0.0378
vn -0.4669 -0.3717 -0.8024
vn -0.5878 0.0322 -0.8084
vn 0.0090 -0.2685 -0.9632
vn -0.1056 0.0286 -0.9940
vn -0.5894 -0.0613 -0.8055
vn 0.2657 -0.5693 -0.7780
vn 0.6495 -0.7195 -0.2460
vn -0.0744 -0.7961 -0.6006
vn -0.0135 0.9999 0.0106
vn 0.6073 -0.7867 0.1107
vn 0.6192 -0.7792 0.0966
vn 0.8711 -0.2653 0.4132
vn -0.0747 0.9953 0.0611
vn 0.8589 0.0781 0.5062
vn -0.5794 -0.4835 -0.6561
vn -0.4364 -0.4675 -0.7688
vn -0.7107 -0.0687 -0.7001
vn 0.8603 0.2002 0.4688
vn -0.0971 -0.9066 -0.4107
vn 0.8277 -0.2804 0.4860
vn 0.7858 0.2014 0.5848
vn -0.0043 1.0000 0.0026
vn 0.0193 -0.8676 -0.4969
vn 0.9858 0.1597 -0.0515
vn 0.2645 0.1984 -0.9438
vn 0.8635 0.1346 -0.4860
vn 0.9617 0.0798 0.2622
vn 0.5014 0.0663 0.8626
vn -0.2476 0.1018 0.9635
vn -0.8466 0.1657 0.5057
vn -0.9448 0.2204 -0.2425
vn -0.4846 0.2340 -0.8429
vn 0.8585 0.1852 -0.4781
vn -0.2615 -0.1010 0.9599
vn -0.4909 0.1809 -0.8522
vn 0.2649 0.2306 -0.9363
vn 0.9624 0.0712 0.2620
vn -0.8668 -0.0555 0.4956
vn 0.5004 -0.0483 0.8644
vn -0.9647 0.0615 -0.2559
vn -0.8560 -0.2049 0.4747
vn 0.4864 -0.2199 0.8456
vn 0.8659 0.0922 -0.4916
vn -0.9640 -0.0499 -0.2613
vn -0.2649 -0.2739 0.9245
vn 0.9645 -0.0671 0.2555
vn 0.2637 0.1628 -0.9508
vn -0.4975 0.1046 -0.8611
vn 0.2613 0.0935 -0.9607
vn -0.5011 0.0266 -0.8650
vn -0.8463 -0.2628 0.4634
vn 0.4809 -0.2598 0.8374
vn 0.8667 0.0363 -0.4975
vn -0.9569 -0.1231 -0.2631
vn -0.2645 -0.3185 0.9103
vn 0.9612 -0.1117 0.2524
vn -0.9621 -0.0756 -0.2621
vn -0.2637 -0.3524 0.8979
vn 0.9562 -0.1541 0.2489
vn 0.2630 0.1385 -0.9548
vn -0.4983 0.0921 -0.8621
vn -0.8473 -0.2577 0.4645
vn 0.4719 -0.3144 0.8237
vn 0.8667 0.0368 -0.4975
vn 0.8188 0.0676 0.5701
vn 0.1830 0.0765 0.9801
vn -0.5551 0.1285 0.8218
vn -0.9630 0.1931 0.1878
vn -0.8019 0.2326 -0.5503
vn -0.1660 0.2237 -0.9604
vn 0.5720 0.1718 -0.8021
vn 0.9799 0.1071 -0.1681
vn 0.1842 0.1277 0.9746
vn -0.8215 0.0311 -0.5694
vn 0.9835 0.0531 -0.1729
vn 0.8161 0.1005 0.5691
vn -0.5563 0.1199 0.8223
vn -0.1801 0.0031 -0.9837
vn -0.9800 0.0800 0.1823
vn 0.5695 0.0123 -0.8219
vn -0.1845 -0.1477 -0.9717
vn -0.9812 -0.0928 0.1694
vn 0.1815 0.0338 0.9828
vn 0.5591 -0.0988 -0.8232
vn -0.8110 -0.1451 -0.5668
vn -0.5698 -0.0179 0.8216
vn 0.8207 0.0314 0.5705
vn 0.9836 -0.0237 -0.1787
vn 0.8214 -0.0386 0.5691
vn 0.9777 -0.1015 -0.1836
vn -0.1851 -0.2064 -0.9608
vn -0.9771 -0.1335 0.1656
vn 0.1792 -0.0224 0.9836
vn 0.5484 -0.1714 -0.8184
vn -0.8040 -0.1912 -0.5631
vn -0.5719 -0.0626 0.8179
vn 0.5557 -0.1243 -0.8220
vn -0.7973 -0.2265 -0.5594
vn -0.5728 -0.1051 0.8130
vn 0.8214 0.0068 0.5703
vn 0.9831 -0.0362 -0.1796
vn -0.1851 -0.2013 -0.9619
vn -0.9688 -0.1896 0.1598
vn 0.1792 -0.0219 0.9836
vn 0.3609 -0.3897 -0.8472
vn 0.4430 -0.0661 -0.8941
vn 0.2177 0.9712 0.0965
vn 0.7411 -0.3674 -0.5619
vn 0.8412 -0.0273 -0.5401
vn 0.1035 0.9821 0.1572
vn 0.1100 0.9769 0.1833
vn 0.0578 0.9544 0.2929
vn -0.0395 0.9852 0.1666
vn -0.0544 0.9817 0.1823
vn -0.0139 0.9998 0.0106
vn 0.4233 -0.5684 -0.7055
vn 0.1352 -0.3000 -0.9443
vn 0.1548 -0.0070 -0.9879
vn 0.5644 0.6791 -0.4692
vn -0.2475 0.1018 0.9635
vn -0.4910 0.1808 -0.8522
vn 0.2613 0.0936 -0.9607
vn -0.9621 -0.0757 -0.2621
vn -0.2637 -0.3524 0.8980
vn -0.8215 0.0311 -0.5693
vn -0.1800 0.0031 -0.9837
vn 0.9778 -0.1015 -0.1836
vn -0.1852 -0.2064 -0.9608
vn -0.5719 -0.0626 0.8180
vn 0.9879 -0.1545 -0.0131
vn 0.8315 -0.4886 -0.2643
vn -0.8591 -0.2642 0.4383
vn -0.3167 0.0250 0.9482
vn -0.6282 -0.7070 -0.3247
s 0
f 12//1 14//1 7//1 5//1
f 10//2 12//2 5//2 3//2
f 4//3 13//3 11//3
f 1//4 11//4 8//4
f 1//5 9//5 2//5
f 19//6 21//6 14//6 12//6
f 21//7 20//7 13//7 14//7
f 24//8 26//8 19//8 17//8
f 14//9 13//9 6//9 7//9
f 13//10 18//10 11//10
f 11//11 15//11 8//11
f 8//12 16//12 9//12
f 22//13 15//13 18//13 25//13
f 29//14 22//14 25//14 32//14
f 15//15 23//15 16//15
f 28//16 27//16 20//16 21//16
f 23//17 24//17 17//17 16//17
f 16//18 17//18 10//18 9//18
f 25//19 18//19 20//19 27//19
f 22//20 30//20 23//20
f 31//21 33//21 26//21 24//21
f 30//22 31//22 24//22 23//22
f 37//23 38//23 31//23 30//23
f 33//24 35//24 28//24 26//24
f 62//25 60//25 53//25 55//25
f 36//26 29//26 32//26 39//26
f 35//27 34//27 27//27 28//27
f 34//28 32//28 25//28 27//28
f 43//29 36//29 39//29 46//29
f 29//30 37//30 30//30
f 41//31 34//31 35//31 42//31
f 38//32 40//32 33//32 31//32
f 40//33 42//33 35//33 33//33
f 47//34 49//34 42//34 40//34
f 45//35 47//35 40//35 38//35
f 42//36 48//36 41//36
f 39//37 32//37 34//37 41//37
f 56//38 55//38 48//38 49//38
f 36//39 44//39 37//39
f 44//40 45//40 38//40 37//40
f 55//41 53//41 46//41 48//41
f 53//42 50//42 43//42 46//42
f 46//43 39//43 41//43 48//43
f 44//44 50//44 51//44
f 54//45 47//45 45//45 52//45
f 52//46 45//46 44//46 51//46
f 61//47 54//47 52//47 59//47
f 59//48 52//48 51//48 58//48
f 65//49 66//49 59//49 58//49
f 63//50 56//50 54//50 61//50
f 63//51 62//51 55//51 56//51
f 56//52 49//52 47//52 54//52
f 50//53 58//53 51//53
f 76//54 69//54 70//54 77//54
f 69//55 62//55 63//55 70//55
f 74//56 67//56 69//56 76//56
f 58//57 64//57 65//57
f 60//58 57//58 50//58 53//58
f 75//59 68//59 66//59 73//59
f 68//60 61//60 59//60 66//60
f 72//61 73//61 66//61 65//61
f 74//62 71//62 64//62 67//62
f 77//63 70//63 68//63 75//63
f 67//64 60//64 62//64 69//64
f 67//65 64//65 57//65 60//65
f 65//66 71//66 72//66
f 70//67 63//67 61//67 68//67
f 74//68 174//68 71//68
f 79//69 80//69 78//69
f 80//70 83//70 82//70
f 82//71 85//71 84//71
f 85//72 86//72 84//72
f 86//73 89//73 88//73
f 89//74 90//74 88//74
f 91//75 92//75 90//75
f 92//76 79//76 78//76
f 83//77 95//77 96//77
f 89//78 98//78 99//78
f 93//79 94//79 79//79
f 79//80 95//80 81//80
f 85//81 96//81 97//81
f 89//82 100//82 91//82
f 87//83 97//83 98//83
f 91//84 101//84 93//84
f 99//85 108//85 100//85
f 98//86 105//86 106//86
f 96//87 103//87 104//87
f 100//88 109//88 101//88
f 99//89 106//89 107//89
f 97//90 104//90 105//90
f 94//91 103//91 95//91
f 101//92 102//92 94//92
f 102//93 111//93 103//93
f 109//94 110//94 102//94
f 107//95 116//95 108//95
f 106//96 113//96 114//96
f 104//97 111//97 112//97
f 108//98 117//98 109//98
f 107//99 114//99 115//99
f 105//100 112//100 113//100
f 116//101 125//101 117//101
f 115//102 122//102 123//102
f 113//103 120//103 121//103
f 110//104 119//104 111//104
f 117//105 118//105 110//105
f 115//106 124//106 116//106
f 114//107 121//107 122//107
f 112//108 119//108 120//108
f 127//109 128//109 126//109
f 128//110 131//110 130//110
f 130//111 133//111 132//111
f 133//112 134//112 132//112
f 134//113 137//113 136//113
f 137//114 138//114 136//114
f 139//115 140//115 138//115
f 140//116 127//116 126//116
f 131//117 143//117 144//117
f 137//118 146//118 147//118
f 141//119 142//119 127//119
f 127//120 143//120 129//120
f 133//121 144//121 145//121
f 137//122 148//122 139//122
f 135//123 145//123 146//123
f 139//124 149//124 141//124
f 147//125 156//125 148//125
f 146//126 153//126 154//126
f 144//127 151//127 152//127
f 148//128 157//128 149//128
f 147//129 154//129 155//129
f 145//130 152//130 153//130
f 142//131 151//131 143//131
f 149//132 150//132 142//132
f 150//133 159//133 151//133
f 157//134 158//134 150//134
f 155//135 164//135 156//135
f 154//136 161//136 162//136
f 152//137 159//137 160//137
f 156//138 165//138 157//138
f 155//139 162//139 163//139
f 153//140 160//140 161//140
f 164//141 173//141 165//141
f 163//142 170//142 171//142
f 161//143 168//143 169//143
f 158//144 167//144 159//144
f 165//145 166//145 158//145
f 163//146 172//146 164//146
f 162//147 169//147 170//147
f 160//148 167//148 168//148
f 4//149 6//149 13//149
f 1//150 4//150 11//150
f 1//151 8//151 9//151
f 13//152 20//152 18//152
f 11//153 18//153 15//153
f 8//154 15//154 16//154
f 15//155 22//155 23//155
f 22//156 29//156 30//156
f 29//157 36//157 37//157
f 42//36 49//36 48//36
f 36//39 43//39 44//39
f 44//158 43//158 50//158
f 50//159 57//159 58//159
f 58//57 57//57 64//57
f 65//66 64//66 71//66
f 75//160 174//160 77//160
f 73//161 174//161 75//161
f 72//162 174//162 73//162
f 72//163 71//163 174//163
f 79//69 81//69 80//69
f 80//70 81//70 83//70
f 82//71 83//71 85//71
f 85//72 87//72 86//72
f 86//164 87//164 89//164
f 89//74 91//74 90//74
f 91//75 93//75 92//75
f 92//76 93//76 79//76
f 83//77 81//77 95//77
f 89//78 87//78 98//78
f 93//165 101//165 94//165
f 79//80 94//80 95//80
f 85//81 83//81 96//81
f 89//82 99//82 100//82
f 87//83 85//83 97//83
f 91//84 100//84 101//84
f 99//85 107//85 108//85
f 98//86 97//86 105//86
f 96//87 95//87 103//87
f 100//88 108//88 109//88
f 99//89 98//89 106//89
f 97//90 96//90 104//90
f 94//91 102//91 103//91
f 101//92 109//92 102//92
f 102//166 110//166 111//166
f 109//94 117//94 110//94
f 107//95 115//95 116//95
f 106//96 105//96 113//96
f 104//97 103//97 111//97
f 108//98 116//98 117//98
f 107//99 106//99 114//99
f 105//100 104//100 112//100
f 116//167 124//167 125//167
f 115//168 114//168 122//168
f 113//103 112//103 120//103
f 110//104 118//104 119//104
f 117//105 125//105 118//105
f 115//106 123//106 124//106
f 114//107 113//107 121//107
f 112//108 111//108 119//108
f 127//109 129//109 128//109
f 128//110 129//110 131//110
f 130//111 131//111 133//111
f 133//112 135//112 134//112
f 134//113 135//113 137//113
f 137//114 139//114 138//114
f 139//115 141//115 140//115
f 140//116 141//116 127//116
f 131//117 129//117 143//117
f 137//169 135//169 146//169
f 141//119 149//119 142//119
f 127//120 142//120 143//120
f 133//121 131//121 144//121
f 137//170 147//170 148//170
f 135//123 133//123 145//123
f 139//124 148//124 149//124
f 147//125 155//125 156//125
f 146//126 145//126 153//126
f 144//127 143//127 151//127
f 148//128 156//128 157//128
f 147//129 146//129 154//129
f 145//130 144//130 152//130
f 142//131 150//131 151//131
f 149//132 157//132 150//132
f 150//133 158//133 159//133
f 157//171 165//171 158//171
f 155//172 163//172 164//172
f 154//136 153//136 161//136
f 152//137 151//137 159//137
f 156//138 164//138 165//138
f 155//139 154//139 162//139
f 153//173 152//173 160//173
f 164//141 172//141 173//141
f 163//142 162//142 170//142
f 161//143 160//143 168//143
f 158//144 166//144 167//144
f 165//145 173//145 166//145
f 163//146 171//146 172//146
f 162//147 161//147 169//147
f 160//148 159//148 167//148
f 76//174 174//174 74//174
f 77//175 174//175 76//175
f 17//176 19//176 12//176 10//176
f 10//177 3//177 2//177 9//177
f 26//178 28//178 21//178 19//178
