# Blender 4.0.1
# www.blender.org
o pillar
v -8.000004 0.249999 -17.000000 0.4000 0.4000 0.3804
v -8.000000 8.229999 -17.000000 0.4000 0.4000 0.3804
v -8.000004 0.249998 -23.000000 0.4000 0.4000 0.3804
v -8.000000 8.229998 -23.000000 0.4000 0.4000 0.3804
v -2.000004 0.249999 -17.000000 0.4000 0.4000 0.3804
v -2.000000 8.229999 -17.000000 0.4000 0.4000 0.3804
v -2.000004 0.249998 -23.000000 0.4000 0.4000 0.3804
v -2.000000 8.229998 -23.000000 0.4000 0.4000 0.3804
v 11.999996 0.249999 -17.000000 0.4000 0.4000 0.3804
v 12.000000 8.229999 -17.000000 0.4000 0.4000 0.3804
v 11.999996 0.249998 -23.000000 0.4000 0.4000 0.3804
v 12.000000 8.229998 -23.000000 0.4000 0.4000 0.3804
v 17.999996 0.249999 -17.000000 0.4000 0.4000 0.3804
v 18.000000 8.229999 -17.000000 0.4000 0.4000 0.3804
v 17.999996 0.249998 -23.000000 0.4000 0.4000 0.3804
v 18.000000 8.229998 -23.000000 0.4000 0.4000 0.3804
v 31.999996 0.249999 -17.000000 0.4000 0.4000 0.3804
v 32.000000 8.229999 -17.000000 0.4000 0.4000 0.3804
v 31.999996 0.249998 -23.000000 0.4000 0.4000 0.3804
v 32.000000 8.229998 -23.000000 0.4000 0.4000 0.3804
v 37.999996 0.249999 -17.000000 0.4000 0.4000 0.3804
v 38.000000 8.229999 -17.000000 0.4000 0.4000 0.3804
v 37.999996 0.249998 -23.000000 0.4000 0.4000 0.3804
v 38.000000 8.229998 -23.000000 0.4000 0.4000 0.3804
v 51.999996 0.249999 -17.000000 0.4000 0.4000 0.3804
v 52.000000 8.229999 -17.000000 0.4000 0.4000 0.3804
v 51.999996 0.249998 -23.000000 0.4000 0.4000 0.3804
v 52.000000 8.229998 -23.000000 0.4000 0.4000 0.3804
v 57.999996 0.249999 -17.000000 0.4000 0.4000 0.3804
v 58.000000 8.229999 -17.000000 0.4000 0.4000 0.3804
v 57.999996 0.249998 -23.000000 0.4000 0.4000 0.3804
v 58.000000 8.229998 -23.000000 0.4000 0.4000 0.3804
v 72.000000 0.249999 -17.000000 0.4000 0.4000 0.3804
v 72.000000 8.229999 -17.000000 0.4000 0.4000 0.3804
v 72.000000 0.249998 -23.000000 0.4000 0.4000 0.3804
v 72.000000 8.229998 -23.000000 0.4000 0.4000 0.3804
v 78.000000 0.249999 -17.000000 0.4000 0.4000 0.3804
v 78.000000 8.229999 -17.000000 0.4000 0.4000 0.3804
v 78.000000 0.249998 -23.000000 0.4000 0.4000 0.3804
v 78.000000 8.229998 -23.000000 0.4000 0.4000 0.3804
v 92.000000 0.249999 -17.000000 0.4000 0.4000 0.3804
v 92.000000 8.229999 -17.000000 0.4000 0.4000 0.3804
v 92.000000 0.249998 -23.000000 0.4000 0.4000 0.3804
v 92.000000 8.229998 -23.000000 0.4000 0.4000 0.3804
v 98.000000 0.249999 -17.000000 0.4000 0.4000 0.3804
v 98.000000 8.229999 -17.000000 0.4000 0.4000 0.3804
v 98.000000 0.249998 -23.000000 0.4000 0.4000 0.3804
v 98.000000 8.229998 -23.000000 0.4000 0.4000 0.3804
v 112.000000 0.249999 -17.000000 0.4000 0.4000 0.3804
v 112.000000 8.229999 -17.000000 0.4000 0.4000 0.3804
v 112.000000 0.249998 -23.000000 0.4000 0.4000 0.3804
v 112.000000 8.229998 -23.000000 0.4000 0.4000 0.3804
v 118.000000 0.249999 -17.000000 0.4000 0.4000 0.3804
v 118.000000 8.229999 -17.000000 0.4000 0.4000 0.3804
v 118.000000 0.249998 -23.000000 0.4000 0.4000 0.3804
v 118.000000 8.229998 -23.000000 0.4000 0.4000 0.3804
v 132.000000 0.249999 -17.000000 0.4000 0.4000 0.3804
v 132.000000 8.229999 -17.000000 0.4000 0.4000 0.3804
v 132.000000 0.249998 -23.000000 0.4000 0.4000 0.3804
v 132.000000 8.229998 -23.000000 0.4000 0.4000 0.3804
v 138.000000 0.249999 -17.000000 0.4000 0.4000 0.3804
v 138.000000 8.229999 -17.000000 0.4000 0.4000 0.3804
v 138.000000 0.249998 -23.000000 0.4000 0.4000 0.3804
v 138.000000 8.229998 -23.000000 0.4000 0.4000 0.3804
v 152.000000 0.249999 -17.000000 0.4000 0.4000 0.3804
v 152.000000 8.229999 -17.000000 0.4000 0.4000 0.3804
v 152.000000 0.249998 -23.000000 0.4000 0.4000 0.3804
v 152.000000 8.229998 -23.000000 0.4000 0.4000 0.3804
v 158.000000 0.249999 -17.000000 0.4000 0.4000 0.3804
v 158.000000 8.229999 -17.000000 0.4000 0.4000 0.3804
v 158.000000 0.249998 -23.000000 0.4000 0.4000 0.3804
v 158.000000 8.229998 -23.000000 0.4000 0.4000 0.3804
vn -1.0000 -0.0000 -0.0000
vn -0.0000 -0.0000 -1.0000
vn 1.0000 -0.0000 -0.0000
vn -0.0000 -0.0000 1.0000
s 0
f 1//1 2//1 4//1 3//1
f 3//2 4//2 8//2 7//2
f 7//3 8//3 6//3 5//3
f 5//4 6//4 2//4 1//4
f 9//1 10//1 12//1 11//1
f 11//2 12//2 16//2 15//2
f 15//3 16//3 14//3 13//3
f 13//4 14//4 10//4 9//4
f 17//1 18//1 20//1 19//1
f 19//2 20//2 24//2 23//2
f 23//3 24//3 22//3 21//3
f 21//4 22//4 18//4 17//4
f 25//1 26//1 28//1 27//1
f 27//2 28//2 32//2 31//2
f 31//3 32//3 30//3 29//3
f 29//4 30//4 26//4 25//4
f 33//1 34//1 36//1 35//1
f 35//2 36//2 40//2 39//2
f 39//3 40//3 38//3 37//3
f 37//4 38//4 34//4 33//4
f 41//1 42//1 44//1 43//1
f 43//2 44//2 48//2 47//2
f 47//3 48//3 46//3 45//3
f 45//4 46//4 42//4 41//4
f 49//1 50//1 52//1 51//1
f 51//2 52//2 56//2 55//2
f 55//3 56//3 54//3 53//3
f 53//4 54//4 50//4 49//4
f 57//1 58//1 60//1 59//1
f 59//2 60//2 64//2 63//2
f 63//3 64//3 62//3 61//3
f 61//4 62//4 58//4 57//4
f 65//1 66//1 68//1 67//1
f 67//2 68//2 72//2 71//2
f 71//3 72//3 70//3 69//3
f 69//4 70//4 66//4 65//4
o bridge
v 143.000000 10.249998 -30.000000 0.3490 0.3490 0.3490
v 163.000000 10.249998 -30.000000 0.3490 0.3490 0.3490
v 143.000000 10.249999 -10.000001 0.3490 0.3490 0.3490
v 163.000000 10.249999 -10.000001 0.3490 0.3490 0.3490
v -11.000000 10.249998 -30.000000 0.3490 0.3490 0.3490
v -11.000000 10.249999 -10.000001 0.3490 0.3490 0.3490
v 163.000000 0.249995 -61.000000 0.3490 0.3490 0.3490
v 143.000000 0.249995 -61.000000 0.3490 0.3490 0.3490
v 163.000000 8.249999 -10.000001 0.3490 0.3490 0.3490
v 143.000000 8.249999 -10.000001 0.3490 0.3490 0.3490
v 163.000000 8.249998 -30.000000 0.3490 0.3490 0.3490
v 143.000000 8.249998 -30.000000 0.3490 0.3490 0.3490
v -11.000000 8.249998 -30.000000 0.3490 0.3490 0.3490
v -11.000000 8.249999 -10.000001 0.3490 0.3490 0.3490
v 163.000000 -1.750005 -61.000000 0.3490 0.3490 0.3490
v 143.000000 -1.750005 -61.000000 0.3490 0.3490 0.3490
v -11.000000 10.249999 -10.000001 0.3490 0.3490 0.3490
v -11.000000 10.249999 -13.000001 0.3490 0.3490 0.3490
v -11.000000 10.249999 -18.000000 0.3490 0.3490 0.3490
v -11.000000 10.249999 -16.000000 0.3490 0.3490 0.3490
v -11.000000 10.249998 -20.000000 0.3490 0.3490 0.3490
v -13.000000 10.249999 -11.500001 0.3490 0.3490 0.3490
v -12.000000 10.249999 -15.000001 0.3490 0.3490 0.3490
v -13.000000 10.249999 -16.500000 0.3490 0.3490 0.3490
v -12.000000 10.249998 -19.000000 0.3490 0.3490 0.3490
v -11.000000 10.249998 -20.000000 0.3490 0.3490 0.3490
v -11.000000 10.249998 -23.000000 0.3490 0.3490 0.3490
v -11.000000 10.249998 -28.000000 0.3490 0.3490 0.3490
v -11.000000 10.249998 -26.000000 0.3490 0.3490 0.3490
v -11.000000 10.249998 -30.000000 0.3490 0.3490 0.3490
v -13.000000 10.249998 -21.500000 0.3490 0.3490 0.3490
v -12.000000 10.249998 -25.000000 0.3490 0.3490 0.3490
v -13.000000 10.249998 -26.500000 0.3490 0.3490 0.3490
v -12.000000 10.249998 -29.000000 0.3490 0.3490 0.3490
v -11.000000 8.249999 -10.000001 0.3490 0.3490 0.3490
v -11.000000 8.249999 -13.000001 0.3490 0.3490 0.3490
v -11.000000 8.249999 -18.000000 0.3490 0.3490 0.3490
v -11.000000 8.249999 -16.000000 0.3490 0.3490 0.3490
v -11.000000 8.249998 -20.000000 0.3490 0.3490 0.3490
v -13.000000 8.249999 -11.500001 0.3490 0.3490 0.3490
v -12.000000 8.249999 -15.000001 0.3490 0.3490 0.3490
v -13.000000 8.249999 -16.500000 0.3490 0.3490 0.3490
v -12.000000 8.249998 -19.000000 0.3490 0.3490 0.3490
v -11.000000 8.249998 -20.000000 0.3490 0.3490 0.3490
v -11.000000 8.249998 -23.000000 0.3490 0.3490 0.3490
v -11.000000 8.249998 -28.000000 0.3490 0.3490 0.3490
v -11.000000 8.249998 -26.000000 0.3490 0.3490 0.3490
v -11.000000 8.249998 -30.000000 0.3490 0.3490 0.3490
v -13.000000 8.249998 -21.500000 0.3490 0.3490 0.3490
v -12.000000 8.249998 -25.000000 0.3490 0.3490 0.3490
v -13.000000 8.249998 -26.500000 0.3490 0.3490 0.3490
v -12.000000 8.249998 -29.000000 0.3490 0.3490 0.3490
vn -0.0000 1.0000 -0.0000
vn -0.0000 0.9517 -0.3070
vn -1.0000 -0.0000 -0.0000
vn -0.0000 -0.0000 -1.0000
vn 1.0000 -0.0000 -0.0000
vn -0.0000 -0.0000 1.0000
vn -0.0000 -0.9517 0.3070
vn -0.0000 -1.0000 -0.0000
vn -0.6000 -0.0000 0.8000
vn -0.7071 -0.0000 0.7071
vn -0.2425 -0.0000 0.9701
vn -0.6000 -0.0000 -0.8000
vn -0.7071 -0.0000 -0.7071
vn -0.8944 -0.0000 0.4472
s 0
f 74//5 73//5 75//5 76//5
f 75//5 73//5 77//5 78//5
f 79//6 80//6 73//6 74//6
f 73//7 80//7 88//7 84//7
f 77//8 73//8 84//8 85//8
f 74//9 76//9 81//9 83//9
f 76//10 75//10 82//10 81//10
f 75//10 78//10 86//10 82//10
f 79//9 74//9 83//9 87//9
f 83//11 84//11 88//11 87//11
f 81//12 86//12 85//12 83//12
f 89//5 90//5 94//5
f 90//5 92//5 95//5
f 92//5 91//5 96//5
f 91//5 93//5 97//5
f 98//5 99//5 103//5
f 99//5 101//5 104//5
f 101//5 100//5 105//5
f 100//5 102//5 106//5
f 98//13 103//13 121//13 116//13
f 91//14 97//14 115//14 109//14
f 101//15 105//15 123//15 119//15
f 94//16 90//16 108//16 112//16
f 95//17 92//17 110//17 113//17
f 99//18 104//18 122//18 117//18
f 89//13 94//13 112//13 107//13
f 105//16 100//16 118//16 123//16
f 92//15 96//15 114//15 110//15
f 106//17 102//17 120//17 124//17
f 90//18 95//18 113//18 108//18
f 100//14 106//14 124//14 118//14
f 96//16 91//16 109//16 114//16
f 103//16 99//16 117//16 121//16
f 104//17 101//17 119//17 122//17
f 97//17 93//17 111//17 115//17
f 114//12 109//12 110//12
f 113//12 110//12 108//12
f 112//12 108//12 107//12
f 115//12 111//12 109//12
f 121//12 117//12 116//12
f 122//12 119//12 117//12
f 123//12 118//12 119//12
f 124//12 120//12 118//12
