# Blender 3.6.2
# www.blender.org
o church_basement
v -148.746475 1.181904 30.604570 0.4745 0.4745 0.4745
v -148.746475 1.181904 36.707561 0.4745 0.4745 0.4745
v -137.120819 1.195681 30.604570 0.4745 0.4745 0.4745
v -137.120819 1.195681 36.707561 0.4745 0.4745 0.4745
v -148.725037 -3.686138 30.604570 0.4745 0.4745 0.4745
v -148.725037 -3.686138 36.707561 0.4745 0.4745 0.4745
v -155.394363 -3.255589 30.604570 0.4745 0.4745 0.4745
v -155.394363 -3.255589 36.707561 0.4745 0.4745 0.4745
v -155.388565 -8.086466 30.604572 0.4745 0.4745 0.4745
v -155.388565 -8.086466 36.707561 0.4745 0.4745 0.4745
v -160.764313 -3.255589 30.604570 0.4745 0.4745 0.4745
v -160.764313 -3.255589 36.707561 0.4745 0.4745 0.4745
v -160.758514 -8.086466 30.604572 0.4745 0.4745 0.4745
v -160.758514 -8.086466 36.707561 0.4745 0.4745 0.4745
v -155.357559 -11.566660 9.935677 0.4745 0.4745 0.4745
v -155.388565 -16.397537 9.935677 0.4745 0.4745 0.4745
v -160.789383 -11.566660 9.935677 0.4745 0.4745 0.4745
v -160.758514 -16.397537 9.935677 0.4745 0.4745 0.4745
v -180.389801 -16.397537 9.935677 0.4745 0.4745 0.4745
v -135.757278 -16.397537 9.935677 0.4745 0.4745 0.4745
v -155.388565 -16.397537 -30.933342 0.4745 0.4745 0.4745
v -160.758514 -16.397537 -30.933342 0.4745 0.4745 0.4745
v -180.389801 -16.397537 -30.933342 0.4745 0.4745 0.4745
v -135.757278 -16.397537 -30.933342 0.4745 0.4745 0.4745
v -155.388565 -5.344952 9.935677 0.4745 0.4745 0.4745
v -160.758514 -5.344952 9.935677 0.4745 0.4745 0.4745
v -180.389801 -5.344952 9.935677 0.4745 0.4745 0.4745
v -135.757278 -5.344952 9.935677 0.4745 0.4745 0.4745
v -155.388565 -5.344952 -30.933342 0.4745 0.4745 0.4745
v -160.758514 -5.344952 -30.933342 0.4745 0.4745 0.4745
v -180.389801 -5.344952 -30.933342 0.4745 0.4745 0.4745
v -135.757278 -5.344952 -30.933342 0.4745 0.4745 0.4745
vn -0.0000 -0.0000 -1.0000
vn -0.0000 -0.0000 1.0000
vn -0.3878 0.9218 -0.0000
vn -0.5511 0.8345 -0.0000
vn 0.5552 -0.8317 -0.0000
vn 1.0000 0.0012 -0.0000
vn -0.0000 -1.0000 -0.0000
vn -0.0000 1.0000 -0.0000
vn -0.0000 0.9278 -0.3731
vn -0.0000 -0.9278 0.3731
vn 1.0000 0.0012 -0.0017
vn -1.0000 -0.0012 -0.0013
vn 1.0000 -0.0000 -0.0000
vn -1.0000 -0.0000 -0.0000
vn 1.0000 0.0064 -0.0026
vn -1.0000 0.0064 -0.0026
s 0
f 4//1 6//1 2//1
f 3//2 1//2 5//2
f 6//1 8//1 2//1
f 5//2 7//2 9//2
f 5//3 4//3 3//3
f 5//4 10//4 6//4
f 7//5 2//5 8//5
f 8//1 14//1 12//1
f 11//6 14//6 13//6
f 12//7 7//7 8//7
f 9//8 14//8 10//8
f 9//9 18//9 13//9
f 7//10 17//10 15//10
f 13//11 17//11 11//11
f 15//12 9//12 7//12
f 20//8 21//8 16//8
f 22//8 19//8 18//8
f 16//8 22//8 18//8
f 19//1 26//1 18//1
f 23//13 27//13 19//13
f 20//14 32//14 24//14
f 22//2 31//2 23//2
f 16//1 28//1 20//1
f 24//2 29//2 21//2
f 21//2 30//2 22//2
f 17//1 25//1 15//1
f 28//7 31//7 32//7
f 6//1 10//1 8//1
f 5//2 1//2 7//2
f 5//3 6//3 4//3
f 5//4 9//4 10//4
f 7//5 1//5 2//5
f 8//1 10//1 14//1
f 11//6 12//6 14//6
f 12//7 11//7 7//7
f 9//8 13//8 14//8
f 9//9 16//9 18//9
f 7//10 11//10 17//10
f 13//15 18//15 17//15
f 15//16 16//16 9//16
f 20//8 24//8 21//8
f 22//8 23//8 19//8
f 16//8 21//8 22//8
f 19//1 27//1 26//1
f 23//13 31//13 27//13
f 20//14 28//14 32//14
f 22//2 30//2 31//2
f 16//1 25//1 28//1
f 24//2 32//2 29//2
f 21//2 29//2 30//2
f 17//1 26//1 25//1
f 28//7 27//7 31//7
