# Blender 3.6.2
# www.blender.org
o statue.001
v 0.324474 -0.556649 0.077814
v 0.002396 0.001206 0.077815
v 0.235615 -0.607952 -0.024790
v -0.086807 -0.049500 -0.024790
v 0.324474 -0.556649 -0.127396
v 0.002051 0.001803 -0.127395
v 0.413332 -0.505346 -0.024791
v 0.090910 0.053105 -0.024790
v 0.391924 -0.673545 0.097389
v 0.211177 -0.610932 -0.027837
v 0.283476 -0.736157 -0.027837
v 0.319625 -0.548319 -0.153062
v 0.391924 -0.673545 -0.153062
v 0.283476 -0.485707 -0.027837
v 0.428073 -0.485707 -0.027837
v 0.500372 -0.610932 -0.027837
v 0.319625 -0.548320 0.097389
v 0.428073 -0.736157 -0.027837
v -0.462459 0.806358 0.077815
v -0.551317 0.755055 -0.024790
v -0.462459 0.806358 -0.127395
v -0.373600 0.857660 -0.024790
vn 0.6124 0.3536 -0.7071
vn 0.5000 -0.8660 -0.0000
vn -0.6124 -0.3536 0.7071
vn -0.6124 -0.3536 -0.7071
vn 0.6124 0.3536 0.7071
vn -0.0000 -0.8944 0.4472
vn -0.7746 0.4472 0.4472
vn -0.0000 -0.8944 -0.4472
vn -0.7746 0.4472 -0.4472
vn 0.7746 -0.4472 -0.4472
vn -0.0000 0.8944 -0.4472
vn 0.7746 -0.4472 0.4472
vn -0.0000 0.8944 0.4472
vn -0.5000 0.8660 -0.0000
s 0
f 8//1 6//1 21//1 22//1
f 1//2 3//2 5//2 7//2
f 1//3 2//3 4//3 3//3
f 3//4 4//4 6//4 5//4
f 5//1 6//1 8//1 7//1
f 7//5 8//5 2//5 1//5
f 18//6 9//6 11//6
f 9//3 17//3 10//3 11//3
f 17//7 14//7 10//7
f 18//8 11//8 13//8
f 11//4 10//4 12//4 13//4
f 10//9 14//9 12//9
f 18//10 13//10 16//10
f 13//1 12//1 15//1 16//1
f 12//11 14//11 15//11
f 18//12 16//12 9//12
f 16//5 15//5 17//5 9//5
f 15//13 14//13 17//13
f 4//3 2//3 19//3 20//3
f 2//5 8//5 22//5 19//5
f 6//4 4//4 20//4 21//4
f 20//14 19//14 22//14 21//14
