# Blender 3.6.2
# www.blender.org
o statue.001
v -0.151783 0.304585 0.168444
v -0.239709 0.003383 0.256369
v -0.210216 -0.285825 0.226877
v 0.196989 0.304585 0.023978
v -0.335968 0.003383 0.023978
v -0.294260 -0.285825 0.023978
v -0.151783 0.304585 -0.120489
v -0.239709 0.003383 -0.208414
v -0.210216 -0.285825 -0.178922
v -0.007317 0.304585 -0.180328
v -0.007317 0.003383 -0.267341
v -0.007317 -0.285825 -0.227136
v 0.137149 0.304585 -0.120489
v 0.225075 0.003383 -0.208414
v 0.195583 -0.285825 -0.178922
v -0.007317 -0.466907 0.199723
v 0.321335 0.003383 0.023978
v 0.279626 -0.285825 0.023978
v 0.137149 0.304585 0.168444
v 0.225075 0.003383 0.256369
v 0.195583 -0.285825 0.226877
v -0.007317 0.426378 0.023978
v -0.007317 0.304585 0.228284
v -0.007317 0.003383 0.325202
v -0.007317 -0.285825 0.286743
v 0.116954 -0.466907 0.148248
v 0.168428 -0.466907 0.023978
v 0.116954 -0.466907 -0.100293
v -0.007317 -0.466907 -0.151767
v -0.131587 -0.466907 -0.100293
v -0.183062 -0.466907 0.023978
v -0.131587 -0.466907 0.148248
v 0.084814 -0.168124 0.256535
v 0.084814 -0.061614 0.256535
v 0.084814 -0.168124 0.342091
v 0.084814 -0.061614 0.342091
v 0.227712 -0.129326 0.342091
v 0.227712 -0.191863 0.342091
v 0.227712 -0.129326 0.256535
v 0.227712 -0.191863 0.256535
v 0.325738 -0.064691 0.299313
v -0.099448 -0.168124 0.342091
v -0.099448 -0.061614 0.342091
v -0.099448 -0.168124 0.256535
v -0.099448 -0.061614 0.256535
v -0.242346 -0.129326 0.256535
v -0.242346 -0.191863 0.256535
v -0.242346 -0.129326 0.342091
v -0.242346 -0.191863 0.342091
v -0.340371 -0.064691 0.299313
v -0.211623 0.304585 0.023978
vn -0.2638 -0.4254 -0.8657
vn -0.3061 0.3198 0.8967
vn -0.2813 -0.1261 0.9513
vn -0.2075 0.8403 0.5009
vn 0.2878 -0.4493 0.8457
vn -0.9158 -0.1321 0.3793
vn 0.2638 -0.4254 -0.8657
vn -0.9158 -0.1321 -0.3793
vn -0.8036 -0.4935 -0.3328
vn -0.2862 0.3055 -0.9082
vn -0.2370 -0.1281 -0.9630
vn -0.2075 0.8403 -0.5009
vn 0.8036 -0.4935 -0.3328
vn 0.2862 0.3055 -0.9082
vn 0.2370 -0.1281 -0.9630
vn 0.2075 0.8403 -0.5009
vn -0.8036 -0.4935 0.3328
vn 0.9158 -0.1321 -0.3793
vn 0.9158 -0.1321 0.3793
vn -0.2878 -0.4493 0.8457
vn 0.2813 -0.1261 0.9513
vn 0.2075 0.8403 0.5009
vn 0.8036 -0.4935 0.3328
vn 0.3062 0.3198 0.8967
vn -0.0000 -0.0000 1.0000
vn 0.7920 -0.6105 -0.0000
vn 0.4282 0.9037 -0.0000
vn -0.0000 -0.0000 -1.0000
vn -0.1639 -0.9865 -0.0000
vn 0.4000 -0.0000 -0.9165
vn -0.5505 0.8349 -0.0000
vn 0.4000 -0.0000 0.9165
vn -0.7920 -0.6105 -0.0000
vn -0.4282 0.9037 -0.0000
vn 0.1639 -0.9865 -0.0000
vn -0.4000 -0.0000 0.9165
vn 0.5505 0.8349 -0.0000
vn -0.4000 -0.0000 -0.9165
vn -0.0000 -1.0000 -0.0000
vn -0.0000 1.0000 -0.0000
vn 0.5009 0.8403 0.2075
vn 0.5009 0.8403 -0.2075
vn 0.8632 0.3564 -0.3576
vn 0.8632 0.3564 0.3576
vn -0.5009 0.8403 0.2075
vn -0.5009 0.8403 -0.2075
vn -0.8632 0.3564 -0.3576
vn -0.8632 0.3564 0.3576
s 0
f 9//1 12//1 29//1 30//1
f 24//2 23//2 1//2 2//2
f 25//3 24//3 2//3 3//3
f 23//4 22//4 1//4
f 21//5 25//5 16//5 26//5
f 3//6 2//6 5//6 6//6
f 12//7 15//7 28//7 29//7
f 6//8 5//8 8//8 9//8
f 6//9 9//9 30//9 31//9
f 8//10 7//10 10//10 11//10
f 9//11 8//11 11//11 12//11
f 7//12 22//12 10//12
f 15//13 18//13 27//13 28//13
f 11//14 10//14 13//14 14//14
f 12//15 11//15 14//15 15//15
f 10//16 22//16 13//16
f 3//17 6//17 31//17 32//17
f 15//18 14//18 17//18 18//18
f 18//19 17//19 20//19 21//19
f 25//20 3//20 32//20 16//20
f 21//21 20//21 24//21 25//21
f 19//22 22//22 23//22
f 18//23 21//23 26//23 27//23
f 20//24 19//24 23//24 24//24
f 36//25 43//25 42//25 35//25
f 38//26 40//26 41//26
f 34//27 36//27 37//27 39//27
f 33//28 34//28 39//28 40//28
f 35//29 33//29 40//29 38//29
f 36//25 35//25 38//25 37//25
f 40//30 39//30 41//30
f 39//31 37//31 41//31
f 37//32 38//32 41//32
f 47//33 49//33 50//33
f 43//34 45//34 46//34 48//34
f 42//25 43//25 48//25 49//25
f 44//35 42//35 49//35 47//35
f 45//28 44//28 47//28 46//28
f 49//36 48//36 50//36
f 48//37 46//37 50//37
f 46//38 47//38 50//38
f 35//39 42//39 44//39 33//39
f 34//40 45//40 43//40 36//40
f 22//41 19//41 4//41
f 13//42 22//42 4//42
f 13//43 4//43 17//43 14//43
f 19//44 20//44 17//44 4//44
f 1//45 22//45 51//45
f 7//46 51//46 22//46
f 7//47 8//47 5//47 51//47
f 1//48 51//48 5//48 2//48
f 26//39 16//39 32//39 31//39 30//39 29//39 28//39 27//39
