# Blender 4.0.1
# www.blender.org
o runner_body.001
v 0.125524 -0.832846 -0.086420
v -0.000929 -0.832035 0.168763
v 0.156279 -0.832846 0.077348
v 0.156279 -0.832846 -0.104176
v -0.000925 -0.832846 -0.194939
v -0.158130 -0.832846 -0.104176
v -0.158130 -0.832846 0.077348
v 0.156277 -0.856431 0.211253
v 0.156279 -0.961931 -0.104176
v -0.000925 -0.961931 -0.194939
v -0.158130 -0.961931 -0.104176
v -0.158130 -0.857115 0.210703
v 0.156279 -0.961931 0.210818
v -0.158130 -0.961931 0.210818
v 0.078305 -0.961729 0.390523
v -0.080156 -0.962074 0.390246
v -0.000920 -0.931028 0.337697
v 0.156279 -0.990713 -0.104176
v -0.000925 -0.990713 -0.194939
v -0.158130 -0.990713 -0.104176
v 0.156279 -0.990713 0.210818
v -0.158130 -0.990713 0.210818
v 0.078305 -0.990511 0.390523
v -0.080156 -0.990856 0.390246
v -0.003616 0.809477 0.137845
v -0.003616 0.803851 -0.197336
v -0.114061 0.811420 -0.123541
v -0.121637 0.805809 0.070664
v -0.000926 0.035201 0.132596
v 0.125524 0.035201 0.059591
v 0.138093 0.810395 0.070664
v 0.125524 -0.048104 -0.086421
v 0.138093 0.804769 -0.123541
v -0.000926 -0.048104 -0.159427
v -0.127375 -0.048104 -0.086421
v -0.127375 0.035201 0.059591
v -0.000926 -0.048598 0.132596
v 0.125524 -0.048598 0.059591
v -0.127375 -0.048599 0.059591
v -0.000926 -0.130914 0.132596
v 0.125524 -0.130914 0.059591
v -0.127375 -0.130914 0.059591
v -0.000925 -0.832846 0.132597
v 0.125524 -0.832846 0.059592
v -0.000925 -0.832846 -0.159426
v -0.127375 -0.832847 -0.086420
v -0.127375 -0.832847 0.059592
vn -0.0026 1.0000 -0.0045
vn 0.0129 0.9997 -0.0224
vn -0.0000 1.0000 -0.0000
vn -0.0079 0.9997 -0.0224
vn -0.5000 -0.0000 -0.8660
vn 0.5000 -0.0000 -0.8660
vn 1.0000 -0.0000 -0.0000
vn -1.0000 -0.0000 -0.0000
vn -0.1085 0.9780 0.1780
vn 1.0000 -0.0001 -0.0000
vn 0.1054 0.9794 0.1725
vn -0.0028 0.8628 0.5056
vn 0.9174 -0.0016 0.3980
vn -0.9171 0.0004 0.3986
vn -0.0017 -0.0000 1.0000
vn -0.0000 -1.0000 -0.0000
vn -0.0026 -1.0000 -0.0000
vn 0.0022 -1.0000 -0.0017
vn 0.0005 -1.0000 0.0005
vn -0.9171 -0.0000 0.3986
vn 0.9174 -0.0000 0.3980
vn 0.4999 -0.0205 0.8658
vn 0.4284 -0.0046 0.9036
vn 0.9999 -0.0144 0.0082
vn 0.9999 -0.0162 0.0005
vn 0.4997 -0.0369 -0.8654
vn 0.4616 -0.0454 -0.8859
vn -0.4998 -0.0296 -0.8656
vn -0.5570 -0.0387 -0.8296
vn -1.0000 0.0075 -0.0043
vn -0.9992 0.0138 -0.0386
vn -0.5000 -0.0076 0.8660
vn -0.4945 -0.0088 0.8691
vn -0.5000 -0.0000 0.8660
vn 0.5000 -0.0000 0.8660
vn -0.0177 0.9997 -0.0151
vn -0.0176 0.9996 -0.0236
vn 0.0086 0.9995 -0.0290
vn 0.0898 0.9954 0.0323
s 0
f 47//1 7//1 2//1
f 47//2 2//2 43//2
f 45//3 5//3 6//3
f 45//3 6//3 46//3
f 44//3 3//3 4//3
f 44//3 4//3 1//3
f 46//3 6//3 7//3
f 46//3 7//3 47//3
f 1//3 4//3 5//3
f 1//3 5//3 45//3
f 43//4 2//4 3//4
f 43//3 3//3 44//3
f 5//5 10//5 11//5
f 5//5 11//5 6//5
f 4//6 9//6 10//6
f 4//6 10//6 5//6
f 4//7 8//7 13//7
f 4//7 13//7 9//7
f 11//8 14//8 12//8
f 11//8 12//8 6//8
f 12//9 2//9 7//9
f 12//8 7//8 6//8
f 4//10 3//10 8//10
f 8//11 3//11 2//11
f 17//12 16//12 15//12
f 8//13 15//13 13//13
f 8//12 2//12 15//12
f 15//12 2//12 17//12
f 17//12 2//12 16//12
f 12//14 14//14 16//14
f 2//12 12//12 16//12
f 16//15 24//15 23//15
f 16//15 23//15 15//15
f 20//16 19//16 18//16
f 18//17 21//17 23//17
f 23//18 24//18 22//18
f 22//16 20//16 18//16
f 18//19 23//19 22//19
f 13//7 21//7 18//7
f 13//7 18//7 9//7
f 14//20 22//20 24//20
f 14//20 24//20 16//20
f 9//6 18//6 19//6
f 9//6 19//6 10//6
f 11//8 20//8 22//8
f 11//8 22//8 14//8
f 15//21 23//21 21//21
f 15//21 21//21 13//21
f 10//5 19//5 20//5
f 10//5 20//5 11//5
f 29//22 30//22 31//22
f 29//23 31//23 25//23
f 30//24 32//24 33//24
f 30//25 33//25 31//25
f 32//26 34//26 26//26
f 32//27 26//27 33//27
f 34//28 35//28 27//28
f 34//29 27//29 26//29
f 35//30 36//30 28//30
f 35//31 28//31 27//31
f 36//32 29//32 25//32
f 36//33 25//33 28//33
f 36//34 39//34 37//34
f 36//34 37//34 29//34
f 30//7 38//7 32//7
f 35//8 39//8 36//8
f 29//35 37//35 38//35
f 29//35 38//35 30//35
f 41//7 44//7 1//7
f 41//7 1//7 32//7
f 37//35 40//35 41//35
f 37//35 41//35 38//35
f 39//34 42//34 40//34
f 39//34 40//34 37//34
f 38//7 41//7 32//7
f 35//8 42//8 39//8
f 35//8 46//8 47//8
f 35//8 47//8 42//8
f 32//6 1//6 45//6
f 32//6 45//6 34//6
f 40//35 43//35 44//35
f 40//35 44//35 41//35
f 42//34 47//34 43//34
f 42//34 43//34 40//34
f 34//5 45//5 46//5
f 34//5 46//5 35//5
f 31//36 26//36 28//36
f 28//37 25//37 31//37
f 31//38 33//38 26//38
f 26//39 27//39 28//39
