# Blender 4.0.1
# www.blender.org
o runner_body.001
v 0.447709 0.640170 0.076438
v 0.440609 0.640026 -0.184429
v 0.445081 0.791103 0.082101
v 0.448322 0.789315 -0.237393
v 0.442979 0.925837 0.060193
v 0.459875 0.932440 -0.155932
v 0.157684 0.043335 0.145905
v 0.170865 0.051899 -0.023574
v 0.065738 0.070915 0.153857
v 0.076938 0.065637 -0.060610
v -0.027108 0.084776 0.118127
v -0.015303 0.104571 -0.017392
v 0.155133 -0.002583 -0.005352
v 0.062088 0.011026 -0.042039
v -0.029284 0.049594 0.000772
v 0.137618 -0.061229 0.014664
v 0.045960 -0.047822 -0.021476
v -0.044050 -0.009830 0.020698
v -0.097826 -0.550760 0.312894
v -0.100528 -0.591388 0.183504
v -0.161587 -0.539689 0.293214
v -0.034481 -0.568193 0.312321
v -0.036644 -0.600732 0.208693
v -0.163264 -0.564908 0.212898
v -0.013129 -0.610596 0.354252
v -0.016396 -0.659741 0.197736
v -0.108262 -0.576126 0.381042
v -0.112883 -0.645629 0.159691
v -0.205103 -0.567545 0.325394
v -0.207636 -0.605634 0.204087
v -0.036809 -0.697558 0.382051
v -0.040076 -0.746702 0.225535
v -0.131942 -0.663087 0.408841
v -0.136563 -0.732590 0.187491
v -0.228784 -0.654506 0.353193
v -0.231316 -0.692595 0.231886
v -0.088661 -0.740781 0.361298
v -0.090583 -0.769693 0.269216
v -0.144630 -0.720501 0.377059
v -0.147349 -0.761391 0.246834
v -0.201604 -0.715453 0.344320
v -0.203093 -0.737861 0.272953
v 0.166807 0.655029 -0.080472
v 0.272103 0.602648 -0.150762
v 0.381195 0.545670 -0.115516
v 0.107304 0.512437 0.080743
v 0.219286 0.468526 0.100026
v 0.323111 0.438584 -0.115346
v 0.114583 0.544954 -0.081260
v 0.217001 0.494005 -0.149628
v 0.317798 0.407072 0.084440
vn -0.1014 0.1718 0.9799
vn -0.3289 0.1843 0.9262
vn -0.5417 0.0380 -0.8397
vn -0.4387 -0.0431 -0.8976
vn -0.9534 0.3012 0.0176
vn -0.9599 0.2769 -0.0432
vn -0.4747 -0.1649 -0.8646
vn -0.9718 0.2303 -0.0510
vn 0.9271 -0.3732 -0.0342
vn 0.9172 -0.3951 0.0514
vn 0.1743 -0.2547 -0.9512
vn 0.3037 -0.3316 -0.8932
vn 0.2020 0.0761 0.9764
vn 0.1127 0.0904 0.9895
vn -0.9731 0.2252 -0.0495
vn 0.2912 -0.3780 -0.8788
vn 0.9642 -0.2577 0.0620
vn -0.9788 0.2032 -0.0271
vn -0.9797 0.1962 -0.0411
vn 0.1483 0.2160 0.9651
vn 0.0719 0.2294 0.9707
vn -0.4763 -0.1709 -0.8625
vn 0.2891 -0.3854 -0.8763
vn 0.9620 -0.2654 0.0643
vn -0.4818 -0.1925 -0.8549
vn -0.3008 0.3099 0.9019
vn -0.2312 0.3085 0.9227
vn 0.2837 -0.4043 -0.8695
vn 0.9565 -0.2810 0.0777
vn 0.9569 -0.2820 0.0686
vn -0.2254 0.4342 -0.8722
vn 0.9307 0.3430 -0.1271
vn 0.0524 0.9333 0.3554
vn -0.1972 0.8574 0.4754
vn 0.3875 0.2951 -0.8733
vn 0.2091 0.7388 0.6406
vn 0.4071 0.8339 0.3727
vn -0.6358 0.7401 -0.2191
vn -0.4706 -0.1498 -0.8695
vn 0.9678 -0.2454 0.0568
vn -0.4354 0.3795 0.8163
vn 0.2954 -0.3630 -0.8838
vn 0.2954 -0.3629 -0.8838
vn 0.3330 0.2036 0.9207
vn -0.9678 0.2454 -0.0568
vn -0.8945 -0.4209 0.1508
vn -0.5176 -0.7290 -0.4479
vn 0.5645 -0.7908 0.2365
vn -0.4915 -0.3361 0.8034
vn 0.0379 -0.9017 -0.4307
vn 0.0380 -0.9017 -0.4307
vn 0.0650 -0.4942 0.8669
vn -0.2511 -0.9220 0.2947
vn -0.2511 -0.9220 0.2948
vn -0.1149 -0.3269 -0.9381
vn -0.0359 -0.5746 -0.8177
vn 0.8385 -0.5444 -0.0225
vn -0.6914 0.7217 -0.0320
vn -0.5878 0.4355 -0.6818
vn -0.5192 0.0960 -0.8493
vn 0.1240 -0.0350 0.9917
vn 0.1330 -0.0380 0.9904
vn 0.2414 -0.1325 -0.9613
vn 0.8768 -0.4757 -0.0696
vn 0.8715 -0.4875 -0.0537
vn -0.7407 0.6149 0.2705
vn -0.9027 0.4279 0.0453
vn -0.4611 0.2249 -0.8584
vn -0.1461 0.1566 0.9768
vn -0.1139 0.1414 0.9834
vn 0.9986 -0.0389 0.0358
vn 0.9995 0.0184 -0.0272
vn 0.9898 -0.1218 0.0737
vn 0.9997 0.0118 -0.0235
s 0
f 46//1 9//1 47//1
f 46//2 11//2 9//2
f 50//3 12//3 49//3
f 50//4 10//4 12//4
f 49//5 11//5 46//5
f 49//6 12//6 11//6
f 10//7 15//7 12//7
f 10//7 14//7 15//7
f 12//8 15//8 11//8
f 51//9 8//9 48//9
f 51//10 7//10 8//10
f 48//11 10//11 50//11
f 48//12 8//12 10//12
f 47//13 7//13 51//13
f 47//14 9//14 7//14
f 15//15 18//15 11//15
f 8//16 14//16 10//16
f 8//16 13//16 14//16
f 7//17 13//17 8//17
f 18//18 21//18 11//18
f 18//19 24//19 21//19
f 9//20 22//20 7//20
f 9//21 19//21 22//21
f 14//22 18//22 15//22
f 14//22 17//22 18//22
f 13//23 17//23 14//23
f 13//23 16//23 17//23
f 7//24 16//24 13//24
f 17//25 24//25 18//25
f 17//25 20//25 24//25
f 11//26 19//26 9//26
f 11//27 21//27 19//27
f 16//28 20//28 17//28
f 16//28 23//28 20//28
f 7//29 23//29 16//29
f 7//30 22//30 23//30
f 20//31 30//31 24//31
f 20//31 28//31 30//31
f 22//32 26//32 23//32
f 22//32 25//32 26//32
f 21//33 27//33 19//33
f 21//34 29//34 27//34
f 23//35 28//35 20//35
f 23//35 26//35 28//35
f 19//36 25//36 22//36
f 19//37 27//37 25//37
f 24//38 29//38 21//38
f 24//38 30//38 29//38
f 28//39 36//39 30//39
f 28//39 34//39 36//39
f 25//40 32//40 26//40
f 25//40 31//40 32//40
f 29//41 33//41 27//41
f 29//41 35//41 33//41
f 26//42 34//42 28//42
f 26//43 32//43 34//43
f 27//44 31//44 25//44
f 27//44 33//44 31//44
f 30//45 35//45 29//45
f 30//45 36//45 35//45
f 36//46 41//46 35//46
f 36//46 42//46 41//46
f 34//47 42//47 36//47
f 34//47 40//47 42//47
f 31//48 38//48 32//48
f 31//48 37//48 38//48
f 35//49 39//49 33//49
f 35//49 41//49 39//49
f 32//50 40//50 34//50
f 32//51 38//51 40//51
f 33//52 37//52 31//52
f 33//52 39//52 37//52
f 37//53 40//53 38//53
f 40//53 41//53 42//53
f 41//54 37//54 39//54
f 40//53 37//53 41//53
f 2//55 44//55 4//55
f 2//56 45//56 44//56
f 1//57 45//57 2//57
f 6//58 43//58 5//58
f 4//59 43//59 6//59
f 4//60 44//60 43//60
f 3//61 51//61 1//61
f 3//62 47//62 51//62
f 45//63 50//63 44//63
f 45//63 48//63 50//63
f 1//64 48//64 45//64
f 1//65 51//65 48//65
f 43//66 46//66 5//66
f 43//67 49//67 46//67
f 44//68 49//68 43//68
f 44//68 50//68 49//68
f 5//69 47//69 3//69
f 5//70 46//70 47//70
f 2//71 4//71 5//71
f 3//72 1//72 2//72
f 4//73 6//73 5//73
f 5//74 3//74 2//74
