# Blender 4.0.1
# www.blender.org
o runner_body.001
v 0.219870 -0.673235 0.175300
v 0.219870 -0.678861 -0.159881
v 0.330315 -0.671292 -0.086086
v 0.337891 -0.676903 0.108119
v -0.237041 -0.673235 0.175300
v -0.237041 -0.678861 -0.159881
v -0.347486 -0.671292 -0.086086
v -0.355062 -0.676903 0.108119
v 0.340916 -0.331361 0.094940
v 0.340916 -0.331361 -0.072906
v 0.215710 -0.331361 -0.156829
v 0.215710 -0.331361 0.178863
v -0.232881 -0.331361 0.178863
v -0.232881 -0.331361 -0.156829
v -0.358087 -0.331361 -0.072906
v -0.358087 -0.331361 0.094940
v 0.320559 0.435356 0.146708
v 0.327659 0.435212 -0.114159
v 0.213476 0.499851 -0.155837
v 0.215115 0.499980 0.180926
v -0.232285 0.499980 0.180926
v -0.230647 0.499851 -0.155837
v -0.363315 0.462246 -0.105859
v -0.371263 0.484243 0.114428
v 0.338379 0.586289 0.152371
v 0.335138 0.584501 -0.167123
v -0.368146 0.564942 -0.152484
v -0.354171 0.562064 0.137322
v 0.337258 0.690667 0.126612
v 0.324774 0.697270 -0.089513
v -0.352656 0.677603 -0.063584
v -0.228574 0.711246 0.174006
v 0.240757 0.706355 -0.151194
v 0.211403 0.711246 0.174006
v -0.260313 0.706356 -0.151194
v 0.052227 0.755518 0.145373
v 0.139916 0.755518 0.061844
v 0.139916 0.755518 -0.056285
v 0.052227 0.755518 -0.139815
v -0.159474 0.755518 0.061844
v -0.071784 0.755518 0.145373
v -0.071784 0.755518 -0.139815
v -0.159474 0.755518 -0.056285
v -0.365936 0.659434 0.116371
v -0.358897 0.313726 0.105392
v -0.232402 0.337847 0.180523
v 0.215231 0.337847 0.180523
v 0.341726 0.313726 0.105392
v 0.338426 0.313388 -0.075627
v 0.213911 0.337743 -0.156031
v -0.355596 0.313388 -0.075628
v -0.231081 0.337743 -0.156031
v -0.358634 0.104118 0.097814
v 0.215386 0.120402 0.179984
v 0.339235 0.103890 -0.070217
v -0.356406 0.103890 -0.070217
v -0.231667 0.120332 -0.156290
v -0.232557 0.120402 0.179984
v 0.341463 0.104118 0.097814
v 0.214496 0.120332 -0.156290
v -0.232343 0.418981 0.180725
v 0.325498 0.386677 0.131274
v 0.213693 0.418864 -0.155934
v -0.356011 0.398754 0.115317
v 0.215172 0.418981 0.180725
v 0.326730 0.391556 -0.086584
v -0.355295 0.391556 -0.086584
v -0.230864 0.418864 -0.155934
vn 0.9988 -0.0296 -0.0398
vn 1.0000 -0.0088 -0.0000
vn -0.0000 -0.0104 0.9999
vn -0.4946 -0.0030 0.8691
vn -0.5566 0.0268 0.8304
vn 0.4952 0.0288 0.8683
vn 0.5568 -0.0019 0.8307
vn -0.5548 0.0150 -0.8319
vn -0.5567 0.0140 -0.8306
vn 0.5548 0.0139 -0.8318
vn 0.5567 0.0148 -0.8306
vn -0.9992 -0.0102 -0.0393
vn -0.9995 -0.0312 -0.0000
vn -0.4673 -0.0019 0.8841
vn -0.4245 -0.0664 0.9030
vn -0.0000 -0.0025 1.0000
vn 0.3326 -0.2542 0.9082
vn 0.3075 -0.0021 0.9516
vn 0.5234 0.0024 -0.8521
vn 0.0062 -0.5341 -0.8454
vn -0.9845 -0.1756 0.0028
vn -0.9926 -0.1191 -0.0239
vn -0.0000 0.0088 -1.0000
vn 0.9998 -0.0180 0.0053
vn 0.9954 0.0924 0.0270
vn -0.4189 -0.2828 -0.8629
vn -0.3530 0.0021 -0.9356
vn -0.4090 -0.1737 0.8959
vn -0.3200 0.0366 0.9467
vn 0.2701 -0.0679 0.9604
vn 0.2018 0.0356 0.9788
vn 0.3754 0.2259 0.8989
vn 0.1484 -0.3372 -0.9296
vn -0.2166 -0.4120 -0.8851
vn -0.0147 0.0204 -0.9997
vn -0.1185 0.0380 -0.9922
vn 0.5445 0.5089 -0.6667
vn -0.6689 0.5150 -0.5361
vn -0.0000 0.0327 0.9995
vn -0.0000 0.5431 0.8397
vn 0.2216 0.9470 0.2326
vn 0.2381 0.9456 0.2215
vn 0.3122 0.9500 -0.0000
vn 0.3024 0.9531 0.0117
vn 0.2585 0.9421 -0.2134
vn 0.2311 0.9422 -0.2426
vn -0.0000 0.0012 -1.0000
vn -0.2311 0.9422 -0.2426
vn -0.3699 0.9251 -0.0862
vn -0.3933 0.9119 0.1176
vn -0.3754 0.9245 0.0656
vn -0.2241 0.9458 0.2352
vn -0.4219 0.9066 -0.0000
vn -0.4277 0.1405 0.8930
vn -0.5661 -0.0191 -0.8241
vn -0.5428 0.0025 -0.8399
vn 0.9999 0.0035 -0.0133
vn 0.9998 -0.0006 -0.0182
vn -0.9999 -0.0008 -0.0133
vn -0.9998 0.0034 -0.0182
vn 0.5682 0.0025 -0.8229
vn 0.5396 -0.0197 -0.8417
vn 0.5429 -0.0310 0.8392
vn 0.5104 -0.0018 0.8599
vn -0.5459 -0.0017 0.8379
vn -0.5059 -0.0318 0.8620
vn -0.5568 -0.0017 0.8307
vn -0.5454 -0.0062 0.8381
vn 0.5568 -0.0062 0.8306
vn 0.5459 -0.0017 0.8379
vn 0.5568 0.0025 -0.8307
vn 0.5686 0.0073 -0.8226
vn -1.0000 -0.0013 -0.0000
vn -0.9999 0.0039 -0.0133
vn 1.0000 0.0039 -0.0000
vn 0.9999 -0.0012 -0.0133
vn -0.5568 0.0073 -0.8306
vn -0.5682 0.0025 -0.8229
vn -0.0000 0.2255 -0.9742
vn -0.0000 0.0225 -0.9997
vn -0.5226 -0.1164 -0.8446
vn -0.4872 0.0023 -0.8733
vn 0.9892 0.1454 -0.0183
vn 0.9769 0.2136 0.0103
vn -0.9992 0.0360 -0.0183
vn -1.0000 0.0033 -0.0037
vn 0.5428 0.0025 -0.8399
vn 0.5149 -0.0430 -0.8562
vn 0.4720 -0.1997 0.8587
vn 0.4085 -0.0020 0.9127
vn -0.5104 -0.0018 0.8599
vn -0.4544 -0.0880 0.8864
vn -0.9995 0.0304 -0.0025
vn 0.9978 -0.0640 0.0159
vn -0.0000 1.0000 -0.0000
vn -0.9825 0.1781 -0.0545
vn -0.9977 -0.0605 -0.0300
vn -0.4319 0.0031 0.9019
vn 0.9988 -0.0404 0.0272
vn 0.9904 0.1277 -0.0533
vn 0.9070 -0.0917 -0.4109
vn 0.0117 -0.9999 0.0125
vn -0.0464 -0.9986 -0.0270
vn -0.0000 -0.9985 0.0545
vn -0.0898 -0.9954 -0.0323
vn -0.0000 -0.9948 0.1020
vn 0.0069 -1.0000 -0.0045
s 0
f 4//1 3//1 10//1
f 4//2 10//2 9//2
f 1//3 12//3 13//3
f 1//3 13//3 5//3
f 8//4 5//4 13//4
f 8//5 13//5 16//5
f 1//6 4//6 9//6
f 1//7 9//7 12//7
f 6//8 7//8 15//8
f 6//9 15//9 14//9
f 3//10 2//10 11//10
f 3//11 11//11 10//11
f 7//12 8//12 16//12
f 7//13 16//13 15//13
f 64//14 61//14 21//14
f 64//15 21//15 24//15
f 65//16 20//16 21//16
f 65//16 21//16 61//16
f 65//17 62//17 17//17
f 65//18 17//18 20//18
f 66//19 63//19 19//19
f 66//20 19//20 18//20
f 67//21 64//21 24//21
f 67//22 24//22 23//22
f 14//23 11//23 2//23
f 14//23 2//23 6//23
f 62//24 66//24 18//24
f 62//25 18//25 17//25
f 68//26 67//26 23//26
f 68//27 23//27 22//27
f 24//28 21//28 28//28
f 28//29 21//29 32//29
f 17//30 25//30 20//30
f 34//31 20//31 25//31
f 25//32 29//32 34//32
f 19//33 26//33 18//33
f 23//34 27//34 22//34
f 35//35 22//35 27//35
f 19//36 33//36 26//36
f 26//37 33//37 30//37
f 27//38 31//38 35//38
f 20//39 34//39 32//39
f 20//39 32//39 21//39
f 32//40 34//40 36//40
f 32//40 36//40 41//40
f 36//41 34//41 37//41
f 34//42 29//42 37//42
f 37//43 29//43 38//43
f 29//44 30//44 38//44
f 33//45 38//45 30//45
f 38//46 33//46 39//46
f 57//47 60//47 11//47
f 57//47 11//47 14//47
f 42//48 35//48 43//48
f 35//49 31//49 43//49
f 32//50 40//50 44//50
f 44//51 43//51 31//51
f 41//52 40//52 32//52
f 44//53 40//53 43//53
f 28//54 32//54 44//54
f 57//55 56//55 51//55
f 57//56 51//56 52//56
f 59//57 55//57 49//57
f 59//58 49//58 48//58
f 63//47 68//47 22//47
f 63//47 22//47 19//47
f 56//59 53//59 45//59
f 56//60 45//60 51//60
f 55//61 60//61 50//61
f 55//62 50//62 49//62
f 54//63 59//63 48//63
f 54//64 48//64 47//64
f 54//16 47//16 46//16
f 54//16 46//16 58//16
f 53//65 58//65 46//65
f 53//66 46//66 45//66
f 16//67 13//67 58//67
f 16//68 58//68 53//68
f 12//16 54//16 58//16
f 12//16 58//16 13//16
f 12//69 9//69 59//69
f 12//70 59//70 54//70
f 10//71 11//71 60//71
f 10//72 60//72 55//72
f 15//73 16//73 53//73
f 15//74 53//74 56//74
f 9//75 10//75 55//75
f 9//76 55//76 59//76
f 14//77 15//77 56//77
f 14//78 56//78 57//78
f 39//79 33//79 35//79
f 39//79 35//79 42//79
f 60//47 57//47 52//47
f 60//47 52//47 50//47
f 35//80 33//80 19//80
f 35//80 19//80 22//80
f 52//81 51//81 67//81
f 52//82 67//82 68//82
f 48//83 49//83 66//83
f 48//84 66//84 62//84
f 68//47 63//47 50//47
f 68//47 50//47 52//47
f 51//85 45//85 64//85
f 51//86 64//86 67//86
f 49//87 50//87 63//87
f 49//88 63//88 66//88
f 47//89 48//89 62//89
f 47//90 62//90 65//90
f 47//16 65//16 61//16
f 47//16 61//16 46//16
f 45//91 46//91 61//91
f 45//92 61//92 64//92
f 27//93 24//93 44//93
f 26//94 29//94 17//94
f 39//95 43//95 41//95
f 44//96 31//96 27//96
f 27//97 23//97 24//97
f 24//98 21//98 44//98
f 17//99 18//99 26//99
f 26//100 30//100 29//100
f 29//101 25//101 17//101
f 41//95 36//95 37//95
f 37//95 38//95 39//95
f 39//95 42//95 43//95
f 43//95 40//95 41//95
f 41//95 37//95 39//95
f 8//102 6//102 3//102
f 3//103 4//103 1//103
f 1//104 5//104 8//104
f 8//105 7//105 6//105
f 6//106 2//106 3//106
f 3//107 1//107 8//107
