# Blender 4.0.1
# www.blender.org
o runner_body.001
v 0.106008 -0.596838 -0.129727
v 0.054626 0.401304 -0.164822
v 0.106008 -0.596838 -0.346472
v 0.054626 0.401304 -0.341864
v 0.574745 -0.461290 -0.135893
v 0.574745 0.324421 -0.175597
v 0.592192 -0.556533 -0.372226
v 0.617988 0.320918 -0.376629
v -0.269650 -0.498209 -0.173373
v -0.261932 0.438806 -0.173373
v -0.267014 -0.498209 -0.334155
v -0.259295 0.438806 -0.334155
v -0.592350 -0.285692 -0.189013
v -0.568226 0.411509 -0.189013
v -0.592350 -0.285692 -0.329160
v -0.568226 0.411509 -0.329161
v -0.940295 -0.040200 -0.208614
v -0.925205 0.376318 -0.208614
v -0.940295 -0.040200 -0.320110
v -0.925205 0.376318 -0.320110
v -1.562889 0.573063 -0.287042
v 0.673247 -0.462200 -0.121157
v 0.673247 0.323511 -0.160861
v 0.702397 -0.552853 -0.334234
v 0.724643 0.331387 -0.329818
vn -0.0245 0.0002 -0.9997
vn -0.0531 0.0019 -0.9986
vn 0.3263 -0.0143 -0.9452
vn 0.0029 0.0353 0.9994
vn 0.0826 -0.9966 -0.0000
vn 0.1421 0.9898 0.0133
vn -0.0887 0.9961 -0.0015
vn -0.1077 0.0294 0.9937
vn 0.1176 0.9931 0.0019
vn -0.2556 -0.9668 -0.0000
vn -0.0254 0.0009 -0.9997
vn -0.5469 -0.8372 -0.0000
vn -0.0162 0.0006 -0.9999
vn -0.0481 0.0004 0.9988
vn 0.2948 0.9556 -0.0000
vn -0.0549 0.0019 0.9985
vn -0.0981 0.9952 -0.0000
vn -0.5765 -0.8171 -0.0000
vn -0.7017 -0.7124 -0.0000
vn -0.0512 0.0019 -0.9987
vn -0.1207 0.0044 0.9927
vn -0.0322 0.0030 -0.9995
vn -0.0620 -0.0032 -0.9981
vn -0.0824 0.9960 -0.0351
vn 0.0281 0.0504 0.9983
vn 0.2618 -0.8883 0.3773
vn 0.1462 0.9893 -0.0000
vn -0.0880 0.9961 -0.0000
vn -0.0270 0.0002 0.9996
vn 0.1186 0.9929 -0.0000
vn -0.2535 -0.9673 -0.0042
vn -0.5497 -0.8353 -0.0090
vn -0.0153 0.0001 -0.9999
vn -0.0512 0.0018 0.9987
vn -0.0550 0.0020 0.9985
vn 0.9889 -0.0256 0.1462
vn 0.9564 0.0147 0.2916
vn -0.1473 0.0499 0.9878
vn -0.0658 -0.9214 0.3830
vn 0.4023 -0.0056 -0.9155
vn 0.0022 0.9989 0.0472
vn -0.0953 -0.9257 0.3660
s 0
f 4//1 11//1 12//1
f 4//2 7//2 3//2
f 8//3 24//3 7//3
f 5//4 2//4 1//4
f 7//5 1//5 3//5
f 4//6 6//6 8//6
f 12//7 14//7 10//7
f 2//8 9//8 1//8
f 2//9 12//9 10//9
f 1//10 11//10 3//10
f 16//11 19//11 20//11
f 11//12 13//12 15//12
f 12//13 15//13 16//13
f 10//14 13//14 9//14
f 18//15 20//15 21//15
f 14//16 17//16 13//16
f 16//17 18//17 14//17
f 15//18 17//18 19//18
f 19//19 17//19 21//19
f 20//20 19//20 21//20
f 17//21 18//21 21//21
f 4//22 3//22 11//22
f 4//23 8//23 7//23
f 6//24 25//24 8//24
f 5//25 6//25 2//25
f 7//26 5//26 1//26
f 4//27 2//27 6//27
f 12//28 16//28 14//28
f 2//29 10//29 9//29
f 2//30 4//30 12//30
f 1//31 9//31 11//31
f 16//11 15//11 19//11
f 11//32 9//32 13//32
f 12//33 11//33 15//33
f 10//34 14//34 13//34
f 14//35 18//35 17//35
f 16//17 20//17 18//17
f 15//18 13//18 17//18
f 25//36 22//36 24//36
f 25//37 23//37 22//37
f 5//38 23//38 6//38
f 5//39 24//39 22//39
f 8//40 25//40 24//40
f 6//41 23//41 25//41
f 5//38 22//38 23//38
f 5//42 7//42 24//42
