# Blender 4.0.1
# www.blender.org
o Cube
v 0.340570 0.000000 -0.340570 0.4196 0.4196 0.4196
v 0.340570 0.113523 -0.340570 0.4196 0.4196 0.4196
v 0.340570 0.000000 0.340570 0.4196 0.4196 0.4196
v 0.340570 0.113523 0.340570 0.4196 0.4196 0.4196
v -0.340570 0.000000 -0.340570 0.4196 0.4196 0.4196
v -0.340570 0.113523 -0.340570 0.4196 0.4196 0.4196
v -0.340570 0.000000 0.340570 0.4196 0.4196 0.4196
v -0.340570 0.113523 0.340570 0.4196 0.4196 0.4196
v 0.070416 0.113523 -0.070416 0.5921 0.5921 0.5921
v 0.070416 0.794663 -0.070416 0.5921 0.5921 0.5921
v 0.070416 0.113523 0.070416 0.5921 0.5921 0.5921
v 0.070416 0.964948 0.070416 0.5921 0.5921 0.5921
v -0.070416 0.113523 -0.070416 0.5921 0.5921 0.5921
v -0.070416 0.794663 -0.070416 0.5921 0.5921 0.5921
v -0.070416 0.113523 0.070416 0.5921 0.5921 0.5921
v -0.070416 0.964948 0.070416 0.5921 0.5921 0.5921
v 0.373658 0.572939 -0.229278 0.8000 0.8000 0.8000
v 0.309559 0.696048 -0.272226 0.8000 0.8000 0.8000
v 0.373659 1.126853 0.257416 0.8000 0.8000 0.8000
v 0.309559 1.154124 0.130261 0.8000 0.8000 0.8000
v -0.373659 0.572939 -0.229278 0.8000 0.8000 0.8000
v -0.309559 0.696048 -0.272226 0.8000 0.8000 0.8000
v -0.373658 1.126853 0.257416 0.8000 0.8000 0.8000
v -0.309559 1.154124 0.130261 0.8000 0.8000 0.8000
v 0.373658 0.648129 -0.314330 0.8000 0.8000 0.8000
v 0.373659 1.202043 0.172365 0.8000 0.8000 0.8000
v -0.373658 1.202043 0.172365 0.8000 0.8000 0.8000
v -0.373659 0.648129 -0.314329 0.8000 0.8000 0.8000
v 0.309559 0.696048 -0.272226 0.2000 0.2000 0.2000
v 0.309559 1.154124 0.130261 0.2000 0.2000 0.2000
v -0.309559 0.696048 -0.272226 0.2000 0.2000 0.2000
v -0.309559 1.154124 0.130261 0.2000 0.2000 0.2000
vn 1.0000 -0.0000 -0.0000
vn -0.0000 -0.0000 1.0000
vn -1.0000 -0.0000 -0.0000
vn -0.0000 -0.0000 -1.0000
vn -0.0000 1.0000 -0.0000
vn -0.0000 0.7492 0.6623
vn -0.0000 -0.7492 -0.6623
vn -0.0000 -0.6601 0.7512
vn -0.0000 0.6601 -0.7512
s 0
f 1//1 2//1 4//1 3//1
f 3//2 4//2 8//2 7//2
f 7//3 8//3 6//3 5//3
f 5//4 6//4 2//4 1//4
f 8//5 4//5 2//5 6//5
f 9//1 10//1 12//1 11//1
f 11//2 12//2 16//2 15//2
f 15//3 16//3 14//3 13//3
f 13//4 14//4 10//4 9//4
f 17//1 25//1 26//1 19//1
f 19//6 26//6 27//6 23//6
f 23//3 27//3 28//3 21//3
f 21//7 28//7 25//7 17//7
f 19//8 23//8 21//8 17//8
f 18//9 20//9 26//9 25//9
f 20//9 24//9 27//9 26//9
f 24//9 22//9 28//9 27//9
f 22//9 18//9 25//9 28//9
f 32//9 30//9 29//9 31//9
