# Blender 4.0.1
# www.blender.org
o Sphere
v 0.234237 -0.255325 -0.234237 1.0000 1.0000 1.0000
v 0.331262 -0.586587 -0.331262 1.0000 1.0000 1.0000
v 0.234237 -0.917848 -0.234237 1.0000 1.0000 1.0000
v 0.331262 -0.255325 0.000000 1.0000 1.0000 1.0000
v 0.468475 -0.586587 0.000000 1.0000 1.0000 1.0000
v 0.331262 -0.917848 0.000000 1.0000 1.0000 1.0000
v 0.234237 -0.255325 0.234237 1.0000 1.0000 1.0000
v 0.331262 -0.586587 0.331262 1.0000 1.0000 1.0000
v 0.234237 -0.917848 0.234237 1.0000 1.0000 1.0000
v 0.000000 -0.255325 0.331262 1.0000 1.0000 1.0000
v 0.000000 -0.586587 0.468475 1.0000 1.0000 1.0000
v 0.000000 -0.917848 0.331262 1.0000 1.0000 1.0000
v -0.234237 -0.255325 0.234237 1.0000 1.0000 1.0000
v -0.331262 -0.586587 0.331262 1.0000 1.0000 1.0000
v -0.234237 -0.917848 0.234237 1.0000 1.0000 1.0000
v 0.000000 -1.055061 0.000000 1.0000 1.0000 1.0000
v -0.331262 -0.255325 0.000000 1.0000 1.0000 1.0000
v -0.468475 -0.586587 0.000000 1.0000 1.0000 1.0000
v -0.331262 -0.917848 0.000000 1.0000 1.0000 1.0000
v -0.234237 -0.255325 -0.234237 1.0000 1.0000 1.0000
v -0.331262 -0.586587 -0.331262 1.0000 1.0000 1.0000
v -0.234237 -0.917848 -0.234237 1.0000 1.0000 1.0000
v 0.139586 -0.004565 -0.139586 1.0000 1.0000 1.0000
v 0.000000 -0.255325 -0.331262 1.0000 1.0000 1.0000
v 0.000000 -0.586587 -0.468475 1.0000 1.0000 1.0000
v 0.000000 -0.917848 -0.331262 1.0000 1.0000 1.0000
v 0.197404 -0.004565 0.000000 1.0000 1.0000 1.0000
v 0.139586 -0.004565 0.139586 1.0000 1.0000 1.0000
v 0.000000 -0.004565 0.197404 1.0000 1.0000 1.0000
v -0.139586 -0.004565 0.139586 1.0000 1.0000 1.0000
v -0.197404 -0.004565 0.000000 1.0000 1.0000 1.0000
v -0.139586 -0.004565 -0.139586 1.0000 1.0000 1.0000
v 0.000000 -0.004565 -0.197404 1.0000 1.0000 1.0000
v 0.093122 0.246194 -0.093122 1.0000 1.0000 1.0000
v 0.131694 0.246194 0.000000 1.0000 1.0000 1.0000
v 0.093122 0.246194 0.093122 1.0000 1.0000 1.0000
v 0.000000 0.246194 0.131694 1.0000 1.0000 1.0000
v -0.093122 0.246194 0.093122 1.0000 1.0000 1.0000
v -0.131694 0.246194 0.000000 1.0000 1.0000 1.0000
v -0.093122 0.246194 -0.093122 1.0000 1.0000 1.0000
v 0.000000 0.246194 -0.131694 1.0000 1.0000 1.0000
vn 0.3574 -0.3574 -0.8629
vn -0.3432 0.4423 0.8286
vn 0.1566 -0.9125 -0.3780
vn 0.3574 0.3574 -0.8629
vn 0.8629 -0.3574 -0.3574
vn 0.8286 0.4423 0.3432
vn 0.3780 -0.9125 -0.1566
vn 0.8629 0.3574 -0.3574
vn 0.8629 -0.3574 0.3574
vn 0.3432 0.4423 -0.8286
vn 0.3780 -0.9125 0.1566
vn 0.8629 0.3574 0.3574
vn 0.3574 -0.3574 0.8629
vn 0.8286 0.4423 -0.3432
vn 0.1566 -0.9125 0.3780
vn 0.3574 0.3574 0.8629
vn -0.3574 -0.3574 0.8629
vn 0.3432 0.4423 0.8286
vn -0.1566 -0.9125 0.3780
vn -0.3574 0.3574 0.8629
vn -0.8629 -0.3574 0.3574
vn -0.8286 0.4423 0.3432
vn -0.3780 -0.9125 0.1566
vn -0.8629 0.3574 0.3574
vn -0.8629 0.3574 -0.3574
vn -0.8629 -0.3574 -0.3574
vn -0.3432 0.4423 -0.8286
vn -0.3780 -0.9125 -0.1566
vn -0.1566 -0.9125 -0.3780
vn -0.3574 0.3574 -0.8629
vn -0.3574 -0.3574 -0.8629
vn -0.8286 0.4423 -0.3432
vn 0.3719 0.2353 0.8979
vn -0.3719 0.2353 -0.8979
vn -0.3719 0.2353 0.8979
vn -0.8979 0.2353 0.3719
vn -0.8979 0.2353 -0.3719
vn 0.8979 0.2353 -0.3719
vn 0.8979 0.2353 0.3719
vn 0.3719 0.2353 -0.8979
s 0
f 26//1 25//1 2//1 3//1
f 13//2 10//2 29//2 30//2
f 16//3 26//3 3//3
f 25//4 24//4 1//4 2//4
f 3//5 2//5 5//5 6//5
f 7//6 4//6 27//6 28//6
f 16//7 3//7 6//7
f 2//8 1//8 4//8 5//8
f 6//9 5//9 8//9 9//9
f 1//10 24//10 33//10 23//10
f 16//11 6//11 9//11
f 5//12 4//12 7//12 8//12
f 9//13 8//13 11//13 12//13
f 4//14 1//14 23//14 27//14
f 16//15 9//15 12//15
f 8//16 7//16 10//16 11//16
f 12//17 11//17 14//17 15//17
f 10//18 7//18 28//18 29//18
f 16//19 12//19 15//19
f 11//20 10//20 13//20 14//20
f 15//21 14//21 18//21 19//21
f 17//22 13//22 30//22 31//22
f 16//23 15//23 19//23
f 14//24 13//24 17//24 18//24
f 18//25 17//25 20//25 21//25
f 19//26 18//26 21//26 22//26
f 24//27 20//27 32//27 33//27
f 16//28 19//28 22//28
f 16//29 22//29 26//29
f 21//30 20//30 24//30 25//30
f 22//31 21//31 25//31 26//31
f 20//32 17//32 31//32 32//32
f 29//33 28//33 36//33 37//33
f 33//34 32//34 40//34 41//34
f 30//35 29//35 37//35 38//35
f 31//36 30//36 38//36 39//36
f 32//37 31//37 39//37 40//37
f 27//38 23//38 34//38 35//38
f 28//39 27//39 35//39 36//39
f 23//40 33//40 41//40 34//40
